999
dxfrw 0.6.3
  0
SECTION
  2
HEADER
  9
$ACADVER
  1
AC1021
  9
$DWGCODEPAGE
  3
ANSI_1252
  9
$INSBASE
 10
0
 20
0
 30
0
  9
$EXTMIN
 10
10.0004
 20
10.0004
 30
0
  9
$EXTMAX
 10
441.9
 20
240.3
 30
0
  9
$LIMMIN
 10
0
 20
0
  9
$LIMMAX
 10
420
 20
297
  9
$ORTHOMODE
 70
    0
  9
$REGENMODE
 70
    1
  9
$FILLMODE
 70
    0
  9
$QTEXTMODE
 70
    0
  9
$MIRRTEXT
 70
    0
  9
$LTSCALE
 40
1
  9
$ATTMODE
 70
    0
  9
$TEXTSIZE
 40
2.5
  9
$TRACEWID
 40
15.68
  9
$TEXTSTYLE
  7
STANDARD
  9
$CLAYER
  8
0
  9
$CELTYPE
  6
BYLAYER
  9
$CECOLOR
 62
  256
  9
$CELTSCALE
 40
1
  9
$DISPSILH
 70
    0
  9
$DIMSCALE
 40
2.5
  9
$DIMASZ
 40
2.5
  9
$DIMEXO
 40
0.625
  9
$DIMDLI
 40
3.75
  9
$DIMRND
 40
0
  9
$DIMDLE
 40
0
  9
$DIMEXE
 40
1.25
  9
$DIMTP
 40
0
  9
$DIMTM
 40
0
  9
$DIMTXT
 40
2.5
  9
$DIMCEN
 40
2.5
  9
$DIMTSZ
 40
0
  9
$DIMTOL
 70
    0
  9
$DIMLIM
 70
    0
  9
$DIMTIH
 70
    0
  9
$DIMTOH
 70
    0
  9
$DIMSE1
 70
    0
  9
$DIMSE2
 70
    0
  9
$DIMTAD
 70
    1
  9
$DIMZIN
 70
    8
  9
$DIMBLK
  1

  9
$DIMASO
 70
    1
  9
$DIMSHO
 70
    1
  9
$DIMPOST
  1

  9
$DIMAPOST
  1

  9
$DIMALT
 70
    0
  9
$DIMALTD
 70
    3
  9
$DIMALTF
 40
0.03937
  9
$DIMLFAC
 40
1
  9
$DIMTOFL
 70
    1
  9
$DIMTVP
 40
0
  9
$DIMTIX
 70
    0
  9
$DIMSOXD
 70
    0
  9
$DIMSAH
 70
    0
  9
$DIMBLK1
  1

  9
$DIMBLK2
  1

  9
$DIMSTYLE
  2
Standard
  9
$DIMCLRD
 70
    0
  9
$DIMCLRE
 70
    0
  9
$DIMCLRT
 70
    0
  9
$DIMTFAC
 40
1
  9
$DIMGAP
 40
0.625
  9
$DIMJUST
 70
    0
  9
$DIMSD1
 70
    0
  9
$DIMSD2
 70
    0
  9
$DIMTOLJ
 70
    0
  9
$DIMTZIN
 70
    8
  9
$DIMALTZ
 70
    0
  9
$DIMALTTZ
 70
    0
  9
$DIMUPT
 70
    0
  9
$DIMDEC
 70
    2
  9
$DIMTDEC
 70
    2
  9
$DIMALTU
 70
    2
  9
$DIMALTTD
 70
    3
  9
$DIMTXSTY
  7
STANDARD
  9
$DIMAUNIT
 70
    0
  9
$DIMADEC
 70
    0
  9
$DIMALTRND
 40
0
  9
$DIMAZIN
 70
    0
  9
$DIMDSEP
 70
   44
  9
$DIMATFIT
 70
    3
  9
$DIMFRAC
 70
    0
  9
$DIMLDRBLK
  1
STANDARD
  9
$DIMLUNIT
 70
    2
  9
$DIMLWD
 70
   -2
  9
$DIMLWE
 70
   -2
  9
$DIMTMOVE
 70
    0
  9
$DIMFXL
 40
1
  9
$DIMFXLON
 70
    0
  9
$DIMJOGANG
 40
0.7854
  9
$DIMTFILL
 70
    0
  9
$DIMTFILLCLR
 70
    0
  9
$DIMARCSYM
 70
    0
  9
$DIMLTYPE
  6

  9
$DIMLTEX1
  6

  9
$DIMLTEX2
  6

  9
$LUNITS
 70
    2
  9
$LUPREC
 70
    4
  9
$SKETCHINC
 40
1
  9
$FILLETRAD
 40
0
  9
$AUNITS
 70
    0
  9
$AUPREC
 70
    2
  9
$MENU
  1
.
  9
$ELEVATION
 40
0
  9
$PELEVATION
 40
0
  9
$THICKNESS
 40
0
  9
$LIMCHECK
 70
    0
  9
$CHAMFERA
 40
0
  9
$CHAMFERB
 40
0
  9
$CHAMFERC
 40
0
  9
$CHAMFERD
 40
0
  9
$SKPOLY
 70
    0
  9
$USRTIMER
 70
    1
  9
$ANGBASE
 50
0
  9
$ANGDIR
 70
    0
  9
$PDMODE
 70
   34
  9
$PDSIZE
 40
0
  9
$PLINEWID
 40
0
  9
$SPLFRAME
 70
    1
  9
$SPLINETYPE
 70
    2
  9
$SPLINESEGS
 70
    8
  9
$HANDSEED
  5
20000
  9
$SURFTAB1
 70
    6
  9
$SURFTAB2
 70
    6
  9
$SURFTYPE
 70
    6
  9
$SURFU
 70
    6
  9
$SURFV
 70
    6
  9
$UCSBASE
  2

  9
$UCSNAME
  2

  9
$UCSORG
 10
0
 20
0
 30
0
  9
$UCSXDIR
 10
1
 20
0
 30
0
  9
$UCSYDIR
 10
0
 20
1
 30
0
  9
$UCSORTHOREF
  2

  9
$UCSORTHOVIEW
 70
    0
  9
$UCSORGTOP
 10
0
 20
0
 30
0
  9
$UCSORGBOTTOM
 10
0
 20
0
 30
0
  9
$UCSORGLEFT
 10
0
 20
0
 30
0
  9
$UCSORGRIGHT
 10
0
 20
0
 30
0
  9
$UCSORGFRONT
 10
0
 20
0
 30
0
  9
$UCSORGBACK
 10
0
 20
0
 30
0
  9
$PUCSBASE
  2

  9
$PUCSNAME
  2

  9
$PUCSORG
 10
0
 20
0
 30
0
  9
$PUCSXDIR
 10
1
 20
0
 30
0
  9
$PUCSYDIR
 10
0
 20
1
 30
0
  9
$PUCSORTHOREF
  2

  9
$PUCSORTHOVIEW
 70
    0
  9
$PUCSORGTOP
 10
0
 20
0
 30
0
  9
$PUCSORGBOTTOM
 10
0
 20
0
 30
0
  9
$PUCSORGLEFT
 10
0
 20
0
 30
0
  9
$PUCSORGRIGHT
 10
0
 20
0
 30
0
  9
$PUCSORGFRONT
 10
0
 20
0
 30
0
  9
$PUCSORGBACK
 10
0
 20
0
 30
0
  9
$USERI1
 70
    0
  9
$USERI2
 70
    0
  9
$USERI3
 70
    0
  9
$USERI4
 70
    0
  9
$USERI5
 70
    0
  9
$USERR1
 40
0
  9
$USERR2
 40
0
  9
$USERR3
 40
0
  9
$USERR4
 40
0
  9
$USERR5
 40
0
  9
$WORLDVIEW
 70
    1
  9
$SHADEDGE
 70
    3
  9
$SHADEDIF
 70
   70
  9
$TILEMODE
 70
    1
  9
$MAXACTVP
 70
   64
  9
$PINSBASE
 10
0
 20
0
 30
0
  9
$PLIMCHECK
 70
    0
  9
$PEXTMIN
 10
0
 20
0
 30
0
  9
$PEXTMAX
 10
0
 20
0
 30
0
  9
$SNAPSTYLE
 70
    0
  9
$PLIMMIN
 10
0
 20
0
  9
$PLIMMAX
 10
210
 20
297
  9
$UNITMODE
 70
    0
  9
$VISRETAIN
 70
    1
  9
$PLINEGEN
 70
    0
  9
$PSLTSCALE
 70
    1
  9
$TREEDEPTH
 70
 3020
  9
$CMLSTYLE
  2
Standard
  9
$CMLJUST
 70
    0
  9
$CMLSCALE
 40
20
  9
$PROXYGRAPHICS
 70
    1
  9
$MEASUREMENT
 70
    1
  9
$CELWEIGHT
370
   -1
  9
$ENDCAPS
280
    0
  9
$JOINSTYLE
280
    0
  9
$LWDISPLAY
290
    0
  9
$INSUNITS
 70
    4
  9
$HYPERLINKBASE
  1

  9
$STYLESHEET
  1

  9
$XEDIT
290
    1
  9
$CEPSNTYPE
380
    0
  9
$PSTYLEMODE
290
    1
  9
$EXTNAMES
290
    1
  9
$PSVPSCALE
 40
1
  9
$OLESTARTUP
290
    0
  9
$SORTENTS
280
  127
  9
$INDEXCTL
280
    0
  9
$HIDETEXT
280
    1
  9
$XCLIPFRAME
290
    0
  9
$HALOGAP
280
    0
  9
$OBSCOLOR
 70
  257
  9
$OBSLTYPE
280
    0
  9
$INTERSECTIONDISPLAY
280
    0
  9
$INTERSECTIONCOLOR
 70
  257
  9
$DIMASSOC
280
    1
  9
$PROJECTNAME
  1

  9
$CAMERADISPLAY
290
    0
  9
$LENSLENGTH
 40
50
  9
$CAMERAHEIGHT
 40
0
  9
$STEPSPERSEC
 40
2
  9
$STEPSIZE
 40
50
  9
$3DDWFPREC
 40
2
  9
$PSOLWIDTH
 40
5
  9
$PSOLHEIGHT
 40
80
  9
$LOFTANG1
 40
1.570796326794897
  9
$LOFTANG2
 40
1.570796326794897
  9
$LOFTMAG1
 40
0
  9
$LOFTMAG2
 40
0
  9
$LOFTPARAM
 70
    7
  9
$LOFTNORMALS
280
    1
  9
$LATITUDE
 40
1
  9
$LONGITUDE
 40
1
  9
$NORTHDIRECTION
 40
0
  9
$TIMEZONE
 70
-8000
  9
$LIGHTGLYPHDISPLAY
280
    1
  9
$TILEMODELIGHTSYNCH
280
    1
  9
$SOLIDHIST
280
    1
  9
$SHOWHIST
280
    1
  9
$DWFFRAME
280
    2
  9
$DGNFRAME
280
    0
  9
$REALWORLDSCALE
290
    1
  9
$INTERFERECOLOR
 62
    1
  9
$CSHADOW
280
    0
  9
$SHADOWPLANELOCATION
 40
0
  0
ENDSEC
  0
SECTION
  2
CLASSES
  0
ENDSEC
  0
SECTION
  2
TABLES
  0
TABLE
  2
VPORT
  5
8
330
0
100
AcDbSymbolTable
 70
    1
  0
VPORT
  5
31
330
2
100
AcDbSymbolTableRecord
100
AcDbViewportTableRecord
  2
*ACTIVE
 70
    0
 10
0
 20
0
 11
1
 21
1
 12
285.7317287787296
 22
154.2087118456093
 13
0
 23
0
 14
10
 24
10
 15
10
 25
10
 16
0
 26
0
 36
1
 17
0
 27
0
 37
0
 40
427.7873897783627
 41
1.958333333333333
 42
50
 43
0
 44
0
 50
0
 51
0
 71
    0
 72
  100
 73
    1
 74
    3
 75
    0
 76
    1
 77
    0
 78
    0
281
    0
 65
    1
110
0
120
0
130
0
111
1
121
0
131
0
112
0
122
1
132
0
 79
    0
146
0
348
10020
 60
    7
 61
    5
292
1
282
    1
141
0
142
0
 63
  250
421
3358443
  0
ENDTAB
  0
TABLE
  2
LTYPE
  5
5
330
0
100
AcDbSymbolTable
 70
    4
  0
LTYPE
  5
14
330
5
100
AcDbSymbolTableRecord
100
AcDbLinetypeTableRecord
  2
ByBlock
 70
    0
  3

 72
   65
 73
    0
 40
0
  0
LTYPE
  5
15
330
5
100
AcDbSymbolTableRecord
100
AcDbLinetypeTableRecord
  2
ByLayer
 70
    0
  3

 72
   65
 73
    0
 40
0
  0
LTYPE
  5
16
330
5
100
AcDbSymbolTableRecord
100
AcDbLinetypeTableRecord
  2
Continuous
 70
    0
  3
Solid line
 72
   65
 73
    0
 40
0
  0
LTYPE
  5
32
330
5
100
AcDbSymbolTableRecord
100
AcDbLinetypeTableRecord
  2
DOT
 70
    0
  3
Dot . . . . . . . . . . . . . . . . . . . . . .
 72
   65
 73
    2
 40
6.35
 49
0
 74
    0
 49
-6.35
 74
    0
  0
LTYPE
  5
33
330
5
100
AcDbSymbolTableRecord
100
AcDbLinetypeTableRecord
  2
DOTTINY
 70
    0
  3
Dot (.15x) .....................................
 72
   65
 73
    2
 40
0.9525
 49
0
 74
    0
 49
-0.9525
 74
    0
  0
LTYPE
  5
34
330
5
100
AcDbSymbolTableRecord
100
AcDbLinetypeTableRecord
  2
DOT2
 70
    0
  3
Dot (.5x) .....................................
 72
   65
 73
    2
 40
3.175
 49
0
 74
    0
 49
-3.175
 74
    0
  0
LTYPE
  5
35
330
5
100
AcDbSymbolTableRecord
100
AcDbLinetypeTableRecord
  2
DOTX2
 70
    0
  3
Dot (2x) .  .  .  .  .  .  .  .  .  .  .  .  .
 72
   65
 73
    2
 40
12.7
 49
0
 74
    0
 49
-12.7
 74
    0
  0
LTYPE
  5
36
330
5
100
AcDbSymbolTableRecord
100
AcDbLinetypeTableRecord
  2
DASHED
 70
    0
  3
Dashed _ _ _ _ _ _ _ _ _ _ _ _ _ _ _ _ _
 72
   65
 73
    2
 40
19.05
 49
12.7
 74
    0
 49
-6.35
 74
    0
  0
LTYPE
  5
37
330
5
100
AcDbSymbolTableRecord
100
AcDbLinetypeTableRecord
  2
DASHEDTINY
 70
    0
  3
Dashed (.15x) _ _ _ _ _ _ _ _ _ _ _ _ _ _ _ _ _
 72
   65
 73
    2
 40
2.8575
 49
1.905
 74
    0
 49
-0.9525
 74
    0
  0
LTYPE
  5
38
330
5
100
AcDbSymbolTableRecord
100
AcDbLinetypeTableRecord
  2
DASHED2
 70
    0
  3
Dashed (.5x) _ _ _ _ _ _ _ _ _ _ _ _ _ _ _ _ _
 72
   65
 73
    2
 40
9.524999999999999
 49
6.35
 74
    0
 49
-3.175
 74
    0
  0
LTYPE
  5
39
330
5
100
AcDbSymbolTableRecord
100
AcDbLinetypeTableRecord
  2
DASHEDX2
 70
    0
  3
Dashed (2x) ____  ____  ____  ____  ____  ___
 72
   65
 73
    2
 40
38.09999999999999
 49
25.4
 74
    0
 49
-12.7
 74
    0
  0
LTYPE
  5
3A
330
5
100
AcDbSymbolTableRecord
100
AcDbLinetypeTableRecord
  2
DASHDOT
 70
    0
  3
Dash dot __ . __ . __ . __ . __ . __ . __ . __
 72
   65
 73
    4
 40
25.4
 49
12.7
 74
    0
 49
-6.35
 74
    0
 49
0
 74
    0
 49
-6.35
 74
    0
  0
LTYPE
  5
3B
330
5
100
AcDbSymbolTableRecord
100
AcDbLinetypeTableRecord
  2
DASHDOTTINY
 70
    0
  3
Dash dot (.15x) _._._._._._._._._._._._._._._.
 72
   65
 73
    4
 40
3.81
 49
1.905
 74
    0
 49
-0.9525
 74
    0
 49
0
 74
    0
 49
-0.9525
 74
    0
  0
LTYPE
  5
3C
330
5
100
AcDbSymbolTableRecord
100
AcDbLinetypeTableRecord
  2
DASHDOT2
 70
    0
  3
Dash dot (.5x) _._._._._._._._._._._._._._._.
 72
   65
 73
    4
 40
12.7
 49
6.35
 74
    0
 49
-3.175
 74
    0
 49
0
 74
    0
 49
-3.175
 74
    0
  0
LTYPE
  5
3D
330
5
100
AcDbSymbolTableRecord
100
AcDbLinetypeTableRecord
  2
DASHDOTX2
 70
    0
  3
Dash dot (2x) ____  .  ____  .  ____  .  ___
 72
   65
 73
    4
 40
50.8
 49
25.4
 74
    0
 49
-12.7
 74
    0
 49
0
 74
    0
 49
-12.7
 74
    0
  0
LTYPE
  5
3E
330
5
100
AcDbSymbolTableRecord
100
AcDbLinetypeTableRecord
  2
DIVIDE
 70
    0
  3
Divide ____ . . ____ . . ____ . . ____ . . ____
 72
   65
 73
    6
 40
31.75
 49
12.7
 74
    0
 49
-6.35
 74
    0
 49
0
 74
    0
 49
-6.35
 74
    0
 49
0
 74
    0
 49
-6.35
 74
    0
  0
LTYPE
  5
3F
330
5
100
AcDbSymbolTableRecord
100
AcDbLinetypeTableRecord
  2
DIVIDETINY
 70
    0
  3
Divide (.15x) __..__..__..__..__..__..__..__.._
 72
   65
 73
    6
 40
4.7625
 49
1.905
 74
    0
 49
-0.9525
 74
    0
 49
0
 74
    0
 49
-0.9525
 74
    0
 49
0
 74
    0
 49
-0.9525
 74
    0
  0
LTYPE
  5
40
330
5
100
AcDbSymbolTableRecord
100
AcDbLinetypeTableRecord
  2
DIVIDE2
 70
    0
  3
Divide (.5x) __..__..__..__..__..__..__..__.._
 72
   65
 73
    6
 40
15.875
 49
6.35
 74
    0
 49
-3.175
 74
    0
 49
0
 74
    0
 49
-3.175
 74
    0
 49
0
 74
    0
 49
-3.175
 74
    0
  0
LTYPE
  5
41
330
5
100
AcDbSymbolTableRecord
100
AcDbLinetypeTableRecord
  2
DIVIDEX2
 70
    0
  3
Divide (2x) ________  .  .  ________  .  .  _
 72
   65
 73
    6
 40
63.5
 49
25.4
 74
    0
 49
-12.7
 74
    0
 49
0
 74
    0
 49
-12.7
 74
    0
 49
0
 74
    0
 49
-12.7
 74
    0
  0
LTYPE
  5
42
330
5
100
AcDbSymbolTableRecord
100
AcDbLinetypeTableRecord
  2
BORDER
 70
    0
  3
Border __ __ . __ __ . __ __ . __ __ . __ __ .
 72
   65
 73
    6
 40
44.45
 49
12.7
 74
    0
 49
-6.35
 74
    0
 49
12.7
 74
    0
 49
-6.35
 74
    0
 49
0
 74
    0
 49
-6.35
 74
    0
  0
LTYPE
  5
43
330
5
100
AcDbSymbolTableRecord
100
AcDbLinetypeTableRecord
  2
BORDERTINY
 70
    0
  3
Border (.15x) __.__.__.__.__.__.__.__.__.__.__.
 72
   65
 73
    6
 40
6.6675
 49
1.905
 74
    0
 49
-0.9525
 74
    0
 49
1.905
 74
    0
 49
-0.9525
 74
    0
 49
0
 74
    0
 49
-0.9525
 74
    0
  0
LTYPE
  5
44
330
5
100
AcDbSymbolTableRecord
100
AcDbLinetypeTableRecord
  2
BORDER2
 70
    0
  3
Border (.5x) __.__.__.__.__.__.__.__.__.__.__.
 72
   65
 73
    6
 40
22.225
 49
6.35
 74
    0
 49
-3.175
 74
    0
 49
6.35
 74
    0
 49
-3.175
 74
    0
 49
0
 74
    0
 49
-3.175
 74
    0
  0
LTYPE
  5
45
330
5
100
AcDbSymbolTableRecord
100
AcDbLinetypeTableRecord
  2
BORDERX2
 70
    0
  3
Border (2x) ____  ____  .  ____  ____  .  ___
 72
   65
 73
    6
 40
88.89999999999999
 49
25.4
 74
    0
 49
-12.7
 74
    0
 49
25.4
 74
    0
 49
-12.7
 74
    0
 49
0
 74
    0
 49
-12.7
 74
    0
  0
LTYPE
  5
46
330
5
100
AcDbSymbolTableRecord
100
AcDbLinetypeTableRecord
  2
CENTER
 70
    0
  3
Center ____ _ ____ _ ____ _ ____ _ ____ _ ____
 72
   65
 73
    4
 40
50.8
 49
31.75
 74
    0
 49
-6.35
 74
    0
 49
6.35
 74
    0
 49
-6.35
 74
    0
  0
LTYPE
  5
47
330
5
100
AcDbSymbolTableRecord
100
AcDbLinetypeTableRecord
  2
CENTERTINY
 70
    0
  3
Center (.15x) ___ _ ___ _ ___ _ ___ _ ___ _ ___
 72
   65
 73
    4
 40
7.619999999999999
 49
4.7625
 74
    0
 49
-0.9525
 74
    0
 49
0.9525
 74
    0
 49
-0.9525
 74
    0
  0
LTYPE
  5
48
330
5
100
AcDbSymbolTableRecord
100
AcDbLinetypeTableRecord
  2
CENTER2
 70
    0
  3
Center (.5x) ___ _ ___ _ ___ _ ___ _ ___ _ ___
 72
   65
 73
    4
 40
28.575
 49
19.05
 74
    0
 49
-3.175
 74
    0
 49
3.175
 74
    0
 49
-3.175
 74
    0
  0
LTYPE
  5
49
330
5
100
AcDbSymbolTableRecord
100
AcDbLinetypeTableRecord
  2
CENTERX2
 70
    0
  3
Center (2x) ________  __  ________  __  _____
 72
   65
 73
    4
 40
101.6
 49
63.5
 74
    0
 49
-12.7
 74
    0
 49
12.7
 74
    0
 49
-12.7
 74
    0
  0
ENDTAB
  0
TABLE
  2
LAYER
  5
2
330
0
100
AcDbSymbolTable
 70
    1
  0
LAYER
  5
10
330
2
100
AcDbSymbolTableRecord
100
AcDbLayerTableRecord
  2
0
 70
    0
 62
    7
  6
CONTINUOUS
370
   -3
390
F
  0
ENDTAB
  0
TABLE
  2
STYLE
  5
3
330
0
100
AcDbSymbolTable
 70
    3
  0
STYLE
  5
4A
330
2
100
AcDbSymbolTableRecord
100
AcDbTextStyleTableRecord
  2
STANDARD
 70
    0
 40
0
 41
1
 50
0
 71
    0
 42
1
  3
STANDARD
  4

  0
ENDTAB
  0
TABLE
  2
VIEW
  5
6
330
0
100
AcDbSymbolTable
 70
    0
  0
ENDTAB
  0
TABLE
  2
UCS
  5
7
330
0
100
AcDbSymbolTable
 70
    0
  0
ENDTAB
  0
TABLE
  2
APPID
  5
9
330
0
100
AcDbSymbolTable
 70
    1
  0
APPID
  5
12
330
9
100
AcDbSymbolTableRecord
100
AcDbRegAppTableRecord
  2
ACAD
 70
    0
  0
APPID
  5
4B
330
9
100
AcDbSymbolTableRecord
100
AcDbRegAppTableRecord
  2
LibreCad
 70
    0
  0
ENDTAB
  0
TABLE
  2
DIMSTYLE
  5
A
330
0
100
AcDbSymbolTable
 70
    1
100
AcDbDimStyleTable
 71
    1
  0
DIMSTYLE
105
4C
330
A
100
AcDbSymbolTableRecord
100
AcDbDimStyleTableRecord
  2
Standard
 70
    0
 40
1
 41
2.5
 42
0.625
 43
0.38
 44
1.25
 45
0
 46
0
 47
0
 48
0
 49
1
140
2.5
141
0.09
142
2.5
143
25.4
144
1
145
0
146
1
147
0.625
148
0
 71
    0
 72
    0
 73
    0
 74
    1
 75
    0
 76
    0
 77
    0
 78
    1
 79
    0
170
    0
171
    2
172
    0
173
    0
174
    0
175
    0
176
    0
177
    0
178
    0
179
    0
271
    2
272
    4
273
    2
274
    2
275
    0
276
    0
277
    2
278
    0
279
    0
280
    0
281
    0
282
    0
283
    1
284
    0
285
    0
286
    0
288
    0
289
    3
340
standard
341

371
   -2
372
   -2
  0
ENDTAB
  0
TABLE
  2
BLOCK_RECORD
  5
1
330
0
100
AcDbSymbolTable
 70
    2
  0
BLOCK_RECORD
  5
1F
330
1
100
AcDbSymbolTableRecord
100
AcDbBlockTableRecord
  2
*Model_Space
 70
    0
280
    1
281
    0
  0
BLOCK_RECORD
  5
1E
330
1
100
AcDbSymbolTableRecord
100
AcDbBlockTableRecord
  2
*Paper_Space
 70
    0
280
    1
281
    0
  0
ENDTAB
  0
ENDSEC
  0
SECTION
  2
BLOCKS
  0
BLOCK
  5
20
330
1F
100
AcDbEntity
  8
0
100
AcDbBlockBegin
  2
*Model_Space
 70
    0
 10
0
 20
0
 30
0
  3
*Model_Space
  1

  0
ENDBLK
  5
21
330
1F
100
AcDbEntity
  8
0
100
AcDbBlockEnd
  0
BLOCK
  5
1C
330
1B
100
AcDbEntity
  8
0
100
AcDbBlockBegin
  2
*Paper_Space
 70
    0
 10
0
 20
0
 30
0
  3
*Paper_Space
  1

  0
ENDBLK
  5
1D
330
1F
100
AcDbEntity
  8
0
100
AcDbBlockEnd
  0
ENDSEC
  0
SECTION
  2
ENTITIES
  0
LWPOLYLINE
  5
4D
100
AcDbEntity
  8
0
  6
ByLayer
 62
    0
370
   -1
100
AcDbPolyline
 90
    4
 70
    1
 43
0
 10
10.0996
 20
10.0004
 10
110.1
 20
10.0004
 10
110.1
 20
19.9995
 10
10.0996
 20
19.9995
  0
TEXT
  5
4E
100
AcDbEntity
  8
0
  6
ByLayer
 62
    1
370
   -1
100
AcDbText
 10
28.2549
 20
13.7943
 30
0
 40
6.00075
  1
100.0mm, burn:0.10mm
 50
0
 41
1
 51
0
  7
STANDARD
 71
    0
210
0
220
0
230
1
100
AcDbText
  0
LWPOLYLINE
  5
4F
100
AcDbEntity
  8
0
  6
ByLayer
 62
    5
370
   -1
100
AcDbPolyline
 90
   29
 70
    1
 43
0
 10
23.6003
 20
24.8998
 10
20.6995
 20
24.8998
 10
20.6885
 20
24.8998
 10
20.6568
 20
24.886
 10
20.6623
 20
24.8626
 10
20.6843
 20
24.8584
 10
20.6995
 20
24.8901
 10
20.6995
 20
24.8998
 10
20.6995
 20
27.6999
 10
20.6995
 20
27.711
 10
20.6843
 20
27.7427
 10
20.6623
 20
27.7385
 10
20.6568
 20
27.7151
 10
20.6885
 20
27.6999
 10
20.6995
 20
27.6999
 10
26.4997
 20
27.6999
 10
26.5093
 20
27.6999
 10
26.541
 20
27.7151
 10
26.5369
 20
27.7385
 10
26.5135
 20
27.7427
 10
26.4997
 20
27.711
 10
26.4997
 20
27.6999
 10
26.4997
 20
24.8998
 10
26.4997
 20
24.8901
 10
26.5135
 20
24.8584
 10
26.5369
 20
24.8626
 10
26.541
 20
24.886
 10
26.5093
 20
24.8998
 10
26.4997
 20
24.8998
  0
LWPOLYLINE
  5
50
100
AcDbEntity
  8
0
  6
ByLayer
 62
    5
370
   -1
100
AcDbPolyline
 90
   29
 70
    1
 43
0
 10
35.6002
 20
24.8998
 10
32.6995
 20
24.8998
 10
32.6885
 20
24.8998
 10
32.6567
 20
24.886
 10
32.6622
 20
24.8626
 10
32.6843
 20
24.8584
 10
32.6995
 20
24.8901
 10
32.6995
 20
24.8998
 10
32.6995
 20
27.6999
 10
32.6995
 20
27.711
 10
32.6843
 20
27.7427
 10
32.6622
 20
27.7385
 10
32.6567
 20
27.7151
 10
32.6885
 20
27.6999
 10
32.6995
 20
27.6999
 10
38.4997
 20
27.6999
 10
38.5092
 20
27.6999
 10
38.541
 20
27.7151
 10
38.5367
 20
27.7385
 10
38.5135
 20
27.7427
 10
38.4997
 20
27.711
 10
38.4997
 20
27.6999
 10
38.4997
 20
24.8998
 10
38.4997
 20
24.8901
 10
38.5135
 20
24.8584
 10
38.5367
 20
24.8626
 10
38.541
 20
24.886
 10
38.5092
 20
24.8998
 10
38.4997
 20
24.8998
  0
LWPOLYLINE
  5
51
100
AcDbEntity
  8
0
  6
ByLayer
 62
    5
370
   -1
100
AcDbPolyline
 90
   29
 70
    1
 43
0
 10
47.6003
 20
24.8998
 10
44.7008
 20
24.8998
 10
44.6899
 20
24.8998
 10
44.6581
 20
24.886
 10
44.6624
 20
24.8626
 10
44.6857
 20
24.8584
 10
44.7008
 20
24.8901
 10
44.7008
 20
24.8998
 10
44.7008
 20
27.6999
 10
44.7008
 20
27.711
 10
44.6857
 20
27.7427
 10
44.6624
 20
27.7385
 10
44.6581
 20
27.7151
 10
44.6899
 20
27.6999
 10
44.7008
 20
27.6999
 10
50.4994
 20
27.6999
 10
50.5093
 20
27.6999
 10
50.5411
 20
27.7151
 10
50.5368
 20
27.7385
 10
50.5135
 20
27.7427
 10
50.4994
 20
27.711
 10
50.4994
 20
27.6999
 10
50.4994
 20
24.8998
 10
50.4994
 20
24.8901
 10
50.5135
 20
24.8584
 10
50.5368
 20
24.8626
 10
50.5411
 20
24.886
 10
50.5093
 20
24.8998
 10
50.4994
 20
24.8998
  0
LWPOLYLINE
  5
52
100
AcDbEntity
  8
0
  6
ByLayer
 62
    5
370
   -1
100
AcDbPolyline
 90
   29
 70
    1
 43
0
 10
59.6
 20
24.8998
 10
56.6995
 20
24.8998
 10
56.6882
 20
24.8998
 10
56.6568
 20
24.886
 10
56.6621
 20
24.8626
 10
56.6843
 20
24.8584
 10
56.6995
 20
24.8901
 10
56.6995
 20
24.8998
 10
56.6995
 20
27.6999
 10
56.6995
 20
27.711
 10
56.6843
 20
27.7427
 10
56.6621
 20
27.7385
 10
56.6568
 20
27.7151
 10
56.6882
 20
27.6999
 10
56.6995
 20
27.6999
 10
62.4995
 20
27.6999
 10
62.509
 20
27.6999
 10
62.5408
 20
27.7151
 10
62.5369
 20
27.7385
 10
62.5133
 20
27.7427
 10
62.4995
 20
27.711
 10
62.4995
 20
27.6999
 10
62.4995
 20
24.8998
 10
62.4995
 20
24.8901
 10
62.5133
 20
24.8584
 10
62.5369
 20
24.8626
 10
62.5408
 20
24.886
 10
62.509
 20
24.8998
 10
62.4995
 20
24.8998
  0
LWPOLYLINE
  5
53
100
AcDbEntity
  8
0
  6
ByLayer
 62
    5
370
   -1
100
AcDbPolyline
 90
   29
 70
    1
 43
0
 10
71.6001
 20
24.8998
 10
68.6992
 20
24.8998
 10
68.6883
 20
24.8998
 10
68.6566
 20
24.886
 10
68.6622
 20
24.8626
 10
68.6841
 20
24.8584
 10
68.6992
 20
24.8901
 10
68.6992
 20
24.8998
 10
68.6992
 20
27.6999
 10
68.6992
 20
27.711
 10
68.6841
 20
27.7427
 10
68.6622
 20
27.7385
 10
68.6566
 20
27.7151
 10
68.6883
 20
27.6999
 10
68.6992
 20
27.6999
 10
74.4996
 20
27.6999
 10
74.5091
 20
27.6999
 10
74.54089999999999
 20
27.7151
 10
74.5367
 20
27.7385
 10
74.5134
 20
27.7427
 10
74.4996
 20
27.711
 10
74.4996
 20
27.6999
 10
74.4996
 20
24.8998
 10
74.4996
 20
24.8901
 10
74.5134
 20
24.8584
 10
74.5367
 20
24.8626
 10
74.54089999999999
 20
24.886
 10
74.5091
 20
24.8998
 10
74.4996
 20
24.8998
  0
LWPOLYLINE
  5
54
100
AcDbEntity
  8
0
  6
ByLayer
 62
    5
370
   -1
100
AcDbPolyline
 90
   29
 70
    1
 43
0
 10
83.6002
 20
24.8998
 10
80.7007
 20
24.8998
 10
80.68980000000001
 20
24.8998
 10
80.6581
 20
24.886
 10
80.6619
 20
24.8626
 10
80.68559999999999
 20
24.8584
 10
80.7007
 20
24.8901
 10
80.7007
 20
24.8998
 10
80.7007
 20
27.6999
 10
80.7007
 20
27.711
 10
80.68559999999999
 20
27.7427
 10
80.6619
 20
27.7385
 10
80.6581
 20
27.7151
 10
80.68980000000001
 20
27.6999
 10
80.7007
 20
27.6999
 10
86.49939999999999
 20
27.6999
 10
86.50920000000001
 20
27.6999
 10
86.541
 20
27.7151
 10
86.5367
 20
27.7385
 10
86.51309999999999
 20
27.7427
 10
86.49939999999999
 20
27.711
 10
86.49939999999999
 20
27.6999
 10
86.49939999999999
 20
24.8998
 10
86.49939999999999
 20
24.8901
 10
86.51309999999999
 20
24.8584
 10
86.5367
 20
24.8626
 10
86.541
 20
24.886
 10
86.50920000000001
 20
24.8998
 10
86.49939999999999
 20
24.8998
  0
LWPOLYLINE
  5
55
100
AcDbEntity
  8
0
  6
ByLayer
 62
    5
370
   -1
100
AcDbPolyline
 90
   29
 70
    1
 43
0
 10
95.59999999999999
 20
24.8998
 10
92.70050000000001
 20
24.8998
 10
92.6895
 20
24.8998
 10
92.65779999999999
 20
24.886
 10
92.66200000000001
 20
24.8626
 10
92.6853
 20
24.8584
 10
92.70050000000001
 20
24.8901
 10
92.70050000000001
 20
24.8998
 10
92.70050000000001
 20
27.6999
 10
92.70050000000001
 20
27.711
 10
92.6853
 20
27.7427
 10
92.66200000000001
 20
27.7385
 10
92.65779999999999
 20
27.7151
 10
92.6895
 20
27.6999
 10
92.70050000000001
 20
27.6999
 10
98.5008
 20
27.6999
 10
98.5104
 20
27.6999
 10
98.5421
 20
27.7151
 10
98.53789999999999
 20
27.7385
 10
98.5146
 20
27.7427
 10
98.5008
 20
27.711
 10
98.5008
 20
27.6999
 10
98.5008
 20
24.8998
 10
98.5008
 20
24.8901
 10
98.5146
 20
24.8584
 10
98.53789999999999
 20
24.8626
 10
98.5421
 20
24.886
 10
98.5104
 20
24.8998
 10
98.5008
 20
24.8998
  0
LWPOLYLINE
  5
56
100
AcDbEntity
  8
0
  6
ByLayer
 62
    5
370
   -1
100
AcDbPolyline
 90
   29
 70
    1
 43
0
 10
107.6
 20
24.8998
 10
104.699
 20
24.8998
 10
104.688
 20
24.8998
 10
104.656
 20
24.886
 10
104.662
 20
24.8626
 10
104.684
 20
24.8584
 10
104.699
 20
24.8901
 10
104.699
 20
24.8998
 10
104.699
 20
27.6999
 10
104.699
 20
27.711
 10
104.684
 20
27.7427
 10
104.662
 20
27.7385
 10
104.656
 20
27.7151
 10
104.688
 20
27.6999
 10
104.699
 20
27.6999
 10
110.5
 20
27.6999
 10
110.509
 20
27.6999
 10
110.541
 20
27.7151
 10
110.537
 20
27.7385
 10
110.513
 20
27.7427
 10
110.5
 20
27.711
 10
110.5
 20
27.6999
 10
110.5
 20
24.8998
 10
110.5
 20
24.8901
 10
110.513
 20
24.8584
 10
110.537
 20
24.8626
 10
110.541
 20
24.886
 10
110.509
 20
24.8998
 10
110.5
 20
24.8998
  0
LWPOLYLINE
  5
57
100
AcDbEntity
  8
0
  6
ByLayer
 62
    5
370
   -1
100
AcDbPolyline
 90
   29
 70
    1
 43
0
 10
119.6
 20
24.8998
 10
116.701
 20
24.8998
 10
116.689
 20
24.8998
 10
116.658
 20
24.886
 10
116.662
 20
24.8626
 10
116.685
 20
24.8584
 10
116.701
 20
24.8901
 10
116.701
 20
24.8998
 10
116.701
 20
27.6999
 10
116.701
 20
27.711
 10
116.685
 20
27.7427
 10
116.662
 20
27.7385
 10
116.658
 20
27.7151
 10
116.689
 20
27.6999
 10
116.701
 20
27.6999
 10
122.499
 20
27.6999
 10
122.509
 20
27.6999
 10
122.541
 20
27.7151
 10
122.537
 20
27.7385
 10
122.513
 20
27.7427
 10
122.499
 20
27.711
 10
122.499
 20
27.6999
 10
122.499
 20
24.8998
 10
122.499
 20
24.8901
 10
122.513
 20
24.8584
 10
122.537
 20
24.8626
 10
122.541
 20
24.886
 10
122.509
 20
24.8998
 10
122.499
 20
24.8998
  0
LWPOLYLINE
  5
58
100
AcDbEntity
  8
0
  6
ByLayer
 62
    5
370
   -1
100
AcDbPolyline
 90
   29
 70
    1
 43
0
 10
131.6
 20
24.8998
 10
128.7
 20
24.8998
 10
128.689
 20
24.8998
 10
128.658
 20
24.886
 10
128.662
 20
24.8626
 10
128.685
 20
24.8584
 10
128.7
 20
24.8901
 10
128.7
 20
24.8998
 10
128.7
 20
27.6999
 10
128.7
 20
27.711
 10
128.685
 20
27.7427
 10
128.662
 20
27.7385
 10
128.658
 20
27.7151
 10
128.689
 20
27.6999
 10
128.7
 20
27.6999
 10
134.501
 20
27.6999
 10
134.51
 20
27.6999
 10
134.542
 20
27.7151
 10
134.538
 20
27.7385
 10
134.515
 20
27.7427
 10
134.501
 20
27.711
 10
134.501
 20
27.6999
 10
134.501
 20
24.8998
 10
134.501
 20
24.8901
 10
134.515
 20
24.8584
 10
134.538
 20
24.8626
 10
134.542
 20
24.886
 10
134.51
 20
24.8998
 10
134.501
 20
24.8998
  0
LWPOLYLINE
  5
59
100
AcDbEntity
  8
0
  6
ByLayer
 62
    5
370
   -1
100
AcDbPolyline
 90
   29
 70
    1
 43
0
 10
143.6
 20
24.8998
 10
140.7
 20
24.8998
 10
140.69
 20
24.8998
 10
140.658
 20
24.886
 10
140.662
 20
24.8626
 10
140.685
 20
24.8584
 10
140.7
 20
24.8901
 10
140.7
 20
24.8998
 10
140.7
 20
27.6999
 10
140.7
 20
27.711
 10
140.685
 20
27.7427
 10
140.662
 20
27.7385
 10
140.658
 20
27.7151
 10
140.69
 20
27.6999
 10
140.7
 20
27.6999
 10
146.501
 20
27.6999
 10
146.51
 20
27.6999
 10
146.542
 20
27.7151
 10
146.538
 20
27.7385
 10
146.514
 20
27.7427
 10
146.501
 20
27.711
 10
146.501
 20
27.6999
 10
146.501
 20
24.8998
 10
146.501
 20
24.8901
 10
146.514
 20
24.8584
 10
146.538
 20
24.8626
 10
146.542
 20
24.886
 10
146.51
 20
24.8998
 10
146.501
 20
24.8998
  0
LWPOLYLINE
  5
5A
100
AcDbEntity
  8
0
  6
ByLayer
 62
    5
370
   -1
100
AcDbPolyline
 90
   29
 70
    1
 43
0
 10
155.6
 20
24.8998
 10
152.701
 20
24.8998
 10
152.689
 20
24.8998
 10
152.658
 20
24.886
 10
152.662
 20
24.8626
 10
152.685
 20
24.8584
 10
152.701
 20
24.8901
 10
152.701
 20
24.8998
 10
152.701
 20
27.6999
 10
152.701
 20
27.711
 10
152.685
 20
27.7427
 10
152.662
 20
27.7385
 10
152.658
 20
27.7151
 10
152.689
 20
27.6999
 10
152.701
 20
27.6999
 10
158.499
 20
27.6999
 10
158.509
 20
27.6999
 10
158.54
 20
27.7151
 10
158.537
 20
27.7385
 10
158.513
 20
27.7427
 10
158.499
 20
27.711
 10
158.499
 20
27.6999
 10
158.499
 20
24.8998
 10
158.499
 20
24.8901
 10
158.513
 20
24.8584
 10
158.537
 20
24.8626
 10
158.54
 20
24.886
 10
158.509
 20
24.8998
 10
158.499
 20
24.8998
  0
LWPOLYLINE
  5
5B
100
AcDbEntity
  8
0
  6
ByLayer
 62
    5
370
   -1
100
AcDbPolyline
 90
   29
 70
    1
 43
0
 10
167.6
 20
24.8998
 10
164.7
 20
24.8998
 10
164.689
 20
24.8998
 10
164.658
 20
24.886
 10
164.662
 20
24.8626
 10
164.685
 20
24.8584
 10
164.7
 20
24.8901
 10
164.7
 20
24.8998
 10
164.7
 20
27.6999
 10
164.7
 20
27.711
 10
164.685
 20
27.7427
 10
164.662
 20
27.7385
 10
164.658
 20
27.7151
 10
164.689
 20
27.6999
 10
164.7
 20
27.6999
 10
170.501
 20
27.6999
 10
170.51
 20
27.6999
 10
170.542
 20
27.7151
 10
170.538
 20
27.7385
 10
170.514
 20
27.7427
 10
170.501
 20
27.711
 10
170.501
 20
27.6999
 10
170.501
 20
24.8998
 10
170.501
 20
24.8901
 10
170.514
 20
24.8584
 10
170.538
 20
24.8626
 10
170.542
 20
24.886
 10
170.51
 20
24.8998
 10
170.501
 20
24.8998
  0
LWPOLYLINE
  5
5C
100
AcDbEntity
  8
0
  6
ByLayer
 62
    5
370
   -1
100
AcDbPolyline
 90
   29
 70
    1
 43
0
 10
179.6
 20
24.8998
 10
176.7
 20
24.8998
 10
176.689
 20
24.8998
 10
176.658
 20
24.886
 10
176.662
 20
24.8626
 10
176.685
 20
24.8584
 10
176.7
 20
24.8901
 10
176.7
 20
24.8998
 10
176.7
 20
27.6999
 10
176.7
 20
27.711
 10
176.685
 20
27.7427
 10
176.662
 20
27.7385
 10
176.658
 20
27.7151
 10
176.689
 20
27.6999
 10
176.7
 20
27.6999
 10
182.5
 20
27.6999
 10
182.51
 20
27.6999
 10
182.542
 20
27.7151
 10
182.538
 20
27.7385
 10
182.514
 20
27.7427
 10
182.5
 20
27.711
 10
182.5
 20
27.6999
 10
182.5
 20
24.8998
 10
182.5
 20
24.8901
 10
182.514
 20
24.8584
 10
182.538
 20
24.8626
 10
182.542
 20
24.886
 10
182.51
 20
24.8998
 10
182.5
 20
24.8998
  0
LWPOLYLINE
  5
5D
100
AcDbEntity
  8
0
  6
ByLayer
 62
    5
370
   -1
100
AcDbPolyline
 90
   29
 70
    1
 43
0
 10
191.6
 20
24.8998
 10
188.7
 20
24.8998
 10
188.689
 20
24.8998
 10
188.657
 20
24.886
 10
188.662
 20
24.8626
 10
188.685
 20
24.8584
 10
188.7
 20
24.8901
 10
188.7
 20
24.8998
 10
188.7
 20
27.6999
 10
188.7
 20
27.711
 10
188.685
 20
27.7427
 10
188.662
 20
27.7385
 10
188.657
 20
27.7151
 10
188.689
 20
27.6999
 10
188.7
 20
27.6999
 10
194.501
 20
27.6999
 10
194.51
 20
27.6999
 10
194.542
 20
27.7151
 10
194.538
 20
27.7385
 10
194.514
 20
27.7427
 10
194.501
 20
27.711
 10
194.501
 20
27.6999
 10
194.501
 20
24.8998
 10
194.501
 20
24.8901
 10
194.514
 20
24.8584
 10
194.538
 20
24.8626
 10
194.542
 20
24.886
 10
194.51
 20
24.8998
 10
194.501
 20
24.8998
  0
LWPOLYLINE
  5
5E
100
AcDbEntity
  8
0
  6
ByLayer
 62
    5
370
   -1
100
AcDbPolyline
 90
   29
 70
    1
 43
0
 10
203.6
 20
24.8998
 10
200.7
 20
24.8998
 10
200.689
 20
24.8998
 10
200.658
 20
24.886
 10
200.662
 20
24.8626
 10
200.685
 20
24.8584
 10
200.7
 20
24.8901
 10
200.7
 20
24.8998
 10
200.7
 20
27.6999
 10
200.7
 20
27.711
 10
200.685
 20
27.7427
 10
200.662
 20
27.7385
 10
200.658
 20
27.7151
 10
200.689
 20
27.6999
 10
200.7
 20
27.6999
 10
206.5
 20
27.6999
 10
206.51
 20
27.6999
 10
206.542
 20
27.7151
 10
206.538
 20
27.7385
 10
206.514
 20
27.7427
 10
206.5
 20
27.711
 10
206.5
 20
27.6999
 10
206.5
 20
24.8998
 10
206.5
 20
24.8901
 10
206.514
 20
24.8584
 10
206.538
 20
24.8626
 10
206.542
 20
24.886
 10
206.51
 20
24.8998
 10
206.5
 20
24.8998
  0
LWPOLYLINE
  5
5F
100
AcDbEntity
  8
0
  6
ByLayer
 62
    5
370
   -1
100
AcDbPolyline
 90
   29
 70
    1
 43
0
 10
215.599
 20
24.8998
 10
212.7
 20
24.8998
 10
212.689
 20
24.8998
 10
212.658
 20
24.886
 10
212.662
 20
24.8626
 10
212.685
 20
24.8584
 10
212.7
 20
24.8901
 10
212.7
 20
24.8998
 10
212.7
 20
27.6999
 10
212.7
 20
27.711
 10
212.685
 20
27.7427
 10
212.662
 20
27.7385
 10
212.658
 20
27.7151
 10
212.689
 20
27.6999
 10
212.7
 20
27.6999
 10
218.5
 20
27.6999
 10
218.51
 20
27.6999
 10
218.542
 20
27.7151
 10
218.538
 20
27.7385
 10
218.514
 20
27.7427
 10
218.5
 20
27.711
 10
218.5
 20
27.6999
 10
218.5
 20
24.8998
 10
218.5
 20
24.8901
 10
218.514
 20
24.8584
 10
218.538
 20
24.8626
 10
218.542
 20
24.886
 10
218.51
 20
24.8998
 10
218.5
 20
24.8998
  0
LWPOLYLINE
  5
60
100
AcDbEntity
  8
0
  6
ByLayer
 62
    5
370
   -1
100
AcDbPolyline
 90
   29
 70
    1
 43
0
 10
227.6
 20
24.8998
 10
224.7
 20
24.8998
 10
224.689
 20
24.8998
 10
224.657
 20
24.886
 10
224.662
 20
24.8626
 10
224.685
 20
24.8584
 10
224.7
 20
24.8901
 10
224.7
 20
24.8998
 10
224.7
 20
27.6999
 10
224.7
 20
27.711
 10
224.685
 20
27.7427
 10
224.662
 20
27.7385
 10
224.657
 20
27.7151
 10
224.689
 20
27.6999
 10
224.7
 20
27.6999
 10
230.5
 20
27.6999
 10
230.51
 20
27.6999
 10
230.542
 20
27.7151
 10
230.537
 20
27.7385
 10
230.514
 20
27.7427
 10
230.5
 20
27.711
 10
230.5
 20
27.6999
 10
230.5
 20
24.8998
 10
230.5
 20
24.8901
 10
230.514
 20
24.8584
 10
230.537
 20
24.8626
 10
230.542
 20
24.886
 10
230.51
 20
24.8998
 10
230.5
 20
24.8998
  0
LWPOLYLINE
  5
61
100
AcDbEntity
  8
0
  6
ByLayer
 62
    5
370
   -1
100
AcDbPolyline
 90
   29
 70
    1
 43
0
 10
239.6
 20
24.8998
 10
236.7
 20
24.8998
 10
236.689
 20
24.8998
 10
236.657
 20
24.886
 10
236.662
 20
24.8626
 10
236.685
 20
24.8584
 10
236.7
 20
24.8901
 10
236.7
 20
24.8998
 10
236.7
 20
27.6999
 10
236.7
 20
27.711
 10
236.685
 20
27.7427
 10
236.662
 20
27.7385
 10
236.657
 20
27.7151
 10
236.689
 20
27.6999
 10
236.7
 20
27.6999
 10
242.5
 20
27.6999
 10
242.51
 20
27.6999
 10
242.542
 20
27.7151
 10
242.538
 20
27.7385
 10
242.514
 20
27.7427
 10
242.5
 20
27.711
 10
242.5
 20
27.6999
 10
242.5
 20
24.8998
 10
242.5
 20
24.8901
 10
242.514
 20
24.8584
 10
242.538
 20
24.8626
 10
242.542
 20
24.886
 10
242.51
 20
24.8998
 10
242.5
 20
24.8998
  0
LWPOLYLINE
  5
62
100
AcDbEntity
  8
0
  6
ByLayer
 62
    5
370
   -1
100
AcDbPolyline
 90
   29
 70
    1
 43
0
 10
251.599
 20
24.8998
 10
248.7
 20
24.8998
 10
248.689
 20
24.8998
 10
248.657
 20
24.886
 10
248.661
 20
24.8626
 10
248.685
 20
24.8584
 10
248.7
 20
24.8901
 10
248.7
 20
24.8998
 10
248.7
 20
27.6999
 10
248.7
 20
27.711
 10
248.685
 20
27.7427
 10
248.661
 20
27.7385
 10
248.657
 20
27.7151
 10
248.689
 20
27.6999
 10
248.7
 20
27.6999
 10
254.5
 20
27.6999
 10
254.51
 20
27.6999
 10
254.542
 20
27.7151
 10
254.537
 20
27.7385
 10
254.514
 20
27.7427
 10
254.5
 20
27.711
 10
254.5
 20
27.6999
 10
254.5
 20
24.8998
 10
254.5
 20
24.8901
 10
254.514
 20
24.8584
 10
254.537
 20
24.8626
 10
254.542
 20
24.886
 10
254.51
 20
24.8998
 10
254.5
 20
24.8998
  0
LWPOLYLINE
  5
63
100
AcDbEntity
  8
0
  6
ByLayer
 62
    0
370
   -1
100
AcDbPolyline
 90
   72
 70
    1
 43
0
 10
13.0996
 20
21.7
 10
262.1
 20
21.7
 10
265.1
 20
21.7
 10
265.117
 20
21.7
 10
265.17
 20
21.7303
 10
265.199
 20
21.784
 10
265.199
 20
21.8006
 10
265.199
 20
28.7996
 10
265.199
 20
28.8175
 10
265.17
 20
28.8713
 10
265.117
 20
28.9002
 10
265.1
 20
28.9002
 10
262.199
 20
28.9002
 10
262.188
 20
28.9002
 10
262.157
 20
28.8864
 10
262.162
 20
28.863
 10
262.184
 20
28.8589
 10
262.199
 20
28.8906
 10
262.199
 20
28.9002
 10
262.199
 20
34.7004
 10
262.199
 20
34.7114
 10
262.184
 20
34.7431
 10
262.162
 20
34.7376
 10
262.157
 20
34.7156
 10
262.188
 20
34.7004
 10
262.199
 20
34.7004
 10
265.1
 20
34.7004
 10
265.117
 20
34.7004
 10
265.17
 20
34.7293
 10
265.199
 20
34.7831
 10
265.199
 20
34.7996
 10
265.199
 20
41.7999
 10
265.199
 20
41.8179
 10
265.17
 20
41.8715
 10
265.117
 20
41.9005
 10
265.1
 20
41.9005
 10
262.1
 20
41.9005
 10
13.0996
 20
41.9005
 10
10.0996
 20
41.9005
 10
10.0817
 20
41.9005
 10
10.0294
 20
41.8715
 10
10.0004
 20
41.8179
 10
10.0004
 20
41.7999
 10
10.0004
 20
34.7996
 10
10.0004
 20
34.7831
 10
10.0294
 20
34.7293
 10
10.0817
 20
34.7004
 10
10.0996
 20
34.7004
 10
13.0004
 20
34.7004
 10
13.0101
 20
34.7004
 10
13.0418
 20
34.7156
 10
13.0376
 20
34.7376
 10
13.0142
 20
34.7431
 10
13.0004
 20
34.7114
 10
13.0004
 20
34.7004
 10
13.0004
 20
28.9002
 10
13.0004
 20
28.8906
 10
13.0142
 20
28.8589
 10
13.0376
 20
28.863
 10
13.0418
 20
28.8864
 10
13.0101
 20
28.9002
 10
13.0004
 20
28.9002
 10
10.0996
 20
28.9002
 10
10.0817
 20
28.9002
 10
10.0294
 20
28.8713
 10
10.0004
 20
28.8175
 10
10.0004
 20
28.7996
 10
10.0004
 20
21.8006
 10
10.0004
 20
21.784
 10
10.0294
 20
21.7303
 10
10.0817
 20
21.7
 10
10.0996
 20
21.7
  0
LWPOLYLINE
  5
64
100
AcDbEntity
  8
0
  6
ByLayer
 62
    5
370
   -1
100
AcDbPolyline
 90
   29
 70
    1
 43
0
 10
23.6003
 20
46.5998
 10
20.6995
 20
46.5998
 10
20.6885
 20
46.5998
 10
20.6568
 20
46.5861
 10
20.6623
 20
46.5624
 10
20.6843
 20
46.5586
 10
20.6995
 20
46.5899
 10
20.6995
 20
46.5998
 10
20.6995
 20
49.3998
 10
20.6995
 20
49.4111
 10
20.6843
 20
49.4425
 10
20.6623
 20
49.4386
 10
20.6568
 20
49.415
 10
20.6885
 20
49.3998
 10
20.6995
 20
49.3998
 10
26.4997
 20
49.3998
 10
26.5093
 20
49.3998
 10
26.541
 20
49.415
 10
26.5369
 20
49.4386
 10
26.5135
 20
49.4425
 10
26.4997
 20
49.4111
 10
26.4997
 20
49.3998
 10
26.4997
 20
46.5998
 10
26.4997
 20
46.5899
 10
26.5135
 20
46.5586
 10
26.5369
 20
46.5624
 10
26.541
 20
46.5861
 10
26.5093
 20
46.5998
 10
26.4997
 20
46.5998
  0
LWPOLYLINE
  5
65
100
AcDbEntity
  8
0
  6
ByLayer
 62
    5
370
   -1
100
AcDbPolyline
 90
   29
 70
    1
 43
0
 10
35.6002
 20
46.5998
 10
32.6995
 20
46.5998
 10
32.6885
 20
46.5998
 10
32.6567
 20
46.5861
 10
32.6622
 20
46.5624
 10
32.6843
 20
46.5586
 10
32.6995
 20
46.5899
 10
32.6995
 20
46.5998
 10
32.6995
 20
49.3998
 10
32.6995
 20
49.4111
 10
32.6843
 20
49.4425
 10
32.6622
 20
49.4386
 10
32.6567
 20
49.415
 10
32.6885
 20
49.3998
 10
32.6995
 20
49.3998
 10
38.4997
 20
49.3998
 10
38.5092
 20
49.3998
 10
38.541
 20
49.415
 10
38.5367
 20
49.4386
 10
38.5135
 20
49.4425
 10
38.4997
 20
49.4111
 10
38.4997
 20
49.3998
 10
38.4997
 20
46.5998
 10
38.4997
 20
46.5899
 10
38.5135
 20
46.5586
 10
38.5367
 20
46.5624
 10
38.541
 20
46.5861
 10
38.5092
 20
46.5998
 10
38.4997
 20
46.5998
  0
LWPOLYLINE
  5
66
100
AcDbEntity
  8
0
  6
ByLayer
 62
    5
370
   -1
100
AcDbPolyline
 90
   29
 70
    1
 43
0
 10
47.6003
 20
46.5998
 10
44.7008
 20
46.5998
 10
44.6899
 20
46.5998
 10
44.6581
 20
46.5861
 10
44.6624
 20
46.5624
 10
44.6857
 20
46.5586
 10
44.7008
 20
46.5899
 10
44.7008
 20
46.5998
 10
44.7008
 20
49.3998
 10
44.7008
 20
49.4111
 10
44.6857
 20
49.4425
 10
44.6624
 20
49.4386
 10
44.6581
 20
49.415
 10
44.6899
 20
49.3998
 10
44.7008
 20
49.3998
 10
50.4994
 20
49.3998
 10
50.5093
 20
49.3998
 10
50.5411
 20
49.415
 10
50.5368
 20
49.4386
 10
50.5135
 20
49.4425
 10
50.4994
 20
49.4111
 10
50.4994
 20
49.3998
 10
50.4994
 20
46.5998
 10
50.4994
 20
46.5899
 10
50.5135
 20
46.5586
 10
50.5368
 20
46.5624
 10
50.5411
 20
46.5861
 10
50.5093
 20
46.5998
 10
50.4994
 20
46.5998
  0
LWPOLYLINE
  5
67
100
AcDbEntity
  8
0
  6
ByLayer
 62
    5
370
   -1
100
AcDbPolyline
 90
   29
 70
    1
 43
0
 10
59.6
 20
46.5998
 10
56.6995
 20
46.5998
 10
56.6882
 20
46.5998
 10
56.6568
 20
46.5861
 10
56.6621
 20
46.5624
 10
56.6843
 20
46.5586
 10
56.6995
 20
46.5899
 10
56.6995
 20
46.5998
 10
56.6995
 20
49.3998
 10
56.6995
 20
49.4111
 10
56.6843
 20
49.4425
 10
56.6621
 20
49.4386
 10
56.6568
 20
49.415
 10
56.6882
 20
49.3998
 10
56.6995
 20
49.3998
 10
62.4995
 20
49.3998
 10
62.509
 20
49.3998
 10
62.5408
 20
49.415
 10
62.5369
 20
49.4386
 10
62.5133
 20
49.4425
 10
62.4995
 20
49.4111
 10
62.4995
 20
49.3998
 10
62.4995
 20
46.5998
 10
62.4995
 20
46.5899
 10
62.5133
 20
46.5586
 10
62.5369
 20
46.5624
 10
62.5408
 20
46.5861
 10
62.509
 20
46.5998
 10
62.4995
 20
46.5998
  0
LWPOLYLINE
  5
68
100
AcDbEntity
  8
0
  6
ByLayer
 62
    5
370
   -1
100
AcDbPolyline
 90
   29
 70
    1
 43
0
 10
71.6001
 20
46.5998
 10
68.6992
 20
46.5998
 10
68.6883
 20
46.5998
 10
68.6566
 20
46.5861
 10
68.6622
 20
46.5624
 10
68.6841
 20
46.5586
 10
68.6992
 20
46.5899
 10
68.6992
 20
46.5998
 10
68.6992
 20
49.3998
 10
68.6992
 20
49.4111
 10
68.6841
 20
49.4425
 10
68.6622
 20
49.4386
 10
68.6566
 20
49.415
 10
68.6883
 20
49.3998
 10
68.6992
 20
49.3998
 10
74.4996
 20
49.3998
 10
74.5091
 20
49.3998
 10
74.54089999999999
 20
49.415
 10
74.5367
 20
49.4386
 10
74.5134
 20
49.4425
 10
74.4996
 20
49.4111
 10
74.4996
 20
49.3998
 10
74.4996
 20
46.5998
 10
74.4996
 20
46.5899
 10
74.5134
 20
46.5586
 10
74.5367
 20
46.5624
 10
74.54089999999999
 20
46.5861
 10
74.5091
 20
46.5998
 10
74.4996
 20
46.5998
  0
LWPOLYLINE
  5
69
100
AcDbEntity
  8
0
  6
ByLayer
 62
    5
370
   -1
100
AcDbPolyline
 90
   29
 70
    1
 43
0
 10
83.6002
 20
46.5998
 10
80.7007
 20
46.5998
 10
80.68980000000001
 20
46.5998
 10
80.6581
 20
46.5861
 10
80.6619
 20
46.5624
 10
80.68559999999999
 20
46.5586
 10
80.7007
 20
46.5899
 10
80.7007
 20
46.5998
 10
80.7007
 20
49.3998
 10
80.7007
 20
49.4111
 10
80.68559999999999
 20
49.4425
 10
80.6619
 20
49.4386
 10
80.6581
 20
49.415
 10
80.68980000000001
 20
49.3998
 10
80.7007
 20
49.3998
 10
86.49939999999999
 20
49.3998
 10
86.50920000000001
 20
49.3998
 10
86.541
 20
49.415
 10
86.5367
 20
49.4386
 10
86.51309999999999
 20
49.4425
 10
86.49939999999999
 20
49.4111
 10
86.49939999999999
 20
49.3998
 10
86.49939999999999
 20
46.5998
 10
86.49939999999999
 20
46.5899
 10
86.51309999999999
 20
46.5586
 10
86.5367
 20
46.5624
 10
86.541
 20
46.5861
 10
86.50920000000001
 20
46.5998
 10
86.49939999999999
 20
46.5998
  0
LWPOLYLINE
  5
6A
100
AcDbEntity
  8
0
  6
ByLayer
 62
    5
370
   -1
100
AcDbPolyline
 90
   29
 70
    1
 43
0
 10
95.59999999999999
 20
46.5998
 10
92.70050000000001
 20
46.5998
 10
92.6895
 20
46.5998
 10
92.65779999999999
 20
46.5861
 10
92.66200000000001
 20
46.5624
 10
92.6853
 20
46.5586
 10
92.70050000000001
 20
46.5899
 10
92.70050000000001
 20
46.5998
 10
92.70050000000001
 20
49.3998
 10
92.70050000000001
 20
49.4111
 10
92.6853
 20
49.4425
 10
92.66200000000001
 20
49.4386
 10
92.65779999999999
 20
49.415
 10
92.6895
 20
49.3998
 10
92.70050000000001
 20
49.3998
 10
98.5008
 20
49.3998
 10
98.5104
 20
49.3998
 10
98.5421
 20
49.415
 10
98.53789999999999
 20
49.4386
 10
98.5146
 20
49.4425
 10
98.5008
 20
49.4111
 10
98.5008
 20
49.3998
 10
98.5008
 20
46.5998
 10
98.5008
 20
46.5899
 10
98.5146
 20
46.5586
 10
98.53789999999999
 20
46.5624
 10
98.5421
 20
46.5861
 10
98.5104
 20
46.5998
 10
98.5008
 20
46.5998
  0
LWPOLYLINE
  5
6B
100
AcDbEntity
  8
0
  6
ByLayer
 62
    5
370
   -1
100
AcDbPolyline
 90
   29
 70
    1
 43
0
 10
107.6
 20
46.5998
 10
104.699
 20
46.5998
 10
104.688
 20
46.5998
 10
104.656
 20
46.5861
 10
104.662
 20
46.5624
 10
104.684
 20
46.5586
 10
104.699
 20
46.5899
 10
104.699
 20
46.5998
 10
104.699
 20
49.3998
 10
104.699
 20
49.4111
 10
104.684
 20
49.4425
 10
104.662
 20
49.4386
 10
104.656
 20
49.415
 10
104.688
 20
49.3998
 10
104.699
 20
49.3998
 10
110.5
 20
49.3998
 10
110.509
 20
49.3998
 10
110.541
 20
49.415
 10
110.537
 20
49.4386
 10
110.513
 20
49.4425
 10
110.5
 20
49.4111
 10
110.5
 20
49.3998
 10
110.5
 20
46.5998
 10
110.5
 20
46.5899
 10
110.513
 20
46.5586
 10
110.537
 20
46.5624
 10
110.541
 20
46.5861
 10
110.509
 20
46.5998
 10
110.5
 20
46.5998
  0
LWPOLYLINE
  5
6C
100
AcDbEntity
  8
0
  6
ByLayer
 62
    5
370
   -1
100
AcDbPolyline
 90
   29
 70
    1
 43
0
 10
119.6
 20
46.5998
 10
116.701
 20
46.5998
 10
116.689
 20
46.5998
 10
116.658
 20
46.5861
 10
116.662
 20
46.5624
 10
116.685
 20
46.5586
 10
116.701
 20
46.5899
 10
116.701
 20
46.5998
 10
116.701
 20
49.3998
 10
116.701
 20
49.4111
 10
116.685
 20
49.4425
 10
116.662
 20
49.4386
 10
116.658
 20
49.415
 10
116.689
 20
49.3998
 10
116.701
 20
49.3998
 10
122.499
 20
49.3998
 10
122.509
 20
49.3998
 10
122.541
 20
49.415
 10
122.537
 20
49.4386
 10
122.513
 20
49.4425
 10
122.499
 20
49.4111
 10
122.499
 20
49.3998
 10
122.499
 20
46.5998
 10
122.499
 20
46.5899
 10
122.513
 20
46.5586
 10
122.537
 20
46.5624
 10
122.541
 20
46.5861
 10
122.509
 20
46.5998
 10
122.499
 20
46.5998
  0
LWPOLYLINE
  5
6D
100
AcDbEntity
  8
0
  6
ByLayer
 62
    5
370
   -1
100
AcDbPolyline
 90
   29
 70
    1
 43
0
 10
131.6
 20
46.5998
 10
128.7
 20
46.5998
 10
128.689
 20
46.5998
 10
128.658
 20
46.5861
 10
128.662
 20
46.5624
 10
128.685
 20
46.5586
 10
128.7
 20
46.5899
 10
128.7
 20
46.5998
 10
128.7
 20
49.3998
 10
128.7
 20
49.4111
 10
128.685
 20
49.4425
 10
128.662
 20
49.4386
 10
128.658
 20
49.415
 10
128.689
 20
49.3998
 10
128.7
 20
49.3998
 10
134.501
 20
49.3998
 10
134.51
 20
49.3998
 10
134.542
 20
49.415
 10
134.538
 20
49.4386
 10
134.515
 20
49.4425
 10
134.501
 20
49.4111
 10
134.501
 20
49.3998
 10
134.501
 20
46.5998
 10
134.501
 20
46.5899
 10
134.515
 20
46.5586
 10
134.538
 20
46.5624
 10
134.542
 20
46.5861
 10
134.51
 20
46.5998
 10
134.501
 20
46.5998
  0
LWPOLYLINE
  5
6E
100
AcDbEntity
  8
0
  6
ByLayer
 62
    5
370
   -1
100
AcDbPolyline
 90
   29
 70
    1
 43
0
 10
143.6
 20
46.5998
 10
140.7
 20
46.5998
 10
140.69
 20
46.5998
 10
140.658
 20
46.5861
 10
140.662
 20
46.5624
 10
140.685
 20
46.5586
 10
140.7
 20
46.5899
 10
140.7
 20
46.5998
 10
140.7
 20
49.3998
 10
140.7
 20
49.4111
 10
140.685
 20
49.4425
 10
140.662
 20
49.4386
 10
140.658
 20
49.415
 10
140.69
 20
49.3998
 10
140.7
 20
49.3998
 10
146.501
 20
49.3998
 10
146.51
 20
49.3998
 10
146.542
 20
49.415
 10
146.538
 20
49.4386
 10
146.514
 20
49.4425
 10
146.501
 20
49.4111
 10
146.501
 20
49.3998
 10
146.501
 20
46.5998
 10
146.501
 20
46.5899
 10
146.514
 20
46.5586
 10
146.538
 20
46.5624
 10
146.542
 20
46.5861
 10
146.51
 20
46.5998
 10
146.501
 20
46.5998
  0
LWPOLYLINE
  5
6F
100
AcDbEntity
  8
0
  6
ByLayer
 62
    5
370
   -1
100
AcDbPolyline
 90
   29
 70
    1
 43
0
 10
155.6
 20
46.5998
 10
152.701
 20
46.5998
 10
152.689
 20
46.5998
 10
152.658
 20
46.5861
 10
152.662
 20
46.5624
 10
152.685
 20
46.5586
 10
152.701
 20
46.5899
 10
152.701
 20
46.5998
 10
152.701
 20
49.3998
 10
152.701
 20
49.4111
 10
152.685
 20
49.4425
 10
152.662
 20
49.4386
 10
152.658
 20
49.415
 10
152.689
 20
49.3998
 10
152.701
 20
49.3998
 10
158.499
 20
49.3998
 10
158.509
 20
49.3998
 10
158.54
 20
49.415
 10
158.537
 20
49.4386
 10
158.513
 20
49.4425
 10
158.499
 20
49.4111
 10
158.499
 20
49.3998
 10
158.499
 20
46.5998
 10
158.499
 20
46.5899
 10
158.513
 20
46.5586
 10
158.537
 20
46.5624
 10
158.54
 20
46.5861
 10
158.509
 20
46.5998
 10
158.499
 20
46.5998
  0
LWPOLYLINE
  5
70
100
AcDbEntity
  8
0
  6
ByLayer
 62
    5
370
   -1
100
AcDbPolyline
 90
   29
 70
    1
 43
0
 10
167.6
 20
46.5998
 10
164.7
 20
46.5998
 10
164.689
 20
46.5998
 10
164.658
 20
46.5861
 10
164.662
 20
46.5624
 10
164.685
 20
46.5586
 10
164.7
 20
46.5899
 10
164.7
 20
46.5998
 10
164.7
 20
49.3998
 10
164.7
 20
49.4111
 10
164.685
 20
49.4425
 10
164.662
 20
49.4386
 10
164.658
 20
49.415
 10
164.689
 20
49.3998
 10
164.7
 20
49.3998
 10
170.501
 20
49.3998
 10
170.51
 20
49.3998
 10
170.542
 20
49.415
 10
170.538
 20
49.4386
 10
170.514
 20
49.4425
 10
170.501
 20
49.4111
 10
170.501
 20
49.3998
 10
170.501
 20
46.5998
 10
170.501
 20
46.5899
 10
170.514
 20
46.5586
 10
170.538
 20
46.5624
 10
170.542
 20
46.5861
 10
170.51
 20
46.5998
 10
170.501
 20
46.5998
  0
LWPOLYLINE
  5
71
100
AcDbEntity
  8
0
  6
ByLayer
 62
    5
370
   -1
100
AcDbPolyline
 90
   29
 70
    1
 43
0
 10
179.6
 20
46.5998
 10
176.7
 20
46.5998
 10
176.689
 20
46.5998
 10
176.658
 20
46.5861
 10
176.662
 20
46.5624
 10
176.685
 20
46.5586
 10
176.7
 20
46.5899
 10
176.7
 20
46.5998
 10
176.7
 20
49.3998
 10
176.7
 20
49.4111
 10
176.685
 20
49.4425
 10
176.662
 20
49.4386
 10
176.658
 20
49.415
 10
176.689
 20
49.3998
 10
176.7
 20
49.3998
 10
182.5
 20
49.3998
 10
182.51
 20
49.3998
 10
182.542
 20
49.415
 10
182.538
 20
49.4386
 10
182.514
 20
49.4425
 10
182.5
 20
49.4111
 10
182.5
 20
49.3998
 10
182.5
 20
46.5998
 10
182.5
 20
46.5899
 10
182.514
 20
46.5586
 10
182.538
 20
46.5624
 10
182.542
 20
46.5861
 10
182.51
 20
46.5998
 10
182.5
 20
46.5998
  0
LWPOLYLINE
  5
72
100
AcDbEntity
  8
0
  6
ByLayer
 62
    5
370
   -1
100
AcDbPolyline
 90
   29
 70
    1
 43
0
 10
191.6
 20
46.5998
 10
188.7
 20
46.5998
 10
188.689
 20
46.5998
 10
188.657
 20
46.5861
 10
188.662
 20
46.5624
 10
188.685
 20
46.5586
 10
188.7
 20
46.5899
 10
188.7
 20
46.5998
 10
188.7
 20
49.3998
 10
188.7
 20
49.4111
 10
188.685
 20
49.4425
 10
188.662
 20
49.4386
 10
188.657
 20
49.415
 10
188.689
 20
49.3998
 10
188.7
 20
49.3998
 10
194.501
 20
49.3998
 10
194.51
 20
49.3998
 10
194.542
 20
49.415
 10
194.538
 20
49.4386
 10
194.514
 20
49.4425
 10
194.501
 20
49.4111
 10
194.501
 20
49.3998
 10
194.501
 20
46.5998
 10
194.501
 20
46.5899
 10
194.514
 20
46.5586
 10
194.538
 20
46.5624
 10
194.542
 20
46.5861
 10
194.51
 20
46.5998
 10
194.501
 20
46.5998
  0
LWPOLYLINE
  5
73
100
AcDbEntity
  8
0
  6
ByLayer
 62
    5
370
   -1
100
AcDbPolyline
 90
   29
 70
    1
 43
0
 10
203.6
 20
46.5998
 10
200.7
 20
46.5998
 10
200.689
 20
46.5998
 10
200.658
 20
46.5861
 10
200.662
 20
46.5624
 10
200.685
 20
46.5586
 10
200.7
 20
46.5899
 10
200.7
 20
46.5998
 10
200.7
 20
49.3998
 10
200.7
 20
49.4111
 10
200.685
 20
49.4425
 10
200.662
 20
49.4386
 10
200.658
 20
49.415
 10
200.689
 20
49.3998
 10
200.7
 20
49.3998
 10
206.5
 20
49.3998
 10
206.51
 20
49.3998
 10
206.542
 20
49.415
 10
206.538
 20
49.4386
 10
206.514
 20
49.4425
 10
206.5
 20
49.4111
 10
206.5
 20
49.3998
 10
206.5
 20
46.5998
 10
206.5
 20
46.5899
 10
206.514
 20
46.5586
 10
206.538
 20
46.5624
 10
206.542
 20
46.5861
 10
206.51
 20
46.5998
 10
206.5
 20
46.5998
  0
LWPOLYLINE
  5
74
100
AcDbEntity
  8
0
  6
ByLayer
 62
    5
370
   -1
100
AcDbPolyline
 90
   29
 70
    1
 43
0
 10
215.599
 20
46.5998
 10
212.7
 20
46.5998
 10
212.689
 20
46.5998
 10
212.658
 20
46.5861
 10
212.662
 20
46.5624
 10
212.685
 20
46.5586
 10
212.7
 20
46.5899
 10
212.7
 20
46.5998
 10
212.7
 20
49.3998
 10
212.7
 20
49.4111
 10
212.685
 20
49.4425
 10
212.662
 20
49.4386
 10
212.658
 20
49.415
 10
212.689
 20
49.3998
 10
212.7
 20
49.3998
 10
218.5
 20
49.3998
 10
218.51
 20
49.3998
 10
218.542
 20
49.415
 10
218.538
 20
49.4386
 10
218.514
 20
49.4425
 10
218.5
 20
49.4111
 10
218.5
 20
49.3998
 10
218.5
 20
46.5998
 10
218.5
 20
46.5899
 10
218.514
 20
46.5586
 10
218.538
 20
46.5624
 10
218.542
 20
46.5861
 10
218.51
 20
46.5998
 10
218.5
 20
46.5998
  0
LWPOLYLINE
  5
75
100
AcDbEntity
  8
0
  6
ByLayer
 62
    5
370
   -1
100
AcDbPolyline
 90
   29
 70
    1
 43
0
 10
227.6
 20
46.5998
 10
224.7
 20
46.5998
 10
224.689
 20
46.5998
 10
224.657
 20
46.5861
 10
224.662
 20
46.5624
 10
224.685
 20
46.5586
 10
224.7
 20
46.5899
 10
224.7
 20
46.5998
 10
224.7
 20
49.3998
 10
224.7
 20
49.4111
 10
224.685
 20
49.4425
 10
224.662
 20
49.4386
 10
224.657
 20
49.415
 10
224.689
 20
49.3998
 10
224.7
 20
49.3998
 10
230.5
 20
49.3998
 10
230.51
 20
49.3998
 10
230.542
 20
49.415
 10
230.537
 20
49.4386
 10
230.514
 20
49.4425
 10
230.5
 20
49.4111
 10
230.5
 20
49.3998
 10
230.5
 20
46.5998
 10
230.5
 20
46.5899
 10
230.514
 20
46.5586
 10
230.537
 20
46.5624
 10
230.542
 20
46.5861
 10
230.51
 20
46.5998
 10
230.5
 20
46.5998
  0
LWPOLYLINE
  5
76
100
AcDbEntity
  8
0
  6
ByLayer
 62
    5
370
   -1
100
AcDbPolyline
 90
   29
 70
    1
 43
0
 10
239.6
 20
46.5998
 10
236.7
 20
46.5998
 10
236.689
 20
46.5998
 10
236.657
 20
46.5861
 10
236.662
 20
46.5624
 10
236.685
 20
46.5586
 10
236.7
 20
46.5899
 10
236.7
 20
46.5998
 10
236.7
 20
49.3998
 10
236.7
 20
49.4111
 10
236.685
 20
49.4425
 10
236.662
 20
49.4386
 10
236.657
 20
49.415
 10
236.689
 20
49.3998
 10
236.7
 20
49.3998
 10
242.5
 20
49.3998
 10
242.51
 20
49.3998
 10
242.542
 20
49.415
 10
242.538
 20
49.4386
 10
242.514
 20
49.4425
 10
242.5
 20
49.4111
 10
242.5
 20
49.3998
 10
242.5
 20
46.5998
 10
242.5
 20
46.5899
 10
242.514
 20
46.5586
 10
242.538
 20
46.5624
 10
242.542
 20
46.5861
 10
242.51
 20
46.5998
 10
242.5
 20
46.5998
  0
LWPOLYLINE
  5
77
100
AcDbEntity
  8
0
  6
ByLayer
 62
    5
370
   -1
100
AcDbPolyline
 90
   29
 70
    1
 43
0
 10
251.599
 20
46.5998
 10
248.7
 20
46.5998
 10
248.689
 20
46.5998
 10
248.657
 20
46.5861
 10
248.661
 20
46.5624
 10
248.685
 20
46.5586
 10
248.7
 20
46.5899
 10
248.7
 20
46.5998
 10
248.7
 20
49.3998
 10
248.7
 20
49.4111
 10
248.685
 20
49.4425
 10
248.661
 20
49.4386
 10
248.657
 20
49.415
 10
248.689
 20
49.3998
 10
248.7
 20
49.3998
 10
254.5
 20
49.3998
 10
254.51
 20
49.3998
 10
254.542
 20
49.415
 10
254.537
 20
49.4386
 10
254.514
 20
49.4425
 10
254.5
 20
49.4111
 10
254.5
 20
49.3998
 10
254.5
 20
46.5998
 10
254.5
 20
46.5899
 10
254.514
 20
46.5586
 10
254.537
 20
46.5624
 10
254.542
 20
46.5861
 10
254.51
 20
46.5998
 10
254.5
 20
46.5998
  0
LWPOLYLINE
  5
78
100
AcDbEntity
  8
0
  6
ByLayer
 62
    0
370
   -1
100
AcDbPolyline
 90
   72
 70
    1
 43
0
 10
13.0996
 20
43.3998
 10
262.1
 20
43.3998
 10
265.1
 20
43.3998
 10
265.117
 20
43.3998
 10
265.17
 20
43.4301
 10
265.199
 20
43.4841
 10
265.199
 20
43.5007
 10
265.199
 20
50.4994
 10
265.199
 20
50.5174
 10
265.17
 20
50.5714
 10
265.117
 20
50.6003
 10
265.1
 20
50.6003
 10
262.199
 20
50.6003
 10
262.188
 20
50.6003
 10
262.157
 20
50.5866
 10
262.162
 20
50.5629
 10
262.184
 20
50.5587
 10
262.199
 20
50.5905
 10
262.199
 20
50.6003
 10
262.199
 20
56.4003
 10
262.199
 20
56.4113
 10
262.184
 20
56.443
 10
262.162
 20
56.4374
 10
262.157
 20
56.4155
 10
262.188
 20
56.4003
 10
262.199
 20
56.4003
 10
265.1
 20
56.4003
 10
265.117
 20
56.4003
 10
265.17
 20
56.4293
 10
265.199
 20
56.4829
 10
265.199
 20
56.4995
 10
265.199
 20
63.5
 10
265.199
 20
63.518
 10
265.17
 20
63.5702
 10
265.117
 20
63.5991
 10
265.1
 20
63.5991
 10
262.1
 20
63.5991
 10
13.0996
 20
63.5991
 10
10.0996
 20
63.5991
 10
10.0817
 20
63.5991
 10
10.0294
 20
63.5702
 10
10.0004
 20
63.518
 10
10.0004
 20
63.5
 10
10.0004
 20
56.4995
 10
10.0004
 20
56.4829
 10
10.0294
 20
56.4293
 10
10.0817
 20
56.4003
 10
10.0996
 20
56.4003
 10
13.0004
 20
56.4003
 10
13.0101
 20
56.4003
 10
13.0418
 20
56.4155
 10
13.0376
 20
56.4374
 10
13.0142
 20
56.443
 10
13.0004
 20
56.4113
 10
13.0004
 20
56.4003
 10
13.0004
 20
50.6003
 10
13.0004
 20
50.5905
 10
13.0142
 20
50.5587
 10
13.0376
 20
50.5629
 10
13.0418
 20
50.5866
 10
13.0101
 20
50.6003
 10
13.0004
 20
50.6003
 10
10.0996
 20
50.6003
 10
10.0817
 20
50.6003
 10
10.0294
 20
50.5714
 10
10.0004
 20
50.5174
 10
10.0004
 20
50.4994
 10
10.0004
 20
43.5007
 10
10.0004
 20
43.4841
 10
10.0294
 20
43.4301
 10
10.0817
 20
43.3998
 10
10.0996
 20
43.3998
  0
LWPOLYLINE
  5
79
100
AcDbEntity
  8
0
  6
ByLayer
 62
    0
370
   -1
100
AcDbPolyline
 90
 1604
 70
    1
 43
0
 10
13.0996
 20
68.09990000000001
 10
20.4997
 20
68.09990000000001
 10
20.5093
 20
68.09990000000001
 10
20.5411
 20
68.11499999999999
 10
20.5369
 20
68.1383
 10
20.5135
 20
68.1426
 10
20.4997
 20
68.1108
 10
20.4997
 20
68.09990000000001
 10
20.4997
 20
65.2004
 10
20.4997
 20
65.18380000000001
 10
20.5286
 20
65.1302
 10
20.5824
 20
65.0998
 10
20.6003
 20
65.0998
 10
26.6003
 20
65.0998
 10
26.6168
 20
65.0998
 10
26.6706
 20
65.1302
 10
26.6995
 20
65.18380000000001
 10
26.6995
 20
65.2004
 10
26.6995
 20
68.09990000000001
 10
26.6995
 20
68.1108
 10
26.6843
 20
68.1426
 10
26.6623
 20
68.1383
 10
26.6568
 20
68.11499999999999
 10
26.6884
 20
68.09990000000001
 10
26.6995
 20
68.09990000000001
 10
32.4997
 20
68.09990000000001
 10
32.5093
 20
68.09990000000001
 10
32.541
 20
68.11499999999999
 10
32.5369
 20
68.1383
 10
32.5134
 20
68.1426
 10
32.4997
 20
68.1108
 10
32.4997
 20
68.09990000000001
 10
32.4997
 20
65.2004
 10
32.4997
 20
65.18380000000001
 10
32.5286
 20
65.1302
 10
32.5823
 20
65.0998
 10
32.6003
 20
65.0998
 10
38.6002
 20
65.0998
 10
38.6168
 20
65.0998
 10
38.6704
 20
65.1302
 10
38.6994
 20
65.18380000000001
 10
38.6994
 20
65.2004
 10
38.6994
 20
68.09990000000001
 10
38.6994
 20
68.1108
 10
38.6842
 20
68.1426
 10
38.6623
 20
68.1383
 10
38.6567
 20
68.11499999999999
 10
38.6884
 20
68.09990000000001
 10
38.6994
 20
68.09990000000001
 10
44.4997
 20
68.09990000000001
 10
44.5093
 20
68.09990000000001
 10
44.541
 20
68.11499999999999
 10
44.5368
 20
68.1383
 10
44.5135
 20
68.1426
 10
44.4997
 20
68.1108
 10
44.4997
 20
68.09990000000001
 10
44.4997
 20
65.2004
 10
44.4997
 20
65.18380000000001
 10
44.5287
 20
65.1302
 10
44.5823
 20
65.0998
 10
44.6003
 20
65.0998
 10
50.6003
 20
65.0998
 10
50.6166
 20
65.0998
 10
50.6705
 20
65.1302
 10
50.7009
 20
65.18380000000001
 10
50.7009
 20
65.2004
 10
50.7009
 20
68.09990000000001
 10
50.7009
 20
68.1108
 10
50.6857
 20
68.1426
 10
50.6621
 20
68.1383
 10
50.6582
 20
68.11499999999999
 10
50.6899
 20
68.09990000000001
 10
50.7009
 20
68.09990000000001
 10
56.4995
 20
68.09990000000001
 10
56.5094
 20
68.09990000000001
 10
56.5408
 20
68.11499999999999
 10
56.5369
 20
68.1383
 10
56.5132
 20
68.1426
 10
56.4995
 20
68.1108
 10
56.4995
 20
68.09990000000001
 10
56.4995
 20
65.2004
 10
56.4995
 20
65.18380000000001
 10
56.5284
 20
65.1302
 10
56.5824
 20
65.0998
 10
56.6
 20
65.0998
 10
62.6001
 20
65.0998
 10
62.6166
 20
65.0998
 10
62.6703
 20
65.1302
 10
62.6992
 20
65.18380000000001
 10
62.6992
 20
65.2004
 10
62.6992
 20
68.09990000000001
 10
62.6992
 20
68.1108
 10
62.6844
 20
68.1426
 10
62.6622
 20
68.1383
 10
62.6565
 20
68.11499999999999
 10
62.6883
 20
68.09990000000001
 10
62.6992
 20
68.09990000000001
 10
68.4996
 20
68.09990000000001
 10
68.5091
 20
68.09990000000001
 10
68.5408
 20
68.11499999999999
 10
68.53660000000001
 20
68.1383
 10
68.5133
 20
68.1426
 10
68.4996
 20
68.1108
 10
68.4996
 20
68.09990000000001
 10
68.4996
 20
65.2004
 10
68.4996
 20
65.18380000000001
 10
68.52849999999999
 20
65.1302
 10
68.5821
 20
65.0998
 10
68.6001
 20
65.0998
 10
74.6002
 20
65.0998
 10
74.61669999999999
 20
65.0998
 10
74.6704
 20
65.1302
 10
74.69929999999999
 20
65.18380000000001
 10
74.69929999999999
 20
65.2004
 10
74.69929999999999
 20
68.09990000000001
 10
74.69929999999999
 20
68.1108
 10
74.6841
 20
68.1426
 10
74.6622
 20
68.1383
 10
74.6566
 20
68.11499999999999
 10
74.6883
 20
68.09990000000001
 10
74.69929999999999
 20
68.09990000000001
 10
80.4997
 20
68.09990000000001
 10
80.50920000000001
 20
68.09990000000001
 10
80.54089999999999
 20
68.11499999999999
 10
80.5367
 20
68.1383
 10
80.5134
 20
68.1426
 10
80.4997
 20
68.1108
 10
80.4997
 20
68.09990000000001
 10
80.4997
 20
65.2004
 10
80.4997
 20
65.18380000000001
 10
80.5286
 20
65.1302
 10
80.5822
 20
65.0998
 10
80.6002
 20
65.0998
 10
86.59990000000001
 20
65.0998
 10
86.6165
 20
65.0998
 10
86.6704
 20
65.1302
 10
86.7008
 20
65.18380000000001
 10
86.7008
 20
65.2004
 10
86.7008
 20
68.09990000000001
 10
86.7008
 20
68.1108
 10
86.68559999999999
 20
68.1426
 10
86.66200000000001
 20
68.1383
 10
86.6581
 20
68.11499999999999
 10
86.6895
 20
68.09990000000001
 10
86.7008
 20
68.09990000000001
 10
92.49939999999999
 20
68.09990000000001
 10
92.5089
 20
68.09990000000001
 10
92.5407
 20
68.11499999999999
 10
92.5368
 20
68.1383
 10
92.5132
 20
68.1426
 10
92.49939999999999
 20
68.1108
 10
92.49939999999999
 20
68.09990000000001
 10
92.49939999999999
 20
65.2004
 10
92.49939999999999
 20
65.18380000000001
 10
92.5283
 20
65.1302
 10
92.5823
 20
65.0998
 10
92.59990000000001
 20
65.0998
 10
98.59999999999999
 20
65.0998
 10
98.61660000000001
 20
65.0998
 10
98.67019999999999
 20
65.1302
 10
98.70050000000001
 20
65.18380000000001
 10
98.70050000000001
 20
65.2004
 10
98.70050000000001
 20
68.09990000000001
 10
98.70050000000001
 20
68.1108
 10
98.6854
 20
68.1426
 10
98.6621
 20
68.1383
 10
98.65779999999999
 20
68.11499999999999
 10
98.6896
 20
68.09990000000001
 10
98.70050000000001
 20
68.09990000000001
 10
104.499
 20
68.09990000000001
 10
104.509
 20
68.09990000000001
 10
104.541
 20
68.11499999999999
 10
104.537
 20
68.1383
 10
104.513
 20
68.1426
 10
104.499
 20
68.1108
 10
104.499
 20
68.09990000000001
 10
104.499
 20
65.2004
 10
104.499
 20
65.18380000000001
 10
104.528
 20
65.1302
 10
104.582
 20
65.0998
 10
104.6
 20
65.0998
 10
110.6
 20
65.0998
 10
110.617
 20
65.0998
 10
110.67
 20
65.1302
 10
110.701
 20
65.18380000000001
 10
110.701
 20
65.2004
 10
110.701
 20
68.09990000000001
 10
110.701
 20
68.1108
 10
110.685
 20
68.1426
 10
110.662
 20
68.1383
 10
110.658
 20
68.11499999999999
 10
110.69
 20
68.09990000000001
 10
110.701
 20
68.09990000000001
 10
116.499
 20
68.09990000000001
 10
116.509
 20
68.09990000000001
 10
116.541
 20
68.11499999999999
 10
116.537
 20
68.1383
 10
116.513
 20
68.1426
 10
116.499
 20
68.1108
 10
116.499
 20
68.09990000000001
 10
116.499
 20
65.2004
 10
116.499
 20
65.18380000000001
 10
116.528
 20
65.1302
 10
116.582
 20
65.0998
 10
116.6
 20
65.0998
 10
122.6
 20
65.0998
 10
122.616
 20
65.0998
 10
122.67
 20
65.1302
 10
122.701
 20
65.18380000000001
 10
122.701
 20
65.2004
 10
122.701
 20
68.09990000000001
 10
122.701
 20
68.1108
 10
122.686
 20
68.1426
 10
122.662
 20
68.1383
 10
122.658
 20
68.11499999999999
 10
122.689
 20
68.09990000000001
 10
122.701
 20
68.09990000000001
 10
128.501
 20
68.09990000000001
 10
128.51
 20
68.09990000000001
 10
128.542
 20
68.11499999999999
 10
128.538
 20
68.1383
 10
128.514
 20
68.1426
 10
128.501
 20
68.1108
 10
128.501
 20
68.09990000000001
 10
128.501
 20
65.2004
 10
128.501
 20
65.18380000000001
 10
128.53
 20
65.1302
 10
128.582
 20
65.0998
 10
128.6
 20
65.0998
 10
134.6
 20
65.0998
 10
134.616
 20
65.0998
 10
134.67
 20
65.1302
 10
134.7
 20
65.18380000000001
 10
134.7
 20
65.2004
 10
134.7
 20
68.09990000000001
 10
134.7
 20
68.1108
 10
134.685
 20
68.1426
 10
134.662
 20
68.1383
 10
134.658
 20
68.11499999999999
 10
134.689
 20
68.09990000000001
 10
134.7
 20
68.09990000000001
 10
140.501
 20
68.09990000000001
 10
140.51
 20
68.09990000000001
 10
140.542
 20
68.11499999999999
 10
140.538
 20
68.1383
 10
140.515
 20
68.1426
 10
140.501
 20
68.1108
 10
140.501
 20
68.09990000000001
 10
140.501
 20
65.2004
 10
140.501
 20
65.18380000000001
 10
140.53
 20
65.1302
 10
140.582
 20
65.0998
 10
140.6
 20
65.0998
 10
146.6
 20
65.0998
 10
146.616
 20
65.0998
 10
146.67
 20
65.1302
 10
146.701
 20
65.18380000000001
 10
146.701
 20
65.2004
 10
146.701
 20
68.09990000000001
 10
146.701
 20
68.1108
 10
146.685
 20
68.1426
 10
146.662
 20
68.1383
 10
146.658
 20
68.11499999999999
 10
146.69
 20
68.09990000000001
 10
146.701
 20
68.09990000000001
 10
152.499
 20
68.09990000000001
 10
152.509
 20
68.09990000000001
 10
152.54
 20
68.11499999999999
 10
152.537
 20
68.1383
 10
152.513
 20
68.1426
 10
152.499
 20
68.1108
 10
152.499
 20
68.09990000000001
 10
152.499
 20
65.2004
 10
152.499
 20
65.18380000000001
 10
152.528
 20
65.1302
 10
152.582
 20
65.0998
 10
152.6
 20
65.0998
 10
158.6
 20
65.0998
 10
158.616
 20
65.0998
 10
158.67
 20
65.1302
 10
158.7
 20
65.18380000000001
 10
158.7
 20
65.2004
 10
158.7
 20
68.09990000000001
 10
158.7
 20
68.1108
 10
158.685
 20
68.1426
 10
158.662
 20
68.1383
 10
158.658
 20
68.11499999999999
 10
158.689
 20
68.09990000000001
 10
158.7
 20
68.09990000000001
 10
164.501
 20
68.09990000000001
 10
164.51
 20
68.09990000000001
 10
164.542
 20
68.11499999999999
 10
164.538
 20
68.1383
 10
164.514
 20
68.1426
 10
164.501
 20
68.1108
 10
164.501
 20
68.09990000000001
 10
164.501
 20
65.2004
 10
164.501
 20
65.18380000000001
 10
164.53
 20
65.1302
 10
164.582
 20
65.0998
 10
164.6
 20
65.0998
 10
170.6
 20
65.0998
 10
170.616
 20
65.0998
 10
170.67
 20
65.1302
 10
170.7
 20
65.18380000000001
 10
170.7
 20
65.2004
 10
170.7
 20
68.09990000000001
 10
170.7
 20
68.1108
 10
170.685
 20
68.1426
 10
170.662
 20
68.1383
 10
170.658
 20
68.11499999999999
 10
170.689
 20
68.09990000000001
 10
170.7
 20
68.09990000000001
 10
176.5
 20
68.09990000000001
 10
176.51
 20
68.09990000000001
 10
176.542
 20
68.11499999999999
 10
176.538
 20
68.1383
 10
176.514
 20
68.1426
 10
176.5
 20
68.1108
 10
176.5
 20
68.09990000000001
 10
176.5
 20
65.2004
 10
176.5
 20
65.18380000000001
 10
176.529
 20
65.1302
 10
176.582
 20
65.0998
 10
176.6
 20
65.0998
 10
182.6
 20
65.0998
 10
182.616
 20
65.0998
 10
182.67
 20
65.1302
 10
182.7
 20
65.18380000000001
 10
182.7
 20
65.2004
 10
182.7
 20
68.09990000000001
 10
182.7
 20
68.1108
 10
182.685
 20
68.1426
 10
182.662
 20
68.1383
 10
182.658
 20
68.11499999999999
 10
182.689
 20
68.09990000000001
 10
182.7
 20
68.09990000000001
 10
188.5
 20
68.09990000000001
 10
188.51
 20
68.09990000000001
 10
188.542
 20
68.11499999999999
 10
188.538
 20
68.1383
 10
188.514
 20
68.1426
 10
188.5
 20
68.1108
 10
188.5
 20
68.09990000000001
 10
188.5
 20
65.2004
 10
188.5
 20
65.18380000000001
 10
188.529
 20
65.1302
 10
188.582
 20
65.0998
 10
188.6
 20
65.0998
 10
194.6
 20
65.0998
 10
194.616
 20
65.0998
 10
194.67
 20
65.1302
 10
194.7
 20
65.18380000000001
 10
194.7
 20
65.2004
 10
194.7
 20
68.09990000000001
 10
194.7
 20
68.1108
 10
194.685
 20
68.1426
 10
194.662
 20
68.1383
 10
194.657
 20
68.11499999999999
 10
194.689
 20
68.09990000000001
 10
194.7
 20
68.09990000000001
 10
200.501
 20
68.09990000000001
 10
200.51
 20
68.09990000000001
 10
200.542
 20
68.11499999999999
 10
200.538
 20
68.1383
 10
200.514
 20
68.1426
 10
200.501
 20
68.1108
 10
200.501
 20
68.09990000000001
 10
200.501
 20
65.2004
 10
200.501
 20
65.18380000000001
 10
200.529
 20
65.1302
 10
200.582
 20
65.0998
 10
200.6
 20
65.0998
 10
206.6
 20
65.0998
 10
206.616
 20
65.0998
 10
206.67
 20
65.1302
 10
206.7
 20
65.18380000000001
 10
206.7
 20
65.2004
 10
206.7
 20
68.09990000000001
 10
206.7
 20
68.1108
 10
206.685
 20
68.1426
 10
206.662
 20
68.1383
 10
206.658
 20
68.11499999999999
 10
206.689
 20
68.09990000000001
 10
206.7
 20
68.09990000000001
 10
212.5
 20
68.09990000000001
 10
212.51
 20
68.09990000000001
 10
212.542
 20
68.11499999999999
 10
212.538
 20
68.1383
 10
212.514
 20
68.1426
 10
212.5
 20
68.1108
 10
212.5
 20
68.09990000000001
 10
212.5
 20
65.2004
 10
212.5
 20
65.18380000000001
 10
212.529
 20
65.1302
 10
212.582
 20
65.0998
 10
212.6
 20
65.0998
 10
218.599
 20
65.0998
 10
218.616
 20
65.0998
 10
218.67
 20
65.1302
 10
218.7
 20
65.18380000000001
 10
218.7
 20
65.2004
 10
218.7
 20
68.09990000000001
 10
218.7
 20
68.1108
 10
218.685
 20
68.1426
 10
218.662
 20
68.1383
 10
218.657
 20
68.11499999999999
 10
218.689
 20
68.09990000000001
 10
218.7
 20
68.09990000000001
 10
224.5
 20
68.09990000000001
 10
224.51
 20
68.09990000000001
 10
224.542
 20
68.11499999999999
 10
224.537
 20
68.1383
 10
224.514
 20
68.1426
 10
224.5
 20
68.1108
 10
224.5
 20
68.09990000000001
 10
224.5
 20
65.2004
 10
224.5
 20
65.18380000000001
 10
224.529
 20
65.1302
 10
224.582
 20
65.0998
 10
224.599
 20
65.0998
 10
230.6
 20
65.0998
 10
230.616
 20
65.0998
 10
230.67
 20
65.1302
 10
230.7
 20
65.18380000000001
 10
230.7
 20
65.2004
 10
230.7
 20
68.09990000000001
 10
230.7
 20
68.1108
 10
230.685
 20
68.1426
 10
230.662
 20
68.1383
 10
230.657
 20
68.11499999999999
 10
230.689
 20
68.09990000000001
 10
230.7
 20
68.09990000000001
 10
236.5
 20
68.09990000000001
 10
236.51
 20
68.09990000000001
 10
236.542
 20
68.11499999999999
 10
236.538
 20
68.1383
 10
236.514
 20
68.1426
 10
236.5
 20
68.1108
 10
236.5
 20
68.09990000000001
 10
236.5
 20
65.2004
 10
236.5
 20
65.18380000000001
 10
236.529
 20
65.1302
 10
236.582
 20
65.0998
 10
236.6
 20
65.0998
 10
242.6
 20
65.0998
 10
242.616
 20
65.0998
 10
242.67
 20
65.1302
 10
242.7
 20
65.18380000000001
 10
242.7
 20
65.2004
 10
242.7
 20
68.09990000000001
 10
242.7
 20
68.1108
 10
242.685
 20
68.1426
 10
242.661
 20
68.1383
 10
242.657
 20
68.11499999999999
 10
242.689
 20
68.09990000000001
 10
242.7
 20
68.09990000000001
 10
248.5
 20
68.09990000000001
 10
248.51
 20
68.09990000000001
 10
248.541
 20
68.11499999999999
 10
248.538
 20
68.1383
 10
248.514
 20
68.1426
 10
248.5
 20
68.1108
 10
248.5
 20
68.09990000000001
 10
248.5
 20
65.2004
 10
248.5
 20
65.18380000000001
 10
248.529
 20
65.1302
 10
248.582
 20
65.0998
 10
248.599
 20
65.0998
 10
254.599
 20
65.0998
 10
254.616
 20
65.0998
 10
254.67
 20
65.1302
 10
254.7
 20
65.18380000000001
 10
254.7
 20
65.2004
 10
254.7
 20
68.09990000000001
 10
254.7
 20
68.1108
 10
254.685
 20
68.1426
 10
254.661
 20
68.1383
 10
254.657
 20
68.11499999999999
 10
254.689
 20
68.09990000000001
 10
254.7
 20
68.09990000000001
 10
262.1
 20
68.09990000000001
 10
262.117
 20
68.09990000000001
 10
262.17
 20
68.1302
 10
262.199
 20
68.18380000000001
 10
262.199
 20
68.2004
 10
262.199
 20
77.6002
 10
262.199
 20
77.61109999999999
 10
262.184
 20
77.6429
 10
262.162
 20
77.6386
 10
262.157
 20
77.6153
 10
262.188
 20
77.6002
 10
262.199
 20
77.6002
 10
265.1
 20
77.6002
 10
265.117
 20
77.6002
 10
265.17
 20
77.6305
 10
265.199
 20
77.6841
 10
265.199
 20
77.7007
 10
265.199
 20
83.7008
 10
265.199
 20
83.7188
 10
265.17
 20
83.771
 10
265.117
 20
83.79989999999999
 10
265.1
 20
83.79989999999999
 10
262.199
 20
83.79989999999999
 10
262.188
 20
83.79989999999999
 10
262.157
 20
83.7861
 10
262.162
 20
83.7629
 10
262.184
 20
83.7586
 10
262.199
 20
83.79040000000001
 10
262.199
 20
83.79989999999999
 10
262.199
 20
89.59990000000001
 10
262.199
 20
89.6112
 10
262.184
 20
89.6426
 10
262.162
 20
89.6387
 10
262.157
 20
89.6151
 10
262.188
 20
89.59990000000001
 10
262.199
 20
89.59990000000001
 10
265.1
 20
89.59990000000001
 10
265.117
 20
89.59990000000001
 10
265.17
 20
89.63030000000001
 10
265.199
 20
89.6842
 10
265.199
 20
89.7008
 10
265.199
 20
95.70050000000001
 10
265.199
 20
95.71850000000001
 10
265.17
 20
95.771
 10
265.117
 20
95.8
 10
265.1
 20
95.8
 10
262.199
 20
95.8
 10
262.188
 20
95.8
 10
262.157
 20
95.78619999999999
 10
262.162
 20
95.76260000000001
 10
262.184
 20
95.75839999999999
 10
262.199
 20
95.7901
 10
262.199
 20
95.8
 10
262.199
 20
101.6
 10
262.199
 20
101.611
 10
262.184
 20
101.643
 10
262.162
 20
101.637
 10
262.157
 20
101.615
 10
262.188
 20
101.6
 10
262.199
 20
101.6
 10
265.1
 20
101.6
 10
265.117
 20
101.6
 10
265.17
 20
101.63
 10
265.199
 20
101.683
 10
265.199
 20
101.699
 10
265.199
 20
107.699
 10
265.199
 20
107.717
 10
265.17
 20
107.771
 10
265.117
 20
107.8
 10
265.1
 20
107.8
 10
262.199
 20
107.8
 10
262.188
 20
107.8
 10
262.157
 20
107.786
 10
262.162
 20
107.763
 10
262.184
 20
107.758
 10
262.199
 20
107.79
 10
262.199
 20
107.8
 10
262.199
 20
113.6
 10
262.199
 20
113.611
 10
262.184
 20
113.643
 10
262.162
 20
113.639
 10
262.157
 20
113.615
 10
262.188
 20
113.6
 10
262.199
 20
113.6
 10
265.1
 20
113.6
 10
265.117
 20
113.6
 10
265.17
 20
113.63
 10
265.199
 20
113.684
 10
265.199
 20
113.701
 10
265.199
 20
119.701
 10
265.199
 20
119.718
 10
265.17
 20
119.771
 10
265.117
 20
119.8
 10
265.1
 20
119.8
 10
262.199
 20
119.8
 10
262.188
 20
119.8
 10
262.157
 20
119.786
 10
262.162
 20
119.762
 10
262.184
 20
119.759
 10
262.199
 20
119.79
 10
262.199
 20
119.8
 10
262.199
 20
125.6
 10
262.199
 20
125.611
 10
262.184
 20
125.643
 10
262.162
 20
125.639
 10
262.157
 20
125.615
 10
262.188
 20
125.6
 10
262.199
 20
125.6
 10
265.1
 20
125.6
 10
265.117
 20
125.6
 10
265.17
 20
125.63
 10
265.199
 20
125.684
 10
265.199
 20
125.7
 10
265.199
 20
131.7
 10
265.199
 20
131.718
 10
265.17
 20
131.771
 10
265.117
 20
131.8
 10
265.1
 20
131.8
 10
262.199
 20
131.8
 10
262.188
 20
131.8
 10
262.157
 20
131.786
 10
262.162
 20
131.763
 10
262.184
 20
131.758
 10
262.199
 20
131.79
 10
262.199
 20
131.8
 10
262.199
 20
137.6
 10
262.199
 20
137.611
 10
262.184
 20
137.643
 10
262.162
 20
137.638
 10
262.157
 20
137.615
 10
262.188
 20
137.6
 10
262.199
 20
137.6
 10
265.1
 20
137.6
 10
265.117
 20
137.6
 10
265.17
 20
137.63
 10
265.199
 20
137.684
 10
265.199
 20
137.7
 10
265.199
 20
143.7
 10
265.199
 20
143.718
 10
265.17
 20
143.771
 10
265.117
 20
143.8
 10
265.1
 20
143.8
 10
262.199
 20
143.8
 10
262.188
 20
143.8
 10
262.157
 20
143.786
 10
262.162
 20
143.763
 10
262.184
 20
143.758
 10
262.199
 20
143.79
 10
262.199
 20
143.8
 10
262.199
 20
149.6
 10
262.199
 20
149.611
 10
262.184
 20
149.643
 10
262.162
 20
149.638
 10
262.157
 20
149.615
 10
262.188
 20
149.6
 10
262.199
 20
149.6
 10
265.1
 20
149.6
 10
265.117
 20
149.6
 10
265.17
 20
149.63
 10
265.199
 20
149.684
 10
265.199
 20
149.701
 10
265.199
 20
155.7
 10
265.199
 20
155.718
 10
265.17
 20
155.771
 10
265.117
 20
155.8
 10
265.1
 20
155.8
 10
262.199
 20
155.8
 10
262.188
 20
155.8
 10
262.157
 20
155.786
 10
262.162
 20
155.762
 10
262.184
 20
155.758
 10
262.199
 20
155.79
 10
262.199
 20
155.8
 10
262.199
 20
161.6
 10
262.199
 20
161.611
 10
262.184
 20
161.642
 10
262.162
 20
161.639
 10
262.157
 20
161.615
 10
262.188
 20
161.6
 10
262.199
 20
161.6
 10
265.1
 20
161.6
 10
265.117
 20
161.6
 10
265.17
 20
161.63
 10
265.199
 20
161.684
 10
265.199
 20
161.7
 10
265.199
 20
167.7
 10
265.199
 20
167.718
 10
265.17
 20
167.771
 10
265.117
 20
167.799
 10
265.1
 20
167.799
 10
262.199
 20
167.799
 10
262.188
 20
167.799
 10
262.157
 20
167.786
 10
262.162
 20
167.762
 10
262.184
 20
167.758
 10
262.199
 20
167.79
 10
262.199
 20
167.799
 10
262.199
 20
173.6
 10
262.199
 20
173.611
 10
262.184
 20
173.643
 10
262.162
 20
173.638
 10
262.157
 20
173.615
 10
262.188
 20
173.6
 10
262.199
 20
173.6
 10
265.1
 20
173.6
 10
265.117
 20
173.6
 10
265.17
 20
173.63
 10
265.199
 20
173.684
 10
265.199
 20
173.7
 10
265.199
 20
179.7
 10
265.199
 20
179.718
 10
265.17
 20
179.771
 10
265.117
 20
179.8
 10
265.1
 20
179.8
 10
262.199
 20
179.8
 10
262.188
 20
179.8
 10
262.157
 20
179.786
 10
262.162
 20
179.762
 10
262.184
 20
179.758
 10
262.199
 20
179.79
 10
262.199
 20
179.8
 10
262.199
 20
185.6
 10
262.199
 20
185.611
 10
262.184
 20
185.642
 10
262.162
 20
185.638
 10
262.157
 20
185.615
 10
262.188
 20
185.6
 10
262.199
 20
185.6
 10
265.1
 20
185.6
 10
265.117
 20
185.6
 10
265.17
 20
185.63
 10
265.199
 20
185.684
 10
265.199
 20
185.7
 10
265.199
 20
191.7
 10
265.199
 20
191.718
 10
265.17
 20
191.771
 10
265.117
 20
191.8
 10
265.1
 20
191.8
 10
262.199
 20
191.8
 10
262.188
 20
191.8
 10
262.157
 20
191.786
 10
262.162
 20
191.762
 10
262.184
 20
191.758
 10
262.199
 20
191.79
 10
262.199
 20
191.8
 10
262.199
 20
197.6
 10
262.199
 20
197.611
 10
262.184
 20
197.642
 10
262.162
 20
197.638
 10
262.157
 20
197.615
 10
262.188
 20
197.6
 10
262.199
 20
197.6
 10
265.1
 20
197.6
 10
265.117
 20
197.6
 10
265.17
 20
197.63
 10
265.199
 20
197.684
 10
265.199
 20
197.7
 10
265.199
 20
203.7
 10
265.199
 20
203.718
 10
265.17
 20
203.77
 10
265.117
 20
203.799
 10
265.1
 20
203.799
 10
262.199
 20
203.799
 10
262.188
 20
203.799
 10
262.157
 20
203.786
 10
262.162
 20
203.762
 10
262.184
 20
203.758
 10
262.199
 20
203.79
 10
262.199
 20
203.799
 10
262.199
 20
209.6
 10
262.199
 20
209.611
 10
262.184
 20
209.642
 10
262.162
 20
209.638
 10
262.157
 20
209.615
 10
262.188
 20
209.6
 10
262.199
 20
209.6
 10
265.1
 20
209.6
 10
265.117
 20
209.6
 10
265.17
 20
209.63
 10
265.199
 20
209.684
 10
265.199
 20
209.7
 10
265.199
 20
215.7
 10
265.199
 20
215.718
 10
265.17
 20
215.772
 10
265.117
 20
215.801
 10
265.1
 20
215.801
 10
262.199
 20
215.801
 10
262.188
 20
215.801
 10
262.157
 20
215.787
 10
262.162
 20
215.763
 10
262.184
 20
215.76
 10
262.199
 20
215.791
 10
262.199
 20
215.801
 10
262.199
 20
221.599
 10
262.199
 20
221.611
 10
262.184
 20
221.642
 10
262.162
 20
221.638
 10
262.157
 20
221.615
 10
262.188
 20
221.599
 10
262.199
 20
221.599
 10
265.1
 20
221.599
 10
265.117
 20
221.599
 10
265.17
 20
221.63
 10
265.199
 20
221.684
 10
265.199
 20
221.7
 10
265.199
 20
227.7
 10
265.199
 20
227.718
 10
265.17
 20
227.77
 10
265.117
 20
227.799
 10
265.1
 20
227.799
 10
262.199
 20
227.799
 10
262.188
 20
227.799
 10
262.157
 20
227.785
 10
262.162
 20
227.762
 10
262.184
 20
227.758
 10
262.199
 20
227.79
 10
262.199
 20
227.799
 10
262.199
 20
237.2
 10
262.199
 20
237.218
 10
262.17
 20
237.271
 10
262.117
 20
237.299
 10
262.1
 20
237.299
 10
254.7
 20
237.299
 10
254.689
 20
237.299
 10
254.657
 20
237.286
 10
254.661
 20
237.262
 10
254.685
 20
237.258
 10
254.7
 20
237.29
 10
254.7
 20
237.299
 10
254.7
 20
240.2
 10
254.7
 20
240.218
 10
254.67
 20
240.271
 10
254.616
 20
240.3
 10
254.599
 20
240.3
 10
248.599
 20
240.3
 10
248.582
 20
240.3
 10
248.529
 20
240.271
 10
248.5
 20
240.218
 10
248.5
 20
240.2
 10
248.5
 20
237.299
 10
248.5
 20
237.29
 10
248.514
 20
237.258
 10
248.538
 20
237.262
 10
248.541
 20
237.286
 10
248.51
 20
237.299
 10
248.5
 20
237.299
 10
242.7
 20
237.299
 10
242.689
 20
237.299
 10
242.657
 20
237.286
 10
242.661
 20
237.262
 10
242.685
 20
237.258
 10
242.7
 20
237.29
 10
242.7
 20
237.299
 10
242.7
 20
240.2
 10
242.7
 20
240.218
 10
242.67
 20
240.271
 10
242.616
 20
240.3
 10
242.6
 20
240.3
 10
236.6
 20
240.3
 10
236.582
 20
240.3
 10
236.529
 20
240.271
 10
236.5
 20
240.218
 10
236.5
 20
240.2
 10
236.5
 20
237.299
 10
236.5
 20
237.29
 10
236.514
 20
237.258
 10
236.538
 20
237.262
 10
236.542
 20
237.286
 10
236.51
 20
237.299
 10
236.5
 20
237.299
 10
230.7
 20
237.299
 10
230.689
 20
237.299
 10
230.657
 20
237.286
 10
230.662
 20
237.262
 10
230.685
 20
237.258
 10
230.7
 20
237.29
 10
230.7
 20
237.299
 10
230.7
 20
240.2
 10
230.7
 20
240.218
 10
230.67
 20
240.271
 10
230.616
 20
240.3
 10
230.6
 20
240.3
 10
224.599
 20
240.3
 10
224.582
 20
240.3
 10
224.529
 20
240.271
 10
224.5
 20
240.218
 10
224.5
 20
240.2
 10
224.5
 20
237.299
 10
224.5
 20
237.29
 10
224.514
 20
237.258
 10
224.537
 20
237.262
 10
224.542
 20
237.286
 10
224.51
 20
237.299
 10
224.5
 20
237.299
 10
218.7
 20
237.299
 10
218.689
 20
237.299
 10
218.657
 20
237.286
 10
218.662
 20
237.262
 10
218.685
 20
237.258
 10
218.7
 20
237.29
 10
218.7
 20
237.299
 10
218.7
 20
240.2
 10
218.7
 20
240.218
 10
218.67
 20
240.271
 10
218.616
 20
240.3
 10
218.599
 20
240.3
 10
212.6
 20
240.3
 10
212.582
 20
240.3
 10
212.529
 20
240.271
 10
212.5
 20
240.218
 10
212.5
 20
240.2
 10
212.5
 20
237.299
 10
212.5
 20
237.29
 10
212.514
 20
237.258
 10
212.538
 20
237.262
 10
212.542
 20
237.286
 10
212.51
 20
237.299
 10
212.5
 20
237.299
 10
206.7
 20
237.299
 10
206.689
 20
237.299
 10
206.658
 20
237.286
 10
206.662
 20
237.262
 10
206.685
 20
237.258
 10
206.7
 20
237.29
 10
206.7
 20
237.299
 10
206.7
 20
240.2
 10
206.7
 20
240.218
 10
206.67
 20
240.271
 10
206.616
 20
240.3
 10
206.6
 20
240.3
 10
200.6
 20
240.3
 10
200.582
 20
240.3
 10
200.529
 20
240.271
 10
200.501
 20
240.218
 10
200.501
 20
240.2
 10
200.501
 20
237.299
 10
200.501
 20
237.29
 10
200.514
 20
237.258
 10
200.538
 20
237.262
 10
200.542
 20
237.286
 10
200.51
 20
237.299
 10
200.501
 20
237.299
 10
194.7
 20
237.299
 10
194.689
 20
237.299
 10
194.657
 20
237.286
 10
194.662
 20
237.262
 10
194.685
 20
237.258
 10
194.7
 20
237.29
 10
194.7
 20
237.299
 10
194.7
 20
240.2
 10
194.7
 20
240.218
 10
194.67
 20
240.271
 10
194.616
 20
240.3
 10
194.6
 20
240.3
 10
188.6
 20
240.3
 10
188.582
 20
240.3
 10
188.529
 20
240.271
 10
188.5
 20
240.218
 10
188.5
 20
240.2
 10
188.5
 20
237.299
 10
188.5
 20
237.29
 10
188.514
 20
237.258
 10
188.538
 20
237.262
 10
188.542
 20
237.286
 10
188.51
 20
237.299
 10
188.5
 20
237.299
 10
182.7
 20
237.299
 10
182.689
 20
237.299
 10
182.658
 20
237.286
 10
182.662
 20
237.262
 10
182.685
 20
237.258
 10
182.7
 20
237.29
 10
182.7
 20
237.299
 10
182.7
 20
240.2
 10
182.7
 20
240.218
 10
182.67
 20
240.271
 10
182.616
 20
240.3
 10
182.6
 20
240.3
 10
176.6
 20
240.3
 10
176.582
 20
240.3
 10
176.529
 20
240.271
 10
176.5
 20
240.218
 10
176.5
 20
240.2
 10
176.5
 20
237.299
 10
176.5
 20
237.29
 10
176.514
 20
237.258
 10
176.538
 20
237.262
 10
176.542
 20
237.286
 10
176.51
 20
237.299
 10
176.5
 20
237.299
 10
170.7
 20
237.299
 10
170.689
 20
237.299
 10
170.658
 20
237.286
 10
170.662
 20
237.262
 10
170.685
 20
237.258
 10
170.7
 20
237.29
 10
170.7
 20
237.299
 10
170.7
 20
240.2
 10
170.7
 20
240.218
 10
170.67
 20
240.271
 10
170.616
 20
240.3
 10
170.6
 20
240.3
 10
164.6
 20
240.3
 10
164.582
 20
240.3
 10
164.53
 20
240.271
 10
164.501
 20
240.218
 10
164.501
 20
240.2
 10
164.501
 20
237.299
 10
164.501
 20
237.29
 10
164.514
 20
237.258
 10
164.538
 20
237.262
 10
164.542
 20
237.286
 10
164.51
 20
237.299
 10
164.501
 20
237.299
 10
158.7
 20
237.299
 10
158.689
 20
237.299
 10
158.658
 20
237.286
 10
158.662
 20
237.262
 10
158.685
 20
237.258
 10
158.7
 20
237.29
 10
158.7
 20
237.299
 10
158.7
 20
240.2
 10
158.7
 20
240.218
 10
158.67
 20
240.271
 10
158.616
 20
240.3
 10
158.6
 20
240.3
 10
152.6
 20
240.3
 10
152.582
 20
240.3
 10
152.528
 20
240.271
 10
152.499
 20
240.218
 10
152.499
 20
240.2
 10
152.499
 20
237.299
 10
152.499
 20
237.29
 10
152.513
 20
237.258
 10
152.537
 20
237.262
 10
152.54
 20
237.286
 10
152.509
 20
237.299
 10
152.499
 20
237.299
 10
146.701
 20
237.299
 10
146.69
 20
237.299
 10
146.658
 20
237.286
 10
146.662
 20
237.262
 10
146.685
 20
237.258
 10
146.701
 20
237.29
 10
146.701
 20
237.299
 10
146.701
 20
240.2
 10
146.701
 20
240.218
 10
146.67
 20
240.271
 10
146.616
 20
240.3
 10
146.6
 20
240.3
 10
140.6
 20
240.3
 10
140.582
 20
240.3
 10
140.53
 20
240.271
 10
140.501
 20
240.218
 10
140.501
 20
240.2
 10
140.501
 20
237.299
 10
140.501
 20
237.29
 10
140.515
 20
237.258
 10
140.538
 20
237.262
 10
140.542
 20
237.286
 10
140.51
 20
237.299
 10
140.501
 20
237.299
 10
134.7
 20
237.299
 10
134.689
 20
237.299
 10
134.658
 20
237.286
 10
134.662
 20
237.262
 10
134.685
 20
237.258
 10
134.7
 20
237.29
 10
134.7
 20
237.299
 10
134.7
 20
240.2
 10
134.7
 20
240.218
 10
134.67
 20
240.271
 10
134.616
 20
240.3
 10
134.6
 20
240.3
 10
128.6
 20
240.3
 10
128.582
 20
240.3
 10
128.53
 20
240.271
 10
128.501
 20
240.218
 10
128.501
 20
240.2
 10
128.501
 20
237.299
 10
128.501
 20
237.29
 10
128.514
 20
237.258
 10
128.538
 20
237.262
 10
128.542
 20
237.286
 10
128.51
 20
237.299
 10
128.501
 20
237.299
 10
122.701
 20
237.299
 10
122.689
 20
237.299
 10
122.658
 20
237.286
 10
122.662
 20
237.262
 10
122.686
 20
237.258
 10
122.701
 20
237.29
 10
122.701
 20
237.299
 10
122.701
 20
240.2
 10
122.701
 20
240.218
 10
122.67
 20
240.271
 10
122.616
 20
240.3
 10
122.6
 20
240.3
 10
116.6
 20
240.3
 10
116.582
 20
240.3
 10
116.528
 20
240.271
 10
116.499
 20
240.218
 10
116.499
 20
240.2
 10
116.499
 20
237.299
 10
116.499
 20
237.29
 10
116.513
 20
237.258
 10
116.537
 20
237.262
 10
116.541
 20
237.286
 10
116.509
 20
237.299
 10
116.499
 20
237.299
 10
110.701
 20
237.299
 10
110.69
 20
237.299
 10
110.658
 20
237.286
 10
110.662
 20
237.262
 10
110.685
 20
237.258
 10
110.701
 20
237.29
 10
110.701
 20
237.299
 10
110.701
 20
240.2
 10
110.701
 20
240.218
 10
110.67
 20
240.271
 10
110.617
 20
240.3
 10
110.6
 20
240.3
 10
104.6
 20
240.3
 10
104.582
 20
240.3
 10
104.528
 20
240.271
 10
104.499
 20
240.218
 10
104.499
 20
240.2
 10
104.499
 20
237.299
 10
104.499
 20
237.29
 10
104.513
 20
237.258
 10
104.537
 20
237.262
 10
104.541
 20
237.286
 10
104.509
 20
237.299
 10
104.499
 20
237.299
 10
98.70050000000001
 20
237.299
 10
98.6896
 20
237.299
 10
98.65779999999999
 20
237.286
 10
98.6621
 20
237.262
 10
98.6854
 20
237.258
 10
98.70050000000001
 20
237.29
 10
98.70050000000001
 20
237.299
 10
98.70050000000001
 20
240.2
 10
98.70050000000001
 20
240.218
 10
98.67019999999999
 20
240.271
 10
98.61660000000001
 20
240.3
 10
98.59999999999999
 20
240.3
 10
92.59990000000001
 20
240.3
 10
92.5823
 20
240.3
 10
92.5283
 20
240.271
 10
92.49939999999999
 20
240.218
 10
92.49939999999999
 20
240.2
 10
92.49939999999999
 20
237.299
 10
92.49939999999999
 20
237.29
 10
92.5132
 20
237.258
 10
92.5368
 20
237.262
 10
92.5407
 20
237.286
 10
92.5089
 20
237.299
 10
92.49939999999999
 20
237.299
 10
86.7008
 20
237.299
 10
86.6895
 20
237.299
 10
86.6581
 20
237.286
 10
86.66200000000001
 20
237.262
 10
86.68559999999999
 20
237.258
 10
86.7008
 20
237.29
 10
86.7008
 20
237.299
 10
86.7008
 20
240.2
 10
86.7008
 20
240.218
 10
86.6704
 20
240.271
 10
86.6165
 20
240.3
 10
86.59990000000001
 20
240.3
 10
80.6002
 20
240.3
 10
80.5822
 20
240.3
 10
80.5286
 20
240.271
 10
80.4997
 20
240.218
 10
80.4997
 20
240.2
 10
80.4997
 20
237.299
 10
80.4997
 20
237.29
 10
80.5134
 20
237.258
 10
80.5367
 20
237.262
 10
80.54089999999999
 20
237.286
 10
80.50920000000001
 20
237.299
 10
80.4997
 20
237.299
 10
74.69929999999999
 20
237.299
 10
74.6883
 20
237.299
 10
74.6566
 20
237.286
 10
74.6622
 20
237.262
 10
74.6841
 20
237.258
 10
74.69929999999999
 20
237.29
 10
74.69929999999999
 20
237.299
 10
74.69929999999999
 20
240.2
 10
74.69929999999999
 20
240.218
 10
74.6704
 20
240.271
 10
74.61669999999999
 20
240.3
 10
74.6002
 20
240.3
 10
68.6001
 20
240.3
 10
68.5821
 20
240.3
 10
68.52849999999999
 20
240.271
 10
68.4996
 20
240.218
 10
68.4996
 20
240.2
 10
68.4996
 20
237.299
 10
68.4996
 20
237.29
 10
68.5133
 20
237.258
 10
68.53660000000001
 20
237.262
 10
68.5408
 20
237.286
 10
68.5091
 20
237.299
 10
68.4996
 20
237.299
 10
62.6992
 20
237.299
 10
62.6883
 20
237.299
 10
62.6565
 20
237.286
 10
62.6622
 20
237.262
 10
62.6844
 20
237.258
 10
62.6992
 20
237.29
 10
62.6992
 20
237.299
 10
62.6992
 20
240.2
 10
62.6992
 20
240.218
 10
62.6703
 20
240.271
 10
62.6166
 20
240.3
 10
62.6001
 20
240.3
 10
56.6
 20
240.3
 10
56.5824
 20
240.3
 10
56.5284
 20
240.271
 10
56.4995
 20
240.218
 10
56.4995
 20
240.2
 10
56.4995
 20
237.299
 10
56.4995
 20
237.29
 10
56.5132
 20
237.258
 10
56.5369
 20
237.262
 10
56.5408
 20
237.286
 10
56.5094
 20
237.299
 10
56.4995
 20
237.299
 10
50.7009
 20
237.299
 10
50.6899
 20
237.299
 10
50.6582
 20
237.286
 10
50.6621
 20
237.262
 10
50.6857
 20
237.258
 10
50.7009
 20
237.29
 10
50.7009
 20
237.299
 10
50.7009
 20
240.2
 10
50.7009
 20
240.218
 10
50.6705
 20
240.271
 10
50.6166
 20
240.3
 10
50.6003
 20
240.3
 10
44.6003
 20
240.3
 10
44.5823
 20
240.3
 10
44.5287
 20
240.271
 10
44.4997
 20
240.218
 10
44.4997
 20
240.2
 10
44.4997
 20
237.299
 10
44.4997
 20
237.29
 10
44.5135
 20
237.258
 10
44.5368
 20
237.262
 10
44.541
 20
237.286
 10
44.5093
 20
237.299
 10
44.4997
 20
237.299
 10
38.6994
 20
237.299
 10
38.6884
 20
237.299
 10
38.6567
 20
237.286
 10
38.6623
 20
237.262
 10
38.6842
 20
237.258
 10
38.6994
 20
237.29
 10
38.6994
 20
237.299
 10
38.6994
 20
240.2
 10
38.6994
 20
240.218
 10
38.6704
 20
240.271
 10
38.6168
 20
240.3
 10
38.6002
 20
240.3
 10
32.6003
 20
240.3
 10
32.5823
 20
240.3
 10
32.5286
 20
240.271
 10
32.4997
 20
240.218
 10
32.4997
 20
240.2
 10
32.4997
 20
237.299
 10
32.4997
 20
237.29
 10
32.5134
 20
237.258
 10
32.5369
 20
237.262
 10
32.541
 20
237.286
 10
32.5093
 20
237.299
 10
32.4997
 20
237.299
 10
26.6995
 20
237.299
 10
26.6884
 20
237.299
 10
26.6568
 20
237.286
 10
26.6623
 20
237.262
 10
26.6843
 20
237.258
 10
26.6995
 20
237.29
 10
26.6995
 20
237.299
 10
26.6995
 20
240.2
 10
26.6995
 20
240.218
 10
26.6706
 20
240.271
 10
26.6168
 20
240.3
 10
26.6003
 20
240.3
 10
20.6003
 20
240.3
 10
20.5824
 20
240.3
 10
20.5286
 20
240.271
 10
20.4997
 20
240.218
 10
20.4997
 20
240.2
 10
20.4997
 20
237.299
 10
20.4997
 20
237.29
 10
20.5135
 20
237.258
 10
20.5369
 20
237.262
 10
20.5411
 20
237.286
 10
20.5093
 20
237.299
 10
20.4997
 20
237.299
 10
13.0996
 20
237.299
 10
13.0817
 20
237.299
 10
13.0294
 20
237.271
 10
13.0004
 20
237.218
 10
13.0004
 20
237.2
 10
13.0004
 20
227.799
 10
13.0004
 20
227.79
 10
13.0142
 20
227.758
 10
13.0376
 20
227.762
 10
13.0418
 20
227.785
 10
13.0101
 20
227.799
 10
13.0004
 20
227.799
 10
10.0996
 20
227.799
 10
10.0817
 20
227.799
 10
10.0294
 20
227.77
 10
10.0004
 20
227.718
 10
10.0004
 20
227.7
 10
10.0004
 20
221.7
 10
10.0004
 20
221.684
 10
10.0294
 20
221.63
 10
10.0817
 20
221.599
 10
10.0996
 20
221.599
 10
13.0004
 20
221.599
 10
13.0101
 20
221.599
 10
13.0418
 20
221.615
 10
13.0376
 20
221.638
 10
13.0142
 20
221.642
 10
13.0004
 20
221.611
 10
13.0004
 20
221.599
 10
13.0004
 20
215.801
 10
13.0004
 20
215.791
 10
13.0142
 20
215.76
 10
13.0376
 20
215.763
 10
13.0418
 20
215.787
 10
13.0101
 20
215.801
 10
13.0004
 20
215.801
 10
10.0996
 20
215.801
 10
10.0817
 20
215.801
 10
10.0294
 20
215.772
 10
10.0004
 20
215.718
 10
10.0004
 20
215.7
 10
10.0004
 20
209.7
 10
10.0004
 20
209.684
 10
10.0294
 20
209.63
 10
10.0817
 20
209.6
 10
10.0996
 20
209.6
 10
13.0004
 20
209.6
 10
13.0101
 20
209.6
 10
13.0418
 20
209.615
 10
13.0376
 20
209.638
 10
13.0142
 20
209.642
 10
13.0004
 20
209.611
 10
13.0004
 20
209.6
 10
13.0004
 20
203.799
 10
13.0004
 20
203.79
 10
13.0142
 20
203.758
 10
13.0376
 20
203.762
 10
13.0418
 20
203.786
 10
13.0101
 20
203.799
 10
13.0004
 20
203.799
 10
10.0996
 20
203.799
 10
10.0817
 20
203.799
 10
10.0294
 20
203.77
 10
10.0004
 20
203.718
 10
10.0004
 20
203.7
 10
10.0004
 20
197.7
 10
10.0004
 20
197.684
 10
10.0294
 20
197.63
 10
10.0817
 20
197.6
 10
10.0996
 20
197.6
 10
13.0004
 20
197.6
 10
13.0101
 20
197.6
 10
13.0418
 20
197.615
 10
13.0376
 20
197.638
 10
13.0142
 20
197.642
 10
13.0004
 20
197.611
 10
13.0004
 20
197.6
 10
13.0004
 20
191.8
 10
13.0004
 20
191.79
 10
13.0142
 20
191.758
 10
13.0376
 20
191.762
 10
13.0418
 20
191.786
 10
13.0101
 20
191.8
 10
13.0004
 20
191.8
 10
10.0996
 20
191.8
 10
10.0817
 20
191.8
 10
10.0294
 20
191.771
 10
10.0004
 20
191.718
 10
10.0004
 20
191.7
 10
10.0004
 20
185.7
 10
10.0004
 20
185.684
 10
10.0294
 20
185.63
 10
10.0817
 20
185.6
 10
10.0996
 20
185.6
 10
13.0004
 20
185.6
 10
13.0101
 20
185.6
 10
13.0418
 20
185.615
 10
13.0376
 20
185.638
 10
13.0142
 20
185.642
 10
13.0004
 20
185.611
 10
13.0004
 20
185.6
 10
13.0004
 20
179.8
 10
13.0004
 20
179.79
 10
13.0142
 20
179.758
 10
13.0376
 20
179.762
 10
13.0418
 20
179.786
 10
13.0101
 20
179.8
 10
13.0004
 20
179.8
 10
10.0996
 20
179.8
 10
10.0817
 20
179.8
 10
10.0294
 20
179.771
 10
10.0004
 20
179.718
 10
10.0004
 20
179.7
 10
10.0004
 20
173.7
 10
10.0004
 20
173.684
 10
10.0294
 20
173.63
 10
10.0817
 20
173.6
 10
10.0996
 20
173.6
 10
13.0004
 20
173.6
 10
13.0101
 20
173.6
 10
13.0418
 20
173.615
 10
13.0376
 20
173.638
 10
13.0142
 20
173.643
 10
13.0004
 20
173.611
 10
13.0004
 20
173.6
 10
13.0004
 20
167.799
 10
13.0004
 20
167.79
 10
13.0142
 20
167.758
 10
13.0376
 20
167.762
 10
13.0418
 20
167.786
 10
13.0101
 20
167.799
 10
13.0004
 20
167.799
 10
10.0996
 20
167.799
 10
10.0817
 20
167.799
 10
10.0294
 20
167.771
 10
10.0004
 20
167.718
 10
10.0004
 20
167.7
 10
10.0004
 20
161.7
 10
10.0004
 20
161.684
 10
10.0294
 20
161.63
 10
10.0817
 20
161.6
 10
10.0996
 20
161.6
 10
13.0004
 20
161.6
 10
13.0101
 20
161.6
 10
13.0418
 20
161.615
 10
13.0376
 20
161.639
 10
13.0142
 20
161.642
 10
13.0004
 20
161.611
 10
13.0004
 20
161.6
 10
13.0004
 20
155.8
 10
13.0004
 20
155.79
 10
13.0142
 20
155.758
 10
13.0376
 20
155.762
 10
13.0418
 20
155.786
 10
13.0101
 20
155.8
 10
13.0004
 20
155.8
 10
10.0996
 20
155.8
 10
10.0817
 20
155.8
 10
10.0294
 20
155.771
 10
10.0004
 20
155.718
 10
10.0004
 20
155.7
 10
10.0004
 20
149.701
 10
10.0004
 20
149.684
 10
10.0294
 20
149.63
 10
10.0817
 20
149.6
 10
10.0996
 20
149.6
 10
13.0004
 20
149.6
 10
13.0101
 20
149.6
 10
13.0418
 20
149.615
 10
13.0376
 20
149.638
 10
13.0142
 20
149.643
 10
13.0004
 20
149.611
 10
13.0004
 20
149.6
 10
13.0004
 20
143.8
 10
13.0004
 20
143.79
 10
13.0142
 20
143.758
 10
13.0376
 20
143.763
 10
13.0418
 20
143.786
 10
13.0101
 20
143.8
 10
13.0004
 20
143.8
 10
10.0996
 20
143.8
 10
10.0817
 20
143.8
 10
10.0294
 20
143.771
 10
10.0004
 20
143.718
 10
10.0004
 20
143.7
 10
10.0004
 20
137.7
 10
10.0004
 20
137.684
 10
10.0294
 20
137.63
 10
10.0817
 20
137.6
 10
10.0996
 20
137.6
 10
13.0004
 20
137.6
 10
13.0101
 20
137.6
 10
13.0418
 20
137.615
 10
13.0376
 20
137.638
 10
13.0142
 20
137.643
 10
13.0004
 20
137.611
 10
13.0004
 20
137.6
 10
13.0004
 20
131.8
 10
13.0004
 20
131.79
 10
13.0142
 20
131.758
 10
13.0376
 20
131.763
 10
13.0418
 20
131.786
 10
13.0101
 20
131.8
 10
13.0004
 20
131.8
 10
10.0996
 20
131.8
 10
10.0817
 20
131.8
 10
10.0294
 20
131.771
 10
10.0004
 20
131.718
 10
10.0004
 20
131.7
 10
10.0004
 20
125.7
 10
10.0004
 20
125.684
 10
10.0294
 20
125.63
 10
10.0817
 20
125.6
 10
10.0996
 20
125.6
 10
13.0004
 20
125.6
 10
13.0101
 20
125.6
 10
13.0418
 20
125.615
 10
13.0376
 20
125.639
 10
13.0142
 20
125.643
 10
13.0004
 20
125.611
 10
13.0004
 20
125.6
 10
13.0004
 20
119.8
 10
13.0004
 20
119.79
 10
13.0142
 20
119.759
 10
13.0376
 20
119.762
 10
13.0418
 20
119.786
 10
13.0101
 20
119.8
 10
13.0004
 20
119.8
 10
10.0996
 20
119.8
 10
10.0817
 20
119.8
 10
10.0294
 20
119.771
 10
10.0004
 20
119.718
 10
10.0004
 20
119.701
 10
10.0004
 20
113.701
 10
10.0004
 20
113.684
 10
10.0294
 20
113.63
 10
10.0817
 20
113.6
 10
10.0996
 20
113.6
 10
13.0004
 20
113.6
 10
13.0101
 20
113.6
 10
13.0418
 20
113.615
 10
13.0376
 20
113.639
 10
13.0142
 20
113.643
 10
13.0004
 20
113.611
 10
13.0004
 20
113.6
 10
13.0004
 20
107.8
 10
13.0004
 20
107.79
 10
13.0142
 20
107.758
 10
13.0376
 20
107.763
 10
13.0418
 20
107.786
 10
13.0101
 20
107.8
 10
13.0004
 20
107.8
 10
10.0996
 20
107.8
 10
10.0817
 20
107.8
 10
10.0294
 20
107.771
 10
10.0004
 20
107.717
 10
10.0004
 20
107.699
 10
10.0004
 20
101.699
 10
10.0004
 20
101.683
 10
10.0294
 20
101.63
 10
10.0817
 20
101.6
 10
10.0996
 20
101.6
 10
13.0004
 20
101.6
 10
13.0101
 20
101.6
 10
13.0418
 20
101.615
 10
13.0376
 20
101.637
 10
13.0142
 20
101.643
 10
13.0004
 20
101.611
 10
13.0004
 20
101.6
 10
13.0004
 20
95.8
 10
13.0004
 20
95.7901
 10
13.0142
 20
95.75839999999999
 10
13.0376
 20
95.76260000000001
 10
13.0418
 20
95.78619999999999
 10
13.0101
 20
95.8
 10
13.0004
 20
95.8
 10
10.0996
 20
95.8
 10
10.0817
 20
95.8
 10
10.0294
 20
95.771
 10
10.0004
 20
95.71850000000001
 10
10.0004
 20
95.70050000000001
 10
10.0004
 20
89.7008
 10
10.0004
 20
89.6842
 10
10.0294
 20
89.63030000000001
 10
10.0817
 20
89.59990000000001
 10
10.0996
 20
89.59990000000001
 10
13.0004
 20
89.59990000000001
 10
13.0101
 20
89.59990000000001
 10
13.0418
 20
89.6151
 10
13.0376
 20
89.6387
 10
13.0142
 20
89.6426
 10
13.0004
 20
89.6112
 10
13.0004
 20
89.59990000000001
 10
13.0004
 20
83.79989999999999
 10
13.0004
 20
83.79040000000001
 10
13.0142
 20
83.7586
 10
13.0376
 20
83.7629
 10
13.0418
 20
83.7861
 10
13.0101
 20
83.79989999999999
 10
13.0004
 20
83.79989999999999
 10
10.0996
 20
83.79989999999999
 10
10.0817
 20
83.79989999999999
 10
10.0294
 20
83.771
 10
10.0004
 20
83.7188
 10
10.0004
 20
83.7008
 10
10.0004
 20
77.7007
 10
10.0004
 20
77.6841
 10
10.0294
 20
77.6305
 10
10.0817
 20
77.6002
 10
10.0996
 20
77.6002
 10
13.0004
 20
77.6002
 10
13.0101
 20
77.6002
 10
13.0418
 20
77.6153
 10
13.0376
 20
77.6386
 10
13.0142
 20
77.6429
 10
13.0004
 20
77.61109999999999
 10
13.0004
 20
77.6002
 10
13.0004
 20
68.2004
 10
13.0004
 20
68.18380000000001
 10
13.0294
 20
68.1302
 10
13.0817
 20
68.09990000000001
  0
LWPOLYLINE
  5
7A
100
AcDbEntity
  8
0
  6
ByLayer
 62
    5
370
   -1
100
AcDbPolyline
 90
   29
 70
    1
 43
0
 10
282.299
 20
24.8998
 10
279.4
 20
24.8998
 10
279.389
 20
24.8998
 10
279.357
 20
24.886
 10
279.363
 20
24.8626
 10
279.385
 20
24.8584
 10
279.4
 20
24.8901
 10
279.4
 20
24.8998
 10
279.4
 20
27.6999
 10
279.4
 20
27.711
 10
279.385
 20
27.7427
 10
279.363
 20
27.7385
 10
279.357
 20
27.7151
 10
279.389
 20
27.6999
 10
279.4
 20
27.6999
 10
285.2
 20
27.6999
 10
285.21
 20
27.6999
 10
285.242
 20
27.7151
 10
285.237
 20
27.7385
 10
285.214
 20
27.7427
 10
285.2
 20
27.711
 10
285.2
 20
27.6999
 10
285.2
 20
24.8998
 10
285.2
 20
24.8901
 10
285.214
 20
24.8584
 10
285.237
 20
24.8626
 10
285.242
 20
24.886
 10
285.21
 20
24.8998
 10
285.2
 20
24.8998
  0
LWPOLYLINE
  5
7B
100
AcDbEntity
  8
0
  6
ByLayer
 62
    5
370
   -1
100
AcDbPolyline
 90
   29
 70
    1
 43
0
 10
294.299
 20
24.8998
 10
291.4
 20
24.8998
 10
291.389
 20
24.8998
 10
291.357
 20
24.886
 10
291.361
 20
24.8626
 10
291.385
 20
24.8584
 10
291.4
 20
24.8901
 10
291.4
 20
24.8998
 10
291.4
 20
27.6999
 10
291.4
 20
27.711
 10
291.385
 20
27.7427
 10
291.361
 20
27.7385
 10
291.357
 20
27.7151
 10
291.389
 20
27.6999
 10
291.4
 20
27.6999
 10
297.2
 20
27.6999
 10
297.21
 20
27.6999
 10
297.241
 20
27.7151
 10
297.237
 20
27.7385
 10
297.214
 20
27.7427
 10
297.2
 20
27.711
 10
297.2
 20
27.6999
 10
297.2
 20
24.8998
 10
297.2
 20
24.8901
 10
297.214
 20
24.8584
 10
297.237
 20
24.8626
 10
297.241
 20
24.886
 10
297.21
 20
24.8998
 10
297.2
 20
24.8998
  0
LWPOLYLINE
  5
7C
100
AcDbEntity
  8
0
  6
ByLayer
 62
    5
370
   -1
100
AcDbPolyline
 90
   29
 70
    1
 43
0
 10
306.301
 20
24.8998
 10
303.4
 20
24.8998
 10
303.389
 20
24.8998
 10
303.357
 20
24.886
 10
303.361
 20
24.8626
 10
303.385
 20
24.8584
 10
303.4
 20
24.8901
 10
303.4
 20
24.8998
 10
303.4
 20
27.6999
 10
303.4
 20
27.711
 10
303.385
 20
27.7427
 10
303.361
 20
27.7385
 10
303.357
 20
27.7151
 10
303.389
 20
27.6999
 10
303.4
 20
27.6999
 10
309.2
 20
27.6999
 10
309.21
 20
27.6999
 10
309.241
 20
27.7151
 10
309.237
 20
27.7385
 10
309.214
 20
27.7427
 10
309.2
 20
27.711
 10
309.2
 20
27.6999
 10
309.2
 20
24.8998
 10
309.2
 20
24.8901
 10
309.214
 20
24.8584
 10
309.237
 20
24.8626
 10
309.241
 20
24.886
 10
309.21
 20
24.8998
 10
309.2
 20
24.8998
  0
LWPOLYLINE
  5
7D
100
AcDbEntity
  8
0
  6
ByLayer
 62
    5
370
   -1
100
AcDbPolyline
 90
   29
 70
    1
 43
0
 10
318.301
 20
24.8998
 10
315.4
 20
24.8998
 10
315.389
 20
24.8998
 10
315.357
 20
24.886
 10
315.363
 20
24.8626
 10
315.385
 20
24.8584
 10
315.4
 20
24.8901
 10
315.4
 20
24.8998
 10
315.4
 20
27.6999
 10
315.4
 20
27.711
 10
315.385
 20
27.7427
 10
315.363
 20
27.7385
 10
315.357
 20
27.7151
 10
315.389
 20
27.6999
 10
315.4
 20
27.6999
 10
321.2
 20
27.6999
 10
321.21
 20
27.6999
 10
321.241
 20
27.7151
 10
321.237
 20
27.7385
 10
321.214
 20
27.7427
 10
321.2
 20
27.711
 10
321.2
 20
27.6999
 10
321.2
 20
24.8998
 10
321.2
 20
24.8901
 10
321.214
 20
24.8584
 10
321.237
 20
24.8626
 10
321.241
 20
24.886
 10
321.21
 20
24.8998
 10
321.2
 20
24.8998
  0
LWPOLYLINE
  5
7E
100
AcDbEntity
  8
0
  6
ByLayer
 62
    5
370
   -1
100
AcDbPolyline
 90
   29
 70
    1
 43
0
 10
330.299
 20
24.8998
 10
327.4
 20
24.8998
 10
327.389
 20
24.8998
 10
327.357
 20
24.886
 10
327.363
 20
24.8626
 10
327.385
 20
24.8584
 10
327.4
 20
24.8901
 10
327.4
 20
24.8998
 10
327.4
 20
27.6999
 10
327.4
 20
27.711
 10
327.385
 20
27.7427
 10
327.363
 20
27.7385
 10
327.357
 20
27.7151
 10
327.389
 20
27.6999
 10
327.4
 20
27.6999
 10
333.2
 20
27.6999
 10
333.21
 20
27.6999
 10
333.241
 20
27.7151
 10
333.237
 20
27.7385
 10
333.214
 20
27.7427
 10
333.2
 20
27.711
 10
333.2
 20
27.6999
 10
333.2
 20
24.8998
 10
333.2
 20
24.8901
 10
333.214
 20
24.8584
 10
333.237
 20
24.8626
 10
333.241
 20
24.886
 10
333.21
 20
24.8998
 10
333.2
 20
24.8998
  0
LWPOLYLINE
  5
7F
100
AcDbEntity
  8
0
  6
ByLayer
 62
    5
370
   -1
100
AcDbPolyline
 90
   29
 70
    1
 43
0
 10
342.301
 20
24.8998
 10
339.4
 20
24.8998
 10
339.389
 20
24.8998
 10
339.357
 20
24.886
 10
339.363
 20
24.8626
 10
339.385
 20
24.8584
 10
339.4
 20
24.8901
 10
339.4
 20
24.8998
 10
339.4
 20
27.6999
 10
339.4
 20
27.711
 10
339.385
 20
27.7427
 10
339.363
 20
27.7385
 10
339.357
 20
27.7151
 10
339.389
 20
27.6999
 10
339.4
 20
27.6999
 10
345.2
 20
27.6999
 10
345.21
 20
27.6999
 10
345.241
 20
27.7151
 10
345.237
 20
27.7385
 10
345.214
 20
27.7427
 10
345.2
 20
27.711
 10
345.2
 20
27.6999
 10
345.2
 20
24.8998
 10
345.2
 20
24.8901
 10
345.214
 20
24.8584
 10
345.237
 20
24.8626
 10
345.241
 20
24.886
 10
345.21
 20
24.8998
 10
345.2
 20
24.8998
  0
LWPOLYLINE
  5
80
100
AcDbEntity
  8
0
  6
ByLayer
 62
    5
370
   -1
100
AcDbPolyline
 90
   29
 70
    1
 43
0
 10
354.302
 20
24.8998
 10
351.4
 20
24.8998
 10
351.389
 20
24.8998
 10
351.357
 20
24.886
 10
351.362
 20
24.8626
 10
351.385
 20
24.8584
 10
351.4
 20
24.8901
 10
351.4
 20
24.8998
 10
351.4
 20
27.6999
 10
351.4
 20
27.711
 10
351.385
 20
27.7427
 10
351.362
 20
27.7385
 10
351.357
 20
27.7151
 10
351.389
 20
27.6999
 10
351.4
 20
27.6999
 10
357.202
 20
27.6999
 10
357.209
 20
27.6999
 10
357.24
 20
27.7151
 10
357.237
 20
27.7385
 10
357.212
 20
27.7427
 10
357.202
 20
27.711
 10
357.202
 20
27.6999
 10
357.202
 20
24.8998
 10
357.202
 20
24.8901
 10
357.212
 20
24.8584
 10
357.237
 20
24.8626
 10
357.24
 20
24.886
 10
357.209
 20
24.8998
 10
357.202
 20
24.8998
  0
LWPOLYLINE
  5
81
100
AcDbEntity
  8
0
  6
ByLayer
 62
    5
370
   -1
100
AcDbPolyline
 90
   29
 70
    1
 43
0
 10
366.3
 20
24.8998
 10
363.4
 20
24.8998
 10
363.389
 20
24.8998
 10
363.358
 20
24.886
 10
363.361
 20
24.8626
 10
363.386
 20
24.8584
 10
363.4
 20
24.8901
 10
363.4
 20
24.8998
 10
363.4
 20
27.6999
 10
363.4
 20
27.711
 10
363.386
 20
27.7427
 10
363.361
 20
27.7385
 10
363.358
 20
27.7151
 10
363.389
 20
27.6999
 10
363.4
 20
27.6999
 10
369.2
 20
27.6999
 10
369.21
 20
27.6999
 10
369.242
 20
27.7151
 10
369.238
 20
27.7385
 10
369.214
 20
27.7427
 10
369.2
 20
27.711
 10
369.2
 20
27.6999
 10
369.2
 20
24.8998
 10
369.2
 20
24.8901
 10
369.214
 20
24.8584
 10
369.238
 20
24.8626
 10
369.242
 20
24.886
 10
369.21
 20
24.8998
 10
369.2
 20
24.8998
  0
LWPOLYLINE
  5
82
100
AcDbEntity
  8
0
  6
ByLayer
 62
    5
370
   -1
100
AcDbPolyline
 90
   29
 70
    1
 43
0
 10
378.301
 20
24.8998
 10
375.401
 20
24.8998
 10
375.387
 20
24.8998
 10
375.356
 20
24.886
 10
375.363
 20
24.8626
 10
375.384
 20
24.8584
 10
375.401
 20
24.8901
 10
375.401
 20
24.8998
 10
375.401
 20
27.6999
 10
375.401
 20
27.711
 10
375.384
 20
27.7427
 10
375.363
 20
27.7385
 10
375.356
 20
27.7151
 10
375.387
 20
27.6999
 10
375.401
 20
27.6999
 10
381.201
 20
27.6999
 10
381.208
 20
27.6999
 10
381.24
 20
27.7151
 10
381.236
 20
27.7385
 10
381.215
 20
27.7427
 10
381.201
 20
27.711
 10
381.201
 20
27.6999
 10
381.201
 20
24.8998
 10
381.201
 20
24.8901
 10
381.215
 20
24.8584
 10
381.236
 20
24.8626
 10
381.24
 20
24.886
 10
381.208
 20
24.8998
 10
381.201
 20
24.8998
  0
LWPOLYLINE
  5
83
100
AcDbEntity
  8
0
  6
ByLayer
 62
    5
370
   -1
100
AcDbPolyline
 90
   29
 70
    1
 43
0
 10
390.299
 20
24.8998
 10
387.399
 20
24.8998
 10
387.389
 20
24.8998
 10
387.357
 20
24.886
 10
387.364
 20
24.8626
 10
387.385
 20
24.8584
 10
387.399
 20
24.8901
 10
387.399
 20
24.8998
 10
387.399
 20
27.6999
 10
387.399
 20
27.711
 10
387.385
 20
27.7427
 10
387.364
 20
27.7385
 10
387.357
 20
27.7151
 10
387.389
 20
27.6999
 10
387.399
 20
27.6999
 10
393.199
 20
27.6999
 10
393.21
 20
27.6999
 10
393.241
 20
27.7151
 10
393.238
 20
27.7385
 10
393.213
 20
27.7427
 10
393.199
 20
27.711
 10
393.199
 20
27.6999
 10
393.199
 20
24.8998
 10
393.199
 20
24.8901
 10
393.213
 20
24.8584
 10
393.238
 20
24.8626
 10
393.241
 20
24.886
 10
393.21
 20
24.8998
 10
393.199
 20
24.8998
  0
LWPOLYLINE
  5
84
100
AcDbEntity
  8
0
  6
ByLayer
 62
    5
370
   -1
100
AcDbPolyline
 90
   29
 70
    1
 43
0
 10
402.301
 20
24.8998
 10
399.401
 20
24.8998
 10
399.39
 20
24.8998
 10
399.359
 20
24.886
 10
399.362
 20
24.8626
 10
399.383
 20
24.8584
 10
399.401
 20
24.8901
 10
399.401
 20
24.8998
 10
399.401
 20
27.6999
 10
399.401
 20
27.711
 10
399.383
 20
27.7427
 10
399.362
 20
27.7385
 10
399.359
 20
27.7151
 10
399.39
 20
27.6999
 10
399.401
 20
27.6999
 10
405.201
 20
27.6999
 10
405.211
 20
27.6999
 10
405.239
 20
27.7151
 10
405.236
 20
27.7385
 10
405.215
 20
27.7427
 10
405.201
 20
27.711
 10
405.201
 20
27.6999
 10
405.201
 20
24.8998
 10
405.201
 20
24.8901
 10
405.215
 20
24.8584
 10
405.236
 20
24.8626
 10
405.239
 20
24.886
 10
405.211
 20
24.8998
 10
405.201
 20
24.8998
  0
LWPOLYLINE
  5
85
100
AcDbEntity
  8
0
  6
ByLayer
 62
    5
370
   -1
100
AcDbPolyline
 90
   29
 70
    1
 43
0
 10
414.299
 20
24.8998
 10
411.399
 20
24.8998
 10
411.388
 20
24.8998
 10
411.357
 20
24.886
 10
411.364
 20
24.8626
 10
411.385
 20
24.8584
 10
411.399
 20
24.8901
 10
411.399
 20
24.8998
 10
411.399
 20
27.6999
 10
411.399
 20
27.711
 10
411.385
 20
27.7427
 10
411.364
 20
27.7385
 10
411.357
 20
27.7151
 10
411.388
 20
27.6999
 10
411.399
 20
27.6999
 10
417.199
 20
27.6999
 10
417.209
 20
27.6999
 10
417.241
 20
27.7151
 10
417.237
 20
27.7385
 10
417.213
 20
27.7427
 10
417.199
 20
27.711
 10
417.199
 20
27.6999
 10
417.199
 20
24.8998
 10
417.199
 20
24.8901
 10
417.213
 20
24.8584
 10
417.237
 20
24.8626
 10
417.241
 20
24.886
 10
417.209
 20
24.8998
 10
417.199
 20
24.8998
  0
LWPOLYLINE
  5
86
100
AcDbEntity
  8
0
  6
ByLayer
 62
    5
370
   -1
100
AcDbPolyline
 90
   29
 70
    1
 43
0
 10
426.3
 20
24.8998
 10
423.4
 20
24.8998
 10
423.39
 20
24.8998
 10
423.358
 20
24.886
 10
423.362
 20
24.8626
 10
423.383
 20
24.8584
 10
423.4
 20
24.8901
 10
423.4
 20
24.8998
 10
423.4
 20
27.6999
 10
423.4
 20
27.711
 10
423.383
 20
27.7427
 10
423.362
 20
27.7385
 10
423.358
 20
27.7151
 10
423.39
 20
27.6999
 10
423.4
 20
27.6999
 10
429.2
 20
27.6999
 10
429.211
 20
27.6999
 10
429.242
 20
27.7151
 10
429.235
 20
27.7385
 10
429.214
 20
27.7427
 10
429.2
 20
27.711
 10
429.2
 20
27.6999
 10
429.2
 20
24.8998
 10
429.2
 20
24.8901
 10
429.214
 20
24.8584
 10
429.235
 20
24.8626
 10
429.242
 20
24.886
 10
429.211
 20
24.8998
 10
429.2
 20
24.8998
  0
LWPOLYLINE
  5
87
100
AcDbEntity
  8
0
  6
ByLayer
 62
    0
370
   -1
100
AcDbPolyline
 90
   68
 70
    1
 43
0
 10
269.799
 20
21.7
 10
438.799
 20
21.7
 10
438.817
 20
21.7
 10
438.87
 20
21.7303
 10
438.901
 20
21.784
 10
438.901
 20
21.8006
 10
438.901
 20
28.7004
 10
438.901
 20
28.7114
 10
438.884
 20
28.7431
 10
438.863
 20
28.7376
 10
438.856
 20
28.7155
 10
438.887
 20
28.7004
 10
438.901
 20
28.7004
 10
441.801
 20
28.7004
 10
441.815
 20
28.7004
 10
441.872
 20
28.7293
 10
441.9
 20
28.7831
 10
441.9
 20
28.7996
 10
441.9
 20
34.7996
 10
441.9
 20
34.8175
 10
441.872
 20
34.8713
 10
441.815
 20
34.9002
 10
441.801
 20
34.9002
 10
438.901
 20
34.9002
 10
438.887
 20
34.9002
 10
438.856
 20
34.8864
 10
438.863
 20
34.863
 10
438.884
 20
34.8589
 10
438.901
 20
34.8905
 10
438.901
 20
34.9002
 10
438.901
 20
41.7999
 10
438.901
 20
41.8179
 10
438.87
 20
41.8715
 10
438.817
 20
41.9005
 10
438.799
 20
41.9005
 10
269.799
 20
41.9005
 10
269.781
 20
41.9005
 10
269.729
 20
41.8715
 10
269.7
 20
41.8179
 10
269.7
 20
41.7999
 10
269.7
 20
34.9002
 10
269.7
 20
34.8905
 10
269.714
 20
34.8589
 10
269.737
 20
34.863
 10
269.741
 20
34.8864
 10
269.71
 20
34.9002
 10
269.7
 20
34.9002
 10
266.799
 20
34.9002
 10
266.781
 20
34.9002
 10
266.729
 20
34.8713
 10
266.7
 20
34.8175
 10
266.7
 20
34.7996
 10
266.7
 20
28.7996
 10
266.7
 20
28.7831
 10
266.729
 20
28.7293
 10
266.781
 20
28.7004
 10
266.799
 20
28.7004
 10
269.7
 20
28.7004
 10
269.71
 20
28.7004
 10
269.741
 20
28.7155
 10
269.737
 20
28.7376
 10
269.714
 20
28.7431
 10
269.7
 20
28.7114
 10
269.7
 20
28.7004
 10
269.7
 20
21.8006
 10
269.7
 20
21.784
 10
269.729
 20
21.7303
 10
269.781
 20
21.7
  0
LWPOLYLINE
  5
88
100
AcDbEntity
  8
0
  6
ByLayer
 62
    5
370
   -1
100
AcDbPolyline
 90
   29
 70
    1
 43
0
 10
282.299
 20
46.5998
 10
279.4
 20
46.5998
 10
279.389
 20
46.5998
 10
279.357
 20
46.5861
 10
279.363
 20
46.5624
 10
279.385
 20
46.5586
 10
279.4
 20
46.5899
 10
279.4
 20
46.5998
 10
279.4
 20
49.3998
 10
279.4
 20
49.4111
 10
279.385
 20
49.4425
 10
279.363
 20
49.4386
 10
279.357
 20
49.415
 10
279.389
 20
49.3998
 10
279.4
 20
49.3998
 10
285.2
 20
49.3998
 10
285.21
 20
49.3998
 10
285.242
 20
49.415
 10
285.237
 20
49.4386
 10
285.214
 20
49.4425
 10
285.2
 20
49.4111
 10
285.2
 20
49.3998
 10
285.2
 20
46.5998
 10
285.2
 20
46.5899
 10
285.214
 20
46.5586
 10
285.237
 20
46.5624
 10
285.242
 20
46.5861
 10
285.21
 20
46.5998
 10
285.2
 20
46.5998
  0
LWPOLYLINE
  5
89
100
AcDbEntity
  8
0
  6
ByLayer
 62
    5
370
   -1
100
AcDbPolyline
 90
   29
 70
    1
 43
0
 10
294.299
 20
46.5998
 10
291.4
 20
46.5998
 10
291.389
 20
46.5998
 10
291.357
 20
46.5861
 10
291.361
 20
46.5624
 10
291.385
 20
46.5586
 10
291.4
 20
46.5899
 10
291.4
 20
46.5998
 10
291.4
 20
49.3998
 10
291.4
 20
49.4111
 10
291.385
 20
49.4425
 10
291.361
 20
49.4386
 10
291.357
 20
49.415
 10
291.389
 20
49.3998
 10
291.4
 20
49.3998
 10
297.2
 20
49.3998
 10
297.21
 20
49.3998
 10
297.241
 20
49.415
 10
297.237
 20
49.4386
 10
297.214
 20
49.4425
 10
297.2
 20
49.4111
 10
297.2
 20
49.3998
 10
297.2
 20
46.5998
 10
297.2
 20
46.5899
 10
297.214
 20
46.5586
 10
297.237
 20
46.5624
 10
297.241
 20
46.5861
 10
297.21
 20
46.5998
 10
297.2
 20
46.5998
  0
LWPOLYLINE
  5
8A
100
AcDbEntity
  8
0
  6
ByLayer
 62
    5
370
   -1
100
AcDbPolyline
 90
   29
 70
    1
 43
0
 10
306.301
 20
46.5998
 10
303.4
 20
46.5998
 10
303.389
 20
46.5998
 10
303.357
 20
46.5861
 10
303.361
 20
46.5624
 10
303.385
 20
46.5586
 10
303.4
 20
46.5899
 10
303.4
 20
46.5998
 10
303.4
 20
49.3998
 10
303.4
 20
49.4111
 10
303.385
 20
49.4425
 10
303.361
 20
49.4386
 10
303.357
 20
49.415
 10
303.389
 20
49.3998
 10
303.4
 20
49.3998
 10
309.2
 20
49.3998
 10
309.21
 20
49.3998
 10
309.241
 20
49.415
 10
309.237
 20
49.4386
 10
309.214
 20
49.4425
 10
309.2
 20
49.4111
 10
309.2
 20
49.3998
 10
309.2
 20
46.5998
 10
309.2
 20
46.5899
 10
309.214
 20
46.5586
 10
309.237
 20
46.5624
 10
309.241
 20
46.5861
 10
309.21
 20
46.5998
 10
309.2
 20
46.5998
  0
LWPOLYLINE
  5
8B
100
AcDbEntity
  8
0
  6
ByLayer
 62
    5
370
   -1
100
AcDbPolyline
 90
   29
 70
    1
 43
0
 10
318.301
 20
46.5998
 10
315.4
 20
46.5998
 10
315.389
 20
46.5998
 10
315.357
 20
46.5861
 10
315.363
 20
46.5624
 10
315.385
 20
46.5586
 10
315.4
 20
46.5899
 10
315.4
 20
46.5998
 10
315.4
 20
49.3998
 10
315.4
 20
49.4111
 10
315.385
 20
49.4425
 10
315.363
 20
49.4386
 10
315.357
 20
49.415
 10
315.389
 20
49.3998
 10
315.4
 20
49.3998
 10
321.2
 20
49.3998
 10
321.21
 20
49.3998
 10
321.241
 20
49.415
 10
321.237
 20
49.4386
 10
321.214
 20
49.4425
 10
321.2
 20
49.4111
 10
321.2
 20
49.3998
 10
321.2
 20
46.5998
 10
321.2
 20
46.5899
 10
321.214
 20
46.5586
 10
321.237
 20
46.5624
 10
321.241
 20
46.5861
 10
321.21
 20
46.5998
 10
321.2
 20
46.5998
  0
LWPOLYLINE
  5
8C
100
AcDbEntity
  8
0
  6
ByLayer
 62
    5
370
   -1
100
AcDbPolyline
 90
   29
 70
    1
 43
0
 10
330.299
 20
46.5998
 10
327.4
 20
46.5998
 10
327.389
 20
46.5998
 10
327.357
 20
46.5861
 10
327.363
 20
46.5624
 10
327.385
 20
46.5586
 10
327.4
 20
46.5899
 10
327.4
 20
46.5998
 10
327.4
 20
49.3998
 10
327.4
 20
49.4111
 10
327.385
 20
49.4425
 10
327.363
 20
49.4386
 10
327.357
 20
49.415
 10
327.389
 20
49.3998
 10
327.4
 20
49.3998
 10
333.2
 20
49.3998
 10
333.21
 20
49.3998
 10
333.241
 20
49.415
 10
333.237
 20
49.4386
 10
333.214
 20
49.4425
 10
333.2
 20
49.4111
 10
333.2
 20
49.3998
 10
333.2
 20
46.5998
 10
333.2
 20
46.5899
 10
333.214
 20
46.5586
 10
333.237
 20
46.5624
 10
333.241
 20
46.5861
 10
333.21
 20
46.5998
 10
333.2
 20
46.5998
  0
LWPOLYLINE
  5
8D
100
AcDbEntity
  8
0
  6
ByLayer
 62
    5
370
   -1
100
AcDbPolyline
 90
   29
 70
    1
 43
0
 10
342.301
 20
46.5998
 10
339.4
 20
46.5998
 10
339.389
 20
46.5998
 10
339.357
 20
46.5861
 10
339.363
 20
46.5624
 10
339.385
 20
46.5586
 10
339.4
 20
46.5899
 10
339.4
 20
46.5998
 10
339.4
 20
49.3998
 10
339.4
 20
49.4111
 10
339.385
 20
49.4425
 10
339.363
 20
49.4386
 10
339.357
 20
49.415
 10
339.389
 20
49.3998
 10
339.4
 20
49.3998
 10
345.2
 20
49.3998
 10
345.21
 20
49.3998
 10
345.241
 20
49.415
 10
345.237
 20
49.4386
 10
345.214
 20
49.4425
 10
345.2
 20
49.4111
 10
345.2
 20
49.3998
 10
345.2
 20
46.5998
 10
345.2
 20
46.5899
 10
345.214
 20
46.5586
 10
345.237
 20
46.5624
 10
345.241
 20
46.5861
 10
345.21
 20
46.5998
 10
345.2
 20
46.5998
  0
LWPOLYLINE
  5
8E
100
AcDbEntity
  8
0
  6
ByLayer
 62
    5
370
   -1
100
AcDbPolyline
 90
   29
 70
    1
 43
0
 10
354.302
 20
46.5998
 10
351.4
 20
46.5998
 10
351.389
 20
46.5998
 10
351.357
 20
46.5861
 10
351.362
 20
46.5624
 10
351.385
 20
46.5586
 10
351.4
 20
46.5899
 10
351.4
 20
46.5998
 10
351.4
 20
49.3998
 10
351.4
 20
49.4111
 10
351.385
 20
49.4425
 10
351.362
 20
49.4386
 10
351.357
 20
49.415
 10
351.389
 20
49.3998
 10
351.4
 20
49.3998
 10
357.202
 20
49.3998
 10
357.209
 20
49.3998
 10
357.24
 20
49.415
 10
357.237
 20
49.4386
 10
357.212
 20
49.4425
 10
357.202
 20
49.4111
 10
357.202
 20
49.3998
 10
357.202
 20
46.5998
 10
357.202
 20
46.5899
 10
357.212
 20
46.5586
 10
357.237
 20
46.5624
 10
357.24
 20
46.5861
 10
357.209
 20
46.5998
 10
357.202
 20
46.5998
  0
LWPOLYLINE
  5
8F
100
AcDbEntity
  8
0
  6
ByLayer
 62
    5
370
   -1
100
AcDbPolyline
 90
   29
 70
    1
 43
0
 10
366.3
 20
46.5998
 10
363.4
 20
46.5998
 10
363.389
 20
46.5998
 10
363.358
 20
46.5861
 10
363.361
 20
46.5624
 10
363.386
 20
46.5586
 10
363.4
 20
46.5899
 10
363.4
 20
46.5998
 10
363.4
 20
49.3998
 10
363.4
 20
49.4111
 10
363.386
 20
49.4425
 10
363.361
 20
49.4386
 10
363.358
 20
49.415
 10
363.389
 20
49.3998
 10
363.4
 20
49.3998
 10
369.2
 20
49.3998
 10
369.21
 20
49.3998
 10
369.242
 20
49.415
 10
369.238
 20
49.4386
 10
369.214
 20
49.4425
 10
369.2
 20
49.4111
 10
369.2
 20
49.3998
 10
369.2
 20
46.5998
 10
369.2
 20
46.5899
 10
369.214
 20
46.5586
 10
369.238
 20
46.5624
 10
369.242
 20
46.5861
 10
369.21
 20
46.5998
 10
369.2
 20
46.5998
  0
LWPOLYLINE
  5
90
100
AcDbEntity
  8
0
  6
ByLayer
 62
    5
370
   -1
100
AcDbPolyline
 90
   29
 70
    1
 43
0
 10
378.301
 20
46.5998
 10
375.401
 20
46.5998
 10
375.387
 20
46.5998
 10
375.356
 20
46.5861
 10
375.363
 20
46.5624
 10
375.384
 20
46.5586
 10
375.401
 20
46.5899
 10
375.401
 20
46.5998
 10
375.401
 20
49.3998
 10
375.401
 20
49.4111
 10
375.384
 20
49.4425
 10
375.363
 20
49.4386
 10
375.356
 20
49.415
 10
375.387
 20
49.3998
 10
375.401
 20
49.3998
 10
381.201
 20
49.3998
 10
381.208
 20
49.3998
 10
381.24
 20
49.415
 10
381.236
 20
49.4386
 10
381.215
 20
49.4425
 10
381.201
 20
49.4111
 10
381.201
 20
49.3998
 10
381.201
 20
46.5998
 10
381.201
 20
46.5899
 10
381.215
 20
46.5586
 10
381.236
 20
46.5624
 10
381.24
 20
46.5861
 10
381.208
 20
46.5998
 10
381.201
 20
46.5998
  0
LWPOLYLINE
  5
91
100
AcDbEntity
  8
0
  6
ByLayer
 62
    5
370
   -1
100
AcDbPolyline
 90
   29
 70
    1
 43
0
 10
390.299
 20
46.5998
 10
387.399
 20
46.5998
 10
387.389
 20
46.5998
 10
387.357
 20
46.5861
 10
387.364
 20
46.5624
 10
387.385
 20
46.5586
 10
387.399
 20
46.5899
 10
387.399
 20
46.5998
 10
387.399
 20
49.3998
 10
387.399
 20
49.4111
 10
387.385
 20
49.4425
 10
387.364
 20
49.4386
 10
387.357
 20
49.415
 10
387.389
 20
49.3998
 10
387.399
 20
49.3998
 10
393.199
 20
49.3998
 10
393.21
 20
49.3998
 10
393.241
 20
49.415
 10
393.238
 20
49.4386
 10
393.213
 20
49.4425
 10
393.199
 20
49.4111
 10
393.199
 20
49.3998
 10
393.199
 20
46.5998
 10
393.199
 20
46.5899
 10
393.213
 20
46.5586
 10
393.238
 20
46.5624
 10
393.241
 20
46.5861
 10
393.21
 20
46.5998
 10
393.199
 20
46.5998
  0
LWPOLYLINE
  5
92
100
AcDbEntity
  8
0
  6
ByLayer
 62
    5
370
   -1
100
AcDbPolyline
 90
   29
 70
    1
 43
0
 10
402.301
 20
46.5998
 10
399.401
 20
46.5998
 10
399.39
 20
46.5998
 10
399.359
 20
46.5861
 10
399.362
 20
46.5624
 10
399.383
 20
46.5586
 10
399.401
 20
46.5899
 10
399.401
 20
46.5998
 10
399.401
 20
49.3998
 10
399.401
 20
49.4111
 10
399.383
 20
49.4425
 10
399.362
 20
49.4386
 10
399.359
 20
49.415
 10
399.39
 20
49.3998
 10
399.401
 20
49.3998
 10
405.201
 20
49.3998
 10
405.211
 20
49.3998
 10
405.239
 20
49.415
 10
405.236
 20
49.4386
 10
405.215
 20
49.4425
 10
405.201
 20
49.4111
 10
405.201
 20
49.3998
 10
405.201
 20
46.5998
 10
405.201
 20
46.5899
 10
405.215
 20
46.5586
 10
405.236
 20
46.5624
 10
405.239
 20
46.5861
 10
405.211
 20
46.5998
 10
405.201
 20
46.5998
  0
LWPOLYLINE
  5
93
100
AcDbEntity
  8
0
  6
ByLayer
 62
    5
370
   -1
100
AcDbPolyline
 90
   29
 70
    1
 43
0
 10
414.299
 20
46.5998
 10
411.399
 20
46.5998
 10
411.388
 20
46.5998
 10
411.357
 20
46.5861
 10
411.364
 20
46.5624
 10
411.385
 20
46.5586
 10
411.399
 20
46.5899
 10
411.399
 20
46.5998
 10
411.399
 20
49.3998
 10
411.399
 20
49.4111
 10
411.385
 20
49.4425
 10
411.364
 20
49.4386
 10
411.357
 20
49.415
 10
411.388
 20
49.3998
 10
411.399
 20
49.3998
 10
417.199
 20
49.3998
 10
417.209
 20
49.3998
 10
417.241
 20
49.415
 10
417.237
 20
49.4386
 10
417.213
 20
49.4425
 10
417.199
 20
49.4111
 10
417.199
 20
49.3998
 10
417.199
 20
46.5998
 10
417.199
 20
46.5899
 10
417.213
 20
46.5586
 10
417.237
 20
46.5624
 10
417.241
 20
46.5861
 10
417.209
 20
46.5998
 10
417.199
 20
46.5998
  0
LWPOLYLINE
  5
94
100
AcDbEntity
  8
0
  6
ByLayer
 62
    5
370
   -1
100
AcDbPolyline
 90
   29
 70
    1
 43
0
 10
426.3
 20
46.5998
 10
423.4
 20
46.5998
 10
423.39
 20
46.5998
 10
423.358
 20
46.5861
 10
423.362
 20
46.5624
 10
423.383
 20
46.5586
 10
423.4
 20
46.5899
 10
423.4
 20
46.5998
 10
423.4
 20
49.3998
 10
423.4
 20
49.4111
 10
423.383
 20
49.4425
 10
423.362
 20
49.4386
 10
423.358
 20
49.415
 10
423.39
 20
49.3998
 10
423.4
 20
49.3998
 10
429.2
 20
49.3998
 10
429.211
 20
49.3998
 10
429.242
 20
49.415
 10
429.235
 20
49.4386
 10
429.214
 20
49.4425
 10
429.2
 20
49.4111
 10
429.2
 20
49.3998
 10
429.2
 20
46.5998
 10
429.2
 20
46.5899
 10
429.214
 20
46.5586
 10
429.235
 20
46.5624
 10
429.242
 20
46.5861
 10
429.211
 20
46.5998
 10
429.2
 20
46.5998
  0
LWPOLYLINE
  5
95
100
AcDbEntity
  8
0
  6
ByLayer
 62
    0
370
   -1
100
AcDbPolyline
 90
   68
 70
    1
 43
0
 10
269.799
 20
43.3998
 10
438.799
 20
43.3998
 10
438.817
 20
43.3998
 10
438.87
 20
43.4301
 10
438.901
 20
43.4841
 10
438.901
 20
43.5007
 10
438.901
 20
50.4003
 10
438.901
 20
50.4112
 10
438.884
 20
50.443
 10
438.863
 20
50.4377
 10
438.856
 20
50.4155
 10
438.887
 20
50.4003
 10
438.901
 20
50.4003
 10
441.801
 20
50.4003
 10
441.815
 20
50.4003
 10
441.872
 20
50.4292
 10
441.9
 20
50.4832
 10
441.9
 20
50.4994
 10
441.9
 20
56.4995
 10
441.9
 20
56.5175
 10
441.872
 20
56.5711
 10
441.815
 20
56.6
 10
441.801
 20
56.6
 10
438.901
 20
56.6
 10
438.887
 20
56.6
 10
438.856
 20
56.5863
 10
438.863
 20
56.563
 10
438.884
 20
56.5587
 10
438.901
 20
56.5905
 10
438.901
 20
56.6
 10
438.901
 20
63.5
 10
438.901
 20
63.518
 10
438.87
 20
63.5702
 10
438.817
 20
63.5991
 10
438.799
 20
63.5991
 10
269.799
 20
63.5991
 10
269.781
 20
63.5991
 10
269.729
 20
63.5702
 10
269.7
 20
63.518
 10
269.7
 20
63.5
 10
269.7
 20
56.6
 10
269.7
 20
56.5905
 10
269.714
 20
56.5587
 10
269.737
 20
56.563
 10
269.741
 20
56.5863
 10
269.71
 20
56.6
 10
269.7
 20
56.6
 10
266.799
 20
56.6
 10
266.781
 20
56.6
 10
266.729
 20
56.5711
 10
266.7
 20
56.5175
 10
266.7
 20
56.4995
 10
266.7
 20
50.4994
 10
266.7
 20
50.4832
 10
266.729
 20
50.4292
 10
266.781
 20
50.4003
 10
266.799
 20
50.4003
 10
269.7
 20
50.4003
 10
269.71
 20
50.4003
 10
269.741
 20
50.4155
 10
269.737
 20
50.4377
 10
269.714
 20
50.443
 10
269.7
 20
50.4112
 10
269.7
 20
50.4003
 10
269.7
 20
43.5007
 10
269.7
 20
43.4841
 10
269.729
 20
43.4301
 10
269.781
 20
43.3998
  0
ENDSEC
  0
SECTION
  2
OBJECTS
  0
DICTIONARY
  5
C
330
0
100
AcDbDictionary
281
    1
  3
ACAD_GROUP
350
D
  0
DICTIONARY
  5
D
330
C
100
AcDbDictionary
281
    1
  0
PLOTSETTINGS
  5
96
100
AcDbPlotSettings
  6
1x1
 40
0
 41
0
 42
0
 43
0
  0
ENDSEC
  0
EOF
