999
dxfrw 0.6.3
  0
SECTION
  2
HEADER
  9
$ACADVER
  1
AC1021
  9
$DWGCODEPAGE
  3
ANSI_1252
  9
$INSBASE
 10
0
 20
0
 30
0
  9
$EXTMIN
 10
-50.9999999946693
 20
-51.14746697730477
 30
0
  9
$EXTMAX
 10
153.0000000053307
 20
51
 30
0
  9
$LIMMIN
 10
0
 20
0
  9
$LIMMAX
 10
420
 20
297
  9
$ORTHOMODE
 70
    0
  9
$REGENMODE
 70
    1
  9
$FILLMODE
 70
    1
  9
$QTEXTMODE
 70
    0
  9
$MIRRTEXT
 70
    0
  9
$LTSCALE
 40
1
  9
$ATTMODE
 70
    0
  9
$TEXTSIZE
 40
2.5
  9
$TRACEWID
 40
15.68
  9
$TEXTSTYLE
  7
STANDARD
  9
$CLAYER
  8
0
  9
$CELTYPE
  6
BYLAYER
  9
$CECOLOR
 62
  256
  9
$CELTSCALE
 40
1
  9
$DISPSILH
 70
    0
  9
$DIMSCALE
 40
2.5
  9
$DIMASZ
 40
2.5
  9
$DIMEXO
 40
0.625
  9
$DIMDLI
 40
3.75
  9
$DIMRND
 40
0
  9
$DIMDLE
 40
0
  9
$DIMEXE
 40
1.25
  9
$DIMTP
 40
0
  9
$DIMTM
 40
0
  9
$DIMTXT
 40
2.5
  9
$DIMCEN
 40
2.5
  9
$DIMTSZ
 40
0
  9
$DIMTOL
 70
    0
  9
$DIMLIM
 70
    0
  9
$DIMTIH
 70
    0
  9
$DIMTOH
 70
    0
  9
$DIMSE1
 70
    0
  9
$DIMSE2
 70
    0
  9
$DIMTAD
 70
    1
  9
$DIMZIN
 70
    8
  9
$DIMBLK
  1

  9
$DIMASO
 70
    1
  9
$DIMSHO
 70
    1
  9
$DIMPOST
  1

  9
$DIMAPOST
  1

  9
$DIMALT
 70
    0
  9
$DIMALTD
 70
    3
  9
$DIMALTF
 40
0.03937
  9
$DIMLFAC
 40
1
  9
$DIMTOFL
 70
    1
  9
$DIMTVP
 40
0
  9
$DIMTIX
 70
    0
  9
$DIMSOXD
 70
    0
  9
$DIMSAH
 70
    0
  9
$DIMBLK1
  1

  9
$DIMBLK2
  1

  9
$DIMSTYLE
  2
Standard
  9
$DIMCLRD
 70
    0
  9
$DIMCLRE
 70
    0
  9
$DIMCLRT
 70
    0
  9
$DIMTFAC
 40
1
  9
$DIMGAP
 40
0.625
  9
$DIMJUST
 70
    0
  9
$DIMSD1
 70
    0
  9
$DIMSD2
 70
    0
  9
$DIMTOLJ
 70
    0
  9
$DIMTZIN
 70
    8
  9
$DIMALTZ
 70
    0
  9
$DIMALTTZ
 70
    0
  9
$DIMUPT
 70
    0
  9
$DIMDEC
 70
    2
  9
$DIMTDEC
 70
    2
  9
$DIMALTU
 70
    2
  9
$DIMALTTD
 70
    3
  9
$DIMTXSTY
  7
STANDARD
  9
$DIMAUNIT
 70
    0
  9
$DIMADEC
 70
    0
  9
$DIMALTRND
 40
0
  9
$DIMAZIN
 70
    0
  9
$DIMDSEP
 70
   44
  9
$DIMATFIT
 70
    3
  9
$DIMFRAC
 70
    0
  9
$DIMLDRBLK
  1
STANDARD
  9
$DIMLUNIT
 70
    2
  9
$DIMLWD
 70
   -2
  9
$DIMLWE
 70
   -2
  9
$DIMTMOVE
 70
    0
  9
$DIMFXL
 40
1
  9
$DIMFXLON
 70
    0
  9
$DIMJOGANG
 40
0.7854
  9
$DIMTFILL
 70
    0
  9
$DIMTFILLCLR
 70
    0
  9
$DIMARCSYM
 70
    0
  9
$DIMLTYPE
  6

  9
$DIMLTEX1
  6

  9
$DIMLTEX2
  6

  9
$LUNITS
 70
    2
  9
$LUPREC
 70
    4
  9
$SKETCHINC
 40
1
  9
$FILLETRAD
 40
0
  9
$AUNITS
 70
    0
  9
$AUPREC
 70
    2
  9
$MENU
  1
.
  9
$ELEVATION
 40
0
  9
$PELEVATION
 40
0
  9
$THICKNESS
 40
0
  9
$LIMCHECK
 70
    0
  9
$CHAMFERA
 40
0
  9
$CHAMFERB
 40
0
  9
$CHAMFERC
 40
0
  9
$CHAMFERD
 40
0
  9
$SKPOLY
 70
    0
  9
$USRTIMER
 70
    1
  9
$ANGBASE
 50
0
  9
$ANGDIR
 70
    0
  9
$PDMODE
 70
   96
  9
$PDSIZE
 40
-2
  9
$PLINEWID
 40
0
  9
$SPLFRAME
 70
    0
  9
$SPLINETYPE
 70
    2
  9
$SPLINESEGS
 70
    8
  9
$HANDSEED
  5
20000
  9
$SURFTAB1
 70
    6
  9
$SURFTAB2
 70
    6
  9
$SURFTYPE
 70
    6
  9
$SURFU
 70
    6
  9
$SURFV
 70
    6
  9
$UCSBASE
  2

  9
$UCSNAME
  2

  9
$UCSORG
 10
0
 20
0
 30
0
  9
$UCSXDIR
 10
1
 20
0
 30
0
  9
$UCSYDIR
 10
0
 20
1
 30
0
  9
$UCSORTHOREF
  2

  9
$UCSORTHOVIEW
 70
    0
  9
$UCSORGTOP
 10
0
 20
0
 30
0
  9
$UCSORGBOTTOM
 10
0
 20
0
 30
0
  9
$UCSORGLEFT
 10
0
 20
0
 30
0
  9
$UCSORGRIGHT
 10
0
 20
0
 30
0
  9
$UCSORGFRONT
 10
0
 20
0
 30
0
  9
$UCSORGBACK
 10
0
 20
0
 30
0
  9
$PUCSBASE
  2

  9
$PUCSNAME
  2

  9
$PUCSORG
 10
0
 20
0
 30
0
  9
$PUCSXDIR
 10
1
 20
0
 30
0
  9
$PUCSYDIR
 10
0
 20
1
 30
0
  9
$PUCSORTHOREF
  2

  9
$PUCSORTHOVIEW
 70
    0
  9
$PUCSORGTOP
 10
0
 20
0
 30
0
  9
$PUCSORGBOTTOM
 10
0
 20
0
 30
0
  9
$PUCSORGLEFT
 10
0
 20
0
 30
0
  9
$PUCSORGRIGHT
 10
0
 20
0
 30
0
  9
$PUCSORGFRONT
 10
0
 20
0
 30
0
  9
$PUCSORGBACK
 10
0
 20
0
 30
0
  9
$USERI1
 70
    0
  9
$USERI2
 70
    0
  9
$USERI3
 70
    0
  9
$USERI4
 70
    0
  9
$USERI5
 70
    0
  9
$USERR1
 40
0
  9
$USERR2
 40
0
  9
$USERR3
 40
0
  9
$USERR4
 40
0
  9
$USERR5
 40
0
  9
$WORLDVIEW
 70
    1
  9
$SHADEDGE
 70
    3
  9
$SHADEDIF
 70
   70
  9
$TILEMODE
 70
    1
  9
$MAXACTVP
 70
   64
  9
$PINSBASE
 10
0
 20
0
 30
0
  9
$PLIMCHECK
 70
    0
  9
$PEXTMIN
 10
0
 20
0
 30
0
  9
$PEXTMAX
 10
0
 20
0
 30
0
  9
$SNAPSTYLE
 70
    0
  9
$PLIMMIN
 10
0
 20
0
  9
$PLIMMAX
 10
210
 20
297
  9
$UNITMODE
 70
    0
  9
$VISRETAIN
 70
    1
  9
$PLINEGEN
 70
    0
  9
$PSLTSCALE
 70
    1
  9
$TREEDEPTH
 70
 3020
  9
$CMLSTYLE
  2
Standard
  9
$CMLJUST
 70
    0
  9
$CMLSCALE
 40
20
  9
$PROXYGRAPHICS
 70
    1
  9
$MEASUREMENT
 70
    1
  9
$CELWEIGHT
370
   -1
  9
$ENDCAPS
280
    0
  9
$JOINSTYLE
280
    0
  9
$LWDISPLAY
290
    0
  9
$INSUNITS
 70
    4
  9
$HYPERLINKBASE
  1

  9
$STYLESHEET
  1

  9
$XEDIT
290
    1
  9
$CEPSNTYPE
380
    0
  9
$PSTYLEMODE
290
    1
  9
$EXTNAMES
290
    1
  9
$PSVPSCALE
 40
1
  9
$OLESTARTUP
290
    0
  9
$SORTENTS
280
  127
  9
$INDEXCTL
280
    0
  9
$HIDETEXT
280
    1
  9
$XCLIPFRAME
290
    0
  9
$HALOGAP
280
    0
  9
$OBSCOLOR
 70
  257
  9
$OBSLTYPE
280
    0
  9
$INTERSECTIONDISPLAY
280
    0
  9
$INTERSECTIONCOLOR
 70
  257
  9
$DIMASSOC
280
    1
  9
$PROJECTNAME
  1

  9
$CAMERADISPLAY
290
    0
  9
$LENSLENGTH
 40
50
  9
$CAMERAHEIGHT
 40
0
  9
$STEPSPERSEC
 40
2
  9
$STEPSIZE
 40
50
  9
$3DDWFPREC
 40
2
  9
$PSOLWIDTH
 40
5
  9
$PSOLHEIGHT
 40
80
  9
$LOFTANG1
 40
1.570796326794897
  9
$LOFTANG2
 40
1.570796326794897
  9
$LOFTMAG1
 40
0
  9
$LOFTMAG2
 40
0
  9
$LOFTPARAM
 70
    7
  9
$LOFTNORMALS
280
    1
  9
$LATITUDE
 40
1
  9
$LONGITUDE
 40
1
  9
$NORTHDIRECTION
 40
0
  9
$TIMEZONE
 70
-8000
  9
$LIGHTGLYPHDISPLAY
280
    1
  9
$TILEMODELIGHTSYNCH
280
    1
  9
$SOLIDHIST
280
    1
  9
$SHOWHIST
280
    1
  9
$DWFFRAME
280
    2
  9
$DGNFRAME
280
    0
  9
$REALWORLDSCALE
290
    1
  9
$INTERFERECOLOR
 62
    1
  9
$CSHADOW
280
    0
  9
$SHADOWPLANELOCATION
 40
0
  0
ENDSEC
  0
SECTION
  2
CLASSES
  0
ENDSEC
  0
SECTION
  2
TABLES
  0
TABLE
  2
VPORT
  5
8
330
0
100
AcDbSymbolTable
 70
    1
  0
VPORT
  5
31
330
2
100
AcDbSymbolTableRecord
100
AcDbViewportTableRecord
  2
*ACTIVE
 70
    0
 10
0
 20
0
 11
1
 21
1
 12
40.21751941117858
 22
-1.70807997499214
 13
0
 23
0
 14
10
 24
10
 15
10
 25
10
 16
0
 26
0
 36
1
 17
0
 27
0
 37
0
 40
48.94425528341115
 41
1.722081218274112
 42
50
 43
0
 44
0
 50
0
 51
0
 71
    0
 72
  100
 73
    1
 74
    3
 75
    0
 76
    1
 77
    0
 78
    0
281
    0
 65
    1
110
0
120
0
130
0
111
1
121
0
131
0
112
0
122
1
132
0
 79
    0
146
0
348
10020
 60
    7
 61
    5
292
1
282
    1
141
0
142
0
 63
  250
421
3358443
  0
ENDTAB
  0
TABLE
  2
LTYPE
  5
5
330
0
100
AcDbSymbolTable
 70
    4
  0
LTYPE
  5
14
330
5
100
AcDbSymbolTableRecord
100
AcDbLinetypeTableRecord
  2
ByBlock
 70
    0
  3

 72
   65
 73
    0
 40
0
  0
LTYPE
  5
15
330
5
100
AcDbSymbolTableRecord
100
AcDbLinetypeTableRecord
  2
ByLayer
 70
    0
  3

 72
   65
 73
    0
 40
0
  0
LTYPE
  5
16
330
5
100
AcDbSymbolTableRecord
100
AcDbLinetypeTableRecord
  2
Continuous
 70
    0
  3
Solid line
 72
   65
 73
    0
 40
0
  0
LTYPE
  5
32
330
5
100
AcDbSymbolTableRecord
100
AcDbLinetypeTableRecord
  2
DOT
 70
    0
  3
Dot . . . . . . . . . . . . . . . . . . . . . .
 72
   65
 73
    2
 40
6.35
 49
0
 74
    0
 49
-6.35
 74
    0
  0
LTYPE
  5
33
330
5
100
AcDbSymbolTableRecord
100
AcDbLinetypeTableRecord
  2
DOTTINY
 70
    0
  3
Dot (.15x) .....................................
 72
   65
 73
    2
 40
0.9525
 49
0
 74
    0
 49
-0.9525
 74
    0
  0
LTYPE
  5
34
330
5
100
AcDbSymbolTableRecord
100
AcDbLinetypeTableRecord
  2
DOT2
 70
    0
  3
Dot (.5x) .....................................
 72
   65
 73
    2
 40
3.175
 49
0
 74
    0
 49
-3.175
 74
    0
  0
LTYPE
  5
35
330
5
100
AcDbSymbolTableRecord
100
AcDbLinetypeTableRecord
  2
DOTX2
 70
    0
  3
Dot (2x) .  .  .  .  .  .  .  .  .  .  .  .  .
 72
   65
 73
    2
 40
12.7
 49
0
 74
    0
 49
-12.7
 74
    0
  0
LTYPE
  5
36
330
5
100
AcDbSymbolTableRecord
100
AcDbLinetypeTableRecord
  2
DASHED
 70
    0
  3
Dashed _ _ _ _ _ _ _ _ _ _ _ _ _ _ _ _ _
 72
   65
 73
    2
 40
19.05
 49
12.7
 74
    0
 49
-6.35
 74
    0
  0
LTYPE
  5
37
330
5
100
AcDbSymbolTableRecord
100
AcDbLinetypeTableRecord
  2
DASHEDTINY
 70
    0
  3
Dashed (.15x) _ _ _ _ _ _ _ _ _ _ _ _ _ _ _ _ _
 72
   65
 73
    2
 40
2.8575
 49
1.905
 74
    0
 49
-0.9525
 74
    0
  0
LTYPE
  5
38
330
5
100
AcDbSymbolTableRecord
100
AcDbLinetypeTableRecord
  2
DASHED2
 70
    0
  3
Dashed (.5x) _ _ _ _ _ _ _ _ _ _ _ _ _ _ _ _ _
 72
   65
 73
    2
 40
9.524999999999999
 49
6.35
 74
    0
 49
-3.175
 74
    0
  0
LTYPE
  5
39
330
5
100
AcDbSymbolTableRecord
100
AcDbLinetypeTableRecord
  2
DASHEDX2
 70
    0
  3
Dashed (2x) ____  ____  ____  ____  ____  ___
 72
   65
 73
    2
 40
38.09999999999999
 49
25.4
 74
    0
 49
-12.7
 74
    0
  0
LTYPE
  5
3A
330
5
100
AcDbSymbolTableRecord
100
AcDbLinetypeTableRecord
  2
DASHDOT
 70
    0
  3
Dash dot __ . __ . __ . __ . __ . __ . __ . __
 72
   65
 73
    4
 40
25.4
 49
12.7
 74
    0
 49
-6.35
 74
    0
 49
0
 74
    0
 49
-6.35
 74
    0
  0
LTYPE
  5
3B
330
5
100
AcDbSymbolTableRecord
100
AcDbLinetypeTableRecord
  2
DASHDOTTINY
 70
    0
  3
Dash dot (.15x) _._._._._._._._._._._._._._._.
 72
   65
 73
    4
 40
3.81
 49
1.905
 74
    0
 49
-0.9525
 74
    0
 49
0
 74
    0
 49
-0.9525
 74
    0
  0
LTYPE
  5
3C
330
5
100
AcDbSymbolTableRecord
100
AcDbLinetypeTableRecord
  2
DASHDOT2
 70
    0
  3
Dash dot (.5x) _._._._._._._._._._._._._._._.
 72
   65
 73
    4
 40
12.7
 49
6.35
 74
    0
 49
-3.175
 74
    0
 49
0
 74
    0
 49
-3.175
 74
    0
  0
LTYPE
  5
3D
330
5
100
AcDbSymbolTableRecord
100
AcDbLinetypeTableRecord
  2
DASHDOTX2
 70
    0
  3
Dash dot (2x) ____  .  ____  .  ____  .  ___
 72
   65
 73
    4
 40
50.8
 49
25.4
 74
    0
 49
-12.7
 74
    0
 49
0
 74
    0
 49
-12.7
 74
    0
  0
LTYPE
  5
3E
330
5
100
AcDbSymbolTableRecord
100
AcDbLinetypeTableRecord
  2
DIVIDE
 70
    0
  3
Divide ____ . . ____ . . ____ . . ____ . . ____
 72
   65
 73
    6
 40
31.75
 49
12.7
 74
    0
 49
-6.35
 74
    0
 49
0
 74
    0
 49
-6.35
 74
    0
 49
0
 74
    0
 49
-6.35
 74
    0
  0
LTYPE
  5
3F
330
5
100
AcDbSymbolTableRecord
100
AcDbLinetypeTableRecord
  2
DIVIDETINY
 70
    0
  3
Divide (.15x) __..__..__..__..__..__..__..__.._
 72
   65
 73
    6
 40
4.7625
 49
1.905
 74
    0
 49
-0.9525
 74
    0
 49
0
 74
    0
 49
-0.9525
 74
    0
 49
0
 74
    0
 49
-0.9525
 74
    0
  0
LTYPE
  5
40
330
5
100
AcDbSymbolTableRecord
100
AcDbLinetypeTableRecord
  2
DIVIDE2
 70
    0
  3
Divide (.5x) __..__..__..__..__..__..__..__.._
 72
   65
 73
    6
 40
15.875
 49
6.35
 74
    0
 49
-3.175
 74
    0
 49
0
 74
    0
 49
-3.175
 74
    0
 49
0
 74
    0
 49
-3.175
 74
    0
  0
LTYPE
  5
41
330
5
100
AcDbSymbolTableRecord
100
AcDbLinetypeTableRecord
  2
DIVIDEX2
 70
    0
  3
Divide (2x) ________  .  .  ________  .  .  _
 72
   65
 73
    6
 40
63.5
 49
25.4
 74
    0
 49
-12.7
 74
    0
 49
0
 74
    0
 49
-12.7
 74
    0
 49
0
 74
    0
 49
-12.7
 74
    0
  0
LTYPE
  5
42
330
5
100
AcDbSymbolTableRecord
100
AcDbLinetypeTableRecord
  2
BORDER
 70
    0
  3
Border __ __ . __ __ . __ __ . __ __ . __ __ .
 72
   65
 73
    6
 40
44.45
 49
12.7
 74
    0
 49
-6.35
 74
    0
 49
12.7
 74
    0
 49
-6.35
 74
    0
 49
0
 74
    0
 49
-6.35
 74
    0
  0
LTYPE
  5
43
330
5
100
AcDbSymbolTableRecord
100
AcDbLinetypeTableRecord
  2
BORDERTINY
 70
    0
  3
Border (.15x) __.__.__.__.__.__.__.__.__.__.__.
 72
   65
 73
    6
 40
6.6675
 49
1.905
 74
    0
 49
-0.9525
 74
    0
 49
1.905
 74
    0
 49
-0.9525
 74
    0
 49
0
 74
    0
 49
-0.9525
 74
    0
  0
LTYPE
  5
44
330
5
100
AcDbSymbolTableRecord
100
AcDbLinetypeTableRecord
  2
BORDER2
 70
    0
  3
Border (.5x) __.__.__.__.__.__.__.__.__.__.__.
 72
   65
 73
    6
 40
22.225
 49
6.35
 74
    0
 49
-3.175
 74
    0
 49
6.35
 74
    0
 49
-3.175
 74
    0
 49
0
 74
    0
 49
-3.175
 74
    0
  0
LTYPE
  5
45
330
5
100
AcDbSymbolTableRecord
100
AcDbLinetypeTableRecord
  2
BORDERX2
 70
    0
  3
Border (2x) ____  ____  .  ____  ____  .  ___
 72
   65
 73
    6
 40
88.89999999999999
 49
25.4
 74
    0
 49
-12.7
 74
    0
 49
25.4
 74
    0
 49
-12.7
 74
    0
 49
0
 74
    0
 49
-12.7
 74
    0
  0
LTYPE
  5
46
330
5
100
AcDbSymbolTableRecord
100
AcDbLinetypeTableRecord
  2
CENTER
 70
    0
  3
Center ____ _ ____ _ ____ _ ____ _ ____ _ ____
 72
   65
 73
    4
 40
50.8
 49
31.75
 74
    0
 49
-6.35
 74
    0
 49
6.35
 74
    0
 49
-6.35
 74
    0
  0
LTYPE
  5
47
330
5
100
AcDbSymbolTableRecord
100
AcDbLinetypeTableRecord
  2
CENTERTINY
 70
    0
  3
Center (.15x) ___ _ ___ _ ___ _ ___ _ ___ _ ___
 72
   65
 73
    4
 40
7.619999999999999
 49
4.7625
 74
    0
 49
-0.9525
 74
    0
 49
0.9525
 74
    0
 49
-0.9525
 74
    0
  0
LTYPE
  5
48
330
5
100
AcDbSymbolTableRecord
100
AcDbLinetypeTableRecord
  2
CENTER2
 70
    0
  3
Center (.5x) ___ _ ___ _ ___ _ ___ _ ___ _ ___
 72
   65
 73
    4
 40
28.575
 49
19.05
 74
    0
 49
-3.175
 74
    0
 49
3.175
 74
    0
 49
-3.175
 74
    0
  0
LTYPE
  5
49
330
5
100
AcDbSymbolTableRecord
100
AcDbLinetypeTableRecord
  2
CENTERX2
 70
    0
  3
Center (2x) ________  __  ________  __  _____
 72
   65
 73
    4
 40
101.6
 49
63.5
 74
    0
 49
-12.7
 74
    0
 49
12.7
 74
    0
 49
-12.7
 74
    0
  0
ENDTAB
  0
TABLE
  2
LAYER
  5
2
330
0
100
AcDbSymbolTable
 70
    1
  0
LAYER
  5
10
330
2
100
AcDbSymbolTableRecord
100
AcDbLayerTableRecord
  2
0
 70
    0
 62
    7
  6
CONTINUOUS
370
   -3
390
F
  0
ENDTAB
  0
TABLE
  2
STYLE
  5
3
330
0
100
AcDbSymbolTable
 70
    3
  0
STYLE
  5
4A
330
2
100
AcDbSymbolTableRecord
100
AcDbTextStyleTableRecord
  2
Standard
 70
    0
 40
0
 41
1
 50
0
 71
    0
 42
1
  3
txt
  4

  0
ENDTAB
  0
TABLE
  2
VIEW
  5
6
330
0
100
AcDbSymbolTable
 70
    0
  0
ENDTAB
  0
TABLE
  2
UCS
  5
7
330
0
100
AcDbSymbolTable
 70
    0
  0
ENDTAB
  0
TABLE
  2
APPID
  5
9
330
0
100
AcDbSymbolTable
 70
    1
  0
APPID
  5
12
330
9
100
AcDbSymbolTableRecord
100
AcDbRegAppTableRecord
  2
ACAD
 70
    0
  0
APPID
  5
4B
330
9
100
AcDbSymbolTableRecord
100
AcDbRegAppTableRecord
  2
LibreCad
 70
    0
  0
ENDTAB
  0
TABLE
  2
DIMSTYLE
  5
A
330
0
100
AcDbSymbolTable
 70
    1
100
AcDbDimStyleTable
 71
    1
  0
DIMSTYLE
105
4C
330
A
100
AcDbSymbolTableRecord
100
AcDbDimStyleTableRecord
  2
Standard
 70
    0
 40
1
 41
2.5
 42
0.625
 43
0.38
 44
1.25
 45
0
 46
0
 47
0
 48
0
 49
1
140
2.5
141
0.09
142
2.5
143
25.4
144
1
145
0
146
1
147
0.625
148
0
 71
    0
 72
    0
 73
    0
 74
    1
 75
    0
 76
    0
 77
    0
 78
    1
 79
    0
170
    0
171
    2
172
    0
173
    0
174
    0
175
    0
176
    0
177
    0
178
    0
179
    0
271
    2
272
    4
273
    2
274
    2
275
    0
276
    0
277
    2
278
    0
279
    0
280
    0
281
    0
282
    0
283
    1
284
    0
285
    0
286
    0
288
    0
289
    3
340
4A
  0
ENDTAB
  0
TABLE
  2
BLOCK_RECORD
  5
1
330
0
100
AcDbSymbolTable
 70
    2
  0
BLOCK_RECORD
  5
1F
330
1
100
AcDbSymbolTableRecord
100
AcDbBlockTableRecord
  2
*Model_Space
 70
    0
280
    1
281
    0
  0
BLOCK_RECORD
  5
1E
330
1
100
AcDbSymbolTableRecord
100
AcDbBlockTableRecord
  2
*Paper_Space
 70
    0
280
    1
281
    0
  0
BLOCK_RECORD
  5
4D
330
1
100
AcDbSymbolTableRecord
100
AcDbBlockTableRecord
  2
Carga Negativa
 70
    0
280
    1
281
    0
  0
ENDTAB
  0
ENDSEC
  0
SECTION
  2
BLOCKS
  0
BLOCK
  5
20
330
1F
100
AcDbEntity
  8
0
100
AcDbBlockBegin
  2
*Model_Space
 70
    0
 10
0
 20
0
 30
0
  3
*Model_Space
  1

  0
ENDBLK
  5
21
330
1F
100
AcDbEntity
  8
0
100
AcDbBlockEnd
  0
BLOCK
  5
1C
330
1B
100
AcDbEntity
  8
0
100
AcDbBlockBegin
  2
*Paper_Space
 70
    0
 10
0
 20
0
 30
0
  3
*Paper_Space
  1

  0
ENDBLK
  5
1D
330
1F
100
AcDbEntity
  8
0
100
AcDbBlockEnd
  0
BLOCK
  5
4E
330
4D
100
AcDbEntity
  8
0
100
AcDbBlockBegin
  2
Carga Negativa
 70
    0
 10
0
 20
0
  3
Carga Negativa
  1

  0
CIRCLE
  5
50
100
AcDbEntity
  8
0
  6
ByLayer
 62
  256
370
   -1
100
AcDbCircle
 10
0
 20
0
 40
51
  0
LINE
  5
51
100
AcDbEntity
  8
0
  6
ByLayer
 62
  256
370
   -1
100
AcDbLine
 10
40.35310001403616
 20
-0.4676290206507866
 11
49.00254892505394
 21
-3.452597545618706
  0
LINE
  5
52
100
AcDbEntity
  8
0
  6
ByLayer
 62
  256
370
   -1
100
AcDbLine
 10
49.00254892505394
 20
-3.452597545618706
 11
49.00254892505394
 21
-0.4676290206507866
  0
LINE
  5
53
100
AcDbEntity
  8
0
  6
ByLayer
 62
  256
370
   -1
100
AcDbLine
 10
49.00254892505394
 20
-0.4676290206507866
 11
49.70254892505392
 21
-0.4676290206507866
  0
LINE
  5
54
100
AcDbEntity
  8
0
  6
ByLayer
 62
  256
370
   -1
100
AcDbLine
 10
49.70254892505392
 20
0.5323709793492132
 11
49.00254892505394
 21
0.5323709793492132
  0
LINE
  5
55
100
AcDbEntity
  8
0
  6
ByLayer
 62
  256
370
   -1
100
AcDbLine
 10
49.00254892505394
 20
0.5323709793492132
 11
49.00254892505394
 21
3.397402454381252
  0
LINE
  5
56
100
AcDbEntity
  8
0
  6
ByLayer
 62
  256
370
   -1
100
AcDbLine
 10
49.00254892505394
 20
3.397402454381252
 11
40.7006378112629
 21
0.5323709793492132
  0
LINE
  5
57
100
AcDbEntity
  8
0
  6
ByLayer
 62
  256
370
   -1
100
AcDbLine
 10
-40.69656062371564
 20
0.5323709793492132
 11
-48.99745107495476
 21
3.382366809471319
  0
LINE
  5
58
100
AcDbEntity
  8
0
  6
ByLayer
 62
  256
370
   -1
100
AcDbLine
 10
-48.99745107495476
 20
3.382366809471319
 11
-48.99745107495476
 21
0.5323709793492137
  0
LINE
  5
59
100
AcDbEntity
  8
0
  6
ByLayer
 62
  256
370
   -1
100
AcDbLine
 10
-48.99745107495476
 20
0.5323709793492137
 11
-49.69745107494607
 21
0.5323709793492132
  0
LINE
  5
5A
100
AcDbEntity
  8
0
  6
ByLayer
 62
  256
370
   -1
100
AcDbLine
 10
-49.69745107494607
 20
-0.4676290206507866
 11
-48.99745107495477
 21
-0.4676290206507866
  0
LINE
  5
5B
100
AcDbEntity
  8
0
  6
ByLayer
 62
  256
370
   -1
100
AcDbLine
 10
-48.99745107495477
 20
-0.4676290206507866
 11
-48.99745107495477
 21
-3.467633190528618
  0
LINE
  5
5C
100
AcDbEntity
  8
0
  6
ByLayer
 62
  256
370
   -1
100
AcDbLine
 10
-48.99745107495477
 20
-3.467633190528618
 11
-40.21687849045087
 21
-0.4676290206507866
  0
LINE
  5
5D
100
AcDbEntity
  8
0
  6
ByLayer
 62
  256
370
   -1
100
AcDbLine
 10
-32.92120912894968
 20
-23.34063724776423
 11
-41.67328076747431
 21
-26.00976549374432
  0
LINE
  5
5E
100
AcDbEntity
  8
0
  6
ByLayer
 62
  256
370
   -1
100
AcDbLine
 10
-41.67328076747431
 20
-26.00976549374432
 11
-39.91876028994095
 21
-28.42465575811769
  0
LINE
  5
5F
100
AcDbEntity
  8
0
  6
ByLayer
 62
  256
370
   -1
100
AcDbLine
 10
-39.91876028994095
 20
-28.42465575811769
 11
-40.48507218600341
 21
-28.83610543472241
  0
LINE
  5
60
100
AcDbEntity
  8
0
  6
ByLayer
 62
  256
370
   -1
100
AcDbLine
 10
-39.89728693371093
 20
-29.64512242909736
 11
-39.33097503764849
 21
-29.23367275249263
  0
LINE
  5
61
100
AcDbEntity
  8
0
  6
ByLayer
 62
  256
370
   -1
100
AcDbLine
 10
-39.33097503764849
 20
-29.23367275249263
 11
-37.6469517892709
 21
-31.55153190521268
  0
LINE
  5
62
100
AcDbEntity
  8
0
  6
ByLayer
 62
  256
370
   -1
100
AcDbLine
 10
-37.6469517892709
 20
-31.55153190521268
 11
-32.61458786080131
 21
-24.35393183396329
  0
LINE
  5
63
100
AcDbEntity
  8
0
  6
ByLayer
 62
  256
370
   -1
100
AcDbLine
 10
33.23712896760623
 20
23.49014098404108
 11
41.62787592914423
 21
26.06358691170833
  0
LINE
  5
64
100
AcDbEntity
  8
0
  6
ByLayer
 62
  256
370
   -1
100
AcDbLine
 10
41.62787592914423
 20
26.06358691170833
 11
39.95269041110341
 21
28.36928197217485
  0
LINE
  5
65
100
AcDbEntity
  8
0
  6
ByLayer
 62
  256
370
   -1
100
AcDbLine
 10
39.95269041110341
 20
28.36928197217485
 11
40.51900230715884
 21
28.78073164877446
  0
LINE
  5
66
100
AcDbEntity
  8
0
  6
ByLayer
 62
  256
370
   -1
100
AcDbLine
 10
39.93121705486637
 20
29.58974864314941
 11
39.36490515881094
 21
29.17829896654979
  0
LINE
  5
67
100
AcDbEntity
  8
0
  6
ByLayer
 62
  256
370
   -1
100
AcDbLine
 10
39.36490515881094
 20
29.17829896654979
 11
37.60154695094083
 21
31.60535332317667
  0
LINE
  5
68
100
AcDbEntity
  8
0
  6
ByLayer
 62
  256
370
   -1
100
AcDbLine
 10
37.60154695094083
 20
31.60535332317667
 11
32.26127271760453
 21
24.0172078946948
  0
LINE
  5
69
100
AcDbEntity
  8
0
  6
ByLayer
 62
  256
370
   -1
100
AcDbLine
 10
-32.37147824518465
 20
24.09727689730304
 11
-37.61450892864258
 21
31.59618567202985
  0
LINE
  5
6A
100
AcDbEntity
  8
0
  6
ByLayer
 62
  256
370
   -1
100
AcDbLine
 10
-37.61450892864258
 20
31.59618567202985
 11
-39.36902940617593
 21
29.18129540765648
  0
LINE
  5
6B
100
AcDbEntity
  8
0
  6
ByLayer
 62
  256
370
   -1
100
AcDbLine
 10
-39.36902940617593
 20
29.18129540765648
 11
-39.93534130223838
 21
29.59274508426121
  0
LINE
  5
6C
100
AcDbEntity
  8
0
  6
ByLayer
 62
  256
370
   -1
100
AcDbLine
 10
-40.52312655453085
 20
28.78372808988626
 11
-39.9568146584684
 21
28.37227841328155
  0
LINE
  5
6D
100
AcDbEntity
  8
0
  6
ByLayer
 62
  256
370
   -1
100
AcDbLine
 10
-39.9568146584684
 20
28.37227841328155
 11
-41.640837906846
 21
26.0544192605615
  0
LINE
  5
6E
100
AcDbEntity
  8
0
  6
ByLayer
 62
  256
370
   -1
100
AcDbLine
 10
-41.640837906846
 20
26.0544192605615
 11
-33.24042748162122
 21
23.4925374947522
  0
LINE
  5
6F
100
AcDbEntity
  8
0
  6
ByLayer
 62
  256
370
   -1
100
AcDbLine
 10
32.6112893467863
 20
-24.35153532325218
 11
37.65166527224265
 21
-31.53637137185246
  0
LINE
  5
70
100
AcDbEntity
  8
0
  6
ByLayer
 62
  256
370
   -1
100
AcDbLine
 10
37.65166527224265
 20
-31.53637137185246
 11
39.32685079028347
 21
-29.23067631138595
  0
LINE
  5
71
100
AcDbEntity
  8
0
  6
ByLayer
 62
  256
370
   -1
100
AcDbLine
 10
39.32685079028347
 20
-29.23067631138595
 11
39.89316268633889
 21
-29.64212598798557
  0
LINE
  5
72
100
AcDbEntity
  8
0
  6
ByLayer
 62
  256
370
   -1
100
AcDbLine
 10
40.48094793863137
 20
-28.83310899361062
 11
39.91463604257594
 21
-28.421659317011
  0
LINE
  5
73
100
AcDbEntity
  8
0
  6
ByLayer
 62
  256
370
   -1
100
AcDbLine
 10
39.91463604257594
 20
-28.421659317011
 11
41.67799425044605
 21
-25.99460496038413
  0
LINE
  5
74
100
AcDbEntity
  8
0
  6
ByLayer
 62
  256
370
   -1
100
AcDbLine
 10
41.67799425044605
 20
-25.99460496038413
 11
32.81100360136954
 21
-23.260568245156
  0
LINE
  5
75
100
AcDbEntity
  8
0
  6
ByLayer
 62
  256
370
   -1
100
AcDbLine
 10
12.91453530734776
 20
38.23357340661512
 11
18.42623577943681
 21
45.53728215391121
  0
LINE
  5
76
100
AcDbEntity
  8
0
  6
ByLayer
 62
  256
370
   -1
100
AcDbLine
 10
18.42623577943681
 20
45.53728215391121
 11
15.58736201283013
 21
46.45968815580061
  0
LINE
  5
77
100
AcDbEntity
  8
0
  6
ByLayer
 62
  256
370
   -1
100
AcDbLine
 10
15.58736201283013
 20
46.45968815580061
 11
15.80367390889259
 21
47.12542771720721
  0
LINE
  5
78
100
AcDbEntity
  8
0
  6
ByLayer
 62
  256
370
   -1
100
AcDbLine
 10
15.80367390889259
 20
47.12542771720721
 11
15.89637900720508
 21
47.41074467209576
  0
LINE
  5
79
100
AcDbEntity
  8
0
  6
ByLayer
 62
  256
370
   -1
100
AcDbLine
 10
14.94532249090992
 20
47.71976166647071
 11
14.85261739259744
 21
47.43444471158216
  0
LINE
  5
7A
100
AcDbEntity
  8
0
  6
ByLayer
 62
  256
370
   -1
100
AcDbLine
 10
14.85261739259744
 20
47.43444471158216
 11
14.63630549653498
 21
46.76870515017556
  0
LINE
  5
7B
100
AcDbEntity
  8
0
  6
ByLayer
 62
  256
370
   -1
100
AcDbLine
 10
14.63630549653498
 20
46.76870515017556
 11
11.91149864281504
 21
47.65404856537958
  0
LINE
  5
7C
100
AcDbEntity
  8
0
  6
ByLayer
 62
  256
370
   -1
100
AcDbLine
 10
11.91149864281504
 20
47.65404856537958
 11
12.07087387658331
 21
38.87311848770145
  0
LINE
  5
7D
100
AcDbEntity
  8
0
  6
ByLayer
 62
  256
370
   -1
100
AcDbLine
 10
-13.08224373433495
 20
-38.54021749205459
 11
-18.35786705786421
 21
-45.5541363013523
  0
LINE
  5
7E
100
AcDbEntity
  8
0
  6
ByLayer
 62
  256
370
   -1
100
AcDbLine
 10
-18.35786705786421
 20
-45.5541363013523
 11
-15.64735995221256
 21
-46.43483344675776
  0
LINE
  5
7F
100
AcDbEntity
  8
0
  6
ByLayer
 62
  256
370
   -1
100
AcDbLine
 10
-15.64735995221256
 20
-46.43483344675776
 11
-15.86367184827234
 21
-47.1005730081561
  0
LINE
  5
80
100
AcDbEntity
  8
0
  6
ByLayer
 62
  256
370
   -1
100
AcDbLine
 10
-15.86367184827234
 20
-47.1005730081561
 11
-15.95637694658483
 21
-47.38588996304465
  0
LINE
  5
81
100
AcDbEntity
  8
0
  6
ByLayer
 62
  256
370
   -1
100
AcDbLine
 10
-15.00532043028967
 20
-47.69490695741959
 11
-14.91261533197719
 21
-47.40959000253105
  0
LINE
  5
82
100
AcDbEntity
  8
0
  6
ByLayer
 62
  256
370
   -1
100
AcDbLine
 10
-14.91261533197719
 20
-47.40959000253105
 11
-14.69630343591741
 21
-46.74385044113272
  0
LINE
  5
83
100
AcDbEntity
  8
0
  6
ByLayer
 62
  256
370
   -1
100
AcDbLine
 10
-14.69630343591741
 20
-46.74385044113272
 11
-11.84312992124246
 21
-47.67090271282066
  0
LINE
  5
84
100
AcDbEntity
  8
0
  6
ByLayer
 62
  256
370
   -1
100
AcDbLine
 10
-11.84312992124246
 20
-47.67090271282066
 11
-11.98295728696295
 21
-38.39302966783771
  0
LINE
  5
85
100
AcDbEntity
  8
0
  6
ByLayer
 62
  256
370
   -1
100
AcDbLine
 10
12.02505205275044
 20
-38.52258403550313
 11
11.85900499162615
 21
-47.67110478657803
  0
LINE
  5
86
100
AcDbEntity
  8
0
  6
ByLayer
 62
  256
370
   -1
100
AcDbLine
 10
11.85900499162615
 20
-47.67110478657803
 11
14.69787875823282
 21
-46.74869878468862
  0
LINE
  5
87
100
AcDbEntity
  8
0
  6
ByLayer
 62
  256
370
   -1
100
AcDbLine
 10
14.69787875823282
 20
-46.74869878468862
 11
14.91419065429527
 21
-47.41443834609522
  0
LINE
  5
88
100
AcDbEntity
  8
0
  6
ByLayer
 62
  256
370
   -1
100
AcDbLine
 10
15.86524717059043
 20
-47.10542135172027
 11
15.64893527452797
 21
-46.43968179031368
  0
LINE
  5
89
100
AcDbEntity
  8
0
  6
ByLayer
 62
  256
370
   -1
100
AcDbLine
 10
15.64893527452797
 20
-46.43968179031368
 11
18.37374212824791
 21
-45.55433837510965
  0
LINE
  5
8A
100
AcDbEntity
  8
0
  6
ByLayer
 62
  256
370
   -1
100
AcDbLine
 10
18.37374212824791
 20
-45.55433837510965
 11
13.0835036545763
 21
-38.54409512783958
  0
LINE
  5
8B
100
AcDbEntity
  8
0
  6
ByLayer
 62
  256
370
   -1
100
AcDbLine
 10
-12.06961395634193
 20
38.86924085191647
 11
-11.9242230685679
 21
47.64455395202511
  0
LINE
  5
8C
100
AcDbEntity
  8
0
  6
ByLayer
 62
  256
370
   -1
100
AcDbLine
 10
-11.9242230685679
 20
47.64455395202511
 11
-14.63473017421954
 21
46.76385680661965
  0
LINE
  5
8D
100
AcDbEntity
  8
0
  6
ByLayer
 62
  256
370
   -1
100
AcDbLine
 10
-14.63473017421954
 20
46.76385680661965
 11
-14.85104207027932
 21
47.42959636801799
  0
LINE
  5
8E
100
AcDbEntity
  8
0
  6
ByLayer
 62
  256
370
   -1
100
AcDbLine
 10
-14.85104207027932
 20
47.42959636801799
 11
-14.94374716859181
 21
47.71491332290654
  0
LINE
  5
8F
100
AcDbEntity
  8
0
  6
ByLayer
 62
  256
370
   -1
100
AcDbLine
 10
-15.80209858657448
 20
47.12057937364304
 11
-15.5857866905147
 21
46.45483981224471
  0
LINE
  5
90
100
AcDbEntity
  8
0
  6
ByLayer
 62
  256
370
   -1
100
AcDbLine
 10
-15.5857866905147
 20
46.45483981224471
 11
-18.43896020518964
 21
45.52778754055674
  0
LINE
  5
91
100
AcDbEntity
  8
0
  6
ByLayer
 62
  256
370
   -1
100
AcDbLine
 10
-18.43896020518964
 20
45.52778754055674
 11
-12.87244054156025
 21
38.1040190389497
  0
LINE
  5
92
100
AcDbEntity
  8
0
  6
CONTINUOUS
 62
    7
370
   -3
100
AcDbLine
 10
-16.59146109118625
 20
0.5323709793492132
 11
-32.44563269748869
 21
0.5323709793492132
  0
LINE
  5
93
100
AcDbEntity
  8
0
  6
CONTINUOUS
 62
    7
370
   -3
100
AcDbLine
 10
-33.29574418961599
 20
0.5323709793492132
 11
-40.69656062371564
 21
0.5323709793492132
  0
LINE
  5
94
100
AcDbEntity
  8
0
  6
CONTINUOUS
 62
    7
370
   -3
100
AcDbLine
 10
-40.21687849045087
 20
-0.4676290206507866
 11
-33.29671640115652
 21
-0.4676290206507866
  0
LINE
  5
95
100
AcDbEntity
  8
0
  6
CONTINUOUS
 62
    7
370
   -3
100
AcDbLine
 10
-32.4466303812745
 20
-0.4676290206507866
 11
-16.59341203909085
 21
-0.4676290206507866
  0
LINE
  5
96
100
AcDbEntity
  8
0
  6
CONTINUOUS
 62
    7
370
   -3
100
AcDbLine
 10
-12.4886581000661
 20
0.5323709793492132
 11
-15.741000004458
 21
0.5323709793492132
  0
LINE
  5
97
100
AcDbEntity
  8
0
  6
CONTINUOUS
 62
    7
370
   -3
100
AcDbLine
 10
-15.74305634554629
 20
-0.4676290206507866
 11
-12.49124986136476
 21
-0.4676290206507866
  0
LINE
  5
98
100
AcDbEntity
  8
0
  6
CONTINUOUS
 62
    7
370
   -3
100
AcDbLine
 10
-11.64061094182969
 20
-0.4676290206507866
 11
-7.48540734356155
 21
-0.4676290206507867
  0
LINE
  5
99
100
AcDbEntity
  8
0
  6
CONTINUOUS
 62
    7
370
   -3
100
AcDbLine
 10
-7.481081548836823
 20
0.5323709793492133
 11
-11.63782974357103
 21
0.5323709793492132
  0
ARC
  5
9A
100
AcDbEntity
  8
0
  6
CONTINUOUS
 62
    7
370
   -3
100
AcDbCircle
 10
0
 20
0
 40
33.3
100
AcDbArc
 50
144.9160333258581
 51
179.0839666741419
  0
LINE
  5
9B
100
AcDbEntity
  8
0
  6
CONTINUOUS
 62
    7
370
   -3
100
AcDbLine
 10
-26.66274398353615
 20
19.94963867513412
 11
-32.37147824518465
 21
24.09727689730304
  0
LINE
  5
9C
100
AcDbEntity
  8
0
  6
CONTINUOUS
 62
    7
370
   -3
100
AcDbLine
 10
-33.24042748162122
 20
23.4925374947522
 11
-27.24974270017021
 21
19.14005022915354
  0
ARC
  5
9D
100
AcDbEntity
  8
0
  6
CONTINUOUS
 62
    7
370
   -3
100
AcDbCircle
 10
0
 20
0
 40
32.45
100
AcDbArc
 50
144.9400301611586
 51
179.0599698388414
  0
LINE
  5
9E
100
AcDbEntity
  8
0
  6
CONTINUOUS
 62
    7
370
   -3
100
AcDbLine
 10
-13.14948689240784
 20
10.13168270655939
 11
-25.97500994677104
 21
19.44997064946747
  0
ARC
  5
9F
100
AcDbEntity
  8
0
  6
CONTINUOUS
 62
    7
370
   -3
100
AcDbCircle
 10
0
 20
0
 40
16.6
100
AcDbArc
 50
145.8378217728238
 51
178.1621782271762
  0
ARC
  5
A0
100
AcDbEntity
  8
0
  6
CONTINUOUS
 62
    7
370
   -3
100
AcDbCircle
 10
0
 20
0
 40
15.75
100
AcDbArc
 50
145.9370426411687
 51
178.0629573588313
  0
LINE
  5
A1
100
AcDbEntity
  8
0
  6
CONTINUOUS
 62
    7
370
   -3
100
AcDbLine
 10
-26.56198805592578
 20
18.64036723127677
 11
-13.73569379469033
 21
9.321518973778112
  0
ARC
  5
A2
100
AcDbEntity
  8
0
  6
CONTINUOUS
 62
    7
370
   -3
100
AcDbCircle
 10
0
 20
0
 40
12.5
100
AcDbArc
 50
146.4409471309066
 51
177.5590528690933
  0
LINE
  5
A3
100
AcDbEntity
  8
0
  6
CONTINUOUS
 62
    7
370
   -3
100
AcDbLine
 10
-5.780956308877813
 20
4.778131868716663
 11
-9.142586634964674
 21
7.220499264051297
  0
LINE
  5
A4
100
AcDbEntity
  8
0
  6
CONTINUOUS
 62
    7
370
   -3
100
AcDbLine
 10
-9.830767976945289
 20
7.720492275980016
 11
-12.46153468506679
 21
9.631856170690954
  0
ARC
  5
A5
100
AcDbEntity
  8
0
  6
CONTINUOUS
 62
    7
370
   -3
100
AcDbCircle
 10
0
 20
0
 40
11.65
100
AcDbArc
 50
146.6191619126891
 51
177.3808380873109
  0
LINE
  5
A6
100
AcDbEntity
  8
0
  6
CONTINUOUS
 62
    7
370
   -3
100
AcDbLine
 10
-13.0476563224726
 20
8.821630489350625
 11
-10.41645645030178
 21
6.909951882536255
  0
LINE
  5
A7
100
AcDbEntity
  8
0
  6
CONTINUOUS
 62
    7
370
   -3
100
AcDbLine
 10
-9.728121850601166
 20
6.409847522356213
 11
-6.3652419197238
 21
3.966572235998076
  0
ARC
  5
A8
100
AcDbEntity
  8
0
  6
CONTINUOUS
 62
    7
370
   -3
100
AcDbCircle
 10
0
 20
0
 40
33.3
100
AcDbArc
 50
108.8046261248264
 51
143.1953738751736
  0
ARC
  5
A9
100
AcDbEntity
  8
0
  6
CONTINUOUS
 62
    7
370
   -3
100
AcDbCircle
 10
0
 20
0
 40
32.45
100
AcDbArc
 50
108.8257040586595
 51
143.1742959413405
  0
LINE
  5
AA
100
AcDbEntity
  8
0
  6
CONTINUOUS
 62
    7
370
   -3
100
AcDbLine
 10
-9.782635905955743
 20
31.83064615636173
 11
-12.06961395634193
 21
38.86924085191647
  0
LINE
  5
AB
100
AcDbEntity
  8
0
  6
CONTINUOUS
 62
    7
370
   -3
100
AcDbLine
 10
-12.87244054156025
 20
38.1040190389497
 11
-10.73399285213905
 21
31.52255379010762
  0
ARC
  5
AC
100
AcDbEntity
  8
0
  6
CONTINUOUS
 62
    7
370
   -3
100
AcDbCircle
 10
0
 20
0
 40
16.6
100
AcDbArc
 50
109.6142598944951
 51
142.3857401055049
  0
LINE
  5
AD
100
AcDbEntity
  8
0
  6
CONTINUOUS
 62
    7
370
   -3
100
AcDbLine
 10
-4.62072854969075
 20
15.94392886556111
 11
-9.519937007774963
 21
31.02214208219666
  0
LINE
  5
AE
100
AcDbEntity
  8
0
  6
CONTINUOUS
 62
    7
370
   -3
100
AcDbLine
 10
-10.47130182531495
 20
30.71407394148741
 11
-5.572387942043571
 21
15.6367673329038
  0
ARC
  5
AF
100
AcDbEntity
  8
0
  6
CONTINUOUS
 62
    7
370
   -3
100
AcDbCircle
 10
0
 20
0
 40
15.75
100
AcDbArc
 50
109.7014036421083
 51
142.2985963578917
  0
ARC
  5
B0
100
AcDbEntity
  8
0
  6
CONTINUOUS
 62
    7
370
   -3
100
AcDbCircle
 10
0
 20
0
 40
12.5
100
AcDbArc
 50
110.1439538280593
 51
141.8560461719407
  0
LINE
  5
B1
100
AcDbEntity
  8
0
  6
CONTINUOUS
 62
    7
370
   -3
100
AcDbLine
 10
-1.805466445898928
 20
7.279443035887642
 11
-3.089972279409183
 21
11.23274549308773
  0
LINE
  5
B2
100
AcDbEntity
  8
0
  6
CONTINUOUS
 62
    7
370
   -3
100
AcDbLine
 10
-3.352892700862264
 20
12.04193134578106
 11
-4.35792162083714
 21
15.13509230717277
  0
LINE
  5
B3
100
AcDbEntity
  8
0
  6
CONTINUOUS
 62
    7
370
   -3
100
AcDbLine
 10
-5.309613581474806
 20
14.82803100938956
 11
-4.304750115444067
 21
11.73537926287789
  0
LINE
  5
B4
100
AcDbEntity
  8
0
  6
CONTINUOUS
 62
    7
370
   -3
100
AcDbLine
 10
-4.041888233230987
 20
10.92637357543979
 11
-2.7578597062782
 21
6.974540116773802
  0
ARC
  5
B5
100
AcDbEntity
  8
0
  6
CONTINUOUS
 62
    7
370
   -3
100
AcDbCircle
 10
0
 20
0
 40
11.65
100
AcDbArc
 50
110.3004608899916
 51
141.6995391100084
  0
ARC
  5
B6
100
AcDbEntity
  8
0
  6
CONTINUOUS
 62
    7
370
   -3
100
AcDbCircle
 10
0
 20
0
 40
11.65
100
AcDbArc
 50
74.61916191268911
 51
105.3808380873109
  0
LINE
  5
B7
100
AcDbEntity
  8
0
  6
CONTINUOUS
 62
    7
370
   -3
100
AcDbLine
 10
3.089972279409185
 20
11.23274549308773
 11
1.805466445898929
 21
7.279443035887642
  0
ARC
  5
B8
100
AcDbEntity
  8
0
  6
CONTINUOUS
 62
    7
370
   -3
100
AcDbCircle
 10
0
 20
0
 40
12.5
100
AcDbArc
 50
74.44094713090669
 51
105.5590528690933
  0
LINE
  5
B9
100
AcDbEntity
  8
0
  6
CONTINUOUS
 62
    7
370
   -3
100
AcDbLine
 10
2.757859706278206
 20
6.9745401167738
 11
4.041888233230996
 21
10.92637357543979
  0
ARC
  5
BA
100
AcDbEntity
  8
0
  6
CONTINUOUS
 62
    7
370
   -3
100
AcDbCircle
 10
0
 20
0
 40
16.6
100
AcDbArc
 50
73.83782177282379
 51
106.1621782271762
  0
LINE
  5
BB
100
AcDbEntity
  8
0
  6
CONTINUOUS
 62
    7
370
   -3
100
AcDbLine
 10
4.357921620837145
 20
15.13509230717277
 11
3.352892700862268
 21
12.04193134578106
  0
LINE
  5
BC
100
AcDbEntity
  8
0
  6
CONTINUOUS
 62
    7
370
   -3
100
AcDbLine
 10
4.304750115444075
 20
11.73537926287788
 11
5.309613581474814
 21
14.82803100938956
  0
ARC
  5
BD
100
AcDbEntity
  8
0
  6
CONTINUOUS
 62
    7
370
   -3
100
AcDbCircle
 10
0
 20
0
 40
15.75
100
AcDbArc
 50
73.93704264116873
 51
106.0629573588313
  0
ARC
  5
BE
100
AcDbEntity
  8
0
  6
CONTINUOUS
 62
    7
370
   -3
100
AcDbCircle
 10
0
 20
0
 40
32.45
100
AcDbArc
 50
72.94003016115859
 51
107.0599698388414
  0
ARC
  5
BF
100
AcDbEntity
  8
0
  6
CONTINUOUS
 62
    7
370
   -3
100
AcDbCircle
 10
0
 20
0
 40
33.3
100
AcDbArc
 50
72.91603332585811
 51
107.0839666741419
  0
LINE
  5
C0
100
AcDbEntity
  8
0
  6
CONTINUOUS
 62
    7
370
   -3
100
AcDbLine
 10
12.07087387658331
 20
38.87311848770145
 11
9.782635905955754
 21
31.83064615636172
  0
LINE
  5
C1
100
AcDbEntity
  8
0
  6
CONTINUOUS
 62
    7
370
   -3
100
AcDbLine
 10
9.519937007774976
 20
31.02214208219667
 11
4.620728549690755
 21
15.94392886556111
  0
LINE
  5
C2
100
AcDbEntity
  8
0
  6
CONTINUOUS
 62
    7
370
   -3
100
AcDbLine
 10
5.57238794204358
 20
15.6367673329038
 11
10.47130182531496
 21
30.71407394148741
  0
LINE
  5
C3
100
AcDbEntity
  8
0
  6
CONTINUOUS
 62
    7
370
   -3
100
AcDbLine
 10
10.73399285213906
 20
31.52255379010761
 11
12.91453530734776
 21
38.23357340661512
  0
LINE
  5
C4
100
AcDbEntity
  8
0
  6
CONTINUOUS
 62
    7
370
   -3
100
AcDbLine
 10
9.142586634964676
 20
7.220499264051298
 11
5.780956308877808
 21
4.77813186871666
  0
ARC
  5
C5
100
AcDbEntity
  8
0
  6
CONTINUOUS
 62
    7
370
   -3
100
AcDbCircle
 10
0
 20
0
 40
11.65
100
AcDbArc
 50
38.30046088999166
 51
69.69953911000837
  0
ARC
  5
C6
100
AcDbEntity
  8
0
  6
CONTINUOUS
 62
    7
370
   -3
100
AcDbCircle
 10
0
 20
0
 40
12.5
100
AcDbArc
 50
38.14395382805932
 51
69.8560461719407
  0
LINE
  5
C7
100
AcDbEntity
  8
0
  6
CONTINUOUS
 62
    7
370
   -3
100
AcDbLine
 10
6.365241919723807
 20
3.966572235998076
 11
9.728121850601173
 21
6.409847522356209
  0
LINE
  5
C8
100
AcDbEntity
  8
0
  6
CONTINUOUS
 62
    7
370
   -3
100
AcDbLine
 10
12.46153468506679
 20
9.631856170690948
 11
9.830767976945289
 21
7.720492275980014
  0
ARC
  5
C9
100
AcDbEntity
  8
0
  6
CONTINUOUS
 62
    7
370
   -3
100
AcDbCircle
 10
0
 20
0
 40
15.75
100
AcDbArc
 50
37.70140364210834
 51
70.29859635789167
  0
ARC
  5
CA
100
AcDbEntity
  8
0
  6
CONTINUOUS
 62
    7
370
   -3
100
AcDbCircle
 10
0
 20
0
 40
16.6
100
AcDbArc
 50
37.61425989449513
 51
70.38574010550489
  0
LINE
  5
CB
100
AcDbEntity
  8
0
  6
CONTINUOUS
 62
    7
370
   -3
100
AcDbLine
 10
10.41645645030179
 20
6.909951882536252
 11
13.04765632247261
 21
8.821630489350627
  0
LINE
  5
CC
100
AcDbEntity
  8
0
  6
CONTINUOUS
 62
    7
370
   -3
100
AcDbLine
 10
32.26127271760453
 20
24.0172078946948
 11
26.66274398353615
 21
19.94963867513411
  0
LINE
  5
CD
100
AcDbEntity
  8
0
  6
CONTINUOUS
 62
    7
370
   -3
100
AcDbLine
 10
25.97500994677105
 20
19.44997064946746
 11
13.14948689240784
 21
10.13168270655938
  0
ARC
  5
CE
100
AcDbEntity
  8
0
  6
CONTINUOUS
 62
    7
370
   -3
100
AcDbCircle
 10
0
 20
0
 40
32.45
100
AcDbArc
 50
36.82570405865946
 51
71.17429594134053
  0
LINE
  5
CF
100
AcDbEntity
  8
0
  6
CONTINUOUS
 62
    7
370
   -3
100
AcDbLine
 10
13.73569379469034
 20
9.32151897377811
 11
26.56198805592578
 21
18.64036723127676
  0
LINE
  5
D0
100
AcDbEntity
  8
0
  6
CONTINUOUS
 62
    7
370
   -3
100
AcDbLine
 10
27.24974270017022
 20
19.14005022915353
 11
33.23712896760623
 21
23.49014098404108
  0
ARC
  5
D1
100
AcDbEntity
  8
0
  6
CONTINUOUS
 62
    7
370
   -3
100
AcDbCircle
 10
0
 20
0
 40
33.3
100
AcDbArc
 50
36.80462612482644
 51
71.19537387517356
  0
ARC
  5
D2
100
AcDbEntity
  8
0
  6
CONTINUOUS
 62
    7
370
   -3
100
AcDbCircle
 10
0
 20
0
 40
11.65
100
AcDbArc
 50
2.619161912689076
 51
33.38083808731092
  0
ARC
  5
D3
100
AcDbEntity
  8
0
  6
CONTINUOUS
 62
    7
370
   -3
100
AcDbCircle
 10
0
 20
0
 40
12.5
100
AcDbArc
 50
2.440947130906674
 51
33.55905286909333
  0
LINE
  5
D4
100
AcDbEntity
  8
0
  6
CONTINUOUS
 62
    7
370
   -3
100
AcDbLine
 10
11.63782974357103
 20
0.5323709793492057
 11
7.481081548836826
 21
0.5323709793492046
  0
LINE
  5
D5
100
AcDbEntity
  8
0
  6
CONTINUOUS
 62
    7
370
   -3
100
AcDbLine
 10
7.48540734356155
 20
-0.4676290206507839
 11
11.64061094182969
 21
-0.4676290206507842
  0
LINE
  5
D6
100
AcDbEntity
  8
0
  6
CONTINUOUS
 62
    7
370
   -3
100
AcDbLine
 10
15.741000004458
 20
0.5323709793492067
 11
12.4886581000661
 21
0.532370979349206
  0
ARC
  5
D7
100
AcDbEntity
  8
0
  6
CONTINUOUS
 62
    7
370
   -3
100
AcDbCircle
 10
0
 20
0
 40
15.75
100
AcDbArc
 50
1.937042641168695
 51
34.06295735883131
  0
ARC
  5
D8
100
AcDbEntity
  8
0
  6
CONTINUOUS
 62
    7
370
   -3
100
AcDbCircle
 10
0
 20
0
 40
16.6
100
AcDbArc
 50
1.837821772823794
 51
34.16217822717621
  0
LINE
  5
D9
100
AcDbEntity
  8
0
  6
CONTINUOUS
 62
    7
370
   -3
100
AcDbLine
 10
12.49124986136476
 20
-0.4676290206507843
 11
15.74305634554629
 21
-0.4676290206507846
  0
LINE
  5
DA
100
AcDbEntity
  8
0
  6
CONTINUOUS
 62
    7
370
   -3
100
AcDbLine
 10
40.7006378112629
 20
0.5323709793492132
 11
33.29574418961599
 21
0.5323709793492112
  0
LINE
  5
DB
100
AcDbEntity
  8
0
  6
CONTINUOUS
 62
    7
370
   -3
100
AcDbLine
 10
32.44563269748869
 20
0.532370979349211
 11
16.59146109118623
 21
0.532370979349207
  0
ARC
  5
DC
100
AcDbEntity
  8
0
  6
CONTINUOUS
 62
    7
370
   -3
100
AcDbCircle
 10
0
 20
0
 40
32.45
100
AcDbArc
 50
0.9400301611585877
 51
35.05996983884141
  0
ARC
  5
DD
100
AcDbEntity
  8
0
  6
CONTINUOUS
 62
    7
370
   -3
100
AcDbCircle
 10
0
 20
0
 40
33.3
100
AcDbArc
 50
0.916033325858114
 51
35.08396667414188
  0
LINE
  5
DE
100
AcDbEntity
  8
0
  6
CONTINUOUS
 62
    7
370
   -3
100
AcDbLine
 10
16.59341203909085
 20
-0.4676290206507847
 11
32.4466303812745
 21
-0.467629020650786
  0
LINE
  5
DF
100
AcDbEntity
  8
0
  6
CONTINUOUS
 62
    7
370
   -3
100
AcDbLine
 10
33.29671640115652
 20
-0.467629020650786
 11
40.35310001403616
 21
-0.4676290206507866
  0
ARC
  5
E0
100
AcDbEntity
  8
0
  6
CONTINUOUS
 62
    7
370
   -3
100
AcDbCircle
 10
0
 20
0
 40
33.3
100
AcDbArc
 50
324.8046261248264
 51
359.1953738751736
  0
LINE
  5
E1
100
AcDbEntity
  8
0
  6
CONTINUOUS
 62
    7
370
   -3
100
AcDbLine
 10
32.81100360136954
 20
-23.260568245156
 11
27.21247486730117
 21
-19.19299902559531
  0
LINE
  5
E2
100
AcDbEntity
  8
0
  6
CONTINUOUS
 62
    7
370
   -3
100
AcDbLine
 10
26.62390307935028
 20
-20.00144456836463
 11
32.6112893467863
 21
-24.35153532325218
  0
ARC
  5
E3
100
AcDbEntity
  8
0
  6
CONTINUOUS
 62
    7
370
   -3
100
AcDbCircle
 10
0
 20
0
 40
32.45
100
AcDbArc
 50
324.8257040586595
 51
359.1742959413406
  0
ARC
  5
E4
100
AcDbEntity
  8
0
  6
CONTINUOUS
 62
    7
370
   -3
100
AcDbCircle
 10
0
 20
0
 40
15.75
100
AcDbArc
 50
325.7014036421083
 51
358.2985963578917
  0
LINE
  5
E5
100
AcDbEntity
  8
0
  6
CONTINUOUS
 62
    7
370
   -3
100
AcDbLine
 10
26.52474083053606
 20
-18.69333099992865
 11
13.69921777617286
 21
-9.375043057020569
  0
LINE
  5
E6
100
AcDbEntity
  8
0
  6
CONTINUOUS
 62
    7
370
   -3
100
AcDbLine
 10
13.10985417387041
 20
-10.1829133129892
 11
25.93614843510584
 21
-19.50176157048786
  0
ARC
  5
E7
100
AcDbEntity
  8
0
  6
CONTINUOUS
 62
    7
370
   -3
100
AcDbCircle
 10
0
 20
0
 40
16.6
100
AcDbArc
 50
325.6142598944951
 51
358.3857401055049
  0
ARC
  5
E8
100
AcDbEntity
  8
0
  6
CONTINUOUS
 62
    7
370
   -3
100
AcDbCircle
 10
0
 20
0
 40
11.65
100
AcDbArc
 50
326.3004608899917
 51
357.6995391100084
  0
LINE
  5
E9
100
AcDbEntity
  8
0
  6
CONTINUOUS
 62
    7
370
   -3
100
AcDbLine
 10
13.01126556883181
 20
-8.875216521152137
 11
10.38049886071031
 21
-6.963852626441199
  0
LINE
  5
EA
100
AcDbEntity
  8
0
  6
CONTINUOUS
 62
    7
370
   -3
100
AcDbLine
 10
9.692317518729698
 20
-6.463859614512481
 11
6.330687192642845
 21
-4.021492219177851
  0
LINE
  5
EB
100
AcDbEntity
  8
0
  6
CONTINUOUS
 62
    7
370
   -3
100
AcDbLine
 10
5.739402298903878
 20
-4.827966575209162
 11
9.10228222978124
 21
-7.271241861567297
  0
LINE
  5
EC
100
AcDbEntity
  8
0
  6
CONTINUOUS
 62
    7
370
   -3
100
AcDbLine
 10
9.790616829481856
 20
-7.771346221747342
 11
12.42181670165268
 21
-9.683024828561717
  0
ARC
  5
ED
100
AcDbEntity
  8
0
  6
CONTINUOUS
 62
    7
370
   -3
100
AcDbCircle
 10
0
 20
0
 40
12.5
100
AcDbArc
 50
326.1439538280593
 51
357.8560461719407
  0
ARC
  5
EE
100
AcDbEntity
  8
0
  6
CONTINUOUS
 62
    7
370
   -3
100
AcDbCircle
 10
0
 20
0
 40
11.65
100
AcDbArc
 50
290.6191619126891
 51
321.3808380873108
  0
LINE
  5
EF
100
AcDbEntity
  8
0
  6
CONTINUOUS
 62
    7
370
   -3
100
AcDbLine
 10
1.868376451680898
 20
-7.263550745661814
 11
3.152404978633685
 21
-11.2153842043278
  0
LINE
  5
F0
100
AcDbEntity
  8
0
  6
CONTINUOUS
 62
    7
370
   -3
100
AcDbLine
 10
4.102602057402182
 20
-10.90372213322586
 11
2.818096223891924
 21
-6.95041967602576
  0
ARC
  5
F1
100
AcDbEntity
  8
0
  6
CONTINUOUS
 62
    7
370
   -3
100
AcDbCircle
 10
0
 20
0
 40
12.5
100
AcDbArc
 50
290.4409471309066
 51
321.5590528690933
  0
ARC
  5
F2
100
AcDbEntity
  8
0
  6
CONTINUOUS
 62
    7
370
   -3
100
AcDbCircle
 10
0
 20
0
 40
15.75
100
AcDbArc
 50
289.9370426411687
 51
322.0629573588313
  0
LINE
  5
F3
100
AcDbEntity
  8
0
  6
CONTINUOUS
 62
    7
370
   -3
100
AcDbLine
 10
3.415266860846764
 20
-12.0243898917659
 11
4.420130326877504
 21
-15.11704163827757
  0
LINE
  5
F4
100
AcDbEntity
  8
0
  6
CONTINUOUS
 62
    7
370
   -3
100
AcDbLine
 10
5.370551398830139
 20
-14.80606894731089
 11
4.365522478855262
 21
-11.71290798591918
  0
ARC
  5
F5
100
AcDbEntity
  8
0
  6
CONTINUOUS
 62
    7
370
   -3
100
AcDbCircle
 10
0
 20
0
 40
16.6
100
AcDbArc
 50
289.8378217728238
 51
322.1621782271762
  0
ARC
  5
F6
100
AcDbEntity
  8
0
  6
CONTINUOUS
 62
    7
370
   -3
100
AcDbCircle
 10
0
 20
0
 40
32.45
100
AcDbArc
 50
288.9400301611586
 51
323.0599698388414
  0
LINE
  5
F7
100
AcDbEntity
  8
0
  6
CONTINUOUS
 62
    7
370
   -3
100
AcDbLine
 10
4.68290468744627
 20
-15.92577796179182
 11
9.581818570717646
 21
-31.00308457037542
  0
LINE
  5
F8
100
AcDbEntity
  8
0
  6
CONTINUOUS
 62
    7
370
   -3
100
AcDbLine
 10
9.844509597541744
 20
-31.81156441899562
 11
12.02505205275044
 21
-38.52258403550313
  0
ARC
  5
F9
100
AcDbEntity
  8
0
  6
CONTINUOUS
 62
    7
370
   -3
100
AcDbCircle
 10
0
 20
0
 40
33.3
100
AcDbArc
 50
288.9160333258581
 51
323.0839666741419
  0
LINE
  5
FA
100
AcDbEntity
  8
0
  6
CONTINUOUS
 62
    7
370
   -3
100
AcDbLine
 10
13.0835036545763
 20
-38.54409512783958
 11
10.79526568394874
 21
-31.50162279649984
  0
LINE
  5
FB
100
AcDbEntity
  8
0
  6
CONTINUOUS
 62
    7
370
   -3
100
AcDbLine
 10
10.53256678576796
 20
-30.69311872233478
 11
5.633358327683748
 21
-15.61490550569923
  0
LINE
  5
FC
100
AcDbEntity
  8
0
  6
CONTINUOUS
 62
    7
370
   -3
100
AcDbLine
 10
-10.79526568394876
 20
-31.50162279649984
 11
-13.08224373433495
 21
-38.54021749205459
  0
ARC
  5
FD
100
AcDbEntity
  8
0
  6
CONTINUOUS
 62
    7
370
   -3
100
AcDbCircle
 10
0
 20
0
 40
33.3
100
AcDbArc
 50
252.8046261248264
 51
287.1953738751736
  0
ARC
  5
FE
100
AcDbEntity
  8
0
  6
CONTINUOUS
 62
    7
370
   -3
100
AcDbCircle
 10
0
 20
0
 40
32.45
100
AcDbArc
 50
252.8257040586595
 51
287.1742959413405
  0
LINE
  5
FF
100
AcDbEntity
  8
0
  6
CONTINUOUS
 62
    7
370
   -3
100
AcDbLine
 10
-11.98295728696295
 20
-38.39302966783771
 11
-9.844509597541752
 21
-31.81156441899563
  0
ARC
  5
100
100
AcDbEntity
  8
0
  6
CONTINUOUS
 62
    7
370
   -3
100
AcDbCircle
 10
0
 20
0
 40
16.6
100
AcDbArc
 50
253.6142598944951
 51
286.3857401055049
  0
ARC
  5
101
100
AcDbEntity
  8
0
  6
CONTINUOUS
 62
    7
370
   -3
100
AcDbCircle
 10
0
 20
0
 40
15.75
100
AcDbArc
 50
253.7014036421083
 51
286.2985963578917
  0
LINE
  5
102
100
AcDbEntity
  8
0
  6
CONTINUOUS
 62
    7
370
   -3
100
AcDbLine
 10
-5.633358327683759
 20
-15.61490550569923
 11
-10.53256678576798
 21
-30.69311872233478
  0
LINE
  5
103
100
AcDbEntity
  8
0
  6
CONTINUOUS
 62
    7
370
   -3
100
AcDbLine
 10
-9.581818570717649
 20
-31.00308457037543
 11
-4.682904687446265
 21
-15.92577796179181
  0
LINE
  5
104
100
AcDbEntity
  8
0
  6
CONTINUOUS
 62
    7
370
   -3
100
AcDbLine
 10
-27.21247486730117
 20
-19.19299902559531
 11
-32.92120912894968
 21
-23.34063724776423
  0
ARC
  5
105
100
AcDbEntity
  8
0
  6
CONTINUOUS
 62
    7
370
   -3
100
AcDbCircle
 10
0
 20
0
 40
33.3
100
AcDbArc
 50
216.9160333258581
 51
251.0839666741419
  0
ARC
  5
106
100
AcDbEntity
  8
0
  6
CONTINUOUS
 62
    7
370
   -3
100
AcDbCircle
 10
0
 20
0
 40
33.3
100
AcDbArc
 50
180.8046261248264
 51
215.1953738751736
  0
ARC
  5
107
100
AcDbEntity
  8
0
  6
CONTINUOUS
 62
    7
370
   -3
100
AcDbCircle
 10
0
 20
0
 40
32.45
100
AcDbArc
 50
216.9400301611586
 51
251.0599698388414
  0
ARC
  5
108
100
AcDbEntity
  8
0
  6
CONTINUOUS
 62
    7
370
   -3
100
AcDbCircle
 10
0
 20
0
 40
32.45
100
AcDbArc
 50
180.8257040586594
 51
215.1742959413405
  0
LINE
  5
109
100
AcDbEntity
  8
0
  6
CONTINUOUS
 62
    7
370
   -3
100
AcDbLine
 10
-32.61458786080131
 20
-24.35393183396329
 11
-26.62390307935028
 21
-20.00144456836462
  0
LINE
  5
10A
100
AcDbEntity
  8
0
  6
CONTINUOUS
 62
    7
370
   -3
100
AcDbLine
 10
-13.69921777617285
 20
-9.375043057020575
 11
-26.52474083053606
 21
-18.69333099992865
  0
ARC
  5
10B
100
AcDbEntity
  8
0
  6
CONTINUOUS
 62
    7
370
   -3
100
AcDbCircle
 10
0
 20
0
 40
16.6
100
AcDbArc
 50
217.8378217728238
 51
250.1621782271762
  0
ARC
  5
10C
100
AcDbEntity
  8
0
  6
CONTINUOUS
 62
    7
370
   -3
100
AcDbCircle
 10
0
 20
0
 40
16.6
100
AcDbArc
 50
181.6142598944951
 51
214.3857401055049
  0
ARC
  5
10D
100
AcDbEntity
  8
0
  6
CONTINUOUS
 62
    7
370
   -3
100
AcDbCircle
 10
0
 20
0
 40
15.75
100
AcDbArc
 50
217.9370426411687
 51
250.0629573588313
  0
ARC
  5
10E
100
AcDbEntity
  8
0
  6
CONTINUOUS
 62
    7
370
   -3
100
AcDbCircle
 10
0
 20
0
 40
15.75
100
AcDbArc
 50
181.7014036421083
 51
214.2985963578917
  0
LINE
  5
10F
100
AcDbEntity
  8
0
  6
CONTINUOUS
 62
    7
370
   -3
100
AcDbLine
 10
-25.93614843510586
 20
-19.50176157048784
 11
-13.10985417387041
 21
-10.1829133129892
  0
ARC
  5
110
100
AcDbEntity
  8
0
  6
CONTINUOUS
 62
    7
370
   -3
100
AcDbCircle
 10
0
 20
0
 40
12.5
100
AcDbArc
 50
182.1439538280593
 51
213.8560461719407
  0
LINE
  5
111
100
AcDbEntity
  8
0
  6
CONTINUOUS
 62
    7
370
   -3
100
AcDbLine
 10
-12.42181670165268
 20
-9.683024828561711
 11
-9.790616829481856
 21
-7.771346221747337
  0
LINE
  5
112
100
AcDbEntity
  8
0
  6
CONTINUOUS
 62
    7
370
   -3
100
AcDbLine
 10
-9.102282229781242
 20
-7.271241861567296
 11
-5.739402298903876
 21
-4.82796657520916
  0
ARC
  5
113
100
AcDbEntity
  8
0
  6
CONTINUOUS
 62
    7
370
   -3
100
AcDbCircle
 10
0
 20
0
 40
11.65
100
AcDbArc
 50
182.3004608899916
 51
213.6995391100084
  0
LINE
  5
114
100
AcDbEntity
  8
0
  6
CONTINUOUS
 62
    7
370
   -3
100
AcDbLine
 10
-6.330687192642833
 20
-4.021492219177853
 11
-9.692317518729691
 21
-6.463859614512486
  0
LINE
  5
115
100
AcDbEntity
  8
0
  6
CONTINUOUS
 62
    7
370
   -3
100
AcDbLine
 10
-10.38049886071031
 20
-6.963852626441204
 11
-13.01126556883181
 21
-8.875216521152144
  0
ARC
  5
116
100
AcDbEntity
  8
0
  6
CONTINUOUS
 62
    7
370
   -3
100
AcDbCircle
 10
0
 20
0
 40
12.5
100
AcDbArc
 50
254.1439538280593
 51
285.8560461719407
  0
ARC
  5
117
100
AcDbEntity
  8
0
  6
CONTINUOUS
 62
    7
370
   -3
100
AcDbCircle
 10
0
 20
0
 40
12.5
100
AcDbArc
 50
218.4409471309067
 51
249.5590528690933
  0
ARC
  5
118
100
AcDbEntity
  8
0
  6
CONTINUOUS
 62
    7
370
   -3
100
AcDbCircle
 10
0
 20
0
 40
11.65
100
AcDbArc
 50
254.3004608899916
 51
285.6995391100084
  0
ARC
  5
119
100
AcDbEntity
  8
0
  6
CONTINUOUS
 62
    7
370
   -3
100
AcDbCircle
 10
0
 20
0
 40
11.65
100
AcDbArc
 50
218.6191619126891
 51
249.3808380873109
  0
LINE
  5
11A
100
AcDbEntity
  8
0
  6
CONTINUOUS
 62
    7
370
   -3
100
AcDbLine
 10
-2.818096223891933
 20
-6.950419676025759
 11
-4.10260205740219
 21
-10.90372213322585
  0
LINE
  5
11B
100
AcDbEntity
  8
0
  6
CONTINUOUS
 62
    7
370
   -3
100
AcDbLine
 10
-4.36552247885527
 20
-11.71290798591918
 11
-5.370551398830148
 21
-14.80606894731088
  0
LINE
  5
11C
100
AcDbEntity
  8
0
  6
CONTINUOUS
 62
    7
370
   -3
100
AcDbLine
 10
-4.420130326877501
 20
-15.11704163827757
 11
-3.415266860846761
 21
-12.0243898917659
  0
LINE
  5
11D
100
AcDbEntity
  8
0
  6
CONTINUOUS
 62
    7
370
   -3
100
AcDbLine
 10
-3.152404978633681
 20
-11.2153842043278
 11
-1.868376451680891
 21
-7.263550745661814
  0
ARC
  5
11E
100
AcDbEntity
  8
0
  6
CONTINUOUS
 62
    7
370
   -3
100
AcDbCircle
 10
0
 20
0
 40
50
100
AcDbArc
 50
216.6100637323139
 51
287.464128802407
  0
LINE
  5
11F
100
AcDbEntity
  8
0
  6
ByLayer
 62
  256
370
   -1
100
AcDbLine
 10
-49.99781315773772
 20
-0.4676317396722409
 11
-49.69745107494607
 21
-0.4676290206507866
  0
ARC
  5
120
100
AcDbEntity
  8
0
  6
CONTINUOUS
 62
    7
370
   -3
100
AcDbCircle
 10
0
 20
0
 40
50
100
AcDbArc
 50
144.6100637323139
 51
179.3899362676861
  0
ARC
  5
121
100
AcDbEntity
  8
0
  6
CONTINUOUS
 62
    7
370
   -3
100
AcDbCircle
 10
0
 20
0
 40
50
100
AcDbArc
 50
180.5358743134984
 51
215.464128802407
  0
LINE
  5
122
100
AcDbEntity
  8
0
  6
ByLayer
 62
  256
370
   -1
100
AcDbLine
 10
-49.69745107494607
 20
0.5323709793492132
 11
-49.99716573107266
 21
0.5323709793492022
  0
LINE
  5
123
100
AcDbEntity
  8
0
  6
ByLayer
 62
  256
370
   -1
100
AcDbLine
 10
-40.76147655742849
 20
28.95689950354159
 11
-40.52312655453085
 21
28.78372808988626
  0
LINE
  5
124
100
AcDbEntity
  8
0
  6
ByLayer
 62
  256
370
   -1
100
AcDbLine
 10
-39.93534130223838
 20
29.59274508426121
 11
-40.17421510488482
 21
29.7662970607102
  0
LINE
  5
125
100
AcDbEntity
  8
0
  6
ByLayer
 62
  256
370
   -1
100
AcDbLine
 10
-15.89492694285765
 20
47.4062369048759
 11
-15.80209858657448
 21
47.12057937364304
  0
ARC
  5
126
100
AcDbEntity
  8
0
  6
CONTINUOUS
 62
    7
370
   -3
100
AcDbCircle
 10
0
 20
0
 40
50
100
AcDbArc
 50
108.5358849278871
 51
143.464128802407
  0
ARC
  5
127
100
AcDbEntity
  8
0
  6
CONTINUOUS
 62
    7
370
   -3
100
AcDbCircle
 10
0.008520507502293837
 20
0.04588435601832686
 40
49.95904954363721
100
AcDbArc
 50
72.60359562996594
 51
107.4149924107181
  0
LINE
  5
128
100
AcDbEntity
  8
0
  6
ByLayer
 62
  256
370
   -1
100
AcDbLine
 10
40.17612813977141
 20
29.76774014272827
 11
39.93121705486637
 21
29.58974864314941
  0
LINE
  5
129
100
AcDbEntity
  8
0
  6
ByLayer
 62
  256
370
   -1
100
AcDbLine
 10
40.51900230715884
 20
28.78073164877446
 11
40.76343021953718
 21
28.95814585633662
  0
ARC
  5
12A
100
AcDbEntity
  8
0
  6
CONTINUOUS
 62
    7
370
   -3
100
AcDbCircle
 10
-0.002433965875077604
 20
0.003280570300780994
 40
50.00239900760725
100
AcDbArc
 50
36.53121410459466
 51
71.46034024369717
  0
ARC
  5
12B
100
AcDbEntity
  8
0
  6
CONTINUOUS
 62
    7
370
   -3
100
AcDbCircle
 10
-0.002433965875077604
 20
0.003280570300780994
 40
50.00239900760725
100
AcDbArc
 50
0.6062751736040547
 51
35.38512434494168
  0
LINE
  5
12C
100
AcDbEntity
  8
0
  6
ByLayer
 62
  256
370
   -1
100
AcDbLine
 10
49.70254892505392
 20
-0.4676290206507866
 11
49.99781318316877
 21
-0.4676290206508057
  0
LINE
  5
12D
100
AcDbEntity
  8
0
  6
ByLayer
 62
  256
370
   -1
100
AcDbLine
 10
49.99716573107265
 20
0.5323709793492249
 11
49.70254892505392
 21
0.5323709793492132
  0
LINE
  5
12E
100
AcDbEntity
  8
0
  6
ByLayer
 62
  256
370
   -1
100
AcDbLine
 10
40.72394581595791
 20
-29.00965765359743
 11
40.48094793863137
 21
-28.83310899361062
  0
ARC
  5
12F
100
AcDbEntity
  8
0
  6
CONTINUOUS
 62
    7
370
   -3
100
AcDbCircle
 10
0
 20
0
 40
50
100
AcDbArc
 50
324.5358708565163
 51
359.464128802407
  0
ARC
  5
130
100
AcDbEntity
  8
0
  6
CONTINUOUS
 62
    7
370
   -3
100
AcDbCircle
 10
0
 20
0
 40
50
100
AcDbArc
 50
288.6100637323139
 51
323.3899362676861
  0
LINE
  5
131
100
AcDbEntity
  8
0
  6
ByLayer
 62
  256
370
   -1
100
AcDbLine
 10
39.89316268633889
 20
-29.64212598798557
 11
40.13563693660855
 21
-29.81829384275269
  0
LINE
  5
132
100
AcDbEntity
  8
0
  6
ByLayer
 62
  256
370
   -1
100
AcDbLine
 10
-40.48507218600341
 20
-28.83610543472241
 11
-40.72394598864983
 21
-29.00965741117139
  0
LINE
  5
133
100
AcDbEntity
  8
0
  6
ByLayer
 62
  256
370
   -1
100
AcDbLine
 10
-40.13563693660856
 20
-29.81829384275268
 11
-39.89728693371093
 21
-29.64512242909736
  0
LINE
  5
134
100
AcDbEntity
  8
0
  6
ByLayer
 62
  256
370
   -1
100
AcDbLine
 10
15.95628877047869
 20
-47.38561858489446
 11
15.86524717059043
 21
-47.10542135172027
  0
LINE
  5
135
100
AcDbEntity
  8
0
  6
ByLayer
 62
  256
370
   -1
100
AcDbLine
 10
14.91419065429527
 20
-47.41443834609522
 11
15.00543232788427
 21
-47.6952513428044
  0
CIRCLE
  5
136
100
AcDbEntity
  8
0
  6
ByLayer
 62
  256
370
   -1
100
AcDbCircle
 10
45.61469410669775
 20
-43.64746697730477
 40
7.5
  0
LINE
  5
137
100
AcDbEntity
  8
0
  6
ByLayer
 62
  256
370
   -1
100
AcDbLine
 10
52.1146941067049
 20
-42.14746697730431
 11
52.1146941067049
 21
-45.14746697730431
  0
LINE
  5
138
100
AcDbEntity
  8
0
  6
ByLayer
 62
  256
370
   -1
100
AcDbLine
 10
52.1146941067049
 20
-45.14746697730431
 11
39.1146941067049
 21
-45.14746697730431
  0
LINE
  5
139
100
AcDbEntity
  8
0
  6
ByLayer
 62
  256
370
   -1
100
AcDbLine
 10
39.1146941067049
 20
-45.14746697730431
 11
39.1146941067049
 21
-42.14746697730431
  0
LINE
  5
13A
100
AcDbEntity
  8
0
  6
ByLayer
 62
  256
370
   -1
100
AcDbLine
 10
39.1146941067049
 20
-42.14746697730431
 11
52.1146941067049
 21
-42.14746697730431
  0
LINE
  5
13B
100
AcDbEntity
  8
0
  6
ByLayer
 62
  256
370
   -1
100
AcDbLine
 10
39.1146941067049
 20
-45.14746697730431
 11
39.1146941067049
 21
-42.14746697730431
  0
LINE
  5
13C
100
AcDbEntity
  8
0
  6
ByLayer
 62
  256
370
   -1
100
AcDbLine
 10
39.1146941067049
 20
-42.14746697730431
 11
52.1146941067049
 21
-42.14746697730431
  0
LINE
  5
13D
100
AcDbEntity
  8
0
  6
ByLayer
 62
  256
370
   -1
100
AcDbLine
 10
52.1146941067049
 20
-42.14746697730431
 11
52.1146941067049
 21
-45.14746697730431
  0
LINE
  5
13E
100
AcDbEntity
  8
0
  6
ByLayer
 62
  256
370
   -1
100
AcDbLine
 10
52.1146941067049
 20
-45.14746697730431
 11
39.1146941067049
 21
-45.14746697730431
  0
LINE
  5
13F
100
AcDbEntity
  8
0
  6
CONTINUOUS
 62
    7
370
   -3
100
AcDbLine
 10
45.61037940087512
 20
-45.14746697730431
 11
45.61469410669775
 21
-45.16074627638238
  0
LINE
  5
140
100
AcDbEntity
  8
0
  6
CONTINUOUS
 62
    7
370
   -3
100
AcDbLine
 10
45.61469410669775
 20
-45.16074627638238
 11
45.61900881252039
 21
-45.1474669773043
  0
ARC
  5
141
100
AcDbEntity
  8
0
  6
CONTINUOUS
 62
    7
370
   -3
100
AcDbCircle
 10
0
 20
0
 40
7.5
100
AcDbArc
 50
148.0704377818551
 51
175.9295622181448
  0
ARC
  5
142
100
AcDbEntity
  8
0
  6
CONTINUOUS
 62
    7
370
   -3
100
AcDbCircle
 10
0
 20
0
 40
7.5
100
AcDbArc
 50
111.5747413122128
 51
140.4252586877871
  0
ARC
  5
143
100
AcDbEntity
  8
0
  6
CONTINUOUS
 62
    7
370
   -3
100
AcDbCircle
 10
0
 20
0
 40
7.5
100
AcDbArc
 50
76.0704377818552
 51
103.9295622181448
  0
ARC
  5
144
100
AcDbEntity
  8
0
  6
CONTINUOUS
 62
    7
370
   -3
100
AcDbCircle
 10
0
 20
0
 40
7.5
100
AcDbArc
 50
39.57474131221291
 51
68.42525868778711
  0
ARC
  5
145
100
AcDbEntity
  8
0
  6
CONTINUOUS
 62
    7
370
   -3
100
AcDbCircle
 10
0
 20
0
 40
7.5
100
AcDbArc
 50
4.070437781855146
 51
31.92956221814485
  0
ARC
  5
146
100
AcDbEntity
  8
0
  6
CONTINUOUS
 62
    7
370
   -3
100
AcDbCircle
 10
0
 20
0
 40
7.5
100
AcDbArc
 50
327.574741312213
 51
356.4252586877872
  0
ARC
  5
147
100
AcDbEntity
  8
0
  6
CONTINUOUS
 62
    7
370
   -3
100
AcDbCircle
 10
0
 20
0
 40
7.5
100
AcDbArc
 50
292.0704377818551
 51
319.9295622181448
  0
ARC
  5
148
100
AcDbEntity
  8
0
  6
CONTINUOUS
 62
    7
370
   -3
100
AcDbCircle
 10
0
 20
0
 40
7.5
100
AcDbArc
 50
255.5747413122129
 51
284.4252586877872
  0
ARC
  5
149
100
AcDbEntity
  8
0
  6
CONTINUOUS
 62
    7
370
   -3
100
AcDbCircle
 10
0
 20
0
 40
7.5
100
AcDbArc
 50
220.0704377818552
 51
247.9295622181448
  0
ARC
  5
14A
100
AcDbEntity
  8
0
  6
CONTINUOUS
 62
    7
370
   -3
100
AcDbCircle
 10
0
 20
0
 40
7.5
100
AcDbArc
 50
183.5747413122128
 51
212.4252586877871
  0
ENDBLK
  5
4F
330
4D
100
AcDbEntity
  8
0
100
AcDbBlockEnd
  0
ENDSEC
  0
SECTION
  2
ENTITIES
  0
CIRCLE
  5
14B
100
AcDbEntity
  8
0
  6
ByLayer
 62
  256
370
   -1
100
AcDbCircle
 10
0
 20
0
 40
50
  0
CIRCLE
  5
14C
100
AcDbEntity
  8
0
  6
ByLayer
 62
  256
370
   -1
100
AcDbCircle
 10
5.3307e-09
 20
0
 40
51
  0
ARC
  5
14D
100
AcDbEntity
  8
0
  6
CONTINUOUS
 62
    7
370
   -3
100
AcDbCircle
 10
0
 20
0
 40
33.3
100
AcDbArc
 50
109.0754343833606
 51
142.9245656166393
  0
ARC
  5
14E
100
AcDbEntity
  8
0
  6
CONTINUOUS
 62
    7
370
   -3
100
AcDbCircle
 10
0
 20
0
 40
32.45
100
AcDbArc
 50
109.103607907176
 51
142.896392092824
  0
ARC
  5
14F
100
AcDbEntity
  8
0
  6
CONTINUOUS
 62
    7
370
   -3
100
AcDbCircle
 10
0
 20
0
 40
33.3
100
AcDbArc
 50
145.0754343833606
 51
178.9245656166394
  0
ARC
  5
150
100
AcDbEntity
  8
0
  6
CONTINUOUS
 62
    7
370
   -3
100
AcDbCircle
 10
0
 20
0
 40
32.45
100
AcDbArc
 50
145.103607907176
 51
178.896392092824
  0
ARC
  5
151
100
AcDbEntity
  8
0
  6
CONTINUOUS
 62
    7
370
   -3
100
AcDbCircle
 10
0
 20
0
 40
32.45
100
AcDbArc
 50
181.103607907176
 51
214.896392092824
  0
ARC
  5
152
100
AcDbEntity
  8
0
  6
CONTINUOUS
 62
    7
370
   -3
100
AcDbCircle
 10
0
 20
0
 40
33.3
100
AcDbArc
 50
181.0754343833607
 51
214.9245656166393
  0
ARC
  5
153
100
AcDbEntity
  8
0
  6
CONTINUOUS
 62
    7
370
   -3
100
AcDbCircle
 10
0
 20
0
 40
32.45
100
AcDbArc
 50
217.103607907176
 51
250.896392092824
  0
ARC
  5
154
100
AcDbEntity
  8
0
  6
CONTINUOUS
 62
    7
370
   -3
100
AcDbCircle
 10
0
 20
0
 40
33.3
100
AcDbArc
 50
217.0754343833606
 51
250.9245656166394
  0
ARC
  5
155
100
AcDbEntity
  8
0
  6
CONTINUOUS
 62
    7
370
   -3
100
AcDbCircle
 10
0
 20
0
 40
32.45
100
AcDbArc
 50
253.103607907176
 51
286.8963920928239
  0
ARC
  5
156
100
AcDbEntity
  8
0
  6
CONTINUOUS
 62
    7
370
   -3
100
AcDbCircle
 10
0
 20
0
 40
33.3
100
AcDbArc
 50
253.0754343833607
 51
286.9245656166393
  0
ARC
  5
157
100
AcDbEntity
  8
0
  6
CONTINUOUS
 62
    7
370
   -3
100
AcDbCircle
 10
0
 20
0
 40
32.45
100
AcDbArc
 50
289.103607907176
 51
322.896392092824
  0
ARC
  5
158
100
AcDbEntity
  8
0
  6
CONTINUOUS
 62
    7
370
   -3
100
AcDbCircle
 10
0
 20
0
 40
33.3
100
AcDbArc
 50
289.0754343833606
 51
322.9245656166394
  0
ARC
  5
159
100
AcDbEntity
  8
0
  6
CONTINUOUS
 62
    7
370
   -3
100
AcDbCircle
 10
0
 20
0
 40
32.45
100
AcDbArc
 50
325.103607907176
 51
358.896392092824
  0
ARC
  5
15A
100
AcDbEntity
  8
0
  6
CONTINUOUS
 62
    7
370
   -3
100
AcDbCircle
 10
0
 20
0
 40
33.3
100
AcDbArc
 50
325.0754343833606
 51
358.9245656166394
  0
ARC
  5
15B
100
AcDbEntity
  8
0
  6
CONTINUOUS
 62
    7
370
   -3
100
AcDbCircle
 10
0
 20
0
 40
33.3
100
AcDbArc
 50
1.075434383360622
 51
34.92456561663941
  0
ARC
  5
15C
100
AcDbEntity
  8
0
  6
CONTINUOUS
 62
    7
370
   -3
100
AcDbCircle
 10
0
 20
0
 40
32.45
100
AcDbArc
 50
1.103607907175969
 51
34.89639209282401
  0
ARC
  5
15D
100
AcDbEntity
  8
0
  6
CONTINUOUS
 62
    7
370
   -3
100
AcDbCircle
 10
0
 20
0
 40
33.3
100
AcDbArc
 50
73.07543438336062
 51
106.9245656166394
  0
ARC
  5
15E
100
AcDbEntity
  8
0
  6
CONTINUOUS
 62
    7
370
   -3
100
AcDbCircle
 10
0
 20
0
 40
33.3
100
AcDbArc
 50
37.07543438336064
 51
70.92456561663936
  0
ARC
  5
15F
100
AcDbEntity
  8
0
  6
CONTINUOUS
 62
    7
370
   -3
100
AcDbCircle
 10
0
 20
0
 40
32.45
100
AcDbArc
 50
73.10360790717597
 51
106.896392092824
  0
ARC
  5
160
100
AcDbEntity
  8
0
  6
CONTINUOUS
 62
    7
370
   -3
100
AcDbCircle
 10
0
 20
0
 40
32.45
100
AcDbArc
 50
37.10360790717599
 51
70.89639209282399
  0
LINE
  5
161
100
AcDbEntity
  8
0
  6
ByLayer
 62
  256
370
   -1
100
AcDbLine
 10
-12.95509009603509
 20
37.84912502525199
 11
-15.61804834166152
 21
36.98387744100215
  0
LINE
  5
162
100
AcDbEntity
  8
0
  6
ByLayer
 62
  256
370
   -1
100
AcDbLine
 10
-15.61804834166152
 20
36.98387744100215
 11
-15.45084971710009
 21
47.55282580968788
  0
LINE
  5
163
100
AcDbEntity
  8
0
  6
ByLayer
 62
  256
370
   -1
100
AcDbLine
 10
-15.45084971710009
 20
47.55282580968788
 11
-9.10331120503972
 21
39.10064385247053
  0
LINE
  5
164
100
AcDbEntity
  8
0
  6
ByLayer
 62
  256
370
   -1
100
AcDbLine
 10
-9.10331120503972
 20
39.10064385247053
 11
-11.76626945066615
 21
38.23539626822068
  0
LINE
  5
165
100
AcDbEntity
  8
0
  6
ByLayer
 62
  256
370
   -1
100
AcDbLine
 10
12.95509009932963
 20
-37.84912503539161
 11
15.61804834495606
 21
-36.98387745114176
  0
LINE
  5
166
100
AcDbEntity
  8
0
  6
ByLayer
 62
  256
370
   -1
100
AcDbLine
 10
15.61804834495606
 20
-36.98387745114176
 11
15.45084972039463
 21
-47.55282581982748
  0
LINE
  5
167
100
AcDbEntity
  8
0
  6
ByLayer
 62
  256
370
   -1
100
AcDbLine
 10
15.45084972039463
 20
-47.55282581982748
 11
9.103311208334254
 21
-39.10064386261014
  0
LINE
  5
168
100
AcDbEntity
  8
0
  6
ByLayer
 62
  256
370
   -1
100
AcDbLine
 10
9.103311208334254
 20
-39.10064386261014
 11
11.76626945396069
 21
-38.2353962783603
  0
LINE
  5
169
100
AcDbEntity
  8
0
  6
ByLayer
 62
  256
370
   -1
100
AcDbLine
 10
32.72804555336806
 20
-23.00577446708127
 11
34.37384425978699
 21
-20.74052688283142
  0
LINE
  5
16A
100
AcDbEntity
  8
0
  6
ByLayer
 62
  256
370
   -1
100
AcDbLine
 10
34.37384425978699
 20
-20.74052688283142
 11
40.45084971443474
 21
-29.38926261149035
  0
LINE
  5
16B
100
AcDbEntity
  8
0
  6
ByLayer
 62
  256
370
   -1
100
AcDbLine
 10
40.45084971443474
 20
-29.38926261149035
 11
30.34751528158355
 21
-26.28229329429981
  0
LINE
  5
16C
100
AcDbEntity
  8
0
  6
ByLayer
 62
  256
370
   -1
100
AcDbLine
 10
30.34751528158355
 20
-26.28229329429981
 11
31.99331398800247
 21
-24.01704571004995
  0
LINE
  5
16D
100
AcDbEntity
  8
0
  6
ByLayer
 62
  256
370
   -1
100
AcDbLine
 10
-32.72804556199331
 20
23.0057744733479
 11
-34.37384426841224
 21
20.74052688909806
  0
LINE
  5
16E
100
AcDbEntity
  8
0
  6
ByLayer
 62
  256
370
   -1
100
AcDbLine
 10
-34.37384426841224
 20
20.74052688909806
 11
-40.45084972305999
 21
29.38926261775698
  0
LINE
  5
16F
100
AcDbEntity
  8
0
  6
ByLayer
 62
  256
370
   -1
100
AcDbLine
 10
-40.45084972305999
 20
29.38926261775698
 11
-30.3475152902088
 21
26.28229330056644
  0
LINE
  5
170
100
AcDbEntity
  8
0
  6
ByLayer
 62
  256
370
   -1
100
AcDbLine
 10
-30.3475152902088
 20
26.28229330056644
 11
-31.99331399662772
 21
24.01704571631659
  0
LINE
  5
171
100
AcDbEntity
  8
0
  6
ByLayer
 62
  256
370
   -1
100
AcDbLine
 10
-39.9999999946693
 20
-0.6250000000000105
 11
-39.9999999946693
 21
-3.42500000000001
  0
LINE
  5
172
100
AcDbEntity
  8
0
  6
ByLayer
 62
  256
370
   -1
100
AcDbLine
 10
-39.9999999946693
 20
-3.42500000000001
 11
-49.9999999946693
 21
-9.992007221626409e-15
  0
LINE
  5
173
100
AcDbEntity
  8
0
  6
ByLayer
 62
  256
370
   -1
100
AcDbLine
 10
-49.9999999946693
 20
-9.992007221626409e-15
 11
-39.9999999946693
 21
3.42499999999999
  0
LINE
  5
174
100
AcDbEntity
  8
0
  6
ByLayer
 62
  256
370
   -1
100
AcDbLine
 10
-39.9999999946693
 20
3.42499999999999
 11
-39.9999999946693
 21
0.6249999999999899
  0
LINE
  5
175
100
AcDbEntity
  8
0
  6
ByLayer
 62
  256
370
   -1
100
AcDbLine
 10
40.0000000053307
 20
0.62499999999999
 11
40.0000000053307
 21
3.42499999999999
  0
LINE
  5
176
100
AcDbEntity
  8
0
  6
ByLayer
 62
  256
370
   -1
100
AcDbLine
 10
40.0000000053307
 20
3.42499999999999
 11
50.0000000053307
 21
-1.054711873393899e-14
  0
LINE
  5
177
100
AcDbEntity
  8
0
  6
ByLayer
 62
  256
370
   -1
100
AcDbLine
 10
50.0000000053307
 20
-1.054711873393899e-14
 11
40.0000000053307
 21
-3.425000000000011
  0
LINE
  5
178
100
AcDbEntity
  8
0
  6
ByLayer
 62
  256
370
   -1
100
AcDbLine
 10
40.0000000053307
 20
-3.425000000000011
 11
40.0000000053307
 21
-0.6250000000000104
  0
LINE
  5
179
100
AcDbEntity
  8
0
  6
ByLayer
 62
  256
370
   -1
100
AcDbLine
 10
31.99331398800247
 20
24.01704571004997
 11
30.34751528158354
 21
26.28229329429982
  0
LINE
  5
17A
100
AcDbEntity
  8
0
  6
ByLayer
 62
  256
370
   -1
100
AcDbLine
 10
30.34751528158354
 20
26.28229329429982
 11
40.45084971443474
 21
29.38926261149036
  0
LINE
  5
17B
100
AcDbEntity
  8
0
  6
ByLayer
 62
  256
370
   -1
100
AcDbLine
 10
40.45084971443474
 20
29.38926261149036
 11
34.37384425978698
 21
20.74052688283142
  0
LINE
  5
17C
100
AcDbEntity
  8
0
  6
ByLayer
 62
  256
370
   -1
100
AcDbLine
 10
34.37384425978698
 20
20.74052688283142
 11
32.72804555336806
 21
23.00577446708128
  0
LINE
  5
17D
100
AcDbEntity
  8
0
  6
ByLayer
 62
  256
370
   -1
100
AcDbLine
 10
-31.99331399662775
 20
-24.01704571631657
 11
-30.34751529020882
 21
-26.28229330056643
  0
LINE
  5
17E
100
AcDbEntity
  8
0
  6
ByLayer
 62
  256
370
   -1
100
AcDbLine
 10
-30.34751529020882
 20
-26.28229330056643
 11
-40.45084972306002
 21
-29.38926261775696
  0
LINE
  5
17F
100
AcDbEntity
  8
0
  6
ByLayer
 62
  256
370
   -1
100
AcDbLine
 10
-40.45084972306002
 20
-29.38926261775696
 11
-34.37384426841226
 21
-20.74052688909804
  0
LINE
  5
180
100
AcDbEntity
  8
0
  6
ByLayer
 62
  256
370
   -1
100
AcDbLine
 10
-34.37384426841226
 20
-20.74052688909804
 11
-32.72804556199333
 21
-23.00577447334788
  0
LINE
  5
181
100
AcDbEntity
  8
0
  6
ByLayer
 62
  256
370
   -1
100
AcDbLine
 10
-11.76626945066614
 20
-38.23539626822069
 11
-9.103311205039709
 21
-39.10064385247054
  0
LINE
  5
182
100
AcDbEntity
  8
0
  6
ByLayer
 62
  256
370
   -1
100
AcDbLine
 10
-9.103311205039709
 20
-39.10064385247054
 11
-15.45084971710009
 21
-47.55282580968788
  0
LINE
  5
183
100
AcDbEntity
  8
0
  6
ByLayer
 62
  256
370
   -1
100
AcDbLine
 10
-15.45084971710009
 20
-47.55282580968788
 11
-15.61804834166152
 21
-36.98387744100215
  0
LINE
  5
184
100
AcDbEntity
  8
0
  6
ByLayer
 62
  256
370
   -1
100
AcDbLine
 10
-15.61804834166152
 20
-36.98387744100215
 11
-12.95509009603508
 21
-37.84912502525201
  0
LINE
  5
185
100
AcDbEntity
  8
0
  6
ByLayer
 62
  256
370
   -1
100
AcDbLine
 10
11.76626945396072
 20
38.23539627836028
 11
9.103311208334286
 21
39.10064386261014
  0
LINE
  5
186
100
AcDbEntity
  8
0
  6
ByLayer
 62
  256
370
   -1
100
AcDbLine
 10
9.103311208334286
 20
39.10064386261014
 11
15.45084972039466
 21
47.55282581982748
  0
LINE
  5
187
100
AcDbEntity
  8
0
  6
ByLayer
 62
  256
370
   -1
100
AcDbLine
 10
15.45084972039466
 20
47.55282581982748
 11
15.61804834495609
 21
36.98387745114174
  0
LINE
  5
188
100
AcDbEntity
  8
0
  6
ByLayer
 62
  256
370
   -1
100
AcDbLine
 10
15.61804834495609
 20
36.98387745114174
 11
12.95509009932966
 21
37.8491250353916
  0
LINE
  5
189
100
AcDbEntity
  8
0
  6
CONTINUOUS
 62
    7
370
   -3
100
AcDbLine
 10
-39.9999999946693
 20
0.6249999999999899
 11
-33.29413424313658
 21
0.6249999999999899
  0
LINE
  5
18A
100
AcDbEntity
  8
0
  6
CONTINUOUS
 62
    7
370
   -3
100
AcDbLine
 10
-39.9999999946693
 20
-0.6250000000000105
 11
-33.29413424313658
 21
-0.6250000000000105
  0
LINE
  5
18B
100
AcDbEntity
  8
0
  6
CONTINUOUS
 62
    7
370
   -3
100
AcDbLine
 10
-32.44398056650879
 20
0.6249999999999899
 11
-16.58823001407926
 21
0.6249999999999899
  0
LINE
  5
18C
100
AcDbEntity
  8
0
  6
CONTINUOUS
 62
    7
370
   -3
100
AcDbLine
 10
-32.44398056650879
 20
-0.6250000000000105
 11
-16.58823001407926
 21
-0.6250000000000105
  0
LINE
  5
18D
100
AcDbEntity
  8
0
  6
CONTINUOUS
 62
    7
370
   -3
100
AcDbLine
 10
-15.73759432060695
 20
0.6249999999999899
 11
-12.48436522214886
 21
0.6249999999999899
  0
LINE
  5
18E
100
AcDbEntity
  8
0
  6
CONTINUOUS
 62
    7
370
   -3
100
AcDbLine
 10
-11.63322289823418
 20
0.62499999999999
 11
-7.473912964438377
 21
0.62499999999999
  0
LINE
  5
18F
100
AcDbEntity
  8
0
  6
CONTINUOUS
 62
    7
370
   -3
100
AcDbLine
 10
-15.73759432060695
 20
-0.6250000000000105
 11
-12.48436522214886
 21
-0.6250000000000105
  0
LINE
  5
190
100
AcDbEntity
  8
0
  6
CONTINUOUS
 62
    7
370
   -3
100
AcDbLine
 10
-11.63322289823418
 20
-0.6250000000000105
 11
-7.473912964438369
 21
-0.6250000000000105
  0
LINE
  5
191
100
AcDbEntity
  8
0
  6
CONTINUOUS
 62
    7
370
   -3
100
AcDbLine
 10
7.473912964438375
 20
0.62499999999999
 11
11.63322289823418
 21
0.62499999999999
  0
LINE
  5
192
100
AcDbEntity
  8
0
  6
CONTINUOUS
 62
    7
370
   -3
100
AcDbLine
 10
7.473912964438373
 20
-0.6250000000000107
 11
11.63322289823418
 21
-0.6250000000000105
  0
LINE
  5
193
100
AcDbEntity
  8
0
  6
CONTINUOUS
 62
    7
370
   -3
100
AcDbLine
 10
12.48436522214886
 20
0.62499999999999
 11
15.73759432060695
 21
0.62499999999999
  0
LINE
  5
194
100
AcDbEntity
  8
0
  6
CONTINUOUS
 62
    7
370
   -3
100
AcDbLine
 10
12.48436522214886
 20
-0.6250000000000105
 11
15.73759432060695
 21
-0.6250000000000104
  0
LINE
  5
195
100
AcDbEntity
  8
0
  6
CONTINUOUS
 62
    7
370
   -3
100
AcDbLine
 10
16.58823001407926
 20
0.62499999999999
 11
32.44398056650879
 21
0.62499999999999
  0
LINE
  5
196
100
AcDbEntity
  8
0
  6
CONTINUOUS
 62
    7
370
   -3
100
AcDbLine
 10
33.29413424313658
 20
0.62499999999999
 11
40.0000000053307
 21
0.62499999999999
  0
LINE
  5
197
100
AcDbEntity
  8
0
  6
CONTINUOUS
 62
    7
370
   -3
100
AcDbLine
 10
16.58823001407926
 20
-0.6250000000000104
 11
32.44398056650879
 21
-0.6250000000000104
  0
LINE
  5
198
100
AcDbEntity
  8
0
  6
CONTINUOUS
 62
    7
370
   -3
100
AcDbLine
 10
33.29413424313658
 20
-0.6250000000000104
 11
40.0000000053307
 21
-0.6250000000000104
  0
LINE
  5
199
100
AcDbEntity
  8
0
  6
CONTINUOUS
 62
    7
370
   -3
100
AcDbLine
 10
-32.72804555234998
 20
-23.00577447021459
 11
-27.30288619736309
 21
-19.06416547761048
  0
LINE
  5
19A
100
AcDbEntity
  8
0
  6
CONTINUOUS
 62
    7
370
   -3
100
AcDbLine
 10
-31.99331398698439
 20
-24.01704571318327
 11
-26.56815463199749
 21
-20.07543672057916
  0
LINE
  5
19B
100
AcDbEntity
  8
0
  6
CONTINUOUS
 62
    7
370
   -3
100
AcDbLine
 10
-26.61509742514086
 20
-18.56445768430644
 11
-13.78752576965541
 21
-9.244681345560128
  0
LINE
  5
19C
100
AcDbEntity
  8
0
  6
CONTINUOUS
 62
    7
370
   -3
100
AcDbLine
 10
-25.88036585977527
 20
-19.57572892727512
 11
-13.05279420428982
 21
-10.25595258852881
  0
LINE
  5
19D
100
AcDbEntity
  8
0
  6
CONTINUOUS
 62
    7
370
   -3
100
AcDbLine
 10
-13.09934703761439
 20
-8.744690229863519
 11
-10.46742941036671
 21
-6.832490143461118
  0
LINE
  5
19E
100
AcDbEntity
  8
0
  6
CONTINUOUS
 62
    7
370
   -3
100
AcDbLine
 10
-9.778840805687945
 20
-6.332201237862123
 11
-6.413888384374606
 21
-3.88742019906337
  0
LINE
  5
19F
100
AcDbEntity
  8
0
  6
CONTINUOUS
 62
    7
370
   -3
100
AcDbLine
 10
-12.3646154722488
 20
-9.755961472832203
 11
-9.73269784500112
 21
-7.843761386429803
  0
LINE
  5
1A0
100
AcDbEntity
  8
0
  6
CONTINUOUS
 62
    7
370
   -3
100
AcDbLine
 10
-9.044109240322355
 20
-7.343472480830808
 11
-5.679156819009008
 21
-4.89869144203205
  0
LINE
  5
1A1
100
AcDbEntity
  8
0
  6
CONTINUOUS
 62
    7
370
   -3
100
AcDbLine
 10
5.67915682104517
 20
4.898691435765423
 11
9.044109242358513
 21
7.343472474564178
  0
LINE
  5
1A2
100
AcDbEntity
  8
0
  6
CONTINUOUS
 62
    7
370
   -3
100
AcDbLine
 10
6.413888386410761
 20
3.887420192796737
 11
9.778840807724103
 21
6.332201231595493
  0
LINE
  5
1A3
100
AcDbEntity
  8
0
  6
CONTINUOUS
 62
    7
370
   -3
100
AcDbLine
 10
9.732697847037279
 20
7.843761380163174
 11
12.36461547428496
 21
9.755961466565575
  0
LINE
  5
1A4
100
AcDbEntity
  8
0
  6
CONTINUOUS
 62
    7
370
   -3
100
AcDbLine
 10
10.46742941240287
 20
6.832490137194489
 11
13.09934703965055
 21
8.744690223596891
  0
LINE
  5
1A5
100
AcDbEntity
  8
0
  6
CONTINUOUS
 62
    7
370
   -3
100
AcDbLine
 10
13.05279420632598
 20
10.25595258226218
 11
25.88036586181143
 21
19.57572892100849
  0
LINE
  5
1A6
100
AcDbEntity
  8
0
  6
CONTINUOUS
 62
    7
370
   -3
100
AcDbLine
 10
26.56815463403366
 20
20.07543671431253
 11
31.99331399764582
 21
24.01704571318326
  0
LINE
  5
1A7
100
AcDbEntity
  8
0
  6
CONTINUOUS
 62
    7
370
   -3
100
AcDbLine
 10
13.78752577169157
 20
9.244681339293496
 11
26.61509742717703
 21
18.56445767803981
  0
LINE
  5
1A8
100
AcDbEntity
  8
0
  6
CONTINUOUS
 62
    7
370
   -3
100
AcDbLine
 10
27.30288619939925
 20
19.06416547134385
 11
32.72804556301141
 21
23.00577447021458
  0
LINE
  5
1A9
100
AcDbEntity
  8
0
  6
CONTINUOUS
 62
    7
370
   -3
100
AcDbLine
 10
-12.95509009235166
 20
-37.84912503032179
 11
-10.88286361313112
 21
-31.47146770992611
  0
LINE
  5
1AA
100
AcDbEntity
  8
0
  6
CONTINUOUS
 62
    7
370
   -3
100
AcDbLine
 10
-11.76626944698272
 20
-38.23539627329048
 11
-9.694042967762178
 21
-31.8577389528948
  0
LINE
  5
1AB
100
AcDbEntity
  8
0
  6
CONTINUOUS
 62
    7
370
   -3
100
AcDbLine
 10
-10.62015167922279
 20
-30.66292351591697
 11
-5.720455299952103
 21
-15.58320863227839
  0
LINE
  5
1AC
100
AcDbEntity
  8
0
  6
CONTINUOUS
 62
    7
370
   -3
100
AcDbLine
 10
-9.431331033853846
 20
-31.04919475888565
 11
-4.531634654583161
 21
-15.96947987524707
  0
LINE
  5
1AD
100
AcDbEntity
  8
0
  6
CONTINUOUS
 62
    7
370
   -3
100
AcDbLine
 10
-5.457594414647239
 20
-14.77420601300829
 11
-4.452291336628602
 21
-11.68020127991872
  0
LINE
  5
1AE
100
AcDbEntity
  8
0
  6
CONTINUOUS
 62
    7
370
   -3
100
AcDbLine
 10
-4.189273893907179
 20
-10.87071682646506
 11
-2.90397643949174
 21
-6.914978010637404
  0
LINE
  5
1AF
100
AcDbEntity
  8
0
  6
CONTINUOUS
 62
    7
370
   -3
100
AcDbLine
 10
-4.268773769278297
 20
-15.16047725597698
 11
-3.26347069125966
 21
-12.06647252288741
  0
LINE
  5
1B0
100
AcDbEntity
  8
0
  6
CONTINUOUS
 62
    7
370
   -3
100
AcDbLine
 10
-3.000453248538236
 20
-11.25698806943375
 11
-1.715155794122794
 21
-7.301249253606082
  0
LINE
  5
1B1
100
AcDbEntity
  8
0
  6
CONTINUOUS
 62
    7
370
   -3
100
AcDbLine
 10
1.715155801489662
 20
7.301249243466486
 11
3.000453255905102
 21
11.25698805929415
  0
LINE
  5
1B2
100
AcDbEntity
  8
0
  6
CONTINUOUS
 62
    7
370
   -3
100
AcDbLine
 10
2.903976446858604
 20
6.9149780004978
 11
4.189273901274045
 21
10.87071681632546
  0
LINE
  5
1B3
100
AcDbEntity
  8
0
  6
CONTINUOUS
 62
    7
370
   -3
100
AcDbLine
 10
3.263470698626526
 20
12.06647251274781
 11
4.268773776645165
 21
15.16047724583738
  0
LINE
  5
1B4
100
AcDbEntity
  8
0
  6
CONTINUOUS
 62
    7
370
   -3
100
AcDbLine
 10
4.452291343995469
 20
11.68020126977913
 11
5.457594422014107
 21
14.7742060028687
  0
LINE
  5
1B5
100
AcDbEntity
  8
0
  6
CONTINUOUS
 62
    7
370
   -3
100
AcDbLine
 10
4.531634661950028
 20
15.96947986510747
 11
9.431331041220712
 21
31.04919474874606
  0
LINE
  5
1B6
100
AcDbEntity
  8
0
  6
CONTINUOUS
 62
    7
370
   -3
100
AcDbLine
 10
9.694042975129044
 20
31.8577389427552
 11
11.76626945764414
 21
38.23539627329048
  0
LINE
  5
1B7
100
AcDbEntity
  8
0
  6
CONTINUOUS
 62
    7
370
   -3
100
AcDbLine
 10
5.72045530731897
 20
15.58320862213879
 11
10.62015168658966
 21
30.66292350577737
  0
LINE
  5
1B8
100
AcDbEntity
  8
0
  6
CONTINUOUS
 62
    7
370
   -3
100
AcDbLine
 10
10.88286362049799
 20
31.47146769978652
 11
12.95509010301308
 21
37.8491250303218
  0
LINE
  5
1B9
100
AcDbEntity
  8
0
  6
CONTINUOUS
 62
    7
370
   -3
100
AcDbLine
 10
11.76626945764413
 20
-38.23539627329048
 11
9.694042978423592
 21
-31.85773895289479
  0
LINE
  5
1BA
100
AcDbEntity
  8
0
  6
CONTINUOUS
 62
    7
370
   -3
100
AcDbLine
 10
12.95509010301307
 20
-37.84912503032179
 11
10.88286362379254
 21
-31.47146770992611
  0
LINE
  5
1BB
100
AcDbEntity
  8
0
  6
CONTINUOUS
 62
    7
370
   -3
100
AcDbLine
 10
9.431331044515261
 20
-31.04919475888565
 11
4.53163466524458
 21
-15.96947987524707
  0
LINE
  5
1BC
100
AcDbEntity
  8
0
  6
CONTINUOUS
 62
    7
370
   -3
100
AcDbLine
 10
10.6201516898842
 20
-30.66292351591697
 11
5.720455310613522
 21
-15.58320863227838
  0
LINE
  5
1BD
100
AcDbEntity
  8
0
  6
CONTINUOUS
 62
    7
370
   -3
100
AcDbLine
 10
4.268773779939715
 20
-15.16047725597697
 11
3.263470701921078
 21
-12.0664725228874
  0
LINE
  5
1BE
100
AcDbEntity
  8
0
  6
CONTINUOUS
 62
    7
370
   -3
100
AcDbLine
 10
3.000453259199654
 20
-11.25698806943374
 11
1.715155804784215
 21
-7.301249253606084
  0
LINE
  5
1BF
100
AcDbEntity
  8
0
  6
CONTINUOUS
 62
    7
370
   -3
100
AcDbLine
 10
5.457594425308657
 20
-14.77420601300829
 11
4.452291347290021
 21
-11.68020127991872
  0
LINE
  5
1C0
100
AcDbEntity
  8
0
  6
CONTINUOUS
 62
    7
370
   -3
100
AcDbLine
 10
4.189273904568597
 20
-10.87071682646506
 11
2.903976450153155
 21
-6.914978010637392
  0
LINE
  5
1C1
100
AcDbEntity
  8
0
  6
CONTINUOUS
 62
    7
370
   -3
100
AcDbLine
 10
-2.903976436197184
 20
6.914978000497809
 11
-4.189273890612624
 21
10.87071681632547
  0
LINE
  5
1C2
100
AcDbEntity
  8
0
  6
CONTINUOUS
 62
    7
370
   -3
100
AcDbLine
 10
-1.71515579082824
 20
7.301249243466492
 11
-3.000453245243681
 21
11.25698805929416
  0
LINE
  5
1C3
100
AcDbEntity
  8
0
  6
CONTINUOUS
 62
    7
370
   -3
100
AcDbLine
 10
-4.452291333334047
 20
11.68020126977913
 11
-5.457594411352685
 21
14.7742060028687
  0
LINE
  5
1C4
100
AcDbEntity
  8
0
  6
CONTINUOUS
 62
    7
370
   -3
100
AcDbLine
 10
-3.263470687965106
 20
12.06647251274782
 11
-4.268773765983743
 21
15.16047724583739
  0
LINE
  5
1C5
100
AcDbEntity
  8
0
  6
CONTINUOUS
 62
    7
370
   -3
100
AcDbLine
 10
-5.720455296657548
 20
15.58320862213879
 11
-10.62015167592823
 21
30.66292350577739
  0
LINE
  5
1C6
100
AcDbEntity
  8
0
  6
CONTINUOUS
 62
    7
370
   -3
100
AcDbLine
 10
-10.88286360983657
 20
31.47146769978653
 11
-12.95509009235166
 21
37.84912503032182
  0
LINE
  5
1C7
100
AcDbEntity
  8
0
  6
CONTINUOUS
 62
    7
370
   -3
100
AcDbLine
 10
-4.531634651288606
 20
15.96947986510748
 11
-9.43133103055929
 21
31.04919474874607
  0
LINE
  5
1C8
100
AcDbEntity
  8
0
  6
CONTINUOUS
 62
    7
370
   -3
100
AcDbLine
 10
-9.694042964467622
 20
31.85773894275521
 11
-11.76626944698272
 21
38.2353962732905
  0
LINE
  5
1C9
100
AcDbEntity
  8
0
  6
CONTINUOUS
 62
    7
370
   -3
100
AcDbLine
 10
31.9933139976458
 20
-24.01704571318326
 11
26.56815464265891
 21
-20.07543672057915
  0
LINE
  5
1CA
100
AcDbEntity
  8
0
  6
CONTINUOUS
 62
    7
370
   -3
100
AcDbLine
 10
32.72804556301139
 20
-23.00577447021458
 11
27.3028862080245
 21
-19.06416547761046
  0
LINE
  5
1CB
100
AcDbEntity
  8
0
  6
CONTINUOUS
 62
    7
370
   -3
100
AcDbLine
 10
25.88036587043668
 20
-19.57572892727511
 11
13.05279421495123
 21
-10.2559525885288
  0
LINE
  5
1CC
100
AcDbEntity
  8
0
  6
CONTINUOUS
 62
    7
370
   -3
100
AcDbLine
 10
26.61509743580227
 20
-18.56445768430642
 11
13.78752578031682
 21
-9.244681345560114
  0
LINE
  5
1CD
100
AcDbEntity
  8
0
  6
CONTINUOUS
 62
    7
370
   -3
100
AcDbLine
 10
12.36461548291021
 20
-9.755961472832189
 11
9.732697855662531
 21
-7.843761386429788
  0
LINE
  5
1CE
100
AcDbEntity
  8
0
  6
CONTINUOUS
 62
    7
370
   -3
100
AcDbLine
 10
9.044109250983764
 20
-7.343472480830793
 11
5.679156829670426
 21
-4.898691442032039
  0
LINE
  5
1CF
100
AcDbEntity
  8
0
  6
CONTINUOUS
 62
    7
370
   -3
100
AcDbLine
 10
13.0993470482758
 20
-8.744690229863505
 11
10.46742942102812
 21
-6.832490143461103
  0
LINE
  5
1D0
100
AcDbEntity
  8
0
  6
CONTINUOUS
 62
    7
370
   -3
100
AcDbLine
 10
9.778840816349355
 20
-6.332201237862108
 11
6.413888395036011
 21
-3.88742019906335
  0
LINE
  5
1D1
100
AcDbEntity
  8
0
  6
CONTINUOUS
 62
    7
370
   -3
100
AcDbLine
 10
-6.413888375749349
 20
3.887420192796756
 11
-9.77884079706269
 21
6.332201231595512
  0
LINE
  5
1D2
100
AcDbEntity
  8
0
  6
CONTINUOUS
 62
    7
370
   -3
100
AcDbLine
 10
-5.679156810383756
 20
4.898691435765439
 11
-9.044109231697099
 21
7.343472474564197
  0
LINE
  5
1D3
100
AcDbEntity
  8
0
  6
CONTINUOUS
 62
    7
370
   -3
100
AcDbLine
 10
-10.46742940174146
 20
6.832490137194506
 11
-13.09934702898914
 21
8.744690223596908
  0
LINE
  5
1D4
100
AcDbEntity
  8
0
  6
CONTINUOUS
 62
    7
370
   -3
100
AcDbLine
 10
-9.732697836375866
 20
7.843761380163191
 11
-12.36461546362355
 21
9.755961466565592
  0
LINE
  5
1D5
100
AcDbEntity
  8
0
  6
CONTINUOUS
 62
    7
370
   -3
100
AcDbLine
 10
-13.78752576103016
 20
9.244681339293514
 11
-26.61509741651561
 21
18.56445767803983
  0
LINE
  5
1D6
100
AcDbEntity
  8
0
  6
CONTINUOUS
 62
    7
370
   -3
100
AcDbLine
 10
-27.30288618873783
 20
19.06416547134387
 11
-32.72804555234999
 21
23.0057744702146
  0
LINE
  5
1D7
100
AcDbEntity
  8
0
  6
CONTINUOUS
 62
    7
370
   -3
100
AcDbLine
 10
-13.05279419566457
 20
10.2559525822622
 11
-25.88036585115001
 21
19.57572892100852
  0
LINE
  5
1D8
100
AcDbEntity
  8
0
  6
CONTINUOUS
 62
    7
370
   -3
100
AcDbLine
 10
-26.56815462337224
 20
20.07543671431256
 11
-31.99331398698439
 21
24.01704571318329
  0
ARC
  5
1D9
100
AcDbEntity
  8
0
  6
CONTINUOUS
 62
    7
370
   -3
100
AcDbCircle
 10
0
 20
0
 40
16.6
100
AcDbArc
 50
74.15773058984966
 51
105.8422693751281
  0
ARC
  5
1DA
100
AcDbEntity
  8
0
  6
CONTINUOUS
 62
    7
370
   -3
100
AcDbCircle
 10
0
 20
0
 40
15.75
100
AcDbArc
 50
74.27423916780752
 51
105.7257607952772
  0
ARC
  5
1DB
100
AcDbEntity
  8
0
  6
CONTINUOUS
 62
    7
370
   -3
100
AcDbCircle
 10
0
 20
0
 40
12.5
100
AcDbArc
 50
74.86598395933147
 51
105.1340159941337
  0
ARC
  5
1DC
100
AcDbEntity
  8
0
  6
CONTINUOUS
 62
    7
370
   -3
100
AcDbCircle
 10
0
 20
0
 40
11.65
100
AcDbArc
 50
75.0752842640027
 51
104.9247156860578
  0
ARC
  5
1DD
100
AcDbEntity
  8
0
  6
CONTINUOUS
 62
    7
370
   -3
100
AcDbCircle
 10
0
 20
0
 40
16.6
100
AcDbArc
 50
146.1577305965383
 51
177.8422693926393
  0
ARC
  5
1DE
100
AcDbEntity
  8
0
  6
CONTINUOUS
 62
    7
370
   -3
100
AcDbCircle
 10
0
 20
0
 40
16.6
100
AcDbArc
 50
110.1577305898497
 51
141.8422693818167
  0
ARC
  5
1DF
100
AcDbEntity
  8
0
  6
CONTINUOUS
 62
    7
370
   -3
100
AcDbCircle
 10
0
 20
0
 40
15.75
100
AcDbArc
 50
146.2742391748577
 51
177.7257608137349
  0
ARC
  5
1E0
100
AcDbEntity
  8
0
  6
CONTINUOUS
 62
    7
370
   -3
100
AcDbCircle
 10
0
 20
0
 40
15.75
100
AcDbArc
 50
110.2742391678075
 51
141.7257608023274
  0
ARC
  5
1E1
100
AcDbEntity
  8
0
  6
CONTINUOUS
 62
    7
370
   -3
100
AcDbCircle
 10
0
 20
0
 40
12.5
100
AcDbArc
 50
146.8659839682188
 51
177.1340160174012
  0
ARC
  5
1E2
100
AcDbEntity
  8
0
  6
CONTINUOUS
 62
    7
370
   -3
100
AcDbCircle
 10
0
 20
0
 40
12.5
100
AcDbArc
 50
110.8659839593315
 51
141.1340160030211
  0
ARC
  5
1E3
100
AcDbEntity
  8
0
  6
CONTINUOUS
 62
    7
370
   -3
100
AcDbCircle
 10
0
 20
0
 40
11.65
100
AcDbArc
 50
147.0752842735403
 51
176.9247157110276
  0
ARC
  5
1E4
100
AcDbEntity
  8
0
  6
CONTINUOUS
 62
    7
370
   -3
100
AcDbCircle
 10
0
 20
0
 40
11.65
100
AcDbArc
 50
111.0752842640027
 51
140.9247156955954
  0
ARC
  5
1E5
100
AcDbEntity
  8
0
  6
CONTINUOUS
 62
    7
370
   -3
100
AcDbCircle
 10
0
 20
0
 40
16.6
100
AcDbArc
 50
38.15773059653829
 51
69.84226937512808
  0
ARC
  5
1E6
100
AcDbEntity
  8
0
  6
CONTINUOUS
 62
    7
370
   -3
100
AcDbCircle
 10
0
 20
0
 40
16.6
100
AcDbArc
 50
2.157730607360757
 51
33.84226938181673
  0
ARC
  5
1E7
100
AcDbEntity
  8
0
  6
CONTINUOUS
 62
    7
370
   -3
100
AcDbCircle
 10
0
 20
0
 40
15.75
100
AcDbArc
 50
38.27423917485769
 51
69.72576079527724
  0
ARC
  5
1E8
100
AcDbEntity
  8
0
  6
CONTINUOUS
 62
    7
370
   -3
100
AcDbCircle
 10
0
 20
0
 40
15.75
100
AcDbArc
 50
2.274239186265119
 51
33.7257608023274
  0
ARC
  5
1E9
100
AcDbEntity
  8
0
  6
CONTINUOUS
 62
    7
370
   -3
100
AcDbCircle
 10
0
 20
0
 40
12.5
100
AcDbArc
 50
38.8659839682188
 51
69.13401599413375
  0
ARC
  5
1EA
100
AcDbEntity
  8
0
  6
CONTINUOUS
 62
    7
370
   -3
100
AcDbCircle
 10
0
 20
0
 40
12.5
100
AcDbArc
 50
2.865983982598827
 51
33.1340160030211
  0
ARC
  5
1EB
100
AcDbEntity
  8
0
  6
CONTINUOUS
 62
    7
370
   -3
100
AcDbCircle
 10
0
 20
0
 40
11.65
100
AcDbArc
 50
39.07528427354029
 51
68.92471568605781
  0
ARC
  5
1EC
100
AcDbEntity
  8
0
  6
CONTINUOUS
 62
    7
370
   -3
100
AcDbCircle
 10
0
 20
0
 40
11.65
100
AcDbArc
 50
3.07528428897239
 51
32.92471569559538
  0
ARC
  5
1ED
100
AcDbEntity
  8
0
  6
CONTINUOUS
 62
    7
370
   -3
100
AcDbCircle
 10
0
 20
0
 40
16.6
100
AcDbArc
 50
182.1577306073608
 51
213.8422694034617
  0
ARC
  5
1EE
100
AcDbEntity
  8
0
  6
CONTINUOUS
 62
    7
370
   -3
100
AcDbCircle
 10
0
 20
0
 40
15.75
100
AcDbArc
 50
182.2742391862652
 51
213.7257608251423
  0
ARC
  5
1EF
100
AcDbEntity
  8
0
  6
CONTINUOUS
 62
    7
370
   -3
100
AcDbCircle
 10
0
 20
0
 40
12.5
100
AcDbArc
 50
182.8659839825989
 51
213.1340160317812
  0
ARC
  5
1F0
100
AcDbEntity
  8
0
  6
CONTINUOUS
 62
    7
370
   -3
100
AcDbCircle
 10
0
 20
0
 40
11.65
100
AcDbArc
 50
183.0752842889725
 51
212.9247157264597
  0
ARC
  5
1F1
100
AcDbEntity
  8
0
  6
CONTINUOUS
 62
    7
370
   -3
100
AcDbCircle
 10
0
 20
0
 40
11.65
100
AcDbArc
 50
219.0752843044046
 51
248.9247157359973
  0
ARC
  5
1F2
100
AcDbEntity
  8
0
  6
CONTINUOUS
 62
    7
370
   -3
100
AcDbCircle
 10
0
 20
0
 40
12.5
100
AcDbArc
 50
218.8659839969789
 51
249.1340160406685
  0
ARC
  5
1F3
100
AcDbEntity
  8
0
  6
CONTINUOUS
 62
    7
370
   -3
100
AcDbCircle
 10
0
 20
0
 40
15.75
100
AcDbArc
 50
218.2742391976726
 51
249.7257608321925
  0
ARC
  5
1F4
100
AcDbEntity
  8
0
  6
CONTINUOUS
 62
    7
370
   -3
100
AcDbCircle
 10
0
 20
0
 40
16.6
100
AcDbArc
 50
218.1577306181833
 51
249.8422694101503
  0
ARC
  5
1F5
100
AcDbEntity
  8
0
  6
CONTINUOUS
 62
    7
370
   -3
100
AcDbCircle
 10
0
 20
0
 40
11.65
100
AcDbArc
 50
255.0752843139421
 51
284.9247157359973
  0
ARC
  5
1F6
100
AcDbEntity
  8
0
  6
CONTINUOUS
 62
    7
370
   -3
100
AcDbCircle
 10
0
 20
0
 40
12.5
100
AcDbArc
 50
254.8659840058662
 51
285.1340160406685
  0
ARC
  5
1F7
100
AcDbEntity
  8
0
  6
CONTINUOUS
 62
    7
370
   -3
100
AcDbCircle
 10
0
 20
0
 40
15.75
100
AcDbArc
 50
254.2742392047227
 51
285.7257608321925
  0
ARC
  5
1F8
100
AcDbEntity
  8
0
  6
CONTINUOUS
 62
    7
370
   -3
100
AcDbCircle
 10
0
 20
0
 40
16.6
100
AcDbArc
 50
254.1577306248719
 51
285.8422694101503
  0
ARC
  5
1F9
100
AcDbEntity
  8
0
  6
CONTINUOUS
 62
    7
370
   -3
100
AcDbCircle
 10
0
 20
0
 40
11.65
100
AcDbArc
 50
327.0752843044046
 51
356.9247157110275
  0
ARC
  5
1FA
100
AcDbEntity
  8
0
  6
CONTINUOUS
 62
    7
370
   -3
100
AcDbCircle
 10
0
 20
0
 40
11.65
100
AcDbArc
 50
291.0752843139422
 51
320.9247157264597
  0
ARC
  5
1FB
100
AcDbEntity
  8
0
  6
CONTINUOUS
 62
    7
370
   -3
100
AcDbCircle
 10
0
 20
0
 40
12.5
100
AcDbArc
 50
326.8659839969789
 51
357.1340160174011
  0
ARC
  5
1FC
100
AcDbEntity
  8
0
  6
CONTINUOUS
 62
    7
370
   -3
100
AcDbCircle
 10
0
 20
0
 40
12.5
100
AcDbArc
 50
290.8659840058662
 51
321.1340160317811
  0
ARC
  5
1FD
100
AcDbEntity
  8
0
  6
CONTINUOUS
 62
    7
370
   -3
100
AcDbCircle
 10
0
 20
0
 40
15.75
100
AcDbArc
 50
326.2742391976726
 51
357.7257608137348
  0
ARC
  5
1FE
100
AcDbEntity
  8
0
  6
CONTINUOUS
 62
    7
370
   -3
100
AcDbCircle
 10
0
 20
0
 40
15.75
100
AcDbArc
 50
290.2742392047227
 51
321.7257608251422
  0
ARC
  5
1FF
100
AcDbEntity
  8
0
  6
CONTINUOUS
 62
    7
370
   -3
100
AcDbCircle
 10
0
 20
0
 40
16.6
100
AcDbArc
 50
326.1577306181832
 51
357.8422693926391
  0
ARC
  5
200
100
AcDbEntity
  8
0
  6
CONTINUOUS
 62
    7
370
   -3
100
AcDbCircle
 10
0
 20
0
 40
16.6
100
AcDbArc
 50
290.1577306248719
 51
321.8422694034617
  0
ARC
  5
201
100
AcDbEntity
  8
0
  6
CONTINUOUS
 62
    7
370
   -3
100
AcDbCircle
 10
0
 20
0
 40
7.5
100
AcDbArc
 50
112.7801918083335
 51
139.2198081287805
  0
ARC
  5
202
100
AcDbEntity
  8
0
  6
CONTINUOUS
 62
    7
370
   -3
100
AcDbCircle
 10
0
 20
0
 40
7.5
100
AcDbArc
 50
76.7801918083335
 51
103.2198081139352
  0
ARC
  5
203
100
AcDbEntity
  8
0
  6
CONTINUOUS
 62
    7
370
   -3
100
AcDbCircle
 10
0
 20
0
 40
7.5
100
AcDbArc
 50
40.78019182317882
 51
67.21980811393517
  0
ARC
  5
204
100
AcDbEntity
  8
0
  6
CONTINUOUS
 62
    7
370
   -3
100
AcDbCircle
 10
0
 20
0
 40
7.5
100
AcDbArc
 50
4.780191847199084
 51
31.2198081287805
  0
ARC
  5
205
100
AcDbEntity
  8
0
  6
CONTINUOUS
 62
    7
370
   -3
100
AcDbCircle
 10
0
 20
0
 40
7.5
100
AcDbArc
 50
328.7801918712195
 51
355.2198081528007
  0
ARC
  5
206
100
AcDbEntity
  8
0
  6
CONTINUOUS
 62
    7
370
   -3
100
AcDbCircle
 10
0
 20
0
 40
7.5
100
AcDbArc
 50
148.7801918231788
 51
175.2198081528009
  0
ARC
  5
207
100
AcDbEntity
  8
0
  6
CONTINUOUS
 62
    7
370
   -3
100
AcDbCircle
 10
0
 20
0
 40
7.5
100
AcDbArc
 50
184.7801918471992
 51
211.2198081768212
  0
ARC
  5
208
100
AcDbEntity
  8
0
  6
CONTINUOUS
 62
    7
370
   -3
100
AcDbCircle
 10
0
 20
0
 40
7.5
100
AcDbArc
 50
220.7801918712195
 51
247.2198081916665
  0
ARC
  5
209
100
AcDbEntity
  8
0
  6
CONTINUOUS
 62
    7
370
   -3
100
AcDbCircle
 10
0
 20
0
 40
7.5
100
AcDbArc
 50
292.7801918860648
 51
319.2198081768212
  0
ARC
  5
20A
100
AcDbEntity
  8
0
  6
CONTINUOUS
 62
    7
370
   -3
100
AcDbCircle
 10
0
 20
0
 40
7.5
100
AcDbArc
 50
256.7801918860648
 51
283.2198081916665
  0
CIRCLE
  5
20B
100
AcDbEntity
  8
0
  6
ByLayer
 62
  256
370
   -1
100
AcDbCircle
 10
55.34509229743566
 20
-43.64746697730477
 40
7.5
  0
LINE
  5
20C
100
AcDbEntity
  8
0
  6
ByLayer
 62
  256
370
   -1
100
AcDbLine
 10
61.84509229744279
 20
-42.14746697730431
 11
61.84509229744279
 21
-45.14746697730431
  0
LINE
  5
20D
100
AcDbEntity
  8
0
  6
ByLayer
 62
  256
370
   -1
100
AcDbLine
 10
61.84509229744279
 20
-45.14746697730431
 11
48.84509229744279
 21
-45.14746697730431
  0
LINE
  5
20E
100
AcDbEntity
  8
0
  6
ByLayer
 62
  256
370
   -1
100
AcDbLine
 10
48.84509229744279
 20
-45.14746697730431
 11
48.84509229744279
 21
-42.14746697730431
  0
LINE
  5
20F
100
AcDbEntity
  8
0
  6
ByLayer
 62
  256
370
   -1
100
AcDbLine
 10
48.84509229744279
 20
-42.14746697730431
 11
61.84509229744279
 21
-42.14746697730431
  0
LINE
  5
210
100
AcDbEntity
  8
0
  6
CONTINUOUS
 62
    7
370
   -3
100
AcDbLine
 10
55.34077759161303
 20
-45.14746697730431
 11
55.34509229743566
 21
-45.16074627638238
  0
LINE
  5
211
100
AcDbEntity
  8
0
  6
CONTINUOUS
 62
    7
370
   -3
100
AcDbLine
 10
55.34509229743566
 20
-45.16074627638238
 11
55.34940700325828
 21
-45.1474669773043
  0
LWPOLYLINE
  5
212
100
AcDbEntity
  8
0
  6
ByLayer
 62
  256
370
   -1
100
AcDbPolyline
 90
   12
 70
    1
 43
0
 10
38.8450922974362
 20
-42.1474669773043
 10
38.8450922974362
 20
-37.14746697731276
 10
41.8450922974362
 20
-37.14746697731276
 10
41.8450922974362
 20
-42.1474669773043
 10
46.84509229744279
 20
-42.1474669773043
 10
46.84509229744279
 20
-45.1474669773043
 10
41.8450922974362
 20
-45.1474669773043
 10
41.8450922974362
 20
-50.14746697731276
 10
38.8450922974362
 20
-50.14746697731276
 10
38.8450922974362
 20
-45.1474669773043
 10
33.84509229744279
 20
-45.1474669773043
 10
33.84509229744279
 20
-42.1474669773043
  0
CIRCLE
  5
213
100
AcDbEntity
  8
0
  6
ByLayer
 62
  256
370
   -1
100
AcDbCircle
 10
40.34509229743566
 20
-43.64746697730477
 40
7.5
  0
CIRCLE
  5
214
100
AcDbEntity
  8
0
  6
ByLayer
 62
  256
370
   -1
100
AcDbCircle
 10
102.0000000053307
 20
-1.87370960269545e-14
 40
51
  0
LINE
  5
215
100
AcDbEntity
  8
0
  6
CONTINUOUS
 62
    7
370
   -3
100
AcDbLine
 10
85.40853891414446
 20
0.5323709793491944
 11
69.554367307842
 21
0.5323709793491944
  0
LINE
  5
216
100
AcDbEntity
  8
0
  6
CONTINUOUS
 62
    7
370
   -3
100
AcDbLine
 10
69.55336962405619
 20
-0.4676290206508054
 11
85.40658796623984
 21
-0.4676290206508054
  0
LINE
  5
217
100
AcDbEntity
  8
0
  6
CONTINUOUS
 62
    7
370
   -3
100
AcDbLine
 10
89.5113419052646
 20
0.5323709793491944
 11
86.2590000008727
 21
0.5323709793491944
  0
LINE
  5
218
100
AcDbEntity
  8
0
  6
CONTINUOUS
 62
    7
370
   -3
100
AcDbLine
 10
86.25694365978441
 20
-0.4676290206508054
 11
89.50875014396593
 21
-0.4676290206508054
  0
LINE
  5
219
100
AcDbEntity
  8
0
  6
CONTINUOUS
 62
    7
370
   -3
100
AcDbLine
 10
90.359389063501
 20
-0.4676290206508054
 11
94.51459266176914
 21
-0.4676290206508055
  0
LINE
  5
21A
100
AcDbEntity
  8
0
  6
CONTINUOUS
 62
    7
370
   -3
100
AcDbLine
 10
94.51891845649388
 20
0.5323709793491945
 11
90.36217026175967
 21
0.5323709793491944
  0
ARC
  5
21B
100
AcDbEntity
  8
0
  6
CONTINUOUS
 62
    7
370
   -3
100
AcDbCircle
 10
102.0000000053307
 20
-1.87370960269545e-14
 40
32.45
100
AcDbArc
 50
144.9400301611586
 51
179.0599698388414
  0
LINE
  5
21C
100
AcDbEntity
  8
0
  6
CONTINUOUS
 62
    7
370
   -3
100
AcDbLine
 10
88.85051311292287
 20
10.13168270655937
 11
76.02499005855967
 21
19.44997064946745
  0
ARC
  5
21D
100
AcDbEntity
  8
0
  6
CONTINUOUS
 62
    7
370
   -3
100
AcDbCircle
 10
102.0000000053307
 20
-1.87370960269545e-14
 40
16.6
100
AcDbArc
 50
145.8378217728238
 51
178.1621782271762
  0
ARC
  5
21E
100
AcDbEntity
  8
0
  6
CONTINUOUS
 62
    7
370
   -3
100
AcDbCircle
 10
102.0000000053307
 20
-1.87370960269545e-14
 40
15.75
100
AcDbArc
 50
145.9370426411687
 51
178.0629573588313
  0
LINE
  5
21F
100
AcDbEntity
  8
0
  6
CONTINUOUS
 62
    7
370
   -3
100
AcDbLine
 10
75.43801194940491
 20
18.64036723127675
 11
88.26430621064037
 21
9.321518973778092
  0
ARC
  5
220
100
AcDbEntity
  8
0
  6
CONTINUOUS
 62
    7
370
   -3
100
AcDbCircle
 10
102.0000000053307
 20
-1.87370960269545e-14
 40
12.5
100
AcDbArc
 50
146.4409471309066
 51
177.5590528690933
  0
LINE
  5
221
100
AcDbEntity
  8
0
  6
CONTINUOUS
 62
    7
370
   -3
100
AcDbLine
 10
96.21904369645287
 20
4.778131868716645
 11
92.85741337036603
 21
7.220499264051278
  0
LINE
  5
222
100
AcDbEntity
  8
0
  6
CONTINUOUS
 62
    7
370
   -3
100
AcDbLine
 10
92.16923202838541
 20
7.720492275979997
 11
89.5384653202639
 21
9.631856170690934
  0
ARC
  5
223
100
AcDbEntity
  8
0
  6
CONTINUOUS
 62
    7
370
   -3
100
AcDbCircle
 10
102.0000000053307
 20
-1.87370960269545e-14
 40
11.65
100
AcDbArc
 50
146.6191619126891
 51
177.3808380873109
  0
LINE
  5
224
100
AcDbEntity
  8
0
  6
CONTINUOUS
 62
    7
370
   -3
100
AcDbLine
 10
88.9523436828581
 20
8.821630489350605
 11
91.58354355502891
 21
6.909951882536236
  0
LINE
  5
225
100
AcDbEntity
  8
0
  6
CONTINUOUS
 62
    7
370
   -3
100
AcDbLine
 10
92.27187815472954
 20
6.409847522356194
 11
95.6347580856069
 21
3.966572235998057
  0
ARC
  5
226
100
AcDbEntity
  8
0
  6
CONTINUOUS
 62
    7
370
   -3
100
AcDbCircle
 10
102.0000000053307
 20
-1.87370960269545e-14
 40
32.45
100
AcDbArc
 50
108.8257040586595
 51
143.1742959413405
  0
ARC
  5
227
100
AcDbEntity
  8
0
  6
CONTINUOUS
 62
    7
370
   -3
100
AcDbCircle
 10
102.0000000053307
 20
-1.87370960269545e-14
 40
16.6
100
AcDbArc
 50
109.6142598944951
 51
142.3857401055049
  0
LINE
  5
228
100
AcDbEntity
  8
0
  6
CONTINUOUS
 62
    7
370
   -3
100
AcDbLine
 10
97.37927145563995
 20
15.94392886556109
 11
92.48006299755573
 21
31.02214208219664
  0
LINE
  5
229
100
AcDbEntity
  8
0
  6
CONTINUOUS
 62
    7
370
   -3
100
AcDbLine
 10
91.52869818001574
 20
30.71407394148739
 11
96.42761206328711
 21
15.63676733290378
  0
ARC
  5
22A
100
AcDbEntity
  8
0
  6
CONTINUOUS
 62
    7
370
   -3
100
AcDbCircle
 10
102.0000000053307
 20
-1.87370960269545e-14
 40
15.75
100
AcDbArc
 50
109.7014036421083
 51
142.2985963578917
  0
ARC
  5
22B
100
AcDbEntity
  8
0
  6
CONTINUOUS
 62
    7
370
   -3
100
AcDbCircle
 10
102.0000000053307
 20
-1.87370960269545e-14
 40
12.5
100
AcDbArc
 50
110.1439538280593
 51
141.8560461719407
  0
LINE
  5
22C
100
AcDbEntity
  8
0
  6
CONTINUOUS
 62
    7
370
   -3
100
AcDbLine
 10
100.1945335594318
 20
7.279443035887623
 11
98.91002772592151
 21
11.23274549308771
  0
LINE
  5
22D
100
AcDbEntity
  8
0
  6
CONTINUOUS
 62
    7
370
   -3
100
AcDbLine
 10
98.64710730446842
 20
12.04193134578104
 11
97.64207838449354
 21
15.13509230717275
  0
LINE
  5
22E
100
AcDbEntity
  8
0
  6
CONTINUOUS
 62
    7
370
   -3
100
AcDbLine
 10
96.6903864238559
 20
14.82803100938954
 11
97.69524988988664
 21
11.73537926287787
  0
LINE
  5
22F
100
AcDbEntity
  8
0
  6
CONTINUOUS
 62
    7
370
   -3
100
AcDbLine
 10
97.9581117720997
 20
10.92637357543977
 11
99.24214029905249
 21
6.974540116773784
  0
ARC
  5
230
100
AcDbEntity
  8
0
  6
CONTINUOUS
 62
    7
370
   -3
100
AcDbCircle
 10
102.0000000053307
 20
-1.87370960269545e-14
 40
11.65
100
AcDbArc
 50
110.3004608899916
 51
141.6995391100084
  0
ARC
  5
231
100
AcDbEntity
  8
0
  6
CONTINUOUS
 62
    7
370
   -3
100
AcDbCircle
 10
102.0000000053307
 20
-1.87370960269545e-14
 40
11.65
100
AcDbArc
 50
74.61916191268911
 51
105.3808380873109
  0
LINE
  5
232
100
AcDbEntity
  8
0
  6
CONTINUOUS
 62
    7
370
   -3
100
AcDbLine
 10
105.0899722847399
 20
11.23274549308771
 11
103.8054664512296
 21
7.279443035887623
  0
ARC
  5
233
100
AcDbEntity
  8
0
  6
CONTINUOUS
 62
    7
370
   -3
100
AcDbCircle
 10
102.0000000053307
 20
-1.87370960269545e-14
 40
12.5
100
AcDbArc
 50
74.44094713090669
 51
105.5590528690933
  0
LINE
  5
234
100
AcDbEntity
  8
0
  6
CONTINUOUS
 62
    7
370
   -3
100
AcDbLine
 10
104.7578597116089
 20
6.974540116773781
 11
106.0418882385617
 21
10.92637357543977
  0
ARC
  5
235
100
AcDbEntity
  8
0
  6
CONTINUOUS
 62
    7
370
   -3
100
AcDbCircle
 10
102.0000000053307
 20
-1.87370960269545e-14
 40
16.6
100
AcDbArc
 50
73.83782177282379
 51
106.1621782271762
  0
LINE
  5
236
100
AcDbEntity
  8
0
  6
CONTINUOUS
 62
    7
370
   -3
100
AcDbLine
 10
106.3579216261678
 20
15.13509230717275
 11
105.352892706193
 21
12.04193134578104
  0
LINE
  5
237
100
AcDbEntity
  8
0
  6
CONTINUOUS
 62
    7
370
   -3
100
AcDbLine
 10
106.3047501207748
 20
11.73537926287786
 11
107.3096135868055
 21
14.82803100938954
  0
ARC
  5
238
100
AcDbEntity
  8
0
  6
CONTINUOUS
 62
    7
370
   -3
100
AcDbCircle
 10
102.0000000053307
 20
-1.87370960269545e-14
 40
15.75
100
AcDbArc
 50
73.93704264116873
 51
106.0629573588313
  0
ARC
  5
239
100
AcDbEntity
  8
0
  6
CONTINUOUS
 62
    7
370
   -3
100
AcDbCircle
 10
102.0000000053307
 20
-1.87370960269545e-14
 40
32.45
100
AcDbArc
 50
72.94003016115859
 51
107.0599698388414
  0
LINE
  5
23A
100
AcDbEntity
  8
0
  6
CONTINUOUS
 62
    7
370
   -3
100
AcDbLine
 10
111.5199370131057
 20
31.02214208219665
 11
106.6207285550215
 21
15.94392886556109
  0
LINE
  5
23B
100
AcDbEntity
  8
0
  6
CONTINUOUS
 62
    7
370
   -3
100
AcDbLine
 10
107.5723879473743
 20
15.63676733290378
 11
112.4713018306456
 21
30.71407394148739
  0
LINE
  5
23C
100
AcDbEntity
  8
0
  6
CONTINUOUS
 62
    7
370
   -3
100
AcDbLine
 10
111.1425866402954
 20
7.22049926405128
 11
107.7809563142085
 21
4.778131868716641
  0
ARC
  5
23D
100
AcDbEntity
  8
0
  6
CONTINUOUS
 62
    7
370
   -3
100
AcDbCircle
 10
102.0000000053307
 20
-1.87370960269545e-14
 40
11.65
100
AcDbArc
 50
38.30046088999166
 51
69.69953911000837
  0
ARC
  5
23E
100
AcDbEntity
  8
0
  6
CONTINUOUS
 62
    7
370
   -3
100
AcDbCircle
 10
102.0000000053307
 20
-1.87370960269545e-14
 40
12.5
100
AcDbArc
 50
38.14395382805932
 51
69.8560461719407
  0
LINE
  5
23F
100
AcDbEntity
  8
0
  6
CONTINUOUS
 62
    7
370
   -3
100
AcDbLine
 10
108.3652419250545
 20
3.966572235998057
 11
111.7281218559319
 21
6.40984752235619
  0
LINE
  5
240
100
AcDbEntity
  8
0
  6
CONTINUOUS
 62
    7
370
   -3
100
AcDbLine
 10
114.4615346903975
 20
9.631856170690929
 11
111.830767982276
 21
7.720492275979995
  0
ARC
  5
241
100
AcDbEntity
  8
0
  6
CONTINUOUS
 62
    7
370
   -3
100
AcDbCircle
 10
102.0000000053307
 20
-1.87370960269545e-14
 40
15.75
100
AcDbArc
 50
37.70140364210834
 51
70.29859635789167
  0
ARC
  5
242
100
AcDbEntity
  8
0
  6
CONTINUOUS
 62
    7
370
   -3
100
AcDbCircle
 10
102.0000000053307
 20
-1.87370960269545e-14
 40
16.6
100
AcDbArc
 50
37.61425989449513
 51
70.38574010550489
  0
LINE
  5
243
100
AcDbEntity
  8
0
  6
CONTINUOUS
 62
    7
370
   -3
100
AcDbLine
 10
112.4164564556325
 20
6.909951882536233
 11
115.0476563278033
 21
8.821630489350607
  0
LINE
  5
244
100
AcDbEntity
  8
0
  6
CONTINUOUS
 62
    7
370
   -3
100
AcDbLine
 10
127.9750099521017
 20
19.44997064946744
 11
115.1494868977385
 21
10.13168270655936
  0
ARC
  5
245
100
AcDbEntity
  8
0
  6
CONTINUOUS
 62
    7
370
   -3
100
AcDbCircle
 10
102.0000000053307
 20
-1.87370960269545e-14
 40
32.45
100
AcDbArc
 50
36.82570405865946
 51
71.17429594134053
  0
LINE
  5
246
100
AcDbEntity
  8
0
  6
CONTINUOUS
 62
    7
370
   -3
100
AcDbLine
 10
115.735693800021
 20
9.32151897377809
 11
128.5619880612565
 21
18.64036723127674
  0
ARC
  5
247
100
AcDbEntity
  8
0
  6
CONTINUOUS
 62
    7
370
   -3
100
AcDbCircle
 10
102.0000000053307
 20
-1.87370960269545e-14
 40
11.65
100
AcDbArc
 50
2.619161912689076
 51
33.38083808731092
  0
ARC
  5
248
100
AcDbEntity
  8
0
  6
CONTINUOUS
 62
    7
370
   -3
100
AcDbCircle
 10
102.0000000053307
 20
-1.87370960269545e-14
 40
12.5
100
AcDbArc
 50
2.440947130906674
 51
33.55905286909333
  0
LINE
  5
249
100
AcDbEntity
  8
0
  6
CONTINUOUS
 62
    7
370
   -3
100
AcDbLine
 10
113.6378297489017
 20
0.532370979349187
 11
109.4810815541675
 21
0.5323709793491859
  0
LINE
  5
24A
100
AcDbEntity
  8
0
  6
CONTINUOUS
 62
    7
370
   -3
100
AcDbLine
 10
109.4854073488922
 20
-0.4676290206508026
 11
113.6406109471604
 21
-0.467629020650803
  0
LINE
  5
24B
100
AcDbEntity
  8
0
  6
CONTINUOUS
 62
    7
370
   -3
100
AcDbLine
 10
117.7410000097887
 20
0.532370979349188
 11
114.4886581053968
 21
0.5323709793491872
  0
ARC
  5
24C
100
AcDbEntity
  8
0
  6
CONTINUOUS
 62
    7
370
   -3
100
AcDbCircle
 10
102.0000000053307
 20
-1.87370960269545e-14
 40
15.75
100
AcDbArc
 50
1.937042641168695
 51
34.06295735883131
  0
ARC
  5
24D
100
AcDbEntity
  8
0
  6
CONTINUOUS
 62
    7
370
   -3
100
AcDbCircle
 10
102.0000000053307
 20
-1.87370960269545e-14
 40
16.6
100
AcDbArc
 50
1.837821772823794
 51
34.16217822717621
  0
LINE
  5
24E
100
AcDbEntity
  8
0
  6
CONTINUOUS
 62
    7
370
   -3
100
AcDbLine
 10
114.4912498666955
 20
-0.4676290206508031
 11
117.743056350877
 21
-0.4676290206508034
  0
LINE
  5
24F
100
AcDbEntity
  8
0
  6
CONTINUOUS
 62
    7
370
   -3
100
AcDbLine
 10
134.4456327028194
 20
0.5323709793491922
 11
118.5914610965169
 21
0.5323709793491882
  0
ARC
  5
250
100
AcDbEntity
  8
0
  6
CONTINUOUS
 62
    7
370
   -3
100
AcDbCircle
 10
102.0000000053307
 20
-1.87370960269545e-14
 40
32.45
100
AcDbArc
 50
0.9400301611585877
 51
35.05996983884141
  0
LINE
  5
251
100
AcDbEntity
  8
0
  6
CONTINUOUS
 62
    7
370
   -3
100
AcDbLine
 10
118.5934120444215
 20
-0.4676290206508035
 11
134.4466303866052
 21
-0.4676290206508047
  0
ARC
  5
252
100
AcDbEntity
  8
0
  6
CONTINUOUS
 62
    7
370
   -3
100
AcDbCircle
 10
102.0000000053307
 20
-1.87370960269545e-14
 40
32.45
100
AcDbArc
 50
324.8257040586595
 51
359.1742959413406
  0
ARC
  5
253
100
AcDbEntity
  8
0
  6
CONTINUOUS
 62
    7
370
   -3
100
AcDbCircle
 10
102.0000000053307
 20
-1.87370960269545e-14
 40
15.75
100
AcDbArc
 50
325.7014036421083
 51
358.2985963578917
  0
LINE
  5
254
100
AcDbEntity
  8
0
  6
CONTINUOUS
 62
    7
370
   -3
100
AcDbLine
 10
128.5247408358667
 20
-18.69333099992867
 11
115.6992177815036
 21
-9.375043057020589
  0
LINE
  5
255
100
AcDbEntity
  8
0
  6
CONTINUOUS
 62
    7
370
   -3
100
AcDbLine
 10
115.1098541792011
 20
-10.18291331298922
 11
127.9361484404365
 21
-19.50176157048788
  0
ARC
  5
256
100
AcDbEntity
  8
0
  6
CONTINUOUS
 62
    7
370
   -3
100
AcDbCircle
 10
102.0000000053307
 20
-1.87370960269545e-14
 40
16.6
100
AcDbArc
 50
325.6142598944951
 51
358.3857401055049
  0
ARC
  5
257
100
AcDbEntity
  8
0
  6
CONTINUOUS
 62
    7
370
   -3
100
AcDbCircle
 10
102.0000000053307
 20
-1.87370960269545e-14
 40
11.65
100
AcDbArc
 50
326.3004608899917
 51
357.6995391100084
  0
LINE
  5
258
100
AcDbEntity
  8
0
  6
CONTINUOUS
 62
    7
370
   -3
100
AcDbLine
 10
115.0112655741625
 20
-8.875216521152156
 11
112.380498866041
 21
-6.963852626441217
  0
LINE
  5
259
100
AcDbEntity
  8
0
  6
CONTINUOUS
 62
    7
370
   -3
100
AcDbLine
 10
111.6923175240604
 20
-6.4638596145125
 11
108.3306871979735
 21
-4.02149221917787
  0
LINE
  5
25A
100
AcDbEntity
  8
0
  6
CONTINUOUS
 62
    7
370
   -3
100
AcDbLine
 10
107.7394023042346
 20
-4.827966575209181
 11
111.1022822351119
 21
-7.271241861567316
  0
LINE
  5
25B
100
AcDbEntity
  8
0
  6
CONTINUOUS
 62
    7
370
   -3
100
AcDbLine
 10
111.7906168348125
 20
-7.77134622174736
 11
114.4218167069834
 21
-9.683024828561736
  0
ARC
  5
25C
100
AcDbEntity
  8
0
  6
CONTINUOUS
 62
    7
370
   -3
100
AcDbCircle
 10
102.0000000053307
 20
-1.87370960269545e-14
 40
12.5
100
AcDbArc
 50
326.1439538280593
 51
357.8560461719407
  0
ARC
  5
25D
100
AcDbEntity
  8
0
  6
CONTINUOUS
 62
    7
370
   -3
100
AcDbCircle
 10
102.0000000053307
 20
-1.87370960269545e-14
 40
11.65
100
AcDbArc
 50
290.6191619126891
 51
321.3808380873108
  0
LINE
  5
25E
100
AcDbEntity
  8
0
  6
CONTINUOUS
 62
    7
370
   -3
100
AcDbLine
 10
103.8683764570116
 20
-7.263550745661832
 11
105.1524049839644
 21
-11.21538420432782
  0
LINE
  5
25F
100
AcDbEntity
  8
0
  6
CONTINUOUS
 62
    7
370
   -3
100
AcDbLine
 10
106.1026020627329
 20
-10.90372213322588
 11
104.8180962292226
 21
-6.950419676025779
  0
ARC
  5
260
100
AcDbEntity
  8
0
  6
CONTINUOUS
 62
    7
370
   -3
100
AcDbCircle
 10
102.0000000053307
 20
-1.87370960269545e-14
 40
12.5
100
AcDbArc
 50
290.4409471309066
 51
321.5590528690933
  0
ARC
  5
261
100
AcDbEntity
  8
0
  6
CONTINUOUS
 62
    7
370
   -3
100
AcDbCircle
 10
102.0000000053307
 20
-1.87370960269545e-14
 40
15.75
100
AcDbArc
 50
289.9370426411687
 51
322.0629573588313
  0
LINE
  5
262
100
AcDbEntity
  8
0
  6
CONTINUOUS
 62
    7
370
   -3
100
AcDbLine
 10
105.4152668661775
 20
-12.02438989176592
 11
106.4201303322082
 21
-15.11704163827759
  0
LINE
  5
263
100
AcDbEntity
  8
0
  6
CONTINUOUS
 62
    7
370
   -3
100
AcDbLine
 10
107.3705514041608
 20
-14.80606894731091
 11
106.365522484186
 21
-11.7129079859192
  0
ARC
  5
264
100
AcDbEntity
  8
0
  6
CONTINUOUS
 62
    7
370
   -3
100
AcDbCircle
 10
102.0000000053307
 20
-1.87370960269545e-14
 40
16.6
100
AcDbArc
 50
289.8378217728238
 51
322.1621782271762
  0
ARC
  5
265
100
AcDbEntity
  8
0
  6
CONTINUOUS
 62
    7
370
   -3
100
AcDbCircle
 10
102.0000000053307
 20
-1.87370960269545e-14
 40
32.45
100
AcDbArc
 50
288.9400301611586
 51
323.0599698388414
  0
LINE
  5
266
100
AcDbEntity
  8
0
  6
CONTINUOUS
 62
    7
370
   -3
100
AcDbLine
 10
106.682904692777
 20
-15.92577796179184
 11
111.5818185760483
 21
-31.00308457037544
  0
LINE
  5
267
100
AcDbEntity
  8
0
  6
CONTINUOUS
 62
    7
370
   -3
100
AcDbLine
 10
112.5325667910986
 20
-30.6931187223348
 11
107.6333583330145
 21
-15.61490550569925
  0
ARC
  5
268
100
AcDbEntity
  8
0
  6
CONTINUOUS
 62
    7
370
   -3
100
AcDbCircle
 10
102.0000000053307
 20
-1.87370960269545e-14
 40
32.45
100
AcDbArc
 50
252.8257040586595
 51
287.1742959413405
  0
ARC
  5
269
100
AcDbEntity
  8
0
  6
CONTINUOUS
 62
    7
370
   -3
100
AcDbCircle
 10
102.0000000053307
 20
-1.87370960269545e-14
 40
16.6
100
AcDbArc
 50
253.6142598944951
 51
286.3857401055049
  0
ARC
  5
26A
100
AcDbEntity
  8
0
  6
CONTINUOUS
 62
    7
370
   -3
100
AcDbCircle
 10
102.0000000053307
 20
-1.87370960269545e-14
 40
15.75
100
AcDbArc
 50
253.7014036421083
 51
286.2985963578917
  0
LINE
  5
26B
100
AcDbEntity
  8
0
  6
CONTINUOUS
 62
    7
370
   -3
100
AcDbLine
 10
96.36664167764692
 20
-15.61490550569925
 11
91.46743321956271
 21
-30.6931187223348
  0
LINE
  5
26C
100
AcDbEntity
  8
0
  6
CONTINUOUS
 62
    7
370
   -3
100
AcDbLine
 10
92.41818143461305
 20
-31.00308457037545
 11
97.31709531788442
 21
-15.92577796179183
  0
ARC
  5
26D
100
AcDbEntity
  8
0
  6
CONTINUOUS
 62
    7
370
   -3
100
AcDbCircle
 10
102.0000000053307
 20
-1.87370960269545e-14
 40
32.45
100
AcDbArc
 50
216.9400301611586
 51
251.0599698388414
  0
ARC
  5
26E
100
AcDbEntity
  8
0
  6
CONTINUOUS
 62
    7
370
   -3
100
AcDbCircle
 10
102.0000000053307
 20
-1.87370960269545e-14
 40
32.45
100
AcDbArc
 50
180.8257040586594
 51
215.1742959413405
  0
LINE
  5
26F
100
AcDbEntity
  8
0
  6
CONTINUOUS
 62
    7
370
   -3
100
AcDbLine
 10
88.30078222915785
 20
-9.375043057020594
 11
75.47525917479464
 21
-18.69333099992867
  0
ARC
  5
270
100
AcDbEntity
  8
0
  6
CONTINUOUS
 62
    7
370
   -3
100
AcDbCircle
 10
102.0000000053307
 20
-1.87370960269545e-14
 40
16.6
100
AcDbArc
 50
217.8378217728238
 51
250.1621782271762
  0
ARC
  5
271
100
AcDbEntity
  8
0
  6
CONTINUOUS
 62
    7
370
   -3
100
AcDbCircle
 10
102.0000000053307
 20
-1.87370960269545e-14
 40
16.6
100
AcDbArc
 50
181.6142598944951
 51
214.3857401055049
  0
ARC
  5
272
100
AcDbEntity
  8
0
  6
CONTINUOUS
 62
    7
370
   -3
100
AcDbCircle
 10
102.0000000053307
 20
-1.87370960269545e-14
 40
15.75
100
AcDbArc
 50
217.9370426411687
 51
250.0629573588313
  0
ARC
  5
273
100
AcDbEntity
  8
0
  6
CONTINUOUS
 62
    7
370
   -3
100
AcDbCircle
 10
102.0000000053307
 20
-1.87370960269545e-14
 40
15.75
100
AcDbArc
 50
181.7014036421083
 51
214.2985963578917
  0
LINE
  5
274
100
AcDbEntity
  8
0
  6
CONTINUOUS
 62
    7
370
   -3
100
AcDbLine
 10
76.06385157022484
 20
-19.50176157048786
 11
88.89014583146027
 21
-10.18291331298922
  0
ARC
  5
275
100
AcDbEntity
  8
0
  6
CONTINUOUS
 62
    7
370
   -3
100
AcDbCircle
 10
102.0000000053307
 20
-1.87370960269545e-14
 40
12.5
100
AcDbArc
 50
182.1439538280593
 51
213.8560461719407
  0
LINE
  5
276
100
AcDbEntity
  8
0
  6
CONTINUOUS
 62
    7
370
   -3
100
AcDbLine
 10
89.578183303678
 20
-9.683024828561731
 11
92.20938317584884
 21
-7.771346221747356
  0
LINE
  5
277
100
AcDbEntity
  8
0
  6
CONTINUOUS
 62
    7
370
   -3
100
AcDbLine
 10
92.89771777554947
 20
-7.271241861567314
 11
96.26059770642681
 21
-4.827966575209179
  0
ARC
  5
278
100
AcDbEntity
  8
0
  6
CONTINUOUS
 62
    7
370
   -3
100
AcDbCircle
 10
102.0000000053307
 20
-1.87370960269545e-14
 40
11.65
100
AcDbArc
 50
182.3004608899916
 51
213.6995391100084
  0
LINE
  5
279
100
AcDbEntity
  8
0
  6
CONTINUOUS
 62
    7
370
   -3
100
AcDbLine
 10
95.66931281268788
 20
-4.021492219177872
 11
92.30768248660101
 21
-6.463859614512504
  0
LINE
  5
27A
100
AcDbEntity
  8
0
  6
CONTINUOUS
 62
    7
370
   -3
100
AcDbLine
 10
91.61950114462039
 20
-6.963852626441223
 11
88.98873443649887
 21
-8.875216521152163
  0
ARC
  5
27B
100
AcDbEntity
  8
0
  6
CONTINUOUS
 62
    7
370
   -3
100
AcDbCircle
 10
102.0000000053307
 20
-1.87370960269545e-14
 40
12.5
100
AcDbArc
 50
254.1439538280593
 51
285.8560461719407
  0
ARC
  5
27C
100
AcDbEntity
  8
0
  6
CONTINUOUS
 62
    7
370
   -3
100
AcDbCircle
 10
102.0000000053307
 20
-1.87370960269545e-14
 40
12.5
100
AcDbArc
 50
218.4409471309067
 51
249.5590528690933
  0
ARC
  5
27D
100
AcDbEntity
  8
0
  6
CONTINUOUS
 62
    7
370
   -3
100
AcDbCircle
 10
102.0000000053307
 20
-1.87370960269545e-14
 40
11.65
100
AcDbArc
 50
254.3004608899916
 51
285.6995391100084
  0
ARC
  5
27E
100
AcDbEntity
  8
0
  6
CONTINUOUS
 62
    7
370
   -3
100
AcDbCircle
 10
102.0000000053307
 20
-1.87370960269545e-14
 40
11.65
100
AcDbArc
 50
218.6191619126891
 51
249.3808380873109
  0
LINE
  5
27F
100
AcDbEntity
  8
0
  6
CONTINUOUS
 62
    7
370
   -3
100
AcDbLine
 10
99.18190378143876
 20
-6.950419676025778
 11
97.89739794792851
 21
-10.90372213322587
  0
LINE
  5
280
100
AcDbEntity
  8
0
  6
CONTINUOUS
 62
    7
370
   -3
100
AcDbLine
 10
97.63447752647542
 20
-11.7129079859192
 11
96.62944860650055
 21
-14.8060689473109
  0
LINE
  5
281
100
AcDbEntity
  8
0
  6
CONTINUOUS
 62
    7
370
   -3
100
AcDbLine
 10
97.57986967845321
 20
-15.11704163827759
 11
98.58473314448395
 21
-12.02438989176592
  0
LINE
  5
282
100
AcDbEntity
  8
0
  6
CONTINUOUS
 62
    7
370
   -3
100
AcDbLine
 10
98.84759502669701
 20
-11.21538420432782
 11
100.1316235536498
 21
-7.263550745661832
  0
ARC
  5
283
100
AcDbEntity
  8
0
  6
CONTINUOUS
 62
    7
370
   -3
100
AcDbCircle
 10
102.0000000053307
 20
-1.87370960269545e-14
 40
7.5
100
AcDbArc
 50
148.0704377818551
 51
175.9295622181448
  0
ARC
  5
284
100
AcDbEntity
  8
0
  6
CONTINUOUS
 62
    7
370
   -3
100
AcDbCircle
 10
102.0000000053307
 20
-1.87370960269545e-14
 40
7.5
100
AcDbArc
 50
111.5747413122128
 51
140.4252586877871
  0
ARC
  5
285
100
AcDbEntity
  8
0
  6
CONTINUOUS
 62
    7
370
   -3
100
AcDbCircle
 10
102.0000000053307
 20
-1.87370960269545e-14
 40
7.5
100
AcDbArc
 50
76.0704377818552
 51
103.9295622181448
  0
ARC
  5
286
100
AcDbEntity
  8
0
  6
CONTINUOUS
 62
    7
370
   -3
100
AcDbCircle
 10
102.0000000053307
 20
-1.87370960269545e-14
 40
7.5
100
AcDbArc
 50
39.57474131221291
 51
68.42525868778711
  0
ARC
  5
287
100
AcDbEntity
  8
0
  6
CONTINUOUS
 62
    7
370
   -3
100
AcDbCircle
 10
102.0000000053307
 20
-1.87370960269545e-14
 40
7.5
100
AcDbArc
 50
4.070437781855146
 51
31.92956221814485
  0
ARC
  5
288
100
AcDbEntity
  8
0
  6
CONTINUOUS
 62
    7
370
   -3
100
AcDbCircle
 10
102.0000000053307
 20
-1.87370960269545e-14
 40
7.5
100
AcDbArc
 50
327.574741312213
 51
356.4252586877872
  0
ARC
  5
289
100
AcDbEntity
  8
0
  6
CONTINUOUS
 62
    7
370
   -3
100
AcDbCircle
 10
102.0000000053307
 20
-1.87370960269545e-14
 40
7.5
100
AcDbArc
 50
292.0704377818551
 51
319.9295622181448
  0
ARC
  5
28A
100
AcDbEntity
  8
0
  6
CONTINUOUS
 62
    7
370
   -3
100
AcDbCircle
 10
102.0000000053307
 20
-1.87370960269545e-14
 40
7.5
100
AcDbArc
 50
255.5747413122129
 51
284.4252586877872
  0
ARC
  5
28B
100
AcDbEntity
  8
0
  6
CONTINUOUS
 62
    7
370
   -3
100
AcDbCircle
 10
102.0000000053307
 20
-1.87370960269545e-14
 40
7.5
100
AcDbArc
 50
220.0704377818552
 51
247.9295622181448
  0
ARC
  5
28C
100
AcDbEntity
  8
0
  6
CONTINUOUS
 62
    7
370
   -3
100
AcDbCircle
 10
102.0000000053307
 20
-1.87370960269545e-14
 40
7.5
100
AcDbArc
 50
183.5747413122128
 51
212.4252586877871
  0
LWPOLYLINE
  5
28D
100
AcDbEntity
  8
0
  6
ByLayer
 62
  256
370
   -1
100
AcDbPolyline
 90
   12
 70
    1
 43
0
 10
86.1979014187562
 20
47.12057937364302
 10
86.41421331481601
 20
46.45483981224469
 10
83.56103980014106
 20
45.52778754055672
 10
89.12755946377044
 20
38.10401903894968
 10
91.26600715319165
 20
31.5225537901076
 42
0.1511944872679136
 10
75.33725602179456
 20
19.9496386751341
 10
69.62852176014604
 20
24.09727689730302
 10
64.38549107668811
 20
31.59618567202983
 10
62.63097059915476
 20
29.18129540765646
 10
62.06465870309231
 20
29.59274508426119
 10
61.82578490044588
 20
29.76629706071019
 42
-0.1535942241886514
 10
86.10507306247305
 20
47.40623690487588
  0
LWPOLYLINE
  5
28E
100
AcDbEntity
  8
0
  6
ByLayer
 62
  256
370
   -1
100
AcDbPolyline
 90
   12
 70
    1
 43
0
 10
61.51905206669936
 20
28.83310899361063
 10
62.0853639627548
 20
28.42165931701104
 10
60.32200575488469
 20
25.99460496038416
 10
69.18899640396118
 20
23.26056824515603
 10
74.78752513802958
 20
19.19299902559535
 42
0.1511944872679138
 10
68.70328360417423
 20
0.4676290206508327
 10
61.6468999912946
 20
0.4676290206508256
 10
52.9974510802768
 20
3.45259754561873
 10
52.9974510802768
 20
0.4676290206508114
 10
52.29745108027682
 20
0.467629020650822
 10
52.00218682216195
 20
0.467629020650827
 42
-0.1535942241886514
 10
61.27604706484144
 20
29.00964765213142
  0
LWPOLYLINE
  5
28F
100
AcDbEntity
  8
0
  6
ByLayer
 62
  256
370
   -1
100
AcDbPolyline
 90
   12
 70
    1
 43
0
 10
52.30254893038467
 20
-0.4676290206507101
 10
53.00254893037597
 20
-0.4676290206506781
 10
53.00254893037599
 20
-3.46763319052852
 10
61.78312151487987
 20
-0.4676290206507083
 10
68.70328360417423
 20
-0.4676290206506838
 42
0.1511944872679138
 10
74.78752513802957
 20
-19.19299902559521
 10
69.07879087638106
 20
-23.34063724776414
 10
60.32671923785642
 20
-26.00976549374424
 10
62.08123971538979
 20
-28.4246557581176
 10
61.51492781932734
 20
-28.83610543472232
 10
61.2760540166809
 20
-29.0096574111713
 42
-0.1535942241886514
 10
52.00218693422549
 20
-0.4676410020686248
  0
LWPOLYLINE
  5
290
100
AcDbEntity
  8
0
  6
ByLayer
 62
  256
370
   -1
100
AcDbPolyline
 90
   12
 70
    1
 43
0
 10
62.06878295046435
 20
-29.58974864314929
 10
62.63509484651976
 20
-29.17829896654964
 10
64.39845305438988
 20
-31.60535332317651
 10
69.73872728772616
 20
-24.01720789469467
 10
75.33725602179454
 20
-19.94963867513396
 42
0.1511944872679136
 10
91.26600715319164
 20
-31.52255379010747
 10
89.08546469798294
 20
-38.23357340661498
 10
83.5737642258939
 20
-45.53728215391108
 10
86.41263799250058
 20
-46.45968815580048
 10
86.19632609643811
 20
-47.12542771720707
 10
86.10508442284912
 20
-47.40624071391627
 42
-0.1535942241886515
 10
61.82579203360793
 20
-29.76630668801149
  0
LWPOLYLINE
  5
291
100
AcDbEntity
  8
0
  6
ByLayer
 62
  256
370
   -1
100
AcDbPolyline
 90
   12
 70
    1
 43
0
 10
87.08738467335347
 20
-47.4095900025309
 10
87.30369656941322
 20
-46.74385044113255
 10
90.15687008408817
 20
-47.67090271282049
 10
90.0170427183677
 20
-38.39302966783755
 10
92.15549040778888
 20
-31.81156441899547
 42
0.1511944872679136
 10
111.8445096028724
 20
-31.81156441899547
 10
114.0250520580811
 20
-38.52258403550299
 10
113.8590049969568
 20
-47.67110478657789
 10
116.6978787635635
 20
-46.74869878468847
 10
116.9141906596259
 20
-47.41443834609507
 10
117.0054323332149
 20
-47.69525134280425
 42
-0.1535942241886516
 10
86.99457910708148
 20
-47.69525493868726
  0
LWPOLYLINE
  5
292
100
AcDbEntity
  8
0
  6
ByLayer
 62
  256
370
   -1
100
AcDbPolyline
 90
   12
 70
    1
 43
0
 10
117.8020985919051
 20
-47.1205793736429
 10
117.5857866958453
 20
-46.45483981224457
 10
120.4389602105202
 20
-45.5277875405566
 10
114.8724405468909
 20
-38.10401903894956
 10
112.7339928574696
 20
-31.52255379010748
 42
0.1511944872679136
 10
128.6627439888667
 20
-19.94963867513399
 10
134.3714782505153
 20
-24.0972768973029
 10
139.6145089339732
 20
-31.59618567202972
 10
141.3690294115065
 20
-29.18129540765635
 10
141.935341307569
 20
-29.59274508426108
 10
142.1742151102154
 20
-29.76629706071006
 42
-0.1535942241886516
 10
117.8949269481882
 20
-47.40623690487575
  0
LWPOLYLINE
  5
293
100
AcDbEntity
  8
0
  6
ByLayer
 62
  256
370
   -1
100
AcDbPolyline
 90
   12
 70
    1
 43
0
 10
142.480947943962
 20
-28.83310899361052
 10
141.9146360479065
 20
-28.42165931701092
 10
143.6779942557766
 20
-25.99460496038404
 10
134.8110036067001
 20
-23.26056824515591
 10
129.2124748726317
 20
-19.19299902559523
 42
0.1511944872679136
 10
135.2967164064871
 20
-0.4676290206507154
 10
142.3531000193667
 20
-0.4676290206507083
 10
151.0025489303845
 20
-3.452597545618616
 10
151.0025489303845
 20
-0.4676290206506977
 10
151.7025489303845
 20
-0.4676290206507083
 10
151.9978131884994
 20
-0.4676290206506902
 42
-0.1535942241886516
 10
142.7239529458199
 20
-29.00964765213131
  0
LWPOLYLINE
  5
294
100
AcDbEntity
  8
0
  6
ByLayer
 62
  256
370
   -1
100
AcDbPolyline
 90
   12
 70
    1
 43
0
 10
151.6974510802766
 20
0.4676290206508256
 10
150.9974510802853
 20
0.4676290206507936
 10
150.9974510802853
 20
3.467633190528636
 10
142.2168784957814
 20
0.4676290206508238
 10
135.2967164064871
 20
0.4676290206508087
 42
0.1511944872679136
 10
129.2124748726317
 20
19.19299902559532
 10
134.9212091342802
 20
23.34063724776426
 10
143.6732807728049
 20
26.00976549374435
 10
141.9187602952715
 20
28.42465575811772
 10
142.485072191334
 20
28.83610543472243
 10
142.7239459939804
 20
29.00965741117145
 42
-0.1535942241886516
 10
151.9978130764358
 20
0.4676410020687403
  0
LWPOLYLINE
  5
295
100
AcDbEntity
  8
0
  6
ByLayer
 62
  256
370
   -1
100
AcDbPolyline
 90
   12
 70
    1
 43
0
 10
141.931217060197
 20
29.5897486431494
 10
141.3649051641415
 20
29.17829896654976
 10
139.6015469562714
 20
31.60535332317663
 10
134.2612727229351
 20
24.01720789469479
 10
128.6627439888668
 20
19.94963867513409
 42
0.1511944872679136
 10
112.7339928574697
 20
31.52255379010759
 10
114.9145353126784
 20
38.23357340661509
 10
120.4262357847674
 20
45.53728215391119
 10
117.5873620181607
 20
46.45968815580059
 10
117.8036739142232
 20
47.12542771720719
 10
117.8949155878122
 20
47.40624071391639
 42
-0.1535942241886516
 10
142.1742079770534
 20
29.76630668801161
  0
LWPOLYLINE
  5
296
100
AcDbEntity
  8
0
  6
ByLayer
 62
  256
370
   -1
100
AcDbPolyline
 90
   12
 70
    1
 43
0
 10
116.9126153373078
 20
47.40959000253102
 10
116.6963034412481
 20
46.74385044113268
 10
113.8431299265731
 20
47.67090271282062
 10
113.9829572922936
 20
38.39302966783768
 10
111.8445096028724
 20
31.81156441899559
 42
0.1511944872679136
 10
92.15549040778892
 20
31.8115644189956
 10
89.97494795258022
 20
38.5225840355031
 10
90.1409950137045
 20
47.67110478657801
 10
87.30212124709783
 20
46.7486987846886
 10
87.08580935103538
 20
47.4144383460952
 10
86.99456767744635
 20
47.69525134280437
 42
-0.1535942241886516
 10
117.0054209035798
 20
47.69525493868738
  0
CIRCLE
  5
297
100
AcDbEntity
  8
0
  6
ByLayer
 62
  256
370
   -1
100
AcDbCircle
 10
40.3451
 20
-43.6475
 40
7
  0
CIRCLE
  5
298
100
AcDbEntity
  8
0
  6
ByLayer
 62
  256
370
   -1
100
AcDbCircle
 10
55.3451
 20
-43.6475
 40
7
  0
ENDSEC
  0
SECTION
  2
OBJECTS
  0
DICTIONARY
  5
C
330
0
100
AcDbDictionary
281
    1
  3
ACAD_GROUP
350
D
  0
DICTIONARY
  5
D
330
C
100
AcDbDictionary
281
    1
  0
PLOTSETTINGS
  5
299
100
AcDbPlotSettings
  6
1x1
 40
0
 41
0
 42
0
 43
0
  0
ENDSEC
  0
EOF
