<?xml version="1.0" encoding="UTF-8" standalone="no"?>
<!-- Created with Inkscape (http://www.inkscape.org/) -->

<svg
   width="1080"
   height="1080"
   version="1.1"
   viewBox="0 0 1080 1080"
   xml:space="preserve"
   id="svg352"
   sodipodi:docname="logo.svg"
   inkscape:version="1.4.3 (0d15f75042, 2025-12-25)"
   inkscape:export-filename="/home/supervedovatto/Documents/IFG/Projetos de Pesquisa/Chamada Pública CNPq MCTI FNDCT CONECTA E CAPACITA -  n° 13 2024 - PROGRAMA MAIS CIÊNCIA NA ESCOLA/Laboratório Maker IFG/LogoInstagram3.png"
   inkscape:export-xdpi="100"
   inkscape:export-ydpi="100"
   xmlns:inkscape="http://www.inkscape.org/namespaces/inkscape"
   xmlns:sodipodi="http://sodipodi.sourceforge.net/DTD/sodipodi-0.dtd"
   xmlns="http://www.w3.org/2000/svg"
   xmlns:svg="http://www.w3.org/2000/svg"><defs
     id="defs356" /><sodipodi:namedview
     id="namedview354"
     pagecolor="#ffffff"
     bordercolor="#666666"
     borderopacity="1.0"
     inkscape:pageshadow="2"
     inkscape:pageopacity="0.0"
     inkscape:pagecheckerboard="0"
     showgrid="false"
     inkscape:zoom="0.37777777"
     inkscape:cx="348.08824"
     inkscape:cy="902.64708"
     inkscape:window-width="1920"
     inkscape:window-height="1008"
     inkscape:window-x="0"
     inkscape:window-y="34"
     inkscape:window-maximized="1"
     inkscape:current-layer="svg352"
     inkscape:showpageshadow="2"
     inkscape:deskcolor="#d1d1d1" /><rect
     style="fill:#ffffff;stroke:none;stroke-width:5.80905"
     id="rect10454"
     width="1080"
     height="1080"
     x="0"
     y="0" /><g
     id="g10346"><g
       transform="matrix(.69376 0 0 .69376 247.96 876.16)"
       id="g332"><g
         fill="#369830"
         id="g262"><path
           d="m224.79 174.04c0 1.9922-1.6562 3.6484-3.6445 3.6484h-28.816c-1.9883 0-3.6406-1.6562-3.6406-3.6484v-28.812c0-1.9883 1.6523-3.6445 3.6406-3.6445h28.816c1.9883 0 3.6445 1.6562 3.6445 3.6445z"
           id="path244" /><path
           d="m181.73 87.93c0 1.9844-1.6562 3.6406-3.6445 3.6406h-28.812c-1.9883 0-3.6445-1.6562-3.6445-3.6406v-29.148c0-1.9883 1.6562-3.6445 3.6445-3.6445h28.812c1.9883 0 3.6445 1.6562 3.6445 3.6445z"
           id="path246" /><path
           d="m224.79 87.93c0 1.9844-1.6562 3.6406-3.6445 3.6406h-28.816c-1.9883 0-3.6406-1.6562-3.6406-3.6406v-29.148c0-1.9883 1.6523-3.6445 3.6406-3.6445h28.816c1.9883 0 3.6445 1.6562 3.6445 3.6445z"
           id="path248" /><path
           d="m138.68 130.99c0 1.9883-1.6562 3.6445-3.6445 3.6445h-28.816c-1.9844 0-3.6406-1.6562-3.6406-3.6445v-29.148c0-1.9883 1.6562-3.6445 3.6406-3.6445h28.816c1.9883 0 3.6445 1.6562 3.6445 3.6445z"
           id="path250" /><path
           d="m181.73 130.99c0 1.9883-1.6562 3.6445-3.6445 3.6445h-28.812c-1.9883 0-3.6445-1.6562-3.6445-3.6445v-29.148c0-1.9883 1.6562-3.6445 3.6445-3.6445h28.812c1.9883 0 3.6445 1.6562 3.6445 3.6445z"
           id="path252" /><path
           d="m138.68 174.04c0 1.9922-1.6562 3.6484-3.6445 3.6484h-28.816c-1.9844 0-3.6406-1.6562-3.6406-3.6484v-28.812c0-1.9883 1.6562-3.6445 3.6406-3.6445h28.816c1.9883 0 3.6445 1.6562 3.6445 3.6445z"
           id="path254" /><path
           d="m181.73 174.04c0 1.9922-1.6562 3.6484-3.6445 3.6484h-28.812c-1.9883 0-3.6445-1.6562-3.6445-3.6484v-28.812c0-1.9883 1.6562-3.6445 3.6445-3.6445h28.812c1.9883 0 3.6445 1.6562 3.6445 3.6445z"
           id="path256" /><path
           d="m138.68 217.11c0 1.9844-1.6562 3.6445-3.6445 3.6445h-28.816c-1.9844 0-3.6406-1.6602-3.6406-3.6445v-28.816c0-1.9883 1.6562-3.6445 3.6406-3.6445h28.816c1.9883 0 3.6445 1.6562 3.6445 3.6445z"
           id="path258" /><path
           d="m181.73 217.11c0 1.9844-1.6562 3.6445-3.6445 3.6445h-28.812c-1.9883 0-3.6445-1.6602-3.6445-3.6445v-28.816c0-1.9883 1.6562-3.6445 3.6445-3.6445h28.812c1.9883 0 3.6445 1.6562 3.6445 3.6445z"
           id="path260" /></g><path
         d="m140.33 73.355c0 10.93-8.9453 19.875-19.871 19.875-10.934 0-19.879-8.9453-19.879-19.875 0-10.93 8.9453-19.875 19.879-19.875 11.258 0 19.871 8.9453 19.871 19.875"
         fill="#c90c0f"
         id="path264" /><g
         fill="#1d1d1b"
         id="g330"><path
           d="m250.05 97.883h7.5898v35.738h-7.5898z"
           id="path266" /><path
           d="m298.4 133.62h-9.6484l-15.574-27.039h-0.22266c0.3125 4.7773 0.46485 8.1797 0.46485 10.219v16.82h-6.7812v-35.742h9.5742l15.551 26.766h0.17187c-0.24609-4.6445-0.36718-7.9258-0.36718-9.8477v-16.918h6.832z"
           id="path268" /><path
           d="m328.54 123.7c0 3.2266-1.1602 5.7695-3.4883 7.625-2.3281 1.8594-5.5625 2.7891-9.7109 2.7891-3.8203 0-7.1992-0.71875-10.137-2.1523v-7.0391c2.418 1.0742 4.4609 1.832 6.1328 2.2695 1.6719 0.4414 3.2031 0.66406 4.5938 0.66406 1.6641 0 2.9414-0.32031 3.832-0.95703 0.89063-0.63672 1.3359-1.5781 1.3359-2.8359 0-0.69922-0.19531-1.3242-0.58984-1.8672-0.39063-0.54687-0.96875-1.0742-1.7227-1.5781-0.76172-0.50781-2.3086-1.3125-4.6406-2.4219-2.1914-1.0273-3.832-2.0117-4.9258-2.957-1.0938-0.9414-1.9688-2.043-2.6211-3.3008-0.65234-1.2539-0.97656-2.7188-0.97656-4.4023 0-3.1562 1.0703-5.6445 3.2188-7.4531 2.1484-1.8086 5.1133-2.7148 8.9023-2.7148 1.8594 0 3.6367 0.22266 5.3242 0.66016 1.6875 0.44141 3.457 1.0625 5.3047 1.8594l-2.4531 5.8906c-1.9062-0.78125-3.4883-1.3281-4.7344-1.6367-1.25-0.3086-2.4805-0.46485-3.6875-0.46485-1.4336 0-2.5391 0.33203-3.3047 1.0039-0.76953 0.66797-1.1523 1.5391-1.1523 2.6133 0 0.66797 0.15625 1.25 0.46484 1.75 0.3125 0.49609 0.80469 0.97656 1.4844 1.4414 0.67578 0.46484 2.2812 1.2969 4.8086 2.5078 3.3477 1.5976 5.6406 3.1953 6.8828 4.8008 1.2383 1.6055 1.8594 3.5742 1.8594 5.9062"
           id="path270" /><path
           d="m349.13 133.62h-7.5898v-29.438h-9.7226v-6.3047h27.035v6.3047h-9.7226z"
           id="path272" /><path
           d="m364.36 97.883h7.5938v35.738h-7.5938z"
           id="path274" /><path
           d="m394.78 133.62h-7.5938v-29.438h-9.7188v-6.3047h27.031v6.3047h-9.7188z"
           id="path276" /><path
           d="m439.45 97.883v23.125c0 2.6406-0.59375 4.9531-1.7773 6.9453-1.1836 1.9844-2.8945 3.5117-5.1289 4.5703-2.2383 1.0586-4.8828 1.5898-7.9375 1.5898-4.6016 0-8.1797-1.1758-10.723-3.5312-2.5508-2.3594-3.8203-5.582-3.8203-9.6719v-23.027h7.5664v21.879c0 2.7539 0.55469 4.7734 1.6641 6.0625 1.1094 1.2891 2.9492 1.9336 5.5078 1.9336 2.4844 0 4.2812-0.64843 5.4024-1.9453 1.1172-1.293 1.6758-3.3281 1.6758-6.1016v-21.828z"
           id="path278" /><path
           d="m461.94 133.62h-7.5938v-29.438h-9.7188v-6.3047h27.031v6.3047h-9.7188z"
           id="path280" /><path
           d="m483.69 115.7c0 3.9922 0.75781 7 2.2773 9.0234 1.5195 2.0195 3.7891 3.0312 6.8086 3.0312 6.0547 0 9.0859-4.0195 9.0859-12.055 0-8.0508-3.0117-12.078-9.0391-12.078-3.0195 0-5.2969 1.0156-6.832 3.0469-1.5352 2.0273-2.3008 5.0391-2.3008 9.0312m26.129 0c0 5.9141-1.4688 10.461-4.4062 13.641-2.9414 3.1797-7.1523 4.7695-12.637 4.7695-5.4883 0-9.6992-1.5898-12.637-4.7695s-4.4102-7.7422-4.4102-13.691c0-5.9453 1.4766-10.488 4.4219-13.625 2.9453-3.1406 7.1719-4.7109 12.672-4.7109 5.5039 0 9.7109 1.5859 12.625 4.7422 2.9141 3.1641 4.3711 7.7109 4.3711 13.645"
           id="path282" /><path
           d="m537.74 133.62h-7.4727v-35.742h20.523v6.207h-13.051v9.2188h12.145v6.1836h-12.145z"
           id="path284" /><path
           d="m578.57 133.62h-20.617v-35.742h20.617v6.207h-13.027v7.8477h12.121v6.2109h-12.121v9.2188h13.027z"
           id="path286" /><path
           d="m607.86 115.61c0-7.6758-3.3945-11.516-10.188-11.516h-4.0391v23.277h3.2578c7.3125 0 10.969-3.9219 10.969-11.762m7.8867-0.19531c0 5.8828-1.6758 10.391-5.0312 13.52-3.3555 3.1289-8.2031 4.6953-14.535 4.6953h-10.137v-35.742h11.238c5.8438 0 10.383 1.5391 13.617 4.6172 3.2305 3.082 4.8477 7.3828 4.8477 12.91"
           id="path288" /><path
           d="m643.78 133.62h-20.621v-35.742h20.621v6.207h-13.027v7.8477h12.121v6.2109h-12.121v9.2188h13.027z"
           id="path290" /><path
           d="m658.84 113.75h2.4453c2.4024 0 4.1719-0.39843 5.3164-1.1953 1.1406-0.79687 1.7148-2.0547 1.7148-3.7656 0-1.6953-0.58594-2.8984-1.7539-3.6172-1.1641-0.71875-2.9727-1.0781-5.4219-1.0781h-2.3008zm0 6.1602v13.719h-7.5938v-35.742h10.43c4.8672 0 8.4688 0.88281 10.801 2.6523 2.3359 1.7656 3.5039 4.4531 3.5039 8.0547 0 2.1016-0.58203 3.9727-1.7383 5.6133-1.1602 1.6328-2.8008 2.918-4.9219 3.8476 5.3867 8.0352 8.8945 13.227 10.527 15.574h-8.4219l-8.5508-13.719z"
           id="path292" /><path
           d="m702.2 118.76c-2.4024-7.7109-3.7539-12.07-4.0547-13.082-0.30078-1.0078-0.51953-1.8086-0.64844-2.3984-0.53906 2.0898-2.082 7.25-4.6289 15.48zm4.4102 14.863-2.5976-8.5078h-13.055l-2.5938 8.5078h-8.1797l12.637-35.891h9.2812l12.684 35.891z"
           id="path294" /><path
           d="m719.19 133.62v-35.742h7.5938v29.484h14.52v6.2578z"
           id="path296" /><path
           d="m262.6 163.28h9.5v13.57c-1.4766 0.46875-2.9805 0.82812-4.5117 1.0664-1.5274 0.2461-3.3008 0.36719-5.3125 0.36719-4.2344 0-7.5274-1.2578-9.8828-3.7695-2.3594-2.5117-3.5391-6.0391-3.5391-10.566 0-2.8984 0.58594-5.4414 1.75-7.625 1.168-2.1797 2.8477-3.8438 5.0391-5 2.1914-1.1484 4.7578-1.7266 7.7031-1.7266 2.9844 0 5.7617 0.55078 8.3359 1.6445l-1.2617 2.8594c-2.5234-1.0664-4.9531-1.6016-7.2852-1.6016-3.4023 0-6.0586 1.0117-7.9688 3.0312-1.9141 2.0234-2.8711 4.832-2.8711 8.418 0 3.7656 0.92187 6.625 2.7617 8.5703 1.8438 1.9492 4.5469 2.9219 8.1172 2.9219 1.9375 0 3.8281-0.22266 5.6797-0.67188v-8.5859h-6.2539z"
           id="path298" /><path
           d="m280.45 167.42c0 2.668 0.53516 4.7031 1.6055 6.1055 1.0703 1.3984 2.6445 2.0977 4.7227 2.0977 2.0781 0 3.6562-0.69531 4.7305-2.0898 1.0781-1.3945 1.6172-3.4336 1.6172-6.1133 0-2.6602-0.53907-4.6797-1.6172-6.0625-1.0742-1.3828-2.668-2.0703-4.7695-2.0703-2.0781 0-3.6445 0.67969-4.7031 2.043-1.0586 1.3633-1.5859 3.3906-1.5859 6.0898m15.961 0c0 3.4062-0.85937 6.0703-2.5781 7.9844s-4.0977 2.875-7.1328 2.875c-1.8711 0-3.5352-0.44141-4.9883-1.3164-1.4531-0.88281-2.5742-2.1406-3.3633-3.7812-0.78906-1.6406-1.1836-3.5625-1.1836-5.7617 0-3.4102 0.85156-6.0664 2.5586-7.9688 1.7109-1.9062 4.0781-2.8555 7.1133-2.8555 2.9297 0 5.2578 0.97265 6.9883 2.9219 1.7227 1.9453 2.5859 4.582 2.5859 7.9023"
           id="path300" /><path
           d="m305.15 177.89h-3.1719v-20.914h3.1719zm-3.4414-26.582c0-0.72656 0.17578-1.2578 0.53515-1.5938 0.35547-0.33594 0.80469-0.50391 1.3398-0.50391 0.50781 0 0.94922 0.16797 1.3203 0.51563 0.36719 0.33984 0.55078 0.87109 0.55078 1.582s-0.18359 1.2461-0.55078 1.5938c-0.37109 0.35156-0.8125 0.52344-1.3203 0.52344-0.53516 0-0.98438-0.17188-1.3398-0.52344-0.35937-0.34766-0.53515-0.88281-0.53515-1.5938"
           id="path302" /><path
           d="m316.85 153.73c0.61328-0.78515 1.2734-1.7422 1.9805-2.8633 0.70703-1.1133 1.2656-2.0898 1.6719-2.918h3.8594v0.39844c-0.55859 0.82813-1.3945 1.8477-2.5039 3.0547-1.1055 1.2109-2.0703 2.1445-2.8828 2.8086h-2.125zm0.7461 21.93c1.9766 0 3.5273-0.53906 4.6562-1.625 1.125-1.0781 1.6875-2.5938 1.6875-4.5352v-1.8945l-3.1719 0.13672c-2.5195 0.0859-4.3398 0.48047-5.457 1.1719-1.1133 0.6914-1.6719 1.7734-1.6719 3.2344 0 1.1445 0.34766 2.0156 1.043 2.6133 0.69141 0.59766 1.668 0.89844 2.9141 0.89844m7.168 2.2305-0.6289-2.9727h-0.15235c-1.0469 1.3086-2.0898 2.1953-3.1289 2.6641-1.0391 0.46093-2.332 0.69531-3.8867 0.69531-2.0781 0-3.707-0.53516-4.8867-1.6055s-1.7695-2.5898-1.7695-4.5625c0-4.2227 3.3867-6.4375 10.152-6.6406l3.5586-0.11329v-1.3008c0-1.6367-0.35547-2.8516-1.0625-3.6328s-1.8359-1.1719-3.3945-1.1719c-1.7461 0-3.7188 0.53125-5.9258 1.6016l-0.97265-2.4219c1.0312-0.5625 2.1602-1 3.3906-1.3203 1.2305-0.31641 2.4648-0.47656 3.6992-0.47656 2.4961 0 4.3477 0.55469 5.5547 1.6602 1.2031 1.1055 1.8047 2.8828 1.8047 5.3242v14.273z"
           id="path304" /><path
           d="m347.17 172.19c0 1.9492-0.72656 3.4492-2.1797 4.5039-1.4531 1.0547-3.4922 1.5859-6.1172 1.5859-2.7812 0-4.9453-0.44141-6.5-1.3164v-2.9414c1.0078 0.51172 2.0859 0.91015 3.2383 1.2031 1.1562 0.29297 2.2656 0.44141 3.3359 0.44141 1.6602 0 2.9336-0.26953 3.8281-0.79297 0.89063-0.53125 1.3359-1.332 1.3359-2.418 0-0.8125-0.35547-1.5117-1.0625-2.0898-0.70703-0.57422-2.0859-1.2617-4.1367-2.0508-1.9492-0.72657-3.3359-1.3555-4.1602-1.8984-0.82032-0.54297-1.4336-1.1562-1.832-1.8438-0.40234-0.6836-0.60156-1.5039-0.60156-2.4609 0-1.7031 0.69141-3.0508 2.082-4.0352 1.3906-0.98437 3.293-1.4805 5.7148-1.4805 2.2578 0 4.4609 0.45703 6.6133 1.375l-1.125 2.5781c-2.1055-0.86719-4.0117-1.2969-5.7188-1.2969-1.5039 0-2.6367 0.23046-3.4024 0.70703-0.76562 0.46875-1.1445 1.1172-1.1445 1.9414 0 0.5625 0.14063 1.0391 0.42969 1.4336 0.28516 0.39453 0.74609 0.76953 1.3867 1.125 0.63672 0.35937 1.8594 0.875 3.668 1.5469 2.4844 0.90235 4.1641 1.8125 5.0391 2.7305 0.87109 0.91406 1.3086 2.0625 1.3086 3.4531"
           id="path306" /><path
           d="m261.77 196.3c-2.9766 0-5.3203 0.98828-7.043 2.9648-1.7227 1.9766-2.582 4.6836-2.582 8.1211 0 3.5352 0.83204 6.2656 2.4883 8.1914 1.6602 1.9297 4.0273 2.8906 7.0976 2.8906 1.8867 0 4.0391-0.33594 6.457-1.0156v2.7539c-1.875 0.69922-4.1875 1.0508-6.9375 1.0508-3.9844 0-7.0586-1.207-9.2226-3.6211-2.168-2.4102-3.25-5.8438-3.25-10.289 0-2.7812 0.51953-5.2188 1.5625-7.3125s2.5469-3.707 4.5156-4.8398 4.2852-1.6992 6.9492-1.6992c2.8359 0 5.3164 0.51562 7.4375 1.5508l-1.332 2.6953c-2.0469-0.96093-4.0938-1.4414-6.1406-1.4414"
           id="path308" /><path
           d="m279.16 218.73c1.9141 0 3.4141-0.51953 4.5078-1.5703 1.0898-1.043 1.6367-2.5117 1.6367-4.3945v-1.8281l-3.0703 0.12891c-2.4453 0.0859-4.2031 0.46484-5.2852 1.1367-1.0781 0.67188-1.6172 1.7148-1.6172 3.1328 0 1.1055 0.33594 1.9492 1.0078 2.5273 0.67187 0.57813 1.6133 0.86719 2.8203 0.86719m-4.5703-21.184c1.5664-1.6758 2.6641-2.9102 3.293-3.6992 0.6289-0.78516 1.0859-1.4336 1.3711-1.9375h3.0703c0.27344 0.51562 0.7461 1.1836 1.418 2.0039 0.67188 0.82031 1.7773 2.0274 3.3203 3.6328v0.42188h-2.2031c-1.0859-0.67578-2.4492-1.8242-4.0859-3.4375-1.6797 1.6523-3.0312 2.7969-4.0547 3.4375h-2.1289zm11.512 23.348-0.61329-2.8828h-0.14843c-1.0117 1.2695-2.0195 2.1289-3.0234 2.5781s-2.2617 0.67188-3.7656 0.67188c-2.0117 0-3.5859-0.51563-4.7266-1.5508-1.1406-1.0352-1.7109-2.5039-1.7109-4.4141 0-4.0898 3.2734-6.2305 9.8242-6.4297l3.4414-0.10938v-1.2578c0-1.5898-0.34375-2.7617-1.0273-3.5195-0.6836-0.75781-1.7774-1.1367-3.2852-1.1367-1.6914 0-3.6016 0.51953-5.7344 1.5547l-0.94531-2.3477c1-0.54297 2.0938-0.96484 3.2852-1.2734 1.1914-0.30859 2.3828-0.46093 3.582-0.46093 2.4141 0 4.207 0.53515 5.375 1.6055 1.1641 1.0703 1.7461 2.7891 1.7461 5.1524v13.82z"
           id="path310" /><path
           d="m320.55 220.89v-13.172c0-1.6133-0.34375-2.8242-1.0352-3.6289-0.6914-0.80859-1.7656-1.2109-3.2188-1.2109-1.9141 0-3.3281 0.54688-4.2383 1.6445-0.91406 1.0938-1.3711 2.7812-1.3711 5.0625v11.305h-3.0703v-13.172c0-1.6133-0.34766-2.8242-1.0352-3.6289-0.69141-0.80859-1.7734-1.2109-3.2383-1.2109-1.9258 0-3.3359 0.57422-4.2305 1.7266-0.89453 1.1524-1.3398 3.0391-1.3398 5.6641v10.621h-3.0703v-20.246h2.4961l0.5 2.7695h0.14844c0.57812-0.98438 1.3945-1.7539 2.4492-2.3086 1.0547-0.55468 2.2383-0.83203 3.5469-0.83203 3.168 0 5.2422 1.1445 6.2148 3.4375h0.14844c0.60547-1.0586 1.4805-1.8984 2.6289-2.5117 1.1445-0.61718 2.4531-0.92578 3.9219-0.92578 2.293 0 4.0117 0.58985 5.1524 1.7656 1.1406 1.1758 1.7109 3.0547 1.7109 5.6406v13.211z"
           id="path312" /><path
           d="m338.95 202.88c-2.0742 0-3.5742 0.57422-4.5 1.7188-0.92187 1.1445-1.3984 2.9688-1.4219 5.4688v0.67969c0 2.8477 0.47265 4.8828 1.4219 6.1094 0.95313 1.2227 2.4766 1.8359 4.5742 1.8359 1.75 0 3.1211-0.70703 4.1172-2.125 0.99219-1.4141 1.4883-3.3672 1.4883-5.8555 0-2.5234-0.49609-4.4609-1.4883-5.8086-0.9961-1.3477-2.3906-2.0234-4.1914-2.0234m0.44141 18.379c-1.3203 0-2.5234-0.24219-3.6172-0.73047-1.0898-0.48438-2.0078-1.2344-2.7461-2.2422h-0.22266c0.14844 1.1836 0.22266 2.3008 0.22266 3.3633v8.332h-3.0742v-29.336h2.5l0.42578 2.7695h0.14844c0.78906-1.1094 1.707-1.9102 2.7578-2.4024 1.0469-0.49218 2.25-0.73828 3.6055-0.73828 2.6914 0 4.7656 0.91797 6.2266 2.7539 1.4648 1.8359 2.1953 4.4102 2.1953 7.7188 0 3.3281-0.74609 5.9102-2.2305 7.75-1.4883 1.8438-3.5508 2.7617-6.1914 2.7617"
           id="path314" /><path
           d="m356.06 200.65v13.133c0 1.6523 0.37891 2.8828 1.1289 3.6953 0.75391 0.8125 1.9297 1.2188 3.5352 1.2188 2.1211 0 3.6719-0.57812 4.6523-1.7344 0.98047-1.1602 1.4727-3.0508 1.4727-5.6719v-10.641h3.0703v20.246h-2.5352l-0.4414-2.7148h-0.16797c-0.62891 0.99609-1.5039 1.7578-2.6172 2.2891-1.1172 0.53125-2.3906 0.79297-3.8203 0.79297-2.4688 0-4.3164-0.58203-5.543-1.7539-1.2305-1.168-1.8438-3.043-1.8438-5.6172v-13.242z"
           id="path316" /><path
           d="m389.52 215.37c0 1.8828-0.70312 3.3359-2.1094 4.3594-1.4062 1.0195-3.3789 1.5352-5.9219 1.5352-2.6875 0-4.7852-0.42578-6.293-1.2773v-2.8438c0.97656 0.49219 2.0234 0.87891 3.1367 1.1641 1.1172 0.28125 2.1953 0.42188 3.2305 0.42188 1.6016 0 2.8359-0.25391 3.6992-0.76563s1.2969-1.2891 1.2969-2.3359c0-0.78907-0.34375-1.4609-1.0274-2.0234-0.68359-0.5586-2.0195-1.2188-4.0078-1.9844-1.8867-0.70312-3.2266-1.3164-4.0234-1.8398-0.79687-0.52344-1.3867-1.1172-1.7734-1.7812-0.39063-0.66406-0.58594-1.4609-0.58594-2.3828 0-1.6484 0.67187-2.9531 2.0195-3.9062 1.3438-0.95703 3.1875-1.4336 5.5312-1.4336 2.1836 0 4.3164 0.44532 6.4023 1.332l-1.0898 2.4922c-2.0391-0.83594-3.8828-1.2539-5.5352-1.2539-1.4531 0-2.5547 0.22656-3.293 0.67968-0.73828 0.45703-1.1094 1.0859-1.1094 1.8867 0 0.54297 0.13672 1.0039 0.41406 1.3828 0.27735 0.38282 0.72656 0.7461 1.3438 1.0938 0.61719 0.34375 1.8008 0.83985 3.5508 1.4961 2.4062 0.875 4.0312 1.7539 4.875 2.6406 0.84766 0.88672 1.2695 2 1.2695 3.3438"
           id="path318" /><path
           d="m400.88 228c-1.1562 0-2.0703-0.16407-2.7383-0.4961v-2.6797c0.8789 0.2461 1.7891 0.3711 2.7383 0.3711 1.2227 0 2.1523-0.3711 2.7852-1.1094 0.63671-0.73828 0.95312-1.8047 0.95312-3.1953v-27.008h3.1484v26.746c0 2.3398-0.59375 4.1562-1.7774 5.4414-1.1836 1.2891-2.8867 1.9297-5.1094 1.9297"
           id="path320" /><path
           d="m420.01 218.73c1.9102 0 3.4102-0.51953 4.5039-1.5703 1.0898-1.043 1.6367-2.5117 1.6367-4.3945v-1.8281l-3.0703 0.12891c-2.4414 0.0859-4.2031 0.46484-5.2852 1.1367-1.0781 0.67188-1.6172 1.7148-1.6172 3.1328 0 1.1055 0.33593 1.9492 1.0078 2.5273 0.67187 0.57813 1.6133 0.86719 2.8242 0.86719m6.9375 2.1641-0.61328-2.8828h-0.14453c-1.0117 1.2695-2.0234 2.1289-3.0274 2.5781-1.0039 0.44922-2.2617 0.67188-3.7656 0.67188-2.0117 0-3.5859-0.51563-4.7266-1.5508-1.1406-1.0352-1.7109-2.5039-1.7109-4.4141 0-4.0898 3.2734-6.2305 9.8242-6.4297l3.4414-0.10938v-1.2578c0-1.5898-0.33984-2.7617-1.0273-3.5195-0.6836-0.75781-1.7774-1.1367-3.2852-1.1367-1.6875 0-3.6016 0.51953-5.7344 1.5547l-0.94532-2.3477c1-0.54297 2.0938-0.96484 3.2852-1.2734 1.1914-0.30859 2.3828-0.46093 3.582-0.46093 2.418 0 4.207 0.53515 5.375 1.6055 1.1641 1.0703 1.75 2.7891 1.75 5.1524v13.82z"
           id="path322" /><path
           d="m442.1 218.73c0.54297 0 1.0703-0.0391 1.5742-0.11719 0.50781-0.082 0.90625-0.16406 1.2031-0.25v2.3477c-0.33204 0.15625-0.82422 0.28906-1.4688 0.39453-0.64844 0.10547-1.2344 0.15625-1.75 0.15625-3.9219 0-5.8867-2.0625-5.8867-6.1875v-12.043h-2.9024v-1.4805l2.9024-1.2734 1.2969-4.3203h1.7774v4.6914h5.8828v2.3828h-5.8828v11.914c0 1.2188 0.28906 2.1562 0.86718 2.8086 0.58203 0.65234 1.375 0.97656 2.3867 0.97656"
           id="path324" /><path
           d="m454.46 218.73c1.9102 0 3.4141-0.51953 4.5039-1.5703 1.0938-1.043 1.6367-2.5117 1.6367-4.3945v-1.8281l-3.0703 0.12891c-2.4414 0.0859-4.2031 0.46484-5.2812 1.1367-1.082 0.67188-1.6211 1.7148-1.6211 3.1328 0 1.1055 0.33594 1.9492 1.0078 2.5273 0.67188 0.57813 1.6133 0.86719 2.8242 0.86719m6.9375 2.1641-0.60937-2.8828h-0.14844c-1.0117 1.2695-2.0195 2.1289-3.0234 2.5781-1.0078 0.44922-2.2617 0.67188-3.7695 0.67188-2.0078 0-3.5859-0.51563-4.7266-1.5508-1.1406-1.0352-1.7109-2.5039-1.7109-4.4141 0-4.0898 3.2734-6.2305 9.8242-6.4297l3.4414-0.10938v-1.2578c0-1.5898-0.33985-2.7617-1.0234-3.5195-0.6875-0.75781-1.7812-1.1367-3.2852-1.1367-1.6914 0-3.6016 0.51953-5.7383 1.5547l-0.9414-2.3477c0.99609-0.54297 2.0938-0.96484 3.2812-1.2734 1.1914-0.30859 2.3867-0.46093 3.582-0.46093 2.418 0 4.2109 0.53515 5.375 1.6055 1.168 1.0703 1.75 2.7891 1.75 5.1524v13.82z"
           id="path326" /><path
           d="m473.08 220.89h-3.0703v-20.246h3.0703zm-3.1992-23.387c0.58984-0.76562 1.2305-1.6875 1.9141-2.7734 0.68359-1.082 1.2266-2.0234 1.6211-2.8242h3.7344v0.38671c-0.54297 0.80079-1.3477 1.7891-2.4219 2.957-1.0742 1.168-2.0039 2.0742-2.793 2.7148h-2.0547z"
           id="path328" /></g></g><path
       d="m 132.67,893.34 -0.11689,-3.1017 -4.2023,-0.20012 c -4.9274,-0.23463 -6.335,-0.82419 -7.3398,-3.0741 -0.63585,-1.4238 -0.67511,-6.069 -0.57349,-67.855 l 0.10908,-66.327 1.1096,-1.1097 1.1096,-1.1097 67.798,-0.40021 1.4534,-4.0301 c 4.3557,-12.078 10.973,-20.076 20.579,-24.875 3.3503,-1.6736 6.6204,-2.7369 11.457,-3.7252 6.4954,-1.3273 10.132,-1.4185 16.158,-0.40543 18.038,3.0323 28.431,11.61 35.579,29.366 1.1905,2.9572 1.5372,4.374 2.5139,10.273 0.164,0.99054 0.3049,7.384 0.31312,14.208 l 0.015,12.407 13.879,0.40021 1.9295,2.2458 v -1.1339 c 0,-1.7739 1.0206,-2.9129 2.61,-2.9129 0.93893,0 1.4931,0.24124 1.7783,0.77412 0.23873,0.44608 0.4143,3.6419 0.4143,7.5413 0,3.7219 0.11773,8.9566 0.26162,11.633 0.25039,4.6568 0.29912,4.8654 1.1365,4.8654 0.87009,0 0.87632,0.0561 1.1392,10.27 0.14535,5.6487 0.26427,14.654 0.26427,20.011 v 9.7404 h -2.4013 v 21.554 l -1.0634,0.83649 c -1.6102,1.2666 -4.1394,0.1417 -4.1394,-1.841 0,-1.1296 0.1251,-1.12 -1.801,-0.13809 -1.424,0.72599 -2.3602,0.80044 -10.064,0.80044 -4.9484,0 -8.9541,-0.17491 -9.5962,-0.41903 -2.2107,-0.84052 -2.3335,-1.3862 -2.563,-11.387 l -0.21126,-9.205 -0.0889,10.724 -0.0889,10.724 -0.98236,0.98236 c -1.2389,1.2389 -1.9992,1.2389 -3.2381,0 l -0.98234,-0.98236 v -21.648 h -3.0734 l -0.26427,10.27 c -0.14536,5.6488 -0.26428,14.848 -0.26428,20.442 v 10.171 l -1.1699,1.1699 c -1.1638,1.1638 -1.1947,1.1699 -6.0033,1.1699 -3.5837,0 -4.8412,0.12936 -4.8638,0.50028 -0.0167,0.27515 -0.005,1.7159 0.0269,3.2017 l 0.0572,2.7015 h -10.025 l -0.11689,-3.1017 -0.1169,-3.1017 -96.252,-0.20334 v 6.4067 h -9.9718 z m 29.491,-16.009 c -0.14626,-1.2657 -0.51796,-4.2823 -0.82601,-6.7036 -0.30804,-2.4213 -0.56152,-4.8977 -0.5633,-5.503 l -0.003,-1.1006 8.1044,-0.0905 c 8.0948,-0.0904 8.0912,-0.0907 -3.1017,-0.30016 l -11.206,-0.20966 -0.12557,-1.3028 -0.12557,-1.3028 73.491,0.20431 v 2.4013 l -3.3153,0.11646 c -1.8234,0.0641 -3.2398,0.24415 -3.1476,0.40022 0.0922,0.15606 -0.16585,3.1653 -0.57356,6.6872 -0.4077,3.5219 -0.74725,6.9888 -0.75456,7.7042 l -0.0133,1.3007 14.308,-0.0127 c 14.963,-0.0133 15.081,-0.0266 15.991,-1.7882 0.2736,-0.52967 0.46495,-14.677 0.56565,-41.823 l 0.15218,-41.022 h -45.225 l -0.20011,2.1613 c -0.24208,2.6145 -1.2865,3.5933 -3.994,3.7429 l -1.7928,0.0991 -0.41674,2.1998 c -0.34023,1.796 -0.61724,2.2959 -1.509,2.7233 -0.60103,0.28807 -1.0922,0.85295 -1.0922,1.2561 0,0.40291 -0.40522,1.0017 -0.90049,1.3306 -0.50359,0.33446 -1.3216,1.7218 -1.8558,3.1477 -1.0922,2.9151 -1.8768,3.9903 -2.6852,3.6801 -0.31004,-0.11897 -1.272,-1.7277 -2.1376,-3.575 -0.97665,-2.0841 -1.8087,-3.3586 -2.1926,-3.3586 -0.34026,0 -0.73206,-0.45181 -0.87065,-1.004 -0.14925,-0.59465 -0.62801,-1.0984 -1.1742,-1.2355 -0.93098,-0.23367 -1.472,-1.2015 -2.104,-3.7638 -0.29254,-1.186 -0.52509,-1.4078 -1.517,-1.4469 -0.64431,-0.0254 -1.6749,-0.0704 -2.2903,-0.10006 -1.8699,-0.0901 -3.0835,-1.6793 -3.0835,-4.0379 v -2.0193 h -18.447 c -18.144,0 -18.451,0.0133 -18.658,0.80481 -0.11576,0.44265 -0.63919,0.91242 -1.1632,1.0439 -0.70579,0.17715 -0.95272,0.51598 -0.95272,1.3073 0,0.58752 -0.28036,1.4685 -0.62302,1.9577 -0.51406,0.73393 -1.004,0.88949 -2.8015,0.88949 -1.803,0 -2.1807,0.12071 -2.1914,0.70038 -0.007,0.38522 -0.004,17.449 0.006,37.921 0.0183,35.424 0.0546,37.268 0.75184,38.221 1.4279,1.95 1.751,1.9889 16.593,1.9952 l 13.936,0.006 z m 14.216,-29.916 v -13.007 h 14.394 c 13.821,0 14.41,0.0307 14.808,0.77412 0.44505,0.83159 0.6028,23.483 0.17137,24.607 -0.21536,0.56122 -1.8958,0.63306 -14.808,0.63306 h -14.565 z m 3.9021,16.322 c -0.60533,-0.0917 -1.5959,-0.0917 -2.2012,0 -0.60533,0.0917 -0.11006,0.16672 1.1006,0.16672 1.21066,0 1.7059,-0.0751 1.1006,-0.16672 z m 84.546,-68.769 v -11.424 l 0.98234,-0.98236 c 0.5403,-0.54029 1.3377,-0.98235 1.7719,-0.98235 1.0217,0 2.4486,1.8213 2.4486,3.1254 v 1.0163 l 1.0149,-0.95345 c 0.65476,-0.61512 1.6844,-1.0304 2.9016,-1.1704 l 1.8867,-0.21691 0.10652,-10.92 c 0.14076,-14.432 -0.78006,-20.413 -4.4491,-28.901 -6.0765,-14.057 -20.34,-23.545 -36.53,-24.299 -13.938,-0.64961 -26.544,5.3657 -34.987,16.695 -3.0213,4.0541 -6.7848,11.653 -6.7848,13.699 0,0.80705 0.0631,0.80809 31.317,0.51385 33.898,-0.31915 33.864,-0.32087 35.983,1.798 l 1.1374,1.1374 v 53.29 h 3.2017 z m -88.848,-5.7516 c 0,-2.0164 -0.17359,-3.6266 -0.39911,-3.702 -0.2195,-0.0734 -8.594,-0.0848 -18.61,-0.0254 l -18.211,0.10801 v 3.3272 c 0,1.83 0.12007,3.4472 0.26682,3.594 0.14675,0.14674 8.5213,0.26681 18.61,0.26681 h 18.343 z m 63.499,3.1684 h 11.741 v -3.3685 c 0,-1.8854 -0.17586,-3.4272 -0.39944,-3.5019 -0.21969,-0.0734 -10.485,-0.0854 -22.812,-0.0268 l -22.413,0.10664 v 3.3286 c 0,1.8307 0.13507,3.4722 0.30016,3.6477 0.1651,0.17555 5.147,0.20556 11.071,0.0667 5.924,-0.13886 16.054,-0.25247 22.512,-0.25247 z m -63.493,-11.106 c 0.007,-2.118 0.16101,-2.4514 1.5837,-3.425 0.80243,-0.54914 1.9565,-0.67719 6.1033,-0.67719 h 5.1138 v -16.409 l -27.515,0.006 c -21.338,0.005 -27.74,0.11921 -28.515,0.51071 -0.55094,0.27796 -1.2152,1.1296 -1.4782,1.8951 -0.6578,1.9146 -0.69278,13.667 -0.0426,14.317 0.26414,0.26415 1.3988,0.48026 2.5214,0.48026 2.4398,0 3.0016,0.46441 3.0016,2.4814 0,1.2618 0.13845,1.5208 0.81299,1.5208 0.44715,0 0.91667,0.27014 1.0434,0.60032 0.20018,0.52169 2.6626,0.60033 18.798,0.60033 h 18.567 z m 75.142,-7.703 c 0.11838,-10.339 -0.0278,-11.211 -2.0651,-12.327 -1.146,-0.62763 -3.4589,-0.66982 -29.26,-0.5338 -15.408,0.0813 -28.049,0.17542 -28.091,0.20929 -0.0417,0.0338 -0.13179,3.7046 -0.20011,8.1573 l -0.12422,8.0957 5.723,-4.6e-4 c 7.5185,-6e-4 8.4848,0.45125 8.4848,3.9678 0,0.82579 0.12155,1.623 0.27011,1.7715 0.14856,0.14857 10.369,0.22361 22.712,0.16677 l 22.442,-0.10336 z"
       stroke-width="0.99818"
       id="path334"
       style="fill:#c90c0f" /><path
       d="m 382.99,896.34 c -3.2671,-0.30855 -6.7208,-1.163 -8.6781,-2.1472 -1.0326,-0.51913 -1.5144,-0.93411 -1.8218,-1.5693 -0.22201,-0.4586 -0.23358,-0.59037 -0.17212,-1.9592 0.12015,-2.6756 0.75563,-4.6772 2.1834,-6.877 0.32889,-0.5067 0.60234,-1.0628 0.63491,-1.2913 0.0314,-0.22071 0.39636,-5.1709 0.8109,-11.001 0.41452,-5.8297 0.80678,-10.914 0.87169,-11.299 0.16579,-0.9828 0.41623,-1.5912 0.94124,-2.2866 0.58753,-0.77817 1.3824,-1.3179 2.4315,-1.6511 0.46269,-0.14689 0.8779,-0.28974 0.9227,-0.31744 0.0448,-0.0279 -0.11226,-0.5222 -0.349,-1.099 -0.87771,-2.1384 -1.2284,-4.3294 -1.1324,-7.0746 0.15253,-4.3615 1.6391,-8.9491 3.273,-10.101 0.79219,-0.55834 0.74171,-1.1128 -0.14844,-1.6308 -2.0869,-1.2144 -4.5268,-3.6369 -6.1367,-6.0931 -1.2288,-1.8748 -2.3325,-4.4288 -2.7799,-6.4329 -0.40462,-1.8125 -0.41231,-2.0491 -0.47432,-14.589 l -0.0611,-12.375 -1.6141,-0.0646 c -2.074,-0.0832 -2.9879,-0.34462 -3.9058,-1.1169 l -0.33162,-0.27903 -0.44522,0.58963 c -0.73725,0.97649 -1.7616,1.7 -2.9037,2.051 -0.32551,0.10006 -0.65093,0.20031 -0.72315,0.22278 -0.0959,0.0301 -0.075,0.16511 0.0783,0.50282 0.16542,0.36445 0.21016,0.70553 0.21202,1.6165 l 0.002,1.1546 0.41606,0.21227 c 0.65498,0.33411 1.0785,0.7441 1.3768,1.3328 0.39499,0.7795 0.43417,1.5391 0.14872,2.8826 -0.63455,2.9864 -4.4309,17.939 -4.8903,19.261 -0.29949,0.86198 -0.90875,1.8058 -1.4149,2.192 -0.20579,0.15696 -0.65165,0.41241 -0.99081,0.56767 l -0.61664,0.28233 1.3984,0.34852 c 2.7152,0.67674 4.2492,1.5477 6.2546,3.5509 2.2793,2.2769 3.591,5.1768 3.591,7.9388 0,1.3303 -0.20605,1.9998 -0.79749,2.5912 -0.55684,0.55688 -1.0682,0.74218 -1.885,0.68306 -1.1354,-0.0821 -1.5282,-0.42519 -3.4217,-2.9887 -0.28252,-0.38244 -0.72366,-0.84252 -0.98031,-1.0222 -0.40387,-0.28284 -0.5573,-0.3258 -1.1407,-0.31919 -0.75432,0.008 -1.237,0.22651 -1.6096,0.72698 -0.19364,0.26008 -0.22646,0.455 -0.22646,1.345 0,0.95254 0.0271,1.0899 0.31894,1.6167 0.44179,0.79764 1.6456,1.8801 2.9864,2.6855 1.8008,1.0817 2.447,1.8545 2.447,2.9261 0,0.95512 -0.76366,1.9614 -1.7018,2.2425 -1.531,0.45869 -4.1646,-0.31729 -6.2954,-1.8551 -3.7058,-2.6744 -6.9585,-7.474 -7.7608,-11.452 -0.26932,-1.3353 -0.24747,-3.6337 0.0447,-4.6986 0.58687,-2.1392 1.7979,-3.5654 3.6418,-4.2888 0.42755,-0.16767 0.77735,-0.34256 0.77735,-0.38853 0,-0.0462 -0.56896,-0.1914 -1.2644,-0.32324 -3.3417,-0.63349 -4.1329,-1.0051 -4.7024,-2.2089 -0.20935,-0.4425 -0.27447,-0.75158 -0.27447,-1.3025 0,-0.50709 0.57687,-3.597 1.936,-10.37 1.0648,-5.3062 2.0301,-10.016 2.1451,-10.465 0.46778,-1.829 1.4164,-2.9063 2.9672,-3.3698 0.41458,-0.12391 0.43345,-0.14963 0.51268,-0.69864 0.18299,-1.268 1.0344,-2.4897 1.9444,-2.79 0.21697,-0.0713 0.39448,-0.16872 0.39448,-0.21573 0,-0.047 -0.24573,-0.39293 -0.54604,-0.76862 -0.97747,-1.2228 -1.6001,-2.559 -1.9918,-4.2742 -0.22546,-0.98729 -0.32278,-4.3271 -0.16143,-5.5396 0.56168,-4.2207 2.5448,-7.3296 5.5426,-8.6888 1.1693,-0.53022 1.9736,-0.67072 3.5055,-0.61234 2.045,0.0779 3.2063,0.57326 4.5777,1.9527 0.81244,0.81725 1.4053,1.814 1.7133,2.8805 l 0.17668,0.61182 0.66693,0.22026 c 0.93639,0.30929 1.9537,0.43459 3.5485,0.43709 h 1.3751 l 0.28938,-0.67255 c 0.85912,-1.9968 2.0702,-4.2124 2.7937,-5.1108 0.43696,-0.54271 1.1457,-1.0506 1.7767,-1.2732 0.85484,-0.30164 3.4017,-0.71971 7.5628,-1.2414 0.47347,-0.0595 0.89248,-0.14146 0.93113,-0.18237 0.0615,-0.0654 0.41627,-2.2712 0.59377,-3.6924 l 0.0621,-0.49731 -0.95491,-0.075 c -3.8818,-0.30509 -6.0883,-0.68541 -7.0671,-1.2181 -2.0658,-1.1243 -3.8223,-4.6644 -4.5911,-9.2532 l -0.13071,-0.78014 h -0.53398 c -0.84864,0 -2.0083,-0.30425 -2.9976,-0.78645 -0.75184,-0.36645 -1.0978,-0.62826 -1.9431,-1.4707 -0.85571,-0.85275 -1.1026,-1.1785 -1.4702,-1.9396 -0.57098,-1.1823 -0.78337,-2.0867 -0.78337,-3.3358 0,-2.887 1.5855,-5.4571 4.1482,-6.7243 0.99179,-0.49042 1.6559,-0.68651 2.5773,-0.76099 1.2353,-0.0998 1.1816,-0.0664 1.3994,-0.87099 0.39772,-1.4693 1.7726,-3.895 3.2787,-5.7844 3.6995,-4.6413 8.4602,-7.7787 13.986,-9.2173 1.7374,-0.4523 3.2627,-0.71062 5.0948,-0.86278 0.87032,-0.0723 1.5804,-0.16035 1.578,-0.19569 -0.002,-0.0353 -0.2471,-0.17813 -0.54373,-0.31731 -0.6656,-0.31232 -1.7354,-1.2874 -2.1057,-1.9191 -0.44004,-0.75087 -0.68203,-1.6792 -0.68203,-2.6164 0,-1.9751 1.027,-3.619 2.7785,-4.4475 0.60071,-0.28415 0.87462,-0.3463 1.6675,-0.37839 1.6424,-0.0664 2.7004,0.35504 3.7899,1.51 0.77097,0.81726 1.0515,1.2977 1.288,2.2054 0.37274,1.4311 0.0998,2.9449 -0.75454,4.1854 -0.45905,0.66651 -0.82228,0.96392 -1.7478,1.4311 -0.36991,0.18672 -0.67255,0.35671 -0.67255,0.37778 0,0.0211 0.54477,0.0972 1.2106,0.16911 5.7808,0.62457 10.743,2.6381 14.807,6.0085 3.2953,2.733 6.0262,6.4993 7.1532,9.8655 l 0.35937,1.0733 0.95976,0.11909 c 1.9166,0.23784 3.3556,0.96977 4.682,2.3814 0.85251,0.90733 1.2682,1.6129 1.668,2.8317 0.26842,0.81807 0.30011,1.0681 0.30011,2.3674 0,1.2842 -0.0331,1.5525 -0.28569,2.3136 -0.51619,1.5554 -1.35,2.7118 -2.6756,3.7107 -1.1847,0.89267 -2.0367,1.2702 -3.4634,1.5345 -0.66147,0.12253 -1.2152,0.23183 -1.2306,0.24286 -0.0154,0.011 -0.19653,0.7065 -0.40254,1.5455 -0.75082,3.0578 -1.8753,5.4942 -3.1151,6.7492 -1.1162,1.1298 -2.2006,1.5966 -4.59,1.9758 -0.62517,0.0992 -3.6188,0.4365 -3.8742,0.4365 -0.0528,0 -0.0961,0.1358 -0.0961,0.30186 0,0.56995 0.5524,3.8372 0.66001,3.9037 0.0593,0.0367 0.81862,0.1488 1.6876,0.24936 3.9223,0.45376 6.1531,0.87168 7.0448,1.3198 1.0437,0.52449 1.8207,1.5658 3.2153,4.3091 0.45757,0.90019 0.89262,1.8391 0.96677,2.0866 l 0.13479,0.44987 1.7809,-0.0661 c 1.2146,-0.0455 2.0468,-0.13324 2.6171,-0.27653 1.4666,-0.36856 1.5624,-0.41491 1.6444,-0.79625 0.0407,-0.18905 0.20789,-0.6409 0.3716,-1.0042 1.1792,-2.6164 3.4125,-4.0205 6.3945,-4.0205 2.3251,0 4.1518,0.886 5.8231,2.8244 1.7641,2.0459 2.7392,5.1978 2.7382,8.851 -7.3e-4,3.1274 -0.76008,5.5904 -2.2844,7.4104 -0.34105,0.40719 -0.62009,0.77311 -0.62009,0.81314 0,0.0404 0.1591,0.13037 0.35355,0.20066 1.0451,0.37789 1.891,1.5561 1.992,2.7744 0.0482,0.58008 0.0508,0.58391 0.49182,0.70267 1.5071,0.40587 2.4737,1.356 2.9508,2.9008 0.20448,0.66198 1.5006,7.1053 3.309,16.45 0.508,2.6249 0.81909,4.4997 0.81589,4.9168 -0.007,1.023 -0.36053,1.7157 -1.172,2.3022 -0.55043,0.3978 -1.0717,0.55423 -3.229,0.96915 -1.0225,0.19661 -1.8447,0.4005 -1.8272,0.45309 0.0175,0.0528 0.3078,0.20771 0.64509,0.34484 2.3553,0.95723 3.7829,3.0482 4.0477,5.9285 0.16387,1.7826 -0.14428,3.8224 -0.84591,5.5998 -2.0717,5.2478 -6.5302,9.7798 -10.643,10.818 -1.2949,0.32692 -2.6644,0.26405 -3.3799,-0.15526 -0.27952,-0.16387 -0.6403,-0.49746 -0.80175,-0.74138 -0.25132,-0.3798 -0.29305,-0.55291 -0.29031,-1.2046 0.005,-1.3218 0.44772,-1.8733 2.4653,-3.0747 1.3546,-0.80652 2.5572,-1.9207 2.9579,-2.7402 0.38874,-0.79508 0.43224,-1.989 0.0961,-2.6392 -0.34556,-0.66875 -0.82961,-0.96937 -1.5605,-0.96937 -1.1383,0 -1.7411,0.46132 -2.8941,2.2148 -1.118,1.7002 -1.8213,2.2304 -2.9608,2.2321 -1.7158,0 -2.6782,-1.3564 -2.5379,-3.5837 0.14961,-2.3746 1.0788,-4.5426 2.8774,-6.7137 1.9439,-2.3464 4.6613,-4.087 7.4986,-4.8032 0.25153,-0.0631 0.45733,-0.15298 0.45733,-0.19896 0,-0.0456 -0.15952,-0.1596 -0.3545,-0.25259 -0.58988,-0.28129 -1.5263,-1.2205 -1.8773,-1.8828 -0.36291,-0.6849 -1.2455,-3.9559 -3.8124,-14.129 -1.6486,-6.5337 -1.7867,-7.3331 -1.4449,-8.3622 0.2082,-0.6268 0.74855,-1.2984 1.4119,-1.7548 l 0.4676,-0.3217 -0.0592,-0.94123 c -0.0495,-0.78603 -0.0216,-1.047 0.16841,-1.5831 0.1252,-0.35305 0.22761,-0.64802 0.22761,-0.65551 0,-0.007 -0.2058,-0.0752 -0.45733,-0.1505 -1.0281,-0.3076 -1.8026,-0.78706 -2.5605,-1.5848 -0.41163,-0.43341 -0.74844,-0.83627 -0.74844,-0.89525 0,-0.19545 -0.33177,-0.11142 -0.78768,0.19948 -1.1492,0.78382 -2.914,1.1647 -4.7272,1.02 l -0.83398,-0.0668 -0.002,12.094 c -0.002,12.652 -0.021,13.244 -0.47943,15.062 -0.57251,2.2706 -1.6982,4.842 -2.9407,6.7173 -1.2374,1.8675 -3.5329,4.2221 -5.2884,5.4245 -0.53058,0.36341 -0.996,0.7114 -1.0343,0.77333 -0.0383,0.0617 -0.0389,0.31744 -0.002,0.56797 0.0533,0.35481 0.13989,0.49768 0.39251,0.64685 1.7799,1.0515 3.4336,5.297 3.7839,9.7144 0.20993,2.6478 -0.15204,5.3949 -0.98829,7.5001 -0.18085,0.45522 -0.32881,0.86836 -0.32881,0.91809 0,0.05 0.30264,0.19933 0.67254,0.33242 1.8781,0.67587 3.0117,1.8772 3.4035,3.6069 0.067,0.29592 0.19497,1.6518 0.28429,3.013 0.0894,1.3612 0.25767,3.8308 0.37409,5.488 0.30896,4.3983 0.51865,7.5636 0.74689,11.275 l 0.20227,3.2887 0.42251,0.62732 c 1.6278,2.4167 2.3567,4.5144 2.4705,7.1091 0.0741,1.6902 -0.0498,2.153 -0.74405,2.7802 -1.2144,1.0972 -4.9347,2.3311 -8.6396,2.8655 -1.5145,0.21853 -6.7677,0.18142 -8.3934,-0.0595 -2.9128,-0.43114 -5.237,-1.0585 -6.9725,-1.8821 -2.1308,-1.0112 -2.49,-1.6719 -2.242,-4.1243 0.22768,-2.2517 0.64372,-3.7491 1.5348,-5.5239 l 0.54024,-1.0761 0.15404,-3.1206 c 0.33686,-6.8241 0.91392,-17.626 1.0196,-19.085 0.15744,-2.1746 0.46299,-2.992 1.4938,-3.9961 0.54532,-0.53124 1.0684,-0.83708 2.1856,-1.2779 l 0.29626,-0.11693 -0.32291,-0.52479 c -0.72629,-1.1804 -1.2696,-2.9151 -1.522,-4.86 -0.17418,-1.342 -0.17164,-5.3718 0.005,-6.6717 0.26054,-1.9261 0.78827,-3.8031 1.3537,-4.8147 0.14914,-0.26684 0.27115,-0.5275 0.27115,-0.5792 0,-0.0528 -4.5076,-0.0939 -10.33,-0.0939 -5.6817,0 -10.33,0.0396 -10.33,0.0885 0,0.0484 0.14191,0.3513 0.31538,0.67248 1.138,2.1076 1.7979,6.3796 1.5197,9.8384 -0.2044,2.5408 -0.67817,4.451 -1.5186,6.123 -0.23507,0.46756 -0.41452,0.86116 -0.3988,0.8746 0.0157,0.0132 0.39177,0.19208 0.83565,0.39707 1.3715,0.63326 2.414,1.8129 2.7674,3.1316 0.1726,0.64392 0.40155,4.7333 0.89865,16.052 0.34433,7.8393 0.34545,7.8548 0.60476,8.2655 0.46828,0.74183 1.1901,2.2654 1.4713,3.1057 0.69059,2.0634 0.96397,4.7762 0.56444,5.601 -0.80261,1.6569 -5.0327,3.2467 -9.9497,3.7395 -1.2904,0.12934 -4.7925,0.12434 -6.2029,-0.008 z m 7.0483,-2.3019 c 3.1839,-0.4368 6.4418,-1.5123 6.9554,-2.2961 0.34893,-0.53248 -0.0849,-3.0364 -0.82912,-4.7853 -0.44032,-1.0348 -1.358,-2.3862 -2.2295,-3.2832 -2.5154,-2.5892 -5.9827,-3.2199 -9.8008,-1.7828 -0.68861,0.2592 -3.5002,1.8657 -3.4147,1.9512 0.0237,0.0235 0.47167,-0.0996 0.9954,-0.27425 1.4188,-0.47286 2.3686,-0.6077 4.1805,-0.5936 1.9004,0.0147 2.8435,0.21608 4.2006,0.89687 2.8064,1.4078 4.677,4.3991 4.677,7.479 v 0.98845 l -5.0845,0.0735 c -2.7964,0.0405 -7.1154,0.025 -9.5977,-0.0345 -2.4822,-0.0595 -4.5395,-0.0813 -4.5717,-0.0492 -0.13293,0.13294 0.54507,0.4871 1.6062,0.83898 1.2649,0.41953 2.7776,0.74198 4.3043,0.91752 0.56224,0.0646 1.1918,0.13742 1.3989,0.16151 0.87659,0.10226 6.0328,-0.0463 7.2097,-0.20757 z m 32.713,-0.007 c 3.5124,-0.40045 6.8409,-1.3741 7.6285,-2.2316 0.37368,-0.40675 0.35715,-1.1997 -0.0632,-3.0316 -0.095,-0.41424 -0.35302,-1.171 -0.57324,-1.6815 -1.8144,-4.2063 -5.4444,-6.4577 -9.4474,-5.8591 -1.411,0.21101 -2.8148,0.68144 -4.1088,1.3769 -1.0746,0.5776 -2.1806,1.275 -2.1192,1.3364 0.0199,0.0198 0.44785,-0.1073 0.95094,-0.28277 1.347,-0.46977 2.3519,-0.65801 3.8584,-0.72271 1.6118,-0.0691 2.8383,0.12492 4.1498,0.65698 3.1872,1.2931 5.3197,4.466 5.3197,7.9152 v 0.86544 l -2.1791,0.0154 c -1.1985,0.008 -5.5929,0.0448 -9.7654,0.0807 l -7.5864,0.0654 0.48217,0.257 c 1.4628,0.77957 4.1447,1.3242 7.158,1.4537 1.5446,0.066 4.8104,-0.0448 6.295,-0.2138 z m -27.861,-15.908 c -0.21175,-5.3106 -0.43846,-10.009 -0.50662,-10.5 -0.1188,-0.85568 -0.79606,-2.9379 -1.19,-3.6586 -0.66604,-1.2186 -1.8343,-2.4711 -2.3076,-2.4739 -0.0962,0 -0.53197,0.25868 -0.96847,0.57613 -1.371,0.99704 -2.053,1.2492 -3.3836,1.251 -1.4482,0 -2.5413,-0.44097 -3.7051,-1.5013 -0.32552,-0.29657 -0.65224,-0.53983 -0.72605,-0.54064 -0.0738,0 -0.32829,0.17393 -0.56549,0.38824 -1.0134,0.91553 -1.7924,3.3968 -2.631,8.3804 -0.20913,1.2429 -0.42782,2.7198 -0.48597,3.282 -0.1425,1.3776 -0.26925,5.884 -0.179,6.365 l 0.0723,0.38559 1.3698,-0.68732 c 2.0251,-1.0162 2.9858,-1.2401 5.5859,-1.302 1.6538,-0.0396 2.2408,-0.0132 2.9541,0.13125 2.1849,0.44275 4.1994,1.378 5.9042,2.741 0.80001,0.63966 0.80737,0.64281 0.84291,0.36107 0.0196,-0.15629 -0.0165,-1.5954 -0.0803,-3.1978 z m 33.026,2.4753 c 0,-0.20249 -0.0481,-1.0862 -0.10677,-1.9638 -0.0587,-0.87771 -0.22871,-3.4844 -0.37776,-5.7925 -0.32602,-5.0489 -0.37929,-5.4423 -0.96418,-7.1204 -0.64181,-1.8413 -1.5825,-3.3151 -2.5758,-4.0355 -0.60741,-0.44046 -0.84248,-0.39743 -1.607,0.29438 -1.6358,1.4803 -3.8038,1.8228 -5.7272,0.90486 -0.37453,-0.1787 -1.0012,-0.62914 -1.438,-1.0336 l -0.77422,-0.71684 -0.43307,0.4193 c -0.23821,0.23071 -0.54793,0.61344 -0.68828,0.85069 -0.57837,0.97765 -1.5419,5.1937 -1.986,8.6903 -0.24635,1.9395 -0.69399,8.4086 -0.59897,8.6562 0.12606,0.32846 1.1772,0.1201 2.6964,-0.53462 2.1904,-0.94395 3.3085,-1.1677 5.8012,-1.1612 1.8451,0.007 2.9376,0.16613 4.3671,0.64509 1.2864,0.43098 2.3884,0.9745 3.4178,1.6858 0.45833,0.3167 0.86964,0.5767 0.91403,0.57781 0.0444,0 0.0806,-0.1635 0.0806,-0.36592 z m -36.695,-27.786 c 0.51744,-1.6153 0.76202,-3.2622 0.83128,-5.5972 0.0336,-1.1337 0.031,-2.1397 -0.005,-2.2356 -0.0582,-0.15167 -0.15502,-0.12986 -0.74179,0.16672 -2.7128,1.371 -5.7982,1.6471 -7.827,0.70025 -0.43837,-0.20462 -0.60915,-0.24127 -0.67104,-0.14403 -0.12895,0.20257 0.0114,2.9475 0.25412,4.9728 0.12062,1.0061 0.23504,1.8458 0.25428,1.866 0.0193,0.0206 0.34128,-0.13331 0.71565,-0.34117 1.4044,-0.77965 2.8326,-0.91515 4.2021,-0.39868 0.78729,0.29695 1.7713,1.022 2.1695,1.5986 0.17082,0.2473 0.35013,0.44965 0.39848,0.44965 0.0483,0 0.23744,-0.46676 0.4202,-1.0373 z m 31.913,-0.16437 c 0.51986,-2.0271 0.58725,-5.4328 0.14214,-7.183 -0.11167,-0.43907 -0.22434,-0.81967 -0.2504,-0.84567 -0.0261,-0.0257 -0.1933,0.0565 -0.37168,0.18354 -0.46691,0.3325 -1.7869,0.91662 -2.8265,1.2508 -0.7725,0.2484 -1.1356,0.29555 -2.6186,0.34036 -1.6571,0.05 -1.7495,0.0419 -2.4609,-0.22762 -0.40654,-0.15387 -0.76489,-0.27968 -0.79634,-0.27968 -0.0738,0 0.0583,2.1792 0.19206,3.1662 0.19526,1.441 0.77446,3.8282 0.92883,3.8282 0.0798,0 0.38073,-0.1693 0.66873,-0.37621 1.1202,-0.80476 2.2816,-1.097 3.611,-0.90862 1.0393,0.14727 1.9292,0.61527 2.7558,1.4493 0.37643,0.37979 0.70328,0.6716 0.72636,0.64854 0.0231,-0.0235 0.15787,-0.49385 0.29951,-1.0462 z m 25.542,-7.5069 c 0.62846,-0.47212 2.3622,-2.4849 3.0969,-3.5952 1.0558,-1.5957 1.8327,-3.4283 2.197,-5.1824 0.17672,-0.85089 0.17414,-2.5407 -0.005,-3.282 -0.17244,-0.71369 -0.80904,-2.0649 -1.0945,-2.3233 -0.20014,-0.18112 -0.20373,-0.17591 -0.12459,0.18061 0.0448,0.20191 0.0754,1.1419 0.068,2.0888 -0.0113,1.4276 -0.063,1.9515 -0.30262,3.0668 -0.75701,3.5226 -2.3684,7.0839 -4.0026,8.8462 -0.67723,0.73023 -0.6234,0.79471 0.16754,0.20052 z m -81.738,-6.4911 c -0.12004,-0.62739 -0.69333,-2.1624 -1.095,-2.932 -1.0363,-1.9853 -2.7391,-3.6689 -4.7192,-4.666 -1.1811,-0.59477 -2.4042,-0.89254 -3.852,-0.93785 -1.0308,-0.0324 -1.2153,-0.0176 -0.91468,0.074 0.20716,0.0631 0.78385,0.23517 1.2816,0.38274 3.6347,1.0775 6.9844,3.8921 8.6417,7.2614 0.58616,1.1917 0.77386,1.425 0.65764,0.81762 z m 49.895,-2.8212 c 1.2096,-0.31752 3.7588,-1.7868 5.317,-3.0647 0.74301,-0.60933 2.1436,-1.9923 2.6757,-2.6419 1.0908,-1.3319 2.3834,-3.6814 2.9743,-5.406 0.97595,-2.8483 1.0007,-3.4103 0.94757,-21.522 -0.0421,-14.355 -0.0448,-14.511 -0.27404,-15.577 -0.33238,-1.5448 -0.8387,-3.2728 -1.3367,-4.5624 -0.47901,-1.2402 -1.6625,-3.6052 -2.3447,-4.6854 -0.71233,-1.1279 -0.79087,-1.1696 -2.8097,-1.4948 -2.062,-0.33206 -4.8166,-0.64898 -7.6782,-0.88328 -2.8026,-0.22953 -9.6057,-0.33126 -11.41,-0.17062 -9.0512,0.80579 -14.667,3.4548 -18.397,8.6786 -1.2344,1.7287 -1.9974,3.5091 -2.3506,5.4852 -0.45272,2.5331 -1.5538,13.621 -1.9554,19.692 -0.63662,9.6227 -0.31594,14.014 1.3438,18.401 0.91341,2.4144 2.2381,4.7877 3.0926,5.5409 0.74525,0.6569 2.3872,1.8713 2.8843,2.1334 l 0.42766,0.2254 h 14.15 c 11.996,0 14.241,-0.0198 14.742,-0.15189 z m -29.377,-14.548 c -2.0218,-0.31334 -3.4733,-1.5086 -4.0912,-3.369 l -0.23118,-0.69607 0.0471,-13.132 c 0.0468,-13.051 0.0485,-13.138 0.28417,-14.208 0.40684,-1.8465 1.1546,-3.3447 2.3438,-4.6961 2.1927,-2.4916 5.0742,-3.7439 10.425,-4.5304 1.4628,-0.21505 2.0263,-0.2362 6.2878,-0.23576 4.324,3.6e-4 4.7999,0.0191 6.2413,0.24333 4.5192,0.70327 7.4473,2.0237 9.6293,4.3422 1.3637,1.449 2.1821,2.9644 2.6968,4.9933 l 0.26402,1.0408 v 13.097 c 0,12.941 -0.002,13.105 -0.22203,13.773 -0.42838,1.3049 -1.2894,2.2954 -2.5234,2.9029 -0.63807,0.31413 -0.8881,0.37215 -1.9262,0.44699 -1.1658,0.084 -28.693,0.1098 -29.225,0.0272 z m -29.31,4.1101 c 0.3381,-0.35284 0.52039,-0.67416 0.68673,-1.2106 0.27692,-0.89298 3.7912,-14.683 4.4642,-17.517 0.26698,-1.1245 0.48547,-2.2466 0.48549,-2.4936 5e-5,-0.67087 -0.416,-1.0394 -1.4225,-1.2598 -1.494,-0.32728 -6.3241,-1.1428 -6.7681,-1.1428 -0.57085,0 -1.1498,0.35299 -1.3449,0.82005 -0.23409,0.56018 -0.19537,0.65184 0.30826,0.72947 0.81417,0.12559 7.3316,1.3657 7.7478,1.4742 0.31977,0.0834 0.40352,0.15689 0.40352,0.35431 0,0.13698 -0.40634,1.6968 -0.90298,3.4662 -1.9955,7.1094 -2.6855,9.5479 -3.2492,11.483 -0.84275,2.893 -1.2282,4.4944 -1.2282,5.1033 0,0.84215 0.1616,0.8802 0.81998,0.19309 z m 97.253,-1.4116 c 0.11936,-0.31106 0.0684,-0.73624 -0.30866,-2.5774 -0.20568,-1.0042 -0.80802,-4.1017 -1.3385,-6.8833 -2.3444,-12.293 -2.2568,-11.899 -2.7856,-12.53 -0.47306,-0.56473 -1.1223,-0.56856 -3.951,-0.0235 -1.2418,0.23943 -2.7178,0.51538 -3.2801,0.61313 -1.3159,0.22887 -1.863,0.48344 -2.0966,0.97576 -0.1732,0.36503 -0.15109,1.1542 0.0355,1.2695 0.0399,0.025 1.7667,-0.29194 3.8376,-0.70347 2.0709,-0.41161 3.9337,-0.73412 4.1395,-0.71671 l 0.37425,0.0316 0.24289,1.0223 c 0.1336,0.56225 0.77892,3.6129 1.434,6.7793 2.2055,10.66 2.5139,11.86 3.2553,12.671 0.26197,0.28644 0.35332,0.30136 0.44137,0.072 z m -91.294,-28.578 c 0.9313,-0.40308 1.6357,-1.32 1.9302,-2.5125 0.0731,-0.29592 0.52261,-2.4508 0.99894,-4.7886 0.73466,-3.6057 0.86795,-4.4219 0.8785,-5.3804 0.0119,-1.088 -0.002,-1.16 -0.37631,-1.9439 -0.52768,-1.1049 -1.3031,-1.8858 -2.3935,-2.4102 -0.7611,-0.36606 -0.94868,-0.41021 -1.9619,-0.46191 -0.63678,-0.0324 -1.1204,-0.0154 -1.1204,0.0396 0,0.0537 0.31305,0.2094 0.69567,0.34668 1.3598,0.48769 2.5552,1.4817 3.0763,2.5582 0.17933,0.3704 0.23102,0.67682 0.23102,1.3693 0,0.78539 -0.14234,1.4448 -1.19,5.5126 -1.3749,5.3384 -1.9522,7.6682 -1.9522,7.8784 0,0.18332 0.47199,0.10058 1.1837,-0.20749 z m 83.553,-2.9492 c 0.73373,-1.4712 0.85645,-2.166 0.85424,-4.8361 -0.002,-2.2044 -0.021,-2.4377 -0.27923,-3.3897 -0.97356,-3.5892 -2.4661,-5.4478 -4.8799,-6.0765 -1.0173,-0.26498 -3.1887,-0.12029 -3.1801,0.2119 0.002,0.0595 0.28288,0.14316 0.62521,0.18663 1.315,0.16703 2.8566,1.2125 3.8588,2.617 0.60902,0.85346 1.3656,2.45 1.6546,3.4914 0.52401,1.8883 0.69746,3.2727 0.7011,5.5956 0.003,1.8045 -0.0308,2.3167 -0.18487,2.8144 -0.10353,0.33463 -0.187,0.6736 -0.18541,0.7532 0.005,0.25223 0.6219,-0.57869 1.0155,-1.3679 z m -26.844,-25.971 c 0.38469,-0.1419 0.90564,-0.39867 1.1576,-0.57069 1.1797,-0.80528 2.2903,-2.9948 3.0497,-6.0122 0.5744,-2.2823 0.74778,-3.8232 0.81644,-7.2558 0.0966,-4.8274 -0.19354,-7.9544 -0.9494,-10.234 -0.65052,-1.9618 -2.3104,-4.4814 -4.3434,-6.5929 -1.6944,-1.7599 -4.3124,-3.759 -5.4544,-4.165 -2.8621,-1.0176 -8.7753,-0.62955 -13.269,0.87068 -2.396,0.79986 -5.0827,2.3057 -6.7157,3.7641 -0.84487,0.75451 -3.1292,3.3052 -3.0601,3.417 0.0275,0.0446 2.3594,0.0849 5.182,0.0894 2.8226,0.005 8.0615,0.0485 11.642,0.0976 7.1182,0.0975 6.9982,0.0865 8.3877,0.77049 1.0554,0.51956 2.2254,1.7363 2.7869,2.898 0.60668,1.2553 0.7663,2.029 0.76821,3.7233 0.002,2.3655 -0.30257,3.9138 -1.0558,5.3557 -0.49312,0.94397 -1.6666,2.1434 -2.5562,2.6128 -1.3436,0.70891 -0.5882,0.67482 -14.95,0.67482 -9.9911,0 -13.06,0.0302 -13.159,0.12911 -0.29529,0.2953 -0.0744,3.3475 0.4186,5.7838 0.28177,1.3926 0.59256,2.2949 1.3091,3.8013 l 0.55153,1.1594 28.744,-0.0588 z m 12.484,-12.549 c 2.0247,-3.5388 -0.44978,-8.6133 -4.6174,-9.4691 -0.43791,-0.0899 -0.81964,-0.14005 -0.84829,-0.11141 -0.0695,0.0694 0.19407,2.0411 0.29443,2.2034 0.0432,0.0699 0.36469,0.20177 0.71433,0.29295 2.4351,0.63497 4.0177,2.7154 4.0238,5.2894 0.002,0.81694 -0.25649,2.0166 -0.60429,2.8055 -0.14025,0.31809 -0.25499,0.62919 -0.25499,0.69136 0,0.16482 0.9099,-1.0335 1.2925,-1.7022 z m -39.016,-2.1896 c 0.63197,-0.27956 1.556,-1.2045 1.8956,-1.8974 0.22895,-0.46715 0.26369,-0.68691 0.26369,-1.6679 0,-1.0272 -0.0275,-1.1837 -0.30301,-1.7217 -0.93809,-1.8322 -3.0036,-2.6051 -4.7785,-1.788 -0.78651,0.36208 -1.6471,1.2126 -1.9997,1.9763 -0.1905,0.4126 -0.23605,0.70842 -0.23611,1.5335 -7e-5,0.98353 0.016,1.0522 0.42251,1.8133 0.48143,0.90122 1.2056,1.5329 2.1418,1.8684 0.70436,0.25238 1.8792,0.19966 2.5937,-0.11639 z m 18.946,-0.11389 c 1.1834,-0.58257 1.8713,-1.5469 2.0928,-2.9335 0.2672,-1.6726 -0.54994,-3.1945 -2.164,-4.0303 -0.8083,-0.41856 -2.022,-0.42897 -2.8931,-0.0249 -1.1097,0.51484 -1.8564,1.4001 -2.2056,2.615 -0.54327,1.8899 0.69833,4.0903 2.6206,4.6442 0.78916,0.22742 1.7433,0.1261 2.5493,-0.27066 z m -9.3034,-27.547 c 0.82599,-0.31385 1.4383,-0.8751 1.836,-1.683 0.29485,-0.59892 0.34481,-0.81672 0.34365,-1.4979 -0.002,-1.0058 -0.31953,-1.7061 -1.1452,-2.5234 -0.93298,-0.92347 -1.2739,-1.0207 -0.50127,-0.14301 0.53964,0.61307 0.68077,1.1298 0.62497,2.2881 -0.038,0.78642 -0.0953,1.0107 -0.40992,1.5997 -0.36854,0.69005 -1.0747,1.3986 -1.8983,1.9048 l -0.41501,0.25504 0.50998,0.004 c 0.28049,0.002 0.75531,-0.0898 1.0552,-0.20379 z"
       stroke-width="0.31688"
       id="path336"
       style="fill:#c90c0f" /><path
       d="m 520.58,887.44 v -9 h 69.188 v -63 h -2.1628 c -3.3502,0 -4.0247,-1.1499 -4.0247,-6.8609 v -4.8035 l -2.3181,-0.31093 c -1.275,-0.17101 -2.5267,-0.52074 -2.7816,-0.77718 -0.255,-0.25646 -1.2368,-3.4884 -2.182,-7.1821 l -1.7183,-6.7158 v -45.35 h -18 v -6.1875 h -54 v -20.813 h 180 v 20.813 h -54 v 6.1875 h -18 v 45.35 l -1.7183,6.7158 c -0.9451,3.6937 -1.927,6.9256 -2.1819,7.1821 -0.25493,0.25644 -1.5067,0.60617 -2.7816,0.77718 l -2.3181,0.31093 v 4.9013 c 0,5.6578 -0.67376,6.7631 -4.1224,6.7631 h -2.0651 v 63 h 69.187 v 18 h -144 z m 137.81,0 v -2.8125 H 526.77 v 5.625 h 131.62 z m -63,-81 v -2.8125 h -5.625 v 5.625 h 5.625 z m 7.3219,-10.687 c 0.20379,-0.77345 0.54298,-2.1024 0.7538,-2.9531 l 0.38324,-1.5469 h -11.299 c -10.497,0 -11.278,0.0698 -11.006,0.98437 0.16087,0.5414 0.46602,1.7437 0.6782,2.6719 0.21212,0.92812 0.49584,1.8832 0.6305,2.1225 0.1346,0.23925 4.5746,0.3658 9.8666,0.28125 l 9.6219,-0.15373 z M 604.39,764.534 V 743.44 h -23.625 v 18 h 9.0588 l -0.16998,2.9531 -0.17004,2.9531 -8.7188,0.32856 v 5.5491 l 17.719,0.30983 0.17004,2.9531 0.17,2.9531 h -18.059 v 6.1875 h 23.625 z m 18,-34.594 v -7.3125 h -59.625 v 14.625 h 59.625 z m -65.812,-2.8125 v -4.5 h -47.812 v 9 h 47.812 z m 119.81,0 v -4.5 h -47.812 v 9 h 47.812 z m -104.37,145.32 c -2.152,-1.4256 -4.1429,-2.8019 -4.4243,-3.0584 -0.77322,-0.70484 2.374,-5.1731 3.3735,-4.7895 0.64181,0.2463 7.0554,4.3862 8.0436,5.192 0.11982,0.0978 -0.52419,1.3185 -1.4311,2.7128 l -1.6491,2.5351 z m 35.495,-0.24683 c -0.83774,-1.2659 -1.4409,-2.3684 -1.3404,-2.45 1.4205,-1.1533 8.1918,-5.3716 8.6142,-5.3664 0.58731,0.007 3.1183,3.5822 3.0758,4.3445 -0.0287,0.51621 -7.6097,5.7735 -8.3253,5.7735 -0.27568,0 -1.1866,-1.0357 -2.0244,-2.3016 z m -28.544,-10.214 c -4.3481,-6.5782 -4.1536,-5.6848 -1.6053,-7.3711 1.2369,-0.81854 2.4442,-1.4861 2.6828,-1.4834 0.34093,0.004 4.9472,6.9035 5.655,8.4707 0.13893,0.30761 -4.007,3.337 -4.567,3.337 -0.1175,0 -1.092,-1.3289 -2.1656,-2.9531 z m 22.72,1.5868 c -1.0199,-0.72115 -1.9907,-1.4475 -2.1573,-1.6142 -0.30764,-0.3076 5.2213,-8.832 5.7284,-8.832 0.15188,0 1.2882,0.66971 2.5251,1.4882 2.2374,1.4806 2.244,1.4958 1.2978,2.9531 -3.5156,5.4147 -4.8979,7.3677 -5.1973,7.3435 -0.1882,-0.0152 -1.1767,-0.61761 -2.1966,-1.3388 z"
       stroke-width="0.5625"
       id="path338"
       style="fill:#c90c0f" /><path
       d="m 727.64,890.85 c 0,-5.3064 0.11238,-5.7007 2.1945,-7.6954 l 2.1945,-2.1026 h 39.575 c 32.481,0 39.909,0.17892 41.441,0.99841 2.6463,1.416 4.0783,4.9367 4.0783,10.027 v 4.366 h -89.482 z m 14.809,-44.338 c 0.231,-14.469 0.5268,-26.432 0.65744,-26.584 0.13065,-0.15175 0.97236,0.20147 1.8706,0.78495 2.4243,1.5749 8.262,3.3372 12.761,3.8523 6.9232,0.79255 16.87,-2.1414 22.024,-6.4961 1.3082,-1.1053 2.6184,-1.717 2.9248,-1.3654 0.30525,0.35027 3.3861,10.14 6.8462,21.755 3.4602,11.615 7.1859,24.098 8.2793,27.74 l 1.988,6.6217 h -57.771 z m 165.39,21.806 c -3.9992,-5.2464 -5.7673,-9.8153 -6.1143,-15.799 -0.17959,-3.0983 0.0609,-7.3565 0.53594,-9.4781 1.062,-4.7455 5.7103,-11.883 9.55,-14.665 l 2.8425,-2.0591 1.9852,1.4134 c 1.0917,0.77742 3.9466,1.916 6.3441,2.5302 5.5075,1.411 12.931,0.55203 17.552,-2.0307 l 3.1383,-1.7541 2.2096,1.3991 c 3.3493,2.1206 8.5316,9.4867 9.8396,13.986 1.7518,6.0264 1.1114,15.122 -1.4237,20.221 -1.0767,2.1654 -2.8981,5.0647 -4.0477,6.4428 l -2.0901,2.5055 -0.022,-12.528 -0.022,-12.528 -9.1683,-5.1899 c -5.0425,-2.8545 -9.4584,-5.19 -9.8133,-5.19 -0.35481,0 -4.7519,2.3355 -9.7713,5.19 l -9.1262,5.1899 -0.20715,12.473 -0.20726,12.473 z m 17.227,-45.898 c -4.6656,-1.2538 -8.8939,-4.3767 -11.171,-8.2507 -1.6255,-2.7649 -1.9234,-4.1032 -1.9234,-8.6406 0,-4.5988 0.28936,-5.861 2.0166,-8.7995 6.9094,-11.755 23.419,-11.755 30.328,0 1.6926,2.8796 2.0165,4.2353 2.0165,8.4415 0,3.4825 -0.4143,5.8453 -1.3583,7.7459 -3.7191,7.4887 -12.251,11.561 -19.908,9.5033 z m 9.9917,-12.266 c 2.3876,-2.7307 2.188,-6.8204 -0.47823,-9.8045 -1.7934,-2.0071 -2.5611,-2.3378 -5.4277,-2.3378 -2.8664,0 -3.6343,0.3307 -5.4276,2.3378 -1.5413,1.725 -2.0889,3.0602 -2.0889,5.0934 0,7.0172 8.7277,10.08 13.422,4.711 z m -178.79,6.1126 c -6.3889,-1.0848 -11.274,-4.0845 -15.313,-9.4031 -3.4432,-4.5337 -4.8279,-8.6896 -4.8441,-14.538 -0.028,-10.003 5.2129,-18.245 14.262,-22.43 5.9856,-2.7687 13.852,-2.7467 19.855,0.0556 9.1652,4.2782 14.23,12.197 14.286,22.334 0.0258,4.734 -0.29558,6.4244 -1.8549,9.75 -3.6685,7.8238 -9.8442,12.656 -18.11,14.169 -2.3362,0.42782 -4.4301,0.73996 -4.6531,0.69365 -0.22291,-0.0463 -1.855,-0.33035 -3.6268,-0.63118 z m 9.3277,-13.781 c 4.3632,-2.2042 6.4212,-5.4737 6.4212,-10.201 0,-11.267 -14.282,-16.185 -21.088,-7.2614 -3.5144,4.6076 -3.1291,11.106 0.89974,15.172 4.0611,4.0988 8.6693,4.8654 13.767,2.2901 z m 120.55,-20.97 c -10.208,-8.8883 -18.642,-16.387 -18.742,-16.665 -0.10023,-0.27734 1.3494,-1.0633 3.2214,-1.7466 7.1931,-2.6256 13.658,-9.1524 16.275,-16.432 1.2248,-3.4062 1.328,-3.4982 2.504,-2.2356 0.67463,0.72428 8.1804,9.2448 16.68,18.935 l 15.453,17.618 -3.4726,1.6265 c -4.2638,1.9971 -9.3578,7.0924 -11.646,11.649 l -1.713,3.4115 z m -93.367,9.8457 c 0,-9.395 -6.0989,-20.566 -14.134,-25.888 -1.8727,-1.2404 -3.339,-2.4295 -3.2586,-2.6425 0.0803,-0.21296 12.805,-6.6186 28.276,-14.235 l 28.13,-13.848 0.45872,4.9098 c 0.6072,6.499 3.1496,11.849 7.8786,16.58 l 3.8323,3.8335 -25.25,17.002 c -13.887,9.3509 -25.404,17.002 -25.592,17.002 -0.188,0 -0.34247,-1.2209 -0.34247,-2.713 z m 63.27,-34.775 c -5.4703,-1.3739 -10.107,-4.3983 -12.48,-8.1411 -3.0537,-4.8152 -3.7596,-7.6199 -3.3854,-13.451 0.71615,-11.159 8.7833,-18.551 20.244,-18.551 14.041,0 23.353,12.709 19.364,26.43 -0.97069,3.339 -2.0368,4.9972 -5.3312,8.2916 -5.4855,5.4855 -11.32,7.2037 -18.412,5.4225 z m 8.6423,-11.175 c 3.6099,-1.7475 5.4012,-4.64 5.3977,-8.716 -0.009,-10.642 -13.893,-13.718 -18.822,-4.1704 -2.3766,4.6038 -0.20373,10.713 4.6636,13.112 3.1163,1.5359 5.2338,1.4813 8.7606,-0.22598 z"
       stroke-width="0.71586"
       id="path340"
       style="fill:#c90c0f" /><path
       d="m 148.12481,683.17 c -13.936,-6.2528 -22.398,-16.862 -25.879,-32.445 -1.7401,-7.7897 0.57841,-11.264 37.153,-55.671 l 39.009,-47.363 v -207.52 c 0,-224.97 -0.49934,-217.01 14.208,-226.74 6.0426,-3.9975 33.794,-4.3683 326.98,-4.3683 293.18,0 320.93,0.37075 326.98,4.3683 14.708,9.73 14.208,1.7578 14.208,226.8 v 207.59 l 39.097,47.425 c 21.503,26.084 38.727,48.693 38.274,50.243 -0.45237,1.5495 -1.5113,6.0046 -2.3532,9.9002 -0.84204,3.8956 -4.625,10.796 -8.4071,15.334 -14.217,17.059 12.493,16.028 -408.77,15.791 -288.93,-0.16208 -385.23,-0.98755 -390.49,-3.3469 z m 459.89,-13.884 c 2.5032,-3.0457 2.6929,-5.408 0.69112,-8.6121 -2.4554,-3.9304 -10.043,-4.4151 -69.111,-4.4151 -59.068,0 -66.655,0.48472 -69.111,4.4151 -2.0018,3.204 -1.8121,5.5664 0.69111,8.6121 2.9778,3.6224 12.342,4.1969 68.42,4.1969 56.077,0 65.442,-0.57446 68.42,-4.1969 z m 49.215,-42.176 -11.274,-14.574 h -212.72 l -22.547,29.148 h 257.82 z m 171.67,-115.05 8.5711,-7.7312 0.79414,-173.12 c 0.7186,-156.59 0.38174,-173.91 -3.5277,-181.42 -2.3769,-4.5652 -7.2189,-9.633 -10.76,-11.262 -9.1399,-4.2046 -559.63,-4.2046 -568.77,0 -3.541,1.6288 -8.3827,6.6967 -10.76,11.262 -3.9094,7.508 -4.246,24.828 -3.5277,181.42 l 0.79417,173.12 8.5711,7.7312 8.5709,7.7312 h 561.48 z"
       fill="#369830"
       stroke-width="2.6371"
       id="path348" /><g
       aria-label="LABORATÓRIO "
       transform="scale(0.92754087,1.0781196)"
       id="text13615"
       style="font-size:52.5009px;line-height:1.25;fill:#1d1d1b;stroke-width:1.09376"><path
         d="m 437.48314,217.31718 c 0,-0.23072 0,-36.40199 0,-36.53017 0,0 6.71643,0 9.81828,0.0256 -0.10254,9.07486 -0.17944,18.201 -0.25635,27.19895 3.61457,0.0769 7.25477,0.17945 10.86933,0.20508 v 9.25431 c -9.43376,-0.0769 -20.43126,-0.12817 -20.43126,-0.15381 z"
         style="font-family:'Cartoon Vibes';-inkscape-font-specification:'Cartoon Vibes'"
         id="path9075" /><path
         d="m 459.96522,217.21464 c 0.10254,-0.28199 4.79378,-18.58552 7.40857,-28.89088 0.9485,-3.79401 1.8201,-7.02404 1.89701,-7.20349 l 0.12817,-0.33326 h 6.48571 c 5.0245,0 6.51134,0.0513 6.61388,0.17945 0.0769,0.10254 0.41016,1.3074 0.69215,2.66606 0.64088,2.87115 2.43535,10.81806 5.43467,24.12273 1.15358,5.12704 2.10208,9.43376 2.10208,9.5363 0,0.12817 -1.05104,0.17944 -4.71688,0.17944 h -4.69124 l -0.9485,-4.12726 c -0.5127,-2.28154 -0.9485,-4.28108 -0.99977,-4.46053 l -0.0769,-0.33326 c -2.46098,0.12818 -4.97323,0.12818 -7.45984,0.12818 -0.0769,0 -0.38453,1.28176 -0.74342,2.74296 -0.38453,1.43558 -0.8716,3.38385 -1.12795,4.33235 l -0.4358,1.71756 h -4.81942 c -4.5118,0 -4.81942,-0.0256 -4.74251,-0.25635 z m 15.76565,-26.32735 c -0.12818,-0.15382 -0.0769,-0.3589 -1.87137,10.10027 l -0.0769,0.41016 h 1.89701 c 1.4612,0 1.87137,0 1.87137,-0.0256 -0.28199,-1.64065 -1.61502,-10.25408 -1.8201,-10.48479 z"
         style="font-family:'Cartoon Vibes';-inkscape-font-specification:'Cartoon Vibes'"
         id="path9072" /><path
         d="m 496.11086,217.44536 -3.33258,-0.0513 V 199.27 181.14591 c 5.25522,-0.3589 10.63861,-0.82033 15.68875,0.66651 9.89519,3.05059 9.71574,14.02246 3.30694,18.45735 -0.48707,0.35889 -0.89723,0.66652 -0.89723,0.74342 0,0.0513 0.15381,0.15381 0.33325,0.20508 5.99864,2.56352 7.87001,11.84347 0.0513,15.0735 -2.35844,0.97414 -6.30626,1.28176 -15.1504,1.15359 z m 10.38226,-10.38226 c -0.58961,-1.64065 -3.71711,-1.53811 -4.66561,-1.3074 0,1.48685 0,2.97369 0,4.48617 1.8201,0.33325 5.58847,-0.46144 4.66561,-3.17877 z m -3.35822,-10.97187 c 5.71665,-0.92287 5.92174,-7.66492 -0.23071,-7.43421 l -1.15359,0.0256 -0.0256,3.79401 c -0.0513,4.30671 -0.20508,3.87091 1.40993,3.61456 z"
         style="font-family:'Cartoon Vibes';-inkscape-font-specification:'Cartoon Vibes'"
         id="path9069" /><path
         d="m 523.89942,213.4719 c -11.92037,-12.17672 -2.46098,-36.4789 12.27926,-32.17218 9.56193,2.79424 11.71529,15.20168 10.4848,21.73865 -2.56352,13.56103 -14.6377,18.7137 -22.76406,10.43353 z m 9.02359,-23.84074 c -5.40903,-0.99977 -5.25522,18.2779 -0.35889,18.2779 4.84505,0 5.51157,-17.35503 0.35889,-18.2779 z"
         style="font-family:'Cartoon Vibes';-inkscape-font-specification:'Cartoon Vibes'"
         id="path9066" /><path
         d="m 558.45568,212.65157 c -0.10254,1.35867 -0.0513,2.74297 -0.0513,4.10164 h -9.35685 V 198.9111 181.04337 c 5.15267,-0.25636 10.40789,-0.71779 15.27858,0.9485 10.61297,3.97346 9.74138,19.43148 1.66629,24.07146 -0.25636,0.15381 -0.4358,0.30762 -0.41017,0.35889 0.0513,0.15381 5.71665,4.71688 6.07555,5.0245 0.0769,0.0513 -6.89587,6.02427 -7.04968,6.02427 -0.23072,0 -6.02428,-4.81942 -6.15245,-4.81942 z m 2.40971,-14.40698 c 1.35866,-0.66652 2.07645,-2.15336 2.10208,-4.25544 0.17945,-3.1275 -1.8201,-4.89633 -4.79378,-5.07578 -0.10254,1.76883 -0.0769,9.58757 -0.0256,9.71575 0.10255,0.30762 1.79447,0.0769 2.71734,-0.38453 z"
         style="font-family:'Cartoon Vibes';-inkscape-font-specification:'Cartoon Vibes'"
         id="path9063" /><path
         d="m 574.22133,217.21464 c 0.10254,-0.28199 4.79378,-18.58552 7.40858,-28.89088 0.9485,-3.79401 1.82009,-7.02404 1.897,-7.20349 l 0.12818,-0.33326 h 6.4857 c 5.0245,0 6.51135,0.0513 6.61389,0.17945 0.0769,0.10254 0.41016,1.3074 0.69215,2.66606 0.64088,2.87115 2.43534,10.81806 5.43466,24.12273 1.15358,5.12704 2.10209,9.43376 2.10209,9.5363 0,0.12817 -1.05105,0.17944 -4.71688,0.17944 h -4.69124 l -0.94851,-4.12726 c -0.5127,-2.28154 -0.9485,-4.28108 -0.99977,-4.46053 l -0.0769,-0.33326 c -2.46098,0.12818 -4.97323,0.12818 -7.45985,0.12818 -0.0769,0 -0.38453,1.28176 -0.74342,2.74296 -0.38453,1.43558 -0.8716,3.38385 -1.12795,4.33235 l -0.4358,1.71756 h -4.81942 c -4.51179,0 -4.81941,-0.0256 -4.74251,-0.25635 z m 15.76565,-26.32735 c -0.12817,-0.15382 -0.0769,-0.3589 -1.87137,10.10027 l -0.0769,0.41016 h 1.897 c 1.46121,0 1.87137,0 1.87137,-0.0256 -0.28199,-1.64065 -1.61502,-10.25408 -1.8201,-10.48479 z"
         style="font-family:'Cartoon Vibes';-inkscape-font-specification:'Cartoon Vibes'"
         id="path9060" /><path
         d="m 612.46906,190.24641 -9.71575,-0.0769 v -9.20304 c 9.40812,0.0513 18.79061,-0.0513 28.17309,-0.17945 v 9.20304 c -2.99932,0.17945 -6.02427,0.17945 -9.04922,0.17945 v 27.30149 h -9.33122 z"
         style="font-family:'Cartoon Vibes';-inkscape-font-specification:'Cartoon Vibes'"
         id="path9057" /><path
         d="m 636.66869,213.4719 c -11.92037,-12.17672 -2.46098,-36.4789 12.27926,-32.17218 9.56193,2.79424 11.71529,15.20168 10.4848,21.73865 -2.56352,13.56103 -14.6377,18.7137 -22.76406,10.43353 z m 9.02359,-23.84074 c -5.40903,-0.99977 -5.25522,18.2779 -0.35889,18.2779 4.84505,0 5.51157,-17.35503 0.35889,-18.2779 z m -3.15313,-14.04809 c -0.10254,-0.10254 5.48594,-7.84438 5.66538,-7.84438 0.12818,0 1.43557,0.92287 3.46075,2.38408 -1.84573,2.71733 -3.69147,5.20395 -5.71665,7.7931 -0.25635,0.0513 -3.35821,-2.28153 -3.40948,-2.3328 z"
         style="font-family:'Cartoon Vibes';-inkscape-font-specification:'Cartoon Vibes'"
         id="path9054" /><path
         d="m 671.22494,212.65157 c -0.10254,1.35867 -0.0513,2.74297 -0.0513,4.10164 h -9.35685 V 198.9111 181.04337 c 5.15268,-0.25636 10.40789,-0.71779 15.27858,0.9485 10.61298,3.97346 9.74138,19.43148 1.66629,24.07146 -0.25635,0.15381 -0.4358,0.30762 -0.41016,0.35889 0.0513,0.15381 5.71665,4.71688 6.07554,5.0245 0.0769,0.0513 -6.89587,6.02427 -7.04968,6.02427 -0.23072,0 -6.02427,-4.81942 -6.15245,-4.81942 z m 2.40971,-14.40698 c 1.35867,-0.66652 2.07645,-2.15336 2.10209,-4.25544 0.17944,-3.1275 -1.8201,-4.89633 -4.79379,-5.07578 -0.10254,1.76883 -0.0769,9.58757 -0.0256,9.71575 0.10254,0.30762 1.79446,0.0769 2.71733,-0.38453 z"
         style="font-family:'Cartoon Vibes';-inkscape-font-specification:'Cartoon Vibes'"
         id="path9051" /><path
         d="m 686.99059,180.78701 h 9.35685 v 36.68398 h -9.35685 z"
         style="font-family:'Cartoon Vibes';-inkscape-font-specification:'Cartoon Vibes'"
         id="path9048" /><path
         d="m 703.8073,213.4719 c -11.92037,-12.17672 -2.46098,-36.4789 12.27926,-32.17218 9.56194,2.79424 11.71529,15.20168 10.4848,21.73865 -2.56352,13.56103 -14.6377,18.7137 -22.76406,10.43353 z m 9.02359,-23.84074 c -5.40903,-0.99977 -5.25521,18.2779 -0.35889,18.2779 4.84505,0 5.51157,-17.35503 0.35889,-18.2779 z"
         style="font-family:'Cartoon Vibes';-inkscape-font-specification:'Cartoon Vibes'"
         id="path9045" /></g><g
       aria-label="Câmpus Jataí "
       transform="scale(0.92754087,1.0781196)"
       id="text13615-7"
       style="font-size:55.3207px;line-height:1.25;fill:#ffffff;stroke-width:1.15252"><path
         d="m 368.16801,503.67977 q 4.07882,0 7.72545,0.72932 3.64663,0.70232 6.34784,1.9989 2.72821,1.29657 4.32193,3.10638 1.59371,1.7828 1.59371,3.94376 v 4.75413 h -7.13119 v -2.64719 q 0,-1.16151 -0.89139,-2.21499 -0.8914,-1.08048 -2.56615,-1.86383 -1.64774,-0.81036 -4.0248,-1.26956 -2.37706,-0.48622 -5.3754,-0.48622 -2.89029,0 -5.26735,0.4592 -2.37706,0.4322 -4.07882,1.21555 -1.70176,0.78335 -2.64718,1.86383 -0.91841,1.05347 -0.91841,2.29602 v 19.07052 q 0,1.18853 0.91841,2.242 0.94542,1.05347 2.64718,1.83682 1.70176,0.75634 4.07882,1.21554 2.37706,0.4322 5.26735,0.4322 2.99834,0 5.3754,-0.45921 2.37706,-0.48622 4.0248,-1.26957 1.67475,-0.78335 2.56615,-1.8098 0.89139,-1.05347 0.89139,-2.18798 v -2.70121 h 7.13119 v 4.75413 q 0,1.43164 -0.72933,2.72821 -0.72932,1.26957 -2.05291,2.35005 -1.29658,1.08049 -3.1334,1.94487 -1.80981,0.83738 -4.05181,1.45865 -2.21499,0.59427 -4.75413,0.91841 -2.53913,0.32415 -5.26735,0.32415 -2.72822,0 -5.26735,-0.32415 -2.53913,-0.32414 -4.78113,-0.91841 -2.21499,-0.62127 -4.05181,-1.45865 -1.80981,-0.86438 -3.1334,-1.94487 -1.29658,-1.08048 -2.02591,-2.35005 -0.72932,-1.29657 -0.72932,-2.72821 v -23.23038 q 0,-1.43164 0.72932,-2.72822 0.72933,-1.29657 2.02591,-2.37706 1.32359,-1.08048 3.1334,-1.94486 1.83682,-0.86439 4.05181,-1.45866 2.242,-0.62127 4.78113,-0.94542 2.53913,-0.32414 5.26735,-0.32414 z"
         style="font-family:Revalia;-inkscape-font-specification:Revalia"
         id="path9397" /><path
         d="m 425.37956,534.52754 q -0.64829,-0.59426 -1.64774,-1.16152 -0.99944,-0.56725 -2.48511,-0.99944 -1.45865,-0.45921 -3.48455,-0.72933 -1.9989,-0.29713 -4.7001,-0.29713 -2.40407,0 -4.53803,0.10805 -2.13395,0.081 -3.75467,0.54024 -1.59372,0.43219 -2.53914,1.40462 -0.94542,0.97244 -0.94542,2.70121 v 3.45754 q 2.37706,0.37817 5.24034,0.62128 2.86328,0.24311 6.32082,0.24311 2.86328,0 5.99668,-0.18908 3.16041,-0.2161 6.53692,-0.83738 z m -12.15543,-19.77283 q 1.37762,0 3.29547,0.13506 1.91786,0.13506 3.99779,0.48622 2.10694,0.32414 4.13284,0.91841 2.05292,0.56725 3.67364,1.51267 1.64774,0.91842 2.64719,2.21499 0.99944,1.29658 0.99944,3.05237 v 20.90733 q -2.29602,0.45921 -5.1593,0.78335 -2.4581,0.29713 -5.88863,0.54024 -3.40352,0.24311 -7.59039,0.24311 -4.15986,0 -8.85996,-0.35115 -4.67308,-0.35116 -9.77836,-1.21555 v -9.72434 q 0,-1.5667 0.72932,-2.72822 0.75634,-1.18853 2.05292,-2.0259 1.32359,-0.83738 3.07937,-1.37762 1.75579,-0.54024 3.78169,-0.86438 2.02591,-0.32415 4.21388,-0.4322 2.18798,-0.13506 4.34895,-0.13506 3.34949,0 5.67253,0.4322 2.35005,0.40518 3.88974,0.89139 1.75578,0.59427 2.9173,1.3236 v -4.37596 q 0,-1.10749 -0.54024,-1.89084 -0.54024,-0.81036 -1.45865,-1.35061 -0.8914,-0.56725 -2.10694,-0.89139 -1.18854,-0.35116 -2.48511,-0.54025 -1.29658,-0.18908 -2.62017,-0.2431 -1.29658,-0.054 -2.4581,-0.054 -1.21554,0 -2.62017,0.081 -1.37762,0.054 -2.75523,0.24311 -1.35061,0.18908 -2.62017,0.54024 -1.24256,0.32414 -2.21499,0.8914 -0.94542,0.56725 -1.53969,1.37761 -0.56725,0.78335 -0.56725,1.89085 l -6.75302,-1.72878 q 0,-1.8098 0.8914,-3.1334 0.8914,-1.3506 2.35005,-2.29602 1.48566,-0.94542 3.40352,-1.53969 1.91786,-0.62128 3.97077,-0.94542 2.07993,-0.35116 4.13285,-0.48622 2.05292,-0.13506 3.83571,-0.13506 z m 9.83239,-8.10362 -4.21388,4.15986 -5.56448,-5.99668 -5.56449,5.99668 -4.21388,-4.21388 9.77837,-8.21167 z"
         style="font-family:Revalia;-inkscape-font-specification:Revalia"
         id="path9399" /><path
         d="m 467.89655,514.53862 q 4.15986,0 7.50935,0.70231 3.3495,0.6753 5.69955,2.05292 2.35005,1.37761 3.61961,3.43053 1.26957,2.0259 1.26957,4.72711 v 20.09697 h -7.07716 v -18.47625 q 0,-2.242 -0.97243,-3.64663 -0.97244,-1.43164 -2.56615,-2.242 -1.59371,-0.81036 -3.61962,-1.10749 -2.0259,-0.29713 -4.13284,-0.29713 v 25.7695 h -6.53692 v -25.7695 q -1.75578,0 -3.37651,0.29713 -1.59371,0.27012 -3.02535,0.75634 -1.43164,0.48621 -2.70121,1.10749 -1.26956,0.62128 -2.35004,1.29658 v 22.31196 h -7.07716 V 523.2365 q -0.10805,-0.86439 -0.51323,-1.45865 -0.37817,-0.59427 -0.83738,-0.97244 -0.51323,-0.4592 -1.1345,-0.75633 l 3.02535,-5.29437 q 0.99944,0.35116 1.97188,0.91841 0.83737,0.48622 1.75578,1.26957 0.91841,0.78335 1.62072,1.91786 2.18798,-1.3236 4.21389,-2.16097 2.0259,-0.86439 4.2679,-1.32359 2.242,-0.48622 4.88918,-0.64829 2.64719,-0.18908 6.07772,-0.18908 z"
         style="font-family:Revalia;-inkscape-font-specification:Revalia"
         id="path9401" /><path
         d="m 494.90861,516.37544 q 0.75633,-0.2161 2.21499,-0.54025 1.48566,-0.32414 3.51156,-0.59426 2.02591,-0.29713 4.51102,-0.48622 2.51212,-0.21609 5.3754,-0.21609 5.07827,0 8.94099,0.75633 3.88974,0.75634 6.50991,2.56615 2.62017,1.80981 3.94376,4.80815 1.3506,2.99833 1.3506,7.48234 0,4.40296 -1.45865,7.37429 -1.45865,2.94431 -3.99778,4.72711 -2.53914,1.7828 -5.94266,2.53913 -3.40352,0.75634 -7.29325,0.75634 -3.18743,0 -5.91565,-0.37817 -2.72821,-0.37817 -4.83516,-1.24255 v 11.88531 h -6.91508 z m 15.93711,3.94376 q -1.75578,0 -3.1334,0.10804 -1.3506,0.10805 -2.45809,0.29714 -1.08049,0.16207 -1.91786,0.40518 -0.83737,0.21609 -1.51268,0.48622 v 17.28771 q 1.16152,0.32415 2.16097,0.54025 1.02646,0.18908 2.18798,0.29713 1.18853,0.10805 2.7012,0.16207 1.53969,0.027 3.70066,0.027 3.18742,0 5.42942,-0.72932 2.26901,-0.75634 3.70065,-2.05292 1.45865,-1.29658 2.13395,-3.07937 0.67531,-1.80981 0.67531,-3.91675 0,-2.86328 -0.91841,-4.75413 -0.91841,-1.89084 -2.6742,-3.02535 -1.75578,-1.1345 -4.29492,-1.59371 -2.53913,-0.4592 -5.78058,-0.4592 z"
         style="font-family:Revalia;-inkscape-font-specification:Revalia"
         id="path9403" /><path
         d="m 543.74641,535.7701 q 0,1.24255 0.8914,2.07992 0.91841,0.83738 2.43108,1.37762 1.53969,0.51323 3.53858,0.75634 1.99889,0.21609 4.15986,0.21609 2.26901,0 4.2679,-0.2431 1.9989,-0.27013 3.48456,-0.78335 1.48566,-0.54025 2.35005,-1.37762 0.86439,-0.83737 0.86439,-2.0259 v -21.01539 l 7.1852,0.54024 v 22.20392 q 0,1.45865 -0.72932,2.67419 -0.70232,1.21554 -1.97188,2.18798 -1.26957,0.94542 -2.99834,1.64773 -1.72877,0.70232 -3.75468,1.16152 -1.99889,0.45921 -4.24089,0.6753 -2.21499,0.24311 -4.45699,0.24311 -2.26901,0 -4.484,-0.24311 -2.21499,-0.21609 -4.2409,-0.6753 -1.99889,-0.4592 -3.72766,-1.16152 -1.72877,-0.70231 -2.99834,-1.64773 -1.26957,-0.97244 -1.99889,-2.16097 -0.70232,-1.21554 -0.70232,-2.7012 v -22.20392 l 7.13119,-0.54024 z"
         style="font-family:Revalia;-inkscape-font-specification:Revalia"
         id="path9405" /><path
         d="m 598.41882,514.75471 q 3.21444,0 6.2668,0.40518 3.05237,0.37817 5.48345,1.32359 2.43109,0.91841 3.99779,2.51213 1.5667,1.59371 1.86383,3.97077 l -6.2668,1.72877 q 0,-1.40463 -0.97243,-2.32304 -0.94543,-0.94542 -2.53914,-1.45865 -1.5667,-0.54024 -3.61961,-0.75634 -2.05292,-0.21609 -4.21389,-0.21609 -2.07992,0 -4.13284,0.21609 -2.02591,0.18909 -3.64663,0.72933 -1.59371,0.51323 -2.59316,1.43164 -0.97243,0.91841 -0.97243,2.37706 v 3.29547 h 28.95693 v 9.34618 q 0,1.59371 -0.70232,2.83626 -0.70231,1.21554 -1.94486,2.13395 -1.24256,0.8914 -2.94432,1.53969 -1.67475,0.62128 -3.64663,0.99945 -1.94487,0.37817 -4.10583,0.54024 -2.13395,0.16207 -4.26791,0.16207 -3.26846,0 -6.32082,-0.37817 -3.05236,-0.40518 -5.48345,-1.32359 -2.43108,-0.94542 -3.99778,-2.51212 -1.53969,-1.59371 -1.80981,-3.99778 l 6.2668,-1.72878 q 0,1.48567 0.97243,2.40408 0.99945,0.91841 2.59316,1.43164 1.62072,0.51323 3.64663,0.70231 2.05292,0.16207 4.13284,0.16207 2.16097,0 4.21389,-0.18908 2.05291,-0.2161 3.61961,-0.72933 1.59371,-0.54024 2.53914,-1.43164 0.97243,-0.91841 0.97243,-2.35005 v -3.29547 h -28.95693 v -9.34617 q 0,-1.59371 0.70231,-2.80926 0.70232,-1.24255 1.91786,-2.13395 1.24255,-0.91841 2.9173,-1.53969 1.67475,-0.64829 3.61962,-1.02645 1.97188,-0.37817 4.10583,-0.54025 2.16097,-0.16207 4.34894,-0.16207 z"
         style="font-family:Revalia;-inkscape-font-specification:Revalia"
         id="path9407" /><path
         d="m 665.30068,504.4361 q 4.40297,0 9.4002,0.32415 5.02424,0.29713 10.5347,1.18853 v 30.14546 q 0,1.80981 -0.81036,3.24145 -0.78335,1.40462 -2.18798,2.4581 -1.37761,1.02645 -3.29547,1.75578 -1.89084,0.70231 -4.10583,1.13451 -2.18798,0.43219 -4.61907,0.62127 -2.43108,0.18909 -4.86217,0.18909 -2.48511,0 -4.88918,-0.18909 -2.40407,-0.18908 -4.56504,-0.62127 -2.16096,-0.4322 -4.02479,-1.13451 -1.83683,-0.72933 -3.24145,-1.75578 -1.40463,-1.05348 -2.26902,-2.4581 -0.86438,-1.40463 -1.05347,-3.24145 l 7.02314,-1.94487 q 0,1.67475 1.13451,2.72822 1.1345,1.05347 2.97132,1.64774 1.86384,0.59426 4.18687,0.81036 2.32304,0.21609 4.72711,0.21609 2.4581,0 4.75413,-0.21609 2.32303,-0.24311 4.10583,-0.83738 1.80981,-0.62127 2.89029,-1.67474 1.10749,-1.05347 1.10749,-2.6742 v -22.63611 q -2.7012,-0.37816 -5.80759,-0.62127 -3.07937,-0.24311 -6.29381,-0.24311 h -0.91841 q -4.56504,0.054 -9.1841,0.4592 -4.59205,0.37817 -9.4002,1.43164 v -6.80704 q 5.13229,-0.78335 9.80538,-1.02645 4.7001,-0.27013 8.88697,-0.27013 z"
         style="font-family:Revalia;-inkscape-font-specification:Revalia"
         id="path9409" /><path
         d="m 723.80883,534.52754 q -0.67531,-0.59426 -1.67475,-1.16152 -0.99945,-0.56725 -2.4581,-0.99944 -1.45865,-0.45921 -3.48456,-0.72933 -1.99889,-0.29713 -4.70009,-0.29713 -2.40408,0 -4.56504,0.10805 -2.13396,0.081 -3.75468,0.54024 -1.62072,0.43219 -2.56615,1.40462 -0.94542,0.97244 -0.94542,2.70121 v 3.45754 q 2.37706,0.37817 5.24034,0.62128 2.86328,0.24311 6.37485,0.24311 2.80925,0 5.96966,-0.18908 3.18743,-0.2161 6.56394,-0.83738 z M 711.6534,514.75471 q 1.3506,0 3.26846,0.13506 1.91785,0.13506 3.99778,0.48622 2.07993,0.32414 4.10584,0.91841 2.05291,0.56725 3.67364,1.51267 1.64773,0.91842 2.64718,2.21499 0.99944,1.29658 0.99944,3.05237 v 20.90733 q -2.26901,0.45921 -5.13229,0.78335 -2.45809,0.29713 -5.86161,0.54024 -3.40352,0.24311 -7.59039,0.24311 -4.15986,0 -8.85996,-0.35115 -4.67309,-0.35116 -9.77837,-1.21555 v -9.72434 q 0,-1.5667 0.72933,-2.72822 0.75634,-1.18853 2.05292,-2.0259 1.29658,-0.83738 3.05236,-1.37762 1.75578,-0.54024 3.78169,-0.86438 2.0259,-0.32415 4.21388,-0.4322 2.18798,-0.13506 4.37595,-0.13506 3.32249,0 5.64552,0.4322 2.35005,0.40518 3.88974,0.89139 1.7828,0.59427 2.94432,1.3236 v -4.37596 q 0,-1.10749 -0.54025,-1.89084 -0.54024,-0.81036 -1.45865,-1.35061 -0.91841,-0.56725 -2.10694,-0.89139 -1.18853,-0.35116 -2.48511,-0.54025 -1.29658,-0.18908 -2.64718,-0.2431 -1.32359,-0.054 -2.48511,-0.054 -1.21554,0 -2.59316,0.081 -1.37761,0.054 -2.75523,0.24311 -1.3506,0.18908 -2.62017,0.54024 -1.24255,0.32414 -2.21499,0.8914 -0.97243,0.56725 -1.5667,1.37761 -0.56725,0.78335 -0.56725,1.89085 l -6.69899,-1.72878 q 0,-1.8098 0.8914,-3.1334 0.8914,-1.3506 2.35005,-2.29602 1.48566,-0.94542 3.40352,-1.53969 1.91785,-0.62128 3.97077,-0.94542 2.07993,-0.35116 4.13285,-0.48622 2.05291,-0.13506 3.83571,-0.13506 z"
         style="font-family:Revalia;-inkscape-font-specification:Revalia"
         id="path9411" /><path
         d="m 747.68747,514.37654 h 6.86106 v 4.53803 h -6.86106 v 26.63389 h -6.42887 v -26.63389 h -5.07827 v -4.53803 h 5.07827 v -9.40019 h 6.42887 z"
         style="font-family:Revalia;-inkscape-font-specification:Revalia"
         id="path9413" /><path
         d="m 791.28493,534.52754 q -0.6753,-0.59426 -1.67475,-1.16152 -0.99944,-0.56725 -2.4581,-0.99944 -1.45865,-0.45921 -3.48455,-0.72933 -1.99889,-0.29713 -4.7001,-0.29713 -2.40407,0 -4.56504,0.10805 -2.13395,0.081 -3.75467,0.54024 -1.62073,0.43219 -2.56615,1.40462 -0.94542,0.97244 -0.94542,2.70121 v 3.45754 q 2.37706,0.37817 5.24034,0.62128 2.86328,0.24311 6.37484,0.24311 2.80926,0 5.96967,-0.18908 3.18742,-0.2161 6.56393,-0.83738 z M 779.1295,514.75471 q 1.35061,0 3.26846,0.13506 1.91786,0.13506 3.99779,0.48622 2.07993,0.32414 4.10583,0.91841 2.05292,0.56725 3.67364,1.51267 1.64774,0.91842 2.64718,2.21499 0.99945,1.29658 0.99945,3.05237 v 20.90733 q -2.26901,0.45921 -5.13229,0.78335 -2.4581,0.29713 -5.86162,0.54024 -3.40352,0.24311 -7.59039,0.24311 -4.15986,0 -8.85996,-0.35115 -4.67308,-0.35116 -9.77836,-1.21555 v -9.72434 q 0,-1.5667 0.72932,-2.72822 0.75634,-1.18853 2.05292,-2.0259 1.29658,-0.83738 3.05236,-1.37762 1.75579,-0.54024 3.78169,-0.86438 2.02591,-0.32415 4.21388,-0.4322 2.18798,-0.13506 4.37596,-0.13506 3.32248,0 5.64552,0.4322 2.35005,0.40518 3.88974,0.89139 1.78279,0.59427 2.94431,1.3236 v -4.37596 q 0,-1.10749 -0.54024,-1.89084 -0.54024,-0.81036 -1.45865,-1.35061 -0.91841,-0.56725 -2.10694,-0.89139 -1.18853,-0.35116 -2.48511,-0.54025 -1.29658,-0.18908 -2.64718,-0.2431 -1.3236,-0.054 -2.48511,-0.054 -1.21555,0 -2.59316,0.081 -1.37762,0.054 -2.75523,0.24311 -1.35061,0.18908 -2.62017,0.54024 -1.24256,0.32414 -2.21499,0.8914 -0.97244,0.56725 -1.5667,1.37761 -0.56725,0.78335 -0.56725,1.89085 l -6.699,-1.72878 q 0,-1.8098 0.8914,-3.1334 0.8914,-1.3506 2.35005,-2.29602 1.48567,-0.94542 3.40352,-1.53969 1.91786,-0.62128 3.97077,-0.94542 2.07993,-0.35116 4.13285,-0.48622 2.05292,-0.13506 3.83571,-0.13506 z"
         style="font-family:Revalia;-inkscape-font-specification:Revalia"
         id="path9415" /><path
         d="m 813.86702,545.54846 h -6.86106 v -30.79375 h 6.86106 z m -2.48511,-47.7033 4.80815,4.80815 q -0.94542,1.29658 -2.07993,2.78224 -0.97243,1.26957 -2.29602,2.86328 -1.3236,1.5667 -2.86328,3.26846 l -3.78169,-3.78169 z"
         style="font-family:Revalia;-inkscape-font-specification:Revalia"
         id="path9417" /></g><g
       aria-label="MAKER"
       id="text51509"
       style="font-size:212.001px;line-height:1.25;fill:#c90c0f;stroke-width:4.41667"><path
         d="m 340.83506,308.19371 c -3.72658,7.66019 -7.0391,15.4239 -10.45513,23.08409 H 307.7099 l -9.83403,-22.77354 v 92.64692 H 260.09249 V 253.64071 c 13.04303,0.10352 26.18958,0.10352 39.23261,0 6.21096,8.07426 13.87116,18.01181 19.97861,27.01771 6.31448,-8.90238 12.62896,-17.90829 18.83993,-26.91419 13.87116,-0.10352 27.43177,-0.10352 41.0959,-0.10352 0,49.37719 0,98.75438 0,148.13157 h -37.78338 c -1.34571,-31.05484 2.07032,-62.52374 -0.6211,-93.57857 z"
         style="font-family:'Cartoon Vibes';-inkscape-font-specification:'Cartoon Vibes'"
         id="path9297" /><path
         d="m 387.52083,400.73712 c 0.41406,-1.13868 19.35751,-75.04919 29.91615,-116.66267 3.8301,-15.32038 7.34965,-28.36341 7.6602,-29.08803 l 0.51758,-1.34571 h 26.18957 c 20.28916,0 26.2931,0.20704 26.70716,0.72462 0.31055,0.41406 1.65626,5.27932 2.79494,10.76567 2.5879,11.59381 9.83403,43.68381 21.94541,97.40867 4.65823,20.70322 8.48833,38.09393 8.48833,38.508 0,0.51758 -4.24417,0.72461 -19.04697,0.72461 h -18.94345 l -3.8301,-16.6661 c -2.07032,-9.21293 -3.83009,-17.28719 -4.03712,-18.0118 l -0.31055,-1.34571 c -9.93755,0.51758 -20.08213,0.51758 -30.12319,0.51758 -0.31055,0 -1.55274,5.17581 -3.00197,11.07622 -1.55274,5.79691 -3.51955,13.66413 -4.55471,17.49423 l -1.75977,6.93558 h -19.46103 c -18.21884,0 -19.46103,-0.10352 -19.15048,-1.03516 z m 63.66241,-106.31106 c -0.51758,-0.62109 -0.31055,-1.44922 -7.55668,40.78535 l -0.31055,1.65626 h 7.66019 c 5.90042,0 7.55668,0 7.55668,-0.10351 -1.13868,-6.62503 -6.52151,-41.40645 -7.34964,-42.3381 z"
         style="font-family:'Cartoon Vibes';-inkscape-font-specification:'Cartoon Vibes'"
         id="path9294" /><path
         d="m 520.02144,253.84775 h 37.67987 l 0.31055,48.13499 c 11.5938,-16.14851 23.18761,-32.19351 34.6779,-48.34203 0.72461,-1.13867 28.77748,23.91223 28.77748,24.32629 0,0.6211 -41.30293,57.86551 -41.30293,58.69364 0,0.82813 37.16228,40.26777 37.16228,41.30293 -0.10351,1.03516 -27.74232,23.91222 -28.57045,23.60168 -0.31054,-0.10352 -7.24612,-7.0391 -30.95131,-32.91813 v 33.12516 h -37.78339 z"
         style="font-family:'Cartoon Vibes';-inkscape-font-specification:'Cartoon Vibes'"
         id="path9291" /><path
         d="m 630.47314,401.46173 c -0.6211,-0.31055 -0.72462,-15.63093 -0.72462,-74.11754 v -73.70348 h 88.50628 v 36.43768 h -50.72289 v 29.39858 h 35.29899 v 31.77944 h -35.29899 v 12.42194 l 50.72289,-0.41407 v 37.99042 c -63.45538,0.41406 -86.53947,0.72461 -87.78166,0.20703 z"
         style="font-family:'Cartoon Vibes';-inkscape-font-specification:'Cartoon Vibes'"
         id="path9288" /><path
         d="m 764.52651,382.31125 c -0.41407,5.48635 -0.20704,11.07622 -0.20704,16.56258 h -37.78338 v -72.04722 -72.15073 c 20.80674,-1.03517 42.02754,-2.89846 61.69561,3.83009 42.85567,16.045 39.33612,78.46522 6.72854,97.20164 -1.03516,0.62109 -1.75977,1.24219 -1.65625,1.44922 0.20703,0.6211 23.08409,19.04697 24.53332,20.28916 0.31054,0.20703 -27.84584,24.32629 -28.46694,24.32629 -0.93164,0 -24.32628,-19.46103 -24.84386,-19.46103 z m 9.73051,-58.17606 c 5.48636,-2.69142 8.38481,-8.69535 8.48832,-17.18368 0.72462,-12.62896 -7.34964,-19.77157 -19.35751,-20.49619 -0.41407,7.14262 -0.31055,38.71503 -0.10352,39.23261 0.41407,1.2422 7.24613,0.31055 10.97271,-1.55274 z"
         style="font-family:'Cartoon Vibes';-inkscape-font-specification:'Cartoon Vibes'"
         id="path9285" /></g></g></svg>
