999
dxfrw 0.6.3
  0
SECTION
  2
HEADER
  9
$ACADVER
  1
AC1021
  9
$DWGCODEPAGE
  3
ANSI_1252
  9
$INSBASE
 10
0
 20
0
 30
0
  9
$EXTMIN
 10
-3.298948417551628e-15
 20
0
 30
0
  9
$EXTMAX
 10
92.8571521857143
 20
130.00000006
 30
0
  9
$LIMMIN
 10
0
 20
0
  9
$LIMMAX
 10
420
 20
297
  9
$ORTHOMODE
 70
    0
  9
$REGENMODE
 70
    1
  9
$FILLMODE
 70
    1
  9
$QTEXTMODE
 70
    0
  9
$MIRRTEXT
 70
    0
  9
$LTSCALE
 40
1
  9
$ATTMODE
 70
    0
  9
$TEXTSIZE
 40
2.5
  9
$TRACEWID
 40
15.68
  9
$TEXTSTYLE
  7
STANDARD
  9
$CLAYER
  8
Gravação
  9
$CELTYPE
  6
BYLAYER
  9
$CECOLOR
 62
  256
  9
$CELTSCALE
 40
1
  9
$DISPSILH
 70
    0
  9
$DIMSCALE
 40
1
  9
$DIMASZ
 40
2.5
  9
$DIMEXO
 40
0.625
  9
$DIMDLI
 40
3.75
  9
$DIMRND
 40
0
  9
$DIMDLE
 40
0
  9
$DIMEXE
 40
1.25
  9
$DIMTP
 40
0
  9
$DIMTM
 40
0
  9
$DIMTXT
 40
2.5
  9
$DIMCEN
 40
2.5
  9
$DIMTSZ
 40
0
  9
$DIMTOL
 70
    0
  9
$DIMLIM
 70
    0
  9
$DIMTIH
 70
    0
  9
$DIMTOH
 70
    0
  9
$DIMSE1
 70
    0
  9
$DIMSE2
 70
    0
  9
$DIMTAD
 70
    1
  9
$DIMZIN
 70
    8
  9
$DIMBLK
  1

  9
$DIMASO
 70
    1
  9
$DIMSHO
 70
    1
  9
$DIMPOST
  1

  9
$DIMAPOST
  1

  9
$DIMALT
 70
    0
  9
$DIMALTD
 70
    3
  9
$DIMALTF
 40
0.03937
  9
$DIMLFAC
 40
1
  9
$DIMTOFL
 70
    1
  9
$DIMTVP
 40
0
  9
$DIMTIX
 70
    0
  9
$DIMSOXD
 70
    0
  9
$DIMSAH
 70
    0
  9
$DIMBLK1
  1

  9
$DIMBLK2
  1

  9
$DIMSTYLE
  2
Standard
  9
$DIMCLRD
 70
    0
  9
$DIMCLRE
 70
    0
  9
$DIMCLRT
 70
    0
  9
$DIMTFAC
 40
1
  9
$DIMGAP
 40
0.625
  9
$DIMJUST
 70
    0
  9
$DIMSD1
 70
    0
  9
$DIMSD2
 70
    0
  9
$DIMTOLJ
 70
    0
  9
$DIMTZIN
 70
    8
  9
$DIMALTZ
 70
    0
  9
$DIMALTTZ
 70
    0
  9
$DIMUPT
 70
    0
  9
$DIMDEC
 70
    2
  9
$DIMTDEC
 70
    2
  9
$DIMALTU
 70
    2
  9
$DIMALTTD
 70
    3
  9
$DIMTXSTY
  7
STANDARD
  9
$DIMAUNIT
 70
    0
  9
$DIMADEC
 70
    0
  9
$DIMALTRND
 40
0
  9
$DIMAZIN
 70
    0
  9
$DIMDSEP
 70
   44
  9
$DIMATFIT
 70
    3
  9
$DIMFRAC
 70
    0
  9
$DIMLDRBLK
  1
STANDARD
  9
$DIMLUNIT
 70
    2
  9
$DIMLWD
 70
   -2
  9
$DIMLWE
 70
   -2
  9
$DIMTMOVE
 70
    0
  9
$DIMFXL
 40
1
  9
$DIMFXLON
 70
    0
  9
$DIMJOGANG
 40
0.7854
  9
$DIMTFILL
 70
    0
  9
$DIMTFILLCLR
 70
    0
  9
$DIMARCSYM
 70
    0
  9
$DIMLTYPE
  6

  9
$DIMLTEX1
  6

  9
$DIMLTEX2
  6

  9
$LUNITS
 70
    2
  9
$LUPREC
 70
    4
  9
$SKETCHINC
 40
1
  9
$FILLETRAD
 40
0
  9
$AUNITS
 70
    0
  9
$AUPREC
 70
    2
  9
$MENU
  1
.
  9
$ELEVATION
 40
0
  9
$PELEVATION
 40
0
  9
$THICKNESS
 40
0
  9
$LIMCHECK
 70
    0
  9
$CHAMFERA
 40
0
  9
$CHAMFERB
 40
0
  9
$CHAMFERC
 40
0
  9
$CHAMFERD
 40
0
  9
$SKPOLY
 70
    0
  9
$USRTIMER
 70
    1
  9
$ANGBASE
 50
0
  9
$ANGDIR
 70
    0
  9
$PDMODE
 70
   96
  9
$PDSIZE
 40
-2
  9
$PLINEWID
 40
0
  9
$SPLFRAME
 70
    0
  9
$SPLINETYPE
 70
    2
  9
$SPLINESEGS
 70
    8
  9
$HANDSEED
  5
20000
  9
$SURFTAB1
 70
    6
  9
$SURFTAB2
 70
    6
  9
$SURFTYPE
 70
    6
  9
$SURFU
 70
    6
  9
$SURFV
 70
    6
  9
$UCSBASE
  2

  9
$UCSNAME
  2

  9
$UCSORG
 10
0
 20
0
 30
0
  9
$UCSXDIR
 10
1
 20
0
 30
0
  9
$UCSYDIR
 10
0
 20
1
 30
0
  9
$UCSORTHOREF
  2

  9
$UCSORTHOVIEW
 70
    0
  9
$UCSORGTOP
 10
0
 20
0
 30
0
  9
$UCSORGBOTTOM
 10
0
 20
0
 30
0
  9
$UCSORGLEFT
 10
0
 20
0
 30
0
  9
$UCSORGRIGHT
 10
0
 20
0
 30
0
  9
$UCSORGFRONT
 10
0
 20
0
 30
0
  9
$UCSORGBACK
 10
0
 20
0
 30
0
  9
$PUCSBASE
  2

  9
$PUCSNAME
  2

  9
$PUCSORG
 10
0
 20
0
 30
0
  9
$PUCSXDIR
 10
1
 20
0
 30
0
  9
$PUCSYDIR
 10
0
 20
1
 30
0
  9
$PUCSORTHOREF
  2

  9
$PUCSORTHOVIEW
 70
    0
  9
$PUCSORGTOP
 10
0
 20
0
 30
0
  9
$PUCSORGBOTTOM
 10
0
 20
0
 30
0
  9
$PUCSORGLEFT
 10
0
 20
0
 30
0
  9
$PUCSORGRIGHT
 10
0
 20
0
 30
0
  9
$PUCSORGFRONT
 10
0
 20
0
 30
0
  9
$PUCSORGBACK
 10
0
 20
0
 30
0
  9
$USERI1
 70
    0
  9
$USERI2
 70
    0
  9
$USERI3
 70
    0
  9
$USERI4
 70
    0
  9
$USERI5
 70
    0
  9
$USERR1
 40
0
  9
$USERR2
 40
0
  9
$USERR3
 40
0
  9
$USERR4
 40
0
  9
$USERR5
 40
0
  9
$WORLDVIEW
 70
    1
  9
$SHADEDGE
 70
    3
  9
$SHADEDIF
 70
   70
  9
$TILEMODE
 70
    1
  9
$MAXACTVP
 70
   64
  9
$PINSBASE
 10
0
 20
0
 30
0
  9
$PLIMCHECK
 70
    0
  9
$PEXTMIN
 10
0
 20
0
 30
0
  9
$PEXTMAX
 10
0
 20
0
 30
0
  9
$GRIDMODE
 70
    1
  9
$SNAPSTYLE
 70
    0
  9
$PLIMMIN
 10
0
 20
0
  9
$PLIMMAX
 10
210
 20
297
  9
$UNITMODE
 70
    0
  9
$VISRETAIN
 70
    1
  9
$PLINEGEN
 70
    0
  9
$PSLTSCALE
 70
    1
  9
$TREEDEPTH
 70
 3020
  9
$CMLSTYLE
  2
Standard
  9
$CMLJUST
 70
    0
  9
$CMLSCALE
 40
20
  9
$PROXYGRAPHICS
 70
    1
  9
$MEASUREMENT
 70
    1
  9
$CELWEIGHT
370
   -1
  9
$ENDCAPS
280
    0
  9
$JOINSTYLE
280
    0
  9
$LWDISPLAY
290
    0
  9
$INSUNITS
 70
    4
  9
$HYPERLINKBASE
  1

  9
$STYLESHEET
  1

  9
$XEDIT
290
    1
  9
$CEPSNTYPE
380
    0
  9
$PSTYLEMODE
290
    1
  9
$EXTNAMES
290
    1
  9
$PSVPSCALE
 40
1
  9
$OLESTARTUP
290
    0
  9
$SORTENTS
280
  127
  9
$INDEXCTL
280
    0
  9
$HIDETEXT
280
    1
  9
$XCLIPFRAME
290
    0
  9
$HALOGAP
280
    0
  9
$OBSCOLOR
 70
  257
  9
$OBSLTYPE
280
    0
  9
$INTERSECTIONDISPLAY
280
    0
  9
$INTERSECTIONCOLOR
 70
  257
  9
$DIMASSOC
280
    1
  9
$PROJECTNAME
  1

  9
$CAMERADISPLAY
290
    0
  9
$LENSLENGTH
 40
50
  9
$CAMERAHEIGHT
 40
0
  9
$STEPSPERSEC
 40
2
  9
$STEPSIZE
 40
50
  9
$3DDWFPREC
 40
2
  9
$PSOLWIDTH
 40
5
  9
$PSOLHEIGHT
 40
80
  9
$LOFTANG1
 40
1.570796326794897
  9
$LOFTANG2
 40
1.570796326794897
  9
$LOFTMAG1
 40
0
  9
$LOFTMAG2
 40
0
  9
$LOFTPARAM
 70
    7
  9
$LOFTNORMALS
280
    1
  9
$LATITUDE
 40
1
  9
$LONGITUDE
 40
1
  9
$NORTHDIRECTION
 40
0
  9
$TIMEZONE
 70
-8000
  9
$LIGHTGLYPHDISPLAY
280
    1
  9
$TILEMODELIGHTSYNCH
280
    1
  9
$SOLIDHIST
280
    1
  9
$SHOWHIST
280
    1
  9
$DWFFRAME
280
    2
  9
$DGNFRAME
280
    0
  9
$REALWORLDSCALE
290
    1
  9
$INTERFERECOLOR
 62
    1
  9
$CSHADOW
280
    0
  9
$SHADOWPLANELOCATION
 40
0
  0
ENDSEC
  0
SECTION
  2
CLASSES
  0
ENDSEC
  0
SECTION
  2
TABLES
  0
TABLE
  2
VPORT
  5
8
330
0
100
AcDbSymbolTable
 70
    1
  0
VPORT
  5
31
330
2
100
AcDbSymbolTableRecord
100
AcDbViewportTableRecord
  2
*ACTIVE
 70
    0
 10
0
 20
0
 11
1
 21
1
 12
107.5921340611097
 22
69.67284326020284
 13
0
 23
0
 14
10
 24
10
 15
10
 25
10
 16
0
 26
0
 36
1
 17
0
 27
0
 37
0
 40
161.9533937729789
 41
1.722081218274112
 42
50
 43
0
 44
0
 50
0
 51
0
 71
    0
 72
  100
 73
    1
 74
    3
 75
    0
 76
    1
 77
    0
 78
    0
281
    0
 65
    1
110
0
120
0
130
0
111
1
121
0
131
0
112
0
122
1
132
0
 79
    0
146
0
348
10020
 60
    7
 61
    5
292
1
282
    1
141
0
142
0
 63
  250
421
3358443
  0
ENDTAB
  0
TABLE
  2
LTYPE
  5
5
330
0
100
AcDbSymbolTable
 70
    4
  0
LTYPE
  5
14
330
5
100
AcDbSymbolTableRecord
100
AcDbLinetypeTableRecord
  2
ByBlock
 70
    0
  3

 72
   65
 73
    0
 40
0
  0
LTYPE
  5
15
330
5
100
AcDbSymbolTableRecord
100
AcDbLinetypeTableRecord
  2
ByLayer
 70
    0
  3

 72
   65
 73
    0
 40
0
  0
LTYPE
  5
16
330
5
100
AcDbSymbolTableRecord
100
AcDbLinetypeTableRecord
  2
Continuous
 70
    0
  3
Solid line
 72
   65
 73
    0
 40
0
  0
LTYPE
  5
32
330
5
100
AcDbSymbolTableRecord
100
AcDbLinetypeTableRecord
  2
DOT
 70
    0
  3
Dot . . . . . . . . . . . . . . . . . . . . . .
 72
   65
 73
    2
 40
6.35
 49
0
 74
    0
 49
-6.35
 74
    0
  0
LTYPE
  5
33
330
5
100
AcDbSymbolTableRecord
100
AcDbLinetypeTableRecord
  2
DOTTINY
 70
    0
  3
Dot (.15x) .....................................
 72
   65
 73
    2
 40
0.9525
 49
0
 74
    0
 49
-0.9525
 74
    0
  0
LTYPE
  5
34
330
5
100
AcDbSymbolTableRecord
100
AcDbLinetypeTableRecord
  2
DOT2
 70
    0
  3
Dot (.5x) .....................................
 72
   65
 73
    2
 40
3.175
 49
0
 74
    0
 49
-3.175
 74
    0
  0
LTYPE
  5
35
330
5
100
AcDbSymbolTableRecord
100
AcDbLinetypeTableRecord
  2
DOTX2
 70
    0
  3
Dot (2x) .  .  .  .  .  .  .  .  .  .  .  .  .
 72
   65
 73
    2
 40
12.7
 49
0
 74
    0
 49
-12.7
 74
    0
  0
LTYPE
  5
36
330
5
100
AcDbSymbolTableRecord
100
AcDbLinetypeTableRecord
  2
DASHED
 70
    0
  3
Dashed _ _ _ _ _ _ _ _ _ _ _ _ _ _ _ _ _
 72
   65
 73
    2
 40
19.05
 49
12.7
 74
    0
 49
-6.35
 74
    0
  0
LTYPE
  5
37
330
5
100
AcDbSymbolTableRecord
100
AcDbLinetypeTableRecord
  2
DASHEDTINY
 70
    0
  3
Dashed (.15x) _ _ _ _ _ _ _ _ _ _ _ _ _ _ _ _ _
 72
   65
 73
    2
 40
2.8575
 49
1.905
 74
    0
 49
-0.9525
 74
    0
  0
LTYPE
  5
38
330
5
100
AcDbSymbolTableRecord
100
AcDbLinetypeTableRecord
  2
DASHED2
 70
    0
  3
Dashed (.5x) _ _ _ _ _ _ _ _ _ _ _ _ _ _ _ _ _
 72
   65
 73
    2
 40
9.524999999999999
 49
6.35
 74
    0
 49
-3.175
 74
    0
  0
LTYPE
  5
39
330
5
100
AcDbSymbolTableRecord
100
AcDbLinetypeTableRecord
  2
DASHEDX2
 70
    0
  3
Dashed (2x) ____  ____  ____  ____  ____  ___
 72
   65
 73
    2
 40
38.09999999999999
 49
25.4
 74
    0
 49
-12.7
 74
    0
  0
LTYPE
  5
3A
330
5
100
AcDbSymbolTableRecord
100
AcDbLinetypeTableRecord
  2
DASHDOT
 70
    0
  3
Dash dot __ . __ . __ . __ . __ . __ . __ . __
 72
   65
 73
    4
 40
25.4
 49
12.7
 74
    0
 49
-6.35
 74
    0
 49
0
 74
    0
 49
-6.35
 74
    0
  0
LTYPE
  5
3B
330
5
100
AcDbSymbolTableRecord
100
AcDbLinetypeTableRecord
  2
DASHDOTTINY
 70
    0
  3
Dash dot (.15x) _._._._._._._._._._._._._._._.
 72
   65
 73
    4
 40
3.81
 49
1.905
 74
    0
 49
-0.9525
 74
    0
 49
0
 74
    0
 49
-0.9525
 74
    0
  0
LTYPE
  5
3C
330
5
100
AcDbSymbolTableRecord
100
AcDbLinetypeTableRecord
  2
DASHDOT2
 70
    0
  3
Dash dot (.5x) _._._._._._._._._._._._._._._.
 72
   65
 73
    4
 40
12.7
 49
6.35
 74
    0
 49
-3.175
 74
    0
 49
0
 74
    0
 49
-3.175
 74
    0
  0
LTYPE
  5
3D
330
5
100
AcDbSymbolTableRecord
100
AcDbLinetypeTableRecord
  2
DASHDOTX2
 70
    0
  3
Dash dot (2x) ____  .  ____  .  ____  .  ___
 72
   65
 73
    4
 40
50.8
 49
25.4
 74
    0
 49
-12.7
 74
    0
 49
0
 74
    0
 49
-12.7
 74
    0
  0
LTYPE
  5
3E
330
5
100
AcDbSymbolTableRecord
100
AcDbLinetypeTableRecord
  2
DIVIDE
 70
    0
  3
Divide ____ . . ____ . . ____ . . ____ . . ____
 72
   65
 73
    6
 40
31.75
 49
12.7
 74
    0
 49
-6.35
 74
    0
 49
0
 74
    0
 49
-6.35
 74
    0
 49
0
 74
    0
 49
-6.35
 74
    0
  0
LTYPE
  5
3F
330
5
100
AcDbSymbolTableRecord
100
AcDbLinetypeTableRecord
  2
DIVIDETINY
 70
    0
  3
Divide (.15x) __..__..__..__..__..__..__..__.._
 72
   65
 73
    6
 40
4.7625
 49
1.905
 74
    0
 49
-0.9525
 74
    0
 49
0
 74
    0
 49
-0.9525
 74
    0
 49
0
 74
    0
 49
-0.9525
 74
    0
  0
LTYPE
  5
40
330
5
100
AcDbSymbolTableRecord
100
AcDbLinetypeTableRecord
  2
DIVIDE2
 70
    0
  3
Divide (.5x) __..__..__..__..__..__..__..__.._
 72
   65
 73
    6
 40
15.875
 49
6.35
 74
    0
 49
-3.175
 74
    0
 49
0
 74
    0
 49
-3.175
 74
    0
 49
0
 74
    0
 49
-3.175
 74
    0
  0
LTYPE
  5
41
330
5
100
AcDbSymbolTableRecord
100
AcDbLinetypeTableRecord
  2
DIVIDEX2
 70
    0
  3
Divide (2x) ________  .  .  ________  .  .  _
 72
   65
 73
    6
 40
63.5
 49
25.4
 74
    0
 49
-12.7
 74
    0
 49
0
 74
    0
 49
-12.7
 74
    0
 49
0
 74
    0
 49
-12.7
 74
    0
  0
LTYPE
  5
42
330
5
100
AcDbSymbolTableRecord
100
AcDbLinetypeTableRecord
  2
BORDER
 70
    0
  3
Border __ __ . __ __ . __ __ . __ __ . __ __ .
 72
   65
 73
    6
 40
44.45
 49
12.7
 74
    0
 49
-6.35
 74
    0
 49
12.7
 74
    0
 49
-6.35
 74
    0
 49
0
 74
    0
 49
-6.35
 74
    0
  0
LTYPE
  5
43
330
5
100
AcDbSymbolTableRecord
100
AcDbLinetypeTableRecord
  2
BORDERTINY
 70
    0
  3
Border (.15x) __.__.__.__.__.__.__.__.__.__.__.
 72
   65
 73
    6
 40
6.6675
 49
1.905
 74
    0
 49
-0.9525
 74
    0
 49
1.905
 74
    0
 49
-0.9525
 74
    0
 49
0
 74
    0
 49
-0.9525
 74
    0
  0
LTYPE
  5
44
330
5
100
AcDbSymbolTableRecord
100
AcDbLinetypeTableRecord
  2
BORDER2
 70
    0
  3
Border (.5x) __.__.__.__.__.__.__.__.__.__.__.
 72
   65
 73
    6
 40
22.225
 49
6.35
 74
    0
 49
-3.175
 74
    0
 49
6.35
 74
    0
 49
-3.175
 74
    0
 49
0
 74
    0
 49
-3.175
 74
    0
  0
LTYPE
  5
45
330
5
100
AcDbSymbolTableRecord
100
AcDbLinetypeTableRecord
  2
BORDERX2
 70
    0
  3
Border (2x) ____  ____  .  ____  ____  .  ___
 72
   65
 73
    6
 40
88.89999999999999
 49
25.4
 74
    0
 49
-12.7
 74
    0
 49
25.4
 74
    0
 49
-12.7
 74
    0
 49
0
 74
    0
 49
-12.7
 74
    0
  0
LTYPE
  5
46
330
5
100
AcDbSymbolTableRecord
100
AcDbLinetypeTableRecord
  2
CENTER
 70
    0
  3
Center ____ _ ____ _ ____ _ ____ _ ____ _ ____
 72
   65
 73
    4
 40
50.8
 49
31.75
 74
    0
 49
-6.35
 74
    0
 49
6.35
 74
    0
 49
-6.35
 74
    0
  0
LTYPE
  5
47
330
5
100
AcDbSymbolTableRecord
100
AcDbLinetypeTableRecord
  2
CENTERTINY
 70
    0
  3
Center (.15x) ___ _ ___ _ ___ _ ___ _ ___ _ ___
 72
   65
 73
    4
 40
7.619999999999999
 49
4.7625
 74
    0
 49
-0.9525
 74
    0
 49
0.9525
 74
    0
 49
-0.9525
 74
    0
  0
LTYPE
  5
48
330
5
100
AcDbSymbolTableRecord
100
AcDbLinetypeTableRecord
  2
CENTER2
 70
    0
  3
Center (.5x) ___ _ ___ _ ___ _ ___ _ ___ _ ___
 72
   65
 73
    4
 40
28.575
 49
19.05
 74
    0
 49
-3.175
 74
    0
 49
3.175
 74
    0
 49
-3.175
 74
    0
  0
LTYPE
  5
49
330
5
100
AcDbSymbolTableRecord
100
AcDbLinetypeTableRecord
  2
CENTERX2
 70
    0
  3
Center (2x) ________  __  ________  __  _____
 72
   65
 73
    4
 40
101.6
 49
63.5
 74
    0
 49
-12.7
 74
    0
 49
12.7
 74
    0
 49
-12.7
 74
    0
  0
ENDTAB
  0
TABLE
  2
LAYER
  5
2
330
0
100
AcDbSymbolTable
 70
    1
  0
LAYER
  5
10
330
2
100
AcDbSymbolTableRecord
100
AcDbLayerTableRecord
  2
0
 70
    0
 62
    7
  6
CONTINUOUS
370
   25
390
F
  0
LAYER
  5
4A
330
2
100
AcDbSymbolTableRecord
100
AcDbLayerTableRecord
  2
Corte
 70
    0
 62
    1
  6
CONTINUOUS
370
    0
390
F
  0
LAYER
  5
4B
330
2
100
AcDbSymbolTableRecord
100
AcDbLayerTableRecord
  2
Gravação
 70
    0
 62
    5
  6
CONTINUOUS
370
   -3
390
F
  0
ENDTAB
  0
TABLE
  2
STYLE
  5
3
330
0
100
AcDbSymbolTable
 70
    3
  0
STYLE
  5
4C
330
2
100
AcDbSymbolTableRecord
100
AcDbTextStyleTableRecord
  2
Standard
 70
    0
 40
0
 41
1
 50
0
 71
    0
 42
1
  3
txt
  4

  0
ENDTAB
  0
TABLE
  2
VIEW
  5
6
330
0
100
AcDbSymbolTable
 70
    0
  0
ENDTAB
  0
TABLE
  2
UCS
  5
7
330
0
100
AcDbSymbolTable
 70
    0
  0
ENDTAB
  0
TABLE
  2
APPID
  5
9
330
0
100
AcDbSymbolTable
 70
    1
  0
APPID
  5
12
330
9
100
AcDbSymbolTableRecord
100
AcDbRegAppTableRecord
  2
ACAD
 70
    0
  0
APPID
  5
4D
330
9
100
AcDbSymbolTableRecord
100
AcDbRegAppTableRecord
  2
LibreCad
 70
    0
  0
ENDTAB
  0
TABLE
  2
DIMSTYLE
  5
A
330
0
100
AcDbSymbolTable
 70
    1
100
AcDbDimStyleTable
 71
    1
  0
DIMSTYLE
105
4E
330
A
100
AcDbSymbolTableRecord
100
AcDbDimStyleTableRecord
  2
Standard
 70
    0
 40
1
 41
2.5
 42
0.625
 43
0.38
 44
1.25
 45
0
 46
0
 47
0
 48
0
 49
1
140
2.5
141
0.09
142
0
143
25.4
144
1
145
0
146
1
147
0.625
148
0
 71
    0
 72
    0
 73
    0
 74
    1
 75
    0
 76
    0
 77
    0
 78
    8
 79
    0
170
    0
171
    2
172
    0
173
    0
174
    0
175
    0
176
    0
177
    0
178
    0
179
    0
271
    2
272
    4
273
    2
274
    2
275
    0
276
    0
277
    2
278
   44
279
    0
280
    0
281
    0
282
    0
283
    1
284
    0
285
    0
286
    0
288
    0
289
    3
340
4C
  0
ENDTAB
  0
TABLE
  2
BLOCK_RECORD
  5
1
330
0
100
AcDbSymbolTable
 70
    2
  0
BLOCK_RECORD
  5
1F
330
1
100
AcDbSymbolTableRecord
100
AcDbBlockTableRecord
  2
*Model_Space
 70
    0
280
    1
281
    0
  0
BLOCK_RECORD
  5
1E
330
1
100
AcDbSymbolTableRecord
100
AcDbBlockTableRecord
  2
*Paper_Space
 70
    0
280
    1
281
    0
  0
BLOCK_RECORD
  5
4F
330
1
100
AcDbSymbolTableRecord
100
AcDbBlockTableRecord
  2
chaveiro2
 70
    0
280
    1
281
    0
  0
BLOCK_RECORD
  5
52
330
1
100
AcDbSymbolTableRecord
100
AcDbBlockTableRecord
  2
texto
 70
    0
280
    1
281
    0
  0
BLOCK_RECORD
  5
55
330
1
100
AcDbSymbolTableRecord
100
AcDbBlockTableRecord
  2
chaveiro
 70
    0
280
    1
281
    0
  0
ENDTAB
  0
ENDSEC
  0
SECTION
  2
BLOCKS
  0
BLOCK
  5
20
330
1F
100
AcDbEntity
  8
0
100
AcDbBlockBegin
  2
*Model_Space
 70
    0
 10
0
 20
0
 30
0
  3
*Model_Space
  1

  0
ENDBLK
  5
21
330
1F
100
AcDbEntity
  8
0
100
AcDbBlockEnd
  0
BLOCK
  5
1C
330
1B
100
AcDbEntity
  8
0
100
AcDbBlockBegin
  2
*Paper_Space
 70
    0
 10
0
 20
0
 30
0
  3
*Paper_Space
  1

  0
ENDBLK
  5
1D
330
1F
100
AcDbEntity
  8
0
100
AcDbBlockEnd
  0
BLOCK
  5
50
330
4F
100
AcDbEntity
  8
0
100
AcDbBlockBegin
  2
chaveiro2
 70
    0
 10
0
 20
0
  3
chaveiro2
  1

  0
LWPOLYLINE
  5
58
100
AcDbEntity
  8
0
  6
ByLayer
 62
  256
370
   -1
100
AcDbPolyline
 90
   21
 70
    1
 43
0
 10
-13.441376
 20
-6.44242899999999
 10
-13.221578
 20
-7.261019999999988
 10
-12.776049
 20
-7.982063999999994
 10
-12.12698
 20
-8.554204999999996
 10
-11.338791
 20
-8.911128999999988
 10
-10.498399
 20
-9.021322999999995
 10
-9.661745
 20
-8.885639999999995
 10
-8.884767
 20
-8.504926999999995
 10
-8.253386000000003
 20
-7.913323999999989
 10
-7.829975000000001
 20
-7.179072999999988
 10
-7.635157
 20
-6.354180999999997
 10
-7.689552000000003
 20
-5.49065499999999
 10
-7.994503000000002
 20
-4.680937999999998
 10
-8.510831
 20
-4.008771999999993
 10
-9.198378000000002
 20
-3.513110999999995
 10
-10.016988
 20
-3.232908999999992
 10
-11.175633
 20
-3.25383699999999
 10
-12.20073
 20
-3.701889999999992
 10
-12.983021
 20
-4.501636999999988
 10
-13.413248
 20
-5.577648999999994
 10
-13.413248
 20
-5.577648999999994
  0
LWPOLYLINE
  5
59
100
AcDbEntity
  8
0
  6
ByLayer
 62
  256
370
   -1
100
AcDbPolyline
 90
   57
 70
    1
 43
0
 10
-1.547971
 20
-7.045265999999998
 10
-1.479705000000003
 20
-6.844248999999991
 10
-1.507411000000001
 20
-6.481230999999994
 10
-1.716972999999999
 20
-6.185389000000001
 10
-2.090158000000002
 20
-5.960032999999996
 10
-2.585536000000001
 20
-5.819012999999998
 10
-3.40212
 20
-5.820160999999999
 10
-4.092563000000002
 20
-6.126999999999995
 10
-4.606577000000001
 20
-6.704788999999991
 10
-4.909312
 20
-7.534780999999995
 10
-4.915024000000003
 20
-8.525936000000002
 10
-4.575760000000002
 20
-9.347916999999995
 10
-3.925144
 20
-9.94433699999999
 10
-3.007366000000001
 20
-10.28198999999999
 10
-2.074233
 20
-10.295914
 10
-1.307525999999999
 20
-9.984203999999991
 10
-0.7465350000000015
 20
-9.389905999999996
 10
-0.4283199999999994
 20
-8.543909999999997
 10
-0.3841859999999997
 20
-8.131256999999991
 10
-0.3903660000000002
 20
-7.822408999999993
 10
-0.1875450000000001
 20
-7.777969999999996
 10
-0.00219900000000095
 20
-8.000309999999999
 10
-0.04011000000000209
 20
-8.652737000000002
 10
-0.4160240000000002
 20
-9.676555999999991
 10
-1.081607999999999
 20
-10.396136
 10
-1.986516000000002
 20
-10.77672899999999
 10
-3.095335000000002
 20
-10.76203
 10
-4.177681
 20
-10.362832
 10
-4.930886000000001
 20
-9.640861000000001
 10
-5.322438000000002
 20
-8.658588999999992
 10
-5.305415
 20
-7.468564999999998
 10
-4.939431000000003
 20
-6.430361999999988
 10
-4.318614
 20
-5.715147999999999
 10
-3.48387
 20
-5.340541999999999
 10
-2.491614999999999
 20
-5.340166999999994
 10
-1.80611
 20
-5.548930999999996
 10
-1.329343000000001
 20
-5.885877999999991
 10
-1.083523
 20
-6.343795999999998
 10
-1.078739000000002
 20
-6.917689999999993
 10
-1.208449000000002
 20
-7.283279999999991
 10
-1.443637000000003
 20
-7.573033999999993
 10
-1.347384999999999
 20
-7.904638999999989
 10
-1.369489000000002
 20
-8.333891999999992
 10
-1.537458000000001
 20
-8.805509000000001
 10
-1.842301000000003
 20
-9.13273199999999
 10
-2.268484000000001
 20
-9.299582000000001
 10
-2.800519000000001
 20
-9.290099999999995
 10
-3.366007
 20
-9.08609899999999
 10
-3.751169000000001
 20
-8.720416
 10
-3.944458000000001
 20
-8.232872999999998
 10
-3.935902000000002
 20
-7.637861999999998
 10
-3.811572000000002
 20
-7.23360799999999
 10
-3.627688000000003
 20
-6.915633999999997
 10
-3.284331000000002
 20
-6.721048999999994
 10
-3.194245000000002
 20
-6.743482999999998
 10
-3.104158000000002
 20
-6.765917000000002
 10
-1.654731000000002
 20
-7.182699999999997
  0
LWPOLYLINE
  5
5A
100
AcDbEntity
  8
0
  6
ByLayer
 62
  256
370
   -1
100
AcDbPolyline
 90
   10
 70
    1
 43
0
 10
-2.066103000000002
 20
-8.708682999999994
 10
-1.758259000000002
 20
-8.193618000000001
 10
-1.844829000000001
 20
-7.637699999999995
 10
-3.323820000000001
 20
-7.209820999999991
 10
-3.446160000000003
 20
-7.432321999999999
 10
-3.540483000000002
 20
-7.741586999999996
 10
-3.539714
 20
-8.105949999999993
 10
-3.394963000000001
 20
-8.421335999999997
 10
-2.709257000000001
 20
-8.791838999999996
 10
-2.709300000000002
 20
-8.791831000000002
  0
LWPOLYLINE
  5
5B
100
AcDbEntity
  8
0
  6
ByLayer
 62
  256
370
   -1
100
AcDbPolyline
 90
   10
 70
    1
 43
0
 10
-0.6273420000000023
 20
-4.350335000000001
 10
-0.6335890000000006
 20
-4.487294999999989
 10
-0.7241610000000023
 20
-4.673222999999993
 10
-0.9001730000000023
 20
-4.708490999999995
 10
-4.649003
 20
-4.021856
 10
-4.656566000000002
 20
-3.92627499999999
 10
-4.650319
 20
-3.789314999999988
 10
-4.559747000000002
 20
-3.603386999999998
 10
-4.383735000000001
 20
-3.568118999999996
 10
-0.6349049999999998
 20
-4.254753999999991
  0
LWPOLYLINE
  5
5C
100
AcDbEntity
  8
0
  6
ByLayer
 62
  256
370
   -1
100
AcDbPolyline
 90
    9
 70
    1
 43
0
 10
-0.5511180000000024
 20
-1.808443999999994
 10
-0.6099430000000012
 20
-1.546486000000002
 10
-1.490942
 20
-1.385121999999996
 10
-1.549997000000001
 20
-2.152985999999999
 10
-1.489867
 20
-2.647543999999996
 10
-1.189589000000002
 20
-2.859529999999992
 10
-0.7988500000000016
 20
-2.748995999999991
 10
-0.5793510000000026
 20
-2.23657399999999
 10
-0.5792500000000018
 20
-2.236592000000002
  0
LWPOLYLINE
  5
5D
100
AcDbEntity
  8
0
  6
ByLayer
 62
  256
370
   -1
100
AcDbPolyline
 90
   27
 70
    1
 43
0
 10
-2.759869999999999
 20
-0.9765230000000003
 10
-2.411989000000002
 20
-0.8000409999999931
 10
-1.955779
 20
-0.8035339999999991
 10
-0.5157930000000022
 20
-1.067280999999994
 10
-0.3192330000000005
 20
-1.159801000000002
 10
-0.2194630000000011
 20
-1.335076999999998
 10
-0.1448630000000009
 20
-1.750637999999995
 10
-0.1781380000000006
 20
-2.309719000000001
 10
-0.5654190000000021
 20
-3.15562899999999
 10
-0.8829160000000016
 20
-3.337676000000002
 10
-1.272286000000001
 20
-3.346424999999996
 10
-1.611205000000002
 20
-3.216838999999993
 10
-1.825945000000001
 20
-2.97497899999999
 10
-1.946491000000002
 20
-2.193057999999994
 10
-1.873577000000001
 20
-1.314697999999993
 10
-2.043711000000002
 20
-1.283535999999998
 10
-2.520632000000003
 20
-1.384574999999998
 10
-2.750567
 20
-1.851118
 10
-2.765572000000002
 20
-2.34446299999999
 10
-2.674970999999999
 20
-2.775518999999989
 10
-2.788830000000001
 20
-2.848860000000002
 10
-2.917073000000002
 20
-2.863050000000001
 10
-3.049085000000002
 20
-2.794961999999998
 10
-3.127949000000001
 20
-2.642411999999993
 10
-3.186545000000002
 20
-2.24233199999999
 10
-3.150623
 20
-1.771657999999988
 10
-3.150404000000002
 20
-1.771593999999993
  0
LWPOLYLINE
  5
5E
100
AcDbEntity
  8
0
  6
ByLayer
 62
  256
370
   -1
100
AcDbPolyline
 90
   21
 70
    1
 43
0
 10
-2.361503000000003
 20
2.021297000000004
 10
-2.011301
 20
2.390455000000003
 10
-1.498333000000002
 20
2.585362000000003
 10
-0.8232090000000021
 20
2.568511000000001
 10
-0.1798690000000001
 20
2.343873000000002
 10
0.2284760000000006
 20
1.96765400000001
 10
0.420653999999999
 20
1.474040000000002
 10
0.4011539999999982
 20
0.887307000000007
 10
0.2291999999999987
 20
0.35991700000001
 10
0
 20
0
 10
-0.1841660000000012
 20
-0.1483849999999904
 10
-0.3996530000000007
 20
-0.1592039999999884
 10
-3.826456
 20
0.4684480000000093
 10
-3.834019000000001
 20
0.5640300000000025
 10
-3.826642
 20
0.7071609999999993
 10
-3.736904000000003
 20
0.888536000000002
 10
-3.561170000000001
 20
0.9222859999999997
 10
-2.473580999999999
 20
0.7230830000000026
 10
-2.561534000000002
 20
1.065734000000006
 10
-2.548291000000003
 20
1.515448000000006
 10
-2.548348000000001
 20
1.515459000000007
  0
LWPOLYLINE
  5
5F
100
AcDbEntity
  8
0
  6
ByLayer
 62
  256
370
   -1
100
AcDbPolyline
 90
   14
 70
    1
 43
0
 10
-2.152977
 20
0.9657880000000034
 10
-2.030189
 20
0.6418720000000064
 10
-0.3107159999999993
 20
0.3269340000000085
 10
-0.135270000000002
 20
0.5648220000000066
 10
9.999999974752427e-07
 20
0.9607820000000089
 10
0.007175999999997629
 20
1.342541000000011
 10
-0.1399110000000015
 20
1.670908000000011
 10
-0.4395820000000015
 20
1.920462999999998
 10
-0.9134080000000004
 20
2.076374999999999
 10
-1.411735
 20
2.098522000000003
 10
-1.780402000000002
 20
1.971380000000011
 10
-2.028252000000002
 20
1.715350000000001
 10
-2.160793999999999
 20
1.369118
 10
-2.160693999999999
 20
1.369099000000006
  0
LWPOLYLINE
  5
60
100
AcDbEntity
  8
0
  6
ByLayer
 62
  256
370
   -1
100
AcDbPolyline
 90
   38
 70
    1
 43
0
 10
-1.004905000000001
 20
6.890787000000003
 10
-1.228162000000001
 20
6.460699000000005
 10
-1.077769
 20
5.704701
 10
-0.8098330000000011
 20
5.693304000000012
 10
1.122301
 20
5.339415000000002
 10
1.128759000000002
 20
5.237806000000006
 10
1.123616999999996
 20
5.106873000000007
 10
1.033045000000001
 20
4.920945000000003
 10
0.8570330000000013
 20
4.885677999999999
 10
-0.8624399999999994
 20
5.200616000000011
 10
-1.331066
 20
5.110607000000002
 10
-1.555434999999999
 20
4.67444900000001
 10
-1.562608000000001
 20
4.292704000000001
 10
-1.476232
 20
3.975457000000006
 10
0.7961570000000009
 20
3.559246999999999
 10
0.8037199999999984
 20
3.463666000000003
 10
0.7974729999999965
 20
3.326706000000001
 10
0.706901000000002
 20
3.140777
 10
0.5308890000000019
 20
3.10551000000001
 10
-1.540995000000002
 20
3.48499600000001
 10
-1.732588
 20
3.570374999999999
 10
-1.869322
 20
3.783811
 10
-1.969855000000003
 20
4.229236
 10
-1.955314000000001
 20
4.754069000000001
 10
-1.767357000000001
 20
5.265979000000002
 10
-1.465849000000002
 20
5.574989000000002
 10
-1.624404000000002
 20
6.012201000000005
 10
-1.622525
 20
6.570758000000012
 10
-1.242007000000001
 20
7.311146000000008
 10
-0.9072580000000023
 20
7.475904
 10
-0.4716249999999995
 20
7.471470000000011
 10
1.448352
 20
7.119807000000009
 10
1.454810999999999
 20
7.018197999999998
 10
1.449669
 20
6.887266000000011
 10
1.359094999999996
 20
6.701327000000006
 10
1.183081999999999
 20
6.666056000000012
 10
-0.5363900000000008
 20
6.98099400000001
 10
-0.5362810000000025
 20
6.980781000000007
  0
LWPOLYLINE
  5
61
100
AcDbEntity
  8
0
  6
ByLayer
 62
  256
370
   -1
100
AcDbPolyline
 90
    9
 70
    1
 43
0
 10
1.523310000000002
 20
9.517343000000011
 10
1.464484999999996
 20
9.779301000000004
 10
0.5834860000000006
 20
9.94066500000001
 10
0.5244309999999999
 20
9.172801000000007
 10
0.5845619999999982
 20
8.678244000000007
 10
0.8848389999999995
 20
8.466256999999999
 10
1.275581000000003
 20
8.576806000000005
 10
1.495077000000002
 20
9.089213000000001
 10
1.495177999999996
 20
9.089195000000004
  0
LWPOLYLINE
  5
62
100
AcDbEntity
  8
0
  6
ByLayer
 62
  256
370
   -1
100
AcDbPolyline
 90
   27
 70
    1
 43
0
 10
-0.6854420000000019
 20
10.349265
 10
-0.3375610000000009
 20
10.52574700000001
 10
0.1186489999999978
 20
10.522254
 10
1.558635000000002
 20
10.25850600000001
 10
1.755195000000001
 20
10.165987
 10
1.854968
 20
9.990724
 10
1.929566999999999
 20
9.575163000000003
 10
1.896293
 20
9.016083000000009
 10
1.509011000000001
 20
8.170173000000005
 10
1.191511999999996
 20
7.988127000000006
 10
0.8021299999999982
 20
7.979379000000009
 10
0.4632109999999976
 20
8.108965000000012
 10
0.2484719999999996
 20
8.350825
 10
0.1279389999999978
 20
9.132743000000005
 10
0.2008539999999996
 20
10.011104
 10
0.03073399999999893
 20
10.04226300000001
 10
-0.4461870000000019
 20
9.941224000000005
 10
-0.6761219999999994
 20
9.474681000000004
 10
-0.6911260000000006
 20
8.981335999999999
 10
-0.6005260000000021
 20
8.550280000000001
 10
-0.714385
 20
8.476939000000002
 10
-0.8426280000000013
 20
8.46275
 10
-0.9746400000000008
 20
8.530838000000003
 10
-1.053504
 20
8.68338700000001
 10
-1.112102
 20
9.083452000000008
 10
-1.076181000000002
 20
9.554127000000008
 10
-1.075976000000001
 20
9.554193000000012
  0
LWPOLYLINE
  5
63
100
AcDbEntity
  8
0
  6
ByLayer
 62
  256
370
   -1
100
AcDbPolyline
 90
   24
 70
    1
 43
0
 10
2.269553000000002
 20
11.46589
 10
2.263306999999998
 20
11.32893
 10
2.172734999999996
 20
11.14300200000001
 10
1.996722999999996
 20
11.10773400000001
 10
-1.752107000000002
 20
11.794369
 10
-1.75967
 20
11.88995
 10
-1.752293000000002
 20
12.03308200000001
 10
-1.662555000000001
 20
12.21445700000001
 10
-1.486821000000003
 20
12.24820700000001
 10
0.7004999999999981
 20
11.847577
 10
-0.3438639999999999
 20
13.41412200000001
 10
-0.2297779999999996
 20
13.62557100000001
 10
-0.05014000000000252
 20
13.68063400000001
 10
0.0917369999999984
 20
13.59813000000001
 10
0.2108489999999996
 20
13.4256
 10
0.8883790000000005
 20
12.290464
 10
2.351714000000001
 20
13.422813
 10
2.548786999999997
 20
13.29875200000001
 10
2.594340000000003
 20
13.102017
 10
2.520693999999999
 20
12.93966300000001
 10
2.359251999999998
 20
12.812245
 10
0.9010449999999963
 20
11.81083100000001
 10
2.262048999999998
 20
11.56155000000001
 10
2.261989999999997
 20
11.56147100000001
  0
LWPOLYLINE
  5
64
100
AcDbEntity
  8
0
  6
ByLayer
 62
  256
370
   -1
100
AcDbPolyline
 90
   24
 70
    1
 43
0
 10
2.319020000000002
 20
14.74425400000001
 10
2.646540999999999
 20
15.409569
 10
2.646006999999997
 20
15.886921
 10
2.523825000000002
 20
16.24840500000001
 10
2.781407999999999
 20
16.351939
 10
2.930998000000002
 20
16.24295400000001
 10
3.032955000000001
 20
16.01077400000001
 10
3.074477999999999
 20
15.689177
 10
3.043050000000001
 20
15.311875
 10
2.831617000000001
 20
14.69750900000001
 10
2.455503
 20
14.264026
 10
1.928700999999997
 20
14.04495200000001
 10
1.262980999999996
 20
14.06169700000001
 10
0.6671079999999989
 20
14.271263
 10
0.2565360000000005
 20
14.63532600000001
 10
0.04999199999999959
 20
15.119021
 10
0.04569700000000054
 20
15.67869400000001
 10
0.2292029999999983
 20
16.16630400000001
 10
0.5627959999999987
 20
16.51337600000001
 10
1.005587999999996
 20
16.70231200000001
 10
1.521603999999996
 20
16.708225
 10
1.704903000000002
 20
16.61190400000001
 10
1.740623999999997
 20
16.429519
 10
1.659183999999996
 20
14.510306
  0
LWPOLYLINE
  5
65
100
AcDbEntity
  8
0
  6
ByLayer
 62
  256
370
   -1
100
AcDbPolyline
 90
    6
 70
    1
 43
0
 10
0.5884700000000009
 20
14.93876200000001
 10
1.276907999999999
 20
14.54892000000001
 10
1.352071000000002
 20
16.26208200000001
 10
0.7618390000000019
 20
16.12527900000001
 10
0.4396109999999993
 20
15.600284
 10
0.4396109999999993
 20
15.600284
  0
LWPOLYLINE
  5
66
100
AcDbEntity
  8
0
  6
ByLayer
 62
  256
370
   -1
100
AcDbPolyline
 90
   18
 70
    1
 43
0
 10
3.375731000000002
 20
17.505308
 10
3.369484999999997
 20
17.36834700000001
 10
3.278911000000001
 20
17.182408
 10
3.102897999999996
 20
17.147137
 10
1.043171000000001
 20
17.52439600000001
 10
0.8333499999999958
 20
17.61311400000001
 10
0.7015749999999983
 20
17.81936700000001
 10
0.6032679999999999
 20
18.27694800000002
 10
0.6367290000000025
 20
18.90507699999999
 10
0.7642570000000006
 20
19.258495
 10
0.968786999999999
 20
19.346625
 10
1.080843000000002
 20
19.30726199999999
 10
1.157041
 20
19.24301799999999
 10
1.103850000000001
 20
19.08948300000002
 10
1.056756
 20
18.89715199999999
 10
1.027326000000002
 20
18.393885
 10
1.096401999999998
 20
18.017014
 10
3.368167999999997
 20
17.60088900000001
  0
LWPOLYLINE
  5
67
100
AcDbEntity
  8
0
  6
ByLayer
 62
  256
370
   -1
100
AcDbPolyline
 90
    9
 70
    1
 43
0
 10
3.112462000000001
 20
18.947671
 10
3.060923000000003
 20
19.21458400000002
 10
3.202602999999996
 20
19.43981800000002
 10
3.461222999999997
 20
19.48041500000001
 10
3.682594000000002
 20
19.35190300000001
 10
3.735247000000001
 20
19.091075
 10
3.592452000000002
 20
18.85975600000002
 10
3.339903999999997
 20
18.81804699999999
 10
3.339903999999997
 20
18.81804699999999
  0
LWPOLYLINE
  5
68
100
AcDbEntity
  8
0
  6
ByLayer
 62
  256
370
   -1
100
AcDbPolyline
 90
   17
 70
    1
 43
0
 10
4.560235999999996
 20
19.61813600000001
 10
4.459350999999998
 20
19.78732700000002
 10
4.287695999999997
 20
19.912964
 10
4.008800999999998
 20
20.00172400000001
 10
1.031618999999999
 20
20.54702400000001
 10
1.024056000000002
 20
20.64260500000002
 10
1.031433
 20
20.785737
 10
1.122689000000001
 20
20.96683399999999
 10
1.302976999999998
 20
20.99974999999999
 10
4.189019999999999
 20
20.471143
 10
4.613129999999998
 20
20.31810600000001
 10
4.859245000000001
 20
20.084636
 10
4.971074999999999
 20
19.838083
 10
4.976833999999997
 20
19.62979800000001
 10
4.846744000000001
 20
19.43383000000001
 10
4.627918999999999
 20
19.40478299999999
 10
4.627961999999997
 20
19.40477500000001
  0
LWPOLYLINE
  5
69
100
AcDbEntity
  8
0
  6
ByLayer
 62
  256
370
   -1
100
AcDbPolyline
 90
    9
 70
    1
 43
0
 10
-0.07799100000000081
 20
20.76286900000001
 10
-0.1268430000000009
 20
21.01043600000001
 10
0.005472999999998507
 20
21.21856100000001
 10
0.2337229999999977
 20
21.26472
 10
0.4368659999999984
 20
21.13954700000001
 10
0.4807989999999975
 20
20.899141
 10
0.3534019999999991
 20
20.68385500000001
 10
0.1190809999999978
 20
20.638808
 10
0.1190809999999978
 20
20.638808
  0
LWPOLYLINE
  5
6A
100
AcDbEntity
  8
0
  6
ByLayer
 62
  256
370
   -1
100
AcDbPolyline
 90
    9
 70
    1
 43
0
 10
3.983900999999996
 20
22.95147000000001
 10
3.925078999999997
 20
23.213442
 10
3.044080000000001
 20
23.37480599999999
 10
2.985022000000001
 20
22.606928
 10
3.045155000000001
 20
22.112385
 10
3.34543
 20
21.90038400000002
 10
3.736171999999996
 20
22.01093200000001
 10
3.955667999999996
 20
22.52334
 10
3.955768999999997
 20
22.52332199999999
  0
LWPOLYLINE
  5
6B
100
AcDbEntity
  8
0
  6
ByLayer
 62
  256
370
   -1
100
AcDbPolyline
 90
   27
 70
    1
 43
0
 10
1.775148999999999
 20
23.78339100000001
 10
2.12303
 20
23.959873
 10
2.579239999999999
 20
23.95638000000001
 10
4.019225999999996
 20
23.69263300000001
 10
4.215786000000001
 20
23.60011300000001
 10
4.315559
 20
23.424851
 10
4.390155999999998
 20
23.00927600000001
 10
4.356881000000001
 20
22.45019499999999
 10
3.969602000000002
 20
21.60429900000001
 10
3.652102999999997
 20
21.422253
 10
3.262720999999999
 20
21.413506
 10
2.923802000000002
 20
21.543088
 10
2.709060000000001
 20
21.784937
 10
2.588527999999997
 20
22.56685600000002
 10
2.661445000000001
 20
23.44523
 10
2.491324999999996
 20
23.47638999999999
 10
2.014403999999999
 20
23.37535100000001
 10
1.784469000000001
 20
22.90880800000001
 10
1.769461999999997
 20
22.41544900000001
 10
1.860061999999999
 20
21.984393
 10
1.746203000000001
 20
21.911051
 10
1.617959999999997
 20
21.89686200000001
 10
1.485948
 20
21.96495
 10
1.407083999999998
 20
22.117499
 10
1.348489000000001
 20
22.517579
 10
1.384410000000003
 20
22.988254
 10
1.384614999999997
 20
22.98832
  0
LWPOLYLINE
  5
6C
100
AcDbEntity
  8
0
  6
ByLayer
 62
  256
370
   -1
100
AcDbPolyline
 90
   24
 70
    1
 43
0
 10
4.583064999999998
 20
24.78250300000001
 10
4.296548999999999
 20
24.63246300000002
 10
3.909401000000003
 20
24.635868
 10
1.023356999999997
 20
25.164475
 10
1.015794999999997
 20
25.26005600000001
 10
1.023170999999998
 20
25.40318700000002
 10
1.112909000000002
 20
25.58456199999999
 10
1.288643999999998
 20
25.61831200000002
 10
1.987366000000002
 20
25.490334
 10
2.169873000000003
 20
26.48677100000002
 10
2.261660999999997
 20
26.507637
 10
2.374366000000002
 20
26.50583400000001
 10
2.54757
 20
26.28571800000002
 10
2.388379999999998
 20
25.416588
 10
3.968102000000002
 20
25.127246
 10
4.338901999999997
 20
25.197435
 10
4.507291000000002
 20
25.56849100000001
 10
4.513125000000002
 20
25.806056
 10
4.466965000000002
 20
26.034306
 10
4.570354000000002
 20
26.08449600000002
 10
4.703521000000002
 20
26.09155300000002
 10
4.893318000000001
 20
25.893512
 10
4.898302000000001
 20
25.44045900000002
 10
4.898293000000002
 20
25.44065400000001
  0
LWPOLYLINE
  5
6D
100
AcDbEntity
  8
0
  6
ByLayer
 62
  256
370
   -1
100
AcDbPolyline
 90
    9
 70
    1
 43
0
 10
4.959939999999996
 20
28.280366
 10
4.901116000000002
 20
28.54232499999999
 10
4.020116000000002
 20
28.70368800000001
 10
3.961061000000001
 20
27.93582400000001
 10
4.021191999999999
 20
27.441267
 10
4.321469
 20
27.22928
 10
4.712209000000001
 20
27.339815
 10
4.931708
 20
27.85223700000002
 10
4.931807999999997
 20
27.85221800000001
  0
LWPOLYLINE
  5
6E
100
AcDbEntity
  8
0
  6
ByLayer
 62
  256
370
   -1
100
AcDbPolyline
 90
   27
 70
    1
 43
0
 10
2.751188999999997
 20
29.11228799999999
 10
3.099069
 20
29.28877000000001
 10
3.555278999999999
 20
29.28527699999999
 10
4.995264999999996
 20
29.021529
 10
5.191825000000001
 20
28.92900999999999
 10
5.291598
 20
28.75374800000002
 10
5.366197999999997
 20
28.33818700000002
 10
5.332923000000001
 20
27.779106
 10
4.945641999999999
 20
26.933196
 10
4.628141999999997
 20
26.75115000000001
 10
4.238760999999997
 20
26.74240200000001
 10
3.899841000000002
 20
26.87198500000001
 10
3.685099000000001
 20
27.11383400000001
 10
3.564569999999996
 20
27.89576699999999
 10
3.637484000000001
 20
28.77412700000001
 10
3.467363999999996
 20
28.80528600000001
 10
2.990442999999999
 20
28.704247
 10
2.760508000000002
 20
28.23770499999999
 10
2.745503999999997
 20
27.74436000000001
 10
2.836103999999999
 20
27.313304
 10
2.722245000000001
 20
27.23996200000001
 10
2.594001999999996
 20
27.22577300000002
 10
2.46199
 20
27.29386100000001
 10
2.383125999999997
 20
27.44641
 10
2.324531
 20
27.84649
 10
2.360452000000002
 20
28.317165
 10
2.360653999999997
 20
28.31721700000001
  0
LWPOLYLINE
  5
6F
100
AcDbEntity
  8
0
  6
ByLayer
 62
  256
370
   -1
100
AcDbPolyline
 90
   10
 70
    1
 43
0
 10
5.709519
 20
30.24712699999999
 10
5.703272999999996
 20
30.110167
 10
5.612701000000001
 20
29.92423800000002
 10
5.436689000000001
 20
29.88897100000001
 10
2.830131000000002
 20
30.36638700000002
 10
2.822567999999997
 20
30.461968
 10
2.829945000000002
 20
30.60510000000001
 10
2.921200999999996
 20
30.786197
 10
3.101487999999996
 20
30.819113
 10
5.701955999999996
 20
30.342708
  0
LWPOLYLINE
  5
70
100
AcDbEntity
  8
0
  6
ByLayer
 62
  256
370
   -1
100
AcDbPolyline
 90
    9
 70
    1
 43
0
 10
1.720512999999997
 20
30.58218900000001
 10
1.671664
 20
30.82977100000001
 10
1.803976999999996
 20
31.03788100000001
 10
2.032226999999999
 20
31.08404
 10
2.235369999999996
 20
30.95886700000001
 10
2.279305999999998
 20
30.718475
 10
2.151905999999997
 20
30.50317500000001
 10
1.917585000000003
 20
30.458128
 10
1.917585000000003
 20
30.458128
  0
LWPOLYLINE
  5
71
100
AcDbEntity
  8
0
  6
ByLayer
 62
  256
370
   -1
100
AcDbPolyline
 90
   21
 70
    1
 43
0
 10
-7.917037000000001
 20
31.168009
 10
-7.486810000000002
 20
32.24401999999999
 10
-6.704519000000001
 20
33.04376700000002
 10
-5.679422000000002
 20
33.49182
 10
-4.520777000000002
 20
33.512749
 10
5.525973
 20
31.672589
 10
6.584443999999998
 20
31.252886
 10
7.401730999999998
 20
30.46007100000001
 10
7.853408000000002
 20
29.414843
 10
7.870713000000002
 20
28.27632900000002
 10
0.9043929999999989
 20
-9.757795999999999
 10
0.4741649999999993
 20
-10.83380699999999
 10
-0.3081260000000015
 20
-11.63355399999999
 10
-1.333223
 20
-12.08160699999999
 10
-2.491866999999999
 20
-12.102536
 10
-12.538617
 20
-10.26237599999999
 10
-13.614629
 20
-9.832147999999989
 10
-14.414376
 20
-9.049858
 10
-14.862429
 20
-8.024760999999998
 10
-14.883357
 20
-6.866115999999991
 10
-14.883357
 20
-6.866115999999991
  0
ENDBLK
  5
51
330
4F
100
AcDbEntity
  8
0
100
AcDbBlockEnd
  0
BLOCK
  5
53
330
52
100
AcDbEntity
  8
0
100
AcDbBlockBegin
  2
texto
 70
    0
 10
0
 20
0
  3
texto
  1

  0
LWPOLYLINE
  5
72
100
AcDbEntity
  8
0
  6
ByLayer
 62
  256
370
   -1
100
AcDbPolyline
 90
    9
 70
    1
 43
0
 10
-7.703134349725561
 20
-1.663146275597001
 10
-7.112276349725562
 20
1.892543724402998
 10
-5.702161349725561
 20
1.892543724402998
 10
-5.861047349725562
 20
0.9453767244030047
 10
-6.347636349725562
 20
0.9453767244030047
 10
-6.407220349725561
 20
0.9302267244029991
 10
-6.44197234972556
 20
0.8694237244030063
 10
-5.87594034972556
 20
0.8694237244030063
 10
-6.297984349725562
 20
-1.663146275597001
  0
LWPOLYLINE
  5
73
100
AcDbEntity
  8
0
  6
ByLayer
 62
  256
370
   -1
100
AcDbPolyline
 90
    9
 70
    1
 43
0
 10
-5.503549349725562
 20
-1.663146275597001
 10
-4.912691349725561
 20
1.892543724402998
 10
-3.502577349725561
 20
1.892543724402998
 10
-3.661463349725562
 20
0.9453767244030047
 10
-4.148051349725561
 20
0.9453767244030047
 10
-4.20763534972556
 20
0.9302267244029991
 10
-4.242387349725561
 20
0.8694237244030063
 10
-3.676356349725561
 20
0.8694237244030063
 10
-4.098399349725561
 20
-1.663146275597001
  0
LWPOLYLINE
  5
74
100
AcDbEntity
  8
0
  6
ByLayer
 62
  256
370
   -1
100
AcDbPolyline
 90
    9
 70
    1
 43
0
 10
-3.30396534972556
 20
-1.663146275597001
 10
-2.713107349725561
 20
1.892543724402998
 10
-1.30299234972556
 20
1.892543724402998
 10
-1.46187934972556
 20
0.9453767244030047
 10
-1.948467349725561
 20
0.9453767244030047
 10
-2.008051349725561
 20
0.9302267244029991
 10
-2.042803349725562
 20
0.8694237244030063
 10
-1.476771349725562
 20
0.8694237244030063
 10
-1.898815349725561
 20
-1.663146275597001
  0
LWPOLYLINE
  5
75
100
AcDbEntity
  8
0
  6
ByLayer
 62
  256
370
   -1
100
AcDbPolyline
 90
   30
 70
    1
 43
0
 10
-0.1609913497255597
 20
-0.9641282755970053
 10
-0.1510603497255616
 20
-0.9083752755969954
 10
0.2262946502744398
 20
1.360783724403007
 10
0.3206306502744383
 20
1.614043724403004
 10
0.4795156502744398
 20
1.776119724403003
 10
0.6632286502744407
 20
1.862273724402996
 10
0.8320446502744403
 20
1.892674724402994
 10
3.994872650274438
 20
1.892674724402994
 10
3.835986650274439
 20
0.9455077244030008
 10
1.020721650274439
 20
0.9455077244030008
 10
0.9561776502744372
 20
0.9303577244029952
 10
0.9263866502744378
 20
0.8695547244030024
 10
1.49738365027444
 20
0.8695547244030024
 10
1.229262650274439
 20
-0.7158172755970043
 10
2.207406650274439
 20
-0.7158172755970043
 10
2.29181165027444
 20
-0.3004812755969937
 10
1.71088365027444
 20
-0.3004812755969937
 10
1.87970065027444
 20
0.646686724402997
 10
3.796264650274438
 20
0.646686724402997
 10
3.488423650274438
 20
-1.131163275597004
 10
3.394087650274439
 20
-1.384413275596998
 10
3.235200650274439
 20
-1.546500275596998
 10
3.05148865027444
 20
-1.637704275597002
 10
2.88267265027444
 20
-1.663055275597003
 10
0.4546936502744394
 20
-1.663055275597003
 10
0.2759466502744381
 20
-1.632654275597005
 10
0.07237365027443943
 20
-1.526289275596994
 10
-0.09147734972556165
 20
-1.328752275596997
 10
-0.1609923497255608
 20
-1.019779275597003
 10
-0.1609913497255597
 20
-1.019880275597004
  0
LWPOLYLINE
  5
76
100
AcDbEntity
  8
0
  6
ByLayer
 62
  256
370
   -1
100
AcDbPolyline
 90
    4
 70
    1
 43
0
 10
5.548982650274439
 20
-1.663146275597001
 10
4.143833650274438
 20
-1.663146275597001
 10
4.734691650274439
 20
1.892543724402998
 10
6.144805650274439
 20
1.892543724402998
  0
LWPOLYLINE
  5
77
100
AcDbEntity
  8
0
  6
ByLayer
 62
  256
370
   -1
100
AcDbPolyline
 90
   24
 70
    1
 43
0
 10
10.00276465027444
 20
1.892543724402998
 10
10.18151165027444
 20
1.857092724403003
 10
10.38508465027444
 20
1.750727724403006
 10
10.54893665027444
 20
1.553190724402995
 10
10.61845065027444
 20
1.249278724402998
 10
10.61349965027444
 20
1.193525724403003
 10
10.60854965027444
 20
1.137773724403004
 10
10.14182265027444
 20
-1.663227275596995
 10
8.791288650274439
 20
-1.663227275596995
 10
8.80618965027444
 20
-1.566973275596993
 10
8.835981650274437
 20
-1.404886275596994
 10
8.890594650274441
 20
-1.106044275597
 10
8.955138650274439
 20
-0.7160292755969948
 10
9.024653650274438
 20
-0.2804322755969935
 10
9.09912765027444
 20
0.1500947244030044
 10
9.158711650274437
 20
0.5147787244030013
 10
9.203393650274439
 20
0.773098724402999
 10
9.218294650274441
 20
0.8794737244029989
 10
9.18354265027444
 20
0.9250247244030021
 10
9.12395965027444
 20
0.9453257244030056
 10
8.081268650274438
 20
0.9453257244030056
 10
7.644331650274438
 20
-1.663196275597002
 10
6.29379965027444
 20
-1.663196275597002
 10
6.884623650274438
 20
1.892543724402998
  0
LWPOLYLINE
  5
78
100
AcDbEntity
  8
0
  6
ByLayer
 62
  256
370
   -1
100
AcDbPolyline
 90
   29
 70
    1
 43
0
 10
11.33343865027444
 20
-1.663146275597001
 10
11.15469265027444
 20
-1.632744275597005
 10
10.95111965027444
 20
-1.526380275597006
 10
10.78726765027444
 20
-1.328842275596998
 10
10.71775365027444
 20
-1.019870275597
 10
10.71775365027444
 20
-0.9641182755970021
 10
10.72768465027444
 20
-0.9083652755970064
 10
11.10503865027444
 20
1.360793724402996
 10
11.19937365027444
 20
1.614053724403007
 10
11.35826065027444
 20
1.776129724403006
 10
11.54197265027444
 20
1.862283724402999
 10
11.71078865027444
 20
1.892684724402997
 10
14.58563565027444
 20
1.892684724402997
 10
14.43171465027444
 20
0.945517724403004
 10
12.47046365027444
 20
0.945517724403004
 10
12.40591965027444
 20
0.9252167244030005
 10
12.37612765027444
 20
0.8847157244029944
 10
12.35626665027444
 20
0.7783507244029977
 10
12.32647465027444
 20
0.5909437244030045
 10
12.28179165027444
 20
0.3427537244029963
 10
12.23710865027444
 20
0.07430372440299493
 10
12.19242665027444
 20
-0.1992172755969932
 10
12.15270365027444
 20
-0.4271462755969964
 10
12.12788265027444
 20
-0.5841622755969951
 10
12.11795165027444
 20
-0.6500152755969992
 10
12.15270365027444
 20
-0.7007172755970004
 10
12.21228765027444
 20
-0.7158672755970059
 10
14.15367765027444
 20
-0.7158672755970059
 10
13.99478265027444
 20
-1.663146275597001
  0
LWPOLYLINE
  5
79
100
AcDbEntity
  8
0
  6
ByLayer
 62
  256
370
   -1
100
AcDbPolyline
 90
   12
 70
    1
 43
0
 10
15.43964565027444
 20
1.892543724402998
 10
17.34131365027444
 20
1.892543724402998
 10
17.51509565027444
 20
1.862142724403
 10
17.70873865027444
 20
1.765888724402998
 10
17.87258965027444
 20
1.588611724402995
 10
17.95699465027444
 20
1.320160724402996
 10
18.25490665027444
 20
-1.663176275596996
 10
16.96395565027444
 20
-1.663176275596996
 10
16.91430265027444
 20
-1.151596275597001
 10
15.92623365027444
 20
-1.151596275597001
 10
15.78720865027444
 20
-1.663176275596996
 10
14.49129365027444
 20
-1.663146275597001
  0
LWPOLYLINE
  5
7A
100
AcDbEntity
  8
0
  6
ByLayer
 62
  256
370
   -1
100
AcDbPolyline
 90
    6
 70
    1
 43
0
 10
16.71073465027444
 20
0.884593724403004
 10
16.68094265027444
 20
0.9250957244030076
 10
16.61639865027444
 20
0.9453967244029968
 10
16.48730065027444
 20
0.9453967244029968
 10
16.17945965027444
 20
-0.2043982755970006
 10
16.81996865027444
 20
-0.2043982755970006
  0
LWPOLYLINE
  5
7B
100
AcDbEntity
  8
0
  6
ByLayer
 62
  256
370
   -1
100
AcDbPolyline
 90
   24
 70
    1
 43
0
 10
22.26182365027444
 20
1.892543724402998
 10
22.44057065027444
 20
1.857092724403003
 10
22.64414365027444
 20
1.750727724403006
 10
22.80799465027444
 20
1.553190724402995
 10
22.87750965027444
 20
1.249278724402998
 10
22.87255865027444
 20
1.193525724403003
 10
22.86760865027444
 20
1.137773724403004
 10
22.40087965027444
 20
-1.663227275596995
 10
21.05034765027444
 20
-1.663227275596995
 10
21.06524865027444
 20
-1.566973275596993
 10
21.09504065027444
 20
-1.404886275596994
 10
21.14965365027444
 20
-1.106044275597
 10
21.21419765027444
 20
-0.7160292755969948
 10
21.28371165027444
 20
-0.2804322755969935
 10
21.35818665027444
 20
0.1500947244030044
 10
21.41776965027444
 20
0.5147787244030013
 10
21.46245265027444
 20
0.773098724402999
 10
21.47734365027444
 20
0.8794737244029989
 10
21.44259165027444
 20
0.9250247244030021
 10
21.38300765027444
 20
0.9453257244030056
 10
20.34031765027444
 20
0.9453257244030056
 10
19.90337965027444
 20
-1.663196275597002
 10
18.55284765027444
 20
-1.663196275597002
 10
19.14368265027444
 20
1.892543724402998
  0
LWPOLYLINE
  5
7C
100
AcDbEntity
  8
0
  6
ByLayer
 62
  256
370
   -1
100
AcDbPolyline
 90
   12
 70
    1
 43
0
 10
23.92516665027444
 20
1.892543724402998
 10
25.82683565027444
 20
1.892543724402998
 10
26.00061865027444
 20
1.862142724403
 10
26.19426065027444
 20
1.765888724402998
 10
26.35811265027444
 20
1.588611724402995
 10
26.44251765027444
 20
1.320160724402996
 10
26.74042865027444
 20
-1.663176275596996
 10
25.44947865027444
 20
-1.663176275596996
 10
25.39982565027444
 20
-1.151596275597001
 10
24.41175265027444
 20
-1.151596275597001
 10
24.27272765027444
 20
-1.663176275596996
 10
22.97681565027444
 20
-1.663146275597001
  0
LWPOLYLINE
  5
7D
100
AcDbEntity
  8
0
  6
ByLayer
 62
  256
370
   -1
100
AcDbPolyline
 90
    6
 70
    1
 43
0
 10
25.19625665027444
 20
0.884593724403004
 10
25.16646465027444
 20
0.9250957244030076
 10
25.10192065027444
 20
0.9453967244029968
 10
24.97282565027444
 20
0.9453967244029968
 10
24.66498365027444
 20
-0.2043782755969943
 10
25.30549065027444
 20
-0.2043982755970006
  0
LWPOLYLINE
  5
7E
100
AcDbEntity
  8
0
  6
ByLayer
 62
  256
370
   -1
100
AcDbPolyline
 90
    9
 70
    1
 43
0
 10
-12.01539334972556
 20
-7.994504275596995
 10
-11.42453534972556
 20
-4.438815275596994
 10
-10.01442034972556
 20
-4.438815275596994
 10
-10.17330634972556
 20
-5.385982275597001
 10
-10.65989534972556
 20
-5.385982275597001
 10
-10.71947834972556
 20
-5.401233275596994
 10
-10.75423434972556
 20
-5.462036275597001
 10
-10.18820234972556
 20
-5.462036275597001
 10
-10.61024334972556
 20
-7.994504275596995
  0
LWPOLYLINE
  5
7F
100
AcDbEntity
  8
0
  6
ByLayer
 62
  256
370
   -1
100
AcDbPolyline
 90
   24
 70
    1
 43
0
 10
-6.156462349725562
 20
-4.438815275596994
 10
-5.97771534972556
 20
-4.474266275597003
 10
-5.774142349725562
 20
-4.580640275597005
 10
-5.610291349725561
 20
-4.778178275597
 10
-5.540776349725562
 20
-5.082080275596994
 10
-5.545727349725562
 20
-5.137833275597004
 10
-5.550677349725561
 20
-5.193585275597002
 10
-6.017406349725562
 20
-7.994575275597001
 10
-7.367968349725562
 20
-7.994575275597001
 10
-7.353073349725561
 20
-7.898321275596999
 10
-7.323282349725561
 20
-7.736235275596997
 10
-7.268664349725562
 20
-7.437393275597003
 10
-7.204117349725561
 20
-7.047388275597001
 10
-7.134605349725561
 20
-6.611791275597
 10
-7.060131349725561
 20
-6.181254275596999
 10
-7.000547349725561
 20
-5.816569275597004
 10
-6.955864349725561
 20
-5.558249275597007
 10
-6.940963349725561
 20
-5.451885275596993
 10
-6.975716349725561
 20
-5.406334275597004
 10
-7.035299349725561
 20
-5.386032275597003
 10
-8.077991349725561
 20
-5.386032275597003
 10
-8.514928349725562
 20
-7.994504275596995
 10
-9.865460349725561
 20
-7.994504275596995
 10
-9.274602349725562
 20
-4.438815275596994
  0
LWPOLYLINE
  5
80
100
AcDbEntity
  8
0
  6
ByLayer
 62
  256
370
   -1
100
AcDbPolyline
 90
    8
 70
    1
 43
0
 10
-5.183278349725562
 20
-4.438815275596994
 10
-1.583512349725561
 20
-4.438815275596994
 10
-1.742399349725561
 20
-5.385982275597001
 10
-2.849636349725561
 20
-5.385982275597001
 10
-3.281609349725562
 20
-7.994504275596995
 10
-4.632141349725561
 20
-7.994504275596995
 10
-4.195204349725561
 20
-5.385982275597001
 10
-5.342163349725562
 20
-5.385982275597001
  0
LWPOLYLINE
  5
81
100
AcDbEntity
  8
0
  6
ByLayer
 62
  256
370
   -1
100
AcDbPolyline
 90
   31
 70
    1
 43
0
 10
-0.2379533497255615
 20
-6.713004275597001
 10
-0.2528443497255601
 20
-6.794007275596996
 10
-0.2627753497255618
 20
-6.864909275597
 10
-0.2727053497255625
 20
-6.920662275596996
 10
-0.2776563497255609
 20
-6.956113275597005
 10
-0.2826063497255618
 20
-6.981464275597006
 10
-0.2478543497255608
 20
-7.032167275597004
 10
-0.1882713497255608
 20
-7.047418275596996
 10
1.638920650274439
 20
-7.047418275596996
 10
1.480033650274439
 20
-7.994585275597004
 10
-1.067109349725561
 20
-7.994585275597004
 10
-1.24585634972556
 20
-7.964184275597006
 10
-1.449429349725561
 20
-7.857820275596993
 10
-1.613280349725562
 20
-7.660282275596998
 10
-1.682795349725561
 20
-7.351310275597001
 10
-1.682795349725561
 20
-7.295557275597005
 10
-1.672864349725561
 20
-7.239805275596993
 10
-1.295509349725561
 20
-4.970646275597005
 10
-1.201173349725561
 20
-4.717396275596997
 10
-1.04228834972556
 20
-4.555309275596997
 10
-0.8585753497255624
 20
-4.469155275597004
 10
-0.6897593497255627
 20
-4.438754275597006
 10
2.075852650274438
 20
-4.438754275597006
 10
1.91696765027444
 20
-5.385921275596999
 10
0.06991465027443766
 20
-5.385921275596999
 10
0.005370650274439726
 20
-5.406223275597
 10
-0.02442134972556076
 20
-5.446724275597006
 10
-0.0641433497255619
 20
-5.684783275596999
 10
1.534648650274438
 20
-5.684783275596999
 10
1.365832650274438
 20
-6.631961275596993
 10
-0.2230523497255597
 20
-6.632001275597005
  0
LWPOLYLINE
  5
82
100
AcDbEntity
  8
0
  6
ByLayer
 62
  256
370
   -1
100
AcDbPolyline
 90
   26
 70
    1
 43
0
 10
3.565391650274439
 20
-7.047337275597002
 10
4.543534650274438
 20
-7.047337275597002
 10
4.627939650274438
 20
-6.632001275597005
 10
4.047015650274439
 20
-6.632001275597005
 10
4.215831650274438
 20
-5.684824275596995
 10
6.13239665027444
 20
-5.684824275596995
 10
5.82455465027444
 20
-7.462674275596996
 10
5.730218650274438
 20
-7.715924275597004
 10
5.571331650274438
 20
-7.878010275597006
 10
5.387619650274438
 20
-7.969214275596997
 10
5.218803650274438
 20
-7.994565275596997
 10
2.790824650274438
 20
-7.994565275596997
 10
2.61207765027444
 20
-7.964164275597
 10
2.408504650274438
 20
-7.857800275597
 10
2.24465365027444
 20
-7.660262275597006
 10
2.175139650274438
 20
-7.351290275596995
 10
2.175139650274438
 20
-7.295537275596999
 10
2.185069650274439
 20
-7.239785275597001
 10
2.562424650274441
 20
-4.970625275597001
 10
2.656760650274439
 20
-4.717376275597005
 10
2.815646650274438
 20
-4.555289275597005
 10
2.999358650274438
 20
-4.469135275596997
 10
3.168174650274437
 20
-4.438734275597
 10
6.331002650274439
 20
-4.438734275597
 10
6.17211665027444
 20
-5.385901275596993
 10
3.843441650274439
 20
-5.385982275597001
  0
LWPOLYLINE
  5
83
100
AcDbEntity
  8
0
  6
ByLayer
 62
  256
370
   -1
100
AcDbPolyline
 90
   19
 70
    1
 43
0
 10
7.021166650274438
 20
-4.438815275596994
 10
9.91090865027444
 20
-4.438815275596994
 10
10.08965565027444
 20
-4.474266275597003
 10
10.29322865027444
 20
-4.580640275597005
 10
10.45707965027444
 20
-4.778178275597
 10
10.52659365027444
 20
-5.082080275596994
 10
10.52659365027444
 20
-5.137833275597004
 10
10.51666365027444
 20
-5.193585275597002
 10
10.29819465027444
 20
-6.500376275597006
 10
10.21875065027444
 20
-6.733366275596993
 10
10.07972565027444
 20
-6.890392275596994
 10
9.91090865027444
 20
-6.986646275596996
 10
9.752022650274441
 20
-7.027147275597002
 10
9.945664650274438
 20
-7.994575275597001
 10
8.70933265027444
 20
-7.994575275597001
 10
8.515689650274439
 20
-7.032207275597003
 10
7.939727650274438
 20
-7.032207275597003
 10
7.780840650274438
 20
-7.994575275597001
 10
6.430308650274441
 20
-7.994504275596995
  0
LWPOLYLINE
  5
84
100
AcDbEntity
  8
0
  6
ByLayer
 62
  256
370
   -1
100
AcDbPolyline
 90
   14
 70
    1
 43
0
 10
9.00227465027444
 20
-6.064668275597001
 10
9.032066650274437
 20
-6.024167275596994
 10
9.05192765027444
 20
-5.907672275596994
 10
9.08171965027444
 20
-5.715195275596997
 10
9.111511650274441
 20
-5.532848275597004
 10
9.116462650274439
 20
-5.497396275596998
 10
9.12141265027444
 20
-5.466995275597
 10
9.126362650274437
 20
-5.456895275597006
 10
9.126362650274437
 20
-5.451845275596995
 10
9.09161065027444
 20
-5.406293275596994
 10
9.03202765027444
 20
-5.385992275597005
 10
8.217735650274438
 20
-5.385992275597005
 10
8.098570650274439
 20
-6.084980275597005
 10
8.93773165027444
 20
-6.084969275597004
  0
LWPOLYLINE
  5
85
100
AcDbEntity
  8
0
  6
ByLayer
 62
  256
370
   -1
100
AcDbPolyline
 90
   12
 70
    1
 43
0
 10
11.47493965027444
 20
-4.438815275596994
 10
13.37660865027444
 20
-4.438815275596994
 10
13.55039065027444
 20
-4.469216275597006
 10
13.74403265027444
 20
-4.565470275596994
 10
13.90788365027444
 20
-4.742747275596997
 10
13.99228865027444
 20
-5.011198275596996
 10
14.29020165027444
 20
-7.994535275597002
 10
12.99925065027444
 20
-7.994535275597002
 10
12.94959765027444
 20
-7.482965275596996
 10
11.96152465027444
 20
-7.482965275596996
 10
11.82249865027444
 20
-7.994535275597002
 10
10.52658765027444
 20
-7.994504275596995
  0
LWPOLYLINE
  5
86
100
AcDbEntity
  8
0
  6
ByLayer
 62
  256
370
   -1
100
AcDbPolyline
 90
    6
 70
    1
 43
0
 10
12.74602965027444
 20
-5.446764275597005
 10
12.71623765027444
 20
-5.406263275596999
 10
12.65169365027444
 20
-5.385962275596995
 10
12.52259865027444
 20
-5.385962275596995
 10
12.21475565027444
 20
-6.535737275597
 10
12.85526265027444
 20
-6.535757275596993
  0
LWPOLYLINE
  5
87
100
AcDbEntity
  8
0
  6
ByLayer
 62
  256
370
   -1
100
AcDbPolyline
 90
   17
 70
    1
 43
0
 10
17.22464065027444
 20
-5.391012275597006
 10
17.18988865027444
 20
-5.385962275596995
 10
16.37559665027444
 20
-5.385962275596995
 10
16.09754665027444
 20
-7.047317275596996
 10
16.93666365027444
 20
-7.047317275596996
 10
16.99624665027444
 20
-7.032066275597003
 10
17.02603865027444
 20
-6.986515275597
 10
17.04589965027444
 20
-6.885211275597001
 10
17.07569165027444
 20
-6.692733275596993
 10
17.12037465027444
 20
-6.449613275597002
 10
17.16505765027444
 20
-6.176103275597001
 10
17.20973965027444
 20
-5.907652275597002
 10
17.24946265027444
 20
-5.679723275596999
 10
17.27429365027444
 20
-5.517637275596996
 10
17.28422465027444
 20
-5.451784275597007
 10
17.25940265027444
 20
-5.411283275597
 10
17.25939265027444
 20
-5.411313275596996
  0
LWPOLYLINE
  5
88
100
AcDbEntity
  8
0
  6
ByLayer
 62
  256
370
   -1
100
AcDbPolyline
 90
   15
 70
    1
 43
0
 10
18.68440265027444
 20
-5.137833275597004
 10
18.67447265027444
 20
-5.193585275597002
 10
18.29711765027444
 20
-7.462744275597004
 10
18.20278165027444
 20
-7.715994275596998
 10
18.04389565027444
 20
-7.878081275596998
 10
17.86018365027444
 20
-7.969285275597002
 10
17.69136665027444
 20
-7.994636275597003
 10
14.58812165027444
 20
-7.994636275597003
 10
15.17897965027444
 20
-4.438946275597004
 10
18.06872165027444
 20
-4.438946275597004
 10
18.24746865027444
 20
-4.474397275596999
 10
18.45104165027444
 20
-4.580772275596999
 10
18.61489265027444
 20
-4.778309275596996
 10
18.68440665027444
 20
-5.082211275597004
 10
18.68440265027444
 20
-5.082080275596994
  0
LWPOLYLINE
  5
89
100
AcDbEntity
  8
0
  6
ByLayer
 62
  256
370
   -1
100
AcDbPolyline
 90
   30
 70
    1
 43
0
 10
20.48180165027444
 20
-5.553129275597001
 10
20.45200965027444
 20
-5.740546275596998
 10
20.41228665027444
 20
-5.988726275597003
 10
20.36760465027444
 20
-6.257176275597004
 10
20.32292165027444
 20
-6.530697275597007
 10
20.28816965027444
 20
-6.758626275596995
 10
20.26334765027444
 20
-6.915642275596994
 10
20.25341765027444
 20
-6.981495275596998
 10
20.25341765027444
 20
-7.001796275597002
 10
20.27823865027444
 20
-7.022097275597005
 10
20.31300065027444
 20
-7.042398275596994
 10
20.34279265027444
 20
-7.047448275597006
 10
21.37555265027444
 20
-7.047448275597006
 10
21.44009665027444
 20
-7.032197275596999
 10
21.46988865027444
 20
-6.986646275596996
 10
21.48478965027444
 20
-6.885342275596997
 10
21.51954165027444
 20
-6.692864275597003
 10
21.55926365027444
 20
-6.449745275596996
 10
21.60394665027444
 20
-6.176234275596997
 10
21.64862965027444
 20
-5.907783275596998
 10
21.68835165027444
 20
-5.679854275596995
 10
21.71317365027444
 20
-5.517768275596993
 10
21.72310365027444
 20
-5.451915275597003
 10
21.69828265027444
 20
-5.411414275596997
 10
21.66353065027444
 20
-5.391113275596993
 10
21.62877765027444
 20
-5.386063275596996
 10
20.59601765027444
 20
-5.386063275596996
 10
20.53147365027444
 20
-5.406364275596999
 10
20.50168165027444
 20
-5.446865275597006
 10
20.50166265027444
 20
-5.446764275597005
  0
LWPOLYLINE
  5
8A
100
AcDbEntity
  8
0
  6
ByLayer
 62
  256
370
   -1
100
AcDbPolyline
 90
   24
 70
    1
 43
0
 10
22.65159165027444
 20
-4.474266275597003
 10
22.85516365027444
 20
-4.580640275597005
 10
23.01901565027444
 20
-4.778178275597
 10
23.08852965027444
 20
-5.082080275596994
 10
23.08852965027444
 20
-5.137833275597004
 10
23.08357965027444
 20
-5.193585275597002
 10
22.70126065027444
 20
-7.462744275597004
 10
22.60692465027444
 20
-7.715994275596998
 10
22.44803765027444
 20
-7.878081275596998
 10
22.26432565027444
 20
-7.969285275597002
 10
22.09550965027444
 20
-7.994636275597003
 10
19.49871465027444
 20
-7.994636275597003
 10
19.31996765027444
 20
-7.964234275596993
 10
19.11639365027444
 20
-7.857870275596994
 10
18.95254265027444
 20
-7.660333275596997
 10
18.88302865027444
 20
-7.351360275597003
 10
18.88302865027444
 20
-7.295608275597004
 10
18.89295965027444
 20
-7.239855275596994
 10
19.27031465027444
 20
-4.970696275596993
 10
19.36464965027444
 20
-4.717446275596998
 10
19.52353565027444
 20
-4.555360275596996
 10
19.70724765027444
 20
-4.469206275597003
 10
19.87606465027444
 20
-4.438805275597005
 10
22.47284465027444
 20
-4.438815275596994
  0
LWPOLYLINE
  5
8B
100
AcDbEntity
  8
0
  6
ByLayer
 62
  256
370
   -1
100
AcDbPolyline
 90
   19
 70
    1
 43
0
 10
23.78365565027444
 20
-4.438815275596994
 10
26.67339765027444
 20
-4.438815275596994
 10
26.85214465027444
 20
-4.474266275597003
 10
27.05571665027444
 20
-4.580640275597005
 10
27.21956865027444
 20
-4.778178275597
 10
27.28908265027444
 20
-5.082080275596994
 10
27.28908265027444
 20
-5.137833275597004
 10
27.27915265027444
 20
-5.193585275597002
 10
27.06068365027444
 20
-6.500376275597006
 10
26.98123965027444
 20
-6.733366275596993
 10
26.84221365027444
 20
-6.890392275596994
 10
26.67339765027444
 20
-6.986646275596996
 10
26.51451065027444
 20
-7.027147275597002
 10
26.70815365027444
 20
-7.994575275597001
 10
25.47182065027444
 20
-7.994575275597001
 10
25.27817765027444
 20
-7.032207275597003
 10
24.70221565027444
 20
-7.032207275597003
 10
24.54332965027444
 20
-7.994575275597001
 10
23.19279765027444
 20
-7.994504275596995
  0
LWPOLYLINE
  5
8C
100
AcDbEntity
  8
0
  6
ByLayer
 62
  256
370
   -1
100
AcDbPolyline
 90
   14
 70
    1
 43
0
 10
25.76476365027444
 20
-6.064668275597001
 10
25.79455465027444
 20
-6.024167275596994
 10
25.81441665027444
 20
-5.907672275596994
 10
25.84420765027444
 20
-5.715195275596997
 10
25.87399965027444
 20
-5.532848275597004
 10
25.87895065027444
 20
-5.497396275596998
 10
25.88390065027444
 20
-5.466995275597
 10
25.88885165027444
 20
-5.456895275597006
 10
25.88885165027444
 20
-5.451845275596995
 10
25.85409865027444
 20
-5.406293275596994
 10
25.79451565027444
 20
-5.385992275597005
 10
24.98022365027444
 20
-5.385992275597005
 10
24.86105965027444
 20
-6.084980275597005
 10
25.70021965027444
 20
-6.084969275597004
  0
LWPOLYLINE
  5
8D
100
AcDbEntity
  8
0
  6
ByLayer
 62
  256
370
   -1
100
AcDbPolyline
 90
   12
 70
    1
 43
0
 10
28.23742765027444
 20
-4.438815275596994
 10
30.13909665027444
 20
-4.438815275596994
 10
30.31287865027444
 20
-4.469216275597006
 10
30.50652065027444
 20
-4.565470275596994
 10
30.67037165027444
 20
-4.742747275596997
 10
30.75477765027444
 20
-5.011198275596996
 10
31.05268965027444
 20
-7.994535275597002
 10
29.76174165027444
 20
-7.994535275597002
 10
29.71208865027444
 20
-7.482965275596996
 10
28.72401565027444
 20
-7.482965275596996
 10
28.58498965027444
 20
-7.994535275597002
 10
27.28907565027444
 20
-7.994504275596995
  0
LWPOLYLINE
  5
8E
100
AcDbEntity
  8
0
  6
ByLayer
 62
  256
370
   -1
100
AcDbPolyline
 90
    6
 70
    1
 43
0
 10
29.50851765027444
 20
-5.446764275597005
 10
29.47872565027444
 20
-5.406263275596999
 10
29.41418165027444
 20
-5.385962275596995
 10
29.28508665027444
 20
-5.385962275596995
 10
28.97724465027444
 20
-6.535737275597
 10
29.61775165027444
 20
-6.535757275596993
  0
LWPOLYLINE
  5
8F
100
AcDbEntity
  8
0
  6
ByLayer
 62
  256
370
   -1
100
AcDbPolyline
 90
   17
 70
    1
 43
0
 10
-7.901745349725561
 20
-11.722371275597
 10
-7.93650134972556
 20
-11.717321275597
 10
-8.75079334972556
 20
-11.717321275597
 10
-9.028844349725562
 20
-13.378666275597
 10
-8.189726349725561
 20
-13.378666275597
 10
-8.130144349725562
 20
-13.36351627559699
 10
-8.100353349725561
 20
-13.31796427559701
 10
-8.080492349725562
 20
-13.21666027559699
 10
-8.050701349725561
 20
-13.024193275597
 10
-8.006014349725561
 20
-12.78106327559701
 10
-7.96132834972556
 20
-12.50755227559699
 10
-7.916641349725561
 20
-12.23910227559701
 10
-7.876919349725561
 20
-12.011173275597
 10
-7.852094349725562
 20
-11.849086275597
 10
-7.842163349725562
 20
-11.783234275597
 10
-7.866989349725561
 20
-11.74273227559699
 10
-7.866989349725561
 20
-11.742672275597
  0
LWPOLYLINE
  5
90
100
AcDbEntity
  8
0
  6
ByLayer
 62
  256
370
   -1
100
AcDbPolyline
 90
   15
 70
    1
 43
0
 10
-6.44197934972556
 20
-11.469191275597
 10
-6.45191034972556
 20
-11.52494427559699
 10
-6.829265349725562
 20
-13.794103275597
 10
-6.923600349725561
 20
-14.04736327559699
 10
-7.082487349725561
 20
-14.20943927559701
 10
-7.266199349725561
 20
-14.300643275597
 10
-7.43501534972556
 20
-14.32599527559699
 10
-10.53826334972556
 20
-14.32599527559699
 10
-9.94740534972556
 20
-10.770305275597
 10
-7.05766334972556
 20
-10.770305275597
 10
-6.878916349725561
 20
-10.80575627559701
 10
-6.67534334972556
 20
-10.912120275597
 10
-6.511491349725562
 20
-11.109658275597
 10
-6.441977349725562
 20
-11.41356027559699
 10
-6.44197934972556
 20
-11.413439275597
  0
LWPOLYLINE
  5
91
100
AcDbEntity
  8
0
  6
ByLayer
 62
  256
370
   -1
100
AcDbPolyline
 90
   30
 70
    1
 43
0
 10
-4.644581349725561
 20
-11.884497275597
 10
-4.67437234972556
 20
-12.071905275597
 10
-4.714095349725561
 20
-12.320095275597
 10
-4.758778349725562
 20
-12.588545275597
 10
-4.803460349725562
 20
-12.862056275597
 10
-4.838212349725561
 20
-13.089985275597
 10
-4.863034349725561
 20
-13.247001275597
 10
-4.872965349725561
 20
-13.312854275597
 10
-4.872965349725561
 20
-13.33315527559699
 10
-4.848133349725561
 20
-13.353456275597
 10
-4.81338134972556
 20
-13.373656275597
 10
-4.783589349725561
 20
-13.378706275597
 10
-3.750829349725562
 20
-13.378706275597
 10
-3.68628534972556
 20
-13.36355627559701
 10
-3.656493349725562
 20
-13.318005275597
 10
-3.641593349725561
 20
-13.216701275597
 10
-3.606840349725561
 20
-13.024233275597
 10
-3.567118349725561
 20
-12.781103275597
 10
-3.52243534972556
 20
-12.507593275597
 10
-3.47775334972556
 20
-12.239142275597
 10
-3.438030349725562
 20
-12.011213275597
 10
-3.413209349725561
 20
-11.849127275597
 10
-3.403278349725561
 20
-11.78327427559699
 10
-3.428100349725561
 20
-11.742773275597
 10
-3.46285234972556
 20
-11.722472275597
 10
-3.497604349725561
 20
-11.717422275597
 10
-4.530364349725561
 20
-11.717422275597
 10
-4.594908349725561
 20
-11.73772327559701
 10
-4.624700349725561
 20
-11.778224275597
 10
-4.624719349725561
 20
-11.778123275597
  0
LWPOLYLINE
  5
92
100
AcDbEntity
  8
0
  6
ByLayer
 62
  256
370
   -1
100
AcDbPolyline
 90
   24
 70
    1
 43
0
 10
-2.47479134972556
 20
-10.805625275597
 10
-2.271218349725562
 20
-10.91198927559699
 10
-2.107367349725561
 20
-11.109527275597
 10
-2.037853349725561
 20
-11.413429275597
 10
-2.037853349725561
 20
-11.46918127559699
 10
-2.042803349725562
 20
-11.524934275597
 10
-2.425123349725562
 20
-13.79409327559699
 10
-2.519459349725562
 20
-14.047353275597
 10
-2.678345349725561
 20
-14.209429275597
 10
-2.862057349725561
 20
-14.30063327559699
 10
-3.03087334972556
 20
-14.32598427559699
 10
-5.627688349725561
 20
-14.32598427559699
 10
-5.806435349725561
 20
-14.295583275597
 10
-6.010009349725561
 20
-14.189219275597
 10
-6.173860349725562
 20
-13.991681275597
 10
-6.243374349725562
 20
-13.68270927559701
 10
-6.243374349725562
 20
-13.62695727559699
 10
-6.233443349725562
 20
-13.571204275597
 10
-5.85608834972556
 20
-11.30203527559699
 10
-5.761753349725561
 20
-11.048785275597
 10
-5.60286734972556
 20
-10.886698275597
 10
-5.41915534972556
 20
-10.800545275597
 10
-5.250337349725561
 20
-10.77014327559699
 10
-2.653538349725562
 20
-10.770174275597
  0
LWPOLYLINE
  5
93
100
AcDbEntity
  8
0
  6
ByLayer
 62
  256
370
   -1
100
AcDbPolyline
 90
    9
 70
    1
 43
0
 10
-0.8908913497255604
 20
-14.325863275597
 10
-0.3000333497255596
 20
-10.770174275597
 10
1.110081650274438
 20
-10.770174275597
 10
0.951195650274439
 20
-11.717351275597
 10
0.4646076502744378
 20
-11.717351275597
 10
0.4050236502744404
 20
-11.732501275597
 10
0.3702716502744394
 20
-11.793304275597
 10
0.9363026502744383
 20
-11.793304275597
 10
0.5142586502744386
 20
-14.325863275597
  0
LWPOLYLINE
  5
94
100
AcDbEntity
  8
0
  6
ByLayer
 62
  256
370
   -1
100
AcDbPolyline
 90
   17
 70
    1
 43
0
 10
2.495377650274438
 20
-11.732501275597
 10
2.465585650274438
 20
-11.793304275597
 10
3.031618650274439
 20
-11.793304275597
 10
2.92734965027444
 20
-12.416308275597
 10
4.511245650274439
 20
-12.416308275597
 10
4.33746365027444
 20
-13.363485275597
 10
2.768463650274438
 20
-13.363485275597
 10
2.609576650274438
 20
-14.32584327559699
 10
1.25904465027444
 20
-14.32584327559699
 10
1.765494650274437
 20
-11.30198427559699
 10
1.859830650274439
 20
-11.048734275597
 10
2.018715650274437
 20
-10.886648275597
 10
2.202427650274441
 20
-10.800494275597
 10
2.371245650274439
 20
-10.77009327559701
 10
5.017692650274437
 20
-10.77009327559701
 10
4.858806650274438
 20
-11.717270275597
 10
2.55992165027444
 20
-11.717351275597
  0
LWPOLYLINE
  5
95
100
AcDbEntity
  8
0
  6
ByLayer
 62
  256
370
   -1
100
AcDbPolyline
 90
   30
 70
    1
 43
0
 10
5.116997650274438
 20
-13.62684527559701
 10
5.12692865027444
 20
-13.57109327559699
 10
5.504283650274438
 20
-11.301924275597
 10
5.598618650274439
 20
-11.04867427559699
 10
5.757504650274438
 20
-10.88658727559699
 10
5.941216650274438
 20
-10.800433275597
 10
6.110032650274437
 20
-10.770032275597
 10
9.272860650274438
 20
-10.770032275597
 10
9.113974650274439
 20
-11.717209275597
 10
6.29871065027444
 20
-11.717209275597
 10
6.234166650274439
 20
-11.732360275597
 10
6.204374650274438
 20
-11.793162275597
 10
6.775372650274438
 20
-11.793162275597
 10
6.507252650274438
 20
-13.378534275597
 10
7.48539465027444
 20
-13.378534275597
 10
7.56979965027444
 20
-12.96319827559699
 10
6.988872650274438
 20
-12.96319827559699
 10
7.157688650274437
 20
-12.016021275597
 10
9.074253650274439
 20
-12.016021275597
 10
8.766411650274438
 20
-13.793871275597
 10
8.672076650274438
 20
-14.047131275597
 10
8.513189650274438
 20
-14.209207275597
 10
8.329477650274438
 20
-14.300411275597
 10
8.160660650274441
 20
-14.325762275597
 10
5.73268165027444
 20
-14.325762275597
 10
5.55393565027444
 20
-14.295361275597
 10
5.35036165027444
 20
-14.188997275597
 10
5.186510650274439
 20
-13.99145927559699
 10
5.116996650274437
 20
-13.682487275597
 10
5.116997650274438
 20
-13.682598275597
  0
LWPOLYLINE
  5
96
100
AcDbEntity
  8
0
  6
ByLayer
 62
  256
370
   -1
100
AcDbPolyline
 90
    4
 70
    1
 43
0
 10
12.71871265027444
 20
-13.019072275597
 10
10.36521165027444
 20
-13.019072275597
 10
10.52409765027444
 20
-12.076965275597
 10
12.87759965027444
 20
-12.076965275597
  0
LWPOLYLINE
  5
97
100
AcDbEntity
  8
0
  6
ByLayer
 62
  256
370
   -1
100
AcDbPolyline
 90
   37
 70
    1
 43
0
 10
14.26786165027444
 20
-12.548023275597
 10
14.36219765027444
 20
-12.29476327559701
 10
14.52108465027444
 20
-12.13268727559699
 10
14.70479665027444
 20
-12.046533275597
 10
14.87361265027444
 20
-12.016132275597
 10
16.20428365027444
 20
-12.016132275597
 10
16.26386765027444
 20
-12.000982275597
 10
16.29365965027444
 20
-11.955430275597
 10
16.30358965027444
 20
-11.90987927559699
 10
16.31352065027444
 20
-11.85917627559699
 10
16.32345065027444
 20
-11.813625275597
 10
16.32345065027444
 20
-11.78322427559699
 10
16.31850065027444
 20
-11.76292227559701
 10
16.29863965027444
 20
-11.742621275597
 10
16.26388765027444
 20
-11.722320275597
 10
16.22913465027444
 20
-11.717270275597
 10
14.40690865027444
 20
-11.717270275597
 10
14.56083065027444
 20
-10.77009327559701
 10
17.10797365027444
 20
-10.77009327559701
 10
17.28672165027444
 20
-10.805544275597
 10
17.49029365027444
 20
-10.911908275597
 10
17.65911065027444
 20
-11.10944627559699
 10
17.72862465027444
 20
-11.413348275597
 10
17.72367365027444
 20
-11.469100275597
 10
17.71872365027444
 20
-11.524853275597
 10
17.56480265027444
 20
-12.43150927559699
 10
17.47046665027444
 20
-12.684759275597
 10
17.31158065027444
 20
-12.846845275597
 10
17.12786865027444
 20
-12.938049275597
 10
16.95905265027444
 20
-12.963400275597
 10
15.62838065027444
 20
-12.963400275597
 10
15.56383665027444
 20
-12.983701275597
 10
15.53900465027444
 20
-13.024203275597
 10
15.47942065027444
 20
-13.378757275597
 10
17.40591665027444
 20
-13.378757275597
 10
17.25199465027444
 20
-14.325924275597
 10
13.96995065027444
 20
-14.325863275597
  0
LWPOLYLINE
  5
98
100
AcDbEntity
  8
0
  6
ByLayer
 62
  256
370
   -1
100
AcDbPolyline
 90
   24
 70
    1
 43
0
 10
18.26484465027444
 20
-14.295462275597
 10
18.06127165027444
 20
-14.189098275597
 10
17.89741965027444
 20
-13.991560275597
 10
17.82790565027444
 20
-13.682588275597
 10
17.82790565027444
 20
-13.626835275597
 10
17.83783665027444
 20
-13.571083275597
 10
18.21519065027444
 20
-11.301914275597
 10
18.30952565027444
 20
-11.04866427559701
 10
18.46841265027444
 20
-10.88657727559701
 10
18.65212465027444
 20
-10.800423275597
 10
18.82094165027444
 20
-10.770022275597
 10
21.19430365027444
 20
-10.770022275597
 10
21.37305065027444
 20
-10.805473275597
 10
21.57662265027444
 20
-10.91183827559701
 10
21.74047365027444
 20
-11.109375275597
 10
21.80998865027444
 20
-11.413277275597
 10
21.80503765027444
 20
-11.46903027559699
 10
21.80008765027444
 20
-11.524782275597
 10
21.42273265027444
 20
-13.793942275597
 10
21.32342965027444
 20
-14.047202275597
 10
21.16454265027444
 20
-14.209278275597
 10
20.98083065027444
 20
-14.30048227559701
 10
20.81201465027444
 20
-14.32583327559701
 10
18.44359165027444
 20
-14.325863275597
  0
LWPOLYLINE
  5
99
100
AcDbEntity
  8
0
  6
ByLayer
 62
  256
370
   -1
100
AcDbPolyline
 90
    5
 70
    1
 43
0
 10
20.10196665027444
 20
-13.37869627559699
 10
20.16154965027444
 20
-13.363546275597
 10
20.19134165027444
 20
-13.317994275597
 10
20.40980965027444
 20
-12.284714275597
 10
19.40683865027444
 20
-13.37869627559699
  0
LWPOLYLINE
  5
9A
100
AcDbEntity
  8
0
  6
ByLayer
 62
  256
370
   -1
100
AcDbPolyline
 90
    5
 70
    1
 43
0
 10
19.53593365027444
 20
-11.717351275597
 10
19.47634965027444
 20
-11.737652275597
 10
19.44655865027444
 20
-11.77815327559701
 10
19.22808965027444
 20
-12.872216275597
 10
20.29064365027444
 20
-11.717351275597
  0
LWPOLYLINE
  5
9B
100
AcDbEntity
  8
0
  6
ByLayer
 62
  256
370
   -1
100
AcDbPolyline
 90
   37
 70
    1
 43
0
 10
22.20720965027444
 20
-12.548023275597
 10
22.30154565027444
 20
-12.29476327559701
 10
22.46043165027444
 20
-12.13268727559699
 10
22.64414365027444
 20
-12.046533275597
 10
22.81296065027444
 20
-12.016132275597
 10
24.14363265027444
 20
-12.016132275597
 10
24.20321565027444
 20
-12.000982275597
 10
24.23300765027444
 20
-11.955430275597
 10
24.24293865027444
 20
-11.90987927559699
 10
24.25286865027444
 20
-11.85917627559699
 10
24.26279965027444
 20
-11.813625275597
 10
24.26279965027444
 20
-11.78322427559699
 10
24.25784965027444
 20
-11.76292227559701
 10
24.23798765027444
 20
-11.742621275597
 10
24.20323565027444
 20
-11.722320275597
 10
24.16848365027444
 20
-11.717270275597
 10
22.34623465027444
 20
-11.717270275597
 10
22.50015665027444
 20
-10.77009327559701
 10
25.04730065027444
 20
-10.77009327559701
 10
25.22604765027444
 20
-10.805544275597
 10
25.42961965027444
 20
-10.911908275597
 10
25.59843565027444
 20
-11.10944627559699
 10
25.66795065027444
 20
-11.413348275597
 10
25.66299965027444
 20
-11.469100275597
 10
25.65804965027444
 20
-11.524853275597
 10
25.50412765027444
 20
-12.43150927559699
 10
25.40979265027444
 20
-12.684759275597
 10
25.25090565027444
 20
-12.846845275597
 10
25.06719365027444
 20
-12.938049275597
 10
24.89837665027444
 20
-12.963400275597
 10
23.56770465027444
 20
-12.963400275597
 10
23.50316065027444
 20
-12.983701275597
 10
23.47832965027444
 20
-13.024203275597
 10
23.41874565027444
 20
-13.378757275597
 10
25.34524065027444
 20
-13.378757275597
 10
25.19131865027444
 20
-14.325924275597
 10
21.90929865027444
 20
-14.325863275597
  0
LWPOLYLINE
  5
9C
100
AcDbEntity
  8
0
  6
ByLayer
 62
  256
370
   -1
100
AcDbPolyline
 90
   30
 70
    1
 43
0
 10
26.20419165027444
 20
-14.295462275597
 10
26.00061965027444
 20
-14.189098275597
 10
25.83676865027444
 20
-13.991560275597
 10
25.76725465027444
 20
-13.682588275597
 10
25.76725465027444
 20
-13.626835275597
 10
25.77718465027444
 20
-13.571083275597
 10
26.15453965027444
 20
-11.301914275597
 10
26.24887565027444
 20
-11.04866427559701
 10
26.40776265027444
 20
-10.88657727559701
 10
26.59147465027444
 20
-10.800423275597
 10
26.76029065027444
 20
-10.770022275597
 10
29.52590365027444
 20
-10.770022275597
 10
29.36701665027444
 20
-11.717199275597
 10
27.51996465027444
 20
-11.717199275597
 10
27.45542065027444
 20
-11.737501275597
 10
27.42562965027444
 20
-11.778002275597
 10
27.38590665027444
 20
-12.016061275597
 10
28.67685765027444
 20
-12.016061275597
 10
28.85560465027444
 20
-12.051513275597
 10
29.05917665027444
 20
-12.157877275597
 10
29.22302865027444
 20
-12.355415275597
 10
29.29254265027444
 20
-12.65932727559699
 10
29.29254265027444
 20
-12.720129275597
 10
29.28261265027444
 20
-12.770832275597
 10
29.11379565027444
 20
-13.793982275597
 10
29.01946065027444
 20
-14.047242275597
 10
28.86057465027444
 20
-14.209318275597
 10
28.67686265027444
 20
-14.300522275597
 10
28.50804565027444
 20
-14.325873275597
 10
26.38293865027444
 20
-14.325863275597
  0
LWPOLYLINE
  5
9D
100
AcDbEntity
  8
0
  6
ByLayer
 62
  256
370
   -1
100
AcDbPolyline
 90
   10
 70
    1
 43
0
 10
27.15750765027444
 20
-13.37869627559699
 10
27.75333165027444
 20
-13.37869627559699
 10
27.81291465027444
 20
-13.363546275597
 10
27.84270665027444
 20
-13.317994275597
 10
27.88738965027444
 20
-13.07487527559699
 10
27.89233965027444
 20
-13.02932427559701
 10
27.88738965027444
 20
-13.009022275597
 10
27.86752865027444
 20
-12.988721275597
 10
27.79801365027444
 20
-12.963370275597
 10
27.22702265027444
 20
-12.963360275597
  0
ENDBLK
  5
54
330
52
100
AcDbEntity
  8
0
100
AcDbBlockEnd
  0
BLOCK
  5
56
330
55
100
AcDbEntity
  8
0
100
AcDbBlockBegin
  2
chaveiro
 70
    0
 10
0
 20
0
  3
chaveiro
  1

  0
LWPOLYLINE
  5
9E
100
AcDbEntity
  8
0
  6
ByLayer
 62
  256
370
   -1
100
AcDbPolyline
 90
   21
 70
    1
 43
0
 10
2.533319000000006
 20
8.785717000000005
 10
3.263895999999988
 20
8.640395999999996
 10
3.883250000000004
 20
8.226557999999997
 10
4.297088000000002
 20
7.607203999999996
 10
4.442408999999998
 20
6.876626999999999
 10
4.442408999999998
 20
0.1948119999999989
 10
4.297088000000002
 20
-0.5357649999999978
 10
3.883250000000004
 20
-1.155118000000002
 10
3.263895999999988
 20
-1.568956999999997
 10
2.533319000000006
 20
-1.714277999999993
 10
-22.762123
 20
-1.714277999999993
 10
-23.4927
 20
-1.568956999999997
 10
-24.112054
 20
-1.155118000000002
 10
-24.525892
 20
-0.5357649999999978
 10
-24.67121299999999
 20
0.1948119999999989
 10
-24.67121299999999
 20
6.876626999999999
 10
-24.525892
 20
7.607203999999996
 10
-24.112054
 20
8.226557999999997
 10
-23.4927
 20
8.640395999999996
 10
-22.762123
 20
8.785717000000005
 10
-22.762123
 20
8.785717000000005
  0
LWPOLYLINE
  5
9F
100
AcDbEntity
  8
0
  6
ByLayer
 62
  256
370
   -1
100
AcDbPolyline
 90
   56
 70
    1
 43
0
 10
-21.305688
 20
0.1834819999999979
 10
-21.168291
 20
0.1632450000000034
 10
-20.93795900000001
 20
0.2238590000000045
 10
-20.772288
 20
0.3935769999999934
 10
-20.67125900000001
 20
0.6602769999999936
 10
-20.63890000000001
 20
0.9956659999999999
 10
-20.735882
 20
1.520989999999998
 10
-21.01470500000001
 20
1.929115999999993
 10
-21.447085
 20
2.191777999999999
 10
-22.016853
 20
2.288758999999999
 10
-22.65531900000001
 20
2.175617000000003
 10
-23.144266
 20
1.860426000000004
 10
-23.45137200000001
 20
1.371470000000002
 10
-23.56047599999999
 20
0.7410979999999938
 10
-23.459457
 20
0.1389999999999958
 10
-23.168511
 20
-0.3176260000000042
 10
-22.719971
 20
-0.6085709999999978
 10
-22.13808
 20
-0.7136279999999999
 10
-21.86734199999999
 20
-0.6933920000000029
 10
-21.669331
 20
-0.6530149999999963
 10
-21.616832
 20
-0.7782890000000009
 10
-21.73805900000001
 20
-0.9237619999999964
 10
-22.16235399999999
 20
-0.9762620000000055
 10
-22.865472
 20
-0.8550340000000034
 10
-23.40695700000001
 20
-0.5115509999999972
 10
-23.758515
 20
0.02588599999999985
 10
-23.879743
 20
0.7411270000000059
 10
-23.75043100000001
 20
1.484650999999999
 10
-23.37462600000001
 20
2.054418999999996
 10
-22.788698
 20
2.422148000000007
 10
-22.020929
 20
2.551450000000003
 10
-21.309726
 20
2.438308000000006
 10
-20.776326
 20
2.123116999999993
 10
-20.43689000000001
 20
1.630122999999998
 10
-20.3197
 20
0.9916659999999951
 10
-20.533872
 20
0.1794440000000037
 10
-20.79956199999999
 20
-0.03270799999999952
 10
-21.168291
 20
-0.1034259999999989
 10
-21.41883
 20
-0.06304799999999489
 10
-21.633002
 20
0.05414100000000133
 10
-21.835041
 20
-0.04687900000000411
 10
-22.11386299999999
 20
-0.08324700000000007
 10
-22.437139
 20
-0.03074700000000519
 10
-22.68363100000001
 20
0.1268490000000071
 10
-22.84122600000001
 20
0.3814260000000047
 10
-22.897831
 20
0.7249000000000052
 10
-22.833208
 20
1.112826999999996
 10
-22.643292
 20
1.403772000000004
 10
-22.35234699999999
 20
1.585612999999995
 10
-21.968457
 20
1.650236000000007
 10
-21.69367200000001
 20
1.617876999999993
 10
-21.467388
 20
1.537026999999995
 10
-21.301708
 20
1.339016000000001
 10
-21.305526
 20
1.278402
 10
-21.309344
 20
1.217788999999996
 10
-21.40670799999999
 20
0.235982000000007
  0
LWPOLYLINE
  5
A0
100
AcDbEntity
  8
0
  6
ByLayer
 62
  256
370
   -1
100
AcDbPolyline
 90
    9
 70
    1
 43
0
 10
-22.437139
 20
0.3208410000000015
 10
-22.069419
 20
0.1834530000000001
 10
-21.721898
 20
0.3046800000000047
 10
-21.620879
 20
1.306819000000004
 10
-21.778474
 20
1.359318999999999
 10
-21.988598
 20
1.383564000000007
 10
-22.408856
 20
1.209809000000007
 10
-22.566451
 20
0.7249000000000052
 10
-22.566451
 20
0.7249280000000056
  0
LWPOLYLINE
  5
A1
100
AcDbEntity
  8
0
  6
ByLayer
 62
  256
370
   -1
100
AcDbPolyline
 90
    8
 70
    1
 43
0
 10
-19.46303399999999
 20
-0.09130299999999636
 10
-19.551903
 20
-0.1034259999999989
 10
-19.725658
 20
0.04204699999999661
 10
-19.725658
 20
2.535290000000003
 10
-19.66504500000001
 20
2.551422000000002
 10
-19.576177
 20
2.563543999999993
 10
-19.402421
 20
2.418071999999995
 10
-19.402421
 20
-0.07517099999999743
  0
LWPOLYLINE
  5
A2
100
AcDbEntity
  8
0
  6
ByLayer
 62
  256
370
   -1
100
AcDbPolyline
 90
    9
 70
    1
 43
0
 10
-17.818382
 20
0.159236000000007
 10
-17.656749
 20
0.2279640000000001
 10
-17.656749
 20
0.8138919999999956
 10
-18.15781800000001
 20
0.7613920000000007
 10
-18.468971
 20
0.6644100000000037
 10
-18.569991
 20
0.4462010000000021
 10
-18.452811
 20
0.2077940000000069
 10
-18.097205
 20
0.1269439999999946
 10
-18.097205
 20
0.1268769999999932
  0
LWPOLYLINE
  5
A3
100
AcDbEntity
  8
0
  6
ByLayer
 62
  256
370
   -1
100
AcDbPolyline
 90
   24
 70
    1
 43
0
 10
-17.543378
 20
1.678585999999996
 10
-17.33729099999999
 20
1.181554000000006
 10
-17.33729099999999
 20
0.2238590000000045
 10
-17.373659
 20
0.08647100000000307
 10
-17.474688
 20
0.001611999999994396
 10
-17.73330300000001
 20
-0.09536900000000514
 10
-18.096985
 20
-0.1398509999999931
 10
-18.686961
 20
0.009658999999999196
 10
-18.893047
 20
0.4420300000000026
 10
-18.71928200000001
 20
0.8420799999999957
 10
-18.230335
 20
1.011807000000005
 10
-17.65652900000001
 20
1.068411999999995
 10
-17.65652900000001
 20
1.181563999999995
 10
-17.77775699999999
 20
1.476546999999997
 10
-18.10507
 20
1.569519
 10
-18.42429799999999
 20
1.521028000000001
 10
-18.69099799999999
 20
1.411923999999999
 10
-18.75161199999999
 20
1.476546999999997
 10
-18.775857
 20
1.557396999999995
 10
-18.747603
 20
1.650368999999998
 10
-18.65873499999999
 20
1.719097000000005
 10
-18.40819500000001
 20
1.803955999999999
 10
-18.10109
 20
1.836314999999999
 10
-18.101023
 20
1.836180999999996
  0
LWPOLYLINE
  5
A4
100
AcDbEntity
  8
0
  6
ByLayer
 62
  256
370
   -1
100
AcDbPolyline
 90
   20
 70
    1
 43
0
 10
-15.567374
 20
1.775566999999995
 10
-15.288551
 20
1.593727000000001
 10
-15.102673
 20
1.286610999999994
 10
-15.033946
 20
0.8501930000000044
 10
-15.102673
 20
0.4097380000000044
 10
-15.29663600000001
 20
0.1026319999999998
 10
-15.59161899999999
 20
-0.07920900000000586
 10
-15.97147099999999
 20
-0.1358129999999989
 10
-16.33110499999999
 20
-0.08732299999999782
 10
-16.58972
 20
0.01774399999999332
 10
-16.70690999999999
 20
0.1187639999999988
 10
-16.73926899999999
 20
0.2561510000000027
 10
-16.73926899999999
 20
2.535223000000002
 10
-16.67865500000001
 20
2.551355000000001
 10
-16.585683
 20
2.563478000000003
 10
-16.415964
 20
2.418004999999994
 10
-16.415964
 20
1.694678999999994
 10
-16.20583999999999
 20
1.791661000000005
 10
-15.914895
 20
1.836143000000007
 10
-15.914895
 20
1.836180999999996
  0
LWPOLYLINE
  5
A5
100
AcDbEntity
  8
0
  6
ByLayer
 62
  256
370
   -1
100
AcDbPolyline
 90
   14
 70
    1
 43
0
 10
-16.22200100000001
 20
1.516981000000001
 10
-16.415964
 20
1.399792000000005
 10
-16.415964
 20
0.2562180000000041
 10
-16.242209
 20
0.1713589999999954
 10
-15.97147099999999
 20
0.130982000000003
 10
-15.724969
 20
0.1713589999999954
 10
-15.531006
 20
0.3047090000000026
 10
-15.40574100000001
 20
0.5269559999999984
 10
-15.361259
 20
0.8502320000000054
 10
-15.40574100000001
 20
1.173507000000001
 10
-15.531006
 20
1.395753999999997
 10
-15.724969
 20
1.525065999999995
 10
-15.963386
 20
1.569547999999998
 10
-15.963386
 20
1.569480999999996
  0
LWPOLYLINE
  5
A6
100
AcDbEntity
  8
0
  6
ByLayer
 62
  256
370
   -1
100
AcDbPolyline
 90
   34
 70
    1
 43
0
 10
-12.274041
 20
1.476536999999993
 10
-12.57710899999999
 20
1.569509999999994
 10
-13.045857
 20
1.383630999999994
 10
-13.021612
 20
1.209874999999997
 10
-13.021612
 20
-0.0751329999999939
 10
-13.086235
 20
-0.09126500000000703
 10
-13.171094
 20
-0.1033879999999954
 10
-13.34484999999999
 20
0.04208500000000015
 10
-13.34484999999999
 20
1.185659000000001
 10
-13.458001
 20
1.476603999999995
 10
-13.765107
 20
1.569576999999995
 10
-14.011599
 20
1.529199000000006
 10
-14.205563
 20
1.436227000000002
 10
-14.205563
 20
-0.0750759999999957
 10
-14.266176
 20
-0.09120799999999463
 10
-14.355045
 20
-0.1033299999999997
 10
-14.5288
 20
0.04214199999999835
 10
-14.5288
 20
1.420095000000003
 10
-14.496441
 20
1.553444999999996
 10
-14.375214
 20
1.666587000000007
 10
-14.10043899999999
 20
1.783777000000001
 10
-13.761003
 20
1.836276999999995
 10
-13.40944399999999
 20
1.775662999999994
 10
-13.175065
 20
1.618067999999994
 10
-12.912412
 20
1.771625
 10
-12.552768
 20
1.836247999999998
 10
-12.031491
 20
1.678652
 10
-11.83752800000001
 20
1.201819
 10
-11.83752800000001
 20
-0.07510399999999606
 10
-11.90215000000001
 20
-0.09123599999999499
 10
-11.987009
 20
-0.1033589999999975
 10
-12.160775
 20
0.04211399999999799
 10
-12.160775
 20
1.185687000000001
 10
-12.160899
 20
1.185592
  0
LWPOLYLINE
  5
A7
100
AcDbEntity
  8
0
  6
ByLayer
 62
  256
370
   -1
100
AcDbPolyline
 90
    9
 70
    1
 43
0
 10
-10.28591499999999
 20
0.159236000000007
 10
-10.12428199999999
 20
0.2279640000000001
 10
-10.12428199999999
 20
0.8138919999999956
 10
-10.62535099999999
 20
0.7613920000000007
 10
-10.93650400000001
 20
0.6644100000000037
 10
-11.03752299999999
 20
0.4462010000000021
 10
-10.920334
 20
0.2077940000000069
 10
-10.56473700000001
 20
0.1269439999999946
 10
-10.56473700000001
 20
0.1268769999999932
  0
LWPOLYLINE
  5
A8
100
AcDbEntity
  8
0
  6
ByLayer
 62
  256
370
   -1
100
AcDbPolyline
 90
   24
 70
    1
 43
0
 10
-10.01091
 20
1.678585999999996
 10
-9.804823999999996
 20
1.181554000000006
 10
-9.804823999999996
 20
0.2238590000000045
 10
-9.841192000000007
 20
0.08647100000000307
 10
-9.942212000000012
 20
0.001611999999994396
 10
-10.200827
 20
-0.09536900000000514
 10
-10.56450799999999
 20
-0.1398509999999931
 10
-11.154484
 20
0.009658999999999196
 10
-11.36057
 20
0.4420389999999941
 10
-11.18680500000001
 20
0.8420890000000014
 10
-10.697858
 20
1.011807000000005
 10
-10.12405200000001
 20
1.068411999999995
 10
-10.12405200000001
 20
1.181554000000006
 10
-10.24528000000001
 20
1.476536999999993
 10
-10.57259300000001
 20
1.569509999999994
 10
-10.89182199999999
 20
1.521018999999995
 10
-11.15852099999999
 20
1.411913999999996
 10
-11.21913499999999
 20
1.476536999999993
 10
-11.243381
 20
1.557387000000006
 10
-11.215126
 20
1.650360000000006
 10
-11.12625800000001
 20
1.719087000000002
 10
-10.87572800000001
 20
1.803945999999996
 10
-10.568622
 20
1.836304999999996
 10
-10.568555
 20
1.836180999999996
  0
LWPOLYLINE
  5
A9
100
AcDbEntity
  8
0
  6
ByLayer
 62
  256
370
   -1
100
AcDbPolyline
 90
   22
 70
    1
 43
0
 10
-8.944100999999989
 20
-0.09130299999999636
 10
-9.032969000000008
 20
-0.1034259999999989
 10
-9.206725000000006
 20
0.04204699999999661
 10
-9.206725000000006
 20
2.535290000000003
 10
-9.146111999999988
 20
2.551422000000002
 10
-9.053138999999987
 20
2.563543999999993
 10
-8.883420999999998
 20
2.418071999999995
 10
-8.883420999999998
 20
0.9633450000000039
 10
-7.998461999999989
 20
1.820010999999994
 10
-7.848951999999997
 20
1.771519999999995
 10
-7.792347000000007
 20
1.662415999999993
 10
-7.828714999999988
 20
1.561396000000002
 10
-7.925697000000014
 20
1.464414000000005
 10
-8.57628600000001
 20
0.8946470000000062
 10
-7.675166999999988
 20
0.08647100000000307
 10
-7.731772000000007
 20
-0.05496399999999824
 10
-7.852999000000011
 20
-0.1074629999999956
 10
-7.966150999999996
 20
-0.07920900000000586
 10
-8.067170000000004
 20
0.009658999999999196
 10
-8.883430000000004
 20
0.8299669999999963
 10
-8.883430000000004
 20
-0.07519999999999527
 10
-8.883488
 20
-0.07517099999999743
  0
LWPOLYLINE
  5
AA
100
AcDbEntity
  8
0
  6
ByLayer
 62
  256
370
   -1
100
AcDbPolyline
 90
   24
 70
    1
 43
0
 10
-6.828692999999987
 20
0.2632559999999984
 10
-6.361971000000011
 20
0.1309150000000017
 10
-6.054865000000007
 20
0.1875200000000063
 10
-5.836656000000005
 20
0.3087469999999968
 10
-5.739675000000005
 20
0.1551989999999961
 10
-5.792174999999986
 20
0.04609399999999653
 10
-5.929562000000004
 20
-0.04687900000000411
 10
-6.131610999999992
 20
-0.1115010000000041
 10
-6.37810300000001
 20
-0.135746999999995
 10
-6.798358000000007
 20
-0.072102000000001
 10
-7.121626999999989
 20
0.1188310000000001
 10
-7.324687000000011
 20
0.4320000000000022
 10
-7.39237399999999
 20
0.8623539999999963
 10
-7.327751000000006
 20
1.270488999999998
 10
-7.141873000000004
 20
1.577595000000002
 10
-6.854964999999993
 20
1.767510999999999
 10
-6.495330999999993
 20
1.836237999999994
 10
-6.159931999999998
 20
1.775625000000005
 10
-5.897278999999997
 20
1.601868999999994
 10
-5.723513999999994
 20
1.339207000000002
 10
-5.658891000000011
 20
1.007856000000004
 10
-5.699268999999987
 20
0.8785529999999966
 10
-5.812420000000003
 20
0.8340709999999945
 10
-7.057004000000006
 20
0.6602769999999936
  0
LWPOLYLINE
  5
AB
100
AcDbEntity
  8
0
  6
ByLayer
 62
  256
370
   -1
100
AcDbPolyline
 90
    6
 70
    1
 43
0
 10
-6.907494000000014
 20
1.399762999999993
 10
-7.077212000000003
 20
0.910815999999997
 10
-5.965958999999998
 20
1.064364999999995
 10
-6.123554000000013
 20
1.428045999999995
 10
-6.499358999999998
 20
1.573519000000005
 10
-6.499358999999998
 20
1.573519000000005
  0
LWPOLYLINE
  5
AC
100
AcDbEntity
  8
0
  6
ByLayer
 62
  256
370
   -1
100
AcDbPolyline
 90
   16
 70
    1
 43
0
 10
-4.927451999999988
 20
-0.09130299999999636
 10
-5.016320000000007
 20
-0.1034259999999989
 10
-5.190086000000008
 20
0.04204699999999661
 10
-5.190086000000008
 20
1.411913999999996
 10
-5.157726999999994
 20
1.557387000000006
 10
-5.040537
 20
1.666492000000005
 10
-4.757677000000001
 20
1.783681000000001
 10
-4.349542000000014
 20
1.836180999999996
 10
-4.026275999999996
 20
1.674548000000001
 10
-4.038398999999998
 20
1.597802999999999
 10
-4.070758000000012
 20
1.541197999999994
 10
-4.175824000000006
 20
1.557329999999993
 10
-4.305137000000002
 20
1.564965999999998
 10
-4.632450000000006
 20
1.524589000000006
 10
-4.866818999999992
 20
1.435721000000001
 10
-4.866838999999999
 20
-0.07517099999999743
  0
LWPOLYLINE
  5
AD
100
AcDbEntity
  8
0
  6
ByLayer
 62
  256
370
   -1
100
AcDbPolyline
 90
    9
 70
    1
 43
0
 10
-4.03034199999999
 20
0.2481049999999954
 10
-3.86466200000001
 20
0.3127269999999953
 10
-3.703028999999987
 20
0.2481049999999954
 10
-3.646423999999996
 20
0.08647100000000307
 10
-3.703028999999987
 20
-0.07112399999999752
 10
-3.86466200000001
 20
-0.135746999999995
 10
-4.03034199999999
 20
-0.07112399999999752
 10
-4.086947000000009
 20
0.08647100000000307
 10
-4.086947000000009
 20
0.08647100000000307
  0
LWPOLYLINE
  5
AE
100
AcDbEntity
  8
0
  6
ByLayer
 62
  256
370
   -1
100
AcDbPolyline
 90
   16
 70
    1
 43
0
 10
-3.428271999999993
 20
-0.604495
 10
-3.331290999999993
 20
-0.5196360000000055
 10
-3.270677000000006
 20
-0.3943710000000067
 10
-3.246431999999999
 20
-0.2044450000000069
 10
-3.246431999999999
 20
1.775595999999993
 10
-3.185818000000012
 20
1.791728000000006
 10
-3.092845000000011
 20
1.803850999999995
 10
-2.923126999999994
 20
1.654340000000005
 10
-2.923126999999994
 20
-0.2650869999999941
 10
-2.971618000000007
 20
-0.5560329999999993
 10
-3.092845000000011
 20
-0.7419210000000049
 10
-3.238317999999992
 20
-0.8429399999999987
 10
-3.371668
 20
-0.8711950000000002
 10
-3.513103000000001
 20
-0.8105809999999991
 10
-3.557584999999989
 20
-0.6731939999999952
 10
-3.557584999999989
 20
-0.6732219999999955
  0
LWPOLYLINE
  5
AF
100
AcDbEntity
  8
0
  6
ByLayer
 62
  256
370
   -1
100
AcDbPolyline
 90
    9
 70
    1
 43
0
 10
-3.238317999999992
 20
2.515052999999995
 10
-3.084769999999992
 20
2.575666999999996
 10
-2.935249999999996
 20
2.515052999999995
 10
-2.878645000000006
 20
2.373619000000005
 10
-2.935249999999996
 20
2.228145999999995
 10
-3.084769999999992
 20
2.171541000000005
 10
-3.238317999999992
 20
2.228145999999995
 10
-3.294923000000011
 20
2.373619000000005
 10
-3.294923000000011
 20
2.373619000000005
  0
LWPOLYLINE
  5
B0
100
AcDbEntity
  8
0
  6
ByLayer
 62
  256
370
   -1
100
AcDbPolyline
 90
    9
 70
    1
 43
0
 10
-1.351248999999996
 20
0.159236000000007
 10
-1.189606999999995
 20
0.2279640000000001
 10
-1.189606999999995
 20
0.8138919999999956
 10
-1.690685999999999
 20
0.7613920000000007
 10
-2.001828999999987
 20
0.6644100000000037
 10
-2.102857999999998
 20
0.4462010000000021
 10
-1.985669000000001
 20
0.2077940000000069
 10
-1.630072000000013
 20
0.1269439999999946
 10
-1.630072000000013
 20
0.1268769999999932
  0
LWPOLYLINE
  5
B1
100
AcDbEntity
  8
0
  6
ByLayer
 62
  256
370
   -1
100
AcDbPolyline
 90
   24
 70
    1
 43
0
 10
-1.076245
 20
1.678585999999996
 10
-0.870159000000001
 20
1.181554000000006
 10
-0.870159000000001
 20
0.2238590000000045
 10
-0.9065270000000112
 20
0.08647100000000307
 10
-1.007545999999991
 20
0.001611999999994396
 10
-1.266171000000014
 20
-0.09536900000000514
 10
-1.629852
 20
-0.1398509999999931
 10
-2.219818000000004
 20
0.009658999999999196
 10
-2.425905
 20
0.4420389999999941
 10
-2.252149000000003
 20
0.8420890000000014
 10
-1.763202000000007
 20
1.011807000000005
 10
-1.189387000000011
 20
1.068411999999995
 10
-1.189387000000011
 20
1.181554000000006
 10
-1.310613999999987
 20
1.476536999999993
 10
-1.637927999999988
 20
1.569509999999994
 10
-1.957166000000001
 20
1.521018999999995
 10
-2.223865999999987
 20
1.411913999999996
 10
-2.284479000000005
 20
1.476536999999993
 10
-2.30872500000001
 20
1.557387000000006
 10
-2.280470000000008
 20
1.650360000000006
 10
-2.191601999999989
 20
1.719087000000002
 10
-1.941063000000014
 20
1.803945999999996
 10
-1.633957000000009
 20
1.836304999999996
 10
-1.633890000000008
 20
1.836180999999996
  0
LWPOLYLINE
  5
B2
100
AcDbEntity
  8
0
  6
ByLayer
 62
  256
370
   -1
100
AcDbPolyline
 90
   22
 70
    1
 43
0
 10
-0.1023889999999881
 20
-0.01050999999999647
 10
-0.2761450000000139
 20
0.405699999999996
 10
-0.2761450000000139
 20
2.325128000000007
 10
-0.2155319999999961
 20
2.341258999999994
 10
-0.1225589999999954
 20
2.353381999999996
 10
0.04715899999999351
 20
2.207909999999998
 10
0.04715899999999351
 20
1.743207999999996
 10
0.7098609999999894
 20
1.743207999999996
 10
0.7341069999999945
 20
1.686604000000003
 10
0.7462299999999971
 20
1.613867999999997
 10
0.625001999999995
 20
1.476470000000006
 10
0.04696799999999257
 20
1.476470000000006
 10
0.04696799999999257
 20
0.4258410000000055
 10
0.1358360000000118
 20
0.1955090000000013
 10
0.3944510000000037
 20
0.1308860000000038
 10
0.5480090000000075
 20
0.1551319999999947
 10
0.6894440000000088
 20
0.2117360000000019
 10
0.7339259999999967
 20
0.1511229999999983
 10
0.754162000000008
 20
0.06626400000000388
 10
0.6490949999999884
 20
-0.07920900000000586
 10
0.3581499999999949
 20
-0.1358129999999989
 10
0.3582739999999944
 20
-0.1357849999999985
  0
LWPOLYLINE
  5
B3
100
AcDbEntity
  8
0
  6
ByLayer
 62
  256
370
   -1
100
AcDbPolyline
 90
    9
 70
    1
 43
0
 10
2.192851999999988
 20
0.159236000000007
 10
2.354485000000011
 20
0.2279640000000001
 10
2.354485000000011
 20
0.8138919999999956
 10
1.85341600000001
 20
0.7613920000000007
 10
1.542262999999991
 20
0.6644100000000037
 10
1.441242999999986
 20
0.4462010000000021
 10
1.558423000000005
 20
0.2077940000000069
 10
1.914029999999997
 20
0.1269439999999946
 10
1.914029999999997
 20
0.1268769999999932
  0
LWPOLYLINE
  5
B4
100
AcDbEntity
  8
0
  6
ByLayer
 62
  256
370
   -1
100
AcDbPolyline
 90
   24
 70
    1
 43
0
 10
2.467857000000009
 20
1.678585999999996
 10
2.673943000000008
 20
1.181554000000006
 10
2.673943000000008
 20
0.2238590000000045
 10
2.637574999999998
 20
0.08647100000000307
 10
2.536554999999993
 20
0.001611999999994396
 10
2.277940000000001
 20
-0.09536900000000514
 10
1.914258999999987
 20
-0.1398509999999931
 10
1.324283000000008
 20
0.009658999999999196
 10
1.118197000000009
 20
0.4420389999999941
 10
1.291953000000007
 20
0.8420890000000014
 10
1.780909000000008
 20
1.011807000000005
 10
2.354714000000001
 20
1.068411999999995
 10
2.354714000000001
 20
1.181554000000006
 10
2.233486999999997
 20
1.476536999999993
 10
1.906173999999993
 20
1.569509999999994
 10
1.586944999999986
 20
1.521018999999995
 10
1.320245
 20
1.411913999999996
 10
1.259632000000011
 20
1.476536999999993
 10
1.235386000000005
 20
1.557387000000006
 10
1.263641000000007
 20
1.650360000000006
 10
1.352508999999998
 20
1.719087000000002
 10
1.603048000000001
 20
1.803945999999996
 10
1.910154000000006
 20
1.836304999999996
 10
1.910211000000004
 20
1.836180999999996
  0
LWPOLYLINE
  5
B5
100
AcDbEntity
  8
0
  6
ByLayer
 62
  256
370
   -1
100
AcDbPolyline
 90
    8
 70
    1
 43
0
 10
3.546778999999987
 20
-0.09130299999999636
 10
3.457910999999996
 20
-0.1034259999999989
 10
3.284154999999998
 20
0.04204699999999661
 10
3.284154999999998
 20
1.775595999999993
 10
3.344767999999988
 20
1.791728000000006
 10
3.437740999999988
 20
1.803850999999995
 10
3.607459000000006
 20
1.654340000000005
 10
3.607392000000004
 20
-0.07517099999999743
  0
LWPOLYLINE
  5
B6
100
AcDbEntity
  8
0
  6
ByLayer
 62
  256
370
   -1
100
AcDbPolyline
 90
    9
 70
    1
 43
0
 10
3.292239999999993
 20
2.515052999999995
 10
3.445796999999999
 20
2.575666999999996
 10
3.595307999999989
 20
2.515052999999995
 10
3.65191200000001
 20
2.373619000000005
 10
3.595307999999989
 20
2.228145999999995
 10
3.445796999999999
 20
2.171541000000005
 10
3.292239999999993
 20
2.228145999999995
 10
3.235635000000002
 20
2.373619000000005
 10
3.235635000000002
 20
2.373619000000005
  0
LWPOLYLINE
  5
B7
100
AcDbEntity
  8
0
  6
ByLayer
 62
  256
370
   -1
100
AcDbPolyline
 90
   21
 70
    1
 43
0
 10
-22.319534
 20
7.907759999999996
 10
-22.82038
 20
7.669843999999998
 10
-23.23184999999999
 20
7.298169999999999
 10
-23.523515
 20
6.813070999999994
 10
-23.66029399999999
 20
6.263816000000006
 10
-23.632153
 20
5.710048999999998
 10
-23.446234
 20
5.187665999999993
 10
-23.10967599999999
 20
4.732562999999999
 10
-22.654574
 20
4.396005000000002
 10
-22.13219100000001
 20
4.210086000000004
 10
-21.578424
 20
4.181945999999996
 10
-21.029169
 20
4.318724000000003
 10
-20.54407
 20
4.610388999999998
 10
-20.17239600000001
 20
5.021860000000004
 10
-19.93447999999999
 20
5.522705000000002
 10
-19.850656
 20
6.082493999999997
 10
-19.995977
 20
6.813070999999994
 10
-20.40981600000001
 20
7.432423999999997
 10
-21.029169
 20
7.846262999999993
 10
-21.75974600000001
 20
7.991584000000003
 10
-21.75974600000001
 20
7.991584000000003
  0
ENDBLK
  5
57
330
55
100
AcDbEntity
  8
0
100
AcDbBlockEnd
  0
ENDSEC
  0
SECTION
  2
ENTITIES
  0
INSERT
  5
B8
100
AcDbEntity
  8
0
  6
ByLayer
 62
  256
370
   -1
100
AcDbBlockReference
  2
texto
 10
60.70065428133228
 20
78.84951361373216
 30
0
 41
0.928571429
 42
0.928571429
 43
0
 50
0
 70
    1
 71
    1
 44
0.928571429
 45
0.928571429
  0
LWPOLYLINE
  5
B9
100
AcDbEntity
  8
Gravação
  6
CONTINUOUS
 62
    1
370
   -1
100
AcDbPolyline
 90
    4
 70
    1
 43
0
 10
83.29672468130178
 20
127.8945200590283
 10
83.29672468130178
 20
126.9659486300283
 10
55.98898688298392
 20
126.9659486300283
 10
55.98898688298392
 20
127.8945200590283
  0
LWPOLYLINE
  5
BA
100
AcDbEntity
  8
0
  6
ByLayer
 62
  256
370
   -1
100
AcDbPolyline
 90
   56
 70
    1
 43
0
 10
59.2169564844557
 20
115.6767829258744
 10
59.34871248998913
 20
115.6576337875597
 10
59.56958794044674
 20
115.7149894168431
 10
59.72845712385488
 20
115.8755840433438
 10
59.82533826014632
 20
116.1279472982003
 10
59.85636872357024
 20
116.4453071020365
 10
59.76336843296243
 20
116.9423917458095
 10
59.4959928372009
 20
117.3285784940344
 10
59.08136470359871
 20
117.5771208159209
 10
58.53498919495757
 20
117.6688884980328
 10
57.92273616302161
 20
117.5618285678455
 10
57.4538634537372
 20
117.263580998811
 10
57.15936604960648
 20
116.8009093541104
 10
57.05474144188057
 20
116.2044236784807
 10
57.15161298873371
 20
115.6346921035927
 10
57.43061386055716
 20
115.2026125249946
 10
57.86073852646662
 20
114.927307586171
 10
58.41873931116971
 20
114.827898038119
 10
58.67836184605846
 20
114.8470462301898
 10
58.8682432729577
 20
114.8852527211585
 10
58.91858686513585
 20
114.7667129596703
 10
58.80233698134798
 20
114.6290600171365
 10
58.39546190861858
 20
114.5793822110624
 10
57.72121124012762
 20
114.6940934696292
 10
57.20195753985566
 20
115.019112171796
 10
56.86483316455404
 20
115.5276586682352
 10
56.74858232182234
 20
116.2044511195545
 10
56.87258526648297
 20
116.9080061878109
 10
57.2329611528523
 20
117.4471456965964
 10
57.79483319380072
 20
117.7951070289742
 10
58.53108053990284
 20
117.9174582609932
 10
59.21308426926656
 20
117.8103983308057
 10
59.72458490866572
 20
117.5121507617713
 10
60.05008496684925
 20
117.0456581841007
 10
60.16246359439181
 20
116.4415221263356
 10
59.95708467624145
 20
115.6729619929044
 10
59.70230288981107
 20
115.4722144516808
 10
59.34871248998913
 20
115.405297973777
 10
59.10845966154062
 20
115.4435054109896
 10
58.90308074339028
 20
115.5543947903424
 10
58.70933669074017
 20
115.4588052290165
 10
58.44196205392248
 20
115.424392229944
 10
58.13195852804621
 20
115.4740700360181
 10
57.89558654528133
 20
115.6231942936574
 10
57.74446179225149
 20
115.8640862334085
 10
57.69018077670371
 20
116.18909641938
 10
57.75215060388761
 20
116.5561699865594
 10
57.93426938047579
 20
116.8314749253829
 10
58.21326929335542
 20
117.003540866989
 10
58.58139824059754
 20
117.0646899881687
 10
58.8449016211699
 20
117.0340704809924
 10
59.06189526700006
 20
116.9575666596383
 10
59.22077308090267
 20
116.7701999537613
 10
59.21711183335631
 20
116.7128443244779
 10
59.21345058580997
 20
116.6554896414385
 10
59.12008397865875
 20
115.7264607319486
  0
LWPOLYLINE
  5
BB
100
AcDbEntity
  8
0
  6
ByLayer
 62
  256
370
   -1
100
AcDbPolyline
 90
    9
 70
    1
 43
0
 10
58.13195852804621
 20
115.8067580451989
 10
58.48458135354276
 20
115.6767554848006
 10
58.81783447259907
 20
115.7914657971235
 10
58.91470601945223
 20
116.7397337381009
 10
58.76358126642238
 20
116.789411544175
 10
58.56208415289949
 20
116.812353228142
 10
58.15908033641539
 20
116.6479386149151
 10
58.00795558338556
 20
116.18909641938
 10
58.00795558338556
 20
116.1891229142099
  0
LWPOLYLINE
  5
BC
100
AcDbEntity
  8
0
  6
ByLayer
 62
  256
370
   -1
100
AcDbPolyline
 90
    8
 70
    1
 43
0
 10
60.98395817022895
 20
115.4167692888825
 10
60.89873779092117
 20
115.405297973777
 10
60.7321165055841
 20
115.5429509163108
 10
60.7321165055841
 20
117.9021669591616
 10
60.79024096800609
 20
117.9174317661632
 10
60.87546038837004
 20
117.9289021350248
 10
61.04208263265096
 20
117.791250138735
 10
61.04208263265096
 20
115.4320340958841
  0
LWPOLYLINE
  5
BD
100
AcDbEntity
  8
0
  6
ByLayer
 62
  256
370
   -1
100
AcDbPolyline
 90
    9
 70
    1
 43
0
 10
62.56108705959739
 20
115.6538402956635
 10
62.71608402781637
 20
115.7188737481561
 10
62.71608402781637
 20
116.2733045587733
 10
62.23558700141385
 20
116.2236267526991
 10
61.93720875159951
 20
116.1318581243433
 10
61.84033624580255
 20
115.9253791836647
 10
61.95270528390677
 20
115.6997880081844
 10
62.29371146383587
 20
115.6232841868303
 10
62.29371146383587
 20
115.6232207884873
  0
LWPOLYLINE
  5
BE
100
AcDbEntity
  8
0
  6
ByLayer
 62
  256
370
   -1
100
AcDbPolyline
 90
   24
 70
    1
 43
0
 10
62.82480044886873
 20
117.0915160034486
 10
63.02242630614631
 20
116.6212024928081
 10
63.02242630614631
 20
115.7149894168431
 10
62.98755143690433
 20
115.5849868564448
 10
62.89067030061288
 20
115.5046895431943
 10
62.64267304178606
 20
115.4129218610825
 10
62.29392243147867
 20
115.3708310388008
 10
61.7281685859028
 20
115.5123039680607
 10
61.53054368756906
 20
115.9214324002525
 10
61.69717456234446
 20
116.2999772825374
 10
62.16604727162887
 20
116.4605804252335
 10
62.71629499545916
 20
116.5141425626206
 10
62.71629499545916
 20
116.6212119552473
 10
62.6000441527275
 20
116.9003378270409
 10
62.28616937060588
 20
116.9883120172566
 10
61.98004764935708
 20
116.9424277030787
 10
61.72429732965749
 20
116.8391887058613
 10
61.66617190829163
 20
116.9003378270409
 10
61.6429223151116
 20
116.976841648395
 10
61.67001631410969
 20
117.0648158386107
 10
61.75523573447364
 20
117.1298492911034
 10
61.99548952186595
 20
117.2101466043537
 10
62.28998596705284
 20
117.2407661115299
 10
62.29005021628952
 20
117.240639314844
  0
LWPOLYLINE
  5
BF
100
AcDbEntity
  8
0
  6
ByLayer
 62
  256
370
   -1
100
AcDbPolyline
 90
   20
 70
    1
 43
0
 10
64.71967729449176
 20
117.1832836855606
 10
64.98705289025327
 20
117.0112186901983
 10
65.1652994516523
 20
116.7206120408601
 10
65.23120478431819
 20
116.3076541595028
 10
65.1652994516523
 20
115.8908762914193
 10
64.97929982938048
 20
115.6002791045202
 10
64.69642770131172
 20
115.4282131629141
 10
64.33217096925875
 20
115.3746519717708
 10
63.98730216357881
 20
115.4205353397048
 10
63.739304904752
 20
115.5199543501961
 10
63.62692627720947
 20
115.6155439115219
 10
63.59589581378555
 20
115.7455455256763
 10
63.59589581378555
 20
117.9021035608186
 10
63.65402123515138
 20
117.9173683678203
 10
63.74317616099732
 20
117.9288396829258
 10
63.90592714903292
 20
117.791186740392
 10
63.90592714903292
 20
117.1067439069373
 10
64.10742426255581
 20
117.1985125352931
 10
64.38642417543544
 20
117.2406033575749
 10
64.38642417543544
 20
117.240639314844
  0
LWPOLYLINE
  5
C0
100
AcDbEntity
  8
0
  6
ByLayer
 62
  256
370
   -1
100
AcDbPolyline
 90
   14
 70
    1
 43
0
 10
64.09192677130471
 20
116.9385982539133
 10
63.90592714903292
 20
116.8277088745605
 10
63.90592714903292
 20
115.7456089240194
 10
64.07254843437001
 20
115.6653116107689
 10
64.33217096925875
 20
115.6271051198003
 10
64.56855254146193
 20
115.6653116107689
 10
64.75455216373373
 20
115.7914932381972
 10
64.87467426271073
 20
116.0017931118459
 10
64.91733000219659
 20
116.3076910630158
 10
64.87467426271073
 20
116.6135880679418
 10
64.75455216373373
 20
116.8238879415905
 10
64.56855254146193
 20
116.9462486360487
 10
64.33992403013151
 20
116.9883394583304
 10
64.33992403013151
 20
116.9882760599874
  0
LWPOLYLINE
  5
C1
100
AcDbEntity
  8
0
  6
ByLayer
 62
  256
370
   -1
100
AcDbPolyline
 90
   34
 70
    1
 43
0
 10
67.87779865792332
 20
116.9003283646016
 10
67.58717346898176
 20
116.9883035010612
 10
67.13767046613759
 20
116.812416626485
 10
67.16092005931762
 20
116.6480010670142
 10
67.16092005931762
 20
115.4320700531533
 10
67.09895023213372
 20
115.4168052461516
 10
67.01757521758783
 20
115.4053339310461
 10
66.85095297330692
 20
115.5429868735798
 10
66.85095297330692
 20
116.6250868241211
 10
66.74244751989735
 20
116.9003917629447
 10
66.44795011576664
 20
116.9883668994042
 10
66.21157813300178
 20
116.9501594621916
 10
66.02557755178616
 20
116.8621852719759
 10
66.02557755178616
 20
115.432123989057
 10
65.96745308936414
 20
115.4168591820554
 10
65.88223271005634
 20
115.4053888131938
 10
65.71561142471927
 20
115.5430408094836
 10
65.71561142471927
 20
116.8469204649743
 10
65.74664188814319
 20
116.9731020924026
 10
65.86289177193105
 20
117.08016202259
 10
66.12638556306511
 20
117.1910523481867
 10
66.45188562124864
 20
117.2407301542608
 10
66.78901095549412
 20
117.1833745249774
 10
67.01376725163536
 20
117.0342512135821
 10
67.26563672565131
 20
117.1795535920073
 10
67.61051512076956
 20
117.240702713187
 10
68.1103904841068
 20
117.0915784555478
 10
68.2963901063786
 20
116.6403781259527
 10
68.2963901063786
 20
115.4320974942271
 10
68.23442123813852
 20
115.4168326872254
 10
68.15304622359264
 20
115.40536137212
 10
67.98641438987343
 20
115.5430143146537
 10
67.98641438987343
 20
116.625113318951
 10
67.98629548083839
 20
116.6250234257781
  0
LWPOLYLINE
  5
C2
100
AcDbEntity
  8
0
  6
ByLayer
 62
  256
370
   -1
100
AcDbPolyline
 90
    9
 70
    1
 43
0
 10
69.78429982066446
 20
115.6538402956635
 10
69.93929678888345
 20
115.7188737481561
 10
69.93929678888345
 20
116.2733045587733
 10
69.45879976248094
 20
116.2236267526991
 10
69.16042151266656
 20
116.1318581243433
 10
69.06354996581344
 20
115.9253791836647
 10
69.17592763441215
 20
115.6997880081844
 10
69.51692518384675
 20
115.6232841868303
 10
69.51692518384675
 20
115.6232207884873
  0
LWPOLYLINE
  5
C3
100
AcDbEntity
  8
0
  6
ByLayer
 62
  256
370
   -1
100
AcDbPolyline
 90
   24
 70
    1
 43
0
 10
70.04801416887962
 20
117.0915160034486
 10
70.24563906721336
 20
116.6212024928081
 10
70.24563906721336
 20
115.7149894168431
 10
70.21076419797139
 20
115.5849868564448
 10
70.11389169217441
 20
115.5046895431943
 10
69.86589443334761
 20
115.4129218610825
 10
69.51714478198404
 20
115.3708310388008
 10
68.95139093640817
 20
115.5123039680607
 10
68.75376603807443
 20
115.9214409164479
 10
68.92039691284981
 20
116.2999857987327
 10
69.38926962213424
 20
116.4605804252335
 10
69.93951734596453
 20
116.5141425626206
 10
69.93951734596453
 20
116.6212024928081
 10
69.82326650323284
 20
116.9003283646016
 10
69.50939172111126
 20
116.9883035010612
 10
69.2032690409186
 20
116.9424191868833
 10
68.94751968016287
 20
116.8391792434221
 10
68.88939425879701
 20
116.9003283646016
 10
68.86614370667313
 20
116.9768321859558
 10
68.89323866461507
 20
117.0648073224154
 10
68.978458084979
 20
117.1298398286641
 10
69.21870228293301
 20
117.2101371419145
 10
69.51319968706375
 20
117.2407566490907
 10
69.5132639363004
 20
117.240639314844
  0
LWPOLYLINE
  5
C4
100
AcDbEntity
  8
0
  6
ByLayer
 62
  256
370
   -1
100
AcDbPolyline
 90
   22
 70
    1
 43
0
 10
71.07102407817246
 20
115.4167692888825
 10
70.98580465780849
 20
115.405297973777
 10
70.81918241352759
 20
115.5429509163108
 10
70.81918241352759
 20
117.9021669591616
 10
70.8773068759496
 20
117.9174317661632
 10
70.96646276073938
 20
117.9289021350248
 10
71.12921278983112
 20
117.791250138735
 10
71.12921278983112
 20
116.4147235521294
 10
71.97783876347577
 20
117.2253385505732
 10
72.12121045563282
 20
117.1794542363952
 10
72.17549147118061
 20
117.0762152391778
 10
72.14061660193863
 20
116.980625677852
 10
72.0476163113308
 20
116.8888570494962
 10
71.42373800333293
 20
116.3497184869545
 10
72.28786050928485
 20
115.5849868564448
 10
72.23357949373704
 20
115.451154846881
 10
72.11732960994918
 20
115.4014779870509
 10
72.0088231975958
 20
115.4282131629141
 10
71.91195165074265
 20
115.5123039680607
 10
71.12920415933664
 20
116.2885154298712
 10
71.12920415933664
 20
115.4320066548103
 10
71.12914854059446
 20
115.4320340958841
  0
LWPOLYLINE
  5
C5
100
AcDbEntity
  8
0
  6
ByLayer
 62
  256
370
   -1
100
AcDbPolyline
 90
   24
 70
    1
 43
0
 10
73.09958152959753
 20
115.752268588765
 10
73.54714171224028
 20
115.6270417214573
 10
73.84163911637098
 20
115.6806038588445
 10
74.05088929076666
 20
115.7953141711673
 10
74.14388862243065
 20
115.6500203089374
 10
74.0935440713087
 20
115.5467803654761
 10
73.96179765521357
 20
115.4588052290165
 10
73.76804401312516
 20
115.3976570540808
 10
73.53167203036028
 20
115.3747144238699
 10
73.12867109070767
 20
115.4349381184906
 10
72.81867427743823
 20
115.615607309865
 10
72.62395114313676
 20
115.9119415736826
 10
72.55904311205502
 20
116.3191614318773
 10
72.6210129392389
 20
116.7053566962976
 10
72.79925950063793
 20
116.9959538831967
 10
73.07438815727224
 20
117.175660744499
 10
73.41925696295219
 20
117.2406932507477
 10
73.74088576489039
 20
117.1833385677082
 10
73.99275523890637
 20
117.0189230082375
 10
74.15938611368175
 20
116.7703806863509
 10
74.22135594086565
 20
116.456841815485
 10
74.18263570686179
 20
116.334489637222
 10
74.07413025345222
 20
116.2923988149403
 10
72.88064410462211
 20
116.1279472982003
  0
LWPOLYLINE
  5
C6
100
AcDbEntity
  8
0
  6
ByLayer
 62
  256
370
   -1
100
AcDbPolyline
 90
    6
 70
    1
 43
0
 10
73.02401579677915
 20
116.8276814334867
 10
72.86126576768741
 20
116.3650183049814
 10
73.92689497660052
 20
116.5103131134552
 10
73.77577022357067
 20
116.8544440504237
 10
73.41539433720133
 20
116.9920969929574
 10
73.41539433720133
 20
116.9920969929574
  0
LWPOLYLINE
  5
C7
100
AcDbEntity
  8
0
  6
ByLayer
 62
  256
370
   -1
100
AcDbPolyline
 90
   16
 70
    1
 43
0
 10
74.92276485759137
 20
115.4167692888825
 10
74.83754543722739
 20
115.405297973777
 10
74.67091360350817
 20
115.5429509163108
 10
74.67091360350817
 20
116.8391792434221
 10
74.70194406693213
 20
116.9768321859558
 10
74.81432269447464
 20
117.080072129417
 10
75.08556954648148
 20
117.1909615087698
 10
75.47694808690363
 20
117.240639314844
 10
75.78694202334162
 20
117.0876950704787
 10
75.77531674727969
 20
117.0150755804375
 10
75.74428628385576
 20
116.9615134430504
 10
75.64353389131898
 20
116.976778250052
 10
75.51952998771452
 20
116.984003768665
 10
75.20565520559292
 20
116.9457972776964
 10
74.98090849888999
 20
116.8617064725498
 10
74.98088932001336
 20
115.4320340958841
  0
LWPOLYLINE
  5
C8
100
AcDbEntity
  8
0
  6
ByLayer
 62
  256
370
   -1
100
AcDbPolyline
 90
    9
 70
    1
 43
0
 10
75.78304295772521
 20
115.737932047054
 10
75.94192077162781
 20
115.7990802219896
 10
76.09691773984682
 20
115.737932047054
 10
76.1511987553946
 20
115.5849868564448
 10
76.09691773984682
 20
115.4358635450495
 10
75.94192077162781
 20
115.3747144238699
 10
75.78304295772521
 20
115.4358635450495
 10
75.72876194217741
 20
115.5849868564448
 10
75.72876194217741
 20
115.5849868564448
  0
LWPOLYLINE
  5
C9
100
AcDbEntity
  8
0
  6
ByLayer
 62
  256
370
   -1
100
AcDbPolyline
 90
   16
 70
    1
 43
0
 10
76.36039426999191
 20
114.9311644764102
 10
76.45339360165589
 20
115.0114617896606
 10
76.51151902302172
 20
115.1299930349535
 10
76.53476861620177
 20
115.309709358695
 10
76.53476861620177
 20
117.1833111266344
 10
76.5928940375676
 20
117.1985759336361
 10
76.68204992235738
 20
117.2100472487416
 10
76.84479995144915
 20
117.0685733732377
 10
76.84479995144915
 20
115.2523272345818
 10
76.79829980614524
 20
114.9770213495143
 10
76.68204992235738
 20
114.8011259587428
 10
76.54254948644567
 20
114.7055373436608
 10
76.41467432659587
 20
114.6788012215537
 10
76.27904610587328
 20
114.736156850837
 10
76.23639036638744
 20
114.8661584649915
 10
76.23639036638744
 20
114.8661319701615
  0
LWPOLYLINE
  5
CA
100
AcDbEntity
  8
0
  6
ByLayer
 62
  256
370
   -1
100
AcDbPolyline
 90
    9
 70
    1
 43
0
 10
76.54254948644567
 20
117.8830178208469
 10
76.68979339379187
 20
117.9403734501303
 10
76.83317467538723
 20
117.8830178208469
 10
76.887455690935
 20
117.7491867575271
 10
76.83317467538723
 20
117.6115338149934
 10
76.68979339379187
 20
117.5579716776063
 10
76.54254948644567
 20
117.6115338149934
 10
76.48826847089785
 20
117.7491867575271
 10
76.48826847089785
 20
117.7491867575271
  0
LWPOLYLINE
  5
CB
100
AcDbEntity
  8
0
  6
ByLayer
 62
  256
370
   -1
100
AcDbPolyline
 90
    9
 70
    1
 43
0
 10
78.35214266246807
 20
115.6538402956635
 10
78.50714826118153
 20
115.7188737481561
 10
78.50714826118153
 20
116.2733045587733
 10
78.0266416453407
 20
116.2236267526991
 10
77.72827298496468
 20
116.1318581243433
 10
77.63139184867323
 20
115.9253791836647
 10
77.74376951727191
 20
115.6997880081844
 10
78.08476706670653
 20
115.6232841868303
 10
78.08476706670653
 20
115.6232207884873
  0
LWPOLYLINE
  5
CC
100
AcDbEntity
  8
0
  6
ByLayer
 62
  256
370
   -1
100
AcDbPolyline
 90
   24
 70
    1
 43
0
 10
78.61585605173941
 20
117.0915160034486
 10
78.81348095007314
 20
116.6212024928081
 10
78.81348095007314
 20
115.7149894168431
 10
78.77860608083117
 20
115.5849868564448
 10
78.68173453397804
 20
115.5046895431943
 10
78.43372768571291
 20
115.4129218610825
 10
78.08497803434935
 20
115.3708310388008
 10
77.51923377821178
 20
115.5123039680607
 10
77.32160792093421
 20
115.9214409164479
 10
77.48823016521514
 20
116.2999857987327
 10
77.95710287449955
 20
116.4605804252335
 10
78.50735922882433
 20
116.5141425626206
 10
78.50735922882433
 20
116.6212024928081
 10
78.39110934503648
 20
116.9003283646016
 10
78.07723360397105
 20
116.9883035010612
 10
77.77110229328392
 20
116.9424191868833
 10
77.51535197358433
 20
116.8391792434221
 10
77.45722751116232
 20
116.9003283646016
 10
77.43397695903843
 20
116.9768321859558
 10
77.46107191698036
 20
117.0648073224154
 10
77.54629133734433
 20
117.1298398286641
 10
77.78654416579279
 20
117.2101371419145
 10
78.08104156992351
 20
117.2407566490907
 10
78.08110581916019
 20
117.240639314844
  0
LWPOLYLINE
  5
CD
100
AcDbEntity
  8
0
  6
ByLayer
 62
  256
370
   -1
100
AcDbPolyline
 90
   22
 70
    1
 43
0
 10
79.54972925511909
 20
115.4932191743329
 10
79.38310701083816
 20
115.8870553584493
 10
79.38310701083816
 20
117.7033024433492
 10
79.44123147326017
 20
117.7185663041069
 10
79.53038735804995
 20
117.7300376192124
 10
79.6931373871417
 20
117.5923856229226
 10
79.6931373871417
 20
117.1526641783843
 10
80.3286313817632
 20
117.1526641783843
 10
80.35188193388707
 20
117.0991029872411
 10
80.36350720994902
 20
117.0302769890962
 10
80.24725636721733
 20
116.9002649662587
 10
79.69295422886999
 20
116.9002649662587
 10
79.69295422886999
 20
115.9061136573471
 10
79.77817364923396
 20
115.6881634015631
 10
80.02617090806075
 20
115.6270142803835
 10
80.17342440484526
 20
115.6499569105944
 10
80.30905262556784
 20
115.7035181017377
 10
80.3517083650537
 20
115.6461634186982
 10
80.37111355241568
 20
115.5658661054478
 10
80.27036020093507
 20
115.4282131629141
 10
79.99136028805543
 20
115.3746519717708
 10
79.99147919709046
 20
115.3746784666007
  0
LWPOLYLINE
  5
CE
100
AcDbEntity
  8
0
  6
ByLayer
 62
  256
370
   -1
100
AcDbPolyline
 90
    9
 70
    1
 43
0
 10
81.75073645248541
 20
115.6538402956635
 10
81.90573342070441
 20
115.7188737481561
 10
81.90573342070441
 20
116.2733045587733
 10
81.42523639430189
 20
116.2236267526991
 10
81.12685814448753
 20
116.1318581243433
 10
81.02998563869055
 20
115.9253791836647
 10
81.14235467679478
 20
115.6997880081844
 10
81.48336181566771
 20
115.6232841868303
 10
81.48336181566771
 20
115.6232207884873
  0
LWPOLYLINE
  5
CF
100
AcDbEntity
  8
0
  6
ByLayer
 62
  256
370
   -1
100
AcDbPolyline
 90
   24
 70
    1
 43
0
 10
82.01445080070059
 20
117.0915160034486
 10
82.21207569903433
 20
116.6212024928081
 10
82.21207569903433
 20
115.7149894168431
 10
82.17720082979233
 20
115.5849868564448
 10
82.08032832399536
 20
115.5046895431943
 10
81.83233106516857
 20
115.4129218610825
 10
81.48358141380498
 20
115.3708310388008
 10
80.91782756822913
 20
115.5123039680607
 10
80.7202026698954
 20
115.9214409164479
 10
80.88682491417632
 20
116.2999857987327
 10
81.35570625395522
 20
116.4605804252335
 10
81.90595301884167
 20
116.5141425626206
 10
81.90595301884167
 20
116.6212024928081
 10
81.78970313505381
 20
116.9003283646016
 10
81.47582835293221
 20
116.9883035010612
 10
81.16970567273955
 20
116.9424191868833
 10
80.91395535303997
 20
116.8391792434221
 10
80.85583089061798
 20
116.9003283646016
 10
80.8325803384941
 20
116.9768321859558
 10
80.85967529643604
 20
117.0648073224154
 10
80.94489471679995
 20
117.1298398286641
 10
81.18514754524846
 20
117.2101371419145
 10
81.47964494937918
 20
117.2407566490907
 10
81.47969960917754
 20
117.240639314844
  0
LWPOLYLINE
  5
D0
100
AcDbEntity
  8
0
  6
ByLayer
 62
  256
370
   -1
100
AcDbPolyline
 90
    8
 70
    1
 43
0
 10
83.04907639661701
 20
115.4167692888825
 10
82.96385697625308
 20
115.405297973777
 10
82.79723473197217
 20
115.5429509163108
 10
82.79723473197217
 20
117.1833111266344
 10
82.85535919439417
 20
117.1985759336361
 10
82.94451507918393
 20
117.2100472487416
 10
83.10726510827571
 20
117.0685733732377
 10
83.10720085903905
 20
115.4320340958841
  0
LWPOLYLINE
  5
D1
100
AcDbEntity
  8
0
  6
ByLayer
 62
  256
370
   -1
100
AcDbPolyline
 90
    9
 70
    1
 43
0
 10
82.80498779284494
 20
117.8830178208469
 10
82.95224033068564
 20
117.9403734501303
 10
83.0956129817865
 20
117.8830178208469
 10
83.14989303839047
 20
117.7491867575271
 10
83.0956129817865
 20
117.6115338149934
 10
82.95224033068564
 20
117.5579716776063
 10
82.80498779284494
 20
117.6115338149934
 10
82.75070677729717
 20
117.7491867575271
 10
82.75070677729717
 20
117.7491867575271
  0
LINE
  5
D2
100
AcDbEntity
  8
Corte
  6
ByLayer
 62
    1
370
   -1
100
AcDbLine
 10
57.82031712610676
 20
123.8165955379516
 11
57.82031712610676
 21
123.8165955379516
  0
LWPOLYLINE
  5
D3
100
AcDbEntity
  8
0
  6
ByLayer
 62
  256
370
   -1
100
AcDbPolyline
 90
   56
 70
    1
 43
0
 10
60.66895368356256
 20
102.6050823490359
 10
60.80070968909598
 20
102.5859332107212
 10
61.02158513955359
 20
102.6432888400046
 10
61.18045432296173
 20
102.8038834665053
 10
61.27733545925317
 20
103.0562467213618
 10
61.30836592267709
 20
103.3736065251979
 10
61.21536563206928
 20
103.8706911689709
 10
60.94799003630776
 20
104.2568779171959
 10
60.53336190270557
 20
104.5054202390824
 10
59.98698639406441
 20
104.5971879211943
 10
59.37473336212846
 20
104.4901279910069
 10
58.90586065284404
 20
104.1918804219724
 10
58.61136324871333
 20
103.7292087772718
 10
58.50673864098743
 20
103.1327231016422
 10
58.60361018784055
 20
102.5629915267542
 10
58.88261105966402
 20
102.130911948156
 10
59.31273572557347
 20
101.8556070093325
 10
59.87073651027655
 20
101.7561974612805
 10
60.1303590451653
 20
101.7753456533513
 10
60.32024047206456
 20
101.8135521443199
 10
60.37058406424271
 20
101.6950123828317
 10
60.25433418045483
 20
101.557359440298
 10
59.84745910772544
 20
101.5076816342239
 10
59.17320843923448
 20
101.6223928927906
 10
58.65395473896251
 20
101.9474115949574
 10
58.31683036366088
 20
102.4559580913967
 10
58.20057952092919
 20
103.132750542716
 10
58.32458246558982
 20
103.8363056109723
 10
58.68495835195916
 20
104.3754451197579
 10
59.24683039290758
 20
104.7234064521356
 10
59.98307773900968
 20
104.8457576841546
 10
60.6650814683734
 20
104.7386977539672
 10
61.17658210777258
 20
104.4404501849327
 10
61.50208216595611
 20
103.9739576072621
 10
61.61446079349865
 20
103.369821549497
 10
61.4090818753483
 20
102.6012614160658
 10
61.15430008891792
 20
102.4005138748422
 10
60.80070968909598
 20
102.3335973969384
 10
60.56045686064748
 20
102.371804834151
 10
60.35507794249713
 20
102.4826942135038
 10
60.16133388984702
 20
102.3871046521779
 10
59.89395925302933
 20
102.3526916531055
 10
59.58395572715305
 20
102.4023694591796
 10
59.34758374438818
 20
102.5514937168188
 10
59.19645899135833
 20
102.7923856565699
 10
59.14217797581056
 20
103.1173958425414
 10
59.20414780299446
 20
103.4844694097208
 10
59.38626657958265
 20
103.7597743485444
 10
59.66526649246227
 20
103.9318402901505
 10
60.03339543970438
 20
103.9929894113301
 10
60.29689882027674
 20
103.9623699041539
 10
60.5138924661069
 20
103.8858660827997
 10
60.67277028000952
 20
103.6984993769227
 10
60.66910903246316
 20
103.6411437476393
 10
60.66544778491682
 20
103.5837890645999
 10
60.5720811777656
 20
102.65476015511
  0
LWPOLYLINE
  5
D4
100
AcDbEntity
  8
0
  6
ByLayer
 62
  256
370
   -1
100
AcDbPolyline
 90
    9
 70
    1
 43
0
 10
59.58395572715305
 20
102.7350574683604
 10
59.9365785526496
 20
102.605054907962
 10
60.26983167170592
 20
102.7197652202849
 10
60.36670321855906
 20
103.6680331612623
 10
60.21557846552923
 20
103.7177109673365
 10
60.01408135200634
 20
103.7406526513035
 10
59.61107753552224
 20
103.5762380380766
 10
59.4599527824924
 20
103.1173958425414
 10
59.4599527824924
 20
103.1174223373713
  0
LWPOLYLINE
  5
D5
100
AcDbEntity
  8
0
  6
ByLayer
 62
  256
370
   -1
100
AcDbPolyline
 90
    8
 70
    1
 43
0
 10
62.43595536933579
 20
102.3450687120439
 10
62.35073499002802
 20
102.3335973969384
 10
62.18411370469094
 20
102.4712503394722
 10
62.18411370469094
 20
104.8304663823231
 10
62.24223816711293
 20
104.8457311893247
 10
62.32745758747689
 20
104.8572015581862
 10
62.49407983175781
 20
104.7195495618964
 10
62.49407983175781
 20
102.3603335190456
  0
LWPOLYLINE
  5
D6
100
AcDbEntity
  8
0
  6
ByLayer
 62
  256
370
   -1
100
AcDbPolyline
 90
    9
 70
    1
 43
0
 10
64.01308425870423
 20
102.5821397188249
 10
64.16808122692322
 20
102.6471731713176
 10
64.16808122692322
 20
103.2016039819347
 10
63.6875842005207
 20
103.1519261758606
 10
63.38920595070636
 20
103.0601575475048
 10
63.29233344490939
 20
102.8536786068261
 10
63.40470248301362
 20
102.6280874313459
 10
63.74570866294272
 20
102.5515836099917
 10
63.74570866294272
 20
102.5515202116487
  0
LWPOLYLINE
  5
D7
100
AcDbEntity
  8
0
  6
ByLayer
 62
  256
370
   -1
100
AcDbPolyline
 90
   24
 70
    1
 43
0
 10
64.2767976479756
 20
104.0198154266101
 10
64.47442350525316
 20
103.5495019159695
 10
64.47442350525316
 20
102.6432888400046
 10
64.43954863601118
 20
102.5132862796062
 10
64.34266749971974
 20
102.4329889663558
 10
64.09467024089292
 20
102.341221284244
 10
63.74591963058552
 20
102.2991304619622
 10
63.18016578500964
 20
102.4406033912221
 10
62.98254088667591
 20
102.849731823414
 10
63.14917176145129
 20
103.2282767056989
 10
63.61804447073573
 20
103.3888798483949
 10
64.16829219456601
 20
103.4424419857821
 10
64.16829219456601
 20
103.5495113784087
 10
64.05204135183433
 20
103.8286372502023
 10
63.73816656971273
 20
103.916611440418
 10
63.43204484846393
 20
103.8707271262401
 10
63.17629452876434
 20
103.7674881290228
 10
63.11816910739849
 20
103.8286372502023
 10
63.09491951421845
 20
103.9051410715565
 10
63.12201351321654
 20
103.9931152617722
 10
63.20723293358049
 20
104.0581487142648
 10
63.4474867209728
 20
104.1384460275152
 10
63.7419831661597
 20
104.1690655346914
 10
63.74204741539636
 20
104.1689387380054
  0
LWPOLYLINE
  5
D8
100
AcDbEntity
  8
0
  6
ByLayer
 62
  256
370
   -1
100
AcDbPolyline
 90
   20
 70
    1
 43
0
 10
66.1716744935986
 20
104.111583108722
 10
66.43905008936014
 20
103.9395181133598
 10
66.61729665075916
 20
103.6489114640215
 10
66.68320198342505
 20
103.2359535826642
 10
66.61729665075916
 20
102.8191757145808
 10
66.43129702848734
 20
102.5285785276817
 10
66.14842490041858
 20
102.3565125860755
 10
65.7841681683656
 20
102.3029513949323
 10
65.43929936268566
 20
102.3488347628663
 10
65.19130210385885
 20
102.4482537733575
 10
65.07892347631632
 20
102.5438433346834
 10
65.0478930128924
 20
102.6738449488378
 10
65.0478930128924
 20
104.8304029839801
 10
65.10601843425823
 20
104.8456677909817
 10
65.19517336010418
 20
104.8571391060872
 10
65.35792434813976
 20
104.7194861635535
 10
65.35792434813976
 20
104.0350433300987
 10
65.55942146166265
 20
104.1268119584546
 10
65.83842137454229
 20
104.1689027807363
 10
65.83842137454229
 20
104.1689387380054
  0
LWPOLYLINE
  5
D9
100
AcDbEntity
  8
0
  6
ByLayer
 62
  256
370
   -1
100
AcDbPolyline
 90
   14
 70
    1
 43
0
 10
65.54392397041156
 20
103.8668976770747
 10
65.35792434813976
 20
103.756008297722
 10
65.35792434813976
 20
102.6739083471808
 10
65.52454563347686
 20
102.5936110339304
 10
65.7841681683656
 20
102.5554045429617
 10
66.02054974056878
 20
102.5936110339304
 10
66.20654936284058
 20
102.7197926613587
 10
66.3266714618176
 20
102.9300925350074
 10
66.36932720130343
 20
103.2359904861773
 10
66.3266714618176
 20
103.5418874911032
 10
66.20654936284058
 20
103.7521873647519
 10
66.02054974056878
 20
103.8745480592101
 10
65.79192122923837
 20
103.9166388814918
 10
65.79192122923837
 20
103.9165754831488
  0
LWPOLYLINE
  5
DA
100
AcDbEntity
  8
0
  6
ByLayer
 62
  256
370
   -1
100
AcDbPolyline
 90
   34
 70
    1
 43
0
 10
69.32979585703018
 20
103.8286277877631
 10
69.03917066808862
 20
103.9166029242227
 10
68.58966766524443
 20
103.7407160496465
 10
68.61291725842446
 20
103.5763004901757
 10
68.61291725842446
 20
102.3603694763147
 10
68.55094743124056
 20
102.3451046693131
 10
68.46957241669469
 20
102.3336333542076
 10
68.30295017241377
 20
102.4712862967413
 10
68.30295017241377
 20
103.5533862472825
 10
68.1944447190042
 20
103.8286911861061
 10
67.89994731487349
 20
103.9166663225657
 10
67.66357533210862
 20
103.8784588853531
 10
67.47757475089301
 20
103.7904846951374
 10
67.47757475089301
 20
102.3604234122185
 10
67.41945028847098
 20
102.3451586052168
 10
67.33422990916318
 20
102.3336882363553
 10
67.16760862382611
 20
102.4713402326451
 10
67.16760862382611
 20
103.7752198881357
 10
67.19863908725003
 20
103.901401515564
 10
67.3148889710379
 20
104.0084614457514
 10
67.57838276217197
 20
104.1193517713481
 10
67.90388282035548
 20
104.1690295774222
 10
68.24100815460096
 20
104.1116739481389
 10
68.4657644507422
 20
103.9625506367436
 10
68.71763392475816
 20
104.1078530151688
 10
69.06251231987642
 20
104.1690021363484
 10
69.56238768321364
 20
104.0198778787092
 10
69.74838730548544
 20
103.5686775491141
 10
69.74838730548544
 20
102.3603969173886
 10
69.68641843724538
 20
102.3451321103869
 10
69.60504342269948
 20
102.3336607952814
 10
69.43841158898027
 20
102.4713137378152
 10
69.43841158898027
 20
103.5534127421124
 10
69.43829267994522
 20
103.5533228489395
  0
LWPOLYLINE
  5
DB
100
AcDbEntity
  8
0
  6
ByLayer
 62
  256
370
   -1
100
AcDbPolyline
 90
    9
 70
    1
 43
0
 10
71.23629701977131
 20
102.5821397188249
 10
71.39129398799031
 20
102.6471731713176
 10
71.39129398799031
 20
103.2016039819347
 10
70.91079696158778
 20
103.1519261758606
 10
70.61241871177342
 20
103.0601575475048
 10
70.51554716492029
 20
102.8536786068261
 10
70.62792483351899
 20
102.6280874313459
 10
70.96892238295362
 20
102.5515836099917
 10
70.96892238295362
 20
102.5515202116487
  0
LWPOLYLINE
  5
DC
100
AcDbEntity
  8
0
  6
ByLayer
 62
  256
370
   -1
100
AcDbPolyline
 90
   24
 70
    1
 43
0
 10
71.50001136798647
 20
104.0198154266101
 10
71.69763626632022
 20
103.5495019159695
 10
71.69763626632022
 20
102.6432888400046
 10
71.66276139707824
 20
102.5132862796062
 10
71.56588889128125
 20
102.4329889663558
 10
71.31789163245446
 20
102.341221284244
 10
70.9691419810909
 20
102.2991304619622
 10
70.40338813551503
 20
102.4406033912221
 10
70.20576323718129
 20
102.8497403396093
 10
70.37239411195665
 20
103.2282852218942
 10
70.84126682124108
 20
103.3888798483949
 10
71.39151454507137
 20
103.4424419857821
 10
71.39151454507137
 20
103.5495019159695
 10
71.27526370233969
 20
103.8286277877631
 10
70.9613889202181
 20
103.9166029242227
 10
70.65526624002547
 20
103.8707186100448
 10
70.3995168792697
 20
103.7674786665835
 10
70.34139145790385
 20
103.8286277877631
 10
70.31814090577998
 20
103.9051316091172
 10
70.34523586372191
 20
103.9931067455769
 10
70.43045528408584
 20
104.0581392518255
 10
70.67069948203985
 20
104.1384365650759
 10
70.96519688617059
 20
104.1690560722521
 10
70.96526113540725
 20
104.1689387380054
  0
LWPOLYLINE
  5
DD
100
AcDbEntity
  8
0
  6
ByLayer
 62
  256
370
   -1
100
AcDbPolyline
 90
   22
 70
    1
 43
0
 10
72.5230212772793
 20
102.3450687120439
 10
72.43780185691534
 20
102.3335973969384
 10
72.27117961263443
 20
102.4712503394722
 10
72.27117961263443
 20
104.8304663823231
 10
72.32930407505646
 20
104.8457311893247
 10
72.41845995984622
 20
104.8572015581862
 10
72.58120998893799
 20
104.7195495618964
 10
72.58120998893799
 20
103.3430229752909
 10
73.42983596258264
 20
104.1536379737346
 10
73.57320765473966
 20
104.1077536595567
 10
73.62748867028745
 20
104.0045146623393
 10
73.59261380104547
 20
103.9089251010134
 10
73.49961351043765
 20
103.8171564726576
 10
72.87573520243978
 20
103.278017910116
 10
73.7398577083917
 20
102.5132862796062
 10
73.68557669284388
 20
102.3794542700425
 10
73.56932680905604
 20
102.3297774102123
 10
73.46082039670264
 20
102.3565125860755
 10
73.36394884984952
 20
102.4406033912221
 10
72.58120135844351
 20
103.2168148530326
 10
72.58120135844351
 20
102.3603060779717
 10
72.5811457397013
 20
102.3603335190456
  0
LWPOLYLINE
  5
DE
100
AcDbEntity
  8
0
  6
ByLayer
 62
  256
370
   -1
100
AcDbPolyline
 90
   24
 70
    1
 43
0
 10
74.55157872870438
 20
102.6805680119265
 10
74.99913891134713
 20
102.5553411446188
 10
75.29363631547784
 20
102.6089032820059
 10
75.50288648987353
 20
102.7236135943287
 10
75.59588582153751
 20
102.5783197320988
 10
75.54554127041555
 20
102.4750797886375
 10
75.41379485432043
 20
102.3871046521779
 10
75.22004121223202
 20
102.3259564772423
 10
74.98366922946713
 20
102.3030138470314
 10
74.58066828981453
 20
102.3632375416521
 10
74.27067147654509
 20
102.5439067330264
 10
74.07594834224361
 20
102.840240996844
 10
74.01104031116188
 20
103.2474608550388
 10
74.07301013834575
 20
103.633656119459
 10
74.25125669974477
 20
103.9242533063581
 10
74.52638535637908
 20
104.1039601676604
 10
74.87125416205905
 20
104.1689926739091
 10
75.19288296399725
 20
104.1116379908697
 10
75.44475243801321
 20
103.9472224313989
 10
75.6113833127886
 20
103.6986801095124
 10
75.67335313997251
 20
103.3851412386464
 10
75.63463290596863
 20
103.2627890603835
 10
75.52612745255908
 20
103.2206982381018
 10
74.33264130372896
 20
103.0562467213618
  0
LWPOLYLINE
  5
DF
100
AcDbEntity
  8
0
  6
ByLayer
 62
  256
370
   -1
100
AcDbPolyline
 90
    6
 70
    1
 43
0
 10
74.47601299588601
 20
103.7559808566481
 10
74.31326296679427
 20
103.2933177281429
 10
75.37889217570736
 20
103.4386125366167
 10
75.22776742267752
 20
103.7827434735852
 10
74.86739153630819
 20
103.9203964161189
 10
74.86739153630819
 20
103.9203964161189
  0
LWPOLYLINE
  5
E0
100
AcDbEntity
  8
0
  6
ByLayer
 62
  256
370
   -1
100
AcDbPolyline
 90
   16
 70
    1
 43
0
 10
76.37476205669822
 20
102.3450687120439
 10
76.28954263633423
 20
102.3335973969384
 10
76.12291080261502
 20
102.4712503394722
 10
76.12291080261502
 20
103.7674786665835
 10
76.15394126603897
 20
103.9051316091172
 10
76.26631989358151
 20
104.0083715525785
 10
76.53756674558832
 20
104.1192609319313
 10
76.92894528601047
 20
104.1689387380054
 10
77.23893922244847
 20
104.0159944936401
 10
77.22731394638654
 20
103.943375003599
 10
77.1962834829626
 20
103.8898128662118
 10
77.09553109042582
 20
103.9050776732135
 10
76.97152718682136
 20
103.9123031918265
 10
76.65765240469977
 20
103.8740967008578
 10
76.43290569799683
 20
103.7900058957112
 10
76.43288651912022
 20
102.3603335190456
  0
LWPOLYLINE
  5
E1
100
AcDbEntity
  8
0
  6
ByLayer
 62
  256
370
   -1
100
AcDbPolyline
 90
    9
 70
    1
 43
0
 10
77.23504015683207
 20
102.6662314702155
 10
77.39391797073463
 20
102.7273796451511
 10
77.54891493895366
 20
102.6662314702155
 10
77.60319595450144
 20
102.5132862796062
 10
77.54891493895366
 20
102.3641629682109
 10
77.39391797073463
 20
102.3030138470314
 10
77.23504015683207
 20
102.3641629682109
 10
77.18075914128426
 20
102.5132862796062
 10
77.18075914128426
 20
102.5132862796062
  0
LWPOLYLINE
  5
E2
100
AcDbEntity
  8
0
  6
ByLayer
 62
  256
370
   -1
100
AcDbPolyline
 90
   16
 70
    1
 43
0
 10
77.81239146909877
 20
101.8594638995717
 10
77.90539080076275
 20
101.939761212822
 10
77.96351622212859
 20
102.0582924581149
 10
77.98676581530862
 20
102.2380087818565
 10
77.98676581530862
 20
104.1116105497959
 10
78.04489123667446
 20
104.1268753567976
 10
78.13404712146422
 20
104.138346671903
 10
78.29679715055599
 20
103.9968727963992
 10
78.29679715055599
 20
102.1806266577432
 10
78.25029700525209
 20
101.9053207726757
 10
78.13404712146422
 20
101.7294253819042
 10
77.99454668555251
 20
101.6338367668222
 10
77.86667152570271
 20
101.6071006447151
 10
77.73104330498012
 20
101.6644562739985
 10
77.68838756549428
 20
101.7944578881529
 10
77.68838756549428
 20
101.794431393323
  0
LWPOLYLINE
  5
E3
100
AcDbEntity
  8
0
  6
ByLayer
 62
  256
370
   -1
100
AcDbPolyline
 90
    9
 70
    1
 43
0
 10
77.99454668555251
 20
104.8113172440084
 10
78.14179059289873
 20
104.8686728732917
 10
78.28517187449407
 20
104.8113172440084
 10
78.33945289004185
 20
104.6774861806886
 10
78.28517187449407
 20
104.5398332381548
 10
78.14179059289873
 20
104.4862711007677
 10
77.99454668555251
 20
104.5398332381548
 10
77.94026567000469
 20
104.6774861806886
 10
77.94026567000469
 20
104.6774861806886
  0
LWPOLYLINE
  5
E4
100
AcDbEntity
  8
0
  6
ByLayer
 62
  256
370
   -1
100
AcDbPolyline
 90
    9
 70
    1
 43
0
 10
79.80413986157492
 20
102.5821397188249
 10
79.9591454602884
 20
102.6471731713176
 10
79.9591454602884
 20
103.2016039819347
 10
79.47863884444754
 20
103.1519261758606
 10
79.18027018407153
 20
103.0601575475048
 10
79.08338904778009
 20
102.8536786068261
 10
79.19576671637876
 20
102.6280874313459
 10
79.53676426581339
 20
102.5515836099917
 10
79.53676426581339
 20
102.5515202116487
  0
LWPOLYLINE
  5
E5
100
AcDbEntity
  8
0
  6
ByLayer
 62
  256
370
   -1
100
AcDbPolyline
 90
   24
 70
    1
 43
0
 10
80.06785325084627
 20
104.0198154266101
 10
80.26547814917998
 20
103.5495019159695
 10
80.26547814917998
 20
102.6432888400046
 10
80.23060327993801
 20
102.5132862796062
 10
80.13373173308489
 20
102.4329889663558
 10
79.88572488481975
 20
102.341221284244
 10
79.53697523345619
 20
102.2991304619622
 10
78.97123097731864
 20
102.4406033912221
 10
78.77360512004105
 20
102.8497403396093
 10
78.940227364322
 20
103.2282852218942
 10
79.4091000736064
 20
103.3888798483949
 10
79.95935642793117
 20
103.4424419857821
 10
79.95935642793117
 20
103.5495019159695
 10
79.84310654414335
 20
103.8286277877631
 10
79.52923080307789
 20
103.9166029242227
 10
79.22309949239076
 20
103.8707186100448
 10
78.9673491726912
 20
103.7674786665835
 10
78.90922471026917
 20
103.8286277877631
 10
78.8859741581453
 20
103.9051316091172
 10
78.9130691160872
 20
103.9931067455769
 10
78.99828853645116
 20
104.0581392518255
 10
79.23854136489965
 20
104.1384365650759
 10
79.53303876903036
 20
104.1690560722521
 10
79.53310301826704
 20
104.1689387380054
  0
LWPOLYLINE
  5
E6
100
AcDbEntity
  8
0
  6
ByLayer
 62
  256
370
   -1
100
AcDbPolyline
 90
   22
 70
    1
 43
0
 10
81.00172645422595
 20
102.4215185974943
 10
80.835104209945
 20
102.8153547816107
 10
80.835104209945
 20
104.6316018665107
 10
80.89322867236703
 20
104.6468657272684
 10
80.98238455715682
 20
104.6583370423739
 10
81.14513458624856
 20
104.520685046084
 10
81.14513458624856
 20
104.0809636015458
 10
81.78062858087006
 20
104.0809636015458
 10
81.80387913299393
 20
104.0274024104026
 10
81.81550440905588
 20
103.9585764122577
 10
81.69925356632419
 20
103.8285643894201
 10
81.14495142797685
 20
103.8285643894201
 10
81.14495142797685
 20
102.8344130805086
 10
81.2301708483408
 20
102.6164628247245
 10
81.47816810716762
 20
102.5553137035449
 10
81.62542160395213
 20
102.5782563337558
 10
81.7610498246747
 20
102.6318175248991
 10
81.80370556416054
 20
102.5744628418596
 10
81.82311075152253
 20
102.4941655286093
 10
81.72235740004191
 20
102.3565125860755
 10
81.4433574871623
 20
102.3029513949323
 10
81.44347639619733
 20
102.3029778897622
  0
LWPOLYLINE
  5
E7
100
AcDbEntity
  8
0
  6
ByLayer
 62
  256
370
   -1
100
AcDbPolyline
 90
    9
 70
    1
 43
0
 10
83.20273365159224
 20
102.5821397188249
 10
83.35773061981126
 20
102.6471731713176
 10
83.35773061981126
 20
103.2016039819347
 10
82.87723359340873
 20
103.1519261758606
 10
82.57885534359437
 20
103.0601575475048
 10
82.4819828377974
 20
102.8536786068261
 10
82.59435187590165
 20
102.6280874313459
 10
82.93535901477455
 20
102.5515836099917
 10
82.93535901477455
 20
102.5515202116487
  0
LWPOLYLINE
  5
E8
100
AcDbEntity
  8
0
  6
ByLayer
 62
  256
370
   -1
100
AcDbPolyline
 90
   24
 70
    1
 43
0
 10
83.46644799980743
 20
104.0198154266101
 10
83.66407289814117
 20
103.5495019159695
 10
83.66407289814117
 20
102.6432888400046
 10
83.6291980288992
 20
102.5132862796062
 10
83.53232552310223
 20
102.4329889663558
 10
83.28432826427544
 20
102.341221284244
 10
82.93557861291183
 20
102.2991304619622
 10
82.36982476733598
 20
102.4406033912221
 10
82.17219986900224
 20
102.8497403396093
 10
82.33882211328316
 20
103.2282852218942
 10
82.80770345306206
 20
103.3888798483949
 10
83.35795021794851
 20
103.4424419857821
 10
83.35795021794851
 20
103.5495019159695
 10
83.24170033416067
 20
103.8286277877631
 10
82.92782555203905
 20
103.9166029242227
 10
82.6217028718464
 20
103.8707186100448
 10
82.36595255214681
 20
103.7674786665835
 10
82.30782808972484
 20
103.8286277877631
 10
82.28457753760097
 20
103.9051316091172
 10
82.31167249554289
 20
103.9931067455769
 10
82.39689191590682
 20
104.0581392518255
 10
82.63714474435531
 20
104.1384365650759
 10
82.93164214848602
 20
104.1690560722521
 10
82.93169680828439
 20
104.1689387380054
  0
LWPOLYLINE
  5
E9
100
AcDbEntity
  8
0
  6
ByLayer
 62
  256
370
   -1
100
AcDbPolyline
 90
    8
 70
    1
 43
0
 10
84.50107359572385
 20
102.3450687120439
 10
84.41585417535993
 20
102.3335973969384
 10
84.24923193107901
 20
102.4712503394722
 10
84.24923193107901
 20
104.1116105497959
 10
84.30735639350101
 20
104.1268753567976
 10
84.39651227829077
 20
104.138346671903
 10
84.55926230738257
 20
103.9968727963992
 10
84.55919805814591
 20
102.3603335190456
  0
LWPOLYLINE
  5
EA
100
AcDbEntity
  8
0
  6
ByLayer
 62
  256
370
   -1
100
AcDbPolyline
 90
    9
 70
    1
 43
0
 10
84.25698499195178
 20
104.8113172440084
 10
84.40423752979248
 20
104.8686728732917
 10
84.54761018089334
 20
104.8113172440084
 10
84.60189023749734
 20
104.6774861806886
 10
84.54761018089334
 20
104.5398332381548
 10
84.40423752979248
 20
104.4862711007677
 10
84.25698499195178
 20
104.5398332381548
 10
84.20270397640402
 20
104.6774861806886
 10
84.20270397640402
 20
104.6774861806886
  0
LINE
  5
EB
100
AcDbEntity
  8
Corte
  6
ByLayer
 62
    1
370
   -1
100
AcDbLine
 10
83.52922238086543
 20
110.7448949611131
 11
84.22980468800893
 21
110.607385847656
  0
LINE
  5
EC
100
AcDbEntity
  8
Corte
  6
ByLayer
 62
    1
370
   -1
100
AcDbLine
 10
84.22980468800893
 20
110.607385847656
 11
84.82373038544881
 21
110.2157941541302
  0
LINE
  5
ED
100
AcDbEntity
  8
Corte
  6
ByLayer
 62
    1
370
   -1
100
AcDbLine
 10
84.82373038544881
 20
110.2157941541302
 11
85.22057778253858
 21
109.6297341940686
  0
LINE
  5
EE
100
AcDbEntity
  8
Corte
  6
ByLayer
 62
    1
370
   -1
100
AcDbLine
 10
85.22057778253858
 20
109.6297341940686
 11
85.359932458988
 21
108.9384301459121
  0
LINE
  5
EF
100
AcDbEntity
  8
Corte
  6
ByLayer
 62
    1
370
   -1
100
AcDbLine
 10
59.27231432521359
 20
100.8093384775077
 11
58.57173201807013
 21
100.9468475909647
  0
LINE
  5
F0
100
AcDbEntity
  8
Corte
  6
ByLayer
 62
    1
370
   -1
100
AcDbLine
 10
58.57173201807013
 20
100.9468475909647
 11
57.97780632063024
 21
101.3384402307344
  0
LINE
  5
F1
100
AcDbEntity
  8
Corte
  6
ByLayer
 62
    1
370
   -1
100
AcDbLine
 10
57.97780632063024
 20
101.3384402307344
 11
57.58095892354049
 21
101.9244992445521
  0
LINE
  5
F2
100
AcDbEntity
  8
Corte
  6
ByLayer
 62
    1
370
   -1
100
AcDbLine
 10
57.58095892354049
 20
101.9244992445521
 11
57.44160424709106
 21
102.6158032927086
  0
LINE
  5
F3
100
AcDbEntity
  8
Corte
  6
ByLayer
 62
    1
370
   -1
100
AcDbLine
 10
57.44160424709106
 20
102.6158032927086
 11
57.44160424709106
 21
108.9384301459121
  0
LINE
  5
F4
100
AcDbEntity
  8
Corte
  6
ByLayer
 62
    1
370
   -1
100
AcDbLine
 10
57.44160424709106
 20
108.9384301459121
 11
57.58095892354049
 21
109.6297341940686
  0
LINE
  5
F5
100
AcDbEntity
  8
Corte
  6
ByLayer
 62
    1
370
   -1
100
AcDbLine
 10
57.58095892354049
 20
109.6297341940686
 11
57.97780632063024
 21
110.2157941541302
  0
LINE
  5
F6
100
AcDbEntity
  8
Corte
  6
ByLayer
 62
    1
370
   -1
100
AcDbLine
 10
57.97780632063024
 20
110.2157941541302
 11
58.57173201807013
 21
110.607385847656
  0
LINE
  5
F7
100
AcDbEntity
  8
Corte
  6
ByLayer
 62
    1
370
   -1
100
AcDbLine
 10
58.57173201807013
 20
110.607385847656
 11
59.27231432521359
 21
110.7448949611131
  0
LINE
  5
F8
100
AcDbEntity
  8
Corte
  6
ByLayer
 62
    1
370
   -1
100
AcDbLine
 10
59.27231432521359
 20
110.7448949611131
 11
59.27231432521359
 21
110.7448949611131
  0
LINE
  5
F9
100
AcDbEntity
  8
Corte
  6
ByLayer
 62
  256
370
   -1
100
AcDbLine
 10
73.2368
 20
110.745
 11
83.5292
 21
110.745
  0
LINE
  5
FA
100
AcDbEntity
  8
Corte
  6
ByLayer
 62
  256
370
   -1
100
AcDbLine
 10
59.2723
 20
100.809
 11
67.1925
 21
100.805
  0
LINE
  5
FB
100
AcDbEntity
  8
Corte
  6
ByLayer
 62
    1
370
   -1
100
AcDbLine
 10
52.91532507513674
 20
105.1636390278228
 11
53.29309693173967
 21
106.6253941145689
  0
LINE
  5
FC
100
AcDbEntity
  8
Corte
  6
ByLayer
 62
    1
370
   -1
100
AcDbLine
 10
53.29309693173967
 20
106.6253941145689
 11
53.90534765273654
 21
107.8213760544065
  0
LINE
  5
FD
100
AcDbEntity
  8
Corte
  6
ByLayer
 62
    1
370
   -1
100
AcDbLine
 10
53.90534765273654
 20
107.8213760544065
 11
54.68694492595441
 21
108.7781616062768
  0
LINE
  5
FE
100
AcDbEntity
  8
Corte
  6
ByLayer
 62
    1
370
   -1
100
AcDbLine
 10
54.68694492595441
 20
108.7781616062768
 11
55.57275485136324
 21
109.5223307048345
  0
LINE
  5
FF
100
AcDbEntity
  8
Corte
  6
ByLayer
 62
    1
370
   -1
100
AcDbLine
 10
55.57275485136324
 20
109.5223307048345
 11
56.52369788287357
 21
110.0671689508002
  0
LINE
  5
100
100
AcDbEntity
  8
Corte
  6
ByLayer
 62
    1
370
   -1
100
AcDbLine
 10
56.52369788287357
 20
110.0671689508002
 11
57.50069447439593
 21
110.4259643266801
  0
LINE
  5
101
100
AcDbEntity
  8
Corte
  6
ByLayer
 62
    1
370
   -1
100
AcDbLine
 10
57.50069447439593
 20
110.4259643266801
 11
58.43861072590025
 21
110.6651623025049
  0
LINE
  5
102
100
AcDbEntity
  8
Corte
  6
ByLayer
 62
    1
370
   -1
100
AcDbLine
 10
58.43861072590025
 20
110.6651623025049
 11
59.27231432521359
 21
110.7448949611131
  0
LINE
  5
103
100
AcDbEntity
  8
Corte
  6
ByLayer
 62
    1
370
   -1
100
AcDbLine
 10
59.27231432521359
 20
110.7448949611131
 11
73.2368494152302
 21
110.7448949611131
  0
LINE
  5
104
100
AcDbEntity
  8
Corte
  6
ByLayer
 62
    1
370
   -1
100
AcDbLine
 10
73.2368494152302
 20
110.7448949611131
 11
73.86212771016163
 21
110.9043555147581
  0
LINE
  5
105
100
AcDbEntity
  8
Corte
  6
ByLayer
 62
    1
370
   -1
100
AcDbLine
 10
73.86212771016163
 20
110.9043555147581
 11
74.17476566673452
 21
111.382746702836
  0
LINE
  5
106
100
AcDbEntity
  8
Corte
  6
ByLayer
 62
    1
370
   -1
100
AcDbLine
 10
74.17476566673452
 20
111.382746702836
 11
74.27897831892547
 21
111.8611458301997
  0
LINE
  5
107
100
AcDbEntity
  8
Corte
  6
ByLayer
 62
    1
370
   -1
100
AcDbLine
 10
74.27897831892547
 20
111.8611458301997
 11
74.38319255897355
 21
112.392692917945
  0
LINE
  5
108
100
AcDbEntity
  8
Corte
  6
ByLayer
 62
    1
370
   -1
100
AcDbLine
 10
74.38319255897355
 20
112.392692917945
 11
74.48740521116451
 21
112.8710841060229
  0
LINE
  5
109
100
AcDbEntity
  8
Corte
  6
ByLayer
 62
    1
370
   -1
100
AcDbLine
 10
74.48740521116451
 20
112.8710841060229
 11
74.48740521116451
 21
113.1900147404559
  0
LINE
  5
10A
100
AcDbEntity
  8
Corte
  6
ByLayer
 62
    1
370
   -1
100
AcDbLine
 10
74.48740521116451
 20
113.1900147404559
 11
74.43529729721189
 21
113.4026319876968
  0
LINE
  5
10B
100
AcDbEntity
  8
Corte
  6
ByLayer
 62
    1
370
   -1
100
AcDbLine
 10
74.43529729721189
 20
113.4026319876968
 11
74.22687040497284
 21
113.6152492349378
  0
LINE
  5
10C
100
AcDbEntity
  8
Corte
  6
ByLayer
 62
    1
370
   -1
100
AcDbLine
 10
74.22687040497284
 20
113.6152492349378
 11
73.86212612230449
 21
113.8278744214645
  0
LINE
  5
10D
100
AcDbEntity
  8
Corte
  6
ByLayer
 62
    1
370
   -1
100
AcDbLine
 10
73.86212612230449
 20
113.8278744214645
 11
73.49738025177901
 21
113.8810390543462
  0
LINE
  5
10E
100
AcDbEntity
  8
Corte
  6
ByLayer
 62
    1
370
   -1
100
AcDbLine
 10
73.49738025177901
 20
113.8810390543462
 11
54.37430617545298
 21
113.8810390543462
  0
LINE
  5
10F
100
AcDbEntity
  8
Corte
  6
ByLayer
 62
    1
370
   -1
100
AcDbLine
 10
54.37430617545298
 20
113.8810390543462
 11
55.98960704798421
 21
123.8209953978624
  0
LINE
  5
110
100
AcDbEntity
  8
Corte
  6
ByLayer
 62
    1
370
   -1
100
AcDbLine
 10
55.98960704798421
 20
123.8209953978624
 11
82.72022775817855
 21
123.8209953978624
  0
LINE
  5
111
100
AcDbEntity
  8
Corte
  6
ByLayer
 62
    1
370
   -1
100
AcDbLine
 10
82.72022775817855
 20
123.8209953978624
 11
83.57998412357537
 21
123.7279731688909
  0
LINE
  5
112
100
AcDbEntity
  8
Corte
  6
ByLayer
 62
    1
370
   -1
100
AcDbLine
 10
83.57998412357537
 20
123.7279731688909
 11
84.59606026118719
 21
123.4489088637621
  0
LINE
  5
113
100
AcDbEntity
  8
Corte
  6
ByLayer
 62
    1
370
   -1
100
AcDbLine
 10
84.59606026118719
 20
123.4489088637621
 11
85.70332385884109
 21
123.010380829274
  0
LINE
  5
114
100
AcDbEntity
  8
Corte
  6
ByLayer
 62
    1
370
   -1
100
AcDbLine
 10
85.70332385884109
 20
123.010380829274
 11
86.73242677645892
 21
122.3326572007469
  0
LINE
  5
115
100
AcDbEntity
  8
Corte
  6
ByLayer
 62
    1
370
   -1
100
AcDbLine
 10
86.73242677645892
 20
122.3326572007469
 11
87.69639579404668
 21
121.4423171189075
  0
LINE
  5
116
100
AcDbEntity
  8
Corte
  6
ByLayer
 62
    1
370
   -1
100
AcDbLine
 10
87.69639579404668
 20
121.4423171189075
 11
88.50404980299088
 21
120.2596239555045
  0
LINE
  5
117
100
AcDbEntity
  8
Corte
  6
ByLayer
 62
    1
370
   -1
100
AcDbLine
 10
88.50404980299088
 20
120.2596239555045
 11
89.05116583002911
 21
118.8244408641278
  0
LINE
  5
118
100
AcDbEntity
  8
Corte
  6
ByLayer
 62
    1
370
   -1
100
AcDbLine
 10
89.05116583002911
 20
118.8244408641278
 11
89.23353757439901
 21
117.0703319018896
  0
LINE
  5
119
100
AcDbEntity
  8
Corte
  6
ByLayer
 62
    1
370
   -1
100
AcDbLine
 10
89.23353757439901
 20
117.0703319018896
 11
89.18142172116063
 21
116.4856281205484
  0
LINE
  5
11A
100
AcDbEntity
  8
Corte
  6
ByLayer
 62
    1
370
   -1
100
AcDbLine
 10
89.18142172116063
 20
116.4856281205484
 11
89.12930586792231
 21
115.9009243392071
  0
LINE
  5
11B
100
AcDbEntity
  8
Corte
  6
ByLayer
 62
    1
370
   -1
100
AcDbLine
 10
89.12930586792231
 20
115.9009243392071
 11
87.51400578931967
 21
106.3862104294584
  0
LINE
  5
11C
100
AcDbEntity
  8
Corte
  6
ByLayer
 62
    1
370
   -1
100
AcDbLine
 10
87.51400578931967
 20
106.3862104294584
 11
87.13623552057386
 21
104.9244553427124
  0
LINE
  5
11D
100
AcDbEntity
  8
Corte
  6
ByLayer
 62
    1
370
   -1
100
AcDbLine
 10
87.13623552057386
 20
104.9244553427124
 11
86.52398479957699
 21
103.7284734028747
  0
LINE
  5
11E
100
AcDbEntity
  8
Corte
  6
ByLayer
 62
    1
370
   -1
100
AcDbLine
 10
86.52398479957699
 20
103.7284734028747
 11
85.74238752635911
 21
102.7716830874331
  0
LINE
  5
11F
100
AcDbEntity
  8
Corte
  6
ByLayer
 62
    1
370
   -1
100
AcDbLine
 10
85.74238752635911
 20
102.7716830874331
 11
84.85657760095029
 21
102.0275187524468
  0
LINE
  5
120
100
AcDbEntity
  8
Corte
  6
ByLayer
 62
    1
370
   -1
100
AcDbLine
 10
84.85657760095029
 20
102.0275187524468
 11
83.90563456943997
 21
101.4693909361177
  0
LINE
  5
121
100
AcDbEntity
  8
Corte
  6
ByLayer
 62
    1
370
   -1
100
AcDbLine
 10
83.90563456943997
 20
101.4693909361177
 11
82.9286379779176
 21
101.0707284370052
  0
LINE
  5
122
100
AcDbEntity
  8
Corte
  6
ByLayer
 62
    1
370
   -1
100
AcDbLine
 10
82.9286379779176
 20
101.0707284370052
 11
81.15701812709995
 21
100.8049544961682
  0
LINE
  5
123
100
AcDbEntity
  8
Corte
  6
ByLayer
 62
    1
370
   -1
100
AcDbLine
 10
81.15701812709995
 20
100.8049544961682
 11
67.19249891565478
 21
100.8049544961682
  0
LINE
  5
124
100
AcDbEntity
  8
Corte
  6
ByLayer
 62
    1
370
   -1
100
AcDbLine
 10
67.19249891565478
 20
100.8049544961682
 11
66.81472705905185
 21
100.751800184358
  0
LINE
  5
125
100
AcDbEntity
  8
Corte
  6
ByLayer
 62
    1
370
   -1
100
AcDbLine
 10
66.81472705905185
 20
100.751800184358
 11
66.51511429462785
 21
100.5923372489273
  0
LINE
  5
126
100
AcDbEntity
  8
Corte
  6
ByLayer
 62
    1
370
   -1
100
AcDbLine
 10
66.51511429462785
 20
100.5923372489273
 11
66.25458187022188
 21
100.1670948151595
  0
LINE
  5
127
100
AcDbEntity
  8
Corte
  6
ByLayer
 62
    1
370
   -1
100
AcDbLine
 10
66.25458187022188
 20
100.1670948151595
 11
65.62930436921901
 21
96.44624614665652
  0
LINE
  5
128
100
AcDbEntity
  8
Corte
  6
ByLayer
 62
    1
370
   -1
100
AcDbLine
 10
65.62930436921901
 20
96.44624614665652
 11
85.84661605712151
 21
96.44624614665652
  0
LINE
  5
129
100
AcDbEntity
  8
Corte
  6
ByLayer
 62
    1
370
   -1
100
AcDbLine
 10
85.84661605712151
 20
96.44624614665652
 11
84.23131597851885
 21
86.50629059706884
  0
LINE
  5
12A
100
AcDbEntity
  8
Corte
  6
ByLayer
 62
    1
370
   -1
100
AcDbLine
 10
84.23131597851885
 20
86.50629059706884
 11
49.78893677619381
 21
86.50629059706884
  0
LINE
  5
12B
100
AcDbEntity
  8
Corte
  6
ByLayer
 62
    1
370
   -1
100
AcDbLine
 10
49.78893677619381
 20
86.50629059706884
 11
52.91532507513674
 21
105.1636390278228
  0
LINE
  5
12C
100
AcDbEntity
  8
Corte
  6
ByLayer
 62
    1
370
   -1
100
AcDbLine
 10
85.359932458988
 20
108.9384301459121
 11
85.35997356549584
 21
102.4504190975947
  0
LINE
  5
12D
100
AcDbEntity
  8
Corte
  6
ByLayer
 62
    1
370
   -1
100
AcDbLine
 10
82.69790255245861
 20
96.44624614665652
 11
83.39848485960209
 21
96.30873703319941
  0
LINE
  5
12E
100
AcDbEntity
  8
Corte
  6
ByLayer
 62
    1
370
   -1
100
AcDbLine
 10
83.39848485960209
 20
96.30873703319941
 11
83.99241055704199
 21
95.91714533967361
  0
LINE
  5
12F
100
AcDbEntity
  8
Corte
  6
ByLayer
 62
    1
370
   -1
100
AcDbLine
 10
83.99241055704199
 20
95.91714533967361
 11
84.38925795413175
 21
95.33108537961202
  0
LINE
  5
130
100
AcDbEntity
  8
Corte
  6
ByLayer
 62
    1
370
   -1
100
AcDbLine
 10
84.38925795413175
 20
95.33108537961202
 11
84.52861263058116
 21
94.63978133145552
  0
LINE
  5
131
100
AcDbEntity
  8
Corte
  6
ByLayer
 62
    1
370
   -1
100
AcDbLine
 10
84.52861263058116
 20
94.63978133145552
 11
84.52861263058116
 21
88.31715447825204
  0
LINE
  5
132
100
AcDbEntity
  8
Corte
  6
ByLayer
 62
    1
370
   -1
100
AcDbLine
 10
83.99241055704199
 20
87.03979141627786
 11
83.39848485960209
 21
86.64819877650815
  0
LINE
  5
133
100
AcDbEntity
  8
Corte
  6
ByLayer
 62
    1
370
   -1
100
AcDbLine
 10
83.39848485960209
 20
86.64819877650815
 11
82.69790255245861
 21
86.51068966305107
  0
LINE
  5
134
100
AcDbEntity
  8
Corte
  6
ByLayer
 62
    1
370
   -1
100
AcDbLine
 10
52.96804571968018
 20
86.51068966305107
 11
52.26746341253671
 21
86.64819877650815
  0
LINE
  5
135
100
AcDbEntity
  8
Corte
  6
ByLayer
 62
    1
370
   -1
100
AcDbLine
 10
52.26746341253671
 20
86.64819877650815
 11
51.67353771509682
 21
87.03979141627786
  0
LINE
  5
136
100
AcDbEntity
  8
Corte
  6
ByLayer
 62
    1
370
   -1
100
AcDbLine
 10
51.67353771509682
 20
87.03979141627786
 11
51.27669031800707
 21
87.62585043009554
  0
LINE
  5
137
100
AcDbEntity
  8
Corte
  6
ByLayer
 62
    1
370
   -1
100
AcDbLine
 10
51.27669031800707
 20
87.62585043009554
 11
51.13733564155764
 21
88.31715447825204
  0
LINE
  5
138
100
AcDbEntity
  8
Corte
  6
ByLayer
 62
    1
370
   -1
100
AcDbLine
 10
51.13733564155764
 20
88.31715447825204
 11
51.13733564155764
 21
94.63978133145552
  0
LINE
  5
139
100
AcDbEntity
  8
Corte
  6
ByLayer
 62
    1
370
   -1
100
AcDbLine
 10
51.13733564155764
 20
94.63978133145552
 11
51.27669031800707
 21
95.33108537961202
  0
LINE
  5
13A
100
AcDbEntity
  8
Corte
  6
ByLayer
 62
    1
370
   -1
100
AcDbLine
 10
51.27669031800707
 20
95.33108537961202
 11
51.67353771509682
 21
95.91714533967361
  0
LINE
  5
13B
100
AcDbEntity
  8
Corte
  6
ByLayer
 62
    1
370
   -1
100
AcDbLine
 10
51.67353771509682
 20
95.91714533967361
 11
52.26746341253671
 21
96.30873703319941
  0
LINE
  5
13C
100
AcDbEntity
  8
Corte
  6
ByLayer
 62
    1
370
   -1
100
AcDbLine
 10
52.26746341253671
 20
96.30873703319941
 11
52.96804571968018
 21
96.44624614665652
  0
LINE
  5
13D
100
AcDbEntity
  8
Corte
  6
ByLayer
 62
    1
370
   -1
100
AcDbLine
 10
52.96804571968018
 20
96.44624614665652
 11
52.96804571968018
 21
96.44624614665652
  0
LINE
  5
13E
100
AcDbEntity
  8
Corte
  6
ByLayer
 62
  256
370
   -1
100
AcDbLine
 10
52.96804571968018
 20
96.4462
 11
65.6293
 21
96.4462
  0
LWPOLYLINE
  5
13F
100
AcDbEntity
  8
0
  6
ByLayer
 62
  256
370
   -1
100
AcDbPolyline
 90
   56
 70
    1
 43
0
 10
55.22004565088484
 20
88.3064335345793
 10
55.35180165641827
 20
88.2872843962646
 10
55.57267710687587
 20
88.34464002554797
 10
55.73154629028402
 20
88.50523465204869
 10
55.82842742657545
 20
88.75759790690523
 10
55.85945788999938
 20
89.07495771074133
 10
55.76645759939156
 20
89.57204235451435
 10
55.49908200363004
 20
89.95822910273928
 10
55.08445387002786
 20
90.2067714246258
 10
54.5380783613867
 20
90.29853910673769
 10
53.92582532945075
 20
90.1914791765503
 10
53.45695262016633
 20
89.89323160751584
 10
53.16245521603562
 20
89.43055996281525
 10
53.05783060830971
 20
88.83407428718557
 10
53.15470215516284
 20
88.2643427122976
 10
53.43370302698631
 20
87.83226313369941
 10
53.86382769289575
 20
87.55695819487588
 10
54.42182847759884
 20
87.45754864682388
 10
54.68145101248759
 20
87.47669683889467
 10
54.87133243938685
 20
87.51490332986333
 10
54.92167603156499
 20
87.39636356837514
 10
54.80542614777711
 20
87.25871062584142
 10
54.39855107504773
 20
87.20903281976727
 10
53.72430040655676
 20
87.32374407833402
 10
53.2050467062848
 20
87.64876278050086
 10
52.86792233098316
 20
88.1573092769401
 10
52.75167148825147
 20
88.8341017282594
 10
52.87567443291211
 20
89.53765679651573
 10
53.23605031928145
 20
90.07679630530131
 10
53.79792236022986
 20
90.42475763767905
 10
54.53416970633197
 20
90.54710886969805
 10
55.21617343569569
 20
90.44004893951065
 10
55.72767407509487
 20
90.14180137047616
 10
56.0531741332784
 20
89.67530879280554
 10
56.16555276082094
 20
89.07117273504043
 10
55.96017384267059
 20
88.30261260160925
 10
55.70539205624021
 20
88.10186506038566
 10
55.35180165641827
 20
88.03494858248185
 10
55.11154882796976
 20
88.07315601969447
 10
54.90616990981942
 20
88.18404539904722
 10
54.71242585716931
 20
88.08845583772136
 10
54.44505122035162
 20
88.0540428386489
 10
54.13504769447533
 20
88.10372064472303
 10
53.89867571171047
 20
88.25284490236223
 10
53.74755095868061
 20
88.49373684211332
 10
53.69326994313285
 20
88.81874702808483
 10
53.75523977031674
 20
89.1858205952642
 10
53.93735854690493
 20
89.46112553408777
 10
54.21635845978456
 20
89.63319147569393
 10
54.58448740702666
 20
89.69434059687353
 10
54.84799078759902
 20
89.66372108969729
 10
55.06498443342919
 20
89.58721726834312
 10
55.2238622473318
 20
89.39985056246611
 10
55.22020099978545
 20
89.34249493318273
 10
55.21653975223911
 20
89.2851402501433
 10
55.12317314508788
 20
88.35611134065343
  0
LWPOLYLINE
  5
140
100
AcDbEntity
  8
0
  6
ByLayer
 62
  256
370
   -1
100
AcDbPolyline
 90
    9
 70
    1
 43
0
 10
54.13504769447533
 20
88.43640865390378
 10
54.48767051997189
 20
88.30640609350546
 10
54.8209236390282
 20
88.42111640582829
 10
54.91779518588135
 20
89.36938434680576
 10
54.76667043285151
 20
89.41906215287989
 10
54.56517331932862
 20
89.44200383684688
 10
54.16216950284453
 20
89.27758922362003
 10
54.01104474981469
 20
88.81874702808483
 10
54.01104474981469
 20
88.81877352291474
  0
LWPOLYLINE
  5
141
100
AcDbEntity
  8
0
  6
ByLayer
 62
  256
370
   -1
100
AcDbPolyline
 90
    8
 70
    1
 43
0
 10
56.98704733665807
 20
88.04641989758731
 10
56.9018269573503
 20
88.03494858248185
 10
56.73520567201322
 20
88.17260152501559
 10
56.73520567201322
 20
90.53181756786647
 10
56.79333013443522
 20
90.54708237486815
 10
56.87854955479917
 20
90.55855274372966
 10
57.04517179908009
 20
90.42090074743984
 10
57.04517179908009
 20
88.06168470458898
  0
LWPOLYLINE
  5
142
100
AcDbEntity
  8
0
  6
ByLayer
 62
  256
370
   -1
100
AcDbPolyline
 90
    9
 70
    1
 43
0
 10
58.56417622602652
 20
88.28349090436836
 10
58.71917319424551
 20
88.34852435686099
 10
58.71917319424551
 20
88.90295516747814
 10
58.23867616784298
 20
88.85327736140401
 10
57.94029791802865
 20
88.76150873304819
 10
57.84342541223167
 20
88.55502979236955
 10
57.95579445033591
 20
88.32943861688928
 10
58.296800630265
 20
88.25293479553513
 10
58.296800630265
 20
88.25287139719212
  0
LWPOLYLINE
  5
143
100
AcDbEntity
  8
0
  6
ByLayer
 62
  256
370
   -1
100
AcDbPolyline
 90
   24
 70
    1
 43
0
 10
58.82788961529788
 20
89.72116661215355
 10
59.02551547257544
 20
89.2508531015129
 10
59.02551547257544
 20
88.34464002554797
 10
58.99064060333347
 20
88.21463746514964
 10
58.89375946704202
 20
88.13434015189925
 10
58.6457622082152
 20
88.04257246978737
 10
58.2970115979078
 20
88.00048164750567
 10
57.73125775233193
 20
88.14195457676553
 10
57.53363285399819
 20
88.55108300895743
 10
57.70026372877358
 20
88.92962789124228
 10
58.16913643805802
 20
89.09023103393834
 10
58.71938416188829
 20
89.14379317132548
 10
58.71938416188829
 20
89.25086256395215
 10
58.60313331915663
 20
89.52998843574574
 10
58.28925853703502
 20
89.61796262596144
 10
57.98313681578622
 20
89.57207831178351
 10
57.72738649608662
 20
89.46883931456617
 10
57.66926107472077
 20
89.52998843574574
 10
57.64601148154073
 20
89.6064922570999
 10
57.67310548053882
 20
89.69446644731559
 10
57.75832490090278
 20
89.7594998998082
 10
57.99857868829508
 20
89.83979721305857
 10
58.29307513348198
 20
89.87041672023481
 10
58.29313938271864
 20
89.87028992354882
  0
LWPOLYLINE
  5
144
100
AcDbEntity
  8
0
  6
ByLayer
 62
  256
370
   -1
100
AcDbPolyline
 90
   20
 70
    1
 43
0
 10
60.72276646092089
 20
89.81293429426545
 10
60.99014205668242
 20
89.64086929890318
 10
61.16838861808144
 20
89.35026264956488
 10
61.23429395074733
 20
88.9373047682076
 10
61.16838861808144
 20
88.5205269001242
 10
60.98238899580961
 20
88.22992971322512
 10
60.69951686774087
 20
88.05786377161894
 10
60.33526013568788
 20
88.00430258047571
 10
59.99039133000795
 20
88.05018594840971
 10
59.74239407118114
 20
88.14960495890094
 10
59.63001544363861
 20
88.2451945202268
 10
59.59898498021469
 20
88.37519613438121
 10
59.59898498021469
 20
90.53175416952348
 10
59.65711040158052
 20
90.54701897652515
 10
59.74626532742646
 20
90.55849029163062
 10
59.90901631546205
 20
90.42083734909687
 10
59.90901631546205
 20
89.73639451564215
 10
60.11051342898494
 20
89.82816314399798
 10
60.38951334186457
 20
89.87025396627969
 10
60.38951334186457
 20
89.87028992354882
  0
LWPOLYLINE
  5
145
100
AcDbEntity
  8
0
  6
ByLayer
 62
  256
370
   -1
100
AcDbPolyline
 90
   14
 70
    1
 43
0
 10
60.09501593773385
 20
89.56824886261815
 10
59.90901631546205
 20
89.45735948326538
 10
59.90901631546205
 20
88.3752595327242
 10
60.07563760079914
 20
88.29496221947382
 10
60.33526013568788
 20
88.25675572850515
 10
60.57164170789106
 20
88.29496221947382
 10
60.75764133016287
 20
88.42114384690211
 10
60.87776342913988
 20
88.63144372055081
 10
60.92041916862573
 20
88.9373416717207
 10
60.87776342913988
 20
89.24323867664664
 10
60.75764133016287
 20
89.45353855029532
 10
60.57164170789106
 20
89.57589924475356
 10
60.34301319656065
 20
89.61799006703527
 10
60.34301319656065
 20
89.61792666869226
  0
LWPOLYLINE
  5
146
100
AcDbEntity
  8
0
  6
ByLayer
 62
  256
370
   -1
100
AcDbPolyline
 90
   34
 70
    1
 43
0
 10
63.88088782435246
 20
89.52997897330648
 10
63.59026263541091
 20
89.6179541097661
 10
63.14075963256673
 20
89.44206723518987
 10
63.16400922574675
 20
89.2776516757191
 10
63.16400922574675
 20
88.06172066185816
 10
63.10203939856285
 20
88.04645585485648
 10
63.02066438401698
 20
88.03498453975102
 10
62.85404213973605
 20
88.17263748228476
 10
62.85404213973605
 20
89.25473743282593
 10
62.74553668632649
 20
89.53004237164949
 10
62.45103928219578
 20
89.61801750810909
 10
62.21466729943091
 20
89.57981007089651
 10
62.02866671821529
 20
89.49183588068082
 10
62.02866671821529
 20
88.06177459776188
 10
61.97054225579326
 20
88.04650979076023
 10
61.88532187648548
 20
88.03503942189869
 10
61.71870059114839
 20
88.17269141818849
 10
61.71870059114839
 20
89.47657107367914
 10
61.74973105457232
 20
89.60275270110742
 10
61.86598093836018
 20
89.70981263129484
 10
62.12947472949425
 20
89.82070295689152
 10
62.45497478767777
 20
89.87038076296565
 10
62.79210012192326
 20
89.81302513368227
 10
63.01685641806448
 20
89.663901822287
 10
63.26872589208044
 20
89.80920420071224
 10
63.6136042871987
 20
89.87035332189181
 10
64.11347965053594
 20
89.72122906425263
 10
64.29947927280773
 20
89.27002873465752
 10
64.29947927280773
 20
88.06174810293199
 10
64.23751040456766
 20
88.04648329593032
 10
64.15613539002177
 20
88.03501198082485
 10
63.98950355630255
 20
88.17266492335858
 10
63.98950355630255
 20
89.25476392765584
 10
63.98938464726751
 20
89.25467403448293
  0
LWPOLYLINE
  5
147
100
AcDbEntity
  8
0
  6
ByLayer
 62
  256
370
   -1
100
AcDbPolyline
 90
    9
 70
    1
 43
0
 10
65.78738898709359
 20
88.28349090436836
 10
65.94238595531259
 20
88.34852435686099
 10
65.94238595531259
 20
88.90295516747814
 10
65.46188892891007
 20
88.85327736140401
 10
65.16351067909569
 20
88.76150873304819
 10
65.06663913224259
 20
88.55502979236955
 10
65.17901680084127
 20
88.32943861688928
 10
65.5200143502759
 20
88.25293479553513
 10
65.5200143502759
 20
88.25287139719212
  0
LWPOLYLINE
  5
148
100
AcDbEntity
  8
0
  6
ByLayer
 62
  256
370
   -1
100
AcDbPolyline
 90
   24
 70
    1
 43
0
 10
66.05110333530875
 20
89.72116661215355
 10
66.2487282336425
 20
89.2508531015129
 10
66.2487282336425
 20
88.34464002554797
 10
66.21385336440052
 20
88.21463746514964
 10
66.11698085860354
 20
88.13434015189925
 10
65.86898359977675
 20
88.04257246978737
 10
65.52023394841318
 20
88.00048164750567
 10
64.95448010283731
 20
88.14195457676553
 10
64.75685520450357
 20
88.55109152515276
 10
64.92348607927894
 20
88.92963640743761
 10
65.39235878856337
 20
89.09023103393834
 10
65.94260651239367
 20
89.14379317132548
 10
65.94260651239367
 20
89.2508531015129
 10
65.82635566966196
 20
89.52997897330648
 10
65.51248088754038
 20
89.6179541097661
 10
65.20635820734775
 20
89.57206979558818
 10
64.95060884659199
 20
89.4688298521269
 10
64.89248342522615
 20
89.52997897330648
 10
64.86923287310228
 20
89.60648279466065
 10
64.89632783104419
 20
89.69445793112027
 10
64.98154725140813
 20
89.75949043736895
 10
65.22179144936214
 20
89.83978775061932
 10
65.51628885349287
 20
89.87040725779555
 10
65.51635310272954
 20
89.87028992354882
  0
LWPOLYLINE
  5
149
100
AcDbEntity
  8
0
  6
ByLayer
 62
  256
370
   -1
100
AcDbPolyline
 90
   22
 70
    1
 43
0
 10
67.07411324460158
 20
88.04641989758731
 10
66.98889382423764
 20
88.03494858248185
 10
66.82227157995672
 20
88.17260152501559
 10
66.82227157995672
 20
90.53181756786647
 10
66.88039604237873
 20
90.54708237486815
 10
66.9695519271685
 20
90.55855274372966
 10
67.13230195626026
 20
90.42090074743984
 10
67.13230195626026
 20
89.04437416083427
 10
67.98092792990492
 20
89.85498915927799
 10
68.12429962206195
 20
89.80910484510009
 10
68.17858063760973
 20
89.70586584788272
 10
68.14370576836777
 20
89.61027628655685
 10
68.05070547775993
 20
89.51850765820105
 10
67.42682716976206
 20
88.97936909565939
 10
68.29094967571397
 20
88.21463746514964
 10
68.23666866016617
 20
88.08080545558593
 10
68.12041877637832
 20
88.03112859575575
 10
68.01191236402494
 20
88.05786377161894
 10
67.9150408171718
 20
88.14195457676553
 10
67.13229332576579
 20
88.91816603857606
 10
67.13229332576579
 20
88.06165726351516
 10
67.13223770702358
 20
88.06168470458898
  0
LWPOLYLINE
  5
14A
100
AcDbEntity
  8
0
  6
ByLayer
 62
  256
370
   -1
100
AcDbPolyline
 90
   24
 70
    1
 43
0
 10
69.10267069602666
 20
88.38191919746991
 10
69.55023087866941
 20
88.25669233016217
 10
69.84472828280012
 20
88.31025446754934
 10
70.05397845719581
 20
88.42496477987216
 10
70.1469777888598
 20
88.27967091764225
 10
70.09663323773783
 20
88.17643097418096
 10
69.96488682164272
 20
88.08845583772136
 10
69.7711331795543
 20
88.02730766278569
 10
69.53476119678942
 20
88.00436503257478
 10
69.13176025713682
 20
88.06458872719548
 10
68.82176344386737
 20
88.24525791856979
 10
68.62704030956588
 20
88.54159218238746
 10
68.56213227848416
 20
88.94881204058221
 10
68.62410210566803
 20
89.33500730500246
 10
68.80234866706706
 20
89.62560449190153
 10
69.07747732370137
 20
89.80531135320386
 10
69.42234612938132
 20
89.87034385945256
 10
69.74397493131953
 20
89.81298917641311
 10
69.99584440533549
 20
89.64857361694234
 10
70.1624752801109
 20
89.40003129505584
 10
70.22444510729478
 20
89.08649242418979
 10
70.18572487329092
 20
88.96414024592687
 10
70.07721941988136
 20
88.92204942364518
 10
68.88373327105124
 20
88.75759790690523
  0
LWPOLYLINE
  5
14B
100
AcDbEntity
  8
0
  6
ByLayer
 62
  256
370
   -1
100
AcDbPolyline
 90
    6
 70
    1
 43
0
 10
69.0271049632083
 20
89.45733204219154
 10
68.86435493411655
 20
88.99466891368628
 10
69.92998414302966
 20
89.13996372216012
 10
69.77885938999979
 20
89.48409465912859
 10
69.41848350363047
 20
89.62174760166234
 10
69.41848350363047
 20
89.62174760166234
  0
LWPOLYLINE
  5
14C
100
AcDbEntity
  8
0
  6
ByLayer
 62
  256
370
   -1
100
AcDbPolyline
 90
   16
 70
    1
 43
0
 10
70.9258540240205
 20
88.04641989758731
 10
70.84063460365653
 20
88.03494858248185
 10
70.6740027699373
 20
88.17260152501559
 10
70.6740027699373
 20
89.4688298521269
 10
70.70503323336125
 20
89.60648279466065
 10
70.81741186090379
 20
89.70972273812193
 10
71.08865871291061
 20
89.82061211747471
 10
71.48003725333277
 20
89.87028992354882
 10
71.79003118977076
 20
89.71734567918351
 10
71.77840591370882
 20
89.64472618914239
 10
71.74737545028489
 20
89.59116405175521
 10
71.64662305774812
 20
89.60642885875689
 10
71.52261915414364
 20
89.6136543773699
 10
71.20874437202205
 20
89.57544788640122
 10
70.98399766531912
 20
89.49135708125466
 10
70.9839784864425
 20
88.06168470458898
  0
LWPOLYLINE
  5
14D
100
AcDbEntity
  8
0
  6
ByLayer
 62
  256
370
   -1
100
AcDbPolyline
 90
    9
 70
    1
 43
0
 10
71.78613212415435
 20
88.36758265575888
 10
71.94500993805693
 20
88.42873083069453
 10
72.10000690627595
 20
88.36758265575888
 10
72.15428792182372
 20
88.21463746514964
 10
72.10000690627595
 20
88.06551415375436
 10
71.94500993805693
 20
88.00436503257478
 10
71.78613212415435
 20
88.06551415375436
 10
71.73185110860655
 20
88.21463746514964
 10
71.73185110860655
 20
88.21463746514964
  0
LWPOLYLINE
  5
14E
100
AcDbEntity
  8
0
  6
ByLayer
 62
  256
370
   -1
100
AcDbPolyline
 90
   16
 70
    1
 43
0
 10
72.36348343642105
 20
87.56081508511508
 10
72.45648276808502
 20
87.64111239836544
 10
72.51460818945087
 20
87.75964364365829
 10
72.53785778263091
 20
87.93935996739991
 10
72.53785778263091
 20
89.81296173533929
 10
72.59598320399674
 20
89.82822654234097
 10
72.6851390887865
 20
89.83969785744642
 10
72.84788911787828
 20
89.69822398194265
 10
72.84788911787828
 20
87.88197784328662
 10
72.80138897257437
 20
87.60667195821915
 10
72.6851390887865
 20
87.43077656744759
 10
72.5456386528748
 20
87.33518795236564
 10
72.41776349302499
 20
87.30845183025852
 10
72.28213527230241
 20
87.3658074595419
 10
72.23947953281657
 20
87.49580907369628
 10
72.23947953281657
 20
87.49578257886638
  0
LWPOLYLINE
  5
14F
100
AcDbEntity
  8
0
  6
ByLayer
 62
  256
370
   -1
100
AcDbPolyline
 90
    9
 70
    1
 43
0
 10
72.5456386528748
 20
90.51266842955177
 10
72.69288256022101
 20
90.57002405883512
 10
72.83626384181635
 20
90.51266842955177
 10
72.89054485736413
 20
90.37883736623201
 10
72.83626384181635
 20
90.24118442369826
 10
72.69288256022101
 20
90.1876222863111
 10
72.5456386528748
 20
90.24118442369826
 10
72.49135763732698
 20
90.37883736623201
 10
72.49135763732698
 20
90.37883736623201
  0
LWPOLYLINE
  5
150
100
AcDbEntity
  8
0
  6
ByLayer
 62
  256
370
   -1
100
AcDbPolyline
 90
    9
 70
    1
 43
0
 10
74.3552318288972
 20
88.28349090436836
 10
74.51023742761068
 20
88.34852435686099
 10
74.51023742761068
 20
88.90295516747814
 10
74.02973081176982
 20
88.85327736140401
 10
73.73136215139381
 20
88.76150873304819
 10
73.63448101510237
 20
88.55502979236955
 10
73.74685868370105
 20
88.32943861688928
 10
74.08785623313567
 20
88.25293479553513
 10
74.08785623313567
 20
88.25287139719212
  0
LWPOLYLINE
  5
151
100
AcDbEntity
  8
0
  6
ByLayer
 62
  256
370
   -1
100
AcDbPolyline
 90
   24
 70
    1
 43
0
 10
74.61894521816855
 20
89.72116661215355
 10
74.81657011650228
 20
89.2508531015129
 10
74.81657011650228
 20
88.34464002554797
 10
74.78169524726029
 20
88.21463746514964
 10
74.68482370040718
 20
88.13434015189925
 10
74.43681685214203
 20
88.04257246978737
 10
74.08806720077848
 20
88.00048164750567
 10
73.52232294464093
 20
88.14195457676553
 10
73.32469708736335
 20
88.55109152515276
 10
73.49131933164428
 20
88.92963640743761
 10
73.96019204092869
 20
89.09023103393834
 10
74.51044839525346
 20
89.14379317132548
 10
74.51044839525346
 20
89.2508531015129
 10
74.39419851146563
 20
89.52997897330648
 10
74.08032277040019
 20
89.6179541097661
 10
73.77419145971305
 20
89.57206979558818
 10
73.51844114001348
 20
89.4688298521269
 10
73.46031667759145
 20
89.52997897330648
 10
73.43706612546758
 20
89.60648279466065
 10
73.46416108340949
 20
89.69445793112027
 10
73.54938050377345
 20
89.75949043736895
 10
73.78963333222194
 20
89.83978775061932
 10
74.08413073635265
 20
89.87040725779555
 10
74.08419498558932
 20
89.87028992354882
  0
LWPOLYLINE
  5
152
100
AcDbEntity
  8
0
  6
ByLayer
 62
  256
370
   -1
100
AcDbPolyline
 90
   22
 70
    1
 43
0
 10
75.55281842154822
 20
88.12286978303774
 10
75.38619617726729
 20
88.51670596715414
 10
75.38619617726729
 20
90.33295305205408
 10
75.44432063968931
 20
90.34821691281181
 10
75.5334765244791
 20
90.35968822791727
 10
75.69622655357084
 20
90.22203623162746
 10
75.69622655357084
 20
89.78231478708922
 10
76.33172054819234
 20
89.78231478708922
 10
76.35497110031621
 20
89.72875359594599
 10
76.36659637637815
 20
89.65992759780107
 10
76.25034553364647
 20
89.5299155749635
 10
75.69604339529913
 20
89.5299155749635
 10
75.69604339529913
 20
88.53576426605204
 10
75.7812628156631
 20
88.31781401026794
 10
76.0292600744899
 20
88.25666488908834
 10
76.17651357127441
 20
88.27960751929925
 10
76.31214179199698
 20
88.33316871044249
 10
76.35479753148282
 20
88.27581402740304
 10
76.37420271884481
 20
88.19551671415269
 10
76.27344936736421
 20
88.05786377161894
 10
75.99444945448458
 20
88.00430258047571
 10
75.9945683635196
 20
88.00432907530562
  0
LWPOLYLINE
  5
153
100
AcDbEntity
  8
0
  6
ByLayer
 62
  256
370
   -1
100
AcDbPolyline
 90
    9
 70
    1
 43
0
 10
77.75382561891453
 20
88.28349090436836
 10
77.90882258713354
 20
88.34852435686099
 10
77.90882258713354
 20
88.90295516747814
 10
77.42832556073103
 20
88.85327736140401
 10
77.12994731091665
 20
88.76150873304819
 10
77.03307480511968
 20
88.55502979236955
 10
77.14544384322393
 20
88.32943861688928
 10
77.48645098209684
 20
88.25293479553513
 10
77.48645098209684
 20
88.25287139719212
  0
LWPOLYLINE
  5
154
100
AcDbEntity
  8
0
  6
ByLayer
 62
  256
370
   -1
100
AcDbPolyline
 90
   24
 70
    1
 43
0
 10
78.01753996712971
 20
89.72116661215355
 10
78.21516486546346
 20
89.2508531015129
 10
78.21516486546346
 20
88.34464002554797
 10
78.18028999622148
 20
88.21463746514964
 10
78.08341749042451
 20
88.13434015189925
 10
77.83542023159772
 20
88.04257246978737
 10
77.48667058023412
 20
88.00048164750567
 10
76.92091673465826
 20
88.14195457676553
 10
76.72329183632453
 20
88.55109152515276
 10
76.88991408060545
 20
88.92963640743761
 10
77.35879542038435
 20
89.09023103393834
 10
77.90904218527079
 20
89.14379317132548
 10
77.90904218527079
 20
89.2508531015129
 10
77.79279230148295
 20
89.52997897330648
 10
77.47891751936135
 20
89.6179541097661
 10
77.17279483916869
 20
89.57206979558818
 10
76.9170445194691
 20
89.4688298521269
 10
76.85892005704711
 20
89.52997897330648
 10
76.83566950492325
 20
89.60648279466065
 10
76.86276446286517
 20
89.69445793112027
 10
76.9479838832291
 20
89.75949043736895
 10
77.18823671167759
 20
89.83978775061932
 10
77.48273411580831
 20
89.87040725779555
 10
77.48278877560666
 20
89.87028992354882
  0
LWPOLYLINE
  5
155
100
AcDbEntity
  8
0
  6
ByLayer
 62
  256
370
   -1
100
AcDbPolyline
 90
    8
 70
    1
 43
0
 10
79.05216556304615
 20
88.04641989758731
 10
78.96694614268222
 20
88.03494858248185
 10
78.8003238984013
 20
88.17260152501559
 10
78.8003238984013
 20
89.81296173533929
 10
78.8584483608233
 20
89.82822654234097
 10
78.94760424561306
 20
89.83969785744642
 10
79.11035427470485
 20
89.69822398194265
 10
79.11029002546819
 20
88.06168470458898
  0
LWPOLYLINE
  5
156
100
AcDbEntity
  8
0
  6
ByLayer
 62
  256
370
   -1
100
AcDbPolyline
 90
    9
 70
    1
 43
0
 10
78.80807695927408
 20
90.51266842955177
 10
78.95532949711476
 20
90.57002405883512
 10
79.09870214821564
 20
90.51266842955177
 10
79.15298220481962
 20
90.37883736623201
 10
79.09870214821564
 20
90.24118442369826
 10
78.95532949711476
 20
90.1876222863111
 10
78.80807695927408
 20
90.24118442369826
 10
78.7537959437263
 20
90.37883736623201
 10
78.7537959437263
 20
90.37883736623201
  0
LINE
  5
157
100
AcDbEntity
  8
Corte
  6
ByLayer
 62
    1
370
   -1
100
AcDbLine
 10
84.4201541365604
 20
87.66833034551156
 11
83.99241055704199
 21
87.03979141627786
  0
LINE
  5
158
100
AcDbEntity
  8
Corte
  6
ByLayer
 62
    1
370
   -1
100
AcDbLine
 10
56.82897235073609
 20
114.0185481678033
 11
56.23504665329619
 21
114.410140807573
  0
LINE
  5
159
100
AcDbEntity
  8
Corte
  6
ByLayer
 62
    1
370
   -1
100
AcDbLine
 10
56.23504665329619
 20
114.410140807573
 11
55.83819925620644
 21
114.9961998213907
  0
LINE
  5
15A
100
AcDbEntity
  8
Corte
  6
ByLayer
 62
    1
370
   -1
100
AcDbLine
 10
55.83819925620644
 20
114.9961998213907
 11
55.69884457975701
 21
115.6875038695472
  0
LINE
  5
15B
100
AcDbEntity
  8
Corte
  6
ByLayer
 62
    1
370
   -1
100
AcDbLine
 10
56.23504665329619
 20
123.2874947309687
 11
56.82897235073609
 21
123.6790864244946
  0
LINE
  5
15C
100
AcDbEntity
  8
Corte
  6
ByLayer
 62
    1
370
   -1
100
AcDbLine
 10
56.82897235073609
 20
123.6790864244946
 11
57.53874039679852
 21
123.8209953978624
  0
LINE
  5
15D
100
AcDbEntity
  8
Corte
  6
ByLayer
 62
    1
370
   -1
100
AcDbLine
 10
55.80437885291744
 20
122.6811704873076
 11
56.23504665329619
 21
123.2874947309687
  0
LINE
  5
15E
100
AcDbEntity
  8
Corte
  6
ByLayer
 62
    1
370
   -1
100
AcDbLine
 10
55.69884457975701
 20
115.6875038695472
 11
55.69840442393736
 21
122.0290435581985
  0
LINE
  5
15F
100
AcDbEntity
  8
Corte
  6
ByLayer
 62
    1
370
   -1
100
AcDbLine
 10
57.52955465787956
 20
113.8810390543462
 11
56.82897235073609
 21
114.0185481678033
  0
LINE
  5
160
100
AcDbEntity
  8
Corte
  6
ByLayer
 62
    1
370
   -1
100
AcDbLine
 10
83.42251759828629
 20
123.6790864244946
 11
84.01644329572619
 21
123.2874947309687
  0
LINE
  5
161
100
AcDbEntity
  8
Corte
  6
ByLayer
 62
    1
370
   -1
100
AcDbLine
 10
84.01644329572619
 20
123.2874947309687
 11
84.41329069281595
 21
122.7014347709072
  0
LINE
  5
162
100
AcDbEntity
  8
Corte
  6
ByLayer
 62
    1
370
   -1
100
AcDbLine
 10
84.41329069281595
 20
122.7014347709072
 11
84.55264536926536
 21
122.0101307227507
  0
LINE
  5
163
100
AcDbEntity
  8
Corte
  6
ByLayer
 62
    1
370
   -1
100
AcDbLine
 10
84.55264536926536
 20
122.0101307227507
 11
84.55264536926536
 21
115.6875038695472
  0
LINE
  5
164
100
AcDbEntity
  8
Corte
  6
ByLayer
 62
    1
370
   -1
100
AcDbLine
 10
84.55264536926536
 20
115.6875038695472
 11
84.41329069281595
 21
114.9961998213907
  0
LINE
  5
165
100
AcDbEntity
  8
Corte
  6
ByLayer
 62
    1
370
   -1
100
AcDbLine
 10
84.41329069281595
 20
114.9961998213907
 11
84.01644329572619
 21
114.410140807573
  0
LINE
  5
166
100
AcDbEntity
  8
Corte
  6
ByLayer
 62
    1
370
   -1
100
AcDbLine
 10
84.01644329572619
 20
114.410140807573
 11
83.42251759828629
 21
114.0185481678033
  0
LINE
  5
167
100
AcDbEntity
  8
Corte
  6
ByLayer
 62
    1
370
   -1
100
AcDbLine
 10
83.42251759828629
 20
114.0185481678033
 11
82.72193529114283
 21
113.8810390543462
  0
LINE
  5
168
100
AcDbEntity
  8
Corte
  6
ByLayer
 62
    1
370
   -1
100
AcDbLine
 10
82.72022775817855
 20
123.8209953978624
 11
83.42251759828629
 21
123.6790864244946
  0
LINE
  5
169
100
AcDbEntity
  8
Corte
  6
ByLayer
 62
  256
370
   -1
100
AcDbLine
 10
82.72193529114283
 20
113.881
 11
73.4974
 21
113.881
  0
LWPOLYLINE
  5
16A
100
AcDbEntity
  8
Corte
  6
ByLayer
 62
  256
370
   -1
100
AcDbPolyline
 90
   21
 70
    1
 43
0
 10
59.29227442574008
 20
121.9454741122276
 10
58.81199124381184
 20
121.7203475425146
 10
58.41741462571365
 20
121.3686532778519
 10
58.13772427327578
 20
120.909631295971
 10
58.00656089502986
 20
120.3899020888233
 10
58.03354653337506
 20
119.8659034290853
 10
58.21183241147115
 20
119.3716016886963
 10
58.53457262930937
 20
118.9409632395963
 10
58.97098988463715
 20
118.6224972766117
 10
59.47192583985134
 20
118.4465725522783
 10
60.00295728825436
 20
118.4199452482226
 10
60.52966198209236
 20
118.5493705998265
 10
60.99484467551551
 20
118.8253568342763
 10
61.35125916491941
 20
119.2147087684312
 10
61.57940724539055
 20
119.6886303071586
 10
61.65978975307144
 20
120.2183272478143
 10
61.52043507662201
 20
120.909631295971
 10
61.12358672058841
 20
121.4956903097886
 10
60.52966198209236
 20
121.8872829495583
 10
59.82907967494888
 20
122.0247920630155
 10
59.82907967494888
 20
122.0247920630155
  0
LWPOLYLINE
  5
16B
100
AcDbEntity
  8
Corte
  6
ByLayer
 62
  256
370
   -1
100
AcDbPolyline
 90
   21
 70
    1
 43
0
 10
61.2648972574892
 20
108.7130762140637
 10
60.78461407556097
 20
108.4879496443507
 10
60.39003745746279
 20
108.136255379688
 10
60.11034710502491
 20
107.677233397807
 10
59.979183726779
 20
107.1575041906595
 10
60.00616936512419
 20
106.6335055309214
 10
60.18445524322028
 20
106.1392037905324
 10
60.50719546105851
 20
105.7085653414324
 10
60.94361271638628
 20
105.3900993784477
 10
61.44454867160048
 20
105.2141746541145
 10
61.97558012000349
 20
105.1875473500587
 10
62.5022848138415
 20
105.3169727016627
 10
62.96746750726464
 20
105.5929589361124
 10
63.32388199666854
 20
105.9823108702672
 10
63.55203007713968
 20
106.4562324089947
 10
63.63241258482058
 20
106.9859293496505
 10
63.49305790837115
 20
107.677233397807
 10
63.09620955233755
 20
108.2632924116246
 10
62.5022848138415
 20
108.6548850513944
 10
61.80170250669801
 20
108.7923941648515
 10
61.80170250669801
 20
108.7923941648515
  0
LWPOLYLINE
  5
16C
100
AcDbEntity
  8
Corte
  6
ByLayer
 62
  256
370
   -1
100
AcDbPolyline
 90
   21
 70
    1
 43
0
 10
55.09347482166066
 20
94.37806024495193
 10
54.61319163973243
 20
94.15293367523894
 10
54.21861502163424
 20
93.80123941057619
 10
53.93892466919637
 20
93.34221742869521
 10
53.80776129095045
 20
92.8224882215477
 10
53.83474692929565
 20
92.29848956180959
 10
54.01303280739174
 20
91.80418782142064
 10
54.33577302522996
 20
91.37354937232058
 10
54.77219028055774
 20
91.05508340933594
 10
55.27312623577193
 20
90.87915868500268
 10
55.80415768417495
 20
90.85253138094696
 10
56.33086237801295
 20
90.98195673255088
 10
56.7960450714361
 20
91.25794296700059
 10
57.15245956083999
 20
91.64729490115539
 10
57.38060764131114
 20
92.12121643988291
 10
57.46099014899203
 20
92.65091338053868
 10
57.3216354725426
 20
93.34221742869521
 10
56.924787116509
 20
93.92827644251287
 10
56.33086237801295
 20
94.31986908228258
 10
55.63028007086947
 20
94.45737819573969
 10
55.63028007086947
 20
94.45737819573969
  0
LINE
  5
16D
100
AcDbEntity
  8
Corte
  6
ByLayer
 62
    1
370
   -1
100
AcDbLine
 10
92.85713825714285
 20
65.00000003
 11
92.85713825714285
 21
130.00000006
  0
LINE
  5
16E
100
AcDbEntity
  8
Corte
  6
ByLayer
 62
    1
370
   -1
100
AcDbLine
 10
92.85713825714285
 20
130.00000006
 11
46.42857052142857
 21
130.00000006
  0
LINE
  5
16F
100
AcDbEntity
  8
Corte
  6
ByLayer
 62
    1
370
   -1
100
AcDbLine
 10
92.85713825714285
 20
65.00000003
 11
46.42857145
 21
65.00000003
  0
LINE
  5
170
100
AcDbEntity
  8
Corte
  6
ByLayer
 62
    1
370
   -1
100
AcDbLine
 10
46.42857052142857
 20
130.00000006
 11
46.42858073571429
 21
65.00000003
  0
ENDSEC
  0
SECTION
  2
OBJECTS
  0
DICTIONARY
  5
C
330
0
100
AcDbDictionary
281
    1
  3
ACAD_GROUP
350
D
  0
DICTIONARY
  5
D
330
C
100
AcDbDictionary
281
    1
  0
PLOTSETTINGS
  5
171
100
AcDbPlotSettings
  6
1x1
 40
0
 41
0
 42
0
 43
0
  0
ENDSEC
  0
EOF
