<?xml version="1.0" encoding="UTF-8" standalone="no"?>
<!-- Created with Inkscape (http://www.inkscape.org/) -->

<svg
   width="210mm"
   height="297mm"
   viewBox="0 0 210 297"
   version="1.1"
   id="svg1"
   inkscape:version="1.4 (e7c3feb100, 2024-10-09)"
   sodipodi:docname="medalhas.svg"
   xmlns:inkscape="http://www.inkscape.org/namespaces/inkscape"
   xmlns:sodipodi="http://sodipodi.sourceforge.net/DTD/sodipodi-0.dtd"
   xmlns="http://www.w3.org/2000/svg"
   xmlns:svg="http://www.w3.org/2000/svg">
  <sodipodi:namedview
     id="namedview1"
     pagecolor="#ffffff"
     bordercolor="#000000"
     borderopacity="0.25"
     inkscape:showpageshadow="2"
     inkscape:pageopacity="0.0"
     inkscape:pagecheckerboard="0"
     inkscape:deskcolor="#d1d1d1"
     inkscape:document-units="mm"
     inkscape:zoom="1.4187617"
     inkscape:cx="432.41933"
     inkscape:cy="702.02063"
     inkscape:window-width="1920"
     inkscape:window-height="1009"
     inkscape:window-x="0"
     inkscape:window-y="34"
     inkscape:window-maximized="1"
     inkscape:current-layer="layer1" />
  <defs
     id="defs1">
    <rect
       x="-95.858238"
       y="733.03359"
       width="428.54271"
       height="214.27136"
       id="rect15" />
  </defs>
  <g
     inkscape:label="Layer 1"
     inkscape:groupmode="layer"
     id="layer1">
    <text
       xml:space="preserve"
       style="font-style:normal;font-variant:normal;font-weight:bold;font-stretch:normal;font-size:12.7px;font-family:'Cross Boxed';-inkscape-font-specification:'Cross Boxed Bold';text-align:end;writing-mode:lr-tb;direction:ltr;text-anchor:end;fill:#000000;stroke:none;stroke-width:0.1"
       x="199.48387"
       y="132.63834"
       id="text4"><tspan
         sodipodi:role="line"
         id="tspan4"
         style="stroke-width:0.1"
         x="199.48387"
         y="132.63834" /></text>
    <text
       xml:space="preserve"
       transform="scale(0.26458333)"
       id="text14"
       style="font-weight:bold;font-size:48px;font-family:'Cross Boxed';-inkscape-font-specification:'Cross Boxed Bold';text-align:center;writing-mode:lr-tb;direction:ltr;white-space:pre;shape-inside:url(#rect15);display:inline;fill:#000000;stroke:#000000;stroke-width:0.377953" />
    <path
       d="m 52.253827,196.76288 3.977286,-23.26713 q 0.33144,-1.98864 1.259474,-3.3144 0.928033,-1.32576 2.121219,-2.12122 1.193186,-0.79546 2.45266,-1.1269 1.259474,-0.39773 2.253795,-0.39773 h 17.765211 q 0.530305,0 0.795458,-0.19886 0.33144,-0.26515 0.397728,-0.59659 0.06629,-0.33144 0.132576,-0.5966 0.06629,-0.33144 0.132577,-0.66288 0.132576,-0.33144 0.132576,-0.59659 0,-0.26515 0,-0.39773 0,-0.13257 -0.06629,-0.26515 0,-0.13258 -0.265153,-0.26515 -0.198864,-0.19887 -0.464016,-0.26516 -0.265153,-0.0663 -0.464017,-0.0663 H 58.08718 l 2.054931,-12.39588 h 34.005796 q 0.994321,0 2.386371,0.46402 1.458339,0.39773 2.717813,1.39205 1.325759,0.92803 2.253799,2.58523 0.92803,1.59092 0.92803,3.97729 0,0.33144 -0.0663,0.72917 0,0.39773 -0.0663,0.72917 l -2.05493,11.86557 q -0.331438,1.98864 -1.259472,3.3144 -0.928033,1.32577 -2.121219,2.12122 -1.193186,0.79546 -2.45266,1.19319 -1.259474,0.33144 -2.253795,0.33144 H 74.394053 q -0.530305,0 -0.861746,0.26515 -0.33144,0.26515 -0.33144,0.53031 L 72.40541,184.367 h 25.719783 l -2.054931,12.39588 z"
       id="text10"
       style="font-weight:bold;font-size:66.2881px;font-family:'Cross Boxed';-inkscape-font-specification:'Cross Boxed Bold';text-align:center;text-anchor:middle;stroke-width:0.521955"
       transform="scale(0.99008978,1.0100094)"
       aria-label="2" />
    <g
       id="text12-7"
       style="font-weight:bold;font-size:5.01489px;font-family:'Cross Boxed';-inkscape-font-specification:'Cross Boxed Bold';text-align:center;text-anchor:middle;stroke-width:0.0394874"
       transform="scale(0.99008978,1.0100094)"
       aria-label="III Gincana&#10;Integradora&#10;do IFG - 2026">
      <path
         d="M 61.368924,201.78029 H 59.94971 l 0.596772,-3.52045 h 1.424229 l -0.160477,0.93778 h -0.491459 q -0.04012,0 -0.06018,0.015 -0.02006,0.01 -0.0351,0.0602 h 0.571698 z m 2.2216,0 H 62.17131 l 0.596772,-3.52045 h 1.424229 l -0.160476,0.93778 h -0.49146 q -0.04012,0 -0.06018,0.015 -0.02006,0.01 -0.0351,0.0602 h 0.571698 z m 2.221601,0 h -1.419214 l 0.596772,-3.52045 h 1.424228 l -0.160476,0.93778 h -0.491459 q -0.04012,0 -0.06018,0.015 -0.02006,0.01 -0.0351,0.0602 h 0.571697 z m 1.755219,-0.63689 q 0,-0.0251 0,-0.0552 0.005,-0.0301 0.01003,-0.0552 l 0.381131,-2.24667 q 0.02508,-0.15045 0.09528,-0.25075 0.07021,-0.10029 0.160477,-0.16047 0.09027,-0.0602 0.185551,-0.0853 0.09528,-0.0301 0.170506,-0.0301 h 3.194485 l -0.160476,0.93778 h -2.843443 q -0.04012,0 -0.06519,0.015 -0.02006,0.0151 -0.03009,0.0602 h 0.576712 l -0.270804,1.56966 h 0.987934 l 0.08525,-0.41122 h -0.586742 l 0.170506,-0.93778 h 1.935747 l -0.310923,1.76023 q -0.02507,0.15044 -0.09528,0.25074 -0.07021,0.1003 -0.160476,0.16048 -0.09027,0.0602 -0.185551,0.0903 -0.09528,0.0251 -0.170506,0.0251 H 68.18919 q -0.07522,0 -0.180536,-0.0301 -0.105312,-0.0351 -0.20561,-0.10531 -0.09528,-0.0752 -0.165492,-0.19558 -0.07021,-0.12538 -0.07021,-0.30591 z m 6.368912,-2.88356 -0.601786,3.52045 h -1.419214 l 0.596772,-3.52045 z m 0.747223,0 h 3.149351 q 0.07522,0 0.180536,0.0351 0.110328,0.0301 0.205611,0.10531 0.100298,0.0702 0.165491,0.19558 0.07021,0.12036 0.07021,0.3009 0,0.0251 -0.005,0.0552 0,0.0301 -0.005,0.0552 l -0.4714,2.77324 h -1.36405 l 0.01505,-0.0953 q 0.01003,-0.0401 0.03009,-0.16048 0.02508,-0.12036 0.05516,-0.29588 0.03009,-0.17552 0.06519,-0.38615 0.0351,-0.21564 0.07021,-0.43128 0.04012,-0.22065 0.07522,-0.42626 0.03511,-0.20561 0.06018,-0.36107 0.03009,-0.16048 0.04513,-0.25576 0.01504,-0.1003 0.01504,-0.10532 0,-0.0301 -0.0351,-0.0451 -0.0351,-0.0201 -0.06018,-0.0201 h -1.053127 l -0.44131,2.58267 h -1.364051 z m 7.181326,3.52045 h -2.687981 q -0.07522,0 -0.180536,-0.0301 -0.105313,-0.0351 -0.20561,-0.10531 -0.09528,-0.0752 -0.165492,-0.19558 -0.07021,-0.12538 -0.07021,-0.30591 0,-0.0251 0,-0.0552 0.005,-0.0301 0.01003,-0.0552 l 0.381132,-2.24667 q 0.02508,-0.15045 0.09528,-0.25075 0.07021,-0.10029 0.160477,-0.16047 0.09027,-0.0602 0.18555,-0.0853 0.09528,-0.0301 0.170507,-0.0301 h 2.903621 l -0.155461,0.93778 h -1.980882 q -0.04012,0 -0.06519,0.0201 -0.02507,0.015 -0.03009,0.0401 -0.005,0.0251 -0.02006,0.10531 -0.01003,0.0752 -0.03009,0.18555 -0.02006,0.11033 -0.04513,0.24573 -0.02006,0.13039 -0.04513,0.26579 -0.02006,0.14042 -0.04513,0.27081 -0.02006,0.12537 -0.04012,0.22567 -0.01505,0.0953 -0.02508,0.15546 -0.01003,0.0602 -0.01003,0.0652 0,0.0301 0.0351,0.0502 0.0351,0.015 0.06018,0.015 h 1.960822 z m 0.501481,0 0.957844,-3.52045 h 1.920703 q 0.07522,0 0.175521,0.0301 0.100298,0.0251 0.19558,0.0953 0.09528,0.0652 0.165492,0.17552 0.07021,0.10531 0.08525,0.26579 l 0.300893,2.95377 h -1.303871 l -0.05015,-0.50651 h -0.997963 l -0.140417,0.50651 z m 2.351983,-1.44429 -0.110328,-1.0782 q -0.005,-0.0201 -0.03009,-0.0401 -0.02507,-0.0201 -0.06519,-0.0201 h -0.130388 l -0.310923,1.13838 z m 2.346973,-2.07616 h 3.149351 q 0.07522,0 0.180536,0.0351 0.110327,0.0301 0.20561,0.10531 0.100298,0.0702 0.165492,0.19558 0.07021,0.12036 0.07021,0.3009 0,0.0251 -0.005,0.0552 0,0.0301 -0.005,0.0552 l -0.471399,2.77324 h -1.36405 l 0.01504,-0.0953 q 0.01003,-0.0401 0.03009,-0.16048 0.02507,-0.12036 0.05516,-0.29588 0.03009,-0.17552 0.06519,-0.38615 0.0351,-0.21564 0.07021,-0.43128 0.04012,-0.22065 0.07522,-0.42626 0.0351,-0.20561 0.06018,-0.36107 0.03009,-0.16048 0.04513,-0.25576 0.01504,-0.1003 0.01504,-0.10532 0,-0.0301 -0.0351,-0.0451 -0.0351,-0.0201 -0.06018,-0.0201 H 88.27383 l -0.44131,2.58267 h -1.36405 z m 3.871499,3.52045 0.957844,-3.52045 h 1.920703 q 0.07522,0 0.175521,0.0301 0.100298,0.0251 0.195581,0.0953 0.09528,0.0652 0.165491,0.17552 0.07021,0.10531 0.08525,0.26579 l 0.300894,2.95377 h -1.303872 l -0.05015,-0.50651 h -0.997964 l -0.140417,0.50651 z m 2.351984,-1.44429 -0.110328,-1.0782 q -0.005,-0.0201 -0.03009,-0.0401 -0.02508,-0.0201 -0.06519,-0.0201 h -0.130387 l -0.310923,1.13838 z"
         id="path36" />
      <path
         d="m 57.013503,208.0489 h -1.419214 l 0.596772,-3.52045 h 1.424228 l -0.160476,0.93778 h -0.491459 q -0.04012,0 -0.06018,0.0151 -0.02006,0.01 -0.0351,0.0602 h 0.571697 z m 1.349009,-3.52045 h 3.149351 q 0.07522,0 0.180536,0.0351 0.110328,0.0301 0.205611,0.10532 0.100297,0.0702 0.165491,0.19558 0.07021,0.12035 0.07021,0.30089 0,0.0251 -0.005,0.0552 0,0.0301 -0.005,0.0552 l -0.4714,2.77323 h -1.36405 l 0.01505,-0.0953 q 0.01003,-0.0401 0.03009,-0.16048 0.02507,-0.12036 0.05516,-0.29588 0.03009,-0.17552 0.06519,-0.38614 0.03511,-0.21564 0.07021,-0.43128 0.04012,-0.22066 0.07522,-0.42627 0.0351,-0.20561 0.06018,-0.36107 0.03009,-0.16048 0.04513,-0.25576 0.01504,-0.1003 0.01504,-0.10531 0,-0.0301 -0.0351,-0.0451 -0.0351,-0.0201 -0.06018,-0.0201 h -1.053127 l -0.441311,2.58267 h -1.36405 z m 3.971799,0.93778 0.160477,-0.93778 h 3.635795 l -0.160476,0.93778 h -1.118321 l -0.436295,2.58267 h -1.36405 l 0.44131,-2.58267 z m 5.17035,1.23367 q -0.01003,0.0351 -0.01505,0.0802 -0.005,0.0401 -0.01505,0.0802 -0.005,0.0351 -0.01003,0.0702 -0.005,0.0301 -0.01003,0.0552 0,0.01 -0.005,0.0351 0,0.0201 -0.005,0.0251 0,0.0301 0.0351,0.0502 0.0351,0.0151 0.06018,0.0151 h 1.845479 l -0.160476,0.93778 h -2.572639 q -0.07522,0 -0.180536,-0.0301 -0.105312,-0.0351 -0.20561,-0.10531 -0.09528,-0.0752 -0.165492,-0.19558 -0.07021,-0.12537 -0.07021,-0.30591 0,-0.0251 0,-0.0552 0.005,-0.0301 0.01003,-0.0552 l 0.381131,-2.24667 q 0.02508,-0.15044 0.09528,-0.25074 0.07021,-0.1003 0.160477,-0.16048 0.09027,-0.0602 0.185551,-0.0853 0.09528,-0.0301 0.170506,-0.0301 h 2.793294 l -0.160477,0.93778 h -1.865539 q -0.04012,0 -0.06519,0.0201 -0.02508,0.0151 -0.03009,0.0401 l -0.04012,0.2357 h 1.614795 l -0.170506,0.93779 z m 4.107197,-1.23367 -0.280834,1.64489 h 0.987934 l 0.08525,-0.41122 h -0.586742 l 0.170506,-0.93779 h 1.935748 l -0.310924,1.76023 q -0.02507,0.15044 -0.09528,0.25074 -0.07021,0.1003 -0.160476,0.16048 -0.09027,0.0602 -0.185551,0.0903 -0.09528,0.0251 -0.170506,0.0251 h -2.452282 q -0.07522,0 -0.180536,-0.0301 -0.105312,-0.0351 -0.20561,-0.10531 -0.09528,-0.0752 -0.165491,-0.19558 -0.07021,-0.12537 -0.07021,-0.30591 0,-0.0251 0,-0.0552 0.005,-0.0301 0.01003,-0.0552 l 0.381132,-2.24667 q 0.02507,-0.15044 0.09528,-0.25074 0.07021,-0.1003 0.160477,-0.16048 0.09027,-0.0602 0.185551,-0.0853 0.09528,-0.0301 0.170506,-0.0301 h 3.194485 l -0.160476,0.93778 z m 2.612759,2.58267 0.596772,-3.52045 h 2.918666 q 0.07522,0 0.180536,0.0351 0.110328,0.0301 0.205611,0.10532 0.100297,0.0702 0.165491,0.19558 0.07021,0.12035 0.07021,0.30089 0,0.0251 0,0.0552 0,0.0301 -0.01003,0.0552 l -0.220656,1.29384 q -0.02006,0.1354 -0.08024,0.23068 -0.06018,0.0953 -0.140417,0.15547 -0.08024,0.0602 -0.170506,0.0953 -0.08525,0.0301 -0.160476,0.0401 l 0.19558,0.95784 h -1.248707 l -0.195581,-0.95283 h -0.581727 l -0.160477,0.95283 z m 2.53252,-1.89061 q 0.04012,0 0.06519,-0.0201 0.02508,-0.0201 0.03009,-0.0401 0.005,-0.0301 0.02006,-0.11534 0.01505,-0.0903 0.03009,-0.19057 0.02508,-0.1003 0.03009,-0.18054 0.005,-0.02 0.005,-0.0351 0.005,-0.015 0.005,-0.0301 0.005,-0.005 0.005,-0.01 v -0.005 q 0,-0.0301 -0.0351,-0.0451 -0.0351,-0.0201 -0.06018,-0.0201 h -0.822442 l -0.120357,0.69206 z m 1.604759,1.89061 0.957845,-3.52045 h 1.920702 q 0.07522,0 0.175522,0.0301 0.100297,0.0251 0.19558,0.0953 0.09528,0.0652 0.165492,0.17552 0.07021,0.10531 0.08525,0.26579 l 0.300893,2.95377 h -1.303871 l -0.05015,-0.5065 H 79.8112 l -0.140417,0.5065 z m 2.351984,-1.44429 -0.110328,-1.0782 q -0.005,-0.0201 -0.03009,-0.0401 -0.02507,-0.0201 -0.06519,-0.0201 h -0.130387 l -0.310923,1.13838 z m 4.448212,-1.1133 q -0.01505,-0.0151 -0.03511,-0.0201 -0.02006,-0.005 -0.0351,-0.005 h -0.822442 l -0.280834,1.64489 h 0.847517 q 0.04012,0 0.06018,-0.0151 0.02507,-0.0201 0.03009,-0.0451 0.005,-0.0251 0.02006,-0.1003 0.01505,-0.0802 0.03009,-0.19057 0.02006,-0.11032 0.04513,-0.24071 0.02507,-0.1354 0.04513,-0.2708 0.02507,-0.14042 0.04513,-0.26579 0.02507,-0.13039 0.04012,-0.22567 0.01505,-0.1003 0.02507,-0.16048 0.01003,-0.0602 0.01003,-0.0652 0,-0.0201 -0.02507,-0.0401 z m 1.439273,-0.32597 q 0,0.0251 0,0.0552 0,0.0301 -0.01003,0.0552 l -0.381131,2.24667 q -0.02508,0.15044 -0.09528,0.25074 -0.07021,0.1003 -0.160477,0.16048 -0.09027,0.0602 -0.185551,0.0903 -0.09528,0.0251 -0.170506,0.0251 h -3.134306 l 0.596772,-3.52045 h 2.918666 q 0.07522,0 0.180536,0.0351 0.110327,0.0301 0.20561,0.10532 0.100298,0.0702 0.165492,0.19558 0.07021,0.12035 0.07021,0.30089 z m 1.835449,0.36107 q -0.005,0.0251 -0.02006,0.10531 -0.01003,0.0752 -0.03009,0.18556 -0.01504,0.11032 -0.04012,0.24572 -0.02006,0.13039 -0.04513,0.26579 -0.02006,0.14042 -0.04513,0.27081 -0.02006,0.12537 -0.0351,0.22567 -0.01505,0.0953 -0.02508,0.15546 -0.01003,0.0602 -0.01003,0.0652 0,0.01 0,0.0201 0.005,0.01 0.02507,0.0201 0.01505,0.0151 0.0351,0.0201 0.02006,0.005 0.03009,0.005 h 1.043097 q 0.04012,0 0.06519,-0.0151 0.02507,-0.0201 0.03009,-0.0451 0.005,-0.0251 0.01504,-0.1003 0.01505,-0.0802 0.03511,-0.19057 0.02006,-0.11032 0.04012,-0.24071 0.02507,-0.1354 0.04513,-0.2708 0.02507,-0.14042 0.04513,-0.26579 0.02507,-0.13039 0.04012,-0.22567 0.01505,-0.1003 0.02507,-0.16048 0.01003,-0.0602 0.01003,-0.0652 0,-0.0201 -0.02507,-0.0401 -0.01505,-0.0151 -0.03511,-0.0201 -0.02006,-0.005 -0.0351,-0.005 h -1.043097 q -0.04012,0 -0.06519,0.0201 -0.02508,0.0151 -0.03009,0.0401 z m 1.990912,-0.99796 q 0.07522,0 0.180536,0.0351 0.110327,0.0301 0.20561,0.10532 0.100298,0.0702 0.165492,0.19558 0.07021,0.12035 0.07021,0.30089 0,0.0251 0,0.0552 0,0.0301 -0.005,0.0552 l -0.386146,2.24667 q -0.02508,0.15044 -0.09528,0.25074 -0.07021,0.1003 -0.160477,0.16048 -0.09027,0.0602 -0.185551,0.0903 -0.09528,0.0251 -0.170506,0.0251 h -2.622788 q -0.07522,0 -0.180536,-0.0301 -0.105312,-0.0351 -0.20561,-0.10531 -0.09528,-0.0752 -0.165492,-0.19558 -0.07021,-0.12537 -0.07021,-0.30591 0,-0.0251 0,-0.0552 0.005,-0.0301 0.01003,-0.0552 l 0.381131,-2.24667 q 0.02508,-0.15044 0.09528,-0.25074 0.07021,-0.1003 0.160477,-0.16048 0.09027,-0.0602 0.185551,-0.0853 0.09528,-0.0301 0.170506,-0.0301 z m 0.727158,3.52045 0.596772,-3.52045 h 2.918666 q 0.07522,0 0.180536,0.0351 0.110328,0.0301 0.205611,0.10532 0.100298,0.0702 0.165491,0.19558 0.07021,0.12035 0.07021,0.30089 0,0.0251 0,0.0552 0,0.0301 -0.01003,0.0552 l -0.220655,1.29384 q -0.02006,0.1354 -0.08024,0.23068 -0.06018,0.0953 -0.140417,0.15547 -0.08024,0.0602 -0.170507,0.0953 -0.08525,0.0301 -0.160476,0.0401 l 0.195581,0.95784 h -1.248708 l -0.195581,-0.95283 h -0.581727 l -0.160477,0.95283 z m 2.53252,-1.89061 q 0.04012,0 0.06519,-0.0201 0.02508,-0.0201 0.03009,-0.0401 0.005,-0.0301 0.02006,-0.11534 0.01505,-0.0903 0.03009,-0.19057 0.02507,-0.1003 0.03009,-0.18054 0.005,-0.02 0.005,-0.0351 0.005,-0.015 0.005,-0.0301 0.005,-0.005 0.005,-0.01 v -0.005 q 0,-0.0301 -0.03511,-0.0451 -0.0351,-0.0201 -0.06018,-0.0201 h -0.822442 l -0.120358,0.69206 z m 1.60476,1.89061 0.957844,-3.52045 h 1.920703 q 0.07522,0 0.175521,0.0301 0.100298,0.0251 0.195581,0.0953 0.09528,0.0652 0.165491,0.17552 0.07021,0.10531 0.08525,0.26579 l 0.300894,2.95377 h -1.303872 l -0.05015,-0.5065 h -0.997963 l -0.140417,0.5065 z m 2.351983,-1.44429 -0.110327,-1.0782 q -0.005,-0.0201 -0.03009,-0.0401 -0.02507,-0.0201 -0.06519,-0.0201 H 97.30815 l -0.310924,1.13838 z"
         id="path37" />
      <path
         d="m 59.784215,211.75992 q -0.01505,-0.015 -0.03511,-0.0201 -0.02006,-0.005 -0.0351,-0.005 h -0.822442 l -0.280834,1.64488 h 0.847517 q 0.04012,0 0.06018,-0.015 0.02508,-0.0201 0.03009,-0.0451 0.005,-0.0251 0.02006,-0.1003 0.01505,-0.0802 0.03009,-0.19056 0.02006,-0.11033 0.04513,-0.24072 0.02507,-0.1354 0.04513,-0.2708 0.02507,-0.14042 0.04513,-0.26579 0.02507,-0.13039 0.04012,-0.22567 0.01504,-0.1003 0.02507,-0.16048 0.01003,-0.0602 0.01003,-0.0652 0,-0.0201 -0.02507,-0.0401 z m 1.439273,-0.32597 q 0,0.0251 0,0.0552 0,0.0301 -0.01003,0.0552 l -0.381131,2.24667 q -0.02508,0.15045 -0.09528,0.25075 -0.07021,0.10029 -0.160477,0.16047 -0.09027,0.0602 -0.185551,0.0903 -0.09528,0.0251 -0.170506,0.0251 h -3.134306 l 0.596772,-3.52045 h 2.918666 q 0.07522,0 0.180536,0.0351 0.110327,0.0301 0.20561,0.10531 0.100298,0.0702 0.165492,0.19558 0.07021,0.12036 0.07021,0.30089 z m 1.835449,0.36107 q -0.005,0.0251 -0.02006,0.10532 -0.01003,0.0752 -0.03009,0.18555 -0.01505,0.11033 -0.04012,0.24573 -0.02006,0.13038 -0.04513,0.26579 -0.02006,0.14041 -0.04513,0.2708 -0.02006,0.12537 -0.0351,0.22567 -0.01504,0.0953 -0.02507,0.15546 -0.01003,0.0602 -0.01003,0.0652 0,0.01 0,0.0201 0.005,0.01 0.02508,0.0201 0.01504,0.015 0.0351,0.02 0.02006,0.005 0.03009,0.005 h 1.043097 q 0.04012,0 0.06519,-0.015 0.02507,-0.0201 0.03009,-0.0451 0.005,-0.0251 0.01505,-0.1003 0.01504,-0.0802 0.0351,-0.19056 0.02006,-0.11033 0.04012,-0.24072 0.02507,-0.1354 0.04513,-0.2708 0.02508,-0.14042 0.04513,-0.26579 0.02508,-0.13039 0.04012,-0.22567 0.01505,-0.1003 0.02508,-0.16048 0.01003,-0.0602 0.01003,-0.0652 0,-0.0201 -0.02507,-0.0401 -0.01505,-0.015 -0.0351,-0.0201 -0.02006,-0.005 -0.0351,-0.005 h -1.043098 q -0.04012,0 -0.06519,0.0201 -0.02507,0.015 -0.03009,0.0401 z m 1.990911,-0.99796 q 0.07522,0 0.180536,0.0351 0.110328,0.0301 0.205611,0.10531 0.100297,0.0702 0.165491,0.19558 0.07021,0.12036 0.07021,0.30089 0,0.0251 0,0.0552 0,0.0301 -0.005,0.0552 l -0.386146,2.24667 q -0.02508,0.15045 -0.09528,0.25075 -0.07021,0.10029 -0.160476,0.16047 -0.09027,0.0602 -0.185551,0.0903 -0.09528,0.0251 -0.170507,0.0251 h -2.622787 q -0.07522,0 -0.180536,-0.0301 -0.105313,-0.0351 -0.205611,-0.10531 -0.09528,-0.0752 -0.165491,-0.19558 -0.07021,-0.12537 -0.07021,-0.30591 0,-0.0251 0,-0.0552 0.005,-0.0301 0.01003,-0.0552 l 0.381132,-2.24668 q 0.02507,-0.15044 0.09528,-0.25074 0.07021,-0.1003 0.160476,-0.16048 0.09027,-0.0602 0.185551,-0.0853 0.09528,-0.0301 0.170506,-0.0301 z m 3.199504,3.52045 h -1.419214 l 0.596772,-3.52045 h 1.424229 l -0.160477,0.93779 h -0.491459 q -0.04012,0 -0.06018,0.015 -0.02006,0.01 -0.03511,0.0602 h 0.571698 z m 2.066139,-2.58266 q -0.04513,0 -0.06519,0.015 -0.02006,0.0151 -0.03009,0.0602 h 0.571698 l -0.105313,0.61683 h 1.59975 l -0.175521,0.93779 h -1.584706 l -0.160476,0.95282 h -1.36405 l 0.511519,-2.99389 q 0.02507,-0.15044 0.09528,-0.25074 0.07021,-0.1003 0.160476,-0.16048 0.09027,-0.0602 0.185551,-0.0853 0.09528,-0.0301 0.170506,-0.0301 h 2.672937 l -0.160477,0.93779 z m 2.58267,1.94577 q 0,-0.0251 0,-0.0552 0.005,-0.0301 0.01003,-0.0552 l 0.381131,-2.24668 q 0.02508,-0.15044 0.09528,-0.25074 0.07021,-0.1003 0.160477,-0.16048 0.09027,-0.0602 0.185551,-0.0853 0.09528,-0.0301 0.170506,-0.0301 h 3.194485 l -0.160476,0.93779 h -2.843443 q -0.04012,0 -0.06519,0.015 -0.02006,0.0151 -0.03009,0.0602 h 0.576712 l -0.270804,1.56966 h 0.987934 l 0.08525,-0.41122 h -0.586742 l 0.170506,-0.93779 h 1.935747 l -0.310923,1.76023 q -0.02507,0.15045 -0.09528,0.25075 -0.07021,0.10029 -0.160476,0.16047 -0.09027,0.0602 -0.185551,0.0903 -0.09528,0.0251 -0.170506,0.0251 h -2.452282 q -0.07522,0 -0.180536,-0.0301 -0.105312,-0.0351 -0.20561,-0.10531 -0.09528,-0.0752 -0.165492,-0.19558 -0.07021,-0.12537 -0.07021,-0.30591 z m 7.838279,-1.58972 -0.160477,0.93277 h -2.377058 l 0.160477,-0.93277 z m 1.103285,2.22661 0.300893,-1.76022 q 0.02507,-0.15045 0.09528,-0.25075 0.07021,-0.10029 0.160476,-0.16047 0.09027,-0.0602 0.185551,-0.0853 0.09528,-0.0301 0.170507,-0.0301 h 1.34399 q 0.04012,0 0.06018,-0.015 0.02507,-0.0201 0.03009,-0.0451 0.005,-0.0251 0.01003,-0.0451 0.005,-0.0251 0.01003,-0.0502 0.01003,-0.0251 0.01003,-0.0451 0,-0.0201 0,-0.0301 0,-0.01 -0.005,-0.0201 0,-0.01 -0.02006,-0.0201 -0.01505,-0.015 -0.0351,-0.0201 -0.02006,-0.005 -0.0351,-0.005 h -1.840465 l 0.155462,-0.93779 h 2.572638 q 0.07522,0 0.180536,0.0351 0.110328,0.0301 0.205611,0.10531 0.100298,0.0702 0.170506,0.19558 0.07021,0.12036 0.07021,0.30089 0,0.0251 -0.005,0.0552 0,0.0301 -0.005,0.0552 l -0.155462,0.89767 q -0.02507,0.15044 -0.09528,0.25074 -0.07021,0.1003 -0.160476,0.16048 -0.09027,0.0602 -0.185551,0.0903 -0.09528,0.0251 -0.170506,0.0251 h -1.343991 q -0.04012,0 -0.06519,0.0201 -0.02507,0.0201 -0.02507,0.0401 l -0.06018,0.35104 h 1.945778 l -0.155462,0.93778 z m 4.518418,0 q -0.07522,0 -0.180536,-0.0301 -0.105313,-0.0351 -0.20561,-0.10531 -0.09528,-0.0752 -0.165492,-0.19558 -0.07021,-0.12537 -0.07021,-0.30591 0,-0.0251 0,-0.0552 0.005,-0.0301 0.01003,-0.0552 l 0.381131,-2.24668 q 0.02508,-0.15044 0.09528,-0.25074 0.07021,-0.1003 0.160477,-0.16048 0.09027,-0.0602 0.185551,-0.0853 0.09528,-0.0301 0.170506,-0.0301 h 2.397117 q 0.07522,0 0.180536,0.0351 0.110328,0.0301 0.205611,0.10531 0.100298,0.0702 0.165491,0.19558 0.07021,0.12036 0.07021,0.30089 0,0.0251 -0.005,0.0552 0,0.0301 -0.005,0.0552 l -0.381132,2.24667 q -0.02507,0.15045 -0.100298,0.25075 -0.07021,0.10029 -0.160476,0.16047 -0.09027,0.0602 -0.185551,0.0903 -0.09528,0.0251 -0.170506,0.0251 z m 0.972889,-0.93778 h 0.702084 q 0.0351,0 0.06018,-0.015 0.02508,-0.0201 0.03009,-0.0451 l 0.220656,-1.02304 z m 0.89265,-1.64488 h -0.762263 q -0.0351,0 -0.06018,0.0201 -0.02507,0.015 -0.03009,0.0401 l -0.220655,1.08322 z m 1.634857,2.58266 0.300893,-1.76022 q 0.02508,-0.15045 0.09528,-0.25075 0.07021,-0.10029 0.160477,-0.16047 0.09027,-0.0602 0.18555,-0.0853 0.09528,-0.0301 0.170507,-0.0301 h 1.34399 q 0.04012,0 0.06018,-0.015 0.02507,-0.0201 0.03009,-0.0451 0.005,-0.0251 0.01003,-0.0451 0.005,-0.0251 0.01003,-0.0502 0.01003,-0.0251 0.01003,-0.0451 0,-0.0201 0,-0.0301 0,-0.01 -0.005,-0.0201 0,-0.01 -0.02006,-0.0201 -0.01504,-0.015 -0.0351,-0.0201 -0.02006,-0.005 -0.0351,-0.005 h -1.840465 l 0.155462,-0.93779 h 2.572638 q 0.07522,0 0.180536,0.0351 0.110328,0.0301 0.205611,0.10531 0.100298,0.0702 0.170506,0.19558 0.07021,0.12036 0.07021,0.30089 0,0.0251 -0.005,0.0552 0,0.0301 -0.005,0.0552 l -0.155462,0.89767 q -0.02507,0.15044 -0.09528,0.25074 -0.07021,0.1003 -0.160476,0.16048 -0.09027,0.0602 -0.185551,0.0903 -0.09528,0.0251 -0.170506,0.0251 h -1.343991 q -0.04012,0 -0.06519,0.0201 -0.02507,0.0201 -0.02507,0.0401 l -0.06018,0.35104 h 1.945778 l -0.155462,0.93778 z m 4.518418,0 q -0.07522,0 -0.180536,-0.0301 -0.105313,-0.0351 -0.20561,-0.10531 -0.09528,-0.0752 -0.165492,-0.19558 -0.07021,-0.12537 -0.07021,-0.30591 0,-0.0251 0,-0.0552 0.005,-0.0301 0.01003,-0.0552 l 0.381131,-2.24668 q 0.02508,-0.15044 0.09528,-0.25074 0.07021,-0.1003 0.160477,-0.16048 0.09027,-0.0602 0.185551,-0.0853 0.09528,-0.0301 0.170506,-0.0301 h 2.793294 l -0.160477,0.93779 h -1.865539 q -0.04012,0 -0.06519,0.0201 -0.02507,0.015 -0.03009,0.0401 l -0.04012,0.2357 h 1.303871 q 0.07522,0 0.180537,0.0351 0.110327,0.0301 0.20561,0.10531 0.100298,0.0752 0.165491,0.19558 0.07021,0.12036 0.07021,0.3009 0,0.0301 0,0.0602 0,0.0251 -0.01003,0.0502 l -0.170506,1.01301 q -0.02508,0.15045 -0.09528,0.25075 -0.07021,0.10029 -0.160477,0.16047 -0.09027,0.0602 -0.185551,0.0903 -0.09528,0.0251 -0.170506,0.0251 z m 0.852532,-1.349 -0.07021,0.41122 h 0.601787 q 0.04012,0 0.06018,-0.015 0.02507,-0.0201 0.03009,-0.0451 l 0.04513,-0.24071 q 0.005,-0.0251 0.005,-0.0451 0,-0.01 -0.005,-0.0201 0,-0.01 -0.02006,-0.0201 -0.0351,-0.0251 -0.07021,-0.0251 z"
         id="path38" />
    </g>
    <path
       id="rect17"
       style="fill:none;stroke:#000000;stroke-width:0.0415586"
       d="M 61.873207,148.31921 H 91.28154 v 2 H 61.873207 Z" />
    <path
       d="M 32.908763,196.76288 H 15.408704 l 6.164793,-34.13837 h -9.214046 l 2.12122,-12.39588 h 26.846681 z"
       id="text6"
       style="font-weight:bold;font-size:66.2881px;font-family:'Cross Boxed';-inkscape-font-specification:'Cross Boxed Bold';text-align:center;text-anchor:middle;stroke-width:0.521958"
       transform="scale(0.99008978,1.0100094)"
       aria-label="1" />
    <g
       id="text12-7-6"
       style="font-weight:bold;font-size:5.01489px;font-family:'Cross Boxed';-inkscape-font-specification:'Cross Boxed Bold';text-align:center;text-anchor:middle;stroke-width:0.0394874"
       transform="scale(0.99008978,1.0100094)"
       aria-label="III Gincana&#10;Integradora&#10;do IFG - 2026">
      <path
         d="M 10.868445,201.78029 H 9.4492313 l 0.5967717,-3.52045 h 1.424229 l -0.160476,0.93778 h -0.49146 q -0.04012,0 -0.06018,0.015 -0.02006,0.01 -0.0351,0.0602 h 0.571698 z m 2.221601,0 h -1.419214 l 0.596772,-3.52045 h 1.424228 l -0.160476,0.93778 h -0.491459 q -0.04012,0 -0.06018,0.015 -0.02006,0.01 -0.0351,0.0602 h 0.571697 z m 2.2216,0 h -1.419214 l 0.596772,-3.52045 h 1.424229 l -0.160477,0.93778 h -0.491459 q -0.04012,0 -0.06018,0.015 -0.02006,0.01 -0.0351,0.0602 h 0.571698 z m 1.755219,-0.63689 q 0,-0.0251 0,-0.0552 0.005,-0.0301 0.01003,-0.0552 l 0.381132,-2.24667 q 0.02507,-0.15045 0.09528,-0.25075 0.07021,-0.10029 0.160476,-0.16047 0.09027,-0.0602 0.185551,-0.0853 0.09528,-0.0301 0.170506,-0.0301 h 3.194485 l -0.160476,0.93778 h -2.843443 q -0.04012,0 -0.06519,0.015 -0.02006,0.0151 -0.03009,0.0602 h 0.576713 l -0.270805,1.56966 h 0.987934 l 0.08525,-0.41122 h -0.586742 l 0.170506,-0.93778 h 1.935748 l -0.310923,1.76023 q -0.02508,0.15044 -0.09528,0.25074 -0.07021,0.1003 -0.160477,0.16048 -0.09027,0.0602 -0.185551,0.0903 -0.09528,0.0251 -0.170506,0.0251 h -2.452281 q -0.07522,0 -0.180536,-0.0301 -0.105313,-0.0351 -0.205611,-0.10531 -0.09528,-0.0752 -0.165491,-0.19558 -0.07021,-0.12538 -0.07021,-0.30591 z m 6.368913,-2.88356 -0.601787,3.52045 h -1.419214 l 0.596772,-3.52045 z m 0.747223,0 h 3.149351 q 0.07522,0 0.180536,0.0351 0.110327,0.0301 0.20561,0.10531 0.100298,0.0702 0.165492,0.19558 0.07021,0.12036 0.07021,0.3009 0,0.0251 -0.005,0.0552 0,0.0301 -0.005,0.0552 l -0.471399,2.77324 h -1.364051 l 0.01505,-0.0953 q 0.01003,-0.0401 0.03009,-0.16048 0.02508,-0.12036 0.05516,-0.29588 0.03009,-0.17552 0.06519,-0.38615 0.0351,-0.21564 0.07021,-0.43128 0.04012,-0.22065 0.07522,-0.42626 0.0351,-0.20561 0.06018,-0.36107 0.03009,-0.16048 0.04513,-0.25576 0.01505,-0.1003 0.01505,-0.10532 0,-0.0301 -0.0351,-0.0451 -0.03511,-0.0201 -0.06018,-0.0201 h -1.053127 l -0.44131,2.58267 h -1.36405 z m 7.181325,3.52045 h -2.687981 q -0.07522,0 -0.180536,-0.0301 -0.105312,-0.0351 -0.20561,-0.10531 -0.09528,-0.0752 -0.165492,-0.19558 -0.07021,-0.12538 -0.07021,-0.30591 0,-0.0251 0,-0.0552 0.005,-0.0301 0.01003,-0.0552 l 0.381131,-2.24667 q 0.02508,-0.15045 0.09528,-0.25075 0.07021,-0.10029 0.160477,-0.16047 0.09027,-0.0602 0.185551,-0.0853 0.09528,-0.0301 0.170506,-0.0301 h 2.903621 l -0.155461,0.93778 h -1.980882 q -0.04012,0 -0.06519,0.0201 -0.02507,0.015 -0.03009,0.0401 -0.005,0.0251 -0.02006,0.10531 -0.01003,0.0752 -0.03009,0.18555 -0.02006,0.11033 -0.04513,0.24573 -0.02006,0.13039 -0.04513,0.26579 -0.02006,0.14042 -0.04513,0.27081 -0.02006,0.12537 -0.04012,0.22567 -0.01504,0.0953 -0.02507,0.15546 -0.01003,0.0602 -0.01003,0.0652 0,0.0301 0.0351,0.0502 0.0351,0.015 0.06018,0.015 h 1.960822 z m 0.501481,0 0.957844,-3.52045 h 1.920703 q 0.07522,0 0.175521,0.0301 0.100298,0.0251 0.195581,0.0953 0.09528,0.0652 0.165491,0.17552 0.07021,0.10531 0.08525,0.26579 l 0.300894,2.95377 h -1.303872 l -0.05015,-0.50651 H 33.31511 l -0.140417,0.50651 z m 2.351983,-1.44429 -0.110327,-1.0782 q -0.005,-0.0201 -0.03009,-0.0401 -0.02507,-0.0201 -0.06519,-0.0201 H 33.881793 L 33.57087,200.336 Z m 2.346973,-2.07616 h 3.149351 q 0.07522,0 0.180536,0.0351 0.110328,0.0301 0.205611,0.10531 0.100297,0.0702 0.165491,0.19558 0.07021,0.12036 0.07021,0.3009 0,0.0251 -0.005,0.0552 0,0.0301 -0.005,0.0552 l -0.4714,2.77324 h -1.36405 l 0.01505,-0.0953 q 0.01003,-0.0401 0.03009,-0.16048 0.02507,-0.12036 0.05516,-0.29588 0.03009,-0.17552 0.06519,-0.38615 0.03511,-0.21564 0.07021,-0.43128 0.04012,-0.22065 0.07522,-0.42626 0.0351,-0.20561 0.06018,-0.36107 0.03009,-0.16048 0.04513,-0.25576 0.01504,-0.1003 0.01504,-0.10532 0,-0.0301 -0.0351,-0.0451 -0.0351,-0.0201 -0.06018,-0.0201 h -1.053127 l -0.441311,2.58267 h -1.36405 z m 3.871499,3.52045 0.957844,-3.52045 h 1.920703 q 0.07522,0 0.175522,0.0301 0.100297,0.0251 0.19558,0.0953 0.09528,0.0652 0.165492,0.17552 0.07021,0.10531 0.08525,0.26579 l 0.300893,2.95377 h -1.303871 l -0.05015,-0.50651 h -0.997963 l -0.140417,0.50651 z m 2.351984,-1.44429 -0.110328,-1.0782 q -0.005,-0.0201 -0.03009,-0.0401 -0.02507,-0.0201 -0.06519,-0.0201 h -0.130387 l -0.310923,1.13838 z"
         id="path33" />
      <path
         d="M 6.5130239,208.0489 H 5.09381 l 0.5967719,-3.52045 h 1.4242288 l -0.1604764,0.93778 H 6.462875 q -0.040119,0 -0.060179,0.0151 -0.020059,0.01 -0.035104,0.0602 h 0.5716975 z m 1.3490094,-3.52045 h 3.1493507 q 0.07522,0 0.180536,0.0351 0.110328,0.0301 0.205611,0.10532 0.100298,0.0702 0.165491,0.19558 0.07021,0.12035 0.07021,0.30089 0,0.0251 -0.005,0.0552 0,0.0301 -0.005,0.0552 l -0.4714,2.77323 H 9.7877512 l 0.015045,-0.0953 q 0.01003,-0.0401 0.030089,-0.16048 0.025074,-0.12036 0.055164,-0.29588 0.030089,-0.17552 0.065193,-0.38614 0.035104,-0.21564 0.070208,-0.43128 0.04012,-0.22066 0.07522,-0.42627 0.0351,-0.20561 0.06018,-0.36107 0.03009,-0.16048 0.04513,-0.25576 0.01505,-0.1003 0.01505,-0.10531 0,-0.0301 -0.0351,-0.0451 -0.0351,-0.0201 -0.06018,-0.0201 H 9.0706219 L 8.6293115,208.0489 H 7.2652614 Z m 3.9717997,0.93778 0.160476,-0.93778 h 3.635796 l -0.160477,0.93778 h -1.11832 l -0.436296,2.58267 h -1.36405 l 0.44131,-2.58267 z m 5.170349,1.23367 q -0.01003,0.0351 -0.01505,0.0802 -0.005,0.0401 -0.01504,0.0802 -0.005,0.0351 -0.01003,0.0702 -0.005,0.0301 -0.01003,0.0552 0,0.01 -0.005,0.0351 0,0.0201 -0.005,0.0251 0,0.0301 0.0351,0.0502 0.03511,0.0151 0.06018,0.0151 h 1.84548 l -0.160477,0.93778 h -2.572638 q -0.07522,0 -0.180536,-0.0301 -0.105313,-0.0351 -0.205611,-0.10531 -0.09528,-0.0752 -0.165491,-0.19558 -0.07021,-0.12537 -0.07021,-0.30591 0,-0.0251 0,-0.0552 0.005,-0.0301 0.01003,-0.0552 l 0.381132,-2.24667 q 0.02507,-0.15044 0.09528,-0.25074 0.07021,-0.1003 0.160476,-0.16048 0.09027,-0.0602 0.185551,-0.0853 0.09528,-0.0301 0.170506,-0.0301 h 2.793294 l -0.160476,0.93778 h -1.86554 q -0.04012,0 -0.06519,0.0201 -0.02508,0.0151 -0.03009,0.0401 l -0.04012,0.2357 h 1.614795 l -0.170506,0.93779 z m 4.107197,-1.23367 -0.280833,1.64489 h 0.987933 l 0.08525,-0.41122 H 21.31699 l 0.170506,-0.93779 h 1.935748 l -0.310923,1.76023 q -0.02508,0.15044 -0.09528,0.25074 -0.07021,0.1003 -0.160477,0.16048 -0.09027,0.0602 -0.185551,0.0903 -0.09528,0.0251 -0.170506,0.0251 h -2.452281 q -0.07522,0 -0.180536,-0.0301 -0.105313,-0.0351 -0.205611,-0.10531 -0.09528,-0.0752 -0.165491,-0.19558 -0.07021,-0.12537 -0.07021,-0.30591 0,-0.0251 0,-0.0552 0.005,-0.0301 0.01003,-0.0552 l 0.381132,-2.24667 q 0.02507,-0.15044 0.09528,-0.25074 0.07021,-0.1003 0.160476,-0.16048 0.09027,-0.0602 0.185551,-0.0853 0.09528,-0.0301 0.170506,-0.0301 h 3.194485 l -0.160476,0.93778 z m 2.612759,2.58267 0.596772,-3.52045 h 2.918666 q 0.07522,0 0.180536,0.0351 0.110328,0.0301 0.205611,0.10532 0.100298,0.0702 0.165491,0.19558 0.07021,0.12035 0.07021,0.30089 0,0.0251 0,0.0552 0,0.0301 -0.01003,0.0552 l -0.220655,1.29384 q -0.02006,0.1354 -0.08024,0.23068 -0.06018,0.0953 -0.140416,0.15547 -0.08024,0.0602 -0.170507,0.0953 -0.08525,0.0301 -0.160476,0.0401 l 0.19558,0.95784 h -1.248707 l -0.195581,-0.95283 h -0.581727 l -0.160477,0.95283 z m 2.53252,-1.89061 q 0.04012,0 0.06519,-0.0201 0.02508,-0.0201 0.03009,-0.0401 0.005,-0.0301 0.02006,-0.11534 0.01505,-0.0903 0.03009,-0.19057 0.02507,-0.1003 0.03009,-0.18054 0.005,-0.02 0.005,-0.0351 0.005,-0.015 0.005,-0.0301 0.005,-0.005 0.005,-0.01 v -0.005 q 0,-0.0301 -0.0351,-0.0451 -0.0351,-0.0201 -0.06018,-0.0201 h -0.822442 l -0.120358,0.69206 z m 1.60476,1.89061 0.957844,-3.52045 h 1.920703 q 0.07522,0 0.175521,0.0301 0.100298,0.0251 0.195581,0.0953 0.09528,0.0652 0.165491,0.17552 0.07021,0.10531 0.08525,0.26579 l 0.300894,2.95377 h -1.303872 l -0.05015,-0.5065 h -0.997963 l -0.140417,0.5065 z m 2.351983,-1.44429 -0.110327,-1.0782 q -0.005,-0.0201 -0.03009,-0.0401 -0.02507,-0.0201 -0.06519,-0.0201 h -0.130387 l -0.310924,1.13838 z m 4.448212,-1.1133 q -0.01505,-0.0151 -0.0351,-0.0201 -0.02006,-0.005 -0.0351,-0.005 h -0.822442 l -0.280834,1.64489 h 0.847516 q 0.04012,0 0.06018,-0.0151 0.02507,-0.0201 0.03009,-0.0451 0.005,-0.0251 0.02006,-0.1003 0.01504,-0.0802 0.03009,-0.19057 0.02006,-0.11032 0.04513,-0.24071 0.02507,-0.1354 0.04513,-0.2708 0.02508,-0.14042 0.04513,-0.26579 0.02508,-0.13039 0.04012,-0.22567 0.01505,-0.1003 0.02508,-0.16048 0.01003,-0.0602 0.01003,-0.0652 0,-0.0201 -0.02507,-0.0401 z m 1.439273,-0.32597 q 0,0.0251 0,0.0552 0,0.0301 -0.01003,0.0552 l -0.381132,2.24667 q -0.02507,0.15044 -0.09528,0.25074 -0.07021,0.1003 -0.160476,0.16048 -0.09027,0.0602 -0.185551,0.0903 -0.09528,0.0251 -0.170507,0.0251 h -3.134306 l 0.596772,-3.52045 h 2.918666 q 0.07522,0 0.180536,0.0351 0.110328,0.0301 0.205611,0.10532 0.100297,0.0702 0.165491,0.19558 0.07021,0.12035 0.07021,0.30089 z m 1.835449,0.36107 q -0.005,0.0251 -0.02006,0.10531 -0.01003,0.0752 -0.03009,0.18556 -0.01505,0.11032 -0.04012,0.24572 -0.02006,0.13039 -0.04513,0.26579 -0.02006,0.14042 -0.04513,0.27081 -0.02006,0.12537 -0.0351,0.22567 -0.01505,0.0953 -0.02507,0.15546 -0.01003,0.0602 -0.01003,0.0652 0,0.01 0,0.0201 0.005,0.01 0.02507,0.0201 0.01505,0.0151 0.03511,0.0201 0.02006,0.005 0.03009,0.005 h 1.043097 q 0.04012,0 0.06519,-0.0151 0.02507,-0.0201 0.03009,-0.0451 0.005,-0.0251 0.01505,-0.1003 0.01504,-0.0802 0.0351,-0.19057 0.02006,-0.11032 0.04012,-0.24071 0.02507,-0.1354 0.04513,-0.2708 0.02508,-0.14042 0.04513,-0.26579 0.02508,-0.13039 0.04012,-0.22567 0.01505,-0.1003 0.02507,-0.16048 0.01003,-0.0602 0.01003,-0.0652 0,-0.0201 -0.02507,-0.0401 -0.01505,-0.0151 -0.0351,-0.0201 -0.02006,-0.005 -0.0351,-0.005 h -1.043098 q -0.04012,0 -0.06519,0.0201 -0.02508,0.0151 -0.03009,0.0401 z m 1.990912,-0.99796 q 0.07522,0 0.180536,0.0351 0.110327,0.0301 0.20561,0.10532 0.100298,0.0702 0.165492,0.19558 0.07021,0.12035 0.07021,0.30089 0,0.0251 0,0.0552 0,0.0301 -0.005,0.0552 l -0.386146,2.24667 q -0.02508,0.15044 -0.09528,0.25074 -0.07021,0.1003 -0.160477,0.16048 -0.09027,0.0602 -0.185551,0.0903 -0.09528,0.0251 -0.170506,0.0251 h -2.622787 q -0.07522,0 -0.180536,-0.0301 -0.105313,-0.0351 -0.205611,-0.10531 -0.09528,-0.0752 -0.165491,-0.19558 -0.07021,-0.12537 -0.07021,-0.30591 0,-0.0251 0,-0.0552 0.005,-0.0301 0.01003,-0.0552 l 0.381132,-2.24667 q 0.02507,-0.15044 0.09528,-0.25074 0.07021,-0.1003 0.160476,-0.16048 0.09027,-0.0602 0.185551,-0.0853 0.09528,-0.0301 0.170506,-0.0301 z m 0.727159,3.52045 0.596772,-3.52045 h 2.918666 q 0.07522,0 0.180536,0.0351 0.110327,0.0301 0.20561,0.10532 0.100298,0.0702 0.165492,0.19558 0.07021,0.12035 0.07021,0.30089 0,0.0251 0,0.0552 0,0.0301 -0.01003,0.0552 l -0.220655,1.29384 q -0.02006,0.1354 -0.08024,0.23068 -0.06018,0.0953 -0.140417,0.15547 -0.08024,0.0602 -0.170506,0.0953 -0.08525,0.0301 -0.160477,0.0401 l 0.195581,0.95784 H 42.95624 l -0.195581,-0.95283 h -0.581727 l -0.160476,0.95283 z m 2.532519,-1.89061 q 0.04012,0 0.06519,-0.0201 0.02507,-0.0201 0.03009,-0.0401 0.005,-0.0301 0.02006,-0.11534 0.01504,-0.0903 0.03009,-0.19057 0.02507,-0.1003 0.03009,-0.18054 0.005,-0.02 0.005,-0.0351 0.005,-0.015 0.005,-0.0301 0.005,-0.005 0.005,-0.01 v -0.005 q 0,-0.0301 -0.0351,-0.0451 -0.03511,-0.0201 -0.06018,-0.0201 h -0.822442 l -0.120357,0.69206 z m 1.60476,1.89061 0.957844,-3.52045 h 1.920703 q 0.07522,0 0.175521,0.0301 0.100298,0.0251 0.195581,0.0953 0.09528,0.0652 0.165491,0.17552 0.07021,0.10531 0.08525,0.26579 l 0.300894,2.95377 H 47.2891 l -0.05015,-0.5065 h -0.997963 l -0.140417,0.5065 z m 2.351984,-1.44429 -0.110328,-1.0782 q -0.005,-0.0201 -0.03009,-0.0401 -0.02508,-0.0201 -0.06519,-0.0201 h -0.130387 l -0.310923,1.13838 z"
         id="path34" />
      <path
         d="m 9.2837358,211.75992 q -0.015045,-0.015 -0.035104,-0.0201 -0.02006,-0.005 -0.035104,-0.005 h -0.822442 l -0.2808339,1.64488 H 8.957768 q 0.040119,0 0.060179,-0.015 0.025074,-0.0201 0.030089,-0.0451 0.00501,-0.0251 0.02006,-0.1003 0.015045,-0.0802 0.030089,-0.19056 0.02006,-0.11033 0.045134,-0.24072 0.025074,-0.1354 0.045134,-0.2708 0.025075,-0.14042 0.045134,-0.26579 0.025074,-0.13039 0.040119,-0.22567 0.015045,-0.1003 0.025074,-0.16048 0.01003,-0.0602 0.01003,-0.0652 0,-0.0201 -0.025074,-0.0401 z m 1.4392732,-0.32597 q 0,0.0251 0,0.0552 0,0.0301 -0.01003,0.0552 l -0.381132,2.24667 q -0.02508,0.15045 -0.09528,0.25075 -0.07021,0.10029 -0.160477,0.16047 -0.090267,0.0602 -0.1855505,0.0903 -0.095283,0.0251 -0.1705062,0.0251 H 6.5857249 l 0.5967719,-3.52045 h 2.9186662 q 0.07522,0 0.180536,0.0351 0.110328,0.0301 0.20561,0.10531 0.100298,0.0702 0.165492,0.19558 0.07021,0.12036 0.07021,0.30089 z m 1.835449,0.36107 q -0.005,0.0251 -0.02006,0.10532 -0.01003,0.0752 -0.03009,0.18555 -0.01505,0.11033 -0.04012,0.24573 -0.02006,0.13038 -0.04513,0.26579 -0.02006,0.14041 -0.04513,0.2708 -0.02006,0.12537 -0.0351,0.22567 -0.01504,0.0953 -0.02507,0.15546 -0.01003,0.0602 -0.01003,0.0652 0,0.01 0,0.0201 0.005,0.01 0.02508,0.0201 0.01504,0.015 0.0351,0.02 0.02006,0.005 0.03009,0.005 h 1.043097 q 0.04012,0 0.06519,-0.015 0.02508,-0.0201 0.03009,-0.0451 0.005,-0.0251 0.01505,-0.1003 0.01505,-0.0802 0.0351,-0.19056 0.02006,-0.11033 0.04012,-0.24072 0.02508,-0.1354 0.04513,-0.2708 0.02507,-0.14042 0.04513,-0.26579 0.02508,-0.13039 0.04012,-0.22567 0.01504,-0.1003 0.02507,-0.16048 0.01003,-0.0602 0.01003,-0.0652 0,-0.0201 -0.02507,-0.0401 -0.01504,-0.015 -0.0351,-0.0201 -0.02006,-0.005 -0.0351,-0.005 h -1.043097 q -0.04012,0 -0.06519,0.0201 -0.02507,0.015 -0.03009,0.0401 z m 1.990911,-0.99796 q 0.07522,0 0.180536,0.0351 0.110328,0.0301 0.205611,0.10531 0.100298,0.0702 0.165491,0.19558 0.07021,0.12036 0.07021,0.30089 0,0.0251 0,0.0552 0,0.0301 -0.005,0.0552 l -0.386147,2.24667 q -0.02507,0.15045 -0.09528,0.25075 -0.07021,0.10029 -0.160476,0.16047 -0.09027,0.0602 -0.185551,0.0903 -0.09528,0.0251 -0.170506,0.0251 H 11.54545 q -0.07522,0 -0.180536,-0.0301 -0.105313,-0.0351 -0.205611,-0.10531 -0.09528,-0.0752 -0.165491,-0.19558 -0.07021,-0.12537 -0.07021,-0.30591 0,-0.0251 0,-0.0552 0.005,-0.0301 0.01003,-0.0552 l 0.381132,-2.24668 q 0.02508,-0.15044 0.09528,-0.25074 0.07021,-0.1003 0.160476,-0.16048 0.09027,-0.0602 0.185551,-0.0853 0.09528,-0.0301 0.170507,-0.0301 z m 3.199504,3.52045 h -1.419214 l 0.596772,-3.52045 h 1.424229 l -0.160476,0.93779 h -0.491459 q -0.04012,0 -0.06018,0.015 -0.02006,0.01 -0.0351,0.0602 h 0.571697 z m 2.066139,-2.58266 q -0.04513,0 -0.06519,0.015 -0.02006,0.0151 -0.03009,0.0602 h 0.571698 l -0.105313,0.61683 h 1.59975 l -0.175521,0.93779 h -1.584705 l -0.160477,0.95282 h -1.36405 l 0.511519,-2.99389 q 0.02507,-0.15044 0.09528,-0.25074 0.07021,-0.1003 0.160476,-0.16048 0.09027,-0.0602 0.185551,-0.0853 0.09528,-0.0301 0.170507,-0.0301 h 2.672936 l -0.160476,0.93779 z m 2.58267,1.94577 q 0,-0.0251 0,-0.0552 0.005,-0.0301 0.01003,-0.0552 l 0.381132,-2.24668 q 0.02507,-0.15044 0.09528,-0.25074 0.07021,-0.1003 0.160476,-0.16048 0.09027,-0.0602 0.185551,-0.0853 0.09528,-0.0301 0.170506,-0.0301 h 3.194485 l -0.160476,0.93779 h -2.843443 q -0.04012,0 -0.06519,0.015 -0.02006,0.0151 -0.03009,0.0602 h 0.576713 l -0.270804,1.56966 h 0.987933 l 0.08525,-0.41122 h -0.586742 l 0.170506,-0.93779 h 1.935748 l -0.310923,1.76023 q -0.02508,0.15045 -0.09528,0.25075 -0.07021,0.10029 -0.160477,0.16047 -0.09027,0.0602 -0.185551,0.0903 -0.09528,0.0251 -0.170506,0.0251 h -2.452281 q -0.07522,0 -0.180536,-0.0301 -0.105313,-0.0351 -0.205611,-0.10531 -0.09528,-0.0752 -0.165491,-0.19558 -0.07021,-0.12537 -0.07021,-0.30591 z m 7.838279,-1.58972 -0.160477,0.93277 h -2.377058 l 0.160477,-0.93277 z m 1.103285,2.22661 0.300893,-1.76022 q 0.02507,-0.15045 0.09528,-0.25075 0.07021,-0.10029 0.160477,-0.16047 0.09027,-0.0602 0.185551,-0.0853 0.09528,-0.0301 0.170506,-0.0301 h 1.34399 q 0.04012,0 0.06018,-0.015 0.02507,-0.0201 0.03009,-0.0451 0.005,-0.0251 0.01003,-0.0451 0.005,-0.0251 0.01003,-0.0502 0.01003,-0.0251 0.01003,-0.0451 0,-0.0201 0,-0.0301 0,-0.01 -0.005,-0.0201 0,-0.01 -0.02006,-0.0201 -0.01504,-0.015 -0.0351,-0.0201 -0.02006,-0.005 -0.0351,-0.005 h -1.840465 l 0.155462,-0.93779 h 2.572638 q 0.07522,0 0.180537,0.0351 0.110327,0.0301 0.20561,0.10531 0.100298,0.0702 0.170506,0.19558 0.07021,0.12036 0.07021,0.30089 0,0.0251 -0.005,0.0552 0,0.0301 -0.005,0.0552 l -0.155462,0.89767 q -0.02507,0.15044 -0.09528,0.25074 -0.07021,0.1003 -0.160476,0.16048 -0.09027,0.0602 -0.185551,0.0903 -0.09528,0.0251 -0.170506,0.0251 h -1.343991 q -0.04012,0 -0.06519,0.0201 -0.02508,0.0201 -0.02508,0.0401 l -0.06018,0.35104 h 1.945778 l -0.155462,0.93778 z m 4.518418,0 q -0.07522,0 -0.180536,-0.0301 -0.105312,-0.0351 -0.20561,-0.10531 -0.09528,-0.0752 -0.165492,-0.19558 -0.07021,-0.12537 -0.07021,-0.30591 0,-0.0251 0,-0.0552 0.005,-0.0301 0.01003,-0.0552 l 0.381131,-2.24668 q 0.02508,-0.15044 0.09528,-0.25074 0.07021,-0.1003 0.160477,-0.16048 0.09027,-0.0602 0.185551,-0.0853 0.09528,-0.0301 0.170506,-0.0301 h 2.397118 q 0.07522,0 0.180536,0.0351 0.110327,0.0301 0.20561,0.10531 0.100298,0.0702 0.165491,0.19558 0.07021,0.12036 0.07021,0.30089 0,0.0251 -0.005,0.0552 0,0.0301 -0.005,0.0552 l -0.381132,2.24667 q -0.02507,0.15045 -0.100297,0.25075 -0.07021,0.10029 -0.160477,0.16047 -0.09027,0.0602 -0.185551,0.0903 -0.09528,0.0251 -0.170506,0.0251 z m 0.972889,-0.93778 h 0.702085 q 0.0351,0 0.06018,-0.015 0.02508,-0.0201 0.03009,-0.0451 l 0.220655,-1.02304 z m 0.892651,-1.64488 H 36.96094 q -0.0351,0 -0.06018,0.0201 -0.02508,0.015 -0.03009,0.0401 l -0.220655,1.08322 z m 1.634856,2.58266 0.300893,-1.76022 q 0.02508,-0.15045 0.09528,-0.25075 0.07021,-0.10029 0.160477,-0.16047 0.09027,-0.0602 0.185551,-0.0853 0.09528,-0.0301 0.170506,-0.0301 h 1.343991 q 0.04012,0 0.06018,-0.015 0.02508,-0.0201 0.03009,-0.0451 0.005,-0.0251 0.01003,-0.0451 0.005,-0.0251 0.01003,-0.0502 0.01003,-0.0251 0.01003,-0.0451 0,-0.0201 0,-0.0301 0,-0.01 -0.005,-0.0201 0,-0.01 -0.02006,-0.0201 -0.01504,-0.015 -0.0351,-0.0201 -0.02006,-0.005 -0.0351,-0.005 H 39.79937 l 0.155462,-0.93779 h 2.572639 q 0.07522,0 0.180536,0.0351 0.110327,0.0301 0.20561,0.10531 0.100298,0.0702 0.170506,0.19558 0.07021,0.12036 0.07021,0.30089 0,0.0251 -0.005,0.0552 0,0.0301 -0.005,0.0552 l -0.155462,0.89767 q -0.02507,0.15044 -0.09528,0.25074 -0.07021,0.1003 -0.160477,0.16048 -0.09027,0.0602 -0.185551,0.0903 -0.09528,0.0251 -0.170506,0.0251 h -1.343991 q -0.04012,0 -0.06519,0.0201 -0.02508,0.0201 -0.02508,0.0401 l -0.06018,0.35104 h 1.945777 l -0.155462,0.93778 z m 4.518418,0 q -0.07522,0 -0.180536,-0.0301 -0.105312,-0.0351 -0.20561,-0.10531 -0.09528,-0.0752 -0.165491,-0.19558 -0.07021,-0.12537 -0.07021,-0.30591 0,-0.0251 0,-0.0552 0.005,-0.0301 0.01003,-0.0552 l 0.381132,-2.24668 q 0.02507,-0.15044 0.09528,-0.25074 0.07021,-0.1003 0.160477,-0.16048 0.09027,-0.0602 0.185551,-0.0853 0.09528,-0.0301 0.170506,-0.0301 h 2.793294 l -0.160477,0.93779 h -1.865539 q -0.04012,0 -0.06519,0.0201 -0.02508,0.015 -0.03009,0.0401 l -0.04012,0.2357 h 1.303872 q 0.07522,0 0.180536,0.0351 0.110327,0.0301 0.20561,0.10531 0.100298,0.0752 0.165492,0.19558 0.07021,0.12036 0.07021,0.3009 0,0.0301 0,0.0602 0,0.0251 -0.01003,0.0502 l -0.170506,1.01301 q -0.02507,0.15045 -0.09528,0.25075 -0.07021,0.10029 -0.160476,0.16047 -0.09027,0.0602 -0.185551,0.0903 -0.09528,0.0251 -0.170507,0.0251 z m 0.852532,-1.349 -0.07021,0.41122 h 0.601787 q 0.04012,0 0.06018,-0.015 0.02507,-0.0201 0.03009,-0.0451 l 0.04513,-0.24071 q 0.005,-0.0251 0.005,-0.0451 0,-0.01 -0.005,-0.0201 0,-0.01 -0.02006,-0.0201 -0.03511,-0.0251 -0.07021,-0.0251 z"
         id="path35" />
    </g>
    <path
       id="rect17-2"
       style="fill:none;stroke:#000000;stroke-width:0.0415586"
       d="m 11.873212,148.31921 h 29.408333 v 2 H 11.873212 Z" />
    <path
       d="m 102.72114,196.76288 2.12122,-12.39588 h 26.05123 q 0.5303,0 0.86174,-0.19886 0.33144,-0.26515 0.39773,-0.59659 0.0663,-0.33144 0.13258,-0.99433 0.13257,-0.72916 0.26515,-1.45833 0.13258,-0.33144 0.13258,-0.66288 0.0663,-0.39773 0.13257,-0.72917 0,-0.13258 0,-0.19887 0.0663,-0.13257 0.0663,-0.26515 v -0.19886 q 0,-0.13258 -0.0663,-0.26516 0,-0.13257 -0.26515,-0.26515 -0.19886,-0.19886 -0.46402,-0.26515 -0.26515,-0.0663 -0.46401,-0.0663 h -18.16294 l 1.85606,-10.87125 h 17.10233 q 0.53031,0 0.79546,-0.26515 0.33144,-0.26515 0.46402,-0.59659 0.0663,-0.33144 0.13257,-0.72917 0.0663,-0.39773 0.13258,-0.92804 0.19886,-0.99432 0.19886,-1.32576 0,-0.13257 -0.0663,-0.26515 0,-0.13258 -0.26516,-0.26515 -0.19886,-0.19887 -0.46401,-0.26516 -0.26516,-0.0663 -0.46402,-0.0663 H 108.5545 l 2.05493,-12.39588 h 34.13837 q 0.99432,0 2.38637,0.46402 1.45834,0.39773 2.71781,1.39205 1.32577,0.92803 2.18751,2.58523 0.92804,1.59092 0.92804,3.97729 0,0.72917 -0.13258,1.78978 -0.0663,1.06061 -0.19887,2.05493 -0.13257,1.06061 -0.26515,2.05493 -0.13257,0.99432 -0.26515,1.72349 -0.39773,2.85039 -2.05493,4.4413 -1.6572,1.52463 -3.57956,2.2538 0.26515,0.13258 0.46402,0.33144 0.26515,0.13258 0.46401,0.33144 1.1269,0.79546 1.98865,2.12122 0.92803,1.32576 0.92803,3.38069 0,0.72917 -0.19886,2.18751 -0.19887,1.45834 -0.46402,2.98297 -0.19886,1.52462 -0.46402,2.98296 -0.19886,1.45834 -0.33144,2.18751 -0.26515,2.05493 -1.19318,3.44698 -0.92804,1.39205 -2.12122,2.25379 -1.19319,0.86175 -2.51895,1.25948 -1.25947,0.33144 -2.32008,0.33144 z"
       id="text11"
       style="font-weight:bold;font-size:66.2881px;font-family:'Cross Boxed';-inkscape-font-specification:'Cross Boxed Bold';text-align:center;text-anchor:middle;stroke-width:0.521951"
       transform="scale(0.99008978,1.0100094)"
       aria-label="3" />
    <g
       id="text12-7-4"
       style="font-weight:bold;font-size:5.01489px;font-family:'Cross Boxed';-inkscape-font-specification:'Cross Boxed Bold';text-align:center;text-anchor:middle;stroke-width:0.0394874"
       transform="scale(0.99008978,1.0100094)"
       aria-label="III Gincana&#10;Integradora&#10;do IFG - 2026">
      <path
         d="m 111.86939,201.78029 h -1.41921 l 0.59677,-3.52045 h 1.42423 l -0.16048,0.93778 h -0.49146 q -0.0401,0 -0.0602,0.015 -0.0201,0.01 -0.0351,0.0602 h 0.5717 z m 2.2216,0 h -1.41921 l 0.59677,-3.52045 h 1.42423 l -0.16048,0.93778 h -0.49146 q -0.0401,0 -0.0602,0.015 -0.0201,0.01 -0.0351,0.0602 h 0.5717 z m 2.2216,0 h -1.41921 l 0.59677,-3.52045 h 1.42423 l -0.16048,0.93778 h -0.49146 q -0.0401,0 -0.0602,0.015 -0.0201,0.01 -0.0351,0.0602 h 0.5717 z m 1.75522,-0.63689 q 0,-0.0251 0,-0.0552 0.005,-0.0301 0.01,-0.0552 l 0.38113,-2.24667 q 0.0251,-0.15045 0.0953,-0.25075 0.0702,-0.10029 0.16048,-0.16047 0.0903,-0.0602 0.18555,-0.0853 0.0953,-0.0301 0.17051,-0.0301 h 3.19448 l -0.16047,0.93778 h -2.84345 q -0.0401,0 -0.0652,0.015 -0.0201,0.0151 -0.0301,0.0602 h 0.57671 l -0.2708,1.56966 h 0.98793 l 0.0853,-0.41122 h -0.58675 l 0.17051,-0.93778 h 1.93575 l -0.31093,1.76023 q -0.0251,0.15044 -0.0953,0.25074 -0.0702,0.1003 -0.16048,0.16048 -0.0903,0.0602 -0.18555,0.0903 -0.0953,0.0251 -0.1705,0.0251 h -2.45228 q -0.0752,0 -0.18054,-0.0301 -0.10531,-0.0351 -0.20561,-0.10531 -0.0953,-0.0752 -0.16549,-0.19558 -0.0702,-0.12538 -0.0702,-0.30591 z m 6.36891,-2.88356 -0.60178,3.52045 h -1.41922 l 0.59677,-3.52045 z m 0.74722,0 h 3.14936 q 0.0752,0 0.18053,0.0351 0.11033,0.0301 0.20561,0.10531 0.1003,0.0702 0.16549,0.19558 0.0702,0.12036 0.0702,0.3009 0,0.0251 -0.005,0.0552 0,0.0301 -0.005,0.0552 l -0.4714,2.77324 h -1.36405 l 0.015,-0.0953 q 0.01,-0.0401 0.0301,-0.16048 0.0251,-0.12036 0.0552,-0.29588 0.0301,-0.17552 0.0652,-0.38615 0.0351,-0.21564 0.0702,-0.43128 0.0401,-0.22065 0.0752,-0.42626 0.0351,-0.20561 0.0602,-0.36107 0.0301,-0.16048 0.0451,-0.25576 0.015,-0.1003 0.015,-0.10532 0,-0.0301 -0.0351,-0.0451 -0.0351,-0.0201 -0.0602,-0.0201 h -1.05313 l -0.44131,2.58267 h -1.36405 z m 7.18133,3.52045 h -2.68798 q -0.0752,0 -0.18054,-0.0301 -0.10531,-0.0351 -0.20561,-0.10531 -0.0953,-0.0752 -0.16549,-0.19558 -0.0702,-0.12538 -0.0702,-0.30591 0,-0.0251 0,-0.0552 0.005,-0.0301 0.01,-0.0552 l 0.38113,-2.24667 q 0.0251,-0.15045 0.0953,-0.25075 0.0702,-0.10029 0.16047,-0.16047 0.0903,-0.0602 0.18555,-0.0853 0.0953,-0.0301 0.17051,-0.0301 h 2.90362 l -0.15546,0.93778 h -1.98088 q -0.0401,0 -0.0652,0.0201 -0.0251,0.015 -0.0301,0.0401 -0.005,0.0251 -0.0201,0.10531 -0.01,0.0752 -0.0301,0.18555 -0.0201,0.11033 -0.0451,0.24573 -0.0201,0.13039 -0.0451,0.26579 -0.0201,0.14042 -0.0451,0.27081 -0.0201,0.12537 -0.0401,0.22567 -0.0151,0.0953 -0.0251,0.15546 -0.01,0.0602 -0.01,0.0652 0,0.0301 0.0351,0.0502 0.0351,0.015 0.0602,0.015 h 1.96082 z m 0.50148,0 0.95785,-3.52045 h 1.9207 q 0.0752,0 0.17552,0.0301 0.1003,0.0251 0.19558,0.0953 0.0953,0.0652 0.16549,0.17552 0.0702,0.10531 0.0853,0.26579 l 0.3009,2.95377 h -1.30387 l -0.0502,-0.50651 h -0.99797 l -0.14041,0.50651 z m 2.35198,-1.44429 -0.11032,-1.0782 q -0.005,-0.0201 -0.0301,-0.0401 -0.0251,-0.0201 -0.0652,-0.0201 h -0.13038 l -0.31093,1.13838 z m 2.34698,-2.07616 h 3.14935 q 0.0752,0 0.18053,0.0351 0.11033,0.0301 0.20561,0.10531 0.1003,0.0702 0.1655,0.19558 0.0702,0.12036 0.0702,0.3009 0,0.0251 -0.005,0.0552 0,0.0301 -0.005,0.0552 l -0.47139,2.77324 h -1.36405 l 0.015,-0.0953 q 0.01,-0.0401 0.0301,-0.16048 0.0251,-0.12036 0.0552,-0.29588 0.0301,-0.17552 0.0652,-0.38615 0.0351,-0.21564 0.0702,-0.43128 0.0401,-0.22065 0.0752,-0.42626 0.0351,-0.20561 0.0602,-0.36107 0.0301,-0.16048 0.0451,-0.25576 0.0151,-0.1003 0.0151,-0.10532 0,-0.0301 -0.0351,-0.0451 -0.0351,-0.0201 -0.0602,-0.0201 h -1.05312 l -0.44131,2.58267 h -1.36405 z m 3.8715,3.52045 0.95784,-3.52045 h 1.9207 q 0.0752,0 0.17552,0.0301 0.1003,0.0251 0.19559,0.0953 0.0953,0.0652 0.16549,0.17552 0.0702,0.10531 0.0853,0.26579 l 0.30089,2.95377 h -1.30387 l -0.0502,-0.50651 h -0.99796 l -0.14042,0.50651 z m 2.35198,-1.44429 -0.11033,-1.0782 q -0.005,-0.0201 -0.0301,-0.0401 -0.0251,-0.0201 -0.0652,-0.0201 h -0.13039 l -0.31092,1.13838 z"
         id="path30" />
      <path
         d="m 107.51397,208.0489 h -1.41922 l 0.59678,-3.52045 h 1.42422 l -0.16047,0.93778 h -0.49146 q -0.0401,0 -0.0602,0.0151 -0.0201,0.01 -0.0351,0.0602 h 0.57169 z m 1.34901,-3.52045 h 3.14935 q 0.0752,0 0.18053,0.0351 0.11033,0.0301 0.20562,0.10532 0.10029,0.0702 0.16549,0.19558 0.0702,0.12035 0.0702,0.30089 0,0.0251 -0.005,0.0552 0,0.0301 -0.005,0.0552 l -0.4714,2.77323 h -1.36405 l 0.015,-0.0953 q 0.01,-0.0401 0.0301,-0.16048 0.0251,-0.12036 0.0552,-0.29588 0.0301,-0.17552 0.0652,-0.38614 0.0351,-0.21564 0.0702,-0.43128 0.0401,-0.22066 0.0752,-0.42627 0.0351,-0.20561 0.0602,-0.36107 0.0301,-0.16048 0.0451,-0.25576 0.0151,-0.1003 0.0151,-0.10531 0,-0.0301 -0.0351,-0.0451 -0.0351,-0.0201 -0.0602,-0.0201 h -1.05312 l -0.44131,2.58267 h -1.36405 z m 3.9718,0.93778 0.16047,-0.93778 h 3.6358 l -0.16048,0.93778 h -1.11832 l -0.43629,2.58267 h -1.36405 l 0.44131,-2.58267 z m 5.17035,1.23367 q -0.01,0.0351 -0.015,0.0802 -0.005,0.0401 -0.015,0.0802 -0.005,0.0351 -0.01,0.0702 -0.005,0.0301 -0.01,0.0552 0,0.01 -0.005,0.0351 0,0.0201 -0.005,0.0251 0,0.0301 0.0351,0.0502 0.0351,0.0151 0.0602,0.0151 h 1.84548 l -0.16048,0.93778 h -2.57264 q -0.0752,0 -0.18053,-0.0301 -0.10531,-0.0351 -0.20561,-0.10531 -0.0953,-0.0752 -0.16549,-0.19558 -0.0702,-0.12537 -0.0702,-0.30591 0,-0.0251 0,-0.0552 0.005,-0.0301 0.01,-0.0552 l 0.38113,-2.24667 q 0.0251,-0.15044 0.0953,-0.25074 0.0702,-0.1003 0.16048,-0.16048 0.0903,-0.0602 0.18555,-0.0853 0.0953,-0.0301 0.17051,-0.0301 h 2.79329 l -0.16048,0.93778 H 118.301 q -0.0401,0 -0.0652,0.0201 -0.0251,0.0151 -0.0301,0.0401 l -0.0401,0.2357 h 1.6148 l -0.17051,0.93779 z m 4.10719,-1.23367 -0.28083,1.64489 h 0.98793 l 0.0853,-0.41122 h -0.58675 l 0.17051,-0.93779 h 1.93575 l -0.31093,1.76023 q -0.0251,0.15044 -0.0953,0.25074 -0.0702,0.1003 -0.16047,0.16048 -0.0903,0.0602 -0.18556,0.0903 -0.0953,0.0251 -0.1705,0.0251 h -2.45228 q -0.0752,0 -0.18054,-0.0301 -0.10531,-0.0351 -0.20561,-0.10531 -0.0953,-0.0752 -0.16549,-0.19558 -0.0702,-0.12537 -0.0702,-0.30591 0,-0.0251 0,-0.0552 0.005,-0.0301 0.01,-0.0552 l 0.38113,-2.24667 q 0.0251,-0.15044 0.0953,-0.25074 0.0702,-0.1003 0.16048,-0.16048 0.0903,-0.0602 0.18555,-0.0853 0.0953,-0.0301 0.17051,-0.0301 h 3.19448 l -0.16047,0.93778 z m 2.61276,2.58267 0.59677,-3.52045 h 2.91867 q 0.0752,0 0.18054,0.0351 0.11032,0.0301 0.20561,0.10532 0.10029,0.0702 0.16549,0.19558 0.0702,0.12035 0.0702,0.30089 0,0.0251 0,0.0552 0,0.0301 -0.01,0.0552 l -0.22066,1.29384 q -0.0201,0.1354 -0.0802,0.23068 -0.0602,0.0953 -0.14041,0.15547 -0.0802,0.0602 -0.17051,0.0953 -0.0853,0.0301 -0.16048,0.0401 l 0.19558,0.95784 h -1.2487 l -0.19558,-0.95283 h -0.58173 l -0.16048,0.95283 z m 2.53252,-1.89061 q 0.0401,0 0.0652,-0.0201 0.0251,-0.0201 0.0301,-0.0401 0.005,-0.0301 0.0201,-0.11534 0.0151,-0.0903 0.0301,-0.19057 0.0251,-0.1003 0.0301,-0.18054 0.005,-0.02 0.005,-0.0351 0.005,-0.015 0.005,-0.0301 0.005,-0.005 0.005,-0.01 v -0.005 q 0,-0.0301 -0.0351,-0.0451 -0.0351,-0.0201 -0.0602,-0.0201 h -0.82244 l -0.12035,0.69206 z m 1.60476,1.89061 0.95785,-3.52045 h 1.9207 q 0.0752,0 0.17552,0.0301 0.1003,0.0251 0.19558,0.0953 0.0953,0.0652 0.16549,0.17552 0.0702,0.10531 0.0853,0.26579 l 0.30089,2.95377 h -1.30387 l -0.0502,-0.5065 h -0.99796 l -0.14042,0.5065 z m 2.35199,-1.44429 -0.11033,-1.0782 q -0.005,-0.0201 -0.0301,-0.0401 -0.0251,-0.0201 -0.0652,-0.0201 h -0.13038 l -0.31093,1.13838 z m 4.44821,-1.1133 q -0.0151,-0.0151 -0.0351,-0.0201 -0.0201,-0.005 -0.0351,-0.005 h -0.82244 l -0.28084,1.64489 h 0.84752 q 0.0401,0 0.0602,-0.0151 0.0251,-0.0201 0.0301,-0.0451 0.005,-0.0251 0.0201,-0.1003 0.015,-0.0802 0.0301,-0.19057 0.0201,-0.11032 0.0451,-0.24071 0.0251,-0.1354 0.0451,-0.2708 0.0251,-0.14042 0.0451,-0.26579 0.0251,-0.13039 0.0401,-0.22567 0.015,-0.1003 0.0251,-0.16048 0.01,-0.0602 0.01,-0.0652 0,-0.0201 -0.0251,-0.0401 z m 1.43927,-0.32597 q 0,0.0251 0,0.0552 0,0.0301 -0.01,0.0552 l -0.38113,2.24667 q -0.0251,0.15044 -0.0953,0.25074 -0.0702,0.1003 -0.16048,0.16048 -0.0903,0.0602 -0.18555,0.0903 -0.0953,0.0251 -0.17051,0.0251 h -3.1343 l 0.59677,-3.52045 h 2.91866 q 0.0752,0 0.18054,0.0351 0.11033,0.0301 0.20561,0.10532 0.1003,0.0702 0.16549,0.19558 0.0702,0.12035 0.0702,0.30089 z m 1.83545,0.36107 q -0.005,0.0251 -0.0201,0.10531 -0.01,0.0752 -0.0301,0.18556 -0.015,0.11032 -0.0401,0.24572 -0.0201,0.13039 -0.0451,0.26579 -0.0201,0.14042 -0.0451,0.27081 -0.0201,0.12537 -0.0351,0.22567 -0.0151,0.0953 -0.0251,0.15546 -0.01,0.0602 -0.01,0.0652 0,0.01 0,0.0201 0.005,0.01 0.0251,0.0201 0.015,0.0151 0.0351,0.0201 0.0201,0.005 0.0301,0.005 h 1.0431 q 0.0401,0 0.0652,-0.0151 0.0251,-0.0201 0.0301,-0.0451 0.005,-0.0251 0.0151,-0.1003 0.015,-0.0802 0.0351,-0.19057 0.0201,-0.11032 0.0401,-0.24071 0.0251,-0.1354 0.0451,-0.2708 0.0251,-0.14042 0.0451,-0.26579 0.0251,-0.13039 0.0401,-0.22567 0.015,-0.1003 0.0251,-0.16048 0.01,-0.0602 0.01,-0.0652 0,-0.0201 -0.0251,-0.0401 -0.0151,-0.0151 -0.0351,-0.0201 -0.0201,-0.005 -0.0351,-0.005 h -1.0431 q -0.0401,0 -0.0652,0.0201 -0.0251,0.0151 -0.0301,0.0401 z m 1.99091,-0.99796 q 0.0752,0 0.18054,0.0351 0.11032,0.0301 0.20561,0.10532 0.1003,0.0702 0.16549,0.19558 0.0702,0.12035 0.0702,0.30089 0,0.0251 0,0.0552 0,0.0301 -0.005,0.0552 l -0.38614,2.24667 q -0.0251,0.15044 -0.0953,0.25074 -0.0702,0.1003 -0.16047,0.16048 -0.0903,0.0602 -0.18555,0.0903 -0.0953,0.0251 -0.17051,0.0251 h -2.62279 q -0.0752,0 -0.18053,-0.0301 -0.10532,-0.0351 -0.20561,-0.10531 -0.0953,-0.0752 -0.1655,-0.19558 -0.0702,-0.12537 -0.0702,-0.30591 0,-0.0251 0,-0.0552 0.005,-0.0301 0.01,-0.0552 l 0.38113,-2.24667 q 0.0251,-0.15044 0.0953,-0.25074 0.0702,-0.1003 0.16048,-0.16048 0.0903,-0.0602 0.18555,-0.0853 0.0953,-0.0301 0.1705,-0.0301 z m 0.72716,3.52045 0.59677,-3.52045 h 2.91867 q 0.0752,0 0.18053,0.0351 0.11033,0.0301 0.20561,0.10532 0.1003,0.0702 0.1655,0.19558 0.0702,0.12035 0.0702,0.30089 0,0.0251 0,0.0552 0,0.0301 -0.01,0.0552 l -0.22065,1.29384 q -0.0201,0.1354 -0.0802,0.23068 -0.0602,0.0953 -0.14042,0.15547 -0.0802,0.0602 -0.1705,0.0953 -0.0853,0.0301 -0.16048,0.0401 l 0.19558,0.95784 h -1.24871 l -0.19558,-0.95283 h -0.58172 l -0.16048,0.95283 z m 2.53252,-1.89061 q 0.0401,0 0.0652,-0.0201 0.0251,-0.0201 0.0301,-0.0401 0.005,-0.0301 0.0201,-0.11534 0.0151,-0.0903 0.0301,-0.19057 0.0251,-0.1003 0.0301,-0.18054 0.005,-0.02 0.005,-0.0351 0.005,-0.015 0.005,-0.0301 0.005,-0.005 0.005,-0.01 v -0.005 q 0,-0.0301 -0.0351,-0.0451 -0.0351,-0.0201 -0.0602,-0.0201 h -0.82244 l -0.12036,0.69206 z m 1.60476,1.89061 0.95784,-3.52045 h 1.92071 q 0.0752,0 0.17552,0.0301 0.1003,0.0251 0.19558,0.0953 0.0953,0.0652 0.16549,0.17552 0.0702,0.10531 0.0853,0.26579 l 0.3009,2.95377 h -1.30388 l -0.0501,-0.5065 h -0.99797 l -0.14041,0.5065 z m 2.35198,-1.44429 -0.11032,-1.0782 q -0.005,-0.0201 -0.0301,-0.0401 -0.0251,-0.0201 -0.0652,-0.0201 h -0.13038 l -0.31093,1.13838 z"
         id="path31" />
      <path
         d="m 110.28468,211.75992 q -0.015,-0.015 -0.0351,-0.0201 -0.0201,-0.005 -0.0351,-0.005 h -0.82244 l -0.28083,1.64488 h 0.84751 q 0.0401,0 0.0602,-0.015 0.0251,-0.0201 0.0301,-0.0451 0.005,-0.0251 0.0201,-0.1003 0.015,-0.0802 0.0301,-0.19056 0.0201,-0.11033 0.0451,-0.24072 0.0251,-0.1354 0.0451,-0.2708 0.0251,-0.14042 0.0451,-0.26579 0.0251,-0.13039 0.0401,-0.22567 0.015,-0.1003 0.0251,-0.16048 0.01,-0.0602 0.01,-0.0652 0,-0.0201 -0.0251,-0.0401 z m 1.43927,-0.32597 q 0,0.0251 0,0.0552 0,0.0301 -0.01,0.0552 l -0.38113,2.24667 q -0.0251,0.15045 -0.0953,0.25075 -0.0702,0.10029 -0.16048,0.16047 -0.0903,0.0602 -0.18555,0.0903 -0.0953,0.0251 -0.1705,0.0251 h -3.13431 l 0.59677,-3.52045 h 2.91867 q 0.0752,0 0.18053,0.0351 0.11033,0.0301 0.20561,0.10531 0.1003,0.0702 0.16549,0.19558 0.0702,0.12036 0.0702,0.30089 z m 1.83545,0.36107 q -0.005,0.0251 -0.0201,0.10532 -0.01,0.0752 -0.0301,0.18555 -0.015,0.11033 -0.0401,0.24573 -0.0201,0.13038 -0.0451,0.26579 -0.0201,0.14041 -0.0451,0.2708 -0.0201,0.12537 -0.0351,0.22567 -0.015,0.0953 -0.0251,0.15546 -0.01,0.0602 -0.01,0.0652 0,0.01 0,0.0201 0.005,0.01 0.0251,0.0201 0.0151,0.015 0.0351,0.02 0.0201,0.005 0.0301,0.005 h 1.04309 q 0.0401,0 0.0652,-0.015 0.0251,-0.0201 0.0301,-0.0451 0.005,-0.0251 0.015,-0.1003 0.015,-0.0802 0.0351,-0.19056 0.0201,-0.11033 0.0401,-0.24072 0.0251,-0.1354 0.0451,-0.2708 0.0251,-0.14042 0.0451,-0.26579 0.0251,-0.13039 0.0401,-0.22567 0.0151,-0.1003 0.0251,-0.16048 0.01,-0.0602 0.01,-0.0652 0,-0.0201 -0.0251,-0.0401 -0.015,-0.015 -0.0351,-0.0201 -0.0201,-0.005 -0.0351,-0.005 h -1.0431 q -0.0401,0 -0.0652,0.0201 -0.0251,0.015 -0.0301,0.0401 z m 1.99091,-0.99796 q 0.0752,0 0.18054,0.0351 0.11033,0.0301 0.20561,0.10531 0.1003,0.0702 0.16549,0.19558 0.0702,0.12036 0.0702,0.30089 0,0.0251 0,0.0552 0,0.0301 -0.005,0.0552 l -0.38614,2.24667 q -0.0251,0.15045 -0.0953,0.25075 -0.0702,0.10029 -0.16048,0.16047 -0.0903,0.0602 -0.18555,0.0903 -0.0953,0.0251 -0.17051,0.0251 h -2.62279 q -0.0752,0 -0.18053,-0.0301 -0.10531,-0.0351 -0.20561,-0.10531 -0.0953,-0.0752 -0.16549,-0.19558 -0.0702,-0.12537 -0.0702,-0.30591 0,-0.0251 0,-0.0552 0.005,-0.0301 0.01,-0.0552 l 0.38113,-2.24668 q 0.0251,-0.15044 0.0953,-0.25074 0.0702,-0.1003 0.16048,-0.16048 0.0903,-0.0602 0.18555,-0.0853 0.0953,-0.0301 0.17051,-0.0301 z m 3.19951,3.52045 h -1.41922 l 0.59678,-3.52045 h 1.42422 l -0.16047,0.93779 h -0.49146 q -0.0401,0 -0.0602,0.015 -0.0201,0.01 -0.0351,0.0602 h 0.57169 z m 2.06614,-2.58266 q -0.0451,0 -0.0652,0.015 -0.0201,0.0151 -0.0301,0.0602 h 0.5717 l -0.10531,0.61683 h 1.59975 l -0.17552,0.93779 h -1.58471 l -0.16047,0.95282 h -1.36405 l 0.51151,-2.99389 q 0.0251,-0.15044 0.0953,-0.25074 0.0702,-0.1003 0.16047,-0.16048 0.0903,-0.0602 0.18555,-0.0853 0.0953,-0.0301 0.17051,-0.0301 h 2.67294 l -0.16048,0.93779 z m 2.58267,1.94577 q 0,-0.0251 0,-0.0552 0.005,-0.0301 0.01,-0.0552 l 0.38113,-2.24668 q 0.0251,-0.15044 0.0953,-0.25074 0.0702,-0.1003 0.16048,-0.16048 0.0903,-0.0602 0.18555,-0.0853 0.0953,-0.0301 0.1705,-0.0301 h 3.19449 l -0.16048,0.93779 h -2.84344 q -0.0401,0 -0.0652,0.015 -0.0201,0.0151 -0.0301,0.0602 h 0.57671 l -0.2708,1.56966 h 0.98793 l 0.0853,-0.41122 h -0.58674 l 0.17051,-0.93779 h 1.93574 l -0.31092,1.76023 q -0.0251,0.15045 -0.0953,0.25075 -0.0702,0.10029 -0.16048,0.16047 -0.0903,0.0602 -0.18555,0.0903 -0.0953,0.0251 -0.17051,0.0251 h -2.45228 q -0.0752,0 -0.18053,-0.0301 -0.10532,-0.0351 -0.20561,-0.10531 -0.0953,-0.0752 -0.1655,-0.19558 -0.0702,-0.12537 -0.0702,-0.30591 z m 7.83827,-1.58972 -0.16047,0.93277 h -2.37706 l 0.16048,-0.93277 z m 1.10329,2.22661 0.30089,-1.76022 q 0.0251,-0.15045 0.0953,-0.25075 0.0702,-0.10029 0.16047,-0.16047 0.0903,-0.0602 0.18555,-0.0853 0.0953,-0.0301 0.17051,-0.0301 h 1.34399 q 0.0401,0 0.0602,-0.015 0.0251,-0.0201 0.0301,-0.0451 0.005,-0.0251 0.01,-0.0451 0.005,-0.0251 0.01,-0.0502 0.01,-0.0251 0.01,-0.0451 0,-0.0201 0,-0.0301 0,-0.01 -0.005,-0.0201 0,-0.01 -0.0201,-0.0201 -0.015,-0.015 -0.0351,-0.0201 -0.0201,-0.005 -0.0351,-0.005 h -1.84047 l 0.15546,-0.93779 h 2.57264 q 0.0752,0 0.18054,0.0351 0.11032,0.0301 0.20561,0.10531 0.10029,0.0702 0.1705,0.19558 0.0702,0.12036 0.0702,0.30089 0,0.0251 -0.005,0.0552 0,0.0301 -0.005,0.0552 l -0.15546,0.89767 q -0.0251,0.15044 -0.0953,0.25074 -0.0702,0.1003 -0.16048,0.16048 -0.0903,0.0602 -0.18555,0.0903 -0.0953,0.0251 -0.17051,0.0251 h -1.34399 q -0.0401,0 -0.0652,0.0201 -0.0251,0.0201 -0.0251,0.0401 l -0.0602,0.35104 h 1.94577 l -0.15546,0.93778 z m 4.51842,0 q -0.0752,0 -0.18054,-0.0301 -0.10531,-0.0351 -0.20561,-0.10531 -0.0953,-0.0752 -0.16549,-0.19558 -0.0702,-0.12537 -0.0702,-0.30591 0,-0.0251 0,-0.0552 0.005,-0.0301 0.01,-0.0552 l 0.38113,-2.24668 q 0.0251,-0.15044 0.0953,-0.25074 0.0702,-0.1003 0.16047,-0.16048 0.0903,-0.0602 0.18555,-0.0853 0.0953,-0.0301 0.17051,-0.0301 h 2.39712 q 0.0752,0 0.18053,0.0351 0.11033,0.0301 0.20561,0.10531 0.1003,0.0702 0.1655,0.19558 0.0702,0.12036 0.0702,0.30089 0,0.0251 -0.005,0.0552 0,0.0301 -0.005,0.0552 l -0.38113,2.24667 q -0.0251,0.15045 -0.1003,0.25075 -0.0702,0.10029 -0.16047,0.16047 -0.0903,0.0602 -0.18555,0.0903 -0.0953,0.0251 -0.17051,0.0251 z m 0.97289,-0.93778 h 0.70208 q 0.0351,0 0.0602,-0.015 0.0251,-0.0201 0.0301,-0.0451 l 0.22066,-1.02304 z m 0.89265,-1.64488 h -0.76227 q -0.0351,0 -0.0602,0.0201 -0.0251,0.015 -0.0301,0.0401 l -0.22066,1.08322 z m 1.63485,2.58266 0.3009,-1.76022 q 0.0251,-0.15045 0.0953,-0.25075 0.0702,-0.10029 0.16048,-0.16047 0.0903,-0.0602 0.18555,-0.0853 0.0953,-0.0301 0.1705,-0.0301 h 1.34399 q 0.0401,0 0.0602,-0.015 0.0251,-0.0201 0.0301,-0.0451 0.005,-0.0251 0.01,-0.0451 0.005,-0.0251 0.01,-0.0502 0.01,-0.0251 0.01,-0.0451 0,-0.0201 0,-0.0301 0,-0.01 -0.005,-0.0201 0,-0.01 -0.0201,-0.0201 -0.0151,-0.015 -0.0351,-0.0201 -0.0201,-0.005 -0.0351,-0.005 h -1.84047 l 0.15547,-0.93779 h 2.57263 q 0.0752,0 0.18054,0.0351 0.11033,0.0301 0.20561,0.10531 0.1003,0.0702 0.17051,0.19558 0.0702,0.12036 0.0702,0.30089 0,0.0251 -0.005,0.0552 0,0.0301 -0.005,0.0552 l -0.15547,0.89767 q -0.0251,0.15044 -0.0953,0.25074 -0.0702,0.1003 -0.16047,0.16048 -0.0903,0.0602 -0.18556,0.0903 -0.0953,0.0251 -0.1705,0.0251 h -1.34399 q -0.0401,0 -0.0652,0.0201 -0.0251,0.0201 -0.0251,0.0401 l -0.0602,0.35104 h 1.94578 l -0.15546,0.93778 z m 4.51842,0 q -0.0752,0 -0.18053,-0.0301 -0.10532,-0.0351 -0.20561,-0.10531 -0.0953,-0.0752 -0.1655,-0.19558 -0.0702,-0.12537 -0.0702,-0.30591 0,-0.0251 0,-0.0552 0.005,-0.0301 0.01,-0.0552 l 0.38113,-2.24668 q 0.0251,-0.15044 0.0953,-0.25074 0.0702,-0.1003 0.16048,-0.16048 0.0903,-0.0602 0.18555,-0.0853 0.0953,-0.0301 0.1705,-0.0301 h 2.7933 l -0.16048,0.93779 h -1.86554 q -0.0401,0 -0.0652,0.0201 -0.0251,0.015 -0.0301,0.0401 l -0.0401,0.2357 h 1.30387 q 0.0752,0 0.18054,0.0351 0.11033,0.0301 0.20561,0.10531 0.1003,0.0752 0.16549,0.19558 0.0702,0.12036 0.0702,0.3009 0,0.0301 0,0.0602 0,0.0251 -0.01,0.0502 l -0.17051,1.01301 q -0.0251,0.15045 -0.0953,0.25075 -0.0702,0.10029 -0.16048,0.16047 -0.0903,0.0602 -0.18555,0.0903 -0.0953,0.0251 -0.1705,0.0251 z m 0.85253,-1.349 -0.0702,0.41122 h 0.60178 q 0.0401,0 0.0602,-0.015 0.0251,-0.0201 0.0301,-0.0451 l 0.0451,-0.24071 q 0.005,-0.0251 0.005,-0.0451 0,-0.01 -0.005,-0.0201 0,-0.01 -0.0201,-0.0201 -0.0351,-0.0251 -0.0702,-0.0251 z"
         id="path32" />
    </g>
    <path
       id="rect17-9"
       style="fill:none;stroke:#000000;stroke-width:0.0415586"
       d="m 111.87321,148.31921 h 29.40833 v 2 h -29.40833 z" />
    <g
       id="text12-7-6-5"
       style="font-weight:bold;font-size:5.01489px;font-family:'Cross Boxed';-inkscape-font-specification:'Cross Boxed Bold';text-align:center;text-anchor:middle;stroke-width:0.0394874"
       transform="scale(0.99008978,1.0100094)"
       aria-label="III Gincana&#10;Integradora&#10;do IFG - 2026">
      <path
         d="m 162.36985,201.78029 h -1.41922 l 0.59678,-3.52045 h 1.42422 l -0.16047,0.93778 h -0.49146 q -0.0401,0 -0.0602,0.015 -0.0201,0.01 -0.0351,0.0602 h 0.57169 z m 2.2216,0 h -1.41922 l 0.59678,-3.52045 h 1.42422 l -0.16047,0.93778 h -0.49146 q -0.0401,0 -0.0602,0.015 -0.0201,0.01 -0.0351,0.0602 h 0.57169 z m 2.2216,0 h -1.41922 l 0.59678,-3.52045 h 1.42422 l -0.16047,0.93778 h -0.49146 q -0.0401,0 -0.0602,0.015 -0.0201,0.01 -0.0351,0.0602 h 0.57169 z m 1.75522,-0.63689 q 0,-0.0251 0,-0.0552 0.005,-0.0301 0.01,-0.0552 l 0.38113,-2.24667 q 0.0251,-0.15045 0.0953,-0.25075 0.0702,-0.10029 0.16048,-0.16047 0.0903,-0.0602 0.18555,-0.0853 0.0953,-0.0301 0.17051,-0.0301 h 3.19448 l -0.16048,0.93778 h -2.84344 q -0.0401,0 -0.0652,0.015 -0.0201,0.0151 -0.0301,0.0602 h 0.57671 l -0.2708,1.56966 h 0.98793 l 0.0853,-0.41122 h -0.58674 l 0.17051,-0.93778 h 1.93574 l -0.31092,1.76023 q -0.0251,0.15044 -0.0953,0.25074 -0.0702,0.1003 -0.16048,0.16048 -0.0903,0.0602 -0.18555,0.0903 -0.0953,0.0251 -0.17051,0.0251 h -2.45228 q -0.0752,0 -0.18053,-0.0301 -0.10532,-0.0351 -0.20561,-0.10531 -0.0953,-0.0752 -0.16549,-0.19558 -0.0702,-0.12538 -0.0702,-0.30591 z m 6.36891,-2.88356 -0.60179,3.52045 h -1.41921 l 0.59677,-3.52045 z m 0.74722,0 h 3.14935 q 0.0752,0 0.18054,0.0351 0.11033,0.0301 0.20561,0.10531 0.1003,0.0702 0.16549,0.19558 0.0702,0.12036 0.0702,0.3009 0,0.0251 -0.005,0.0552 0,0.0301 -0.005,0.0552 l -0.4714,2.77324 h -1.36405 l 0.015,-0.0953 q 0.01,-0.0401 0.0301,-0.16048 0.0251,-0.12036 0.0552,-0.29588 0.0301,-0.17552 0.0652,-0.38615 0.0351,-0.21564 0.0702,-0.43128 0.0401,-0.22065 0.0752,-0.42626 0.0351,-0.20561 0.0602,-0.36107 0.0301,-0.16048 0.0451,-0.25576 0.015,-0.1003 0.015,-0.10532 0,-0.0301 -0.0351,-0.0451 -0.0351,-0.0201 -0.0602,-0.0201 h -1.05313 l -0.44131,2.58267 h -1.36405 z m 7.18133,3.52045 h -2.68798 q -0.0752,0 -0.18054,-0.0301 -0.10531,-0.0351 -0.20561,-0.10531 -0.0953,-0.0752 -0.16549,-0.19558 -0.0702,-0.12538 -0.0702,-0.30591 0,-0.0251 0,-0.0552 0.005,-0.0301 0.01,-0.0552 l 0.38113,-2.24667 q 0.0251,-0.15045 0.0953,-0.25075 0.0702,-0.10029 0.16047,-0.16047 0.0903,-0.0602 0.18555,-0.0853 0.0953,-0.0301 0.17051,-0.0301 h 2.90362 l -0.15546,0.93778 h -1.98088 q -0.0401,0 -0.0652,0.0201 -0.0251,0.015 -0.0301,0.0401 -0.005,0.0251 -0.0201,0.10531 -0.01,0.0752 -0.0301,0.18555 -0.0201,0.11033 -0.0451,0.24573 -0.0201,0.13039 -0.0451,0.26579 -0.0201,0.14042 -0.0451,0.27081 -0.0201,0.12537 -0.0401,0.22567 -0.015,0.0953 -0.0251,0.15546 -0.01,0.0602 -0.01,0.0652 0,0.0301 0.0351,0.0502 0.0351,0.015 0.0602,0.015 h 1.96082 z m 0.50148,0 0.95784,-3.52045 h 1.92071 q 0.0752,0 0.17552,0.0301 0.10029,0.0251 0.19558,0.0953 0.0953,0.0652 0.16549,0.17552 0.0702,0.10531 0.0853,0.26579 l 0.3009,2.95377 h -1.30388 l -0.0501,-0.50651 h -0.99797 l -0.14041,0.50651 z m 2.35198,-1.44429 -0.11033,-1.0782 q -0.005,-0.0201 -0.0301,-0.0401 -0.0251,-0.0201 -0.0652,-0.0201 h -0.13039 l -0.31092,1.13838 z m 2.34697,-2.07616 h 3.14936 q 0.0752,0 0.18053,0.0351 0.11033,0.0301 0.20561,0.10531 0.1003,0.0702 0.16549,0.19558 0.0702,0.12036 0.0702,0.3009 0,0.0251 -0.005,0.0552 0,0.0301 -0.005,0.0552 l -0.4714,2.77324 h -1.36405 l 0.0151,-0.0953 q 0.01,-0.0401 0.0301,-0.16048 0.0251,-0.12036 0.0552,-0.29588 0.0301,-0.17552 0.0652,-0.38615 0.0351,-0.21564 0.0702,-0.43128 0.0401,-0.22065 0.0752,-0.42626 0.0351,-0.20561 0.0602,-0.36107 0.0301,-0.16048 0.0451,-0.25576 0.015,-0.1003 0.015,-0.10532 0,-0.0301 -0.0351,-0.0451 -0.0351,-0.0201 -0.0602,-0.0201 h -1.05313 l -0.44131,2.58267 h -1.36405 z m 3.8715,3.52045 0.95785,-3.52045 h 1.9207 q 0.0752,0 0.17552,0.0301 0.1003,0.0251 0.19558,0.0953 0.0953,0.0652 0.16549,0.17552 0.0702,0.10531 0.0853,0.26579 l 0.30089,2.95377 h -1.30387 l -0.0502,-0.50651 h -0.99796 l -0.14042,0.50651 z m 2.35199,-1.44429 -0.11033,-1.0782 q -0.005,-0.0201 -0.0301,-0.0401 -0.0251,-0.0201 -0.0652,-0.0201 h -0.13039 l -0.31092,1.13838 z"
         id="path27" />
      <path
         d="m 158.01443,208.0489 h -1.41922 l 0.59677,-3.52045 h 1.42423 l -0.16047,0.93778 h -0.49146 q -0.0401,0 -0.0602,0.0151 -0.0201,0.01 -0.0351,0.0602 h 0.5717 z m 1.34901,-3.52045 h 3.14935 q 0.0752,0 0.18053,0.0351 0.11033,0.0301 0.20561,0.10532 0.1003,0.0702 0.16549,0.19558 0.0702,0.12035 0.0702,0.30089 0,0.0251 -0.005,0.0552 0,0.0301 -0.005,0.0552 l -0.4714,2.77323 h -1.36405 l 0.0151,-0.0953 q 0.01,-0.0401 0.0301,-0.16048 0.0251,-0.12036 0.0552,-0.29588 0.0301,-0.17552 0.0652,-0.38614 0.0351,-0.21564 0.0702,-0.43128 0.0401,-0.22066 0.0752,-0.42627 0.0351,-0.20561 0.0602,-0.36107 0.0301,-0.16048 0.0451,-0.25576 0.015,-0.1003 0.015,-0.10531 0,-0.0301 -0.0351,-0.0451 -0.0351,-0.0201 -0.0602,-0.0201 h -1.05313 l -0.44131,2.58267 h -1.36405 z m 3.97179,0.93778 0.16048,-0.93778 h 3.6358 l -0.16048,0.93778 h -1.11832 l -0.4363,2.58267 h -1.36405 l 0.44131,-2.58267 z m 5.17035,1.23367 q -0.01,0.0351 -0.015,0.0802 -0.005,0.0401 -0.0151,0.0802 -0.005,0.0351 -0.01,0.0702 -0.005,0.0301 -0.01,0.0552 0,0.01 -0.005,0.0351 0,0.0201 -0.005,0.0251 0,0.0301 0.0351,0.0502 0.0351,0.0151 0.0602,0.0151 h 1.84548 l -0.16048,0.93778 h -2.57264 q -0.0752,0 -0.18053,-0.0301 -0.10532,-0.0351 -0.20561,-0.10531 -0.0953,-0.0752 -0.1655,-0.19558 -0.0702,-0.12537 -0.0702,-0.30591 0,-0.0251 0,-0.0552 0.005,-0.0301 0.01,-0.0552 l 0.38113,-2.24667 q 0.0251,-0.15044 0.0953,-0.25074 0.0702,-0.1003 0.16048,-0.16048 0.0903,-0.0602 0.18555,-0.0853 0.0953,-0.0301 0.1705,-0.0301 h 2.7933 l -0.16048,0.93778 h -1.86554 q -0.0401,0 -0.0652,0.0201 -0.0251,0.0151 -0.0301,0.0401 l -0.0401,0.2357 h 1.61479 l -0.1705,0.93779 z m 4.1072,-1.23367 -0.28083,1.64489 h 0.98793 l 0.0853,-0.41122 h -0.58674 l 0.17051,-0.93779 h 1.93575 l -0.31093,1.76023 q -0.0251,0.15044 -0.0953,0.25074 -0.0702,0.1003 -0.16048,0.16048 -0.0903,0.0602 -0.18555,0.0903 -0.0953,0.0251 -0.1705,0.0251 h -2.45229 q -0.0752,0 -0.18053,-0.0301 -0.10531,-0.0351 -0.20561,-0.10531 -0.0953,-0.0752 -0.16549,-0.19558 -0.0702,-0.12537 -0.0702,-0.30591 0,-0.0251 0,-0.0552 0.005,-0.0301 0.01,-0.0552 l 0.38113,-2.24667 q 0.0251,-0.15044 0.0953,-0.25074 0.0702,-0.1003 0.16048,-0.16048 0.0903,-0.0602 0.18555,-0.0853 0.0953,-0.0301 0.17051,-0.0301 h 3.19448 l -0.16048,0.93778 z m 2.61276,2.58267 0.59677,-3.52045 h 2.91867 q 0.0752,0 0.18053,0.0351 0.11033,0.0301 0.20561,0.10532 0.1003,0.0702 0.1655,0.19558 0.0702,0.12035 0.0702,0.30089 0,0.0251 0,0.0552 0,0.0301 -0.01,0.0552 l -0.22065,1.29384 q -0.0201,0.1354 -0.0802,0.23068 -0.0602,0.0953 -0.14042,0.15547 -0.0802,0.0602 -0.1705,0.0953 -0.0853,0.0301 -0.16048,0.0401 l 0.19558,0.95784 h -1.24871 l -0.19558,-0.95283 h -0.58172 l -0.16048,0.95283 z m 2.53252,-1.89061 q 0.0401,0 0.0652,-0.0201 0.0251,-0.0201 0.0301,-0.0401 0.005,-0.0301 0.0201,-0.11534 0.0151,-0.0903 0.0301,-0.19057 0.0251,-0.1003 0.0301,-0.18054 0.005,-0.02 0.005,-0.0351 0.005,-0.015 0.005,-0.0301 0.005,-0.005 0.005,-0.01 v -0.005 q 0,-0.0301 -0.0351,-0.0451 -0.0351,-0.0201 -0.0602,-0.0201 h -0.82244 l -0.12036,0.69206 z m 1.60476,1.89061 0.95784,-3.52045 h 1.92071 q 0.0752,0 0.17552,0.0301 0.1003,0.0251 0.19558,0.0953 0.0953,0.0652 0.16549,0.17552 0.0702,0.10531 0.0853,0.26579 l 0.3009,2.95377 h -1.30388 l -0.0501,-0.5065 h -0.99797 l -0.14041,0.5065 z m 2.35198,-1.44429 -0.11032,-1.0782 q -0.005,-0.0201 -0.0301,-0.0401 -0.0251,-0.0201 -0.0652,-0.0201 h -0.13038 l -0.31093,1.13838 z m 4.44821,-1.1133 q -0.015,-0.0151 -0.0351,-0.0201 -0.0201,-0.005 -0.0351,-0.005 h -0.82245 l -0.28083,1.64489 h 0.84752 q 0.0401,0 0.0602,-0.0151 0.0251,-0.0201 0.0301,-0.0451 0.005,-0.0251 0.02,-0.1003 0.0151,-0.0802 0.0301,-0.19057 0.0201,-0.11032 0.0451,-0.24071 0.0251,-0.1354 0.0451,-0.2708 0.0251,-0.14042 0.0451,-0.26579 0.0251,-0.13039 0.0401,-0.22567 0.015,-0.1003 0.0251,-0.16048 0.01,-0.0602 0.01,-0.0652 0,-0.0201 -0.0251,-0.0401 z m 1.43928,-0.32597 q 0,0.0251 0,0.0552 0,0.0301 -0.01,0.0552 l -0.38113,2.24667 q -0.0251,0.15044 -0.0953,0.25074 -0.0702,0.1003 -0.16047,0.16048 -0.0903,0.0602 -0.18555,0.0903 -0.0953,0.0251 -0.17051,0.0251 H 183.465 l 0.59678,-3.52045 h 2.91866 q 0.0752,0 0.18054,0.0351 0.11033,0.0301 0.20561,0.10532 0.1003,0.0702 0.16549,0.19558 0.0702,0.12035 0.0702,0.30089 z m 1.83545,0.36107 q -0.005,0.0251 -0.0201,0.10531 -0.01,0.0752 -0.0301,0.18556 -0.0151,0.11032 -0.0401,0.24572 -0.0201,0.13039 -0.0451,0.26579 -0.0201,0.14042 -0.0451,0.27081 -0.0201,0.12537 -0.0351,0.22567 -0.0151,0.0953 -0.0251,0.15546 -0.01,0.0602 -0.01,0.0652 0,0.01 0,0.0201 0.005,0.01 0.0251,0.0201 0.015,0.0151 0.0351,0.0201 0.0201,0.005 0.0301,0.005 h 1.0431 q 0.0401,0 0.0652,-0.0151 0.0251,-0.0201 0.0301,-0.0451 0.005,-0.0251 0.0151,-0.1003 0.015,-0.0802 0.0351,-0.19057 0.0201,-0.11032 0.0401,-0.24071 0.0251,-0.1354 0.0451,-0.2708 0.0251,-0.14042 0.0451,-0.26579 0.0251,-0.13039 0.0401,-0.22567 0.015,-0.1003 0.0251,-0.16048 0.01,-0.0602 0.01,-0.0652 0,-0.0201 -0.0251,-0.0401 -0.0151,-0.0151 -0.0351,-0.0201 -0.0201,-0.005 -0.0351,-0.005 h -1.0431 q -0.0401,0 -0.0652,0.0201 -0.0251,0.0151 -0.0301,0.0401 z m 1.99091,-0.99796 q 0.0752,0 0.18053,0.0351 0.11033,0.0301 0.20562,0.10532 0.10029,0.0702 0.16549,0.19558 0.0702,0.12035 0.0702,0.30089 0,0.0251 0,0.0552 0,0.0301 -0.005,0.0552 l -0.38615,2.24667 q -0.0251,0.15044 -0.0953,0.25074 -0.0702,0.1003 -0.16048,0.16048 -0.0903,0.0602 -0.18555,0.0903 -0.0953,0.0251 -0.1705,0.0251 h -2.62279 q -0.0752,0 -0.18054,-0.0301 -0.10531,-0.0351 -0.20561,-0.10531 -0.0953,-0.0752 -0.16549,-0.19558 -0.0702,-0.12537 -0.0702,-0.30591 0,-0.0251 0,-0.0552 0.005,-0.0301 0.01,-0.0552 l 0.38113,-2.24667 q 0.0251,-0.15044 0.0953,-0.25074 0.0702,-0.1003 0.16047,-0.16048 0.0903,-0.0602 0.18555,-0.0853 0.0953,-0.0301 0.17051,-0.0301 z m 0.72716,3.52045 0.59677,-3.52045 h 2.91867 q 0.0752,0 0.18053,0.0351 0.11033,0.0301 0.20561,0.10532 0.1003,0.0702 0.16549,0.19558 0.0702,0.12035 0.0702,0.30089 0,0.0251 0,0.0552 0,0.0301 -0.01,0.0552 l -0.22065,1.29384 q -0.0201,0.1354 -0.0802,0.23068 -0.0602,0.0953 -0.14042,0.15547 -0.0802,0.0602 -0.1705,0.0953 -0.0853,0.0301 -0.16048,0.0401 l 0.19558,0.95784 h -1.24871 l -0.19558,-0.95283 h -0.58173 l -0.16047,0.95283 z m 2.53252,-1.89061 q 0.0401,0 0.0652,-0.0201 0.0251,-0.0201 0.0301,-0.0401 0.005,-0.0301 0.0201,-0.11534 0.015,-0.0903 0.0301,-0.19057 0.0251,-0.1003 0.0301,-0.18054 0.005,-0.02 0.005,-0.0351 0.005,-0.015 0.005,-0.0301 0.005,-0.005 0.005,-0.01 v -0.005 q 0,-0.0301 -0.0351,-0.0451 -0.0351,-0.0201 -0.0602,-0.0201 h -0.82244 l -0.12036,0.69206 z m 1.60476,1.89061 0.95784,-3.52045 h 1.9207 q 0.0752,0 0.17553,0.0301 0.10029,0.0251 0.19558,0.0953 0.0953,0.0652 0.16549,0.17552 0.0702,0.10531 0.0853,0.26579 l 0.30089,2.95377 h -1.30387 l -0.0502,-0.5065 h -0.99796 l -0.14042,0.5065 z m 2.35198,-1.44429 -0.11033,-1.0782 q -0.005,-0.0201 -0.0301,-0.0401 -0.0251,-0.0201 -0.0652,-0.0201 h -0.13039 l -0.31092,1.13838 z"
         id="path28" />
      <path
         d="m 160.78514,211.75992 q -0.0151,-0.015 -0.0351,-0.0201 -0.0201,-0.005 -0.0351,-0.005 h -0.82244 l -0.28084,1.64488 h 0.84752 q 0.0401,0 0.0602,-0.015 0.0251,-0.0201 0.0301,-0.0451 0.005,-0.0251 0.0201,-0.1003 0.015,-0.0802 0.0301,-0.19056 0.0201,-0.11033 0.0451,-0.24072 0.0251,-0.1354 0.0451,-0.2708 0.0251,-0.14042 0.0451,-0.26579 0.0251,-0.13039 0.0401,-0.22567 0.015,-0.1003 0.0251,-0.16048 0.01,-0.0602 0.01,-0.0652 0,-0.0201 -0.0251,-0.0401 z m 1.43927,-0.32597 q 0,0.0251 0,0.0552 0,0.0301 -0.01,0.0552 l -0.38113,2.24667 q -0.0251,0.15045 -0.0953,0.25075 -0.0702,0.10029 -0.16048,0.16047 -0.0903,0.0602 -0.18555,0.0903 -0.0953,0.0251 -0.17051,0.0251 h -3.1343 l 0.59677,-3.52045 h 2.91866 q 0.0752,0 0.18054,0.0351 0.11033,0.0301 0.20561,0.10531 0.1003,0.0702 0.16549,0.19558 0.0702,0.12036 0.0702,0.30089 z m 1.83545,0.36107 q -0.005,0.0251 -0.0201,0.10532 -0.01,0.0752 -0.0301,0.18555 -0.015,0.11033 -0.0401,0.24573 -0.0201,0.13038 -0.0451,0.26579 -0.0201,0.14041 -0.0451,0.2708 -0.0201,0.12537 -0.0351,0.22567 -0.0151,0.0953 -0.0251,0.15546 -0.01,0.0602 -0.01,0.0652 0,0.01 0,0.0201 0.005,0.01 0.0251,0.0201 0.015,0.015 0.0351,0.02 0.0201,0.005 0.0301,0.005 h 1.0431 q 0.0401,0 0.0652,-0.015 0.0251,-0.0201 0.0301,-0.0451 0.005,-0.0251 0.0151,-0.1003 0.015,-0.0802 0.0351,-0.19056 0.0201,-0.11033 0.0401,-0.24072 0.0251,-0.1354 0.0451,-0.2708 0.0251,-0.14042 0.0451,-0.26579 0.0251,-0.13039 0.0401,-0.22567 0.015,-0.1003 0.0251,-0.16048 0.01,-0.0602 0.01,-0.0652 0,-0.0201 -0.0251,-0.0401 -0.0151,-0.015 -0.0351,-0.0201 -0.0201,-0.005 -0.0351,-0.005 h -1.0431 q -0.0401,0 -0.0652,0.0201 -0.0251,0.015 -0.0301,0.0401 z m 1.99091,-0.99796 q 0.0752,0 0.18054,0.0351 0.11032,0.0301 0.20561,0.10531 0.1003,0.0702 0.16549,0.19558 0.0702,0.12036 0.0702,0.30089 0,0.0251 0,0.0552 0,0.0301 -0.005,0.0552 l -0.38614,2.24667 q -0.0251,0.15045 -0.0953,0.25075 -0.0702,0.10029 -0.16047,0.16047 -0.0903,0.0602 -0.18555,0.0903 -0.0953,0.0251 -0.17051,0.0251 h -2.62279 q -0.0752,0 -0.18053,-0.0301 -0.10532,-0.0351 -0.20561,-0.10531 -0.0953,-0.0752 -0.1655,-0.19558 -0.0702,-0.12537 -0.0702,-0.30591 0,-0.0251 0,-0.0552 0.005,-0.0301 0.01,-0.0552 l 0.38113,-2.24668 q 0.0251,-0.15044 0.0953,-0.25074 0.0702,-0.1003 0.16048,-0.16048 0.0903,-0.0602 0.18555,-0.0853 0.0953,-0.0301 0.1705,-0.0301 z m 3.19951,3.52045 h -1.41922 l 0.59677,-3.52045 h 1.42423 l -0.16047,0.93779 h -0.49146 q -0.0401,0 -0.0602,0.015 -0.0201,0.01 -0.0351,0.0602 h 0.5717 z m 2.06613,-2.58266 q -0.0451,0 -0.0652,0.015 -0.0201,0.0151 -0.0301,0.0602 h 0.5717 l -0.10531,0.61683 h 1.59975 l -0.17553,0.93779 h -1.5847 l -0.16048,0.95282 h -1.36405 l 0.51152,-2.99389 q 0.0251,-0.15044 0.0953,-0.25074 0.0702,-0.1003 0.16048,-0.16048 0.0903,-0.0602 0.18555,-0.0853 0.0953,-0.0301 0.17051,-0.0301 h 2.67293 l -0.16047,0.93779 z m 2.58267,1.94577 q 0,-0.0251 0,-0.0552 0.005,-0.0301 0.01,-0.0552 l 0.38114,-2.24668 q 0.0251,-0.15044 0.0953,-0.25074 0.0702,-0.1003 0.16048,-0.16048 0.0903,-0.0602 0.18555,-0.0853 0.0953,-0.0301 0.1705,-0.0301 h 3.19449 l -0.16048,0.93779 h -2.84344 q -0.0401,0 -0.0652,0.015 -0.0201,0.0151 -0.0301,0.0602 h 0.57671 l -0.27081,1.56966 h 0.98794 l 0.0853,-0.41122 h -0.58674 l 0.1705,-0.93779 h 1.93575 l -0.31092,1.76023 q -0.0251,0.15045 -0.0953,0.25075 -0.0702,0.10029 -0.16048,0.16047 -0.0903,0.0602 -0.18555,0.0903 -0.0953,0.0251 -0.17051,0.0251 h -2.45228 q -0.0752,0 -0.18054,-0.0301 -0.10531,-0.0351 -0.20561,-0.10531 -0.0953,-0.0752 -0.16549,-0.19558 -0.0702,-0.12537 -0.0702,-0.30591 z m 7.83828,-1.58972 -0.16047,0.93277 h -2.37706 l 0.16047,-0.93277 z m 1.10329,2.22661 0.30089,-1.76022 q 0.0251,-0.15045 0.0953,-0.25075 0.0702,-0.10029 0.16048,-0.16047 0.0903,-0.0602 0.18555,-0.0853 0.0953,-0.0301 0.17051,-0.0301 h 1.34399 q 0.0401,0 0.0602,-0.015 0.0251,-0.0201 0.0301,-0.0451 0.005,-0.0251 0.01,-0.0451 0.005,-0.0251 0.01,-0.0502 0.01,-0.0251 0.01,-0.0451 0,-0.0201 0,-0.0301 0,-0.01 -0.005,-0.0201 0,-0.01 -0.0201,-0.0201 -0.015,-0.015 -0.0351,-0.0201 -0.0201,-0.005 -0.0351,-0.005 h -1.84046 l 0.15546,-0.93779 h 2.57264 q 0.0752,0 0.18053,0.0351 0.11033,0.0301 0.20561,0.10531 0.1003,0.0702 0.17051,0.19558 0.0702,0.12036 0.0702,0.30089 0,0.0251 -0.005,0.0552 0,0.0301 -0.005,0.0552 l -0.15546,0.89767 q -0.0251,0.15044 -0.0953,0.25074 -0.0702,0.1003 -0.16048,0.16048 -0.0903,0.0602 -0.18555,0.0903 -0.0953,0.0251 -0.17051,0.0251 h -1.34399 q -0.0401,0 -0.0652,0.0201 -0.0251,0.0201 -0.0251,0.0401 l -0.0602,0.35104 h 1.94578 l -0.15546,0.93778 z m 4.51842,0 q -0.0752,0 -0.18054,-0.0301 -0.10531,-0.0351 -0.20561,-0.10531 -0.0953,-0.0752 -0.16549,-0.19558 -0.0702,-0.12537 -0.0702,-0.30591 0,-0.0251 0,-0.0552 0.005,-0.0301 0.01,-0.0552 l 0.38113,-2.24668 q 0.0251,-0.15044 0.0953,-0.25074 0.0702,-0.1003 0.16048,-0.16048 0.0903,-0.0602 0.18555,-0.0853 0.0953,-0.0301 0.17051,-0.0301 h 2.39712 q 0.0752,0 0.18053,0.0351 0.11033,0.0301 0.20561,0.10531 0.1003,0.0702 0.16549,0.19558 0.0702,0.12036 0.0702,0.30089 0,0.0251 -0.005,0.0552 0,0.0301 -0.005,0.0552 l -0.38113,2.24667 q -0.0251,0.15045 -0.1003,0.25075 -0.0702,0.10029 -0.16047,0.16047 -0.0903,0.0602 -0.18555,0.0903 -0.0953,0.0251 -0.17051,0.0251 z m 0.97288,-0.93778 h 0.70209 q 0.0351,0 0.0602,-0.015 0.0251,-0.0201 0.0301,-0.0451 l 0.22065,-1.02304 z m 0.89266,-1.64488 h -0.76227 q -0.0351,0 -0.0602,0.0201 -0.0251,0.015 -0.0301,0.0401 l -0.22065,1.08322 z m 1.63485,2.58266 0.3009,-1.76022 q 0.0251,-0.15045 0.0953,-0.25075 0.0702,-0.10029 0.16047,-0.16047 0.0903,-0.0602 0.18556,-0.0853 0.0953,-0.0301 0.1705,-0.0301 h 1.34399 q 0.0401,0 0.0602,-0.015 0.0251,-0.0201 0.0301,-0.0451 0.005,-0.0251 0.01,-0.0451 0.005,-0.0251 0.01,-0.0502 0.01,-0.0251 0.01,-0.0451 0,-0.0201 0,-0.0301 0,-0.01 -0.005,-0.0201 0,-0.01 -0.02,-0.0201 -0.0151,-0.015 -0.0351,-0.0201 -0.0201,-0.005 -0.0351,-0.005 h -1.84047 l 0.15546,-0.93779 h 2.57264 q 0.0752,0 0.18054,0.0351 0.11033,0.0301 0.20561,0.10531 0.1003,0.0702 0.17051,0.19558 0.0702,0.12036 0.0702,0.30089 0,0.0251 -0.005,0.0552 0,0.0301 -0.005,0.0552 l -0.15546,0.89767 q -0.0251,0.15044 -0.0953,0.25074 -0.0702,0.1003 -0.16048,0.16048 -0.0903,0.0602 -0.18555,0.0903 -0.0953,0.0251 -0.1705,0.0251 h -1.34399 q -0.0401,0 -0.0652,0.0201 -0.0251,0.0201 -0.0251,0.0401 l -0.0602,0.35104 h 1.94578 l -0.15547,0.93778 z m 4.51842,0 q -0.0752,0 -0.18054,-0.0301 -0.10531,-0.0351 -0.20561,-0.10531 -0.0953,-0.0752 -0.16549,-0.19558 -0.0702,-0.12537 -0.0702,-0.30591 0,-0.0251 0,-0.0552 0.005,-0.0301 0.01,-0.0552 l 0.38114,-2.24668 q 0.0251,-0.15044 0.0953,-0.25074 0.0702,-0.1003 0.16047,-0.16048 0.0903,-0.0602 0.18556,-0.0853 0.0953,-0.0301 0.1705,-0.0301 h 2.7933 l -0.16048,0.93779 h -1.86554 q -0.0401,0 -0.0652,0.0201 -0.0251,0.015 -0.0301,0.0401 l -0.0401,0.2357 h 1.30387 q 0.0752,0 0.18054,0.0351 0.11032,0.0301 0.20561,0.10531 0.10029,0.0752 0.16549,0.19558 0.0702,0.12036 0.0702,0.3009 0,0.0301 0,0.0602 0,0.0251 -0.01,0.0502 l -0.17051,1.01301 q -0.0251,0.15045 -0.0953,0.25075 -0.0702,0.10029 -0.16048,0.16047 -0.0903,0.0602 -0.18555,0.0903 -0.0953,0.0251 -0.17051,0.0251 z m 0.85253,-1.349 -0.0702,0.41122 h 0.60179 q 0.0401,0 0.0602,-0.015 0.0251,-0.0201 0.0301,-0.0451 l 0.0451,-0.24071 q 0.005,-0.0251 0.005,-0.0451 0,-0.01 -0.005,-0.0201 0,-0.01 -0.0201,-0.0201 -0.0351,-0.0251 -0.0702,-0.0251 z"
         id="path29" />
    </g>
    <path
       id="rect16-3-4"
       style="fill:none;stroke:#000000;stroke-width:0.0455441"
       d="m 151.57738,147.05177 h 50 v 70 h -50 z m -50.00001,0 h 50 v 70 h -50 z m -99.9999952,0 H 51.577375 v 70 H 1.5773748 Z m 49.9999992,0 h 49.999996 v 70 H 51.577374 Z" />
    <path
       id="rect17-2-3"
       style="fill:none;stroke:#000000;stroke-width:0.0415586"
       d="m 161.87321,148.31921 h 29.40834 v 2 h -29.40834 z" />
    <g
       id="text17"
       style="font-weight:bold;font-size:10.5748px;font-family:'Cross Boxed';-inkscape-font-specification:'Cross Boxed Bold';text-align:center;text-anchor:middle;stroke-width:0.0383022"
       transform="scale(0.99008978,1.0100094)"
       aria-label="Honra&#10;ao&#10;Mérito">
      <path
         d="m 155.96325,163.98904 1.2584,-7.42351 h 2.93979 l -0.44414,2.60141 h 2.08324 l 0.44414,-2.60141 h 2.93979 l -1.26897,7.42351 h -2.92922 l 0.47586,-2.84462 h -3.10899 q -0.0952,0 -0.13747,0.0317 -0.0423,0.0317 -0.0634,0.1269 h 1.20553 l -0.45472,2.68599 z m 12.88011,-5.31912 q -0.0106,0.0529 -0.0423,0.22207 -0.0212,0.15862 -0.0635,0.39127 -0.0317,0.23264 -0.0846,0.51816 -0.0423,0.27495 -0.0952,0.56047 -0.0423,0.29609 -0.0952,0.57104 -0.0423,0.26437 -0.074,0.47586 -0.0317,0.20092 -0.0529,0.32782 -0.0212,0.1269 -0.0212,0.13747 0,0.0212 0,0.0423 0.0106,0.0212 0.0529,0.0423 0.0317,0.0317 0.074,0.0423 0.0423,0.0106 0.0635,0.0106 h 2.19956 q 0.0846,0 0.13747,-0.0317 0.0529,-0.0423 0.0634,-0.0952 0.0106,-0.0529 0.0317,-0.2115 0.0317,-0.16919 0.074,-0.40184 0.0423,-0.23264 0.0846,-0.50759 0.0529,-0.28552 0.0952,-0.57104 0.0529,-0.29609 0.0952,-0.56046 0.0529,-0.27495 0.0846,-0.47587 0.0317,-0.2115 0.0529,-0.33839 0.0212,-0.1269 0.0212,-0.13748 0,-0.0423 -0.0529,-0.0846 -0.0317,-0.0317 -0.074,-0.0423 -0.0423,-0.0106 -0.074,-0.0106 h -2.19956 q -0.0846,0 -0.13747,0.0423 -0.0529,0.0317 -0.0635,0.0846 z m 4.19819,-2.10439 q 0.15862,0 0.38069,0.074 0.23265,0.0635 0.43357,0.22207 0.2115,0.14805 0.34897,0.41242 0.14805,0.25379 0.14805,0.63448 0,0.0529 0,0.11633 0,0.0635 -0.0106,0.11632 l -0.81426,4.73751 q -0.0529,0.31724 -0.20092,0.52874 -0.14805,0.2115 -0.33839,0.33839 -0.19035,0.1269 -0.39127,0.19035 -0.20092,0.0529 -0.35954,0.0529 h -5.53062 q -0.15863,0 -0.3807,-0.0634 -0.22207,-0.074 -0.43356,-0.22208 -0.20092,-0.15862 -0.34897,-0.41241 -0.14805,-0.26437 -0.14805,-0.64507 0,-0.0529 0,-0.11632 0.0106,-0.0634 0.0212,-0.11632 l 0.80369,-4.73751 q 0.0529,-0.31725 0.20092,-0.52874 0.14804,-0.2115 0.33839,-0.33839 0.19035,-0.1269 0.39127,-0.17978 0.20092,-0.0635 0.35954,-0.0635 z m 2.79175,0 h 6.64097 q 0.15862,0 0.3807,0.074 0.23264,0.0635 0.43356,0.22207 0.2115,0.14805 0.34897,0.41242 0.14805,0.25379 0.14805,0.63448 0,0.0529 -0.0106,0.11633 0,0.0635 -0.0106,0.11632 l -0.99403,5.84786 h -2.87635 l 0.0317,-0.20092 q 0.0212,-0.0846 0.0634,-0.33839 0.0529,-0.2538 0.11633,-0.62391 0.0634,-0.37012 0.13747,-0.81426 0.074,-0.45472 0.14805,-0.90944 0.0846,-0.46529 0.15862,-0.89885 0.074,-0.43357 0.1269,-0.76139 0.0635,-0.33839 0.0952,-0.53931 0.0317,-0.2115 0.0317,-0.22208 0,-0.0634 -0.074,-0.0952 -0.074,-0.0423 -0.1269,-0.0423 h -2.22071 l -0.93058,5.44602 h -2.87634 z m 8.16375,7.42351 1.2584,-7.42351 h 6.15454 q 0.15862,0 0.38069,0.074 0.23265,0.0635 0.43357,0.22207 0.21149,0.14805 0.34896,0.41242 0.14805,0.25379 0.14805,0.63448 0,0.0529 0,0.11633 0,0.0635 -0.0212,0.11632 l -0.46529,2.7283 q -0.0423,0.28552 -0.1692,0.48644 -0.12689,0.20092 -0.29609,0.32782 -0.1692,0.1269 -0.35954,0.20092 -0.17977,0.0635 -0.3384,0.0846 l 0.41242,2.01978 h -2.63312 l -0.41242,-2.00921 h -1.22668 l -0.33839,2.00921 z m 5.34028,-3.9867 q 0.0846,0 0.13747,-0.0423 0.0529,-0.0423 0.0635,-0.0846 0.0106,-0.0634 0.0423,-0.24322 0.0317,-0.19035 0.0635,-0.40185 0.0529,-0.21149 0.0634,-0.38069 0.0106,-0.0423 0.0106,-0.074 0.0106,-0.0317 0.0106,-0.0634 0.0106,-0.0106 0.0106,-0.0212 v -0.0106 q 0,-0.0634 -0.074,-0.0952 -0.074,-0.0423 -0.1269,-0.0423 h -1.73427 l -0.25379,1.45932 z m 3.38392,3.9867 2.01979,-7.42351 h 4.05015 q 0.15862,0 0.37011,0.0635 0.2115,0.0529 0.41242,0.20092 0.20092,0.13748 0.34897,0.37012 0.14805,0.22207 0.17977,0.56047 l 0.63449,6.22855 h -2.74945 l -0.10575,-1.06805 h -2.10438 l -0.2961,1.06805 z m 4.95958,-3.04554 -0.23264,-2.27358 q -0.0106,-0.0423 -0.0635,-0.0846 -0.0529,-0.0423 -0.13747,-0.0423 h -0.27495 l -0.65564,2.40048 z"
         id="path24" />
      <path
         d="m 169.54129,177.20754 2.01978,-7.42351 h 4.05015 q 0.15862,0 0.37012,0.0634 0.21149,0.0529 0.41242,0.20092 0.20092,0.13748 0.34896,0.37012 0.14805,0.22207 0.17978,0.56047 l 0.63448,6.22855 h -2.74944 l -0.10575,-1.06805 h -2.10439 l -0.29609,1.06805 z m 4.95958,-3.04554 -0.23265,-2.27358 q -0.0106,-0.0423 -0.0635,-0.0846 -0.0529,-0.0423 -0.13747,-0.0423 h -0.27495 l -0.65563,2.40048 z m 7.13799,-2.27358 q -0.0106,0.0529 -0.0423,0.22207 -0.0211,0.15862 -0.0634,0.39127 -0.0317,0.23264 -0.0846,0.51816 -0.0423,0.27495 -0.0952,0.56047 -0.0423,0.29609 -0.0952,0.57104 -0.0423,0.26437 -0.074,0.47586 -0.0317,0.20092 -0.0529,0.32782 -0.0212,0.1269 -0.0212,0.13747 0,0.0212 0,0.0423 0.0106,0.0211 0.0529,0.0423 0.0317,0.0317 0.074,0.0423 0.0423,0.0106 0.0634,0.0106 h 2.19956 q 0.0846,0 0.13747,-0.0317 0.0529,-0.0423 0.0635,-0.0952 0.0106,-0.0529 0.0317,-0.2115 0.0317,-0.16919 0.074,-0.40184 0.0423,-0.23265 0.0846,-0.50759 0.0529,-0.28552 0.0952,-0.57104 0.0529,-0.29609 0.0952,-0.56046 0.0529,-0.27495 0.0846,-0.47587 0.0317,-0.2115 0.0529,-0.33839 0.0211,-0.1269 0.0211,-0.13748 0,-0.0423 -0.0529,-0.0846 -0.0317,-0.0317 -0.074,-0.0423 -0.0423,-0.0106 -0.074,-0.0106 h -2.19955 q -0.0846,0 -0.13748,0.0423 -0.0529,0.0317 -0.0635,0.0846 z m 4.1982,-2.10439 q 0.15862,0 0.38069,0.074 0.23265,0.0635 0.43357,0.22207 0.2115,0.14805 0.34897,0.41242 0.14804,0.25379 0.14804,0.63448 0,0.0529 0,0.11633 0,0.0635 -0.0106,0.11632 l -0.81426,4.73751 q -0.0529,0.31724 -0.20092,0.52874 -0.14805,0.2115 -0.33839,0.33839 -0.19035,0.1269 -0.39127,0.19035 -0.20092,0.0529 -0.35955,0.0529 h -5.53062 q -0.15862,0 -0.38069,-0.0634 -0.22207,-0.074 -0.43356,-0.22207 -0.20093,-0.15862 -0.34897,-0.41241 -0.14805,-0.26437 -0.14805,-0.64507 0,-0.0529 0,-0.11632 0.0106,-0.0635 0.0211,-0.11632 l 0.80368,-4.73751 q 0.0529,-0.31725 0.20093,-0.52874 0.14804,-0.2115 0.33839,-0.3384 0.19034,-0.12689 0.39127,-0.17977 0.20092,-0.0634 0.35954,-0.0634 z"
         id="path25" />
      <path
         d="m 154.17611,184.11289 q 0.0529,-0.31725 0.20092,-0.52874 0.14805,-0.2115 0.33839,-0.3384 0.19035,-0.12689 0.39127,-0.17977 0.20092,-0.0634 0.35954,-0.0634 h 3.17244 q 0.2961,0 0.60277,0.1692 0.31724,0.15862 0.47586,0.59219 0.11633,-0.2115 0.2961,-0.35954 0.17977,-0.14805 0.37012,-0.23265 0.19034,-0.0952 0.37011,-0.1269 0.17978,-0.0423 0.30667,-0.0423 h 2.83405 q 0.15862,0 0.38069,0.074 0.23265,0.0634 0.43357,0.22207 0.21149,0.14805 0.34897,0.41242 0.14804,0.25379 0.14804,0.63448 0,0.0529 0,0.11633 0,0.0634 -0.0212,0.11632 l -0.99403,5.84786 h -2.92922 l 0.0317,-0.20092 q 0.0212,-0.0846 0.0635,-0.33839 0.0529,-0.2538 0.11632,-0.62391 0.0634,-0.37012 0.13747,-0.81426 0.074,-0.45472 0.14805,-0.90944 0.0846,-0.46529 0.15862,-0.89886 0.074,-0.43356 0.1269,-0.76138 0.0529,-0.33839 0.0846,-0.53932 0.0317,-0.21149 0.0317,-0.22207 0,-0.0212 -0.0106,-0.0423 0,-0.0212 -0.0423,-0.0423 -0.0317,-0.0317 -0.074,-0.0423 -0.0423,-0.0106 -0.074,-0.0106 h -0.83541 q -0.19034,0 -0.19034,0.1269 l -0.90944,5.31912 h -2.74945 l 0.0317,-0.20092 q 0.0106,-0.0846 0.0529,-0.33839 0.0529,-0.2538 0.11633,-0.62391 0.0634,-0.37012 0.13747,-0.81426 0.0846,-0.45472 0.15862,-0.90944 0.0846,-0.46529 0.15862,-0.89886 0.074,-0.43356 0.1269,-0.76138 0.0529,-0.33839 0.0846,-0.53932 0.0317,-0.21149 0.0317,-0.22207 0,-0.0635 -0.074,-0.0952 -0.074,-0.0423 -0.1269,-0.0423 h -2.04093 q -0.0952,0 -0.13748,0.0317 -0.0423,0.0317 -0.0634,0.12689 h 1.20553 l -0.89886,5.2874 h -2.93979 z m 11.25159,4.97015 q 0,-0.0529 0,-0.11632 0.0106,-0.0635 0.0212,-0.11632 l 0.80368,-4.73751 q 0.0529,-0.31725 0.20092,-0.52874 0.14805,-0.2115 0.3384,-0.3384 0.19034,-0.12689 0.39127,-0.17977 0.20092,-0.0634 0.35954,-0.0634 h 2.28416 l 0.35954,-1.41702 h 1.32185 l -0.79311,1.41702 h 2.71772 l -0.33839,1.97749 h -3.93383 q -0.17977,0 -0.20092,0.1269 l -0.0846,0.49701 h 3.40509 l -0.35954,1.97749 h -3.38394 q -0.0212,0.074 -0.0317,0.1692 -0.0106,0.0846 -0.0317,0.1692 -0.0106,0.074 -0.0212,0.14804 -0.0106,0.0635 -0.0212,0.11633 0,0.0212 -0.0106,0.074 0,0.0423 -0.0106,0.0529 0,0.0634 0.074,0.10575 0.074,0.0317 0.12689,0.0317 h 3.89153 l -0.33839,1.97748 h -5.42488 q -0.15862,0 -0.38069,-0.0634 -0.22207,-0.074 -0.43357,-0.22207 -0.20092,-0.15862 -0.34896,-0.41241 -0.14805,-0.26437 -0.14805,-0.64507 z m 7.79362,1.343 1.2584,-7.42351 h 6.15454 q 0.15862,0 0.38069,0.074 0.23264,0.0634 0.43357,0.22207 0.21149,0.14805 0.34896,0.41242 0.14805,0.25379 0.14805,0.63448 0,0.0529 0,0.11633 0,0.0634 -0.0211,0.11632 l -0.46529,2.7283 q -0.0423,0.28552 -0.1692,0.48644 -0.12689,0.20092 -0.29609,0.32782 -0.1692,0.12689 -0.35954,0.20092 -0.17978,0.0634 -0.3384,0.0846 l 0.41242,2.01978 h -2.63313 l -0.41241,-2.00921 h -1.22668 l -0.33839,2.00921 z m 5.34027,-3.9867 q 0.0846,0 0.13748,-0.0423 0.0529,-0.0423 0.0634,-0.0846 0.0106,-0.0635 0.0423,-0.24322 0.0317,-0.19035 0.0634,-0.40185 0.0529,-0.21149 0.0635,-0.38069 0.0106,-0.0423 0.0106,-0.074 0.0106,-0.0317 0.0106,-0.0634 0.0106,-0.0106 0.0106,-0.0212 v -0.0106 q 0,-0.0635 -0.074,-0.0952 -0.074,-0.0423 -0.12689,-0.0423 h -1.73427 l -0.2538,1.45932 z m 7.96282,-3.43681 -1.26898,7.42351 h -2.99266 l 1.2584,-7.42351 z m 0.31726,1.97749 0.33839,-1.97749 h 7.66673 l -0.3384,1.97749 h -2.35818 l -0.92,5.44602 h -2.87635 l 0.93058,-5.44602 z m 11.241,0.1269 q -0.0106,0.0529 -0.0423,0.22207 -0.0212,0.15862 -0.0634,0.39127 -0.0317,0.23264 -0.0846,0.51816 -0.0423,0.27495 -0.0952,0.56047 -0.0423,0.29609 -0.0952,0.57104 -0.0423,0.26437 -0.074,0.47586 -0.0317,0.20092 -0.0529,0.32782 -0.0212,0.1269 -0.0212,0.13747 0,0.0212 0,0.0423 0.0106,0.0212 0.0529,0.0423 0.0317,0.0317 0.074,0.0423 0.0423,0.0106 0.0635,0.0106 h 2.19956 q 0.0846,0 0.13747,-0.0317 0.0529,-0.0423 0.0634,-0.0952 0.0106,-0.0529 0.0317,-0.2115 0.0317,-0.16919 0.074,-0.40184 0.0423,-0.23265 0.0846,-0.50759 0.0529,-0.28552 0.0952,-0.57104 0.0529,-0.29609 0.0952,-0.56046 0.0529,-0.27495 0.0846,-0.47587 0.0317,-0.2115 0.0529,-0.33839 0.0211,-0.1269 0.0211,-0.13748 0,-0.0423 -0.0529,-0.0846 -0.0317,-0.0317 -0.074,-0.0423 -0.0423,-0.0106 -0.074,-0.0106 h -2.19956 q -0.0846,0 -0.13747,0.0423 -0.0529,0.0317 -0.0634,0.0846 z m 4.1982,-2.10439 q 0.15862,0 0.38069,0.074 0.23264,0.0634 0.43357,0.22207 0.21149,0.14805 0.34896,0.41242 0.14805,0.25379 0.14805,0.63448 0,0.0529 0,0.11633 0,0.0634 -0.0106,0.11632 l -0.81426,4.73751 q -0.0529,0.31724 -0.20092,0.52874 -0.14805,0.2115 -0.3384,0.33839 -0.19034,0.1269 -0.39127,0.19035 -0.20092,0.0529 -0.35954,0.0529 h -5.53062 q -0.15862,0 -0.38069,-0.0634 -0.22207,-0.074 -0.43357,-0.22207 -0.20092,-0.15862 -0.34897,-0.41241 -0.14804,-0.26437 -0.14804,-0.64507 0,-0.0529 0,-0.11632 0.0106,-0.0635 0.0212,-0.11632 l 0.80368,-4.73751 q 0.0529,-0.31725 0.20092,-0.52874 0.14805,-0.2115 0.3384,-0.3384 0.19034,-0.12689 0.39126,-0.17977 0.20092,-0.0634 0.35955,-0.0634 z"
         id="path26" />
    </g>
  </g>
</svg>
