999
dxfrw 0.6.3
  0
SECTION
  2
HEADER
  9
$ACADVER
  1
AC1021
  9
$DWGCODEPAGE
  3
ANSI_1252
  9
$INSBASE
 10
0
 20
0
 30
0
  9
$EXTMIN
 10
1.577375
 20
79.94823
 30
0
  9
$EXTMAX
 10
201.57738
 20
149.94823
 30
0
  9
$LIMMIN
 10
0
 20
0
  9
$LIMMAX
 10
420
 20
297
  9
$ORTHOMODE
 70
    0
  9
$REGENMODE
 70
    1
  9
$FILLMODE
 70
    1
  9
$QTEXTMODE
 70
    0
  9
$MIRRTEXT
 70
    0
  9
$LTSCALE
 40
1
  9
$ATTMODE
 70
    0
  9
$TEXTSIZE
 40
2.5
  9
$TRACEWID
 40
15.68
  9
$TEXTSTYLE
  7
STANDARD
  9
$CLAYER
  8
0
  9
$CELTYPE
  6
BYLAYER
  9
$CECOLOR
 62
  256
  9
$CELTSCALE
 40
1
  9
$DISPSILH
 70
    0
  9
$DIMSCALE
 40
2.5
  9
$DIMASZ
 40
2.5
  9
$DIMEXO
 40
0.625
  9
$DIMDLI
 40
3.75
  9
$DIMRND
 40
0
  9
$DIMDLE
 40
0
  9
$DIMEXE
 40
1.25
  9
$DIMTP
 40
0
  9
$DIMTM
 40
0
  9
$DIMTXT
 40
2.5
  9
$DIMCEN
 40
2.5
  9
$DIMTSZ
 40
0
  9
$DIMTOL
 70
    0
  9
$DIMLIM
 70
    0
  9
$DIMTIH
 70
    0
  9
$DIMTOH
 70
    0
  9
$DIMSE1
 70
    0
  9
$DIMSE2
 70
    0
  9
$DIMTAD
 70
    1
  9
$DIMZIN
 70
    8
  9
$DIMBLK
  1

  9
$DIMASO
 70
    1
  9
$DIMSHO
 70
    1
  9
$DIMPOST
  1

  9
$DIMAPOST
  1

  9
$DIMALT
 70
    0
  9
$DIMALTD
 70
    3
  9
$DIMALTF
 40
0.03937
  9
$DIMLFAC
 40
1
  9
$DIMTOFL
 70
    1
  9
$DIMTVP
 40
0
  9
$DIMTIX
 70
    0
  9
$DIMSOXD
 70
    0
  9
$DIMSAH
 70
    0
  9
$DIMBLK1
  1

  9
$DIMBLK2
  1

  9
$DIMSTYLE
  2
Standard
  9
$DIMCLRD
 70
    0
  9
$DIMCLRE
 70
    0
  9
$DIMCLRT
 70
    0
  9
$DIMTFAC
 40
1
  9
$DIMGAP
 40
0.625
  9
$DIMJUST
 70
    0
  9
$DIMSD1
 70
    0
  9
$DIMSD2
 70
    0
  9
$DIMTOLJ
 70
    0
  9
$DIMTZIN
 70
    8
  9
$DIMALTZ
 70
    0
  9
$DIMALTTZ
 70
    0
  9
$DIMUPT
 70
    0
  9
$DIMDEC
 70
    2
  9
$DIMTDEC
 70
    2
  9
$DIMALTU
 70
    2
  9
$DIMALTTD
 70
    3
  9
$DIMTXSTY
  7
STANDARD
  9
$DIMAUNIT
 70
    0
  9
$DIMADEC
 70
    0
  9
$DIMALTRND
 40
0
  9
$DIMAZIN
 70
    0
  9
$DIMDSEP
 70
   44
  9
$DIMATFIT
 70
    3
  9
$DIMFRAC
 70
    0
  9
$DIMLDRBLK
  1
STANDARD
  9
$DIMLUNIT
 70
    2
  9
$DIMLWD
 70
   -2
  9
$DIMLWE
 70
   -2
  9
$DIMTMOVE
 70
    0
  9
$DIMFXL
 40
1
  9
$DIMFXLON
 70
    0
  9
$DIMJOGANG
 40
0.7854
  9
$DIMTFILL
 70
    0
  9
$DIMTFILLCLR
 70
    0
  9
$DIMARCSYM
 70
    0
  9
$DIMLTYPE
  6

  9
$DIMLTEX1
  6

  9
$DIMLTEX2
  6

  9
$LUNITS
 70
    2
  9
$LUPREC
 70
    4
  9
$SKETCHINC
 40
1
  9
$FILLETRAD
 40
0
  9
$AUNITS
 70
    0
  9
$AUPREC
 70
    2
  9
$MENU
  1
.
  9
$ELEVATION
 40
0
  9
$PELEVATION
 40
0
  9
$THICKNESS
 40
0
  9
$LIMCHECK
 70
    0
  9
$CHAMFERA
 40
0
  9
$CHAMFERB
 40
0
  9
$CHAMFERC
 40
0
  9
$CHAMFERD
 40
0
  9
$SKPOLY
 70
    0
  9
$USRTIMER
 70
    1
  9
$ANGBASE
 50
0
  9
$ANGDIR
 70
    0
  9
$PDMODE
 70
   96
  9
$PDSIZE
 40
-2
  9
$PLINEWID
 40
0
  9
$SPLFRAME
 70
    0
  9
$SPLINETYPE
 70
    2
  9
$SPLINESEGS
 70
    8
  9
$HANDSEED
  5
20000
  9
$SURFTAB1
 70
    6
  9
$SURFTAB2
 70
    6
  9
$SURFTYPE
 70
    6
  9
$SURFU
 70
    6
  9
$SURFV
 70
    6
  9
$UCSBASE
  2

  9
$UCSNAME
  2

  9
$UCSORG
 10
0
 20
0
 30
0
  9
$UCSXDIR
 10
1
 20
0
 30
0
  9
$UCSYDIR
 10
0
 20
1
 30
0
  9
$UCSORTHOREF
  2

  9
$UCSORTHOVIEW
 70
    0
  9
$UCSORGTOP
 10
0
 20
0
 30
0
  9
$UCSORGBOTTOM
 10
0
 20
0
 30
0
  9
$UCSORGLEFT
 10
0
 20
0
 30
0
  9
$UCSORGRIGHT
 10
0
 20
0
 30
0
  9
$UCSORGFRONT
 10
0
 20
0
 30
0
  9
$UCSORGBACK
 10
0
 20
0
 30
0
  9
$PUCSBASE
  2

  9
$PUCSNAME
  2

  9
$PUCSORG
 10
0
 20
0
 30
0
  9
$PUCSXDIR
 10
1
 20
0
 30
0
  9
$PUCSYDIR
 10
0
 20
1
 30
0
  9
$PUCSORTHOREF
  2

  9
$PUCSORTHOVIEW
 70
    0
  9
$PUCSORGTOP
 10
0
 20
0
 30
0
  9
$PUCSORGBOTTOM
 10
0
 20
0
 30
0
  9
$PUCSORGLEFT
 10
0
 20
0
 30
0
  9
$PUCSORGRIGHT
 10
0
 20
0
 30
0
  9
$PUCSORGFRONT
 10
0
 20
0
 30
0
  9
$PUCSORGBACK
 10
0
 20
0
 30
0
  9
$USERI1
 70
    0
  9
$USERI2
 70
    0
  9
$USERI3
 70
    0
  9
$USERI4
 70
    0
  9
$USERI5
 70
    0
  9
$USERR1
 40
0
  9
$USERR2
 40
0
  9
$USERR3
 40
0
  9
$USERR4
 40
0
  9
$USERR5
 40
0
  9
$WORLDVIEW
 70
    1
  9
$SHADEDGE
 70
    3
  9
$SHADEDIF
 70
   70
  9
$TILEMODE
 70
    1
  9
$MAXACTVP
 70
   64
  9
$PINSBASE
 10
0
 20
0
 30
0
  9
$PLIMCHECK
 70
    0
  9
$PEXTMIN
 10
0
 20
0
 30
0
  9
$PEXTMAX
 10
0
 20
0
 30
0
  9
$SNAPSTYLE
 70
    0
  9
$PLIMMIN
 10
0
 20
0
  9
$PLIMMAX
 10
210
 20
297
  9
$UNITMODE
 70
    0
  9
$VISRETAIN
 70
    1
  9
$PLINEGEN
 70
    0
  9
$PSLTSCALE
 70
    1
  9
$TREEDEPTH
 70
 3020
  9
$CMLSTYLE
  2
Standard
  9
$CMLJUST
 70
    0
  9
$CMLSCALE
 40
20
  9
$PROXYGRAPHICS
 70
    1
  9
$MEASUREMENT
 70
    1
  9
$CELWEIGHT
370
   -1
  9
$ENDCAPS
280
    0
  9
$JOINSTYLE
280
    0
  9
$LWDISPLAY
290
    0
  9
$INSUNITS
 70
    4
  9
$HYPERLINKBASE
  1

  9
$STYLESHEET
  1

  9
$XEDIT
290
    1
  9
$CEPSNTYPE
380
    0
  9
$PSTYLEMODE
290
    1
  9
$EXTNAMES
290
    1
  9
$PSVPSCALE
 40
1
  9
$OLESTARTUP
290
    0
  9
$SORTENTS
280
  127
  9
$INDEXCTL
280
    0
  9
$HIDETEXT
280
    1
  9
$XCLIPFRAME
290
    0
  9
$HALOGAP
280
    0
  9
$OBSCOLOR
 70
  257
  9
$OBSLTYPE
280
    0
  9
$INTERSECTIONDISPLAY
280
    0
  9
$INTERSECTIONCOLOR
 70
  257
  9
$DIMASSOC
280
    1
  9
$PROJECTNAME
  1

  9
$CAMERADISPLAY
290
    0
  9
$LENSLENGTH
 40
50
  9
$CAMERAHEIGHT
 40
0
  9
$STEPSPERSEC
 40
2
  9
$STEPSIZE
 40
50
  9
$3DDWFPREC
 40
2
  9
$PSOLWIDTH
 40
5
  9
$PSOLHEIGHT
 40
80
  9
$LOFTANG1
 40
1.570796326794897
  9
$LOFTANG2
 40
1.570796326794897
  9
$LOFTMAG1
 40
0
  9
$LOFTMAG2
 40
0
  9
$LOFTPARAM
 70
    7
  9
$LOFTNORMALS
280
    1
  9
$LATITUDE
 40
1
  9
$LONGITUDE
 40
1
  9
$NORTHDIRECTION
 40
0
  9
$TIMEZONE
 70
-8000
  9
$LIGHTGLYPHDISPLAY
280
    1
  9
$TILEMODELIGHTSYNCH
280
    1
  9
$SOLIDHIST
280
    1
  9
$SHOWHIST
280
    1
  9
$DWFFRAME
280
    2
  9
$DGNFRAME
280
    0
  9
$REALWORLDSCALE
290
    1
  9
$INTERFERECOLOR
 62
    1
  9
$CSHADOW
280
    0
  9
$SHADOWPLANELOCATION
 40
0
  0
ENDSEC
  0
SECTION
  2
CLASSES
  0
ENDSEC
  0
SECTION
  2
TABLES
  0
TABLE
  2
VPORT
  5
8
330
0
100
AcDbSymbolTable
 70
    1
  0
VPORT
  5
31
330
2
100
AcDbSymbolTableRecord
100
AcDbViewportTableRecord
  2
*ACTIVE
 70
    0
 10
0
 20
0
 11
1
 21
1
 12
116.9688750000029
 22
115.4055000000028
 13
0
 23
0
 14
10
 24
10
 15
10
 25
10
 16
0
 26
0
 36
1
 17
0
 27
0
 37
0
 40
223.9890000000055
 41
1.722081218274112
 42
50
 43
0
 44
0
 50
0
 51
0
 71
    0
 72
  100
 73
    1
 74
    3
 75
    0
 76
    1
 77
    0
 78
    0
281
    0
 65
    1
110
0
120
0
130
0
111
1
121
0
131
0
112
0
122
1
132
0
 79
    0
146
0
348
10020
 60
    7
 61
    5
292
1
282
    1
141
0
142
0
 63
  250
421
3358443
  0
ENDTAB
  0
TABLE
  2
LTYPE
  5
5
330
0
100
AcDbSymbolTable
 70
    4
  0
LTYPE
  5
14
330
5
100
AcDbSymbolTableRecord
100
AcDbLinetypeTableRecord
  2
ByBlock
 70
    0
  3

 72
   65
 73
    0
 40
0
  0
LTYPE
  5
15
330
5
100
AcDbSymbolTableRecord
100
AcDbLinetypeTableRecord
  2
ByLayer
 70
    0
  3

 72
   65
 73
    0
 40
0
  0
LTYPE
  5
16
330
5
100
AcDbSymbolTableRecord
100
AcDbLinetypeTableRecord
  2
Continuous
 70
    0
  3
Solid line
 72
   65
 73
    0
 40
0
  0
LTYPE
  5
32
330
5
100
AcDbSymbolTableRecord
100
AcDbLinetypeTableRecord
  2
DOT
 70
    0
  3
Dot . . . . . . . . . . . . . . . . . . . . . .
 72
   65
 73
    2
 40
6.35
 49
0
 74
    0
 49
-6.35
 74
    0
  0
LTYPE
  5
33
330
5
100
AcDbSymbolTableRecord
100
AcDbLinetypeTableRecord
  2
DOTTINY
 70
    0
  3
Dot (.15x) .....................................
 72
   65
 73
    2
 40
0.9525
 49
0
 74
    0
 49
-0.9525
 74
    0
  0
LTYPE
  5
34
330
5
100
AcDbSymbolTableRecord
100
AcDbLinetypeTableRecord
  2
DOT2
 70
    0
  3
Dot (.5x) .....................................
 72
   65
 73
    2
 40
3.175
 49
0
 74
    0
 49
-3.175
 74
    0
  0
LTYPE
  5
35
330
5
100
AcDbSymbolTableRecord
100
AcDbLinetypeTableRecord
  2
DOTX2
 70
    0
  3
Dot (2x) .  .  .  .  .  .  .  .  .  .  .  .  .
 72
   65
 73
    2
 40
12.7
 49
0
 74
    0
 49
-12.7
 74
    0
  0
LTYPE
  5
36
330
5
100
AcDbSymbolTableRecord
100
AcDbLinetypeTableRecord
  2
DASHED
 70
    0
  3
Dashed _ _ _ _ _ _ _ _ _ _ _ _ _ _ _ _ _
 72
   65
 73
    2
 40
19.05
 49
12.7
 74
    0
 49
-6.35
 74
    0
  0
LTYPE
  5
37
330
5
100
AcDbSymbolTableRecord
100
AcDbLinetypeTableRecord
  2
DASHEDTINY
 70
    0
  3
Dashed (.15x) _ _ _ _ _ _ _ _ _ _ _ _ _ _ _ _ _
 72
   65
 73
    2
 40
2.8575
 49
1.905
 74
    0
 49
-0.9525
 74
    0
  0
LTYPE
  5
38
330
5
100
AcDbSymbolTableRecord
100
AcDbLinetypeTableRecord
  2
DASHED2
 70
    0
  3
Dashed (.5x) _ _ _ _ _ _ _ _ _ _ _ _ _ _ _ _ _
 72
   65
 73
    2
 40
9.524999999999999
 49
6.35
 74
    0
 49
-3.175
 74
    0
  0
LTYPE
  5
39
330
5
100
AcDbSymbolTableRecord
100
AcDbLinetypeTableRecord
  2
DASHEDX2
 70
    0
  3
Dashed (2x) ____  ____  ____  ____  ____  ___
 72
   65
 73
    2
 40
38.09999999999999
 49
25.4
 74
    0
 49
-12.7
 74
    0
  0
LTYPE
  5
3A
330
5
100
AcDbSymbolTableRecord
100
AcDbLinetypeTableRecord
  2
DASHDOT
 70
    0
  3
Dash dot __ . __ . __ . __ . __ . __ . __ . __
 72
   65
 73
    4
 40
25.4
 49
12.7
 74
    0
 49
-6.35
 74
    0
 49
0
 74
    0
 49
-6.35
 74
    0
  0
LTYPE
  5
3B
330
5
100
AcDbSymbolTableRecord
100
AcDbLinetypeTableRecord
  2
DASHDOTTINY
 70
    0
  3
Dash dot (.15x) _._._._._._._._._._._._._._._.
 72
   65
 73
    4
 40
3.81
 49
1.905
 74
    0
 49
-0.9525
 74
    0
 49
0
 74
    0
 49
-0.9525
 74
    0
  0
LTYPE
  5
3C
330
5
100
AcDbSymbolTableRecord
100
AcDbLinetypeTableRecord
  2
DASHDOT2
 70
    0
  3
Dash dot (.5x) _._._._._._._._._._._._._._._.
 72
   65
 73
    4
 40
12.7
 49
6.35
 74
    0
 49
-3.175
 74
    0
 49
0
 74
    0
 49
-3.175
 74
    0
  0
LTYPE
  5
3D
330
5
100
AcDbSymbolTableRecord
100
AcDbLinetypeTableRecord
  2
DASHDOTX2
 70
    0
  3
Dash dot (2x) ____  .  ____  .  ____  .  ___
 72
   65
 73
    4
 40
50.8
 49
25.4
 74
    0
 49
-12.7
 74
    0
 49
0
 74
    0
 49
-12.7
 74
    0
  0
LTYPE
  5
3E
330
5
100
AcDbSymbolTableRecord
100
AcDbLinetypeTableRecord
  2
DIVIDE
 70
    0
  3
Divide ____ . . ____ . . ____ . . ____ . . ____
 72
   65
 73
    6
 40
31.75
 49
12.7
 74
    0
 49
-6.35
 74
    0
 49
0
 74
    0
 49
-6.35
 74
    0
 49
0
 74
    0
 49
-6.35
 74
    0
  0
LTYPE
  5
3F
330
5
100
AcDbSymbolTableRecord
100
AcDbLinetypeTableRecord
  2
DIVIDETINY
 70
    0
  3
Divide (.15x) __..__..__..__..__..__..__..__.._
 72
   65
 73
    6
 40
4.7625
 49
1.905
 74
    0
 49
-0.9525
 74
    0
 49
0
 74
    0
 49
-0.9525
 74
    0
 49
0
 74
    0
 49
-0.9525
 74
    0
  0
LTYPE
  5
40
330
5
100
AcDbSymbolTableRecord
100
AcDbLinetypeTableRecord
  2
DIVIDE2
 70
    0
  3
Divide (.5x) __..__..__..__..__..__..__..__.._
 72
   65
 73
    6
 40
15.875
 49
6.35
 74
    0
 49
-3.175
 74
    0
 49
0
 74
    0
 49
-3.175
 74
    0
 49
0
 74
    0
 49
-3.175
 74
    0
  0
LTYPE
  5
41
330
5
100
AcDbSymbolTableRecord
100
AcDbLinetypeTableRecord
  2
DIVIDEX2
 70
    0
  3
Divide (2x) ________  .  .  ________  .  .  _
 72
   65
 73
    6
 40
63.5
 49
25.4
 74
    0
 49
-12.7
 74
    0
 49
0
 74
    0
 49
-12.7
 74
    0
 49
0
 74
    0
 49
-12.7
 74
    0
  0
LTYPE
  5
42
330
5
100
AcDbSymbolTableRecord
100
AcDbLinetypeTableRecord
  2
BORDER
 70
    0
  3
Border __ __ . __ __ . __ __ . __ __ . __ __ .
 72
   65
 73
    6
 40
44.45
 49
12.7
 74
    0
 49
-6.35
 74
    0
 49
12.7
 74
    0
 49
-6.35
 74
    0
 49
0
 74
    0
 49
-6.35
 74
    0
  0
LTYPE
  5
43
330
5
100
AcDbSymbolTableRecord
100
AcDbLinetypeTableRecord
  2
BORDERTINY
 70
    0
  3
Border (.15x) __.__.__.__.__.__.__.__.__.__.__.
 72
   65
 73
    6
 40
6.6675
 49
1.905
 74
    0
 49
-0.9525
 74
    0
 49
1.905
 74
    0
 49
-0.9525
 74
    0
 49
0
 74
    0
 49
-0.9525
 74
    0
  0
LTYPE
  5
44
330
5
100
AcDbSymbolTableRecord
100
AcDbLinetypeTableRecord
  2
BORDER2
 70
    0
  3
Border (.5x) __.__.__.__.__.__.__.__.__.__.__.
 72
   65
 73
    6
 40
22.225
 49
6.35
 74
    0
 49
-3.175
 74
    0
 49
6.35
 74
    0
 49
-3.175
 74
    0
 49
0
 74
    0
 49
-3.175
 74
    0
  0
LTYPE
  5
45
330
5
100
AcDbSymbolTableRecord
100
AcDbLinetypeTableRecord
  2
BORDERX2
 70
    0
  3
Border (2x) ____  ____  .  ____  ____  .  ___
 72
   65
 73
    6
 40
88.89999999999999
 49
25.4
 74
    0
 49
-12.7
 74
    0
 49
25.4
 74
    0
 49
-12.7
 74
    0
 49
0
 74
    0
 49
-12.7
 74
    0
  0
LTYPE
  5
46
330
5
100
AcDbSymbolTableRecord
100
AcDbLinetypeTableRecord
  2
CENTER
 70
    0
  3
Center ____ _ ____ _ ____ _ ____ _ ____ _ ____
 72
   65
 73
    4
 40
50.8
 49
31.75
 74
    0
 49
-6.35
 74
    0
 49
6.35
 74
    0
 49
-6.35
 74
    0
  0
LTYPE
  5
47
330
5
100
AcDbSymbolTableRecord
100
AcDbLinetypeTableRecord
  2
CENTERTINY
 70
    0
  3
Center (.15x) ___ _ ___ _ ___ _ ___ _ ___ _ ___
 72
   65
 73
    4
 40
7.619999999999999
 49
4.7625
 74
    0
 49
-0.9525
 74
    0
 49
0.9525
 74
    0
 49
-0.9525
 74
    0
  0
LTYPE
  5
48
330
5
100
AcDbSymbolTableRecord
100
AcDbLinetypeTableRecord
  2
CENTER2
 70
    0
  3
Center (.5x) ___ _ ___ _ ___ _ ___ _ ___ _ ___
 72
   65
 73
    4
 40
28.575
 49
19.05
 74
    0
 49
-3.175
 74
    0
 49
3.175
 74
    0
 49
-3.175
 74
    0
  0
LTYPE
  5
49
330
5
100
AcDbSymbolTableRecord
100
AcDbLinetypeTableRecord
  2
CENTERX2
 70
    0
  3
Center (2x) ________  __  ________  __  _____
 72
   65
 73
    4
 40
101.6
 49
63.5
 74
    0
 49
-12.7
 74
    0
 49
12.7
 74
    0
 49
-12.7
 74
    0
  0
ENDTAB
  0
TABLE
  2
LAYER
  5
2
330
0
100
AcDbSymbolTable
 70
    1
  0
LAYER
  5
10
330
2
100
AcDbSymbolTableRecord
100
AcDbLayerTableRecord
  2
0
 70
    0
 62
    7
  6
CONTINUOUS
370
   25
390
F
  0
LAYER
  5
4A
330
2
100
AcDbSymbolTableRecord
100
AcDbLayerTableRecord
  2
Layer 1
 70
    0
 62
    7
  6
CONTINUOUS
370
   -3
390
F
  0
ENDTAB
  0
TABLE
  2
STYLE
  5
3
330
0
100
AcDbSymbolTable
 70
    3
  0
STYLE
  5
4B
330
2
100
AcDbSymbolTableRecord
100
AcDbTextStyleTableRecord
  2
Standard
 70
    0
 40
0
 41
1
 50
0
 71
    0
 42
1
  3
txt
  4

  0
ENDTAB
  0
TABLE
  2
VIEW
  5
6
330
0
100
AcDbSymbolTable
 70
    0
  0
ENDTAB
  0
TABLE
  2
UCS
  5
7
330
0
100
AcDbSymbolTable
 70
    0
  0
ENDTAB
  0
TABLE
  2
APPID
  5
9
330
0
100
AcDbSymbolTable
 70
    1
  0
APPID
  5
12
330
9
100
AcDbSymbolTableRecord
100
AcDbRegAppTableRecord
  2
ACAD
 70
    0
  0
APPID
  5
4C
330
9
100
AcDbSymbolTableRecord
100
AcDbRegAppTableRecord
  2
LibreCad
 70
    0
  0
ENDTAB
  0
TABLE
  2
DIMSTYLE
  5
A
330
0
100
AcDbSymbolTable
 70
    1
100
AcDbDimStyleTable
 71
    1
  0
DIMSTYLE
105
4D
330
A
100
AcDbSymbolTableRecord
100
AcDbDimStyleTableRecord
  2
Standard
 70
    0
 40
1
 41
2.5
 42
0.625
 43
0.38
 44
1.25
 45
0
 46
0
 47
0
 48
0
 49
1
140
2.5
141
0.09
142
2.5
143
25.4
144
1
145
0
146
1
147
0.625
148
0
 71
    0
 72
    0
 73
    0
 74
    1
 75
    0
 76
    0
 77
    0
 78
    1
 79
    0
170
    0
171
    2
172
    0
173
    0
174
    0
175
    0
176
    0
177
    0
178
    0
179
    0
271
    2
272
    4
273
    2
274
    2
275
    0
276
    0
277
    2
278
    0
279
    0
280
    0
281
    0
282
    0
283
    1
284
    0
285
    0
286
    0
288
    0
289
    3
340
4B
  0
ENDTAB
  0
TABLE
  2
BLOCK_RECORD
  5
1
330
0
100
AcDbSymbolTable
 70
    2
  0
BLOCK_RECORD
  5
1F
330
1
100
AcDbSymbolTableRecord
100
AcDbBlockTableRecord
  2
*Model_Space
 70
    0
280
    1
281
    0
  0
BLOCK_RECORD
  5
1E
330
1
100
AcDbSymbolTableRecord
100
AcDbBlockTableRecord
  2
*Paper_Space
 70
    0
280
    1
281
    0
  0
ENDTAB
  0
ENDSEC
  0
SECTION
  2
BLOCKS
  0
BLOCK
  5
20
330
1F
100
AcDbEntity
  8
0
100
AcDbBlockBegin
  2
*Model_Space
 70
    0
 10
0
 20
0
 30
0
  3
*Model_Space
  1

  0
ENDBLK
  5
21
330
1F
100
AcDbEntity
  8
0
100
AcDbBlockEnd
  0
BLOCK
  5
1C
330
1B
100
AcDbEntity
  8
0
100
AcDbBlockBegin
  2
*Paper_Space
 70
    0
 10
0
 20
0
 30
0
  3
*Paper_Space
  1

  0
ENDBLK
  5
1D
330
1F
100
AcDbEntity
  8
0
100
AcDbBlockEnd
  0
ENDSEC
  0
SECTION
  2
ENTITIES
  0
LWPOLYLINE
  5
4E
100
AcDbEntity
  8
0
  6
ByLayer
 62
  256
370
   -1
100
AcDbPolyline
 90
   49
 70
    1
 43
0
 10
55.673863
 20
121.767558
 10
56.149689
 20
123.608725
 10
56.920855
 20
125.115135
 10
57.905323
 20
126.320263
 10
59.021053
 20
127.257588
 10
60.218822
 20
127.943844
 10
61.449407
 20
128.395768
 10
62.630768
 20
128.697052
 10
63.680867
 20
128.79748
 10
81.270025
 20
128.79748
 10
82.05759999999999
 20
128.99833
 10
82.451386
 20
129.600892
 10
82.58264800000001
 20
130.203464
 10
82.71391199999999
 20
130.872979
 10
82.845174
 20
131.475541
 10
82.845174
 20
131.877253
 10
82.77954099999999
 20
132.145057
 10
82.517015
 20
132.412861
 10
82.057598
 20
132.680675
 10
81.598179
 20
132.747639
 10
57.511536
 20
132.747639
 10
59.546103
 20
145.267602
 10
93.214901
 20
145.267602
 10
94.297815
 20
145.150435
 10
95.577623
 20
144.798937
 10
96.97228699999999
 20
144.246585
 10
98.268503
 20
143.392952
 10
99.482679
 20
142.271516
 10
100.499967
 20
140.781844
 10
101.189092
 20
138.974146
 10
101.4188
 20
136.764742
 10
101.353157
 20
136.028273
 10
101.287514
 20
135.291804
 10
99.252948
 20
123.307459
 10
98.777124
 20
121.466292
 10
98.00595800000001
 20
119.959882
 10
97.02149
 20
118.754748
 10
95.90576
 20
117.817429
 10
94.70799100000001
 20
117.114434
 10
93.477406
 20
116.612295
 10
91.245946
 20
116.277537
 10
73.656808
 20
116.277537
 10
73.180982
 20
116.210586
 10
72.803602
 20
116.009733
 10
72.47544600000001
 20
115.474115
 10
71.687872
 20
110.787486
 10
97.152772
 20
110.787486
 10
95.118206
 20
98.26752399999999
 10
51.735992
 20
98.26752399999999
  0
LWPOLYLINE
  5
4F
100
AcDbEntity
  8
0
  6
ByLayer
 62
  256
370
   -1
100
AcDbPolyline
 90
    9
 70
    1
 43
0
 10
59.355608
 20
93.199889
 10
59.946466
 20
96.755579
 10
61.356581
 20
96.755579
 10
61.197695
 20
95.808412
 10
60.711106
 20
95.808412
 10
60.651522
 20
95.793262
 10
60.61677
 20
95.73245900000001
 10
61.182803
 20
95.73245900000001
 10
60.760758
 20
93.199889
  0
LWPOLYLINE
  5
50
100
AcDbEntity
  8
0
  6
ByLayer
 62
  256
370
   -1
100
AcDbPolyline
 90
    9
 70
    1
 43
0
 10
61.555192
 20
93.199889
 10
62.14605
 20
96.755579
 10
63.556165
 20
96.755579
 10
63.39728
 20
95.808412
 10
62.91069
 20
95.808412
 10
62.851106
 20
95.793262
 10
62.816354
 20
95.73245900000001
 10
63.382387
 20
95.73245900000001
 10
62.960342
 20
93.199889
  0
LWPOLYLINE
  5
51
100
AcDbEntity
  8
0
  6
ByLayer
 62
  256
370
   -1
100
AcDbPolyline
 90
    9
 70
    1
 43
0
 10
63.754777
 20
93.199889
 10
64.345635
 20
96.755579
 10
65.75574899999999
 20
96.755579
 10
65.596863
 20
95.808412
 10
65.110275
 20
95.808412
 10
65.050691
 20
95.793262
 10
65.015939
 20
95.73245900000001
 10
65.581971
 20
95.73245900000001
 10
65.159927
 20
93.199889
  0
LWPOLYLINE
  5
52
100
AcDbEntity
  8
0
  6
ByLayer
 62
  256
370
   -1
100
AcDbPolyline
 90
   30
 70
    1
 43
0
 10
66.897752
 20
93.89890699999999
 10
66.90768199999999
 20
93.95466
 10
67.28503600000001
 20
96.22381900000001
 10
67.379372
 20
96.477079
 10
67.538259
 20
96.639155
 10
67.721971
 20
96.725309
 10
67.890787
 20
96.75570999999999
 10
71.05361499999999
 20
96.75570999999999
 10
70.894729
 20
95.808543
 10
68.079465
 20
95.808543
 10
68.014921
 20
95.79339299999999
 10
67.985129
 20
95.73259
 10
68.55612600000001
 20
95.73259
 10
68.288005
 20
94.147218
 10
69.266149
 20
94.147218
 10
69.350554
 20
94.56255400000001
 10
68.769627
 20
94.56255400000001
 10
68.93844300000001
 20
95.509722
 10
70.855007
 20
95.509722
 10
70.54716500000001
 20
93.731872
 10
70.45282899999999
 20
93.478622
 10
70.293943
 20
93.316535
 10
70.110231
 20
93.225331
 10
69.94141500000001
 20
93.19998
 10
67.513435
 20
93.19998
 10
67.334688
 20
93.23038099999999
 10
67.13111600000001
 20
93.33674600000001
 10
66.967264
 20
93.534283
 10
66.89775
 20
93.843256
 10
66.897752
 20
93.843155
  0
LWPOLYLINE
  5
53
100
AcDbEntity
  8
0
  6
ByLayer
 62
  256
370
   -1
100
AcDbPolyline
 90
    4
 70
    1
 43
0
 10
72.607725
 20
93.199889
 10
71.20257599999999
 20
93.199889
 10
71.793434
 20
96.755579
 10
73.203548
 20
96.755579
  0
LWPOLYLINE
  5
54
100
AcDbEntity
  8
0
  6
ByLayer
 62
  256
370
   -1
100
AcDbPolyline
 90
   24
 70
    1
 43
0
 10
77.06150700000001
 20
96.755579
 10
77.24025399999999
 20
96.720128
 10
77.443827
 20
96.61376300000001
 10
77.60767800000001
 20
96.41622599999999
 10
77.67719200000001
 20
96.112314
 10
77.672242
 20
96.056561
 10
77.66729100000001
 20
96.000809
 10
77.200563
 20
93.199808
 10
75.850031
 20
93.199808
 10
75.864931
 20
93.29606200000001
 10
75.894723
 20
93.45814900000001
 10
75.949337
 20
93.756991
 10
76.013881
 20
94.147006
 10
76.083395
 20
94.58260300000001
 10
76.15786900000001
 20
95.01313
 10
76.21745300000001
 20
95.377814
 10
76.262136
 20
95.636134
 10
76.277027
 20
95.742509
 10
76.24227500000001
 20
95.78806
 10
76.18269100000001
 20
95.808361
 10
75.14
 20
95.808361
 10
74.703064
 20
93.199839
 10
73.352531
 20
93.199839
 10
73.943366
 20
96.755579
  0
LWPOLYLINE
  5
55
100
AcDbEntity
  8
0
  6
ByLayer
 62
  256
370
   -1
100
AcDbPolyline
 90
   29
 70
    1
 43
0
 10
78.39218200000001
 20
93.199889
 10
78.213435
 20
93.23029099999999
 10
78.009862
 20
93.33665499999999
 10
77.84601000000001
 20
93.534193
 10
77.77649599999999
 20
93.843165
 10
77.77649599999999
 20
93.898917
 10
77.786427
 20
93.95466999999999
 10
78.163782
 20
96.22382899999999
 10
78.258118
 20
96.47708900000001
 10
78.41700400000001
 20
96.63916500000001
 10
78.60071499999999
 20
96.725319
 10
78.769533
 20
96.75572
 10
81.644379
 20
96.75572
 10
81.490458
 20
95.808553
 10
79.529207
 20
95.808553
 10
79.464663
 20
95.788252
 10
79.434871
 20
95.74775099999999
 10
79.41501
 20
95.641386
 10
79.38521799999999
 20
95.453979
 10
79.340535
 20
95.205789
 10
79.29585299999999
 20
94.93733899999999
 10
79.25117
 20
94.66381800000001
 10
79.21144700000001
 20
94.435889
 10
79.186616
 20
94.278873
 10
79.17668500000001
 20
94.21302
 10
79.211438
 20
94.162318
 10
79.271021
 20
94.14716799999999
 10
81.212411
 20
94.14716799999999
 10
81.05352499999999
 20
93.199889
  0
LWPOLYLINE
  5
56
100
AcDbEntity
  8
0
  6
ByLayer
 62
  256
370
   -1
100
AcDbPolyline
 90
   12
 70
    1
 43
0
 10
82.49838800000001
 20
96.755579
 10
84.400057
 20
96.755579
 10
84.57383799999999
 20
96.725178
 10
84.76748000000001
 20
96.628924
 10
84.931332
 20
96.45164699999999
 10
85.015737
 20
96.183196
 10
85.313648
 20
93.199859
 10
84.022699
 20
93.199859
 10
83.973046
 20
93.711439
 10
82.984973
 20
93.711439
 10
82.845947
 20
93.199859
 10
81.55003600000001
 20
93.199889
  0
LWPOLYLINE
  5
57
100
AcDbEntity
  8
0
  6
ByLayer
 62
  256
370
   -1
100
AcDbPolyline
 90
    6
 70
    1
 43
0
 10
83.769476
 20
95.747629
 10
83.739684
 20
95.78813100000001
 10
83.675141
 20
95.808432
 10
83.54604500000001
 20
95.808432
 10
83.238203
 20
94.65865700000001
 10
83.878711
 20
94.658637
  0
LWPOLYLINE
  5
58
100
AcDbEntity
  8
0
  6
ByLayer
 62
  256
370
   -1
100
AcDbPolyline
 90
   24
 70
    1
 43
0
 10
89.320566
 20
96.755579
 10
89.499313
 20
96.720128
 10
89.70288600000001
 20
96.61376300000001
 10
89.866738
 20
96.41622599999999
 10
89.936252
 20
96.112314
 10
89.931301
 20
96.056561
 10
89.926351
 20
96.000809
 10
89.45962400000001
 20
93.199808
 10
88.10909100000001
 20
93.199808
 10
88.123982
 20
93.29606200000001
 10
88.153774
 20
93.45814900000001
 10
88.208387
 20
93.756991
 10
88.272931
 20
94.147006
 10
88.342446
 20
94.58260300000001
 10
88.41692
 20
95.01313
 10
88.47650400000001
 20
95.377814
 10
88.521187
 20
95.636134
 10
88.53607700000001
 20
95.742509
 10
88.50132499999999
 20
95.78806
 10
88.441742
 20
95.808361
 10
87.399036
 20
95.808361
 10
86.96210000000001
 20
93.199839
 10
85.61156699999999
 20
93.199839
 10
86.20242500000001
 20
96.755579
  0
LWPOLYLINE
  5
59
100
AcDbEntity
  8
0
  6
ByLayer
 62
  256
370
   -1
100
AcDbPolyline
 90
   12
 70
    1
 43
0
 10
90.98390999999999
 20
96.755579
 10
92.885578
 20
96.755579
 10
93.05936
 20
96.725178
 10
93.25300300000001
 20
96.628924
 10
93.416854
 20
96.45164699999999
 10
93.501259
 20
96.183196
 10
93.799171
 20
93.199859
 10
92.50822100000001
 20
93.199859
 10
92.458568
 20
93.711439
 10
91.470493
 20
93.711439
 10
91.331468
 20
93.199859
 10
90.03555799999999
 20
93.199889
  0
LWPOLYLINE
  5
5A
100
AcDbEntity
  8
0
  6
ByLayer
 62
  256
370
   -1
100
AcDbPolyline
 90
    6
 70
    1
 43
0
 10
92.254999
 20
95.747629
 10
92.225207
 20
95.78813100000001
 10
92.160663
 20
95.808432
 10
92.03156799999999
 20
95.808432
 10
91.723727
 20
94.65865700000001
 10
92.364234
 20
94.658637
  0
LWPOLYLINE
  5
5B
100
AcDbEntity
  8
0
  6
ByLayer
 62
  256
370
   -1
100
AcDbPolyline
 90
    9
 70
    1
 43
0
 10
55.04335
 20
86.868531
 10
55.634208
 20
90.42422000000001
 10
57.044321
 20
90.42422000000001
 10
56.885436
 20
89.477053
 10
56.398847
 20
89.477053
 10
56.339264
 20
89.46180200000001
 10
56.304511
 20
89.400999
 10
56.870543
 20
89.400999
 10
56.448499
 20
86.868531
  0
LWPOLYLINE
  5
5C
100
AcDbEntity
  8
0
  6
ByLayer
 62
  256
370
   -1
100
AcDbPolyline
 90
   24
 70
    1
 43
0
 10
60.90228
 20
90.42422000000001
 10
61.081027
 20
90.388769
 10
61.284601
 20
90.28239499999999
 10
61.448452
 20
90.084857
 10
61.517966
 20
89.78095500000001
 10
61.513015
 20
89.725202
 10
61.508065
 20
89.66945
 10
61.041337
 20
86.86846
 10
59.690804
 20
86.86846
 10
59.705705
 20
86.964714
 10
59.735497
 20
87.1268
 10
59.79011
 20
87.425642
 10
59.854654
 20
87.815647
 10
59.924169
 20
88.251244
 10
59.998643
 20
88.681781
 10
60.058227
 20
89.046466
 10
60.102909
 20
89.30478599999999
 10
60.1178
 20
89.41115000000001
 10
60.083048
 20
89.456701
 10
60.023465
 20
89.477003
 10
58.980774
 20
89.477003
 10
58.543837
 20
86.86848000000001
 10
57.193304
 20
86.86848000000001
 10
57.78414
 20
90.42422000000001
  0
LWPOLYLINE
  5
5D
100
AcDbEntity
  8
0
  6
ByLayer
 62
  256
370
   -1
100
AcDbPolyline
 90
    8
 70
    1
 43
0
 10
61.875465
 20
90.42422000000001
 10
65.475229
 20
90.42422000000001
 10
65.316343
 20
89.477053
 10
64.20910499999999
 20
89.477053
 10
63.777133
 20
86.868531
 10
62.426601
 20
86.868531
 10
62.863538
 20
89.477053
 10
61.716578
 20
89.477053
  0
LWPOLYLINE
  5
5E
100
AcDbEntity
  8
0
  6
ByLayer
 62
  256
370
   -1
100
AcDbPolyline
 90
   31
 70
    1
 43
0
 10
66.820789
 20
88.150031
 10
66.805888
 20
88.069028
 10
66.795957
 20
87.998126
 10
66.786027
 20
87.942373
 10
66.781076
 20
87.90692199999999
 10
66.776126
 20
87.88157099999999
 10
66.810878
 20
87.830868
 10
66.870462
 20
87.815617
 10
68.69765200000001
 20
87.815617
 10
68.538766
 20
86.86845
 10
65.99162200000001
 20
86.86845
 10
65.81287500000001
 20
86.89885099999999
 10
65.609303
 20
87.00521500000001
 10
65.44545100000001
 20
87.202753
 10
65.37593699999999
 20
87.511725
 10
65.37593699999999
 20
87.56747799999999
 10
65.385867
 20
87.62323000000001
 10
65.763221
 20
89.89238899999999
 10
65.857557
 20
90.145639
 10
66.01644400000001
 20
90.307726
 10
66.20015600000001
 20
90.39388
 10
66.368972
 20
90.42428099999999
 10
69.134585
 20
90.42428099999999
 10
68.97569799999999
 20
89.477114
 10
67.128647
 20
89.477114
 10
67.064103
 20
89.456812
 10
67.034311
 20
89.41631099999999
 10
66.99458799999999
 20
89.178252
 10
68.59338099999999
 20
89.178252
 10
68.424564
 20
88.23107400000001
 10
66.83569
 20
88.23103399999999
  0
LWPOLYLINE
  5
5F
100
AcDbEntity
  8
0
  6
ByLayer
 62
  256
370
   -1
100
AcDbPolyline
 90
   26
 70
    1
 43
0
 10
70.624134
 20
87.815698
 10
71.602277
 20
87.815698
 10
71.686682
 20
88.23103399999999
 10
71.105755
 20
88.23103399999999
 10
71.27457099999999
 20
89.178211
 10
73.191136
 20
89.178211
 10
72.88329299999999
 20
87.400361
 10
72.788957
 20
87.147111
 10
72.630072
 20
86.98502499999999
 10
72.44636
 20
86.893821
 10
72.27754299999999
 20
86.86847
 10
69.849563
 20
86.86847
 10
69.670816
 20
86.898871
 10
69.46724399999999
 20
87.005235
 10
69.303393
 20
87.20277299999999
 10
69.233879
 20
87.511745
 10
69.233879
 20
87.567498
 10
69.243809
 20
87.62325
 10
69.62116399999999
 20
89.89241
 10
69.71550000000001
 20
90.14565899999999
 10
69.874387
 20
90.30774599999999
 10
70.058099
 20
90.3939
 10
70.22691500000001
 20
90.424301
 10
73.389743
 20
90.424301
 10
73.230857
 20
89.47713400000001
 10
70.90218400000001
 20
89.477053
  0
LWPOLYLINE
  5
60
100
AcDbEntity
  8
0
  6
ByLayer
 62
  256
370
   -1
100
AcDbPolyline
 90
   19
 70
    1
 43
0
 10
74.079909
 20
90.42422000000001
 10
76.969651
 20
90.42422000000001
 10
77.148398
 20
90.388769
 10
77.35197100000001
 20
90.28239499999999
 10
77.515822
 20
90.084857
 10
77.585337
 20
89.78095500000001
 10
77.585337
 20
89.725202
 10
77.575406
 20
89.66945
 10
77.356937
 20
88.36265899999999
 10
77.277492
 20
88.12966900000001
 10
77.13846599999999
 20
87.97264300000001
 10
76.96965
 20
87.876389
 10
76.81076400000001
 20
87.835888
 10
77.004406
 20
86.86846
 10
75.768074
 20
86.86846
 10
75.574431
 20
87.830828
 10
74.998469
 20
87.830828
 10
74.83958199999999
 20
86.86846
 10
73.489051
 20
86.868531
  0
LWPOLYLINE
  5
61
100
AcDbEntity
  8
0
  6
ByLayer
 62
  256
370
   -1
100
AcDbPolyline
 90
   14
 70
    1
 43
0
 10
76.061018
 20
88.798367
 10
76.09081
 20
88.83886800000001
 10
76.110671
 20
88.95536300000001
 10
76.140463
 20
89.14784
 10
76.170254
 20
89.330187
 10
76.17520500000001
 20
89.365639
 10
76.180155
 20
89.39604
 10
76.185106
 20
89.40613999999999
 10
76.185106
 20
89.41119
 10
76.15035399999999
 20
89.45674200000001
 10
76.09077000000001
 20
89.47704299999999
 10
75.276478
 20
89.47704299999999
 10
75.157314
 20
88.77805499999999
 10
75.99647400000001
 20
88.778066
  0
LWPOLYLINE
  5
62
100
AcDbEntity
  8
0
  6
ByLayer
 62
  256
370
   -1
100
AcDbPolyline
 90
   12
 70
    1
 43
0
 10
78.533682
 20
90.42422000000001
 10
80.43535
 20
90.42422000000001
 10
80.609133
 20
90.39381899999999
 10
80.802775
 20
90.29756500000001
 10
80.966627
 20
90.120288
 10
81.05103200000001
 20
89.851837
 10
81.34894300000001
 20
86.8685
 10
80.057993
 20
86.8685
 10
80.00834
 20
87.38007
 10
79.02027099999999
 20
87.38007
 10
78.881246
 20
86.8685
 10
77.58533
 20
86.868531
  0
LWPOLYLINE
  5
63
100
AcDbEntity
  8
0
  6
ByLayer
 62
  256
370
   -1
100
AcDbPolyline
 90
    6
 70
    1
 43
0
 10
79.804771
 20
89.41627099999999
 10
79.774979
 20
89.456772
 10
79.710435
 20
89.477073
 10
79.58134
 20
89.477073
 10
79.273498
 20
88.327298
 10
79.914005
 20
88.32727800000001
  0
LWPOLYLINE
  5
64
100
AcDbEntity
  8
0
  6
ByLayer
 62
  256
370
   -1
100
AcDbPolyline
 90
   17
 70
    1
 43
0
 10
84.28337399999999
 20
89.47202299999999
 10
84.248621
 20
89.477073
 10
83.43433
 20
89.477073
 10
83.156279
 20
87.815718
 10
83.995397
 20
87.815718
 10
84.054981
 20
87.830969
 10
84.084772
 20
87.87652
 10
84.104634
 20
87.977824
 10
84.13442499999999
 20
88.17030200000001
 10
84.179108
 20
88.413422
 10
84.22379100000001
 20
88.686932
 10
84.268474
 20
88.955383
 10
84.308196
 20
89.183312
 10
84.333018
 20
89.345398
 10
84.34294800000001
 20
89.41125099999999
 10
84.318127
 20
89.451752
 10
84.318136
 20
89.451722
  0
LWPOLYLINE
  5
65
100
AcDbEntity
  8
0
  6
ByLayer
 62
  256
370
   -1
100
AcDbPolyline
 90
   15
 70
    1
 43
0
 10
85.743145
 20
89.725202
 10
85.733215
 20
89.66945
 10
85.355861
 20
87.400291
 10
85.26152500000001
 20
87.147041
 10
85.102638
 20
86.984954
 10
84.918926
 20
86.89375
 10
84.75011000000001
 20
86.868399
 10
81.64686500000001
 20
86.868399
 10
82.237723
 20
90.424089
 10
85.127465
 20
90.424089
 10
85.306212
 20
90.388638
 10
85.509784
 20
90.282263
 10
85.673636
 20
90.084726
 10
85.74315
 20
89.780824
 10
85.743145
 20
89.78095500000001
  0
LWPOLYLINE
  5
66
100
AcDbEntity
  8
0
  6
ByLayer
 62
  256
370
   -1
100
AcDbPolyline
 90
   30
 70
    1
 43
0
 10
87.540544
 20
89.309906
 10
87.510752
 20
89.122489
 10
87.47103
 20
88.874309
 10
87.42634700000001
 20
88.605859
 10
87.381664
 20
88.33233799999999
 10
87.346912
 20
88.104409
 10
87.322081
 20
87.94739300000001
 10
87.31215
 20
87.88154
 10
87.31215
 20
87.861239
 10
87.336972
 20
87.84093799999999
 10
87.371724
 20
87.820637
 10
87.401516
 20
87.81558699999999
 10
88.434275
 20
87.81558699999999
 10
88.498819
 20
87.830838
 10
88.528611
 20
87.876389
 10
88.543502
 20
87.977693
 10
88.578264
 20
88.170171
 10
88.617987
 20
88.41329
 10
88.66266899999999
 20
88.686801
 10
88.707352
 20
88.955252
 10
88.747075
 20
89.183181
 10
88.771896
 20
89.34526700000001
 10
88.78182700000001
 20
89.41112
 10
88.75700500000001
 20
89.451621
 10
88.72224300000001
 20
89.47192200000001
 10
88.68749099999999
 20
89.476972
 10
87.654731
 20
89.476972
 10
87.590187
 20
89.456671
 10
87.560395
 20
89.41616999999999
 10
87.560405
 20
89.41627099999999
  0
LWPOLYLINE
  5
67
100
AcDbEntity
  8
0
  6
ByLayer
 62
  256
370
   -1
100
AcDbPolyline
 90
   24
 70
    1
 43
0
 10
89.710334
 20
90.388769
 10
89.91390699999999
 20
90.28239499999999
 10
90.077759
 20
90.084857
 10
90.147273
 20
89.78095500000001
 10
90.147273
 20
89.725202
 10
90.14232199999999
 20
89.66945
 10
89.760003
 20
87.400291
 10
89.665667
 20
87.147041
 10
89.506781
 20
86.984954
 10
89.32306800000001
 20
86.89375
 10
89.154252
 20
86.868399
 10
86.557456
 20
86.868399
 10
86.378709
 20
86.89880100000001
 10
86.17513700000001
 20
87.00516500000001
 10
86.011285
 20
87.202702
 10
85.94177000000001
 20
87.511675
 10
85.94177000000001
 20
87.567427
 10
85.951701
 20
87.62318
 10
86.329055
 20
89.89233900000001
 10
86.423391
 20
90.145589
 10
86.582277
 20
90.307675
 10
86.76599
 20
90.393829
 10
86.93480599999999
 20
90.42422999999999
 10
89.531587
 20
90.42422000000001
  0
LWPOLYLINE
  5
68
100
AcDbEntity
  8
0
  6
ByLayer
 62
  256
370
   -1
100
AcDbPolyline
 90
   19
 70
    1
 43
0
 10
90.84239700000001
 20
90.42422000000001
 10
93.732139
 20
90.42422000000001
 10
93.910886
 20
90.388769
 10
94.114459
 20
90.28239499999999
 10
94.27831
 20
90.084857
 10
94.347825
 20
89.78095500000001
 10
94.347825
 20
89.725202
 10
94.33789400000001
 20
89.66945
 10
94.119426
 20
88.36265899999999
 10
94.039981
 20
88.12966900000001
 10
93.900955
 20
87.97264300000001
 10
93.73213800000001
 20
87.876389
 10
93.573252
 20
87.835888
 10
93.76689500000001
 20
86.86846
 10
92.530562
 20
86.86846
 10
92.33691899999999
 20
87.830828
 10
91.760957
 20
87.830828
 10
91.60207
 20
86.86846
 10
90.25153899999999
 20
86.868531
  0
LWPOLYLINE
  5
69
100
AcDbEntity
  8
0
  6
ByLayer
 62
  256
370
   -1
100
AcDbPolyline
 90
   14
 70
    1
 43
0
 10
92.82350599999999
 20
88.798367
 10
92.853298
 20
88.83886800000001
 10
92.873159
 20
88.95536300000001
 10
92.902951
 20
89.14784
 10
92.932742
 20
89.330187
 10
92.937693
 20
89.365639
 10
92.942643
 20
89.39604
 10
92.947594
 20
89.40613999999999
 10
92.947594
 20
89.41119
 10
92.91283199999999
 20
89.45674200000001
 10
92.85324799999999
 20
89.47704299999999
 10
92.038956
 20
89.47704299999999
 10
91.919791
 20
88.77805499999999
 10
92.758962
 20
88.778066
  0
LWPOLYLINE
  5
6A
100
AcDbEntity
  8
0
  6
ByLayer
 62
  256
370
   -1
100
AcDbPolyline
 90
   12
 70
    1
 43
0
 10
95.29617
 20
90.42422000000001
 10
97.197839
 20
90.42422000000001
 10
97.371621
 20
90.39381899999999
 10
97.565264
 20
90.29756500000001
 10
97.72911499999999
 20
90.120288
 10
97.81352
 20
89.851837
 10
98.11143199999999
 20
86.8685
 10
96.820481
 20
86.8685
 10
96.77082799999999
 20
87.38007
 10
95.78275499999999
 20
87.38007
 10
95.64373000000001
 20
86.8685
 10
94.347819
 20
86.868531
  0
LWPOLYLINE
  5
6B
100
AcDbEntity
  8
0
  6
ByLayer
 62
  256
370
   -1
100
AcDbPolyline
 90
    6
 70
    1
 43
0
 10
96.56726
 20
89.41627099999999
 10
96.537468
 20
89.456772
 10
96.47292400000001
 20
89.477073
 10
96.34382600000001
 20
89.477073
 10
96.035983
 20
88.327298
 10
96.67649400000001
 20
88.32727800000001
  0
LWPOLYLINE
  5
6C
100
AcDbEntity
  8
0
  6
ByLayer
 62
  256
370
   -1
100
AcDbPolyline
 90
   17
 70
    1
 43
0
 10
59.156991
 20
83.140664
 10
59.122239
 20
83.145714
 10
58.307948
 20
83.145714
 10
58.029897
 20
81.484369
 10
58.869015
 20
81.484369
 10
58.928598
 20
81.49951900000001
 10
58.95839
 20
81.54507099999999
 10
58.978251
 20
81.64637500000001
 10
59.008043
 20
81.838842
 10
59.052726
 20
82.08197199999999
 10
59.097409
 20
82.35548300000001
 10
59.142092
 20
82.62393299999999
 10
59.181814
 20
82.851862
 10
59.206635
 20
83.013949
 10
59.216566
 20
83.079801
 10
59.191745
 20
83.12030300000001
 10
59.191753
 20
83.120363
  0
LWPOLYLINE
  5
6D
100
AcDbEntity
  8
0
  6
ByLayer
 62
  256
370
   -1
100
AcDbPolyline
 90
   15
 70
    1
 43
0
 10
60.616763
 20
83.393844
 10
60.606833
 20
83.33809100000001
 10
60.229479
 20
81.068932
 10
60.135143
 20
80.81567200000001
 10
59.976256
 20
80.65359599999999
 10
59.792544
 20
80.562392
 10
59.623728
 20
80.53704
 10
56.520483
 20
80.53704
 10
57.111341
 20
84.09273
 10
60.001083
 20
84.09273
 10
60.17983
 20
84.05727899999999
 10
60.383402
 20
83.95091499999999
 10
60.547254
 20
83.753377
 10
60.616768
 20
83.44947500000001
 10
60.616763
 20
83.449596
  0
LWPOLYLINE
  5
6E
100
AcDbEntity
  8
0
  6
ByLayer
 62
  256
370
   -1
100
AcDbPolyline
 90
   30
 70
    1
 43
0
 10
62.414162
 20
82.978538
 10
62.38437
 20
82.79113
 10
62.344648
 20
82.54294
 10
62.299965
 20
82.27449
 10
62.255282
 20
82.000979
 10
62.22053
 20
81.77305
 10
62.195708
 20
81.616034
 10
62.185778
 20
81.55018099999999
 10
62.185778
 20
81.52988000000001
 10
62.210609
 20
81.509579
 10
62.245361
 20
81.489379
 10
62.275153
 20
81.484329
 10
63.307913
 20
81.484329
 10
63.372457
 20
81.49947899999999
 10
63.402249
 20
81.54503
 10
63.41715
 20
81.646334
 10
63.451902
 20
81.838802
 10
63.491624
 20
82.08193199999999
 10
63.536307
 20
82.355442
 10
63.58099
 20
82.623893
 10
63.620712
 20
82.851822
 10
63.645544
 20
83.013908
 10
63.655474
 20
83.079761
 10
63.630653
 20
83.120262
 10
63.5959
 20
83.140563
 10
63.561148
 20
83.145613
 10
62.528387
 20
83.145613
 10
62.463843
 20
83.12531199999999
 10
62.434052
 20
83.084811
 10
62.434023
 20
83.084912
  0
LWPOLYLINE
  5
6F
100
AcDbEntity
  8
0
  6
ByLayer
 62
  256
370
   -1
100
AcDbPolyline
 90
   24
 70
    1
 43
0
 10
64.583951
 20
84.05741
 10
64.787524
 20
83.95104600000001
 10
64.951375
 20
83.753508
 10
65.020889
 20
83.449606
 10
65.020889
 20
83.393854
 10
65.015939
 20
83.33810099999999
 10
64.63361999999999
 20
81.06894200000001
 10
64.53928399999999
 20
80.815682
 10
64.380398
 20
80.653606
 10
64.196686
 20
80.56240200000001
 10
64.027869
 20
80.53705100000001
 10
61.431074
 20
80.53705100000001
 10
61.252327
 20
80.567452
 10
61.048753
 20
80.673816
 10
60.884902
 20
80.871354
 10
60.815388
 20
81.18032599999999
 10
60.815388
 20
81.23607800000001
 10
60.825319
 20
81.291831
 10
61.202674
 20
83.56100000000001
 10
61.29701
 20
83.81425
 10
61.455895
 20
83.976337
 10
61.639607
 20
84.06249
 10
61.808424
 20
84.09289200000001
 10
64.405204
 20
84.092861
  0
LWPOLYLINE
  5
70
100
AcDbEntity
  8
0
  6
ByLayer
 62
  256
370
   -1
100
AcDbPolyline
 90
    9
 70
    1
 43
0
 10
66.167851
 20
80.537172
 10
66.758709
 20
84.092861
 10
68.168824
 20
84.092861
 10
68.00993800000001
 20
83.145684
 10
67.523349
 20
83.145684
 10
67.463765
 20
83.130534
 10
67.42900299999999
 20
83.069731
 10
67.995036
 20
83.069731
 10
67.573001
 20
80.537172
  0
LWPOLYLINE
  5
71
100
AcDbEntity
  8
0
  6
ByLayer
 62
  256
370
   -1
100
AcDbPolyline
 90
   17
 70
    1
 43
0
 10
69.55412099999999
 20
83.130534
 10
69.52432899999999
 20
83.069731
 10
70.090361
 20
83.069731
 10
69.986092
 20
82.446727
 10
71.569988
 20
82.446727
 10
71.396207
 20
81.49955
 10
69.82720500000001
 20
81.49955
 10
69.668319
 20
80.537192
 10
68.317787
 20
80.537192
 10
68.824237
 20
83.56105100000001
 10
68.91857299999999
 20
83.814301
 10
69.077459
 20
83.976387
 10
69.261171
 20
84.062541
 10
69.429987
 20
84.09294199999999
 10
72.076435
 20
84.09294199999999
 10
71.91754899999999
 20
83.145765
 10
69.618664
 20
83.145684
  0
LWPOLYLINE
  5
72
100
AcDbEntity
  8
0
  6
ByLayer
 62
  256
370
   -1
100
AcDbPolyline
 90
   30
 70
    1
 43
0
 10
72.17574
 20
81.23618999999999
 10
72.185671
 20
81.29194200000001
 10
72.563025
 20
83.561111
 10
72.65736099999999
 20
83.81436100000001
 10
72.816247
 20
83.976448
 10
72.999959
 20
84.062602
 10
73.16877599999999
 20
84.093003
 10
76.331603
 20
84.093003
 10
76.172718
 20
83.145826
 10
73.35745300000001
 20
83.145826
 10
73.29290899999999
 20
83.130675
 10
73.26311699999999
 20
83.069873
 10
73.834114
 20
83.069873
 10
73.565994
 20
81.48450099999999
 10
74.54413700000001
 20
81.48450099999999
 10
74.62854299999999
 20
81.89983700000001
 10
74.04761499999999
 20
81.89983700000001
 10
74.216432
 20
82.847014
 10
76.13299499999999
 20
82.847014
 10
75.825154
 20
81.069164
 10
75.730818
 20
80.815904
 10
75.571932
 20
80.653828
 10
75.38822
 20
80.562624
 10
75.219404
 20
80.537273
 10
72.79142400000001
 20
80.537273
 10
72.61267700000001
 20
80.567674
 10
72.409104
 20
80.674038
 10
72.24525199999999
 20
80.871576
 10
72.175738
 20
81.180548
 10
72.17574
 20
81.180437
  0
LWPOLYLINE
  5
73
100
AcDbEntity
  8
0
  6
ByLayer
 62
  256
370
   -1
100
AcDbPolyline
 90
    4
 70
    1
 43
0
 10
79.777455
 20
81.843963
 10
77.42395399999999
 20
81.843963
 10
77.582841
 20
82.78607
 10
79.936342
 20
82.78607
  0
LWPOLYLINE
  5
74
100
AcDbEntity
  8
0
  6
ByLayer
 62
  256
370
   -1
100
AcDbPolyline
 90
   37
 70
    1
 43
0
 10
81.326604
 20
82.315012
 10
81.42094
 20
82.56827199999999
 10
81.579826
 20
82.73034800000001
 10
81.763538
 20
82.816502
 10
81.932355
 20
82.846903
 10
83.263026
 20
82.846903
 10
83.32261
 20
82.862053
 10
83.352402
 20
82.907605
 10
83.36233199999999
 20
82.95315600000001
 10
83.372263
 20
83.00385900000001
 10
83.382194
 20
83.04940999999999
 10
83.382194
 20
83.07981100000001
 10
83.37724300000001
 20
83.10011299999999
 10
83.357382
 20
83.120414
 10
83.32263
 20
83.140715
 10
83.28787800000001
 20
83.145765
 10
81.46565200000001
 20
83.145765
 10
81.619573
 20
84.09294199999999
 10
84.16671599999999
 20
84.09294199999999
 10
84.345463
 20
84.057491
 10
84.549037
 20
83.951127
 10
84.71785300000001
 20
83.75358900000001
 10
84.787367
 20
83.449687
 10
84.782417
 20
83.393935
 10
84.777466
 20
83.338182
 10
84.62354499999999
 20
82.43152600000001
 10
84.52920899999999
 20
82.178276
 10
84.370323
 20
82.01618999999999
 10
84.186611
 20
81.924986
 10
84.01779500000001
 20
81.899635
 10
82.687123
 20
81.899635
 10
82.622579
 20
81.879334
 10
82.597757
 20
81.838832
 10
82.538174
 20
81.484278
 10
84.464669
 20
81.484278
 10
84.310748
 20
80.537111
 10
81.028693
 20
80.537172
  0
LWPOLYLINE
  5
75
100
AcDbEntity
  8
0
  6
ByLayer
 62
  256
370
   -1
100
AcDbPolyline
 90
   24
 70
    1
 43
0
 10
85.323587
 20
80.567573
 10
85.120015
 20
80.673937
 10
84.956163
 20
80.871475
 10
84.88664799999999
 20
81.180447
 10
84.88664799999999
 20
81.2362
 10
84.896579
 20
81.29195199999999
 10
85.273933
 20
83.561121
 10
85.368269
 20
83.81437099999999
 10
85.52715499999999
 20
83.97645799999999
 10
85.710868
 20
84.062612
 10
85.879684
 20
84.093013
 10
88.253045
 20
84.093013
 10
88.431792
 20
84.057562
 10
88.635366
 20
83.95119699999999
 10
88.799217
 20
83.75366
 10
88.868731
 20
83.449758
 10
88.86378000000001
 20
83.39400500000001
 10
88.85883
 20
83.33825299999999
 10
88.481475
 20
81.069093
 10
88.382171
 20
80.815833
 10
88.223285
 20
80.653757
 10
88.039573
 20
80.56255299999999
 10
87.870757
 20
80.53720199999999
 10
85.502334
 20
80.537172
  0
LWPOLYLINE
  5
76
100
AcDbEntity
  8
0
  6
ByLayer
 62
  256
370
   -1
100
AcDbPolyline
 90
    5
 70
    1
 43
0
 10
87.160708
 20
81.48433900000001
 10
87.220291
 20
81.499489
 10
87.250083
 20
81.545041
 10
87.468553
 20
82.578321
 10
86.465581
 20
81.48433900000001
  0
LWPOLYLINE
  5
77
100
AcDbEntity
  8
0
  6
ByLayer
 62
  256
370
   -1
100
AcDbPolyline
 90
    5
 70
    1
 43
0
 10
86.59467600000001
 20
83.145684
 10
86.535093
 20
83.125383
 10
86.505301
 20
83.08488199999999
 10
86.286833
 20
81.990819
 10
87.349385
 20
83.145684
  0
LWPOLYLINE
  5
78
100
AcDbEntity
  8
0
  6
ByLayer
 62
  256
370
   -1
100
AcDbPolyline
 90
   37
 70
    1
 43
0
 10
89.265952
 20
82.315012
 10
89.360288
 20
82.56827199999999
 10
89.51917400000001
 20
82.73034800000001
 10
89.70288600000001
 20
82.816502
 10
89.871703
 20
82.846903
 10
91.20237400000001
 20
82.846903
 10
91.26195800000001
 20
82.862053
 10
91.291749
 20
82.907605
 10
91.30168
 20
82.95315600000001
 10
91.311611
 20
83.00385900000001
 10
91.321541
 20
83.04940999999999
 10
91.321541
 20
83.07981100000001
 10
91.316591
 20
83.10011299999999
 10
91.29673
 20
83.120414
 10
91.261977
 20
83.140715
 10
91.227225
 20
83.145765
 10
89.404999
 20
83.145765
 10
89.558921
 20
84.09294199999999
 10
92.106064
 20
84.09294199999999
 10
92.284811
 20
84.057491
 10
92.488384
 20
83.951127
 10
92.6572
 20
83.75358900000001
 10
92.726715
 20
83.449687
 10
92.72176399999999
 20
83.393935
 10
92.716814
 20
83.338182
 10
92.56289200000001
 20
82.43152600000001
 10
92.468557
 20
82.178276
 10
92.30967099999999
 20
82.01618999999999
 10
92.12595899999999
 20
81.924986
 10
91.957142
 20
81.899635
 10
90.62647
 20
81.899635
 10
90.561926
 20
81.879334
 10
90.537105
 20
81.838832
 10
90.477521
 20
81.484278
 10
92.404017
 20
81.484278
 10
92.250095
 20
80.537111
 10
88.968041
 20
80.537172
  0
LWPOLYLINE
  5
79
100
AcDbEntity
  8
0
  6
ByLayer
 62
  256
370
   -1
100
AcDbPolyline
 90
   30
 70
    1
 43
0
 10
93.262934
 20
80.567573
 10
93.05936199999999
 20
80.673937
 10
92.89551
 20
80.871475
 10
92.825996
 20
81.180447
 10
92.825996
 20
81.2362
 10
92.835926
 20
81.29195199999999
 10
93.21328
 20
83.561121
 10
93.307616
 20
83.81437099999999
 10
93.466503
 20
83.97645799999999
 10
93.650215
 20
84.062612
 10
93.819031
 20
84.093013
 10
96.584644
 20
84.093013
 10
96.425757
 20
83.145836
 10
94.578706
 20
83.145836
 10
94.514162
 20
83.125534
 10
94.48437
 20
83.085033
 10
94.444647
 20
82.846974
 10
95.735597
 20
82.846974
 10
95.914345
 20
82.811522
 10
96.11791700000001
 20
82.705158
 10
96.281768
 20
82.50762
 10
96.351283
 20
82.20370800000001
 10
96.351283
 20
82.142906
 10
96.341352
 20
82.092203
 10
96.17253599999999
 20
81.069053
 10
96.0782
 20
80.815793
 10
95.919313
 20
80.653717
 10
95.735601
 20
80.562513
 10
95.566785
 20
80.537162
 10
93.441681
 20
80.537172
  0
LWPOLYLINE
  5
7A
100
AcDbEntity
  8
0
  6
ByLayer
 62
  256
370
   -1
100
AcDbPolyline
 90
   10
 70
    1
 43
0
 10
94.216251
 20
81.48433900000001
 10
94.812074
 20
81.48433900000001
 10
94.871657
 20
81.499489
 10
94.901449
 20
81.545041
 10
94.94613200000001
 20
81.78816
 10
94.951082
 20
81.83371099999999
 10
94.94613200000001
 20
81.85401299999999
 10
94.926271
 20
81.874314
 10
94.856757
 20
81.899665
 10
94.285765
 20
81.899675
  0
LWPOLYLINE
  5
7B
100
AcDbEntity
  8
0
  6
ByLayer
 62
  256
370
   -1
100
AcDbPolyline
 90
    4
 70
    1
 43
0
 10
91.28154000000001
 20
148.68079
 10
91.28154000000001
 20
146.68079
 10
61.873207
 20
146.68079
 10
61.873207
 20
148.68079
  0
LWPOLYLINE
  5
7C
100
AcDbEntity
  8
0
  6
ByLayer
 62
  256
370
   -1
100
AcDbPolyline
 90
    6
 70
    1
 43
0
 10
15.256004
 20
98.26752399999999
 10
21.359704
 20
132.747619
 10
12.236969
 20
132.747619
 10
14.337168
 20
145.267581
 10
40.917798
 20
145.267581
 10
32.582637
 20
98.26752399999999
  0
LWPOLYLINE
  5
7D
100
AcDbEntity
  8
0
  6
ByLayer
 62
  256
370
   -1
100
AcDbPolyline
 90
    9
 70
    1
 43
0
 10
9.355589
 20
93.199889
 10
9.946446999999999
 20
96.755579
 10
11.356562
 20
96.755579
 10
11.197676
 20
95.808412
 10
10.711087
 20
95.808412
 10
10.651503
 20
95.793262
 10
10.616751
 20
95.73245900000001
 10
11.182783
 20
95.73245900000001
 10
10.760739
 20
93.199889
  0
LWPOLYLINE
  5
7E
100
AcDbEntity
  8
0
  6
ByLayer
 62
  256
370
   -1
100
AcDbPolyline
 90
    9
 70
    1
 43
0
 10
11.555174
 20
93.199889
 10
12.146032
 20
96.755579
 10
13.556146
 20
96.755579
 10
13.39726
 20
95.808412
 10
12.910672
 20
95.808412
 10
12.851088
 20
95.793262
 10
12.816336
 20
95.73245900000001
 10
13.382367
 20
95.73245900000001
 10
12.960324
 20
93.199889
  0
LWPOLYLINE
  5
7F
100
AcDbEntity
  8
0
  6
ByLayer
 62
  256
370
   -1
100
AcDbPolyline
 90
    9
 70
    1
 43
0
 10
13.754758
 20
93.199889
 10
14.345616
 20
96.755579
 10
15.755731
 20
96.755579
 10
15.596844
 20
95.808412
 10
15.110256
 20
95.808412
 10
15.050672
 20
95.793262
 10
15.01592
 20
95.73245900000001
 10
15.581952
 20
95.73245900000001
 10
15.159908
 20
93.199889
  0
LWPOLYLINE
  5
80
100
AcDbEntity
  8
0
  6
ByLayer
 62
  256
370
   -1
100
AcDbPolyline
 90
   30
 70
    1
 43
0
 10
16.897732
 20
93.89890699999999
 10
16.907663
 20
93.95466
 10
17.285018
 20
96.22381900000001
 10
17.379354
 20
96.477079
 10
17.538239
 20
96.639155
 10
17.721952
 20
96.725309
 10
17.890768
 20
96.75570999999999
 10
21.053596
 20
96.75570999999999
 10
20.89471
 20
95.808543
 10
18.079445
 20
95.808543
 10
18.014901
 20
95.79339299999999
 10
17.98511
 20
95.73259
 10
18.556107
 20
95.73259
 10
18.287986
 20
94.147218
 10
19.26613
 20
94.147218
 10
19.350535
 20
94.56255400000001
 10
18.769607
 20
94.56255400000001
 10
18.938424
 20
95.509722
 10
20.854988
 20
95.509722
 10
20.547147
 20
93.731872
 10
20.452811
 20
93.478622
 10
20.293924
 20
93.316535
 10
20.110212
 20
93.225331
 10
19.941396
 20
93.19998
 10
17.513417
 20
93.19998
 10
17.33467
 20
93.23038099999999
 10
17.131097
 20
93.33674600000001
 10
16.967246
 20
93.534283
 10
16.897731
 20
93.843256
 10
16.897732
 20
93.843155
  0
LWPOLYLINE
  5
81
100
AcDbEntity
  8
0
  6
ByLayer
 62
  256
370
   -1
100
AcDbPolyline
 90
    4
 70
    1
 43
0
 10
22.607706
 20
93.199889
 10
21.202557
 20
93.199889
 10
21.793415
 20
96.755579
 10
23.203529
 20
96.755579
  0
LWPOLYLINE
  5
82
100
AcDbEntity
  8
0
  6
ByLayer
 62
  256
370
   -1
100
AcDbPolyline
 90
   24
 70
    1
 43
0
 10
27.061488
 20
96.755579
 10
27.240235
 20
96.720128
 10
27.443808
 20
96.61376300000001
 10
27.60766
 20
96.41622599999999
 10
27.677174
 20
96.112314
 10
27.672223
 20
96.056561
 10
27.667273
 20
96.000809
 10
27.200546
 20
93.199808
 10
25.850012
 20
93.199808
 10
25.864913
 20
93.29606200000001
 10
25.894705
 20
93.45814900000001
 10
25.949318
 20
93.756991
 10
26.013862
 20
94.147006
 10
26.083377
 20
94.58260300000001
 10
26.157851
 20
95.01313
 10
26.217435
 20
95.377814
 10
26.262117
 20
95.636134
 10
26.277018
 20
95.742509
 10
26.242266
 20
95.78806
 10
26.182683
 20
95.808361
 10
25.139992
 20
95.808361
 10
24.703055
 20
93.199839
 10
23.352523
 20
93.199839
 10
23.943347
 20
96.755579
  0
LWPOLYLINE
  5
83
100
AcDbEntity
  8
0
  6
ByLayer
 62
  256
370
   -1
100
AcDbPolyline
 90
   29
 70
    1
 43
0
 10
28.392162
 20
93.199889
 10
28.213416
 20
93.23029099999999
 10
28.009843
 20
93.33665499999999
 10
27.845991
 20
93.534193
 10
27.776477
 20
93.843165
 10
27.776477
 20
93.898917
 10
27.786408
 20
93.95466999999999
 10
28.163762
 20
96.22382899999999
 10
28.258097
 20
96.47708900000001
 10
28.416984
 20
96.63916500000001
 10
28.600696
 20
96.725319
 10
28.769512
 20
96.75572
 10
31.644359
 20
96.75572
 10
31.490438
 20
95.808553
 10
29.529187
 20
95.808553
 10
29.464643
 20
95.788252
 10
29.434851
 20
95.74775099999999
 10
29.41499
 20
95.641386
 10
29.385198
 20
95.453979
 10
29.340515
 20
95.205789
 10
29.295832
 20
94.93733899999999
 10
29.25115
 20
94.66381800000001
 10
29.211427
 20
94.435889
 10
29.186606
 20
94.278873
 10
29.176675
 20
94.21302
 10
29.211427
 20
94.162318
 10
29.271011
 20
94.14716799999999
 10
31.212401
 20
94.14716799999999
 10
31.053506
 20
93.199889
  0
LWPOLYLINE
  5
84
100
AcDbEntity
  8
0
  6
ByLayer
 62
  256
370
   -1
100
AcDbPolyline
 90
   12
 70
    1
 43
0
 10
32.498369
 20
96.755579
 10
34.400037
 20
96.755579
 10
34.573819
 20
96.725178
 10
34.767462
 20
96.628924
 10
34.931313
 20
96.45164699999999
 10
35.015718
 20
96.183196
 10
35.31363
 20
93.199859
 10
34.022679
 20
93.199859
 10
33.973026
 20
93.711439
 10
32.984957
 20
93.711439
 10
32.845932
 20
93.199859
 10
31.550017
 20
93.199889
  0
LWPOLYLINE
  5
85
100
AcDbEntity
  8
0
  6
ByLayer
 62
  256
370
   -1
100
AcDbPolyline
 90
    6
 70
    1
 43
0
 10
33.769458
 20
95.747629
 10
33.739666
 20
95.78813100000001
 10
33.675122
 20
95.808432
 10
33.546024
 20
95.808432
 10
33.238183
 20
94.658637
 10
33.878692
 20
94.658637
  0
LWPOLYLINE
  5
86
100
AcDbEntity
  8
0
  6
ByLayer
 62
  256
370
   -1
100
AcDbPolyline
 90
   24
 70
    1
 43
0
 10
39.320547
 20
96.755579
 10
39.499294
 20
96.720128
 10
39.702867
 20
96.61376300000001
 10
39.866718
 20
96.41622599999999
 10
39.936233
 20
96.112314
 10
39.931282
 20
96.056561
 10
39.926332
 20
96.000809
 10
39.459603
 20
93.199808
 10
38.109071
 20
93.199808
 10
38.123972
 20
93.29606200000001
 10
38.153764
 20
93.45814900000001
 10
38.208377
 20
93.756991
 10
38.272921
 20
94.147006
 10
38.342435
 20
94.58260300000001
 10
38.41691
 20
95.01313
 10
38.476493
 20
95.377814
 10
38.521176
 20
95.636134
 10
38.536067
 20
95.742509
 10
38.501315
 20
95.78806
 10
38.441731
 20
95.808361
 10
37.399041
 20
95.808361
 10
36.962103
 20
93.199839
 10
35.611571
 20
93.199839
 10
36.202406
 20
96.755579
  0
LWPOLYLINE
  5
87
100
AcDbEntity
  8
0
  6
ByLayer
 62
  256
370
   -1
100
AcDbPolyline
 90
   12
 70
    1
 43
0
 10
40.98389
 20
96.755579
 10
42.885559
 20
96.755579
 10
43.059342
 20
96.725178
 10
43.252984
 20
96.628924
 10
43.416836
 20
96.45164699999999
 10
43.501241
 20
96.183196
 10
43.799152
 20
93.199859
 10
42.508202
 20
93.199859
 10
42.458549
 20
93.711439
 10
41.470476
 20
93.711439
 10
41.331451
 20
93.199859
 10
40.035539
 20
93.199889
  0
LWPOLYLINE
  5
88
100
AcDbEntity
  8
0
  6
ByLayer
 62
  256
370
   -1
100
AcDbPolyline
 90
    6
 70
    1
 43
0
 10
42.25498
 20
95.747629
 10
42.225188
 20
95.78813100000001
 10
42.160644
 20
95.808432
 10
42.031549
 20
95.808432
 10
41.723707
 20
94.65865700000001
 10
42.364214
 20
94.658637
  0
LWPOLYLINE
  5
89
100
AcDbEntity
  8
0
  6
ByLayer
 62
  256
370
   -1
100
AcDbPolyline
 90
    9
 70
    1
 43
0
 10
5.04333
 20
86.868531
 10
5.634188
 20
90.42422000000001
 10
7.044303
 20
90.42422000000001
 10
6.885417
 20
89.477053
 10
6.398828
 20
89.477053
 10
6.339245
 20
89.46180200000001
 10
6.304489
 20
89.400999
 10
6.870521
 20
89.400999
 10
6.44848
 20
86.868531
  0
LWPOLYLINE
  5
8A
100
AcDbEntity
  8
0
  6
ByLayer
 62
  256
370
   -1
100
AcDbPolyline
 90
   24
 70
    1
 43
0
 10
10.902261
 20
90.42422000000001
 10
11.081008
 20
90.388769
 10
11.284581
 20
90.28239499999999
 10
11.448432
 20
90.084857
 10
11.517947
 20
89.78095500000001
 10
11.512996
 20
89.725202
 10
11.508046
 20
89.66945
 10
11.041317
 20
86.86846
 10
9.690754999999999
 20
86.86846
 10
9.70565
 20
86.964714
 10
9.735441
 20
87.1268
 10
9.790058999999999
 20
87.425642
 10
9.854606
 20
87.815647
 10
9.924118
 20
88.251244
 10
9.998592
 20
88.681781
 10
10.058176
 20
89.046466
 10
10.102859
 20
89.30478599999999
 10
10.11776
 20
89.41115000000001
 10
10.083007
 20
89.456701
 10
10.023424
 20
89.477003
 10
8.980732
 20
89.477003
 10
8.543794999999999
 20
86.868531
 10
7.193263
 20
86.868531
 10
7.784121
 20
90.42422000000001
  0
LWPOLYLINE
  5
8B
100
AcDbEntity
  8
0
  6
ByLayer
 62
  256
370
   -1
100
AcDbPolyline
 90
    8
 70
    1
 43
0
 10
11.875445
 20
90.42422000000001
 10
15.475211
 20
90.42422000000001
 10
15.316324
 20
89.477053
 10
14.209087
 20
89.477053
 10
13.777114
 20
86.868531
 10
12.426582
 20
86.868531
 10
12.863519
 20
89.477053
 10
11.71656
 20
89.477053
  0
LWPOLYLINE
  5
8C
100
AcDbEntity
  8
0
  6
ByLayer
 62
  256
370
   -1
100
AcDbPolyline
 90
   31
 70
    1
 43
0
 10
16.82077
 20
88.150031
 10
16.805879
 20
88.069028
 10
16.795948
 20
87.998126
 10
16.786018
 20
87.942373
 10
16.781067
 20
87.90692199999999
 10
16.776117
 20
87.88157099999999
 10
16.810869
 20
87.830868
 10
16.870452
 20
87.815617
 10
18.697644
 20
87.815617
 10
18.538757
 20
86.86845
 10
15.991614
 20
86.86845
 10
15.812867
 20
86.89885099999999
 10
15.609294
 20
87.00521500000001
 10
15.445443
 20
87.202753
 10
15.375928
 20
87.511725
 10
15.375928
 20
87.56747799999999
 10
15.385859
 20
87.62323000000001
 10
15.763214
 20
89.89238899999999
 10
15.85755
 20
90.145639
 10
16.016435
 20
90.307726
 10
16.200148
 20
90.39388
 10
16.368964
 20
90.42428099999999
 10
19.134576
 20
90.42428099999999
 10
18.975691
 20
89.477114
 10
17.128638
 20
89.477114
 10
17.064094
 20
89.456812
 10
17.034302
 20
89.41631099999999
 10
16.99458
 20
89.178252
 10
18.593372
 20
89.178252
 10
18.424556
 20
88.23107400000001
 10
16.835671
 20
88.23103399999999
  0
LWPOLYLINE
  5
8D
100
AcDbEntity
  8
0
  6
ByLayer
 62
  256
370
   -1
100
AcDbPolyline
 90
   26
 70
    1
 43
0
 10
20.624115
 20
87.815698
 10
21.602258
 20
87.815698
 10
21.686663
 20
88.23103399999999
 10
21.105739
 20
88.23103399999999
 10
21.274555
 20
89.178211
 10
23.19112
 20
89.178211
 10
22.883278
 20
87.400361
 10
22.788942
 20
87.147111
 10
22.630055
 20
86.98502499999999
 10
22.446343
 20
86.893821
 10
22.277527
 20
86.86847
 10
19.849548
 20
86.86847
 10
19.670801
 20
86.898871
 10
19.467228
 20
87.005235
 10
19.303377
 20
87.20277299999999
 10
19.233863
 20
87.511745
 10
19.233863
 20
87.567498
 10
19.243793
 20
87.62325
 10
19.621148
 20
89.89241
 10
19.715484
 20
90.14565899999999
 10
19.87437
 20
90.30774599999999
 10
20.058082
 20
90.3939
 10
20.226898
 20
90.424301
 10
23.389726
 20
90.424301
 10
23.23084
 20
89.47713400000001
 10
20.902165
 20
89.477053
  0
LWPOLYLINE
  5
8E
100
AcDbEntity
  8
0
  6
ByLayer
 62
  256
370
   -1
100
AcDbPolyline
 90
   19
 70
    1
 43
0
 10
24.07989
 20
90.42422000000001
 10
26.969632
 20
90.42422000000001
 10
27.148379
 20
90.388769
 10
27.351952
 20
90.28239499999999
 10
27.515803
 20
90.084857
 10
27.585317
 20
89.78095500000001
 10
27.585317
 20
89.725202
 10
27.575387
 20
89.66945
 10
27.356918
 20
88.36265899999999
 10
27.277474
 20
88.12966900000001
 10
27.138449
 20
87.97264300000001
 10
26.969632
 20
87.876389
 10
26.810746
 20
87.835888
 10
27.004388
 20
86.86846
 10
25.768056
 20
86.86846
 10
25.574413
 20
87.830828
 10
24.998451
 20
87.830828
 10
24.839564
 20
86.86846
 10
23.489032
 20
86.868531
  0
LWPOLYLINE
  5
8F
100
AcDbEntity
  8
0
  6
ByLayer
 62
  256
370
   -1
100
AcDbPolyline
 90
   14
 70
    1
 43
0
 10
26.060998
 20
88.798367
 10
26.09079
 20
88.83886800000001
 10
26.110651
 20
88.95536300000001
 10
26.140443
 20
89.14784
 10
26.170235
 20
89.330187
 10
26.175186
 20
89.365639
 10
26.180136
 20
89.39604
 10
26.185086
 20
89.40613999999999
 10
26.185086
 20
89.41119
 10
26.150334
 20
89.45674200000001
 10
26.090751
 20
89.47704299999999
 10
25.276459
 20
89.47704299999999
 10
25.157294
 20
88.77805499999999
 10
25.996455
 20
88.778066
  0
LWPOLYLINE
  5
90
100
AcDbEntity
  8
0
  6
ByLayer
 62
  256
370
   -1
100
AcDbPolyline
 90
   12
 70
    1
 43
0
 10
28.533663
 20
90.42422000000001
 10
30.435332
 20
90.42422000000001
 10
30.609114
 20
90.39381899999999
 10
30.802756
 20
90.29756500000001
 10
30.966607
 20
90.120288
 10
31.051012
 20
89.851837
 10
31.348925
 20
86.8685
 10
30.057974
 20
86.8685
 10
30.008321
 20
87.38007
 10
29.020248
 20
87.38007
 10
28.881222
 20
86.8685
 10
27.585311
 20
86.868531
  0
LWPOLYLINE
  5
91
100
AcDbEntity
  8
0
  6
ByLayer
 62
  256
370
   -1
100
AcDbPolyline
 90
    6
 70
    1
 43
0
 10
29.804753
 20
89.41627099999999
 10
29.774961
 20
89.456772
 10
29.710417
 20
89.477073
 10
29.581322
 20
89.477073
 10
29.273479
 20
88.327298
 10
29.913986
 20
88.32727800000001
  0
LWPOLYLINE
  5
92
100
AcDbEntity
  8
0
  6
ByLayer
 62
  256
370
   -1
100
AcDbPolyline
 90
   17
 70
    1
 43
0
 10
34.283364
 20
89.47202299999999
 10
34.248612
 20
89.477073
 10
33.43432
 20
89.477073
 10
33.15627
 20
87.815718
 10
33.995387
 20
87.815718
 10
34.05497
 20
87.830969
 10
34.084762
 20
87.87652
 10
34.104623
 20
87.977824
 10
34.134415
 20
88.17030200000001
 10
34.179098
 20
88.413422
 10
34.223781
 20
88.686932
 10
34.268463
 20
88.955383
 10
34.308186
 20
89.183312
 10
34.333017
 20
89.345398
 10
34.342948
 20
89.41125099999999
 10
34.318126
 20
89.451752
 10
34.318116
 20
89.451722
  0
LWPOLYLINE
  5
93
100
AcDbEntity
  8
0
  6
ByLayer
 62
  256
370
   -1
100
AcDbPolyline
 90
   15
 70
    1
 43
0
 10
35.743126
 20
89.725202
 10
35.733196
 20
89.66945
 10
35.355841
 20
87.400291
 10
35.261505
 20
87.147041
 10
35.102619
 20
86.984954
 10
34.918907
 20
86.89375
 10
34.75009
 20
86.868399
 10
31.646845
 20
86.868399
 10
32.237703
 20
90.424089
 10
35.127445
 20
90.424089
 10
35.306192
 20
90.388638
 10
35.509765
 20
90.282263
 10
35.673616
 20
90.084726
 10
35.74313
 20
89.780824
 10
35.743126
 20
89.78095500000001
  0
LWPOLYLINE
  5
94
100
AcDbEntity
  8
0
  6
ByLayer
 62
  256
370
   -1
100
AcDbPolyline
 90
   30
 70
    1
 43
0
 10
37.540525
 20
89.309906
 10
37.510733
 20
89.122489
 10
37.47101
 20
88.874309
 10
37.426328
 20
88.605859
 10
37.381645
 20
88.33233799999999
 10
37.346893
 20
88.104409
 10
37.322071
 20
87.94739300000001
 10
37.312141
 20
87.88154
 10
37.312141
 20
87.861239
 10
37.336962
 20
87.84093799999999
 10
37.371724
 20
87.820637
 10
37.401516
 20
87.81558699999999
 10
38.434276
 20
87.81558699999999
 10
38.49882
 20
87.830838
 10
38.528612
 20
87.876389
 10
38.543513
 20
87.977693
 10
38.578265
 20
88.170171
 10
38.617987
 20
88.41329
 10
38.66267
 20
88.686801
 10
38.707353
 20
88.955252
 10
38.747075
 20
89.183181
 10
38.771897
 20
89.34526700000001
 10
38.781827
 20
89.41112
 10
38.757006
 20
89.451621
 10
38.722254
 20
89.47192200000001
 10
38.687501
 20
89.476972
 10
37.654741
 20
89.476972
 10
37.590197
 20
89.456671
 10
37.560405
 20
89.41616999999999
 10
37.560386
 20
89.41627099999999
  0
LWPOLYLINE
  5
95
100
AcDbEntity
  8
0
  6
ByLayer
 62
  256
370
   -1
100
AcDbPolyline
 90
   24
 70
    1
 43
0
 10
39.710315
 20
90.388769
 10
39.913887
 20
90.28239499999999
 10
40.077739
 20
90.084857
 10
40.147253
 20
89.78095500000001
 10
40.147253
 20
89.725202
 10
40.142303
 20
89.66945
 10
39.759984
 20
87.400291
 10
39.665648
 20
87.147041
 10
39.506761
 20
86.984954
 10
39.323049
 20
86.89375
 10
39.154233
 20
86.868399
 10
36.557438
 20
86.868399
 10
36.378691
 20
86.89880100000001
 10
36.175117
 20
87.00516500000001
 10
36.011266
 20
87.202702
 10
35.941752
 20
87.511675
 10
35.941752
 20
87.567427
 10
35.951683
 20
87.62318
 10
36.329038
 20
89.89233900000001
 10
36.423373
 20
90.145589
 10
36.582259
 20
90.307675
 10
36.765971
 20
90.393829
 10
36.934788
 20
90.42422999999999
 10
39.531568
 20
90.42422000000001
  0
LWPOLYLINE
  5
96
100
AcDbEntity
  8
0
  6
ByLayer
 62
  256
370
   -1
100
AcDbPolyline
 90
   19
 70
    1
 43
0
 10
40.842379
 20
90.42422000000001
 10
43.732121
 20
90.42422000000001
 10
43.910868
 20
90.388769
 10
44.11444
 20
90.28239499999999
 10
44.278292
 20
90.084857
 10
44.347806
 20
89.78095500000001
 10
44.347806
 20
89.725202
 10
44.337876
 20
89.66945
 10
44.119407
 20
88.36265899999999
 10
44.039963
 20
88.12966900000001
 10
43.900937
 20
87.97264300000001
 10
43.732121
 20
87.876389
 10
43.573234
 20
87.835888
 10
43.766877
 20
86.86846
 10
42.530544
 20
86.86846
 10
42.336901
 20
87.830828
 10
41.760939
 20
87.830828
 10
41.602053
 20
86.86846
 10
40.251521
 20
86.868531
  0
LWPOLYLINE
  5
97
100
AcDbEntity
  8
0
  6
ByLayer
 62
  256
370
   -1
100
AcDbPolyline
 90
   14
 70
    1
 43
0
 10
42.823487
 20
88.798367
 10
42.853278
 20
88.83886800000001
 10
42.87314
 20
88.95536300000001
 10
42.902931
 20
89.14784
 10
42.932723
 20
89.330187
 10
42.937674
 20
89.365639
 10
42.942624
 20
89.39604
 10
42.947575
 20
89.40613999999999
 10
42.947575
 20
89.41119
 10
42.912822
 20
89.45674200000001
 10
42.853239
 20
89.47704299999999
 10
42.038947
 20
89.47704299999999
 10
41.919783
 20
88.77805499999999
 10
42.758943
 20
88.778066
  0
LWPOLYLINE
  5
98
100
AcDbEntity
  8
0
  6
ByLayer
 62
  256
370
   -1
100
AcDbPolyline
 90
   12
 70
    1
 43
0
 10
45.296151
 20
90.42422000000001
 10
47.19782
 20
90.42422000000001
 10
47.371602
 20
90.39381899999999
 10
47.565244
 20
90.29756500000001
 10
47.729095
 20
90.120288
 10
47.813501
 20
89.851837
 10
48.111413
 20
86.8685
 10
46.820465
 20
86.8685
 10
46.770812
 20
87.38007
 10
45.782739
 20
87.38007
 10
45.643713
 20
86.8685
 10
44.347799
 20
86.868531
  0
LWPOLYLINE
  5
99
100
AcDbEntity
  8
0
  6
ByLayer
 62
  256
370
   -1
100
AcDbPolyline
 90
    6
 70
    1
 43
0
 10
46.567241
 20
89.41627099999999
 10
46.537449
 20
89.456772
 10
46.472905
 20
89.477073
 10
46.34381
 20
89.477073
 10
46.035968
 20
88.327298
 10
46.676475
 20
88.32727800000001
  0
LWPOLYLINE
  5
9A
100
AcDbEntity
  8
0
  6
ByLayer
 62
  256
370
   -1
100
AcDbPolyline
 90
   17
 70
    1
 43
0
 10
9.156978000000001
 20
83.140664
 10
9.122222000000001
 20
83.145714
 10
8.307930000000001
 20
83.145714
 10
8.029878999999999
 20
81.484369
 10
8.868997
 20
81.484369
 10
8.928578999999999
 20
81.49951900000001
 10
8.95837
 20
81.54507099999999
 10
8.978230999999999
 20
81.64637500000001
 10
9.008022
 20
81.838842
 10
9.052709
 20
82.08197199999999
 10
9.097395000000001
 20
82.35548300000001
 10
9.142082
 20
82.62393299999999
 10
9.181804
 20
82.851862
 10
9.206629
 20
83.013949
 10
9.216559999999999
 20
83.079801
 10
9.191734
 20
83.12030300000001
 10
9.191734
 20
83.120363
  0
LWPOLYLINE
  5
9B
100
AcDbEntity
  8
0
  6
ByLayer
 62
  256
370
   -1
100
AcDbPolyline
 90
   15
 70
    1
 43
0
 10
10.616744
 20
83.393844
 10
10.606813
 20
83.33809100000001
 10
10.229458
 20
81.068932
 10
10.135123
 20
80.81567200000001
 10
9.976236
 20
80.65359599999999
 10
9.792524
 20
80.562392
 10
9.623708000000001
 20
80.53704
 10
6.52046
 20
80.53704
 10
7.111318
 20
84.09273
 10
10.00106
 20
84.09273
 10
10.179807
 20
84.05727899999999
 10
10.38338
 20
83.95091499999999
 10
10.547232
 20
83.753377
 10
10.616746
 20
83.44947500000001
 10
10.616744
 20
83.449596
  0
LWPOLYLINE
  5
9C
100
AcDbEntity
  8
0
  6
ByLayer
 62
  256
370
   -1
100
AcDbPolyline
 90
   30
 70
    1
 43
0
 10
12.414142
 20
82.978538
 10
12.384351
 20
82.79113
 10
12.344628
 20
82.54294
 10
12.299945
 20
82.27449
 10
12.255263
 20
82.000979
 10
12.220511
 20
81.77305
 10
12.195689
 20
81.616034
 10
12.185758
 20
81.55018099999999
 10
12.185758
 20
81.52988000000001
 10
12.21059
 20
81.509579
 10
12.245342
 20
81.489379
 10
12.275134
 20
81.484329
 10
13.307894
 20
81.484329
 10
13.372438
 20
81.49947899999999
 10
13.40223
 20
81.54503
 10
13.41713
 20
81.646334
 10
13.451883
 20
81.838802
 10
13.491605
 20
82.08193199999999
 10
13.536288
 20
82.355442
 10
13.58097
 20
82.623893
 10
13.620693
 20
82.851822
 10
13.645514
 20
83.013908
 10
13.655445
 20
83.079761
 10
13.630623
 20
83.120262
 10
13.595871
 20
83.140563
 10
13.561119
 20
83.145613
 10
12.528359
 20
83.145613
 10
12.463815
 20
83.12531199999999
 10
12.434023
 20
83.084811
 10
12.434004
 20
83.084912
  0
LWPOLYLINE
  5
9D
100
AcDbEntity
  8
0
  6
ByLayer
 62
  256
370
   -1
100
AcDbPolyline
 90
   24
 70
    1
 43
0
 10
14.583932
 20
84.05741
 10
14.787505
 20
83.95104600000001
 10
14.951356
 20
83.753508
 10
15.02087
 20
83.449606
 10
15.02087
 20
83.393854
 10
15.01592
 20
83.33810099999999
 10
14.6336
 20
81.06894200000001
 10
14.539264
 20
80.815682
 10
14.380378
 20
80.653606
 10
14.196666
 20
80.56240200000001
 10
14.02785
 20
80.53705100000001
 10
11.431035
 20
80.53705100000001
 10
11.252288
 20
80.567452
 10
11.048714
 20
80.673816
 10
10.884863
 20
80.871354
 10
10.815349
 20
81.18032599999999
 10
10.815349
 20
81.23607800000001
 10
10.82528
 20
81.291831
 10
11.202635
 20
83.56100000000001
 10
11.29697
 20
83.81425
 10
11.455856
 20
83.976337
 10
11.639568
 20
84.06249
 10
11.808386
 20
84.09289200000001
 10
14.405185
 20
84.092861
  0
LWPOLYLINE
  5
9E
100
AcDbEntity
  8
0
  6
ByLayer
 62
  256
370
   -1
100
AcDbPolyline
 90
    9
 70
    1
 43
0
 10
16.167832
 20
80.537172
 10
16.75869
 20
84.092861
 10
18.168805
 20
84.092861
 10
18.009919
 20
83.145684
 10
17.523331
 20
83.145684
 10
17.463747
 20
83.130534
 10
17.428995
 20
83.069731
 10
17.995026
 20
83.069731
 10
17.572982
 20
80.537172
  0
LWPOLYLINE
  5
9F
100
AcDbEntity
  8
0
  6
ByLayer
 62
  256
370
   -1
100
AcDbPolyline
 90
   17
 70
    1
 43
0
 10
19.554101
 20
83.130534
 10
19.524309
 20
83.069731
 10
20.090342
 20
83.069731
 10
19.986073
 20
82.446727
 10
21.569969
 20
82.446727
 10
21.396187
 20
81.49955
 10
19.827187
 20
81.49955
 10
19.6683
 20
80.537192
 10
18.317768
 20
80.537192
 10
18.824218
 20
83.56105100000001
 10
18.918554
 20
83.814301
 10
19.077439
 20
83.976387
 10
19.261151
 20
84.062541
 10
19.429969
 20
84.09294199999999
 10
22.076416
 20
84.09294199999999
 10
21.91753
 20
83.145765
 10
19.618645
 20
83.145684
  0
LWPOLYLINE
  5
A0
100
AcDbEntity
  8
0
  6
ByLayer
 62
  256
370
   -1
100
AcDbPolyline
 90
   30
 70
    1
 43
0
 10
22.175721
 20
81.23618999999999
 10
22.185652
 20
81.29194200000001
 10
22.563007
 20
83.561111
 10
22.657342
 20
83.81436100000001
 10
22.816228
 20
83.976448
 10
22.99994
 20
84.062602
 10
23.168756
 20
84.093003
 10
26.331584
 20
84.093003
 10
26.172698
 20
83.145826
 10
23.357434
 20
83.145826
 10
23.29289
 20
83.130675
 10
23.263098
 20
83.069873
 10
23.834096
 20
83.069873
 10
23.565976
 20
81.48450099999999
 10
24.544118
 20
81.48450099999999
 10
24.628523
 20
81.89983700000001
 10
24.047596
 20
81.89983700000001
 10
24.216412
 20
82.847014
 10
26.132977
 20
82.847014
 10
25.825135
 20
81.069164
 10
25.7308
 20
80.815904
 10
25.571913
 20
80.653828
 10
25.388201
 20
80.562624
 10
25.219384
 20
80.537273
 10
22.791405
 20
80.537273
 10
22.612659
 20
80.567674
 10
22.409085
 20
80.674038
 10
22.245234
 20
80.871576
 10
22.17572
 20
81.180548
 10
22.175721
 20
81.180437
  0
LWPOLYLINE
  5
A1
100
AcDbEntity
  8
0
  6
ByLayer
 62
  256
370
   -1
100
AcDbPolyline
 90
    4
 70
    1
 43
0
 10
29.777436
 20
81.843963
 10
27.423935
 20
81.843963
 10
27.582821
 20
82.78607
 10
29.936323
 20
82.78607
  0
LWPOLYLINE
  5
A2
100
AcDbEntity
  8
0
  6
ByLayer
 62
  256
370
   -1
100
AcDbPolyline
 90
   37
 70
    1
 43
0
 10
31.326585
 20
82.315012
 10
31.420921
 20
82.56827199999999
 10
31.579808
 20
82.73034800000001
 10
31.76352
 20
82.816502
 10
31.932336
 20
82.846903
 10
33.263007
 20
82.846903
 10
33.322591
 20
82.862053
 10
33.352383
 20
82.907605
 10
33.362313
 20
82.95315600000001
 10
33.372244
 20
83.00385900000001
 10
33.382174
 20
83.04940999999999
 10
33.382174
 20
83.07981100000001
 10
33.377224
 20
83.10011299999999
 10
33.357363
 20
83.120414
 10
33.322611
 20
83.140715
 10
33.287858
 20
83.145765
 10
31.465632
 20
83.145765
 10
31.619554
 20
84.09294199999999
 10
34.166697
 20
84.09294199999999
 10
34.345445
 20
84.057491
 10
34.549017
 20
83.951127
 10
34.717834
 20
83.75358900000001
 10
34.787348
 20
83.449687
 10
34.782397
 20
83.393935
 10
34.777447
 20
83.338182
 10
34.623526
 20
82.43152600000001
 10
34.52919
 20
82.178276
 10
34.370304
 20
82.01618999999999
 10
34.186592
 20
81.924986
 10
34.017776
 20
81.899635
 10
32.687104
 20
81.899635
 10
32.62256
 20
81.879334
 10
32.597728
 20
81.838832
 10
32.538144
 20
81.484278
 10
34.46464
 20
81.484278
 10
34.310718
 20
80.537111
 10
31.028674
 20
80.537172
  0
LWPOLYLINE
  5
A3
100
AcDbEntity
  8
0
  6
ByLayer
 62
  256
370
   -1
100
AcDbPolyline
 90
   24
 70
    1
 43
0
 10
35.323568
 20
80.567573
 10
35.119995
 20
80.673937
 10
34.956143
 20
80.871475
 10
34.886629
 20
81.180447
 10
34.886629
 20
81.2362
 10
34.89656
 20
81.29195199999999
 10
35.273914
 20
83.561121
 10
35.368249
 20
83.81437099999999
 10
35.527136
 20
83.97645799999999
 10
35.710848
 20
84.062612
 10
35.879665
 20
84.093013
 10
38.253027
 20
84.093013
 10
38.431774
 20
84.057562
 10
38.635346
 20
83.95119699999999
 10
38.799197
 20
83.75366
 10
38.868712
 20
83.449758
 10
38.863761
 20
83.39400500000001
 10
38.858811
 20
83.33825299999999
 10
38.481456
 20
81.069093
 10
38.382153
 20
80.815833
 10
38.223266
 20
80.653757
 10
38.039554
 20
80.56255299999999
 10
37.870738
 20
80.53720199999999
 10
35.502315
 20
80.537172
  0
LWPOLYLINE
  5
A4
100
AcDbEntity
  8
0
  6
ByLayer
 62
  256
370
   -1
100
AcDbPolyline
 90
    5
 70
    1
 43
0
 10
37.16069
 20
81.48433900000001
 10
37.220273
 20
81.499489
 10
37.250065
 20
81.545041
 10
37.468533
 20
82.578321
 10
36.465562
 20
81.48433900000001
  0
LWPOLYLINE
  5
A5
100
AcDbEntity
  8
0
  6
ByLayer
 62
  256
370
   -1
100
AcDbPolyline
 90
    5
 70
    1
 43
0
 10
36.594657
 20
83.145684
 10
36.535073
 20
83.125383
 10
36.505282
 20
83.08488199999999
 10
36.286813
 20
81.990819
 10
37.349367
 20
83.145684
  0
LWPOLYLINE
  5
A6
100
AcDbEntity
  8
0
  6
ByLayer
 62
  256
370
   -1
100
AcDbPolyline
 90
   37
 70
    1
 43
0
 10
39.265933
 20
82.315012
 10
39.360269
 20
82.56827199999999
 10
39.519155
 20
82.73034800000001
 10
39.702867
 20
82.816502
 10
39.871684
 20
82.846903
 10
41.202356
 20
82.846903
 10
41.261939
 20
82.862053
 10
41.291731
 20
82.907605
 10
41.301662
 20
82.95315600000001
 10
41.311592
 20
83.00385900000001
 10
41.321523
 20
83.04940999999999
 10
41.321523
 20
83.07981100000001
 10
41.316573
 20
83.10011299999999
 10
41.296711
 20
83.120414
 10
41.261959
 20
83.140715
 10
41.227207
 20
83.145765
 10
39.404958
 20
83.145765
 10
39.55888
 20
84.09294199999999
 10
42.106024
 20
84.09294199999999
 10
42.284771
 20
84.057491
 10
42.488343
 20
83.951127
 10
42.657159
 20
83.75358900000001
 10
42.726674
 20
83.449687
 10
42.721723
 20
83.393935
 10
42.716773
 20
83.338182
 10
42.562851
 20
82.43152600000001
 10
42.468516
 20
82.178276
 10
42.309629
 20
82.01618999999999
 10
42.125917
 20
81.924986
 10
41.9571
 20
81.899635
 10
40.626428
 20
81.899635
 10
40.561884
 20
81.879334
 10
40.537053
 20
81.838832
 10
40.477469
 20
81.484278
 10
42.403964
 20
81.484278
 10
42.250042
 20
80.537111
 10
38.968022
 20
80.537172
  0
LWPOLYLINE
  5
A7
100
AcDbEntity
  8
0
  6
ByLayer
 62
  256
370
   -1
100
AcDbPolyline
 90
   30
 70
    1
 43
0
 10
43.262915
 20
80.567573
 10
43.059343
 20
80.673937
 10
42.895492
 20
80.871475
 10
42.825978
 20
81.180447
 10
42.825978
 20
81.2362
 10
42.835908
 20
81.29195199999999
 10
43.213263
 20
83.561121
 10
43.307599
 20
83.81437099999999
 10
43.466486
 20
83.97645799999999
 10
43.650198
 20
84.062612
 10
43.819014
 20
84.093013
 10
46.584627
 20
84.093013
 10
46.42574
 20
83.145836
 10
44.578688
 20
83.145836
 10
44.514144
 20
83.125534
 10
44.484353
 20
83.085033
 10
44.44463
 20
82.846974
 10
45.735581
 20
82.846974
 10
45.914328
 20
82.811522
 10
46.1179
 20
82.705158
 10
46.281752
 20
82.50762
 10
46.351266
 20
82.20370800000001
 10
46.351266
 20
82.142906
 10
46.341336
 20
82.092203
 10
46.172519
 20
81.069053
 10
46.078184
 20
80.815793
 10
45.919298
 20
80.653717
 10
45.735586
 20
80.562513
 10
45.566769
 20
80.537162
 10
43.441662
 20
80.537172
  0
LWPOLYLINE
  5
A8
100
AcDbEntity
  8
0
  6
ByLayer
 62
  256
370
   -1
100
AcDbPolyline
 90
   10
 70
    1
 43
0
 10
44.216231
 20
81.48433900000001
 10
44.812055
 20
81.48433900000001
 10
44.871638
 20
81.499489
 10
44.90143
 20
81.545041
 10
44.946113
 20
81.78816
 10
44.951063
 20
81.83371099999999
 10
44.946113
 20
81.85401299999999
 10
44.926252
 20
81.874314
 10
44.856737
 20
81.899665
 10
44.285746
 20
81.899675
  0
LWPOLYLINE
  5
A9
100
AcDbEntity
  8
0
  6
ByLayer
 62
  256
370
   -1
100
AcDbPolyline
 90
    4
 70
    1
 43
0
 10
41.281545
 20
148.68079
 10
41.281545
 20
146.68079
 10
11.873212
 20
146.68079
 10
11.873212
 20
148.68079
  0
LWPOLYLINE
  5
AA
100
AcDbEntity
  8
0
  6
ByLayer
 62
  256
370
   -1
100
AcDbPolyline
 90
   68
 70
    1
 43
0
 10
103.803372
 20
110.787486
 10
129.596435
 20
110.787486
 10
130.449635
 20
110.988337
 10
130.843423
 20
111.590899
 10
130.974689
 20
112.595182
 10
131.237212
 20
114.06811
 10
131.368478
 20
114.737625
 10
131.499734
 20
115.474094
 10
131.499734
 20
115.674955
 10
131.565377
 20
115.942759
 10
131.565377
 20
116.14361
 10
131.499734
 20
116.411424
 10
131.237212
 20
116.679228
 10
130.77779
 20
116.947032
 10
130.318378
 20
117.013996
 10
112.335433
 20
117.013996
 10
114.1731
 20
127.994067
 10
131.105946
 20
127.994067
 10
131.565367
 20
128.061018
 10
131.893523
 20
128.261871
 10
132.352944
 20
128.864433
 10
132.4842
 20
129.600902
 10
132.615466
 20
130.538232
 10
132.812356
 20
131.877263
 10
132.746713
 20
132.145067
 10
132.484181
 20
132.412871
 10
132.024769
 20
132.680685
 10
131.565347
 20
132.747649
 10
107.478725
 20
132.747649
 10
109.513291
 20
145.267612
 10
143.313349
 20
145.267612
 10
144.396263
 20
145.150446
 10
145.67607
 20
144.798947
 10
147.070733
 20
144.246595
 10
148.366947
 20
143.392962
 10
149.564721
 20
142.271526
 10
150.532779
 20
140.781854
 10
151.221911
 20
138.974156
 10
151.451622
 20
136.764752
 10
151.320356
 20
134.957056
 10
151.123456
 20
132.881556
 10
150.860934
 20
130.806056
 10
150.598412
 20
129.065314
 10
150.323581
 20
127.705358
 10
149.892876
 20
126.504414
 10
149.306298
 20
125.46248
 10
148.563846
 20
124.579557
 10
146.857436
 20
123.240521
 10
145.01976
 20
122.303196
 10
145.479181
 20
121.968438
 10
145.938593
 20
121.633681
 10
146.988695
 20
120.696356
 10
147.907535
 20
119.491227
 10
148.59666
 20
117.968079
 10
148.826368
 20
116.076697
 10
148.629479
 20
113.86729
 10
148.170058
 20
110.85446
 10
147.710636
 20
107.841641
 10
147.382481
 20
105.632234
 10
146.955881
 20
103.724113
 10
146.201125
 20
102.150749
 10
145.216654
 20
100.87867
 10
144.100926
 20
99.874399
 10
142.886747
 20
99.121189
 10
141.606939
 20
98.602312
 10
140.409173
 20
98.351243
 10
139.309851
 20
98.267554
 10
101.703174
 20
98.26752399999999
  0
LWPOLYLINE
  5
AB
100
AcDbEntity
  8
0
  6
ByLayer
 62
  256
370
   -1
100
AcDbPolyline
 90
    9
 70
    1
 43
0
 10
109.355619
 20
93.199889
 10
109.946475
 20
96.755579
 10
111.356591
 20
96.755579
 10
111.197701
 20
95.808412
 10
110.711111
 20
95.808412
 10
110.651508
 20
95.793262
 10
110.616756
 20
95.73245900000001
 10
111.18279
 20
95.73245900000001
 10
110.760764
 20
93.199889
  0
LWPOLYLINE
  5
AC
100
AcDbEntity
  8
0
  6
ByLayer
 62
  256
370
   -1
100
AcDbPolyline
 90
    9
 70
    1
 43
0
 10
111.555203
 20
93.199889
 10
112.146059
 20
96.755579
 10
113.556175
 20
96.755579
 10
113.397285
 20
95.808412
 10
112.910695
 20
95.808412
 10
112.851092
 20
95.793262
 10
112.81634
 20
95.73245900000001
 10
113.382374
 20
95.73245900000001
 10
112.960348
 20
93.199889
  0
LWPOLYLINE
  5
AD
100
AcDbEntity
  8
0
  6
ByLayer
 62
  256
370
   -1
100
AcDbPolyline
 90
    9
 70
    1
 43
0
 10
113.754787
 20
93.199889
 10
114.345643
 20
96.755579
 10
115.755758
 20
96.755579
 10
115.596869
 20
95.808412
 10
115.110279
 20
95.808412
 10
115.050676
 20
95.793262
 10
115.015924
 20
95.73245900000001
 10
115.581958
 20
95.73245900000001
 10
115.159932
 20
93.199889
  0
LWPOLYLINE
  5
AE
100
AcDbEntity
  8
0
  6
ByLayer
 62
  256
370
   -1
100
AcDbPolyline
 90
   30
 70
    1
 43
0
 10
116.897758
 20
93.89890699999999
 10
116.907659
 20
93.95466
 10
117.285012
 20
96.22381900000001
 10
117.379367
 20
96.477079
 10
117.538257
 20
96.639155
 10
117.721968
 20
96.725309
 10
117.890789
 20
96.75570999999999
 10
121.053611
 20
96.75570999999999
 10
120.894732
 20
95.808543
 10
118.07946
 20
95.808543
 10
118.014906
 20
95.79339299999999
 10
117.985105
 20
95.73259
 10
118.556099
 20
95.73259
 10
118.287983
 20
94.147218
 10
119.266123
 20
94.147218
 10
119.350577
 20
94.56255400000001
 10
118.769642
 20
94.56255400000001
 10
118.938462
 20
95.509722
 10
120.855029
 20
95.509722
 10
120.54718
 20
93.731872
 10
120.452825
 20
93.478622
 10
120.293935
 20
93.316535
 10
120.110224
 20
93.225331
 10
119.941413
 20
93.19998
 10
117.513436
 20
93.19998
 10
117.334685
 20
93.23038099999999
 10
117.131112
 20
93.33674600000001
 10
116.967262
 20
93.534283
 10
116.897758
 20
93.843256
 10
116.897758
 20
93.843155
  0
LWPOLYLINE
  5
AF
100
AcDbEntity
  8
0
  6
ByLayer
 62
  256
370
   -1
100
AcDbPolyline
 90
    4
 70
    1
 43
0
 10
122.607736
 20
93.199889
 10
121.20258
 20
93.199889
 10
121.793436
 20
96.755579
 10
123.203552
 20
96.755579
  0
LWPOLYLINE
  5
B0
100
AcDbEntity
  8
0
  6
ByLayer
 62
  256
370
   -1
100
AcDbPolyline
 90
   24
 70
    1
 43
0
 10
127.061517
 20
96.755579
 10
127.240258
 20
96.720128
 10
127.44383
 20
96.61376300000001
 10
127.60768
 20
96.41622599999999
 10
127.677185
 20
96.112314
 10
127.672234
 20
96.056561
 10
127.667284
 20
96.000809
 10
127.200555
 20
93.199808
 10
125.850023
 20
93.199808
 10
125.864874
 20
93.29606200000001
 10
125.894676
 20
93.45814900000001
 10
125.949329
 20
93.756991
 10
126.013883
 20
94.147006
 10
126.083387
 20
94.58260300000001
 10
126.157842
 20
95.01313
 10
126.217445
 20
95.377814
 10
126.262099
 20
95.636134
 10
126.27695
 20
95.742509
 10
126.242198
 20
95.78806
 10
126.182594
 20
95.808361
 10
125.139901
 20
95.808361
 10
124.702964
 20
93.199839
 10
123.352432
 20
93.199839
 10
123.943367
 20
96.755579
  0
LWPOLYLINE
  5
B1
100
AcDbEntity
  8
0
  6
ByLayer
 62
  256
370
   -1
100
AcDbPolyline
 90
   29
 70
    1
 43
0
 10
128.392188
 20
93.199889
 10
128.213437
 20
93.23029099999999
 10
128.009865
 20
93.33665499999999
 10
127.846015
 20
93.534193
 10
127.77651
 20
93.843165
 10
127.77651
 20
93.898917
 10
127.786411
 20
93.95466999999999
 10
128.163764
 20
96.22382899999999
 10
128.25812
 20
96.47708900000001
 10
128.417
 20
96.63916500000001
 10
128.600711
 20
96.725319
 10
128.769531
 20
96.75572
 10
131.644376
 20
96.75572
 10
131.490457
 20
95.808553
 10
129.529207
 20
95.808553
 10
129.464654
 20
95.788252
 10
129.434852
 20
95.74775099999999
 10
129.414951
 20
95.641386
 10
129.385149
 20
95.453979
 10
129.340496
 20
95.205789
 10
129.295843
 20
94.93733899999999
 10
129.25119
 20
94.66381800000001
 10
129.211488
 20
94.435889
 10
129.186636
 20
94.278873
 10
129.176735
 20
94.21302
 10
129.211488
 20
94.162318
 10
129.271091
 20
94.14716799999999
 10
131.212479
 20
94.14716799999999
 10
131.05353
 20
93.199889
  0
LWPOLYLINE
  5
B2
100
AcDbEntity
  8
0
  6
ByLayer
 62
  256
370
   -1
100
AcDbPolyline
 90
   12
 70
    1
 43
0
 10
132.498398
 20
96.755579
 10
134.400064
 20
96.755579
 10
134.573845
 20
96.725178
 10
134.767486
 20
96.628924
 10
134.931336
 20
96.45164699999999
 10
135.015791
 20
96.183196
 10
135.313709
 20
93.199859
 10
134.022761
 20
93.199859
 10
133.973058
 20
93.711439
 10
132.984978
 20
93.711439
 10
132.845959
 20
93.199859
 10
131.550041
 20
93.199889
  0
LWPOLYLINE
  5
B3
100
AcDbEntity
  8
0
  6
ByLayer
 62
  256
370
   -1
100
AcDbPolyline
 90
    6
 70
    1
 43
0
 10
133.769486
 20
95.747629
 10
133.739684
 20
95.78813100000001
 10
133.67513
 20
95.808432
 10
133.546042
 20
95.808432
 10
133.238193
 20
94.65865700000001
 10
133.878712
 20
94.658637
  0
LWPOLYLINE
  5
B4
100
AcDbEntity
  8
0
  6
ByLayer
 62
  256
370
   -1
100
AcDbPolyline
 90
   24
 70
    1
 43
0
 10
139.320574
 20
96.755579
 10
139.499315
 20
96.720128
 10
139.702887
 20
96.61376300000001
 10
139.866747
 20
96.41622599999999
 10
139.936251
 20
96.112314
 10
139.931301
 20
96.056561
 10
139.92635
 20
96.000809
 10
139.459632
 20
93.199808
 10
138.1091
 20
93.199808
 10
138.123951
 20
93.29606200000001
 10
138.153753
 20
93.45814900000001
 10
138.208406
 20
93.756991
 10
138.27296
 20
94.147006
 10
138.342464
 20
94.58260300000001
 10
138.416919
 20
95.01313
 10
138.476522
 20
95.377814
 10
138.521175
 20
95.636134
 10
138.536125
 20
95.742509
 10
138.501373
 20
95.78806
 10
138.44177
 20
95.808361
 10
137.399086
 20
95.808361
 10
136.96215
 20
93.199839
 10
135.611617
 20
93.199839
 10
136.202434
 20
96.755579
  0
LWPOLYLINE
  5
B5
100
AcDbEntity
  8
0
  6
ByLayer
 62
  256
370
   -1
100
AcDbPolyline
 90
   12
 70
    1
 43
0
 10
140.983915
 20
96.755579
 10
142.885581
 20
96.755579
 10
143.059362
 20
96.725178
 10
143.253013
 20
96.628924
 10
143.416863
 20
96.45164699999999
 10
143.501318
 20
96.183196
 10
143.799226
 20
93.199859
 10
142.508277
 20
93.199859
 10
142.458575
 20
93.711439
 10
141.470505
 20
93.711439
 10
141.331476
 20
93.199859
 10
140.035567
 20
93.199889
  0
LWPOLYLINE
  5
B6
100
AcDbEntity
  8
0
  6
ByLayer
 62
  256
370
   -1
100
AcDbPolyline
 90
    6
 70
    1
 43
0
 10
142.255002
 20
95.747629
 10
142.225201
 20
95.78813100000001
 10
142.160647
 20
95.808432
 10
142.031549
 20
95.808432
 10
141.72371
 20
94.65865700000001
 10
142.364239
 20
94.658637
  0
LWPOLYLINE
  5
B7
100
AcDbEntity
  8
0
  6
ByLayer
 62
  256
370
   -1
100
AcDbPolyline
 90
    9
 70
    1
 43
0
 10
105.043351
 20
86.868531
 10
105.634217
 20
90.42422000000001
 10
107.044323
 20
90.42422000000001
 10
106.885443
 20
89.477053
 10
106.398854
 20
89.477053
 10
106.33925
 20
89.46180200000001
 10
106.304498
 20
89.400999
 10
106.870523
 20
89.400999
 10
106.448507
 20
86.868531
  0
LWPOLYLINE
  5
B8
100
AcDbEntity
  8
0
  6
ByLayer
 62
  256
370
   -1
100
AcDbPolyline
 90
   24
 70
    1
 43
0
 10
110.902288
 20
90.42422000000001
 10
111.081029
 20
90.388769
 10
111.284611
 20
90.28239499999999
 10
111.448461
 20
90.084857
 10
111.517965
 20
89.78095500000001
 10
111.513015
 20
89.725202
 10
111.508064
 20
89.66945
 10
111.041336
 20
86.86846
 10
109.690804
 20
86.86846
 10
109.705655
 20
86.964714
 10
109.735457
 20
87.1268
 10
109.79011
 20
87.425642
 10
109.854664
 20
87.815647
 10
109.924168
 20
88.251244
 10
109.998623
 20
88.681781
 10
110.058226
 20
89.046466
 10
110.102879
 20
89.30478599999999
 10
110.11783
 20
89.41115000000001
 10
110.083077
 20
89.456701
 10
110.023474
 20
89.477003
 10
108.98079
 20
89.477003
 10
108.543854
 20
86.86848000000001
 10
107.193322
 20
86.86848000000001
 10
107.784148
 20
90.42422000000001
  0
LWPOLYLINE
  5
B9
100
AcDbEntity
  8
0
  6
ByLayer
 62
  256
370
   -1
100
AcDbPolyline
 90
    8
 70
    1
 43
0
 10
111.875467
 20
90.42422000000001
 10
115.475236
 20
90.42422000000001
 10
115.316347
 20
89.477053
 10
114.209109
 20
89.477053
 10
113.777143
 20
86.868531
 10
112.426611
 20
86.868531
 10
112.863547
 20
89.477053
 10
111.716587
 20
89.477053
  0
LWPOLYLINE
  5
BA
100
AcDbEntity
  8
0
  6
ByLayer
 62
  256
370
   -1
100
AcDbPolyline
 90
   31
 70
    1
 43
0
 10
116.820848
 20
88.150031
 10
116.805996
 20
88.069028
 10
116.796096
 20
87.998126
 10
116.786195
 20
87.942373
 10
116.781244
 20
87.90692199999999
 10
116.776294
 20
87.88157099999999
 10
116.811046
 20
87.830868
 10
116.870649
 20
87.815617
 10
118.697841
 20
87.815617
 10
118.538951
 20
86.86845
 10
115.991806
 20
86.86845
 10
115.813065
 20
86.89885099999999
 10
115.609492
 20
87.00521500000001
 10
115.445643
 20
87.202753
 10
115.376138
 20
87.511725
 10
115.376138
 20
87.56747799999999
 10
115.386039
 20
87.62323000000001
 10
115.763392
 20
89.89238899999999
 10
115.857748
 20
90.145639
 10
116.016637
 20
90.307726
 10
116.200349
 20
90.39388
 10
116.369169
 20
90.42428099999999
 10
119.134777
 20
90.42428099999999
 10
118.975888
 20
89.477114
 10
117.128637
 20
89.477114
 10
117.064083
 20
89.456812
 10
117.034282
 20
89.41631099999999
 10
116.994579
 20
89.178252
 10
118.593376
 20
89.178252
 10
118.424556
 20
88.23107400000001
 10
116.835699
 20
88.23103399999999
  0
LWPOLYLINE
  5
BB
100
AcDbEntity
  8
0
  6
ByLayer
 62
  256
370
   -1
100
AcDbPolyline
 90
   26
 70
    1
 43
0
 10
120.62414
 20
87.815698
 10
121.60228
 20
87.815698
 10
121.686734
 20
88.23103399999999
 10
121.105799
 20
88.23103399999999
 10
121.274619
 20
89.178211
 10
123.191186
 20
89.178211
 10
122.883337
 20
87.400361
 10
122.788982
 20
87.147111
 10
122.630102
 20
86.98502499999999
 10
122.446381
 20
86.893821
 10
122.27757
 20
86.86847
 10
119.849593
 20
86.86847
 10
119.670842
 20
86.898871
 10
119.467269
 20
87.005235
 10
119.303419
 20
87.20277299999999
 10
119.233915
 20
87.511745
 10
119.233915
 20
87.567498
 10
119.243816
 20
87.62325
 10
119.621169
 20
89.89241
 10
119.715524
 20
90.14565899999999
 10
119.874414
 20
90.30774599999999
 10
120.058125
 20
90.3939
 10
120.226946
 20
90.424301
 10
123.389768
 20
90.424301
 10
123.230888
 20
89.47713400000001
 10
120.902187
 20
89.477053
  0
LWPOLYLINE
  5
BC
100
AcDbEntity
  8
0
  6
ByLayer
 62
  256
370
   -1
100
AcDbPolyline
 90
   19
 70
    1
 43
0
 10
124.07991
 20
90.42422000000001
 10
126.969656
 20
90.42422000000001
 10
127.148407
 20
90.388769
 10
127.35198
 20
90.28239499999999
 10
127.51583
 20
90.084857
 10
127.585334
 20
89.78095500000001
 10
127.585334
 20
89.725202
 10
127.575433
 20
89.66945
 10
127.35696
 20
88.36265899999999
 10
127.277555
 20
88.12966900000001
 10
127.138536
 20
87.97264300000001
 10
126.969716
 20
87.876389
 10
126.810826
 20
87.835888
 10
127.004468
 20
86.86846
 10
125.768143
 20
86.86846
 10
125.574501
 20
87.830828
 10
124.998536
 20
87.830828
 10
124.839646
 20
86.86846
 10
123.489054
 20
86.868531
  0
LWPOLYLINE
  5
BD
100
AcDbEntity
  8
0
  6
ByLayer
 62
  256
370
   -1
100
AcDbPolyline
 90
   14
 70
    1
 43
0
 10
126.061031
 20
88.798367
 10
126.090833
 20
88.83886800000001
 10
126.110734
 20
88.95536300000001
 10
126.140535
 20
89.14784
 10
126.170337
 20
89.330187
 10
126.175287
 20
89.365639
 10
126.180238
 20
89.39604
 10
126.185188
 20
89.40613999999999
 10
126.185188
 20
89.41119
 10
126.150436
 20
89.45674200000001
 10
126.090833
 20
89.47704299999999
 10
125.276543
 20
89.47704299999999
 10
125.157386
 20
88.77805499999999
 10
125.996477
 20
88.778066
  0
LWPOLYLINE
  5
BE
100
AcDbEntity
  8
0
  6
ByLayer
 62
  256
370
   -1
100
AcDbPolyline
 90
   12
 70
    1
 43
0
 10
128.533692
 20
90.42422000000001
 10
130.435358
 20
90.42422000000001
 10
130.609138
 20
90.39381899999999
 10
130.80278
 20
90.29756500000001
 10
130.96663
 20
90.120288
 10
131.051085
 20
89.851837
 10
131.348993
 20
86.8685
 10
130.058044
 20
86.8685
 10
130.008342
 20
87.38007
 10
129.020271
 20
87.38007
 10
128.881243
 20
86.8685
 10
127.585334
 20
86.868531
  0
LWPOLYLINE
  5
BF
100
AcDbEntity
  8
0
  6
ByLayer
 62
  256
370
   -1
100
AcDbPolyline
 90
    6
 70
    1
 43
0
 10
129.804779
 20
89.41627099999999
 10
129.774977
 20
89.456772
 10
129.710424
 20
89.477073
 10
129.581336
 20
89.477073
 10
129.273487
 20
88.327298
 10
129.914016
 20
88.32727800000001
  0
LWPOLYLINE
  5
C0
100
AcDbEntity
  8
0
  6
ByLayer
 62
  256
370
   -1
100
AcDbPolyline
 90
   17
 70
    1
 43
0
 10
134.283392
 20
89.47202299999999
 10
134.24864
 20
89.477073
 10
133.43435
 20
89.477073
 10
133.156293
 20
87.815718
 10
133.995414
 20
87.815718
 10
134.055018
 20
87.830969
 10
134.084819
 20
87.87652
 10
134.10472
 20
87.977824
 10
134.134522
 20
88.17030200000001
 10
134.179175
 20
88.413422
 10
134.223828
 20
88.686932
 10
134.268481
 20
88.955383
 10
134.308184
 20
89.183312
 10
134.333035
 20
89.345398
 10
134.342936
 20
89.41125099999999
 10
134.318085
 20
89.451752
 10
134.318144
 20
89.451722
  0
LWPOLYLINE
  5
C1
100
AcDbEntity
  8
0
  6
ByLayer
 62
  256
370
   -1
100
AcDbPolyline
 90
   15
 70
    1
 43
0
 10
135.743151
 20
89.725202
 10
135.73325
 20
89.66945
 10
135.355897
 20
87.400291
 10
135.261541
 20
87.147041
 10
135.102652
 20
86.984954
 10
134.918941
 20
86.89375
 10
134.75012
 20
86.868399
 10
131.646881
 20
86.868399
 10
132.237737
 20
90.424089
 10
135.127473
 20
90.424089
 10
135.306224
 20
90.388638
 10
135.509797
 20
90.282263
 10
135.673647
 20
90.084726
 10
135.743151
 20
89.780824
 10
135.743151
 20
89.78095500000001
  0
LWPOLYLINE
  5
C2
100
AcDbEntity
  8
0
  6
ByLayer
 62
  256
370
   -1
100
AcDbPolyline
 90
   30
 70
    1
 43
0
 10
137.540511
 20
89.309906
 10
137.510709
 20
89.122489
 10
137.471006
 20
88.874309
 10
137.426353
 20
88.605859
 10
137.3817
 20
88.33233799999999
 10
137.346948
 20
88.104409
 10
137.322097
 20
87.94739300000001
 10
137.312196
 20
87.88154
 10
137.312196
 20
87.861239
 10
137.337047
 20
87.84093799999999
 10
137.371799
 20
87.820637
 10
137.401601
 20
87.81558699999999
 10
138.434364
 20
87.81558699999999
 10
138.498918
 20
87.830838
 10
138.52872
 20
87.876389
 10
138.54367
 20
87.977693
 10
138.578422
 20
88.170171
 10
138.618125
 20
88.41329
 10
138.662778
 20
88.686801
 10
138.707431
 20
88.955252
 10
138.747133
 20
89.183181
 10
138.771985
 20
89.34526700000001
 10
138.781886
 20
89.41112
 10
138.757034
 20
89.451621
 10
138.722282
 20
89.47192200000001
 10
138.68753
 20
89.476972
 10
137.654767
 20
89.476972
 10
137.590213
 20
89.456671
 10
137.560412
 20
89.41616999999999
 10
137.560412
 20
89.41627099999999
  0
LWPOLYLINE
  5
C3
100
AcDbEntity
  8
0
  6
ByLayer
 62
  256
370
   -1
100
AcDbPolyline
 90
   24
 70
    1
 43
0
 10
139.710342
 20
90.388769
 10
139.913915
 20
90.28239499999999
 10
140.077765
 20
90.084857
 10
140.147269
 20
89.78095500000001
 10
140.147269
 20
89.725202
 10
140.142319
 20
89.66945
 10
139.760005
 20
87.400291
 10
139.66565
 20
87.147041
 10
139.50677
 20
86.984954
 10
139.323059
 20
86.89375
 10
139.154239
 20
86.868399
 10
136.55744
 20
86.868399
 10
136.3787
 20
86.89880100000001
 10
136.175127
 20
87.00516500000001
 10
136.011267
 20
87.202702
 10
135.941763
 20
87.511675
 10
135.941763
 20
87.567427
 10
135.951664
 20
87.62318
 10
136.329017
 20
89.89233900000001
 10
136.423372
 20
90.145589
 10
136.582262
 20
90.307675
 10
136.765973
 20
90.393829
 10
136.934784
 20
90.42422999999999
 10
139.531592
 20
90.42422000000001
  0
LWPOLYLINE
  5
C4
100
AcDbEntity
  8
0
  6
ByLayer
 62
  256
370
   -1
100
AcDbPolyline
 90
   19
 70
    1
 43
0
 10
140.842401
 20
90.42422000000001
 10
143.732147
 20
90.42422000000001
 10
143.910888
 20
90.388769
 10
144.114461
 20
90.28239499999999
 10
144.278321
 20
90.084857
 10
144.347825
 20
89.78095500000001
 10
144.347825
 20
89.725202
 10
144.337924
 20
89.66945
 10
144.119461
 20
88.36265899999999
 10
144.040056
 20
88.12966900000001
 10
143.901027
 20
87.97264300000001
 10
143.732217
 20
87.876389
 10
143.573327
 20
87.835888
 10
143.766969
 20
86.86846
 10
142.530634
 20
86.86846
 10
142.336992
 20
87.830828
 10
141.761037
 20
87.830828
 10
141.602147
 20
86.86846
 10
140.251545
 20
86.868531
  0
LWPOLYLINE
  5
C5
100
AcDbEntity
  8
0
  6
ByLayer
 62
  256
370
   -1
100
AcDbPolyline
 90
   14
 70
    1
 43
0
 10
142.823522
 20
88.798367
 10
142.853324
 20
88.83886800000001
 10
142.873225
 20
88.95536300000001
 10
142.903026
 20
89.14784
 10
142.932828
 20
89.330187
 10
142.937778
 20
89.365639
 10
142.942729
 20
89.39604
 10
142.947679
 20
89.40613999999999
 10
142.947679
 20
89.41119
 10
142.912927
 20
89.45674200000001
 10
142.853324
 20
89.47704299999999
 10
142.039034
 20
89.47704299999999
 10
141.919867
 20
88.77805499999999
 10
142.758968
 20
88.778066
  0
LWPOLYLINE
  5
C6
100
AcDbEntity
  8
0
  6
ByLayer
 62
  256
370
   -1
100
AcDbPolyline
 90
   12
 70
    1
 43
0
 10
145.296173
 20
90.42422000000001
 10
147.197849
 20
90.42422000000001
 10
147.371629
 20
90.39381899999999
 10
147.565271
 20
90.29756500000001
 10
147.729121
 20
90.120288
 10
147.813576
 20
89.851837
 10
148.111494
 20
86.8685
 10
146.820535
 20
86.8685
 10
146.770932
 20
87.38007
 10
145.782852
 20
87.38007
 10
145.643833
 20
86.8685
 10
144.347825
 20
86.868531
  0
LWPOLYLINE
  5
C7
100
AcDbEntity
  8
0
  6
ByLayer
 62
  256
370
   -1
100
AcDbPolyline
 90
    6
 70
    1
 43
0
 10
146.56727
 20
89.41627099999999
 10
146.537468
 20
89.456772
 10
146.472915
 20
89.477073
 10
146.343827
 20
89.477073
 10
146.035978
 20
88.327298
 10
146.676497
 20
88.32727800000001
  0
LWPOLYLINE
  5
C8
100
AcDbEntity
  8
0
  6
ByLayer
 62
  256
370
   -1
100
AcDbPolyline
 90
   17
 70
    1
 43
0
 10
109.157007
 20
83.140664
 10
109.122255
 20
83.145714
 10
108.307965
 20
83.145714
 10
108.029918
 20
81.484369
 10
108.869029
 20
81.484369
 10
108.928633
 20
81.49951900000001
 10
108.958434
 20
81.54507099999999
 10
108.978335
 20
81.64637500000001
 10
109.008137
 20
81.838842
 10
109.05279
 20
82.08197199999999
 10
109.097443
 20
82.35548300000001
 10
109.142096
 20
82.62393299999999
 10
109.181799
 20
82.851862
 10
109.20665
 20
83.013949
 10
109.216551
 20
83.079801
 10
109.191699
 20
83.12030300000001
 10
109.191759
 20
83.120363
  0
LWPOLYLINE
  5
C9
100
AcDbEntity
  8
0
  6
ByLayer
 62
  256
370
   -1
100
AcDbPolyline
 90
   15
 70
    1
 43
0
 10
110.616766
 20
83.393844
 10
110.606865
 20
83.33809100000001
 10
110.229512
 20
81.068932
 10
110.135156
 20
80.81567200000001
 10
109.976267
 20
80.65359599999999
 10
109.792555
 20
80.562392
 10
109.623745
 20
80.53704
 10
106.520496
 20
80.53704
 10
107.111352
 20
84.09273
 10
110.001098
 20
84.09273
 10
110.179839
 20
84.05727899999999
 10
110.383411
 20
83.95091499999999
 10
110.547261
 20
83.753377
 10
110.616766
 20
83.44947500000001
 10
110.616766
 20
83.449596
  0
LWPOLYLINE
  5
CA
100
AcDbEntity
  8
0
  6
ByLayer
 62
  256
370
   -1
100
AcDbPolyline
 90
   30
 70
    1
 43
0
 10
112.414126
 20
82.978538
 10
112.384324
 20
82.79113
 10
112.344621
 20
82.54294
 10
112.299968
 20
82.27449
 10
112.255315
 20
82.000979
 10
112.220563
 20
81.77305
 10
112.195712
 20
81.616034
 10
112.185811
 20
81.55018099999999
 10
112.185811
 20
81.52988000000001
 10
112.210662
 20
81.509579
 10
112.245414
 20
81.489379
 10
112.275216
 20
81.484329
 10
113.307969
 20
81.484329
 10
113.372523
 20
81.49947899999999
 10
113.402324
 20
81.54503
 10
113.417176
 20
81.646334
 10
113.451928
 20
81.838802
 10
113.491631
 20
82.08193199999999
 10
113.536284
 20
82.355442
 10
113.580937
 20
82.623893
 10
113.620639
 20
82.851822
 10
113.645491
 20
83.013908
 10
113.655391
 20
83.079761
 10
113.63054
 20
83.120262
 10
113.595788
 20
83.140563
 10
113.561036
 20
83.145613
 10
112.528273
 20
83.145613
 10
112.463719
 20
83.12531199999999
 10
112.433917
 20
83.084811
 10
112.434026
 20
83.084912
  0
LWPOLYLINE
  5
CB
100
AcDbEntity
  8
0
  6
ByLayer
 62
  256
370
   -1
100
AcDbPolyline
 90
   24
 70
    1
 43
0
 10
114.583957
 20
84.05741
 10
114.78753
 20
83.95104600000001
 10
114.95138
 20
83.753508
 10
115.020884
 20
83.449606
 10
115.020884
 20
83.393854
 10
115.015934
 20
83.33810099999999
 10
114.63362
 20
81.06894200000001
 10
114.539265
 20
80.815682
 10
114.380375
 20
80.653606
 10
114.196664
 20
80.56240200000001
 10
114.027844
 20
80.53705100000001
 10
111.431045
 20
80.53705100000001
 10
111.252304
 20
80.567452
 10
111.048732
 20
80.673816
 10
110.884882
 20
80.871354
 10
110.815378
 20
81.18032599999999
 10
110.815378
 20
81.23607800000001
 10
110.825279
 20
81.291831
 10
111.202632
 20
83.56100000000001
 10
111.296987
 20
83.81425
 10
111.455877
 20
83.976337
 10
111.639588
 20
84.06249
 10
111.808408
 20
84.09289200000001
 10
114.405206
 20
84.092861
  0
LWPOLYLINE
  5
CC
100
AcDbEntity
  8
0
  6
ByLayer
 62
  256
370
   -1
100
AcDbPolyline
 90
    9
 70
    1
 43
0
 10
116.167854
 20
80.537172
 10
116.75872
 20
84.092861
 10
118.168826
 20
84.092861
 10
118.009946
 20
83.145684
 10
117.523356
 20
83.145684
 10
117.463753
 20
83.130534
 10
117.429001
 20
83.069731
 10
117.995025
 20
83.069731
 10
117.573009
 20
80.537172
  0
LWPOLYLINE
  5
CD
100
AcDbEntity
  8
0
  6
ByLayer
 62
  256
370
   -1
100
AcDbPolyline
 90
   17
 70
    1
 43
0
 10
119.55412
 20
83.130534
 10
119.524318
 20
83.069731
 10
120.090353
 20
83.069731
 10
119.986086
 20
82.446727
 10
121.569983
 20
82.446727
 10
121.396202
 20
81.49955
 10
119.827197
 20
81.49955
 10
119.668317
 20
80.537192
 10
118.317785
 20
80.537192
 10
118.824226
 20
83.56105100000001
 10
118.918581
 20
83.814301
 10
119.077461
 20
83.976387
 10
119.261172
 20
84.062541
 10
119.429992
 20
84.09294199999999
 10
122.076444
 20
84.09294199999999
 10
121.917554
 20
83.145765
 10
119.618674
 20
83.145684
  0
LWPOLYLINE
  5
CE
100
AcDbEntity
  8
0
  6
ByLayer
 62
  256
370
   -1
100
AcDbPolyline
 90
   30
 70
    1
 43
0
 10
122.17575
 20
81.23618999999999
 10
122.18565
 20
81.29194200000001
 10
122.563003
 20
83.561111
 10
122.657359
 20
83.81436100000001
 10
122.816249
 20
83.976448
 10
122.99996
 20
84.062602
 10
123.16877
 20
84.093003
 10
126.331603
 20
84.093003
 10
126.172713
 20
83.145826
 10
123.357452
 20
83.145826
 10
123.292898
 20
83.130675
 10
123.263096
 20
83.069873
 10
123.834091
 20
83.069873
 10
123.565975
 20
81.48450099999999
 10
124.544114
 20
81.48450099999999
 10
124.628569
 20
81.89983700000001
 10
124.047643
 20
81.89983700000001
 10
124.216464
 20
82.847014
 10
126.13302
 20
82.847014
 10
125.825182
 20
81.069164
 10
125.730826
 20
80.815904
 10
125.571936
 20
80.653828
 10
125.388225
 20
80.562624
 10
125.219405
 20
80.537273
 10
122.791427
 20
80.537273
 10
122.612686
 20
80.567674
 10
122.409114
 20
80.674038
 10
122.245254
 20
80.871576
 10
122.17575
 20
81.180548
 10
122.17575
 20
81.180437
  0
LWPOLYLINE
  5
CF
100
AcDbEntity
  8
0
  6
ByLayer
 62
  256
370
   -1
100
AcDbPolyline
 90
    4
 70
    1
 43
0
 10
129.777463
 20
81.843963
 10
127.423959
 20
81.843963
 10
127.582849
 20
82.78607
 10
129.936342
 20
82.78607
  0
LWPOLYLINE
  5
D0
100
AcDbEntity
  8
0
  6
ByLayer
 62
  256
370
   -1
100
AcDbPolyline
 90
   37
 70
    1
 43
0
 10
131.326607
 20
82.315012
 10
131.420962
 20
82.56827199999999
 10
131.579842
 20
82.73034800000001
 10
131.763553
 20
82.816502
 10
131.932374
 20
82.846903
 10
133.263045
 20
82.846903
 10
133.322648
 20
82.862053
 10
133.35245
 20
82.907605
 10
133.362351
 20
82.95315600000001
 10
133.372252
 20
83.00385900000001
 10
133.382153
 20
83.04940999999999
 10
133.382153
 20
83.07981100000001
 10
133.377202
 20
83.10011299999999
 10
133.357301
 20
83.120414
 10
133.322549
 20
83.140715
 10
133.287797
 20
83.145765
 10
131.465566
 20
83.145765
 10
131.619485
 20
84.09294199999999
 10
134.166631
 20
84.09294199999999
 10
134.345381
 20
84.057491
 10
134.548954
 20
83.951127
 10
134.717764
 20
83.75358900000001
 10
134.787268
 20
83.449687
 10
134.782318
 20
83.393935
 10
134.777368
 20
83.338182
 10
134.623448
 20
82.43152600000001
 10
134.529093
 20
82.178276
 10
134.370203
 20
82.01618999999999
 10
134.186492
 20
81.924986
 10
134.017672
 20
81.899635
 10
132.687
 20
81.899635
 10
132.622447
 20
81.879334
 10
132.597595
 20
81.838832
 10
132.537992
 20
81.484278
 10
134.464479
 20
81.484278
 10
134.31056
 20
80.537111
 10
131.028699
 20
80.537172
  0
LWPOLYLINE
  5
D1
100
AcDbEntity
  8
0
  6
ByLayer
 62
  256
370
   -1
100
AcDbPolyline
 90
   24
 70
    1
 43
0
 10
135.32359
 20
80.567573
 10
135.120018
 20
80.673937
 10
134.956168
 20
80.871475
 10
134.886664
 20
81.180447
 10
134.886664
 20
81.2362
 10
134.896565
 20
81.29195199999999
 10
135.273918
 20
83.561121
 10
135.368273
 20
83.81437099999999
 10
135.527153
 20
83.97645799999999
 10
135.710864
 20
84.062612
 10
135.879684
 20
84.093013
 10
138.253049
 20
84.093013
 10
138.43179
 20
84.057562
 10
138.635362
 20
83.95119699999999
 10
138.799222
 20
83.75366
 10
138.868726
 20
83.449758
 10
138.863776
 20
83.39400500000001
 10
138.858825
 20
83.33825299999999
 10
138.481472
 20
81.069093
 10
138.382166
 20
80.815833
 10
138.223287
 20
80.653757
 10
138.039576
 20
80.56255299999999
 10
137.870755
 20
80.53720199999999
 10
135.502341
 20
80.537172
  0
LWPOLYLINE
  5
D2
100
AcDbEntity
  8
0
  6
ByLayer
 62
  256
370
   -1
100
AcDbPolyline
 90
    5
 70
    1
 43
0
 10
137.160712
 20
81.48433900000001
 10
137.220316
 20
81.499489
 10
137.250117
 20
81.545041
 10
137.468591
 20
82.578321
 10
136.46559
 20
81.48433900000001
  0
LWPOLYLINE
  5
D3
100
AcDbEntity
  8
0
  6
ByLayer
 62
  256
370
   -1
100
AcDbPolyline
 90
    5
 70
    1
 43
0
 10
136.594678
 20
83.145684
 10
136.535074
 20
83.125383
 10
136.505273
 20
83.08488199999999
 10
136.286799
 20
81.990819
 10
137.349394
 20
83.145684
  0
LWPOLYLINE
  5
D4
100
AcDbEntity
  8
0
  6
ByLayer
 62
  256
370
   -1
100
AcDbPolyline
 90
   37
 70
    1
 43
0
 10
139.26596
 20
82.315012
 10
139.360316
 20
82.56827199999999
 10
139.519206
 20
82.73034800000001
 10
139.702917
 20
82.816502
 10
139.871727
 20
82.846903
 10
141.202398
 20
82.846903
 10
141.262002
 20
82.862053
 10
141.291803
 20
82.907605
 10
141.301704
 20
82.95315600000001
 10
141.311605
 20
83.00385900000001
 10
141.321506
 20
83.04940999999999
 10
141.321506
 20
83.07981100000001
 10
141.316556
 20
83.10011299999999
 10
141.296655
 20
83.120414
 10
141.261903
 20
83.140715
 10
141.22715
 20
83.145765
 10
139.40492
 20
83.145765
 10
139.558849
 20
84.09294199999999
 10
142.105984
 20
84.09294199999999
 10
142.284735
 20
84.057491
 10
142.488307
 20
83.951127
 10
142.657128
 20
83.75358900000001
 10
142.726632
 20
83.449687
 10
142.721681
 20
83.393935
 10
142.716731
 20
83.338182
 10
142.562802
 20
82.43152600000001
 10
142.468446
 20
82.178276
 10
142.309566
 20
82.01618999999999
 10
142.125845
 20
81.924986
 10
141.957035
 20
81.899635
 10
140.626364
 20
81.899635
 10
140.56181
 20
81.879334
 10
140.536959
 20
81.838832
 10
140.477355
 20
81.484278
 10
142.403853
 20
81.484278
 10
142.249933
 20
80.537111
 10
138.968042
 20
80.537172
  0
LWPOLYLINE
  5
D5
100
AcDbEntity
  8
0
  6
ByLayer
 62
  256
370
   -1
100
AcDbPolyline
 90
   30
 70
    1
 43
0
 10
143.262944
 20
80.567573
 10
143.059371
 20
80.673937
 10
142.895512
 20
80.871475
 10
142.826007
 20
81.180447
 10
142.826007
 20
81.2362
 10
142.835908
 20
81.29195199999999
 10
143.213261
 20
83.561121
 10
143.307617
 20
83.81437099999999
 10
143.466506
 20
83.97645799999999
 10
143.650218
 20
84.062612
 10
143.819028
 20
84.093013
 10
146.584646
 20
84.093013
 10
146.425757
 20
83.145836
 10
144.578704
 20
83.145836
 10
144.51415
 20
83.125534
 10
144.484349
 20
83.085033
 10
144.444646
 20
82.846974
 10
145.735595
 20
82.846974
 10
145.914345
 20
82.811522
 10
146.117918
 20
82.705158
 10
146.281768
 20
82.50762
 10
146.351272
 20
82.20370800000001
 10
146.351272
 20
82.142906
 10
146.341371
 20
82.092203
 10
146.172551
 20
81.069053
 10
146.078195
 20
80.815793
 10
145.919306
 20
80.653717
 10
145.735595
 20
80.562513
 10
145.566784
 20
80.537162
 10
143.441685
 20
80.537172
  0
LWPOLYLINE
  5
D6
100
AcDbEntity
  8
0
  6
ByLayer
 62
  256
370
   -1
100
AcDbPolyline
 90
   10
 70
    1
 43
0
 10
144.216262
 20
81.48433900000001
 10
144.812078
 20
81.48433900000001
 10
144.871682
 20
81.499489
 10
144.901483
 20
81.545041
 10
144.946136
 20
81.78816
 10
144.951087
 20
81.83371099999999
 10
144.946136
 20
81.85401299999999
 10
144.926236
 20
81.874314
 10
144.856731
 20
81.899665
 10
144.285766
 20
81.899675
  0
LWPOLYLINE
  5
D7
100
AcDbEntity
  8
0
  6
ByLayer
 62
  256
370
   -1
100
AcDbPolyline
 90
    4
 70
    1
 43
0
 10
141.28154
 20
148.68079
 10
141.28154
 20
146.68079
 10
111.87321
 20
146.68079
 10
111.87321
 20
148.68079
  0
LWPOLYLINE
  5
D8
100
AcDbEntity
  8
0
  6
ByLayer
 62
  256
370
   -1
100
AcDbPolyline
 90
    9
 70
    1
 43
0
 10
159.355609
 20
93.199889
 10
159.946475
 20
96.755579
 10
161.356581
 20
96.755579
 10
161.197701
 20
95.808412
 10
160.711112
 20
95.808412
 10
160.651508
 20
95.793262
 10
160.616756
 20
95.73245900000001
 10
161.182781
 20
95.73245900000001
 10
160.760765
 20
93.199889
  0
LWPOLYLINE
  5
D9
100
AcDbEntity
  8
0
  6
ByLayer
 62
  256
370
   -1
100
AcDbPolyline
 90
    9
 70
    1
 43
0
 10
161.555193
 20
93.199889
 10
162.146059
 20
96.755579
 10
163.556165
 20
96.755579
 10
163.397285
 20
95.808412
 10
162.910696
 20
95.808412
 10
162.851092
 20
95.793262
 10
162.81634
 20
95.73245900000001
 10
163.382365
 20
95.73245900000001
 10
162.960349
 20
93.199889
  0
LWPOLYLINE
  5
DA
100
AcDbEntity
  8
0
  6
ByLayer
 62
  256
370
   -1
100
AcDbPolyline
 90
    9
 70
    1
 43
0
 10
163.754777
 20
93.199889
 10
164.345643
 20
96.755579
 10
165.755749
 20
96.755579
 10
165.596869
 20
95.808412
 10
165.11028
 20
95.808412
 10
165.050676
 20
95.793262
 10
165.015924
 20
95.73245900000001
 10
165.581949
 20
95.73245900000001
 10
165.159933
 20
93.199889
  0
LWPOLYLINE
  5
DB
100
AcDbEntity
  8
0
  6
ByLayer
 62
  256
370
   -1
100
AcDbPolyline
 90
   30
 70
    1
 43
0
 10
166.897758
 20
93.89890699999999
 10
166.907659
 20
93.95466
 10
167.285012
 20
96.22381900000001
 10
167.379368
 20
96.477079
 10
167.538258
 20
96.639155
 10
167.721969
 20
96.725309
 10
167.890789
 20
96.75570999999999
 10
171.053612
 20
96.75570999999999
 10
170.894722
 20
95.808543
 10
168.079461
 20
95.808543
 10
168.014907
 20
95.79339299999999
 10
167.985105
 20
95.73259
 10
168.5561
 20
95.73259
 10
168.287983
 20
94.147218
 10
169.266123
 20
94.147218
 10
169.350578
 20
94.56255400000001
 10
168.769652
 20
94.56255400000001
 10
168.938473
 20
95.509722
 10
170.855029
 20
95.509722
 10
170.547191
 20
93.731872
 10
170.452835
 20
93.478622
 10
170.293945
 20
93.316535
 10
170.110234
 20
93.225331
 10
169.941414
 20
93.19998
 10
167.513436
 20
93.19998
 10
167.334695
 20
93.23038099999999
 10
167.131123
 20
93.33674600000001
 10
166.967273
 20
93.534283
 10
166.897768
 20
93.843256
 10
166.897758
 20
93.843155
  0
LWPOLYLINE
  5
DC
100
AcDbEntity
  8
0
  6
ByLayer
 62
  256
370
   -1
100
AcDbPolyline
 90
    4
 70
    1
 43
0
 10
172.607726
 20
93.199889
 10
171.202581
 20
93.199889
 10
171.793437
 20
96.755579
 10
173.203553
 20
96.755579
  0
LWPOLYLINE
  5
DD
100
AcDbEntity
  8
0
  6
ByLayer
 62
  256
370
   -1
100
AcDbPolyline
 90
   24
 70
    1
 43
0
 10
177.061508
 20
96.755579
 10
177.240258
 20
96.720128
 10
177.443831
 20
96.61376300000001
 10
177.607681
 20
96.41622599999999
 10
177.677185
 20
96.112314
 10
177.672235
 20
96.056561
 10
177.667284
 20
96.000809
 10
177.200556
 20
93.199808
 10
175.850024
 20
93.199808
 10
175.864875
 20
93.29606200000001
 10
175.894677
 20
93.45814900000001
 10
175.94933
 20
93.756991
 10
176.013883
 20
94.147006
 10
176.083388
 20
94.58260300000001
 10
176.157842
 20
95.01313
 10
176.217446
 20
95.377814
 10
176.262099
 20
95.636134
 10
176.27695
 20
95.742509
 10
176.242198
 20
95.78806
 10
176.182595
 20
95.808361
 10
175.139901
 20
95.808361
 10
174.702965
 20
93.199839
 10
173.352432
 20
93.199839
 10
173.943368
 20
96.755579
  0
LWPOLYLINE
  5
DE
100
AcDbEntity
  8
0
  6
ByLayer
 62
  256
370
   -1
100
AcDbPolyline
 90
   29
 70
    1
 43
0
 10
178.392188
 20
93.199889
 10
178.213438
 20
93.23029099999999
 10
178.009865
 20
93.33665499999999
 10
177.846015
 20
93.534193
 10
177.776511
 20
93.843165
 10
177.776511
 20
93.898917
 10
177.786412
 20
93.95466999999999
 10
178.163765
 20
96.22382899999999
 10
178.25812
 20
96.47708900000001
 10
178.417
 20
96.63916500000001
 10
178.600711
 20
96.725319
 10
178.769532
 20
96.75572
 10
181.644377
 20
96.75572
 10
181.490457
 20
95.808553
 10
179.529208
 20
95.808553
 10
179.464654
 20
95.788252
 10
179.434852
 20
95.74775099999999
 10
179.414951
 20
95.641386
 10
179.38515
 20
95.453979
 10
179.340497
 20
95.205789
 10
179.295844
 20
94.93733899999999
 10
179.251191
 20
94.66381800000001
 10
179.211488
 20
94.435889
 10
179.186637
 20
94.278873
 10
179.176736
 20
94.21302
 10
179.211488
 20
94.162318
 10
179.271091
 20
94.14716799999999
 10
181.21248
 20
94.14716799999999
 10
181.053531
 20
93.199889
  0
LWPOLYLINE
  5
DF
100
AcDbEntity
  8
0
  6
ByLayer
 62
  256
370
   -1
100
AcDbPolyline
 90
   12
 70
    1
 43
0
 10
182.498389
 20
96.755579
 10
184.400065
 20
96.755579
 10
184.573845
 20
96.725178
 10
184.767487
 20
96.628924
 10
184.931337
 20
96.45164699999999
 10
185.015792
 20
96.183196
 10
185.31371
 20
93.199859
 10
184.022751
 20
93.199859
 10
183.973148
 20
93.711439
 10
182.985067
 20
93.711439
 10
182.846049
 20
93.199859
 10
181.550041
 20
93.199889
  0
LWPOLYLINE
  5
E0
100
AcDbEntity
  8
0
  6
ByLayer
 62
  256
370
   -1
100
AcDbPolyline
 90
    6
 70
    1
 43
0
 10
183.769476
 20
95.747629
 10
183.739674
 20
95.78813100000001
 10
183.675121
 20
95.808432
 10
183.546023
 20
95.808432
 10
183.238184
 20
94.65865700000001
 10
183.878713
 20
94.658637
  0
LWPOLYLINE
  5
E1
100
AcDbEntity
  8
0
  6
ByLayer
 62
  256
370
   -1
100
AcDbPolyline
 90
   24
 70
    1
 43
0
 10
189.320574
 20
96.755579
 10
189.499315
 20
96.720128
 10
189.702888
 20
96.61376300000001
 10
189.866738
 20
96.41622599999999
 10
189.936242
 20
96.112314
 10
189.931291
 20
96.056561
 10
189.926341
 20
96.000809
 10
189.459613
 20
93.199808
 10
188.10908
 20
93.199808
 10
188.124031
 20
93.29606200000001
 10
188.153832
 20
93.45814900000001
 10
188.208485
 20
93.756991
 10
188.273039
 20
94.147006
 10
188.342543
 20
94.58260300000001
 10
188.416998
 20
95.01313
 10
188.476602
 20
95.377814
 10
188.521255
 20
95.636134
 10
188.536106
 20
95.742509
 10
188.501354
 20
95.78806
 10
188.441751
 20
95.808361
 10
187.399057
 20
95.808361
 10
186.96212
 20
93.199839
 10
185.611588
 20
93.199839
 10
186.202424
 20
96.755579
  0
LWPOLYLINE
  5
E2
100
AcDbEntity
  8
0
  6
ByLayer
 62
  256
370
   -1
100
AcDbPolyline
 90
   12
 70
    1
 43
0
 10
190.983915
 20
96.755579
 10
192.885581
 20
96.755579
 10
193.059362
 20
96.725178
 10
193.253004
 20
96.628924
 10
193.416854
 20
96.45164699999999
 10
193.501308
 20
96.183196
 10
193.799217
 20
93.199859
 10
192.508268
 20
93.199859
 10
192.458565
 20
93.711439
 10
191.470495
 20
93.711439
 10
191.331467
 20
93.199859
 10
190.035558
 20
93.199889
  0
LWPOLYLINE
  5
E3
100
AcDbEntity
  8
0
  6
ByLayer
 62
  256
370
   -1
100
AcDbPolyline
 90
    6
 70
    1
 43
0
 10
192.255003
 20
95.747629
 10
192.225201
 20
95.78813100000001
 10
192.160647
 20
95.808432
 10
192.03155
 20
95.808432
 10
191.723711
 20
94.65865700000001
 10
192.36424
 20
94.658637
  0
LWPOLYLINE
  5
E4
100
AcDbEntity
  8
0
  6
ByLayer
 62
  256
370
   -1
100
AcDbPolyline
 90
    9
 70
    1
 43
0
 10
155.043351
 20
86.868531
 10
155.634207
 20
90.42422000000001
 10
157.044323
 20
90.42422000000001
 10
156.885444
 20
89.477053
 10
156.398854
 20
89.477053
 10
156.339251
 20
89.46180200000001
 10
156.304498
 20
89.400999
 10
156.870533
 20
89.400999
 10
156.448507
 20
86.868531
  0
LWPOLYLINE
  5
E5
100
AcDbEntity
  8
0
  6
ByLayer
 62
  256
370
   -1
100
AcDbPolyline
 90
   24
 70
    1
 43
0
 10
160.902288
 20
90.42422000000001
 10
161.081029
 20
90.388769
 10
161.284602
 20
90.28239499999999
 10
161.448452
 20
90.084857
 10
161.517956
 20
89.78095500000001
 10
161.513005
 20
89.725202
 10
161.508055
 20
89.66945
 10
161.041327
 20
86.86846
 10
159.690794
 20
86.86846
 10
159.705745
 20
86.964714
 10
159.735546
 20
87.1268
 10
159.790199
 20
87.425642
 10
159.854753
 20
87.815647
 10
159.924258
 20
88.251244
 10
159.998712
 20
88.681781
 10
160.058316
 20
89.046466
 10
160.102969
 20
89.30478599999999
 10
160.11782
 20
89.41115000000001
 10
160.083068
 20
89.456701
 10
160.023465
 20
89.477003
 10
158.980771
 20
89.477003
 10
158.543834
 20
86.86848000000001
 10
157.193302
 20
86.86848000000001
 10
157.784148
 20
90.42422000000001
  0
LWPOLYLINE
  5
E6
100
AcDbEntity
  8
0
  6
ByLayer
 62
  256
370
   -1
100
AcDbPolyline
 90
    8
 70
    1
 43
0
 10
161.875468
 20
90.42422000000001
 10
165.475237
 20
90.42422000000001
 10
165.316347
 20
89.477053
 10
164.20911
 20
89.477053
 10
163.777133
 20
86.868531
 10
162.426601
 20
86.868531
 10
162.863538
 20
89.477053
 10
161.716578
 20
89.477053
  0
LWPOLYLINE
  5
E7
100
AcDbEntity
  8
0
  6
ByLayer
 62
  256
370
   -1
100
AcDbPolyline
 90
   31
 70
    1
 43
0
 10
166.820838
 20
88.150031
 10
166.805888
 20
88.069028
 10
166.795987
 20
87.998126
 10
166.786086
 20
87.942373
 10
166.781136
 20
87.90692199999999
 10
166.776185
 20
87.88157099999999
 10
166.810937
 20
87.830868
 10
166.870541
 20
87.815617
 10
168.697732
 20
87.815617
 10
168.538843
 20
86.86845
 10
165.991697
 20
86.86845
 10
165.812956
 20
86.89885099999999
 10
165.609384
 20
87.00521500000001
 10
165.445524
 20
87.202753
 10
165.37602
 20
87.511725
 10
165.37602
 20
87.56747799999999
 10
165.385921
 20
87.62323000000001
 10
165.763274
 20
89.89238899999999
 10
165.857629
 20
90.145639
 10
166.016519
 20
90.307726
 10
166.20023
 20
90.39388
 10
166.36904
 20
90.42428099999999
 10
169.134659
 20
90.42428099999999
 10
168.975769
 20
89.477114
 10
167.128717
 20
89.477114
 10
167.064163
 20
89.456812
 10
167.034361
 20
89.41631099999999
 10
166.994659
 20
89.178252
 10
168.593446
 20
89.178252
 10
168.424636
 20
88.23107400000001
 10
166.83569
 20
88.23103399999999
  0
LWPOLYLINE
  5
E8
100
AcDbEntity
  8
0
  6
ByLayer
 62
  256
370
   -1
100
AcDbPolyline
 90
   26
 70
    1
 43
0
 10
170.62414
 20
87.815698
 10
171.60228
 20
87.815698
 10
171.686735
 20
88.23103399999999
 10
171.105809
 20
88.23103399999999
 10
171.27463
 20
89.178211
 10
173.191196
 20
89.178211
 10
172.883348
 20
87.400361
 10
172.788992
 20
87.147111
 10
172.630102
 20
86.98502499999999
 10
172.446391
 20
86.893821
 10
172.277581
 20
86.86847
 10
169.849593
 20
86.86847
 10
169.670852
 20
86.898871
 10
169.46728
 20
87.005235
 10
169.30343
 20
87.20277299999999
 10
169.233925
 20
87.511745
 10
169.233925
 20
87.567498
 10
169.243826
 20
87.62325
 10
169.621179
 20
89.89241
 10
169.715535
 20
90.14565899999999
 10
169.874424
 20
90.30774599999999
 10
170.058136
 20
90.3939
 10
170.226956
 20
90.424301
 10
173.389779
 20
90.424301
 10
173.230889
 20
89.47713400000001
 10
170.902187
 20
89.477053
  0
LWPOLYLINE
  5
E9
100
AcDbEntity
  8
0
  6
ByLayer
 62
  256
370
   -1
100
AcDbPolyline
 90
   19
 70
    1
 43
0
 10
174.079911
 20
90.42422000000001
 10
176.969657
 20
90.42422000000001
 10
177.148398
 20
90.388769
 10
177.35197
 20
90.28239499999999
 10
177.51583
 20
90.084857
 10
177.585334
 20
89.78095500000001
 10
177.585334
 20
89.725202
 10
177.575434
 20
89.66945
 10
177.35697
 20
88.36265899999999
 10
177.277565
 20
88.12966900000001
 10
177.138537
 20
87.97264300000001
 10
176.969726
 20
87.876389
 10
176.810837
 20
87.835888
 10
177.004478
 20
86.86846
 10
175.768143
 20
86.86846
 10
175.574501
 20
87.830828
 10
174.998546
 20
87.830828
 10
174.839656
 20
86.86846
 10
173.489055
 20
86.868531
  0
LWPOLYLINE
  5
EA
100
AcDbEntity
  8
0
  6
ByLayer
 62
  256
370
   -1
100
AcDbPolyline
 90
   14
 70
    1
 43
0
 10
176.061031
 20
88.798367
 10
176.090833
 20
88.83886800000001
 10
176.110734
 20
88.95536300000001
 10
176.140536
 20
89.14784
 10
176.170337
 20
89.330187
 10
176.175288
 20
89.365639
 10
176.180238
 20
89.39604
 10
176.185189
 20
89.40613999999999
 10
176.185189
 20
89.41119
 10
176.150437
 20
89.45674200000001
 10
176.090833
 20
89.47704299999999
 10
175.276544
 20
89.47704299999999
 10
175.157376
 20
88.77805499999999
 10
175.996478
 20
88.778066
  0
LWPOLYLINE
  5
EB
100
AcDbEntity
  8
0
  6
ByLayer
 62
  256
370
   -1
100
AcDbPolyline
 90
   12
 70
    1
 43
0
 10
178.533682
 20
90.42422000000001
 10
180.435358
 20
90.42422000000001
 10
180.609139
 20
90.39381899999999
 10
180.80278
 20
90.29756500000001
 10
180.96663
 20
90.120288
 10
181.051085
 20
89.851837
 10
181.349003
 20
86.8685
 10
180.058045
 20
86.8685
 10
180.008441
 20
87.38007
 10
179.020361
 20
87.38007
 10
178.881342
 20
86.8685
 10
177.585334
 20
86.868531
  0
LWPOLYLINE
  5
EC
100
AcDbEntity
  8
0
  6
ByLayer
 62
  256
370
   -1
100
AcDbPolyline
 90
    6
 70
    1
 43
0
 10
179.80478
 20
89.41627099999999
 10
179.774978
 20
89.456772
 10
179.710424
 20
89.477073
 10
179.581336
 20
89.477073
 10
179.273487
 20
88.327298
 10
179.914006
 20
88.32727800000001
  0
LWPOLYLINE
  5
ED
100
AcDbEntity
  8
0
  6
ByLayer
 62
  256
370
   -1
100
AcDbPolyline
 90
   17
 70
    1
 43
0
 10
184.283382
 20
89.47202299999999
 10
184.24863
 20
89.477073
 10
183.434331
 20
89.477073
 10
183.156284
 20
87.815718
 10
183.995405
 20
87.815718
 10
184.055008
 20
87.830969
 10
184.08481
 20
87.87652
 10
184.104612
 20
87.977824
 10
184.134413
 20
88.17030200000001
 10
184.179067
 20
88.413422
 10
184.22372
 20
88.686932
 10
184.268373
 20
88.955383
 10
184.308075
 20
89.183312
 10
184.332927
 20
89.345398
 10
184.342827
 20
89.41125099999999
 10
184.317976
 20
89.451752
 10
184.318135
 20
89.451722
  0
LWPOLYLINE
  5
EE
100
AcDbEntity
  8
0
  6
ByLayer
 62
  256
370
   -1
100
AcDbPolyline
 90
   15
 70
    1
 43
0
 10
185.743151
 20
89.725202
 10
185.73325
 20
89.66945
 10
185.355897
 20
87.400291
 10
185.261542
 20
87.147041
 10
185.102662
 20
86.984954
 10
184.918951
 20
86.89375
 10
184.750131
 20
86.868399
 10
181.646862
 20
86.868399
 10
182.237728
 20
90.424089
 10
185.127464
 20
90.424089
 10
185.306215
 20
90.388638
 10
185.509787
 20
90.282263
 10
185.673637
 20
90.084726
 10
185.743141
 20
89.780824
 10
185.743151
 20
89.78095500000001
  0
LWPOLYLINE
  5
EF
100
AcDbEntity
  8
0
  6
ByLayer
 62
  256
370
   -1
100
AcDbPolyline
 90
   30
 70
    1
 43
0
 10
187.540511
 20
89.309906
 10
187.510709
 20
89.122489
 10
187.471007
 20
88.874309
 10
187.426354
 20
88.605859
 10
187.381701
 20
88.33233799999999
 10
187.346949
 20
88.104409
 10
187.322097
 20
87.94739300000001
 10
187.312196
 20
87.88154
 10
187.312196
 20
87.861239
 10
187.337048
 20
87.84093799999999
 10
187.3718
 20
87.820637
 10
187.401602
 20
87.81558699999999
 10
188.434364
 20
87.81558699999999
 10
188.498918
 20
87.830838
 10
188.52872
 20
87.876389
 10
188.54367
 20
87.977693
 10
188.578423
 20
88.170171
 10
188.618125
 20
88.41329
 10
188.662778
 20
88.686801
 10
188.707431
 20
88.955252
 10
188.747134
 20
89.183181
 10
188.771985
 20
89.34526700000001
 10
188.781886
 20
89.41112
 10
188.757035
 20
89.451621
 10
188.722283
 20
89.47192200000001
 10
188.68753
 20
89.476972
 10
187.654768
 20
89.476972
 10
187.590214
 20
89.456671
 10
187.560412
 20
89.41616999999999
 10
187.560412
 20
89.41627099999999
  0
LWPOLYLINE
  5
F0
100
AcDbEntity
  8
0
  6
ByLayer
 62
  256
370
   -1
100
AcDbPolyline
 90
   24
 70
    1
 43
0
 10
189.710333
 20
90.388769
 10
189.913915
 20
90.28239499999999
 10
190.077765
 20
90.084857
 10
190.14727
 20
89.78095500000001
 10
190.14727
 20
89.725202
 10
190.142319
 20
89.66945
 10
189.759996
 20
87.400291
 10
189.66564
 20
87.147041
 10
189.506751
 20
86.984954
 10
189.32304
 20
86.89375
 10
189.154229
 20
86.868399
 10
186.557431
 20
86.868399
 10
186.37868
 20
86.89880100000001
 10
186.175108
 20
87.00516500000001
 10
186.011258
 20
87.202702
 10
185.941753
 20
87.511675
 10
185.941753
 20
87.567427
 10
185.951654
 20
87.62318
 10
186.329007
 20
89.89233900000001
 10
186.423363
 20
90.145589
 10
186.582243
 20
90.307675
 10
186.765954
 20
90.393829
 10
186.934774
 20
90.42422999999999
 10
189.531592
 20
90.42422000000001
  0
LWPOLYLINE
  5
F1
100
AcDbEntity
  8
0
  6
ByLayer
 62
  256
370
   -1
100
AcDbPolyline
 90
   19
 70
    1
 43
0
 10
190.842402
 20
90.42422000000001
 10
193.732148
 20
90.42422000000001
 10
193.910889
 20
90.388769
 10
194.114461
 20
90.28239499999999
 10
194.278311
 20
90.084857
 10
194.347816
 20
89.78095500000001
 10
194.347816
 20
89.725202
 10
194.337915
 20
89.66945
 10
194.119451
 20
88.36265899999999
 10
194.040046
 20
88.12966900000001
 10
193.901018
 20
87.97264300000001
 10
193.732207
 20
87.876389
 10
193.573318
 20
87.835888
 10
193.766959
 20
86.86846
 10
192.530624
 20
86.86846
 10
192.336982
 20
87.830828
 10
191.761017
 20
87.830828
 10
191.602138
 20
86.86846
 10
190.251546
 20
86.868531
  0
LWPOLYLINE
  5
F2
100
AcDbEntity
  8
0
  6
ByLayer
 62
  256
370
   -1
100
AcDbPolyline
 90
   14
 70
    1
 43
0
 10
192.823523
 20
88.798367
 10
192.853324
 20
88.83886800000001
 10
192.873225
 20
88.95536300000001
 10
192.903027
 20
89.14784
 10
192.932828
 20
89.330187
 10
192.937779
 20
89.365639
 10
192.942729
 20
89.39604
 10
192.94768
 20
89.40613999999999
 10
192.94768
 20
89.41119
 10
192.912928
 20
89.45674200000001
 10
192.853324
 20
89.47704299999999
 10
192.039035
 20
89.47704299999999
 10
191.919867
 20
88.77805499999999
 10
192.758969
 20
88.778066
  0
LWPOLYLINE
  5
F3
100
AcDbEntity
  8
0
  6
ByLayer
 62
  256
370
   -1
100
AcDbPolyline
 90
   12
 70
    1
 43
0
 10
195.296173
 20
90.42422000000001
 10
197.197839
 20
90.42422000000001
 10
197.37163
 20
90.39381899999999
 10
197.565271
 20
90.29756500000001
 10
197.729121
 20
90.120288
 10
197.813576
 20
89.851837
 10
198.111484
 20
86.8685
 10
196.820536
 20
86.8685
 10
196.770833
 20
87.38007
 10
195.782763
 20
87.38007
 10
195.643734
 20
86.8685
 10
194.347825
 20
86.868531
  0
LWPOLYLINE
  5
F4
100
AcDbEntity
  8
0
  6
ByLayer
 62
  256
370
   -1
100
AcDbPolyline
 90
    6
 70
    1
 43
0
 10
196.567261
 20
89.41627099999999
 10
196.537459
 20
89.456772
 10
196.472905
 20
89.477073
 10
196.343807
 20
89.477073
 10
196.035969
 20
88.327298
 10
196.676497
 20
88.32727800000001
  0
LWPOLYLINE
  5
F5
100
AcDbEntity
  8
0
  6
ByLayer
 62
  256
370
   -1
100
AcDbPolyline
 90
   17
 70
    1
 43
0
 10
159.157007
 20
83.140664
 10
159.122255
 20
83.145714
 10
158.307965
 20
83.145714
 10
158.029908
 20
81.484369
 10
158.86903
 20
81.484369
 10
158.928633
 20
81.49951900000001
 10
158.958435
 20
81.54507099999999
 10
158.978335
 20
81.64637500000001
 10
159.008137
 20
81.838842
 10
159.05279
 20
82.08197199999999
 10
159.097443
 20
82.35548300000001
 10
159.142096
 20
82.62393299999999
 10
159.181799
 20
82.851862
 10
159.20665
 20
83.013949
 10
159.216551
 20
83.079801
 10
159.1917
 20
83.12030300000001
 10
159.191759
 20
83.120363
  0
LWPOLYLINE
  5
F6
100
AcDbEntity
  8
0
  6
ByLayer
 62
  256
370
   -1
100
AcDbPolyline
 90
   15
 70
    1
 43
0
 10
160.616766
 20
83.393844
 10
160.606865
 20
83.33809100000001
 10
160.229512
 20
81.068932
 10
160.135157
 20
80.81567200000001
 10
159.976267
 20
80.65359599999999
 10
159.792556
 20
80.562392
 10
159.623736
 20
80.53704
 10
156.520496
 20
80.53704
 10
157.111352
 20
84.09273
 10
160.001089
 20
84.09273
 10
160.179839
 20
84.05727899999999
 10
160.383412
 20
83.95091499999999
 10
160.547262
 20
83.753377
 10
160.616766
 20
83.44947500000001
 10
160.616766
 20
83.449596
  0
LWPOLYLINE
  5
F7
100
AcDbEntity
  8
0
  6
ByLayer
 62
  256
370
   -1
100
AcDbPolyline
 90
   30
 70
    1
 43
0
 10
162.414126
 20
82.978538
 10
162.384324
 20
82.79113
 10
162.344622
 20
82.54294
 10
162.299969
 20
82.27449
 10
162.255316
 20
82.000979
 10
162.220563
 20
81.77305
 10
162.195712
 20
81.616034
 10
162.185811
 20
81.55018099999999
 10
162.185811
 20
81.52988000000001
 10
162.210662
 20
81.509579
 10
162.245415
 20
81.489379
 10
162.275216
 20
81.484329
 10
163.307979
 20
81.484329
 10
163.372533
 20
81.49947899999999
 10
163.402335
 20
81.54503
 10
163.417285
 20
81.646334
 10
163.452037
 20
81.838802
 10
163.49174
 20
82.08193199999999
 10
163.536393
 20
82.355442
 10
163.581046
 20
82.623893
 10
163.620749
 20
82.851822
 10
163.6456
 20
83.013908
 10
163.655501
 20
83.079761
 10
163.63065
 20
83.120262
 10
163.595897
 20
83.140563
 10
163.561145
 20
83.145613
 10
162.528382
 20
83.145613
 10
162.463828
 20
83.12531199999999
 10
162.434027
 20
83.084811
 10
162.434027
 20
83.084912
  0
LWPOLYLINE
  5
F8
100
AcDbEntity
  8
0
  6
ByLayer
 62
  256
370
   -1
100
AcDbPolyline
 90
   24
 70
    1
 43
0
 10
164.583958
 20
84.05741
 10
164.78753
 20
83.95104600000001
 10
164.95138
 20
83.753508
 10
165.020884
 20
83.449606
 10
165.020884
 20
83.393854
 10
165.015934
 20
83.33810099999999
 10
164.633621
 20
81.06894200000001
 10
164.539265
 20
80.815682
 10
164.380385
 20
80.653606
 10
164.196674
 20
80.56240200000001
 10
164.027854
 20
80.53705100000001
 10
161.431056
 20
80.53705100000001
 10
161.252315
 20
80.567452
 10
161.048742
 20
80.673816
 10
160.884882
 20
80.871354
 10
160.815378
 20
81.18032599999999
 10
160.815378
 20
81.23607800000001
 10
160.825279
 20
81.291831
 10
161.202632
 20
83.56100000000001
 10
161.296988
 20
83.81425
 10
161.455877
 20
83.976337
 10
161.639588
 20
84.06249
 10
161.808399
 20
84.09289200000001
 10
164.405207
 20
84.092861
  0
LWPOLYLINE
  5
F9
100
AcDbEntity
  8
0
  6
ByLayer
 62
  256
370
   -1
100
AcDbPolyline
 90
    9
 70
    1
 43
0
 10
166.167854
 20
80.537172
 10
166.75871
 20
84.092861
 10
168.168826
 20
84.092861
 10
168.009946
 20
83.145684
 10
167.523357
 20
83.145684
 10
167.463753
 20
83.130534
 10
167.429001
 20
83.069731
 10
167.995036
 20
83.069731
 10
167.57301
 20
80.537172
  0
LWPOLYLINE
  5
FA
100
AcDbEntity
  8
0
  6
ByLayer
 62
  256
370
   -1
100
AcDbPolyline
 90
   17
 70
    1
 43
0
 10
169.554111
 20
83.130534
 10
169.524309
 20
83.069731
 10
170.090343
 20
83.069731
 10
169.986077
 20
82.446727
 10
171.569973
 20
82.446727
 10
171.396183
 20
81.49955
 10
169.827187
 20
81.49955
 10
169.668298
 20
80.537192
 10
168.317765
 20
80.537192
 10
168.824216
 20
83.56105100000001
 10
168.918572
 20
83.814301
 10
169.077461
 20
83.976387
 10
169.261173
 20
84.062541
 10
169.429993
 20
84.09294199999999
 10
172.076434
 20
84.09294199999999
 10
171.917554
 20
83.145765
 10
169.618664
 20
83.145684
  0
LWPOLYLINE
  5
FB
100
AcDbEntity
  8
0
  6
ByLayer
 62
  256
370
   -1
100
AcDbPolyline
 90
   30
 70
    1
 43
0
 10
172.17574
 20
81.23618999999999
 10
172.185641
 20
81.29194200000001
 10
172.563004
 20
83.561111
 10
172.657359
 20
83.81436100000001
 10
172.816249
 20
83.976448
 10
172.99996
 20
84.062602
 10
173.168771
 20
84.093003
 10
176.331603
 20
84.093003
 10
176.172714
 20
83.145826
 10
173.357452
 20
83.145826
 10
173.292898
 20
83.130675
 10
173.263097
 20
83.069873
 10
173.834091
 20
83.069873
 10
173.565965
 20
81.48450099999999
 10
174.544115
 20
81.48450099999999
 10
174.628569
 20
81.89983700000001
 10
174.047644
 20
81.89983700000001
 10
174.216454
 20
82.847014
 10
176.133021
 20
82.847014
 10
175.825182
 20
81.069164
 10
175.730827
 20
80.815904
 10
175.571937
 20
80.653828
 10
175.388226
 20
80.562624
 10
175.219405
 20
80.537273
 10
172.791428
 20
80.537273
 10
172.612677
 20
80.567674
 10
172.409104
 20
80.674038
 10
172.245254
 20
80.871576
 10
172.17575
 20
81.180548
 10
172.17574
 20
81.180437
  0
LWPOLYLINE
  5
FC
100
AcDbEntity
  8
0
  6
ByLayer
 62
  256
370
   -1
100
AcDbPolyline
 90
    4
 70
    1
 43
0
 10
179.777463
 20
81.843963
 10
177.42396
 20
81.843963
 10
177.582839
 20
82.78607
 10
179.936343
 20
82.78607
  0
LWPOLYLINE
  5
FD
100
AcDbEntity
  8
0
  6
ByLayer
 62
  256
370
   -1
100
AcDbPolyline
 90
   37
 70
    1
 43
0
 10
181.326607
 20
82.315012
 10
181.420963
 20
82.56827199999999
 10
181.579853
 20
82.73034800000001
 10
181.763564
 20
82.816502
 10
181.932384
 20
82.846903
 10
183.263055
 20
82.846903
 10
183.322658
 20
82.862053
 10
183.35246
 20
82.907605
 10
183.362361
 20
82.95315600000001
 10
183.372262
 20
83.00385900000001
 10
183.382163
 20
83.04940999999999
 10
183.382163
 20
83.07981100000001
 10
183.377212
 20
83.10011299999999
 10
183.357312
 20
83.120414
 10
183.322559
 20
83.140715
 10
183.287807
 20
83.145765
 10
181.465586
 20
83.145765
 10
181.619506
 20
84.09294199999999
 10
184.166651
 20
84.09294199999999
 10
184.345392
 20
84.057491
 10
184.548964
 20
83.951127
 10
184.717784
 20
83.75358900000001
 10
184.787289
 20
83.449687
 10
184.782338
 20
83.393935
 10
184.777388
 20
83.338182
 10
184.623468
 20
82.43152600000001
 10
184.529113
 20
82.178276
 10
184.370223
 20
82.01618999999999
 10
184.186512
 20
81.924986
 10
184.017692
 20
81.899635
 10
182.687021
 20
81.899635
 10
182.622467
 20
81.879334
 10
182.597616
 20
81.838832
 10
182.538012
 20
81.484278
 10
184.464509
 20
81.484278
 10
184.31059
 20
80.537111
 10
181.028699
 20
80.537172
  0
LWPOLYLINE
  5
FE
100
AcDbEntity
  8
0
  6
ByLayer
 62
  256
370
   -1
100
AcDbPolyline
 90
   24
 70
    1
 43
0
 10
185.323591
 20
80.567573
 10
185.120018
 20
80.673937
 10
184.956168
 20
80.871475
 10
184.886664
 20
81.180447
 10
184.886664
 20
81.2362
 10
184.896565
 20
81.29195199999999
 10
185.273918
 20
83.561121
 10
185.368274
 20
83.81437099999999
 10
185.527163
 20
83.97645799999999
 10
185.710874
 20
84.062612
 10
185.879695
 20
84.093013
 10
188.253059
 20
84.093013
 10
188.4318
 20
84.057562
 10
188.635373
 20
83.95119699999999
 10
188.799223
 20
83.75366
 10
188.868727
 20
83.449758
 10
188.863776
 20
83.39400500000001
 10
188.858826
 20
83.33825299999999
 10
188.481473
 20
81.069093
 10
188.382167
 20
80.815833
 10
188.223287
 20
80.653757
 10
188.039576
 20
80.56255299999999
 10
187.870756
 20
80.53720199999999
 10
185.502342
 20
80.537172
  0
LWPOLYLINE
  5
FF
100
AcDbEntity
  8
0
  6
ByLayer
 62
  256
370
   -1
100
AcDbPolyline
 90
    5
 70
    1
 43
0
 10
187.160713
 20
81.48433900000001
 10
187.220316
 20
81.499489
 10
187.250118
 20
81.545041
 10
187.468581
 20
82.578321
 10
186.46558
 20
81.48433900000001
  0
LWPOLYLINE
  5
100
100
AcDbEntity
  8
0
  6
ByLayer
 62
  256
370
   -1
100
AcDbPolyline
 90
    5
 70
    1
 43
0
 10
186.594678
 20
83.145684
 10
186.535075
 20
83.125383
 10
186.505273
 20
83.08488199999999
 10
186.28681
 20
81.990819
 10
187.349394
 20
83.145684
  0
LWPOLYLINE
  5
101
100
AcDbEntity
  8
0
  6
ByLayer
 62
  256
370
   -1
100
AcDbPolyline
 90
   37
 70
    1
 43
0
 10
189.265961
 20
82.315012
 10
189.360316
 20
82.56827199999999
 10
189.519196
 20
82.73034800000001
 10
189.702917
 20
82.816502
 10
189.871728
 20
82.846903
 10
191.202399
 20
82.846903
 10
191.262002
 20
82.862053
 10
191.291804
 20
82.907605
 10
191.301705
 20
82.95315600000001
 10
191.311606
 20
83.00385900000001
 10
191.321506
 20
83.04940999999999
 10
191.321506
 20
83.07981100000001
 10
191.316556
 20
83.10011299999999
 10
191.296754
 20
83.120414
 10
191.262002
 20
83.140715
 10
191.22725
 20
83.145765
 10
189.405019
 20
83.145765
 10
189.558938
 20
84.09294199999999
 10
192.106084
 20
84.09294199999999
 10
192.284834
 20
84.057491
 10
192.488407
 20
83.951127
 10
192.657227
 20
83.75358900000001
 10
192.726731
 20
83.449687
 10
192.721781
 20
83.393935
 10
192.71683
 20
83.338182
 10
192.562911
 20
82.43152600000001
 10
192.468555
 20
82.178276
 10
192.309666
 20
82.01618999999999
 10
192.125955
 20
81.924986
 10
191.957144
 20
81.899635
 10
190.626473
 20
81.899635
 10
190.561919
 20
81.879334
 10
190.537068
 20
81.838832
 10
190.477465
 20
81.484278
 10
192.403962
 20
81.484278
 10
192.250033
 20
80.537111
 10
188.968043
 20
80.537172
  0
LWPOLYLINE
  5
102
100
AcDbEntity
  8
0
  6
ByLayer
 62
  256
370
   -1
100
AcDbPolyline
 90
   30
 70
    1
 43
0
 10
193.262934
 20
80.567573
 10
193.059362
 20
80.673937
 10
192.895512
 20
80.871475
 10
192.826008
 20
81.180447
 10
192.826008
 20
81.2362
 10
192.835909
 20
81.29195199999999
 10
193.213271
 20
83.561121
 10
193.307627
 20
83.81437099999999
 10
193.466507
 20
83.97645799999999
 10
193.650228
 20
84.062612
 10
193.819038
 20
84.093013
 10
196.584657
 20
84.093013
 10
196.425767
 20
83.145836
 10
194.578714
 20
83.145836
 10
194.514161
 20
83.125534
 10
194.484359
 20
83.085033
 10
194.444656
 20
82.846974
 10
195.735605
 20
82.846974
 10
195.914356
 20
82.811522
 10
196.117928
 20
82.705158
 10
196.281778
 20
82.50762
 10
196.351282
 20
82.20370800000001
 10
196.351282
 20
82.142906
 10
196.341382
 20
82.092203
 10
196.172561
 20
81.069053
 10
196.078206
 20
80.815793
 10
195.919316
 20
80.653717
 10
195.735605
 20
80.562513
 10
195.566785
 20
80.537162
 10
193.441685
 20
80.537172
  0
LWPOLYLINE
  5
103
100
AcDbEntity
  8
0
  6
ByLayer
 62
  256
370
   -1
100
AcDbPolyline
 90
   10
 70
    1
 43
0
 10
194.216262
 20
81.48433900000001
 10
194.812089
 20
81.48433900000001
 10
194.871692
 20
81.499489
 10
194.901494
 20
81.545041
 10
194.946147
 20
81.78816
 10
194.951097
 20
81.83371099999999
 10
194.946147
 20
81.85401299999999
 10
194.926246
 20
81.874314
 10
194.856742
 20
81.899665
 10
194.285767
 20
81.899675
  0
LWPOLYLINE
  5
104
100
AcDbEntity
  8
0
  6
ByLayer
 62
  256
370
   -1
100
AcDbPolyline
 90
    4
 70
    1
 43
0
 10
191.28155
 20
148.68079
 10
191.28155
 20
146.68079
 10
161.87321
 20
146.68079
 10
161.87321
 20
148.68079
  0
LWPOLYLINE
  5
105
100
AcDbEntity
  8
0
  6
ByLayer
 62
  256
370
   -1
100
AcDbPolyline
 90
   15
 70
    1
 43
0
 10
155.663583
 20
138.867249
 10
158.57424
 20
138.867249
 10
158.134502
 20
136.239799
 10
160.197097
 20
136.239799
 10
160.636835
 20
138.867249
 10
163.547492
 20
138.867249
 10
162.291097
 20
131.36943
 10
159.390906
 20
131.36943
 10
159.86205
 20
134.242524
 10
156.78387
 20
134.242524
 10
156.647763
 20
134.210507
 10
156.584991
 20
134.082337
 10
157.778574
 20
134.082337
 10
157.32836
 20
131.36946
 10
154.417654
 20
131.36943
  0
LWPOLYLINE
  5
106
100
AcDbEntity
  8
0
  6
ByLayer
 62
  256
370
   -1
100
AcDbPolyline
 90
   30
 70
    1
 43
0
 10
167.128241
 20
136.517501
 10
167.065371
 20
136.122315
 10
166.981609
 20
135.598968
 10
166.887353
 20
135.032887
 10
166.793096
 20
134.456131
 10
166.719829
 20
133.975508
 10
166.667454
 20
133.644407
 10
166.646464
 20
133.50556
 10
166.646464
 20
133.462837
 10
166.698839
 20
133.420114
 10
166.772106
 20
133.37739
 10
166.834977
 20
133.366684
 10
169.012739
 20
133.366684
 10
169.148847
 20
133.398701
 10
169.211619
 20
133.494854
 10
169.243004
 20
133.708471
 10
169.316271
 20
134.114334
 10
169.400033
 20
134.627005
 10
169.494289
 20
135.203761
 10
169.588546
 20
135.769831
 10
169.672307
 20
136.250465
 10
169.724683
 20
136.592242
 10
169.745673
 20
136.731098
 10
169.693297
 20
136.816545
 10
169.620031
 20
136.859268
 10
169.546764
 20
136.869974
 10
167.369002
 20
136.869974
 10
167.232894
 20
136.827251
 10
167.170023
 20
136.741804
 10
167.170122
 20
136.741794
  0
LWPOLYLINE
  5
107
100
AcDbEntity
  8
0
  6
ByLayer
 62
  256
370
   -1
100
AcDbPolyline
 90
   24
 70
    1
 43
0
 10
171.703626
 20
138.792508
 10
172.132899
 20
138.568215
 10
172.478411
 20
138.151667
 10
172.624993
 20
137.510836
 10
172.624993
 20
137.393341
 10
172.614499
 20
137.275857
 10
171.808308
 20
132.490925
 10
171.609379
 20
131.956892
 10
171.274342
 20
131.615115
 10
170.88695
 20
131.422859
 10
170.530973
 20
131.36943
 10
165.055161
 20
131.36943
 10
164.678234
 20
131.433464
 10
164.248971
 20
131.657767
 10
163.903459
 20
132.074306
 10
163.756876
 20
132.725833
 10
163.756876
 20
132.843317
 10
163.777866
 20
132.960801
 10
164.573591
 20
137.745734
 10
164.77252
 20
138.279767
 10
165.107557
 20
138.621544
 10
165.494949
 20
138.803124
 10
165.850926
 20
138.867259
 10
171.326708
 20
138.867249
  0
LWPOLYLINE
  5
108
100
AcDbEntity
  8
0
  6
ByLayer
 62
  256
370
   -1
100
AcDbPolyline
 90
   24
 70
    1
 43
0
 10
180.66595
 20
138.867249
 10
181.042877
 20
138.792508
 10
181.472141
 20
138.568215
 10
181.817652
 20
138.151667
 10
181.964235
 20
137.510836
 10
181.95374
 20
137.393341
 10
181.943245
 20
137.275857
 10
180.959066
 20
131.36946
 10
178.111221
 20
131.36946
 10
178.142607
 20
131.572391
 10
178.205378
 20
131.914169
 10
178.320555
 20
132.544324
 10
178.456663
 20
133.366735
 10
178.603246
 20
134.285278
 10
178.760294
 20
135.193126
 10
178.885936
 20
135.962137
 10
178.980193
 20
136.506846
 10
179.011579
 20
136.731149
 10
178.938312
 20
136.827302
 10
178.81267
 20
136.870025
 10
176.613967
 20
136.870025
 10
175.692609
 20
131.36949
 10
172.844774
 20
131.36949
 10
174.090792
 20
138.867249
  0
LWPOLYLINE
  5
109
100
AcDbEntity
  8
0
  6
ByLayer
 62
  256
370
   -1
100
AcDbPolyline
 90
   19
 70
    1
 43
0
 10
183.419568
 20
138.867249
 10
189.513117
 20
138.867249
 10
189.890034
 20
138.792508
 10
190.319308
 20
138.568215
 10
190.664809
 20
138.151667
 10
190.811392
 20
137.510836
 10
190.811392
 20
137.393341
 10
190.790402
 20
137.275857
 10
190.329723
 20
134.520247
 10
190.1622
 20
134.028938
 10
189.869044
 20
133.697836
 10
189.513067
 20
133.494905
 10
189.178021
 20
133.409458
 10
189.586354
 20
131.36946
 10
186.979328
 20
131.36946
 10
186.570995
 20
133.398782
 10
185.356472
 20
133.398782
 10
185.021435
 20
131.36946
 10
182.173639
 20
131.36943
  0
LWPOLYLINE
  5
10A
100
AcDbEntity
  8
0
  6
ByLayer
 62
  256
370
   -1
100
AcDbPolyline
 90
   14
 70
    1
 43
0
 10
187.597105
 20
135.43876
 10
187.659975
 20
135.524207
 10
187.701856
 20
135.769861
 10
187.764727
 20
136.175734
 10
187.827499
 20
136.560235
 10
187.837994
 20
136.634975
 10
187.848489
 20
136.69901
 10
187.858984
 20
136.720422
 10
187.858984
 20
136.731128
 10
187.785717
 20
136.827281
 10
187.660074
 20
136.870005
 10
185.942991
 20
136.870005
 10
185.691716
 20
135.396077
 10
187.460997
 20
135.396037
  0
LWPOLYLINE
  5
10B
100
AcDbEntity
  8
0
  6
ByLayer
 62
  256
370
   -1
100
AcDbPolyline
 90
   12
 70
    1
 43
0
 10
192.811156
 20
138.867249
 10
196.821169
 20
138.867249
 10
197.187612
 20
138.803113
 10
197.595944
 20
138.600182
 10
197.941456
 20
138.226357
 10
198.119445
 20
137.660277
 10
198.747647
 20
131.369379
 10
196.025444
 20
131.369379
 10
195.920742
 20
132.44812
 10
193.837216
 20
132.44812
 10
193.544051
 20
131.369379
 10
190.811382
 20
131.36943
  0
LWPOLYLINE
  5
10C
100
AcDbEntity
  8
0
  6
ByLayer
 62
  256
370
   -1
100
AcDbPolyline
 90
    6
 70
    1
 43
0
 10
195.491478
 20
136.741794
 10
195.428608
 20
136.827241
 10
195.2925
 20
136.869964
 10
195.020275
 20
136.869964
 10
194.371132
 20
134.445456
 10
195.721813
 20
134.445456
  0
LWPOLYLINE
  5
10D
100
AcDbEntity
  8
0
  6
ByLayer
 62
  256
370
   -1
100
AcDbPolyline
 90
   12
 70
    1
 43
0
 10
169.8609
 20
125.516432
 10
173.870913
 20
125.516432
 10
174.237365
 20
125.452397
 10
174.645698
 20
125.249466
 10
174.9912
 20
124.875641
 10
175.169198
 20
124.309561
 10
175.79739
 20
118.018663
 10
173.075197
 20
118.018663
 10
172.970495
 20
119.097404
 10
170.88696
 20
119.097404
 10
170.593804
 20
118.018663
 10
167.861136
 20
118.018613
  0
LWPOLYLINE
  5
10E
100
AcDbEntity
  8
0
  6
ByLayer
 62
  256
370
   -1
100
AcDbPolyline
 90
    6
 70
    1
 43
0
 10
172.541222
 20
123.390977
 10
172.478351
 20
123.476424
 10
172.342244
 20
123.519147
 10
172.070018
 20
123.519147
 10
171.420886
 20
121.094638
 10
172.771566
 20
121.094638
  0
LWPOLYLINE
  5
10F
100
AcDbEntity
  8
0
  6
ByLayer
 62
  256
370
   -1
100
AcDbPolyline
 90
   30
 70
    1
 43
0
 10
179.796938
 20
123.166684
 10
179.734166
 20
122.771497
 10
179.650405
 20
122.248151
 10
179.556148
 20
121.68207
 10
179.461892
 20
121.105314
 10
179.388625
 20
120.624691
 10
179.336249
 20
120.293589
 10
179.315259
 20
120.154743
 10
179.315259
 20
120.11202
 10
179.367635
 20
120.069296
 10
179.440902
 20
120.026573
 10
179.503673
 20
120.015867
 10
181.681436
 20
120.015867
 10
181.817543
 20
120.047884
 10
181.880414
 20
120.144037
 10
181.9118
 20
120.357654
 10
181.985067
 20
120.763517
 10
182.068828
 20
121.276188
 10
182.163085
 20
121.852944
 10
182.257341
 20
122.419014
 10
182.341103
 20
122.899647
 10
182.393479
 20
123.241425
 10
182.41437
 20
123.380281
 10
182.361994
 20
123.465728
 10
182.288727
 20
123.508451
 10
182.215461
 20
123.519157
 10
180.037708
 20
123.519157
 10
179.901591
 20
123.476434
 10
179.83872
 20
123.390987
 10
179.838819
 20
123.390977
  0
LWPOLYLINE
  5
110
100
AcDbEntity
  8
0
  6
ByLayer
 62
  256
370
   -1
100
AcDbPolyline
 90
   24
 70
    1
 43
0
 10
184.372332
 20
125.441691
 10
184.801605
 20
125.217398
 10
185.147117
 20
124.80085
 10
185.29369
 20
124.160019
 10
185.29369
 20
124.042524
 10
185.283195
 20
123.92504
 10
184.477004
 20
119.140107
 10
184.278076
 20
118.606075
 10
183.943039
 20
118.264297
 10
183.555646
 20
118.072042
 10
183.19966
 20
118.018613
 10
177.723848
 20
118.018613
 10
177.346931
 20
118.082647
 10
176.917667
 20
118.30694
 10
176.572156
 20
118.723478
 10
176.425573
 20
119.375005
 10
176.425573
 20
119.49249
 10
176.446464
 20
119.609974
 10
177.242179
 20
124.394907
 10
177.441118
 20
124.928939
 10
177.776154
 20
125.270727
 10
178.163547
 20
125.452296
 10
178.519524
 20
125.516331
 10
183.995415
 20
125.516432
  0
LWPOLYLINE
  5
111
100
AcDbEntity
  8
0
  6
ByLayer
 62
  256
370
   -1
100
AcDbPolyline
 90
   55
 70
    1
 43
0
 10
152.847154
 20
111.578173
 10
153.18219
 20
111.91996
 10
153.569583
 20
112.10153
 10
153.92556
 20
112.165564
 10
157.066561
 20
112.165564
 10
157.663357
 20
111.99467
 10
158.134502
 20
111.396553
 10
158.427667
 20
111.759692
 10
158.794119
 20
111.99467
 10
159.160562
 20
112.122841
 10
159.464192
 20
112.165564
 10
162.270157
 20
112.165564
 10
162.647074
 20
112.090823
 10
163.076348
 20
111.866531
 10
163.421859
 20
111.449982
 10
163.568432
 20
110.809151
 10
163.568432
 20
110.691657
 10
163.547442
 20
110.574172
 10
162.563263
 20
104.667775
 10
159.663072
 20
104.667775
 10
159.694458
 20
104.870706
 10
159.757328
 20
105.212484
 10
159.872496
 20
105.842639
 10
160.008603
 20
106.66505
 10
160.155186
 20
107.583593
 10
160.312234
 20
108.491451
 10
160.437877
 20
109.260452
 10
160.521638
 20
109.805171
 10
160.553024
 20
110.029464
 10
160.542529
 20
110.072187
 10
160.500648
 20
110.114911
 10
160.427382
 20
110.157634
 10
160.354115
 20
110.16834
 10
159.526984
 20
110.16834
 10
159.33853
 20
110.04017
 10
158.438103
 20
104.667805
 10
155.7159
 20
104.667805
 10
155.747286
 20
104.870737
 10
155.799661
 20
105.212514
 10
155.914839
 20
105.842669
 10
156.050946
 20
106.66508
 10
156.207994
 20
107.583624
 10
156.365042
 20
108.491481
 10
156.490685
 20
109.260483
 10
156.574446
 20
109.805201
 10
156.605832
 20
110.029494
 10
156.532566
 20
110.125647
 10
156.406923
 20
110.16837
 10
154.386219
 20
110.16837
 10
154.250101
 20
110.136353
 10
154.18733
 20
110.008193
 10
155.380913
 20
110.008193
 10
154.49096
 20
104.667866
 10
151.580304
 20
104.667866
 10
152.648225
 20
111.04414
  0
LWPOLYLINE
  5
112
100
AcDbEntity
  8
0
  6
ByLayer
 62
  256
370
   -1
100
AcDbPolyline
 90
   35
 70
    1
 43
0
 10
163.788311
 20
106.141723
 10
163.809301
 20
106.259207
 10
164.605017
 20
111.04414
 10
164.803946
 20
111.578173
 10
165.138992
 20
111.91996
 10
165.526385
 20
112.10153
 10
165.882362
 20
112.165564
 10
168.143886
 20
112.165564
 10
168.499863
 20
113.596769
 10
169.808613
 20
113.596769
 10
169.023363
 20
112.165564
 10
171.71415
 20
112.165564
 10
171.379114
 20
110.168279
 10
167.484268
 20
110.168279
 10
167.285339
 20
110.040109
 10
167.201577
 20
109.538124
 10
170.572923
 20
109.538124
 10
170.216946
 20
107.540839
 10
166.866541
 20
107.540839
 10
166.835155
 20
107.369946
 10
166.803769
 20
107.199052
 10
166.782779
 20
107.04953
 10
166.761789
 20
106.932036
 10
166.751294
 20
106.857295
 10
166.740799
 20
106.803865
 10
166.814066
 20
106.697057
 10
166.939699
 20
106.66504
 10
170.792664
 20
106.66504
 10
170.457627
 20
104.667765
 10
165.086508
 20
104.667765
 10
164.70959
 20
104.7318
 10
164.280317
 20
104.956093
 10
163.934815
 20
105.372631
 10
163.788232
 20
106.024158
 10
163.788311
 20
106.024239
  0
LWPOLYLINE
  5
113
100
AcDbEntity
  8
0
  6
ByLayer
 62
  256
370
   -1
100
AcDbPolyline
 90
   19
 70
    1
 43
0
 10
172.750626
 20
112.165615
 10
178.844174
 20
112.165615
 10
179.221092
 20
112.090874
 10
179.650365
 20
111.866581
 10
179.995867
 20
111.450033
 10
180.14245
 20
110.809202
 10
180.14245
 20
110.691707
 10
180.121559
 20
110.574223
 10
179.66088
 20
107.818612
 10
179.493357
 20
107.327303
 10
179.200201
 20
106.996202
 10
178.844224
 20
106.79327
 10
178.509178
 20
106.707824
 10
178.91751
 20
104.667826
 10
176.310475
 20
104.667826
 10
175.902152
 20
106.697148
 10
174.687628
 20
106.697148
 10
174.352592
 20
104.667826
 10
171.504697
 20
104.667795
  0
LWPOLYLINE
  5
114
100
AcDbEntity
  8
0
  6
ByLayer
 62
  256
370
   -1
100
AcDbPolyline
 90
   14
 70
    1
 43
0
 10
176.928162
 20
108.737126
 10
176.990934
 20
108.822572
 10
177.032815
 20
109.068227
 10
177.095586
 20
109.4741
 10
177.158457
 20
109.8586
 10
177.168952
 20
109.933341
 10
177.179447
 20
109.997376
 10
177.189942
 20
110.018788
 10
177.189942
 20
110.029494
 10
177.116675
 20
110.125647
 10
176.991043
 20
110.16837
 10
175.273959
 20
110.16837
 10
175.022675
 20
108.694443
 10
176.792045
 20
108.694402
  0
LWPOLYLINE
  5
115
100
AcDbEntity
  8
0
  6
ByLayer
 62
  256
370
   -1
100
AcDbPolyline
 90
    4
 70
    1
 43
0
 10
183.419549
 20
104.667795
 10
180.456546
 20
104.667795
 10
181.702475
 20
112.165615
 10
184.675953
 20
112.165615
  0
LWPOLYLINE
  5
116
100
AcDbEntity
  8
0
  6
ByLayer
 62
  256
370
   -1
100
AcDbPolyline
 90
    8
 70
    1
 43
0
 10
185.325106
 20
112.165615
 10
192.915858
 20
112.165615
 10
192.580812
 20
110.16833
 10
190.246001
 20
110.16833
 10
189.335119
 20
104.667795
 10
186.487273
 20
104.667795
 10
187.408631
 20
110.16833
 10
184.990069
 20
110.16833
  0
LWPOLYLINE
  5
117
100
AcDbEntity
  8
0
  6
ByLayer
 62
  256
370
   -1
100
AcDbPolyline
 90
   30
 70
    1
 43
0
 10
196.07779
 20
109.815867
 10
196.015018
 20
109.42068
 10
195.931257
 20
108.897333
 10
195.837
 20
108.331253
 10
195.742743
 20
107.754497
 10
195.669477
 20
107.273874
 10
195.617101
 20
106.942772
 10
195.596111
 20
106.803926
 10
195.596111
 20
106.761203
 10
195.648487
 20
106.718479
 10
195.721754
 20
106.675756
 10
195.784624
 20
106.66505
 10
197.962387
 20
106.66505
 10
198.098494
 20
106.697067
 10
198.161266
 20
106.79322
 10
198.192652
 20
107.006837
 10
198.265919
 20
107.4127
 10
198.34968
 20
107.92537
 10
198.443937
 20
108.502127
 10
198.538193
 20
109.068197
 10
198.621955
 20
109.54883
 10
198.674331
 20
109.890608
 10
198.695222
 20
110.029464
 10
198.642846
 20
110.114911
 10
198.569579
 20
110.157634
 10
198.496312
 20
110.16834
 10
196.31855
 20
110.16834
 10
196.182442
 20
110.125617
 10
196.119671
 20
110.04017
 10
196.119671
 20
110.04016
  0
LWPOLYLINE
  5
118
100
AcDbEntity
  8
0
  6
ByLayer
 62
  256
370
   -1
100
AcDbPolyline
 90
   24
 70
    1
 43
0
 10
200.653184
 20
112.090874
 10
201.082457
 20
111.866581
 10
201.427959
 20
111.450033
 10
201.574542
 20
110.809202
 10
201.574542
 20
110.691707
 10
201.564047
 20
110.574223
 10
200.757856
 20
105.78929
 10
200.558927
 20
105.255258
 10
200.223881
 20
104.91348
 10
199.836488
 20
104.721225
 10
199.480511
 20
104.667795
 10
194.0047
 20
104.667795
 10
193.627783
 20
104.73183
 10
193.198509
 20
104.956123
 10
192.852997
 20
105.372661
 10
192.706425
 20
106.024188
 10
192.706425
 20
106.141673
 10
192.727414
 20
106.259157
 10
193.52313
 20
111.044089
 10
193.722059
 20
111.578122
 10
194.057105
 20
111.91991
 10
194.444488
 20
112.101479
 10
194.800475
 20
112.165514
 10
200.276267
 20
112.165615
  0
LWPOLYLINE
  5
119
100
AcDbEntity
  8
0
  6
ByLayer
 62
  256
370
   -1
100
AcDbPolyline
 90
   12
 70
    0
 43
0
 10
151.57737
 20
79.94823
 10
151.57738
 20
149.94823
 10
201.57738
 20
149.94823
 10
201.57738
 20
79.94823
 10
151.57737
 20
79.94823
 10
101.57737
 20
79.94823
 10
51.577375
 20
79.94823
 10
1.577375
 20
79.94823
 10
1.577375
 20
149.94823
 10
51.577374
 20
149.94823
 10
101.57737
 20
149.94823
 10
151.57738
 20
149.94823
  0
LWPOLYLINE
  5
11A
100
AcDbEntity
  8
0
  6
ByLayer
 62
  256
370
   -1
100
AcDbPolyline
 90
    2
 70
    0
 43
0
 10
51.577374
 20
149.94823
 10
51.577375
 20
79.94823
  0
LWPOLYLINE
  5
11B
100
AcDbEntity
  8
0
  6
ByLayer
 62
  256
370
   -1
100
AcDbPolyline
 90
    2
 70
    0
 43
0
 10
101.57737
 20
149.94823
 10
101.57737
 20
79.94823
  0
ENDSEC
  0
SECTION
  2
OBJECTS
  0
DICTIONARY
  5
C
330
0
100
AcDbDictionary
281
    1
  3
ACAD_GROUP
350
D
  0
DICTIONARY
  5
D
330
C
100
AcDbDictionary
281
    1
  0
PLOTSETTINGS
  5
11C
100
AcDbPlotSettings
  6
1x1
 40
0
 41
0
 42
0
 43
0
  0
ENDSEC
  0
EOF
