999
dxfrw 0.6.3
  0
SECTION
  2
HEADER
  9
$ACADVER
  1
AC1021
  9
$DWGCODEPAGE
  3
ANSI_1252
  9
$INSBASE
 10
0
 20
0
 30
0
  9
$EXTMIN
 10
-43.125
 20
0
 30
0
  9
$EXTMAX
 10
92.8571521857143
 20
163.125
 30
0
  9
$LIMMIN
 10
0
 20
0
  9
$LIMMAX
 10
420
 20
297
  9
$ORTHOMODE
 70
    0
  9
$REGENMODE
 70
    1
  9
$FILLMODE
 70
    1
  9
$QTEXTMODE
 70
    0
  9
$MIRRTEXT
 70
    0
  9
$LTSCALE
 40
1
  9
$ATTMODE
 70
    0
  9
$TEXTSIZE
 40
2.5
  9
$TRACEWID
 40
15.68
  9
$TEXTSTYLE
  7
STANDARD
  9
$CLAYER
  8
Gravação
  9
$CELTYPE
  6
BYLAYER
  9
$CECOLOR
 62
  256
  9
$CELTSCALE
 40
1
  9
$DISPSILH
 70
    0
  9
$DIMSCALE
 40
1
  9
$DIMASZ
 40
2.5
  9
$DIMEXO
 40
0.625
  9
$DIMDLI
 40
3.75
  9
$DIMRND
 40
0
  9
$DIMDLE
 40
0
  9
$DIMEXE
 40
1.25
  9
$DIMTP
 40
0
  9
$DIMTM
 40
0
  9
$DIMTXT
 40
2.5
  9
$DIMCEN
 40
2.5
  9
$DIMTSZ
 40
0
  9
$DIMTOL
 70
    0
  9
$DIMLIM
 70
    0
  9
$DIMTIH
 70
    0
  9
$DIMTOH
 70
    0
  9
$DIMSE1
 70
    0
  9
$DIMSE2
 70
    0
  9
$DIMTAD
 70
    1
  9
$DIMZIN
 70
    8
  9
$DIMBLK
  1

  9
$DIMASO
 70
    1
  9
$DIMSHO
 70
    1
  9
$DIMPOST
  1

  9
$DIMAPOST
  1

  9
$DIMALT
 70
    0
  9
$DIMALTD
 70
    3
  9
$DIMALTF
 40
0.03937
  9
$DIMLFAC
 40
1
  9
$DIMTOFL
 70
    1
  9
$DIMTVP
 40
0
  9
$DIMTIX
 70
    0
  9
$DIMSOXD
 70
    0
  9
$DIMSAH
 70
    0
  9
$DIMBLK1
  1

  9
$DIMBLK2
  1

  9
$DIMSTYLE
  2
Standard
  9
$DIMCLRD
 70
    0
  9
$DIMCLRE
 70
    0
  9
$DIMCLRT
 70
    0
  9
$DIMTFAC
 40
1
  9
$DIMGAP
 40
0.625
  9
$DIMJUST
 70
    0
  9
$DIMSD1
 70
    0
  9
$DIMSD2
 70
    0
  9
$DIMTOLJ
 70
    0
  9
$DIMTZIN
 70
    8
  9
$DIMALTZ
 70
    0
  9
$DIMALTTZ
 70
    0
  9
$DIMUPT
 70
    0
  9
$DIMDEC
 70
    2
  9
$DIMTDEC
 70
    2
  9
$DIMALTU
 70
    2
  9
$DIMALTTD
 70
    3
  9
$DIMTXSTY
  7
STANDARD
  9
$DIMAUNIT
 70
    0
  9
$DIMADEC
 70
    0
  9
$DIMALTRND
 40
0
  9
$DIMAZIN
 70
    0
  9
$DIMDSEP
 70
   44
  9
$DIMATFIT
 70
    3
  9
$DIMFRAC
 70
    0
  9
$DIMLDRBLK
  1
STANDARD
  9
$DIMLUNIT
 70
    2
  9
$DIMLWD
 70
   -2
  9
$DIMLWE
 70
   -2
  9
$DIMTMOVE
 70
    0
  9
$DIMFXL
 40
1
  9
$DIMFXLON
 70
    0
  9
$DIMJOGANG
 40
0.7854
  9
$DIMTFILL
 70
    0
  9
$DIMTFILLCLR
 70
    0
  9
$DIMARCSYM
 70
    0
  9
$DIMLTYPE
  6

  9
$DIMLTEX1
  6

  9
$DIMLTEX2
  6

  9
$LUNITS
 70
    2
  9
$LUPREC
 70
    4
  9
$SKETCHINC
 40
1
  9
$FILLETRAD
 40
0
  9
$AUNITS
 70
    0
  9
$AUPREC
 70
    2
  9
$MENU
  1
.
  9
$ELEVATION
 40
0
  9
$PELEVATION
 40
0
  9
$THICKNESS
 40
0
  9
$LIMCHECK
 70
    0
  9
$CHAMFERA
 40
0
  9
$CHAMFERB
 40
0
  9
$CHAMFERC
 40
0
  9
$CHAMFERD
 40
0
  9
$SKPOLY
 70
    0
  9
$USRTIMER
 70
    1
  9
$ANGBASE
 50
0
  9
$ANGDIR
 70
    0
  9
$PDMODE
 70
   96
  9
$PDSIZE
 40
-2
  9
$PLINEWID
 40
0
  9
$SPLFRAME
 70
    0
  9
$SPLINETYPE
 70
    2
  9
$SPLINESEGS
 70
    8
  9
$HANDSEED
  5
20000
  9
$SURFTAB1
 70
    6
  9
$SURFTAB2
 70
    6
  9
$SURFTYPE
 70
    6
  9
$SURFU
 70
    6
  9
$SURFV
 70
    6
  9
$UCSBASE
  2

  9
$UCSNAME
  2

  9
$UCSORG
 10
0
 20
0
 30
0
  9
$UCSXDIR
 10
1
 20
0
 30
0
  9
$UCSYDIR
 10
0
 20
1
 30
0
  9
$UCSORTHOREF
  2

  9
$UCSORTHOVIEW
 70
    0
  9
$UCSORGTOP
 10
0
 20
0
 30
0
  9
$UCSORGBOTTOM
 10
0
 20
0
 30
0
  9
$UCSORGLEFT
 10
0
 20
0
 30
0
  9
$UCSORGRIGHT
 10
0
 20
0
 30
0
  9
$UCSORGFRONT
 10
0
 20
0
 30
0
  9
$UCSORGBACK
 10
0
 20
0
 30
0
  9
$PUCSBASE
  2

  9
$PUCSNAME
  2

  9
$PUCSORG
 10
0
 20
0
 30
0
  9
$PUCSXDIR
 10
1
 20
0
 30
0
  9
$PUCSYDIR
 10
0
 20
1
 30
0
  9
$PUCSORTHOREF
  2

  9
$PUCSORTHOVIEW
 70
    0
  9
$PUCSORGTOP
 10
0
 20
0
 30
0
  9
$PUCSORGBOTTOM
 10
0
 20
0
 30
0
  9
$PUCSORGLEFT
 10
0
 20
0
 30
0
  9
$PUCSORGRIGHT
 10
0
 20
0
 30
0
  9
$PUCSORGFRONT
 10
0
 20
0
 30
0
  9
$PUCSORGBACK
 10
0
 20
0
 30
0
  9
$USERI1
 70
    0
  9
$USERI2
 70
    0
  9
$USERI3
 70
    0
  9
$USERI4
 70
    0
  9
$USERI5
 70
    0
  9
$USERR1
 40
0
  9
$USERR2
 40
0
  9
$USERR3
 40
0
  9
$USERR4
 40
0
  9
$USERR5
 40
0
  9
$WORLDVIEW
 70
    1
  9
$SHADEDGE
 70
    3
  9
$SHADEDIF
 70
   70
  9
$TILEMODE
 70
    1
  9
$MAXACTVP
 70
   64
  9
$PINSBASE
 10
0
 20
0
 30
0
  9
$PLIMCHECK
 70
    0
  9
$PEXTMIN
 10
0
 20
0
 30
0
  9
$PEXTMAX
 10
0
 20
0
 30
0
  9
$GRIDMODE
 70
    1
  9
$SNAPSTYLE
 70
    0
  9
$PLIMMIN
 10
0
 20
0
  9
$PLIMMAX
 10
210
 20
297
  9
$UNITMODE
 70
    0
  9
$VISRETAIN
 70
    1
  9
$PLINEGEN
 70
    0
  9
$PSLTSCALE
 70
    1
  9
$TREEDEPTH
 70
 3020
  9
$CMLSTYLE
  2
Standard
  9
$CMLJUST
 70
    0
  9
$CMLSCALE
 40
20
  9
$PROXYGRAPHICS
 70
    1
  9
$MEASUREMENT
 70
    1
  9
$CELWEIGHT
370
   -1
  9
$ENDCAPS
280
    0
  9
$JOINSTYLE
280
    0
  9
$LWDISPLAY
290
    0
  9
$INSUNITS
 70
    4
  9
$HYPERLINKBASE
  1

  9
$STYLESHEET
  1

  9
$XEDIT
290
    1
  9
$CEPSNTYPE
380
    0
  9
$PSTYLEMODE
290
    1
  9
$EXTNAMES
290
    1
  9
$PSVPSCALE
 40
1
  9
$OLESTARTUP
290
    0
  9
$SORTENTS
280
  127
  9
$INDEXCTL
280
    0
  9
$HIDETEXT
280
    1
  9
$XCLIPFRAME
290
    0
  9
$HALOGAP
280
    0
  9
$OBSCOLOR
 70
  257
  9
$OBSLTYPE
280
    0
  9
$INTERSECTIONDISPLAY
280
    0
  9
$INTERSECTIONCOLOR
 70
  257
  9
$DIMASSOC
280
    1
  9
$PROJECTNAME
  1

  9
$CAMERADISPLAY
290
    0
  9
$LENSLENGTH
 40
50
  9
$CAMERAHEIGHT
 40
0
  9
$STEPSPERSEC
 40
2
  9
$STEPSIZE
 40
50
  9
$3DDWFPREC
 40
2
  9
$PSOLWIDTH
 40
5
  9
$PSOLHEIGHT
 40
80
  9
$LOFTANG1
 40
1.570796326794897
  9
$LOFTANG2
 40
1.570796326794897
  9
$LOFTMAG1
 40
0
  9
$LOFTMAG2
 40
0
  9
$LOFTPARAM
 70
    7
  9
$LOFTNORMALS
280
    1
  9
$LATITUDE
 40
1
  9
$LONGITUDE
 40
1
  9
$NORTHDIRECTION
 40
0
  9
$TIMEZONE
 70
-8000
  9
$LIGHTGLYPHDISPLAY
280
    1
  9
$TILEMODELIGHTSYNCH
280
    1
  9
$SOLIDHIST
280
    1
  9
$SHOWHIST
280
    1
  9
$DWFFRAME
280
    2
  9
$DGNFRAME
280
    0
  9
$REALWORLDSCALE
290
    1
  9
$INTERFERECOLOR
 62
    1
  9
$CSHADOW
280
    0
  9
$SHADOWPLANELOCATION
 40
0
  0
ENDSEC
  0
SECTION
  2
CLASSES
  0
ENDSEC
  0
SECTION
  2
TABLES
  0
TABLE
  2
VPORT
  5
8
330
0
100
AcDbSymbolTable
 70
    1
  0
VPORT
  5
31
330
2
100
AcDbSymbolTableRecord
100
AcDbViewportTableRecord
  2
*ACTIVE
 70
    0
 10
0
 20
0
 11
1
 21
1
 12
162.8812864990816
 22
76.34646816406993
 13
0
 23
0
 14
10
 24
10
 15
10
 25
10
 16
0
 26
0
 36
1
 17
0
 27
0
 37
0
 40
208.5303879143401
 41
1.722081218274112
 42
50
 43
0
 44
0
 50
0
 51
0
 71
    0
 72
  100
 73
    1
 74
    3
 75
    0
 76
    1
 77
    0
 78
    0
281
    0
 65
    1
110
0
120
0
130
0
111
1
121
0
131
0
112
0
122
1
132
0
 79
    0
146
0
348
10020
 60
    7
 61
    5
292
1
282
    1
141
0
142
0
 63
  250
421
3358443
  0
ENDTAB
  0
TABLE
  2
LTYPE
  5
5
330
0
100
AcDbSymbolTable
 70
    4
  0
LTYPE
  5
14
330
5
100
AcDbSymbolTableRecord
100
AcDbLinetypeTableRecord
  2
ByBlock
 70
    0
  3

 72
   65
 73
    0
 40
0
  0
LTYPE
  5
15
330
5
100
AcDbSymbolTableRecord
100
AcDbLinetypeTableRecord
  2
ByLayer
 70
    0
  3

 72
   65
 73
    0
 40
0
  0
LTYPE
  5
16
330
5
100
AcDbSymbolTableRecord
100
AcDbLinetypeTableRecord
  2
Continuous
 70
    0
  3
Solid line
 72
   65
 73
    0
 40
0
  0
LTYPE
  5
32
330
5
100
AcDbSymbolTableRecord
100
AcDbLinetypeTableRecord
  2
DOT
 70
    0
  3
Dot . . . . . . . . . . . . . . . . . . . . . .
 72
   65
 73
    2
 40
6.35
 49
0
 74
    0
 49
-6.35
 74
    0
  0
LTYPE
  5
33
330
5
100
AcDbSymbolTableRecord
100
AcDbLinetypeTableRecord
  2
DOTTINY
 70
    0
  3
Dot (.15x) .....................................
 72
   65
 73
    2
 40
0.9525
 49
0
 74
    0
 49
-0.9525
 74
    0
  0
LTYPE
  5
34
330
5
100
AcDbSymbolTableRecord
100
AcDbLinetypeTableRecord
  2
DOT2
 70
    0
  3
Dot (.5x) .....................................
 72
   65
 73
    2
 40
3.175
 49
0
 74
    0
 49
-3.175
 74
    0
  0
LTYPE
  5
35
330
5
100
AcDbSymbolTableRecord
100
AcDbLinetypeTableRecord
  2
DOTX2
 70
    0
  3
Dot (2x) .  .  .  .  .  .  .  .  .  .  .  .  .
 72
   65
 73
    2
 40
12.7
 49
0
 74
    0
 49
-12.7
 74
    0
  0
LTYPE
  5
36
330
5
100
AcDbSymbolTableRecord
100
AcDbLinetypeTableRecord
  2
DASHED
 70
    0
  3
Dashed _ _ _ _ _ _ _ _ _ _ _ _ _ _ _ _ _
 72
   65
 73
    2
 40
19.05
 49
12.7
 74
    0
 49
-6.35
 74
    0
  0
LTYPE
  5
37
330
5
100
AcDbSymbolTableRecord
100
AcDbLinetypeTableRecord
  2
DASHEDTINY
 70
    0
  3
Dashed (.15x) _ _ _ _ _ _ _ _ _ _ _ _ _ _ _ _ _
 72
   65
 73
    2
 40
2.8575
 49
1.905
 74
    0
 49
-0.9525
 74
    0
  0
LTYPE
  5
38
330
5
100
AcDbSymbolTableRecord
100
AcDbLinetypeTableRecord
  2
DASHED2
 70
    0
  3
Dashed (.5x) _ _ _ _ _ _ _ _ _ _ _ _ _ _ _ _ _
 72
   65
 73
    2
 40
9.524999999999999
 49
6.35
 74
    0
 49
-3.175
 74
    0
  0
LTYPE
  5
39
330
5
100
AcDbSymbolTableRecord
100
AcDbLinetypeTableRecord
  2
DASHEDX2
 70
    0
  3
Dashed (2x) ____  ____  ____  ____  ____  ___
 72
   65
 73
    2
 40
38.09999999999999
 49
25.4
 74
    0
 49
-12.7
 74
    0
  0
LTYPE
  5
3A
330
5
100
AcDbSymbolTableRecord
100
AcDbLinetypeTableRecord
  2
DASHDOT
 70
    0
  3
Dash dot __ . __ . __ . __ . __ . __ . __ . __
 72
   65
 73
    4
 40
25.4
 49
12.7
 74
    0
 49
-6.35
 74
    0
 49
0
 74
    0
 49
-6.35
 74
    0
  0
LTYPE
  5
3B
330
5
100
AcDbSymbolTableRecord
100
AcDbLinetypeTableRecord
  2
DASHDOTTINY
 70
    0
  3
Dash dot (.15x) _._._._._._._._._._._._._._._.
 72
   65
 73
    4
 40
3.81
 49
1.905
 74
    0
 49
-0.9525
 74
    0
 49
0
 74
    0
 49
-0.9525
 74
    0
  0
LTYPE
  5
3C
330
5
100
AcDbSymbolTableRecord
100
AcDbLinetypeTableRecord
  2
DASHDOT2
 70
    0
  3
Dash dot (.5x) _._._._._._._._._._._._._._._.
 72
   65
 73
    4
 40
12.7
 49
6.35
 74
    0
 49
-3.175
 74
    0
 49
0
 74
    0
 49
-3.175
 74
    0
  0
LTYPE
  5
3D
330
5
100
AcDbSymbolTableRecord
100
AcDbLinetypeTableRecord
  2
DASHDOTX2
 70
    0
  3
Dash dot (2x) ____  .  ____  .  ____  .  ___
 72
   65
 73
    4
 40
50.8
 49
25.4
 74
    0
 49
-12.7
 74
    0
 49
0
 74
    0
 49
-12.7
 74
    0
  0
LTYPE
  5
3E
330
5
100
AcDbSymbolTableRecord
100
AcDbLinetypeTableRecord
  2
DIVIDE
 70
    0
  3
Divide ____ . . ____ . . ____ . . ____ . . ____
 72
   65
 73
    6
 40
31.75
 49
12.7
 74
    0
 49
-6.35
 74
    0
 49
0
 74
    0
 49
-6.35
 74
    0
 49
0
 74
    0
 49
-6.35
 74
    0
  0
LTYPE
  5
3F
330
5
100
AcDbSymbolTableRecord
100
AcDbLinetypeTableRecord
  2
DIVIDETINY
 70
    0
  3
Divide (.15x) __..__..__..__..__..__..__..__.._
 72
   65
 73
    6
 40
4.7625
 49
1.905
 74
    0
 49
-0.9525
 74
    0
 49
0
 74
    0
 49
-0.9525
 74
    0
 49
0
 74
    0
 49
-0.9525
 74
    0
  0
LTYPE
  5
40
330
5
100
AcDbSymbolTableRecord
100
AcDbLinetypeTableRecord
  2
DIVIDE2
 70
    0
  3
Divide (.5x) __..__..__..__..__..__..__..__.._
 72
   65
 73
    6
 40
15.875
 49
6.35
 74
    0
 49
-3.175
 74
    0
 49
0
 74
    0
 49
-3.175
 74
    0
 49
0
 74
    0
 49
-3.175
 74
    0
  0
LTYPE
  5
41
330
5
100
AcDbSymbolTableRecord
100
AcDbLinetypeTableRecord
  2
DIVIDEX2
 70
    0
  3
Divide (2x) ________  .  .  ________  .  .  _
 72
   65
 73
    6
 40
63.5
 49
25.4
 74
    0
 49
-12.7
 74
    0
 49
0
 74
    0
 49
-12.7
 74
    0
 49
0
 74
    0
 49
-12.7
 74
    0
  0
LTYPE
  5
42
330
5
100
AcDbSymbolTableRecord
100
AcDbLinetypeTableRecord
  2
BORDER
 70
    0
  3
Border __ __ . __ __ . __ __ . __ __ . __ __ .
 72
   65
 73
    6
 40
44.45
 49
12.7
 74
    0
 49
-6.35
 74
    0
 49
12.7
 74
    0
 49
-6.35
 74
    0
 49
0
 74
    0
 49
-6.35
 74
    0
  0
LTYPE
  5
43
330
5
100
AcDbSymbolTableRecord
100
AcDbLinetypeTableRecord
  2
BORDERTINY
 70
    0
  3
Border (.15x) __.__.__.__.__.__.__.__.__.__.__.
 72
   65
 73
    6
 40
6.6675
 49
1.905
 74
    0
 49
-0.9525
 74
    0
 49
1.905
 74
    0
 49
-0.9525
 74
    0
 49
0
 74
    0
 49
-0.9525
 74
    0
  0
LTYPE
  5
44
330
5
100
AcDbSymbolTableRecord
100
AcDbLinetypeTableRecord
  2
BORDER2
 70
    0
  3
Border (.5x) __.__.__.__.__.__.__.__.__.__.__.
 72
   65
 73
    6
 40
22.225
 49
6.35
 74
    0
 49
-3.175
 74
    0
 49
6.35
 74
    0
 49
-3.175
 74
    0
 49
0
 74
    0
 49
-3.175
 74
    0
  0
LTYPE
  5
45
330
5
100
AcDbSymbolTableRecord
100
AcDbLinetypeTableRecord
  2
BORDERX2
 70
    0
  3
Border (2x) ____  ____  .  ____  ____  .  ___
 72
   65
 73
    6
 40
88.89999999999999
 49
25.4
 74
    0
 49
-12.7
 74
    0
 49
25.4
 74
    0
 49
-12.7
 74
    0
 49
0
 74
    0
 49
-12.7
 74
    0
  0
LTYPE
  5
46
330
5
100
AcDbSymbolTableRecord
100
AcDbLinetypeTableRecord
  2
CENTER
 70
    0
  3
Center ____ _ ____ _ ____ _ ____ _ ____ _ ____
 72
   65
 73
    4
 40
50.8
 49
31.75
 74
    0
 49
-6.35
 74
    0
 49
6.35
 74
    0
 49
-6.35
 74
    0
  0
LTYPE
  5
47
330
5
100
AcDbSymbolTableRecord
100
AcDbLinetypeTableRecord
  2
CENTERTINY
 70
    0
  3
Center (.15x) ___ _ ___ _ ___ _ ___ _ ___ _ ___
 72
   65
 73
    4
 40
7.619999999999999
 49
4.7625
 74
    0
 49
-0.9525
 74
    0
 49
0.9525
 74
    0
 49
-0.9525
 74
    0
  0
LTYPE
  5
48
330
5
100
AcDbSymbolTableRecord
100
AcDbLinetypeTableRecord
  2
CENTER2
 70
    0
  3
Center (.5x) ___ _ ___ _ ___ _ ___ _ ___ _ ___
 72
   65
 73
    4
 40
28.575
 49
19.05
 74
    0
 49
-3.175
 74
    0
 49
3.175
 74
    0
 49
-3.175
 74
    0
  0
LTYPE
  5
49
330
5
100
AcDbSymbolTableRecord
100
AcDbLinetypeTableRecord
  2
CENTERX2
 70
    0
  3
Center (2x) ________  __  ________  __  _____
 72
   65
 73
    4
 40
101.6
 49
63.5
 74
    0
 49
-12.7
 74
    0
 49
12.7
 74
    0
 49
-12.7
 74
    0
  0
ENDTAB
  0
TABLE
  2
LAYER
  5
2
330
0
100
AcDbSymbolTable
 70
    1
  0
LAYER
  5
10
330
2
100
AcDbSymbolTableRecord
100
AcDbLayerTableRecord
  2
0
 70
    0
 62
    7
  6
CONTINUOUS
370
   25
390
F
  0
LAYER
  5
4A
330
2
100
AcDbSymbolTableRecord
100
AcDbLayerTableRecord
  2
Corte
 70
    0
 62
    1
  6
CONTINUOUS
370
    0
390
F
  0
LAYER
  5
4B
330
2
100
AcDbSymbolTableRecord
100
AcDbLayerTableRecord
  2
Gravação
 70
    0
 62
    5
  6
CONTINUOUS
370
   -3
390
F
  0
ENDTAB
  0
TABLE
  2
STYLE
  5
3
330
0
100
AcDbSymbolTable
 70
    3
  0
STYLE
  5
4C
330
2
100
AcDbSymbolTableRecord
100
AcDbTextStyleTableRecord
  2
Standard
 70
    0
 40
0
 41
1
 50
0
 71
    0
 42
1
  3
txt
  4

  0
ENDTAB
  0
TABLE
  2
VIEW
  5
6
330
0
100
AcDbSymbolTable
 70
    0
  0
ENDTAB
  0
TABLE
  2
UCS
  5
7
330
0
100
AcDbSymbolTable
 70
    0
  0
ENDTAB
  0
TABLE
  2
APPID
  5
9
330
0
100
AcDbSymbolTable
 70
    1
  0
APPID
  5
12
330
9
100
AcDbSymbolTableRecord
100
AcDbRegAppTableRecord
  2
ACAD
 70
    0
  0
APPID
  5
4D
330
9
100
AcDbSymbolTableRecord
100
AcDbRegAppTableRecord
  2
LibreCad
 70
    0
  0
ENDTAB
  0
TABLE
  2
DIMSTYLE
  5
A
330
0
100
AcDbSymbolTable
 70
    1
100
AcDbDimStyleTable
 71
    1
  0
DIMSTYLE
105
4E
330
A
100
AcDbSymbolTableRecord
100
AcDbDimStyleTableRecord
  2
Standard
 70
    0
 40
1
 41
2.5
 42
0.625
 43
0.38
 44
1.25
 45
0
 46
0
 47
0
 48
0
 49
1
140
2.5
141
0.09
142
0
143
25.4
144
1
145
0
146
1
147
0.625
148
0
 71
    0
 72
    0
 73
    0
 74
    1
 75
    0
 76
    0
 77
    0
 78
    8
 79
    0
170
    0
171
    2
172
    0
173
    0
174
    0
175
    0
176
    0
177
    0
178
    0
179
    0
271
    2
272
    4
273
    2
274
    2
275
    0
276
    0
277
    2
278
   44
279
    0
280
    0
281
    0
282
    0
283
    1
284
    0
285
    0
286
    0
288
    0
289
    3
340
4C
  0
ENDTAB
  0
TABLE
  2
BLOCK_RECORD
  5
1
330
0
100
AcDbSymbolTable
 70
    2
  0
BLOCK_RECORD
  5
1F
330
1
100
AcDbSymbolTableRecord
100
AcDbBlockTableRecord
  2
*Model_Space
 70
    0
280
    1
281
    0
  0
BLOCK_RECORD
  5
1E
330
1
100
AcDbSymbolTableRecord
100
AcDbBlockTableRecord
  2
*Paper_Space
 70
    0
280
    1
281
    0
  0
BLOCK_RECORD
  5
4F
330
1
100
AcDbSymbolTableRecord
100
AcDbBlockTableRecord
  2
chaveiro2
 70
    0
280
    1
281
    0
  0
BLOCK_RECORD
  5
52
330
1
100
AcDbSymbolTableRecord
100
AcDbBlockTableRecord
  2
texto
 70
    0
280
    1
281
    0
  0
BLOCK_RECORD
  5
55
330
1
100
AcDbSymbolTableRecord
100
AcDbBlockTableRecord
  2
chaveiro
 70
    0
280
    1
281
    0
  0
ENDTAB
  0
ENDSEC
  0
SECTION
  2
BLOCKS
  0
BLOCK
  5
20
330
1F
100
AcDbEntity
  8
0
100
AcDbBlockBegin
  2
*Model_Space
 70
    0
 10
0
 20
0
 30
0
  3
*Model_Space
  1

  0
ENDBLK
  5
21
330
1F
100
AcDbEntity
  8
0
100
AcDbBlockEnd
  0
BLOCK
  5
1C
330
1B
100
AcDbEntity
  8
0
100
AcDbBlockBegin
  2
*Paper_Space
 70
    0
 10
0
 20
0
 30
0
  3
*Paper_Space
  1

  0
ENDBLK
  5
1D
330
1F
100
AcDbEntity
  8
0
100
AcDbBlockEnd
  0
BLOCK
  5
50
330
4F
100
AcDbEntity
  8
0
100
AcDbBlockBegin
  2
chaveiro2
 70
    0
 10
0
 20
0
  3
chaveiro2
  1

  0
LWPOLYLINE
  5
58
100
AcDbEntity
  8
0
  6
ByLayer
 62
  256
370
   -1
100
AcDbPolyline
 90
   21
 70
    1
 43
0
 10
-13.441376
 20
-6.44242899999999
 10
-13.221578
 20
-7.261019999999988
 10
-12.776049
 20
-7.982063999999994
 10
-12.12698
 20
-8.554204999999996
 10
-11.338791
 20
-8.911128999999988
 10
-10.498399
 20
-9.021322999999995
 10
-9.661745
 20
-8.885639999999995
 10
-8.884767
 20
-8.504926999999995
 10
-8.253386000000003
 20
-7.913323999999989
 10
-7.829975000000001
 20
-7.179072999999988
 10
-7.635157
 20
-6.354180999999997
 10
-7.689552000000003
 20
-5.49065499999999
 10
-7.994503000000002
 20
-4.680937999999998
 10
-8.510831
 20
-4.008771999999993
 10
-9.198378000000002
 20
-3.513110999999995
 10
-10.016988
 20
-3.232908999999992
 10
-11.175633
 20
-3.25383699999999
 10
-12.20073
 20
-3.701889999999992
 10
-12.983021
 20
-4.501636999999988
 10
-13.413248
 20
-5.577648999999994
 10
-13.413248
 20
-5.577648999999994
  0
LWPOLYLINE
  5
59
100
AcDbEntity
  8
0
  6
ByLayer
 62
  256
370
   -1
100
AcDbPolyline
 90
   57
 70
    1
 43
0
 10
-1.547971
 20
-7.045265999999998
 10
-1.479705000000003
 20
-6.844248999999991
 10
-1.507411000000001
 20
-6.481230999999994
 10
-1.716972999999999
 20
-6.185389000000001
 10
-2.090158000000002
 20
-5.960032999999996
 10
-2.585536000000001
 20
-5.819012999999998
 10
-3.40212
 20
-5.820160999999999
 10
-4.092563000000002
 20
-6.126999999999995
 10
-4.606577000000001
 20
-6.704788999999991
 10
-4.909312
 20
-7.534780999999995
 10
-4.915024000000003
 20
-8.525936000000002
 10
-4.575760000000002
 20
-9.347916999999995
 10
-3.925144
 20
-9.94433699999999
 10
-3.007366000000001
 20
-10.28198999999999
 10
-2.074233
 20
-10.295914
 10
-1.307525999999999
 20
-9.984203999999991
 10
-0.7465350000000015
 20
-9.389905999999996
 10
-0.4283199999999994
 20
-8.543909999999997
 10
-0.3841859999999997
 20
-8.131256999999991
 10
-0.3903660000000002
 20
-7.822408999999993
 10
-0.1875450000000001
 20
-7.777969999999996
 10
-0.00219900000000095
 20
-8.000309999999999
 10
-0.04011000000000209
 20
-8.652737000000002
 10
-0.4160240000000002
 20
-9.676555999999991
 10
-1.081607999999999
 20
-10.396136
 10
-1.986516000000002
 20
-10.77672899999999
 10
-3.095335000000002
 20
-10.76203
 10
-4.177681
 20
-10.362832
 10
-4.930886000000001
 20
-9.640861000000001
 10
-5.322438000000002
 20
-8.658588999999992
 10
-5.305415
 20
-7.468564999999998
 10
-4.939431000000003
 20
-6.430361999999988
 10
-4.318614
 20
-5.715147999999999
 10
-3.48387
 20
-5.340541999999999
 10
-2.491614999999999
 20
-5.340166999999994
 10
-1.80611
 20
-5.548930999999996
 10
-1.329343000000001
 20
-5.885877999999991
 10
-1.083523
 20
-6.343795999999998
 10
-1.078739000000002
 20
-6.917689999999993
 10
-1.208449000000002
 20
-7.283279999999991
 10
-1.443637000000003
 20
-7.573033999999993
 10
-1.347384999999999
 20
-7.904638999999989
 10
-1.369489000000002
 20
-8.333891999999992
 10
-1.537458000000001
 20
-8.805509000000001
 10
-1.842301000000003
 20
-9.13273199999999
 10
-2.268484000000001
 20
-9.299582000000001
 10
-2.800519000000001
 20
-9.290099999999995
 10
-3.366007
 20
-9.08609899999999
 10
-3.751169000000001
 20
-8.720416
 10
-3.944458000000001
 20
-8.232872999999998
 10
-3.935902000000002
 20
-7.637861999999998
 10
-3.811572000000002
 20
-7.23360799999999
 10
-3.627688000000003
 20
-6.915633999999997
 10
-3.284331000000002
 20
-6.721048999999994
 10
-3.194245000000002
 20
-6.743482999999998
 10
-3.104158000000002
 20
-6.765917000000002
 10
-1.654731000000002
 20
-7.182699999999997
  0
LWPOLYLINE
  5
5A
100
AcDbEntity
  8
0
  6
ByLayer
 62
  256
370
   -1
100
AcDbPolyline
 90
   10
 70
    1
 43
0
 10
-2.066103000000002
 20
-8.708682999999994
 10
-1.758259000000002
 20
-8.193618000000001
 10
-1.844829000000001
 20
-7.637699999999995
 10
-3.323820000000001
 20
-7.209820999999991
 10
-3.446160000000003
 20
-7.432321999999999
 10
-3.540483000000002
 20
-7.741586999999996
 10
-3.539714
 20
-8.105949999999993
 10
-3.394963000000001
 20
-8.421335999999997
 10
-2.709257000000001
 20
-8.791838999999996
 10
-2.709300000000002
 20
-8.791831000000002
  0
LWPOLYLINE
  5
5B
100
AcDbEntity
  8
0
  6
ByLayer
 62
  256
370
   -1
100
AcDbPolyline
 90
   10
 70
    1
 43
0
 10
-0.6273420000000023
 20
-4.350335000000001
 10
-0.6335890000000006
 20
-4.487294999999989
 10
-0.7241610000000023
 20
-4.673222999999993
 10
-0.9001730000000023
 20
-4.708490999999995
 10
-4.649003
 20
-4.021856
 10
-4.656566000000002
 20
-3.92627499999999
 10
-4.650319
 20
-3.789314999999988
 10
-4.559747000000002
 20
-3.603386999999998
 10
-4.383735000000001
 20
-3.568118999999996
 10
-0.6349049999999998
 20
-4.254753999999991
  0
LWPOLYLINE
  5
5C
100
AcDbEntity
  8
0
  6
ByLayer
 62
  256
370
   -1
100
AcDbPolyline
 90
    9
 70
    1
 43
0
 10
-0.5511180000000024
 20
-1.808443999999994
 10
-0.6099430000000012
 20
-1.546486000000002
 10
-1.490942
 20
-1.385121999999996
 10
-1.549997000000001
 20
-2.152985999999999
 10
-1.489867
 20
-2.647543999999996
 10
-1.189589000000002
 20
-2.859529999999992
 10
-0.7988500000000016
 20
-2.748995999999991
 10
-0.5793510000000026
 20
-2.23657399999999
 10
-0.5792500000000018
 20
-2.236592000000002
  0
LWPOLYLINE
  5
5D
100
AcDbEntity
  8
0
  6
ByLayer
 62
  256
370
   -1
100
AcDbPolyline
 90
   27
 70
    1
 43
0
 10
-2.759869999999999
 20
-0.9765230000000003
 10
-2.411989000000002
 20
-0.8000409999999931
 10
-1.955779
 20
-0.8035339999999991
 10
-0.5157930000000022
 20
-1.067280999999994
 10
-0.3192330000000005
 20
-1.159801000000002
 10
-0.2194630000000011
 20
-1.335076999999998
 10
-0.1448630000000009
 20
-1.750637999999995
 10
-0.1781380000000006
 20
-2.309719000000001
 10
-0.5654190000000021
 20
-3.15562899999999
 10
-0.8829160000000016
 20
-3.337676000000002
 10
-1.272286000000001
 20
-3.346424999999996
 10
-1.611205000000002
 20
-3.216838999999993
 10
-1.825945000000001
 20
-2.97497899999999
 10
-1.946491000000002
 20
-2.193057999999994
 10
-1.873577000000001
 20
-1.314697999999993
 10
-2.043711000000002
 20
-1.283535999999998
 10
-2.520632000000003
 20
-1.384574999999998
 10
-2.750567
 20
-1.851118
 10
-2.765572000000002
 20
-2.34446299999999
 10
-2.674970999999999
 20
-2.775518999999989
 10
-2.788830000000001
 20
-2.848860000000002
 10
-2.917073000000002
 20
-2.863050000000001
 10
-3.049085000000002
 20
-2.794961999999998
 10
-3.127949000000001
 20
-2.642411999999993
 10
-3.186545000000002
 20
-2.24233199999999
 10
-3.150623
 20
-1.771657999999988
 10
-3.150404000000002
 20
-1.771593999999993
  0
LWPOLYLINE
  5
5E
100
AcDbEntity
  8
0
  6
ByLayer
 62
  256
370
   -1
100
AcDbPolyline
 90
   21
 70
    1
 43
0
 10
-2.361503000000003
 20
2.021297000000004
 10
-2.011301
 20
2.390455000000003
 10
-1.498333000000002
 20
2.585362000000003
 10
-0.8232090000000021
 20
2.568511000000001
 10
-0.1798690000000001
 20
2.343873000000002
 10
0.2284760000000006
 20
1.96765400000001
 10
0.420653999999999
 20
1.474040000000002
 10
0.4011539999999982
 20
0.887307000000007
 10
0.2291999999999987
 20
0.35991700000001
 10
0
 20
0
 10
-0.1841660000000012
 20
-0.1483849999999904
 10
-0.3996530000000007
 20
-0.1592039999999884
 10
-3.826456
 20
0.4684480000000093
 10
-3.834019000000001
 20
0.5640300000000025
 10
-3.826642
 20
0.7071609999999993
 10
-3.736904000000003
 20
0.888536000000002
 10
-3.561170000000001
 20
0.9222859999999997
 10
-2.473580999999999
 20
0.7230830000000026
 10
-2.561534000000002
 20
1.065734000000006
 10
-2.548291000000003
 20
1.515448000000006
 10
-2.548348000000001
 20
1.515459000000007
  0
LWPOLYLINE
  5
5F
100
AcDbEntity
  8
0
  6
ByLayer
 62
  256
370
   -1
100
AcDbPolyline
 90
   14
 70
    1
 43
0
 10
-2.152977
 20
0.9657880000000034
 10
-2.030189
 20
0.6418720000000064
 10
-0.3107159999999993
 20
0.3269340000000085
 10
-0.135270000000002
 20
0.5648220000000066
 10
9.999999974752427e-07
 20
0.9607820000000089
 10
0.007175999999997629
 20
1.342541000000011
 10
-0.1399110000000015
 20
1.670908000000011
 10
-0.4395820000000015
 20
1.920462999999998
 10
-0.9134080000000004
 20
2.076374999999999
 10
-1.411735
 20
2.098522000000003
 10
-1.780402000000002
 20
1.971380000000011
 10
-2.028252000000002
 20
1.715350000000001
 10
-2.160793999999999
 20
1.369118
 10
-2.160693999999999
 20
1.369099000000006
  0
LWPOLYLINE
  5
60
100
AcDbEntity
  8
0
  6
ByLayer
 62
  256
370
   -1
100
AcDbPolyline
 90
   38
 70
    1
 43
0
 10
-1.004905000000001
 20
6.890787000000003
 10
-1.228162000000001
 20
6.460699000000005
 10
-1.077769
 20
5.704701
 10
-0.8098330000000011
 20
5.693304000000012
 10
1.122301
 20
5.339415000000002
 10
1.128759000000002
 20
5.237806000000006
 10
1.123616999999996
 20
5.106873000000007
 10
1.033045000000001
 20
4.920945000000003
 10
0.8570330000000013
 20
4.885677999999999
 10
-0.8624399999999994
 20
5.200616000000011
 10
-1.331066
 20
5.110607000000002
 10
-1.555434999999999
 20
4.67444900000001
 10
-1.562608000000001
 20
4.292704000000001
 10
-1.476232
 20
3.975457000000006
 10
0.7961570000000009
 20
3.559246999999999
 10
0.8037199999999984
 20
3.463666000000003
 10
0.7974729999999965
 20
3.326706000000001
 10
0.706901000000002
 20
3.140777
 10
0.5308890000000019
 20
3.10551000000001
 10
-1.540995000000002
 20
3.48499600000001
 10
-1.732588
 20
3.570374999999999
 10
-1.869322
 20
3.783811
 10
-1.969855000000003
 20
4.229236
 10
-1.955314000000001
 20
4.754069000000001
 10
-1.767357000000001
 20
5.265979000000002
 10
-1.465849000000002
 20
5.574989000000002
 10
-1.624404000000002
 20
6.012201000000005
 10
-1.622525
 20
6.570758000000012
 10
-1.242007000000001
 20
7.311146000000008
 10
-0.9072580000000023
 20
7.475904
 10
-0.4716249999999995
 20
7.471470000000011
 10
1.448352
 20
7.119807000000009
 10
1.454810999999999
 20
7.018197999999998
 10
1.449669
 20
6.887266000000011
 10
1.359094999999996
 20
6.701327000000006
 10
1.183081999999999
 20
6.666056000000012
 10
-0.5363900000000008
 20
6.98099400000001
 10
-0.5362810000000025
 20
6.980781000000007
  0
LWPOLYLINE
  5
61
100
AcDbEntity
  8
0
  6
ByLayer
 62
  256
370
   -1
100
AcDbPolyline
 90
    9
 70
    1
 43
0
 10
1.523310000000002
 20
9.517343000000011
 10
1.464484999999996
 20
9.779301000000004
 10
0.5834860000000006
 20
9.94066500000001
 10
0.5244309999999999
 20
9.172801000000007
 10
0.5845619999999982
 20
8.678244000000007
 10
0.8848389999999995
 20
8.466256999999999
 10
1.275581000000003
 20
8.576806000000005
 10
1.495077000000002
 20
9.089213000000001
 10
1.495177999999996
 20
9.089195000000004
  0
LWPOLYLINE
  5
62
100
AcDbEntity
  8
0
  6
ByLayer
 62
  256
370
   -1
100
AcDbPolyline
 90
   27
 70
    1
 43
0
 10
-0.6854420000000019
 20
10.349265
 10
-0.3375610000000009
 20
10.52574700000001
 10
0.1186489999999978
 20
10.522254
 10
1.558635000000002
 20
10.25850600000001
 10
1.755195000000001
 20
10.165987
 10
1.854968
 20
9.990724
 10
1.929566999999999
 20
9.575163000000003
 10
1.896293
 20
9.016083000000009
 10
1.509011000000001
 20
8.170173000000005
 10
1.191511999999996
 20
7.988127000000006
 10
0.8021299999999982
 20
7.979379000000009
 10
0.4632109999999976
 20
8.108965000000012
 10
0.2484719999999996
 20
8.350825
 10
0.1279389999999978
 20
9.132743000000005
 10
0.2008539999999996
 20
10.011104
 10
0.03073399999999893
 20
10.04226300000001
 10
-0.4461870000000019
 20
9.941224000000005
 10
-0.6761219999999994
 20
9.474681000000004
 10
-0.6911260000000006
 20
8.981335999999999
 10
-0.6005260000000021
 20
8.550280000000001
 10
-0.714385
 20
8.476939000000002
 10
-0.8426280000000013
 20
8.46275
 10
-0.9746400000000008
 20
8.530838000000003
 10
-1.053504
 20
8.68338700000001
 10
-1.112102
 20
9.083452000000008
 10
-1.076181000000002
 20
9.554127000000008
 10
-1.075976000000001
 20
9.554193000000012
  0
LWPOLYLINE
  5
63
100
AcDbEntity
  8
0
  6
ByLayer
 62
  256
370
   -1
100
AcDbPolyline
 90
   24
 70
    1
 43
0
 10
2.269553000000002
 20
11.46589
 10
2.263306999999998
 20
11.32893
 10
2.172734999999996
 20
11.14300200000001
 10
1.996722999999996
 20
11.10773400000001
 10
-1.752107000000002
 20
11.794369
 10
-1.75967
 20
11.88995
 10
-1.752293000000002
 20
12.03308200000001
 10
-1.662555000000001
 20
12.21445700000001
 10
-1.486821000000003
 20
12.24820700000001
 10
0.7004999999999981
 20
11.847577
 10
-0.3438639999999999
 20
13.41412200000001
 10
-0.2297779999999996
 20
13.62557100000001
 10
-0.05014000000000252
 20
13.68063400000001
 10
0.0917369999999984
 20
13.59813000000001
 10
0.2108489999999996
 20
13.4256
 10
0.8883790000000005
 20
12.290464
 10
2.351714000000001
 20
13.422813
 10
2.548786999999997
 20
13.29875200000001
 10
2.594340000000003
 20
13.102017
 10
2.520693999999999
 20
12.93966300000001
 10
2.359251999999998
 20
12.812245
 10
0.9010449999999963
 20
11.81083100000001
 10
2.262048999999998
 20
11.56155000000001
 10
2.261989999999997
 20
11.56147100000001
  0
LWPOLYLINE
  5
64
100
AcDbEntity
  8
0
  6
ByLayer
 62
  256
370
   -1
100
AcDbPolyline
 90
   24
 70
    1
 43
0
 10
2.319020000000002
 20
14.74425400000001
 10
2.646540999999999
 20
15.409569
 10
2.646006999999997
 20
15.886921
 10
2.523825000000002
 20
16.24840500000001
 10
2.781407999999999
 20
16.351939
 10
2.930998000000002
 20
16.24295400000001
 10
3.032955000000001
 20
16.01077400000001
 10
3.074477999999999
 20
15.689177
 10
3.043050000000001
 20
15.311875
 10
2.831617000000001
 20
14.69750900000001
 10
2.455503
 20
14.264026
 10
1.928700999999997
 20
14.04495200000001
 10
1.262980999999996
 20
14.06169700000001
 10
0.6671079999999989
 20
14.271263
 10
0.2565360000000005
 20
14.63532600000001
 10
0.04999199999999959
 20
15.119021
 10
0.04569700000000054
 20
15.67869400000001
 10
0.2292029999999983
 20
16.16630400000001
 10
0.5627959999999987
 20
16.51337600000001
 10
1.005587999999996
 20
16.70231200000001
 10
1.521603999999996
 20
16.708225
 10
1.704903000000002
 20
16.61190400000001
 10
1.740623999999997
 20
16.429519
 10
1.659183999999996
 20
14.510306
  0
LWPOLYLINE
  5
65
100
AcDbEntity
  8
0
  6
ByLayer
 62
  256
370
   -1
100
AcDbPolyline
 90
    6
 70
    1
 43
0
 10
0.5884700000000009
 20
14.93876200000001
 10
1.276907999999999
 20
14.54892000000001
 10
1.352071000000002
 20
16.26208200000001
 10
0.7618390000000019
 20
16.12527900000001
 10
0.4396109999999993
 20
15.600284
 10
0.4396109999999993
 20
15.600284
  0
LWPOLYLINE
  5
66
100
AcDbEntity
  8
0
  6
ByLayer
 62
  256
370
   -1
100
AcDbPolyline
 90
   18
 70
    1
 43
0
 10
3.375731000000002
 20
17.505308
 10
3.369484999999997
 20
17.36834700000001
 10
3.278911000000001
 20
17.182408
 10
3.102897999999996
 20
17.147137
 10
1.043171000000001
 20
17.52439600000001
 10
0.8333499999999958
 20
17.61311400000001
 10
0.7015749999999983
 20
17.81936700000001
 10
0.6032679999999999
 20
18.27694800000002
 10
0.6367290000000025
 20
18.90507699999999
 10
0.7642570000000006
 20
19.258495
 10
0.968786999999999
 20
19.346625
 10
1.080843000000002
 20
19.30726199999999
 10
1.157041
 20
19.24301799999999
 10
1.103850000000001
 20
19.08948300000002
 10
1.056756
 20
18.89715199999999
 10
1.027326000000002
 20
18.393885
 10
1.096401999999998
 20
18.017014
 10
3.368167999999997
 20
17.60088900000001
  0
LWPOLYLINE
  5
67
100
AcDbEntity
  8
0
  6
ByLayer
 62
  256
370
   -1
100
AcDbPolyline
 90
    9
 70
    1
 43
0
 10
3.112462000000001
 20
18.947671
 10
3.060923000000003
 20
19.21458400000002
 10
3.202602999999996
 20
19.43981800000002
 10
3.461222999999997
 20
19.48041500000001
 10
3.682594000000002
 20
19.35190300000001
 10
3.735247000000001
 20
19.091075
 10
3.592452000000002
 20
18.85975600000002
 10
3.339903999999997
 20
18.81804699999999
 10
3.339903999999997
 20
18.81804699999999
  0
LWPOLYLINE
  5
68
100
AcDbEntity
  8
0
  6
ByLayer
 62
  256
370
   -1
100
AcDbPolyline
 90
   17
 70
    1
 43
0
 10
4.560235999999996
 20
19.61813600000001
 10
4.459350999999998
 20
19.78732700000002
 10
4.287695999999997
 20
19.912964
 10
4.008800999999998
 20
20.00172400000001
 10
1.031618999999999
 20
20.54702400000001
 10
1.024056000000002
 20
20.64260500000002
 10
1.031433
 20
20.785737
 10
1.122689000000001
 20
20.96683399999999
 10
1.302976999999998
 20
20.99974999999999
 10
4.189019999999999
 20
20.471143
 10
4.613129999999998
 20
20.31810600000001
 10
4.859245000000001
 20
20.084636
 10
4.971074999999999
 20
19.838083
 10
4.976833999999997
 20
19.62979800000001
 10
4.846744000000001
 20
19.43383000000001
 10
4.627918999999999
 20
19.40478299999999
 10
4.627961999999997
 20
19.40477500000001
  0
LWPOLYLINE
  5
69
100
AcDbEntity
  8
0
  6
ByLayer
 62
  256
370
   -1
100
AcDbPolyline
 90
    9
 70
    1
 43
0
 10
-0.07799100000000081
 20
20.76286900000001
 10
-0.1268430000000009
 20
21.01043600000001
 10
0.005472999999998507
 20
21.21856100000001
 10
0.2337229999999977
 20
21.26472
 10
0.4368659999999984
 20
21.13954700000001
 10
0.4807989999999975
 20
20.899141
 10
0.3534019999999991
 20
20.68385500000001
 10
0.1190809999999978
 20
20.638808
 10
0.1190809999999978
 20
20.638808
  0
LWPOLYLINE
  5
6A
100
AcDbEntity
  8
0
  6
ByLayer
 62
  256
370
   -1
100
AcDbPolyline
 90
    9
 70
    1
 43
0
 10
3.983900999999996
 20
22.95147000000001
 10
3.925078999999997
 20
23.213442
 10
3.044080000000001
 20
23.37480599999999
 10
2.985022000000001
 20
22.606928
 10
3.045155000000001
 20
22.112385
 10
3.34543
 20
21.90038400000002
 10
3.736171999999996
 20
22.01093200000001
 10
3.955667999999996
 20
22.52334
 10
3.955768999999997
 20
22.52332199999999
  0
LWPOLYLINE
  5
6B
100
AcDbEntity
  8
0
  6
ByLayer
 62
  256
370
   -1
100
AcDbPolyline
 90
   27
 70
    1
 43
0
 10
1.775148999999999
 20
23.78339100000001
 10
2.12303
 20
23.959873
 10
2.579239999999999
 20
23.95638000000001
 10
4.019225999999996
 20
23.69263300000001
 10
4.215786000000001
 20
23.60011300000001
 10
4.315559
 20
23.424851
 10
4.390155999999998
 20
23.00927600000001
 10
4.356881000000001
 20
22.45019499999999
 10
3.969602000000002
 20
21.60429900000001
 10
3.652102999999997
 20
21.422253
 10
3.262720999999999
 20
21.413506
 10
2.923802000000002
 20
21.543088
 10
2.709060000000001
 20
21.784937
 10
2.588527999999997
 20
22.56685600000002
 10
2.661445000000001
 20
23.44523
 10
2.491324999999996
 20
23.47638999999999
 10
2.014403999999999
 20
23.37535100000001
 10
1.784469000000001
 20
22.90880800000001
 10
1.769461999999997
 20
22.41544900000001
 10
1.860061999999999
 20
21.984393
 10
1.746203000000001
 20
21.911051
 10
1.617959999999997
 20
21.89686200000001
 10
1.485948
 20
21.96495
 10
1.407083999999998
 20
22.117499
 10
1.348489000000001
 20
22.517579
 10
1.384410000000003
 20
22.988254
 10
1.384614999999997
 20
22.98832
  0
LWPOLYLINE
  5
6C
100
AcDbEntity
  8
0
  6
ByLayer
 62
  256
370
   -1
100
AcDbPolyline
 90
   24
 70
    1
 43
0
 10
4.583064999999998
 20
24.78250300000001
 10
4.296548999999999
 20
24.63246300000002
 10
3.909401000000003
 20
24.635868
 10
1.023356999999997
 20
25.164475
 10
1.015794999999997
 20
25.26005600000001
 10
1.023170999999998
 20
25.40318700000002
 10
1.112909000000002
 20
25.58456199999999
 10
1.288643999999998
 20
25.61831200000002
 10
1.987366000000002
 20
25.490334
 10
2.169873000000003
 20
26.48677100000002
 10
2.261660999999997
 20
26.507637
 10
2.374366000000002
 20
26.50583400000001
 10
2.54757
 20
26.28571800000002
 10
2.388379999999998
 20
25.416588
 10
3.968102000000002
 20
25.127246
 10
4.338901999999997
 20
25.197435
 10
4.507291000000002
 20
25.56849100000001
 10
4.513125000000002
 20
25.806056
 10
4.466965000000002
 20
26.034306
 10
4.570354000000002
 20
26.08449600000002
 10
4.703521000000002
 20
26.09155300000002
 10
4.893318000000001
 20
25.893512
 10
4.898302000000001
 20
25.44045900000002
 10
4.898293000000002
 20
25.44065400000001
  0
LWPOLYLINE
  5
6D
100
AcDbEntity
  8
0
  6
ByLayer
 62
  256
370
   -1
100
AcDbPolyline
 90
    9
 70
    1
 43
0
 10
4.959939999999996
 20
28.280366
 10
4.901116000000002
 20
28.54232499999999
 10
4.020116000000002
 20
28.70368800000001
 10
3.961061000000001
 20
27.93582400000001
 10
4.021191999999999
 20
27.441267
 10
4.321469
 20
27.22928
 10
4.712209000000001
 20
27.339815
 10
4.931708
 20
27.85223700000002
 10
4.931807999999997
 20
27.85221800000001
  0
LWPOLYLINE
  5
6E
100
AcDbEntity
  8
0
  6
ByLayer
 62
  256
370
   -1
100
AcDbPolyline
 90
   27
 70
    1
 43
0
 10
2.751188999999997
 20
29.11228799999999
 10
3.099069
 20
29.28877000000001
 10
3.555278999999999
 20
29.28527699999999
 10
4.995264999999996
 20
29.021529
 10
5.191825000000001
 20
28.92900999999999
 10
5.291598
 20
28.75374800000002
 10
5.366197999999997
 20
28.33818700000002
 10
5.332923000000001
 20
27.779106
 10
4.945641999999999
 20
26.933196
 10
4.628141999999997
 20
26.75115000000001
 10
4.238760999999997
 20
26.74240200000001
 10
3.899841000000002
 20
26.87198500000001
 10
3.685099000000001
 20
27.11383400000001
 10
3.564569999999996
 20
27.89576699999999
 10
3.637484000000001
 20
28.77412700000001
 10
3.467363999999996
 20
28.80528600000001
 10
2.990442999999999
 20
28.704247
 10
2.760508000000002
 20
28.23770499999999
 10
2.745503999999997
 20
27.74436000000001
 10
2.836103999999999
 20
27.313304
 10
2.722245000000001
 20
27.23996200000001
 10
2.594001999999996
 20
27.22577300000002
 10
2.46199
 20
27.29386100000001
 10
2.383125999999997
 20
27.44641
 10
2.324531
 20
27.84649
 10
2.360452000000002
 20
28.317165
 10
2.360653999999997
 20
28.31721700000001
  0
LWPOLYLINE
  5
6F
100
AcDbEntity
  8
0
  6
ByLayer
 62
  256
370
   -1
100
AcDbPolyline
 90
   10
 70
    1
 43
0
 10
5.709519
 20
30.24712699999999
 10
5.703272999999996
 20
30.110167
 10
5.612701000000001
 20
29.92423800000002
 10
5.436689000000001
 20
29.88897100000001
 10
2.830131000000002
 20
30.36638700000002
 10
2.822567999999997
 20
30.461968
 10
2.829945000000002
 20
30.60510000000001
 10
2.921200999999996
 20
30.786197
 10
3.101487999999996
 20
30.819113
 10
5.701955999999996
 20
30.342708
  0
LWPOLYLINE
  5
70
100
AcDbEntity
  8
0
  6
ByLayer
 62
  256
370
   -1
100
AcDbPolyline
 90
    9
 70
    1
 43
0
 10
1.720512999999997
 20
30.58218900000001
 10
1.671664
 20
30.82977100000001
 10
1.803976999999996
 20
31.03788100000001
 10
2.032226999999999
 20
31.08404
 10
2.235369999999996
 20
30.95886700000001
 10
2.279305999999998
 20
30.718475
 10
2.151905999999997
 20
30.50317500000001
 10
1.917585000000003
 20
30.458128
 10
1.917585000000003
 20
30.458128
  0
LWPOLYLINE
  5
71
100
AcDbEntity
  8
0
  6
ByLayer
 62
  256
370
   -1
100
AcDbPolyline
 90
   21
 70
    1
 43
0
 10
-7.917037000000001
 20
31.168009
 10
-7.486810000000002
 20
32.24401999999999
 10
-6.704519000000001
 20
33.04376700000002
 10
-5.679422000000002
 20
33.49182
 10
-4.520777000000002
 20
33.512749
 10
5.525973
 20
31.672589
 10
6.584443999999998
 20
31.252886
 10
7.401730999999998
 20
30.46007100000001
 10
7.853408000000002
 20
29.414843
 10
7.870713000000002
 20
28.27632900000002
 10
0.9043929999999989
 20
-9.757795999999999
 10
0.4741649999999993
 20
-10.83380699999999
 10
-0.3081260000000015
 20
-11.63355399999999
 10
-1.333223
 20
-12.08160699999999
 10
-2.491866999999999
 20
-12.102536
 10
-12.538617
 20
-10.26237599999999
 10
-13.614629
 20
-9.832147999999989
 10
-14.414376
 20
-9.049858
 10
-14.862429
 20
-8.024760999999998
 10
-14.883357
 20
-6.866115999999991
 10
-14.883357
 20
-6.866115999999991
  0
ENDBLK
  5
51
330
4F
100
AcDbEntity
  8
0
100
AcDbBlockEnd
  0
BLOCK
  5
53
330
52
100
AcDbEntity
  8
0
100
AcDbBlockBegin
  2
texto
 70
    0
 10
0
 20
0
  3
texto
  1

  0
LWPOLYLINE
  5
72
100
AcDbEntity
  8
0
  6
ByLayer
 62
  256
370
   -1
100
AcDbPolyline
 90
    9
 70
    1
 43
0
 10
-7.703134349725561
 20
-1.663146275597001
 10
-7.112276349725562
 20
1.892543724402998
 10
-5.702161349725561
 20
1.892543724402998
 10
-5.861047349725562
 20
0.9453767244030047
 10
-6.347636349725562
 20
0.9453767244030047
 10
-6.407220349725561
 20
0.9302267244029991
 10
-6.44197234972556
 20
0.8694237244030063
 10
-5.87594034972556
 20
0.8694237244030063
 10
-6.297984349725562
 20
-1.663146275597001
  0
LWPOLYLINE
  5
73
100
AcDbEntity
  8
0
  6
ByLayer
 62
  256
370
   -1
100
AcDbPolyline
 90
    9
 70
    1
 43
0
 10
-5.503549349725562
 20
-1.663146275597001
 10
-4.912691349725561
 20
1.892543724402998
 10
-3.502577349725561
 20
1.892543724402998
 10
-3.661463349725562
 20
0.9453767244030047
 10
-4.148051349725561
 20
0.9453767244030047
 10
-4.20763534972556
 20
0.9302267244029991
 10
-4.242387349725561
 20
0.8694237244030063
 10
-3.676356349725561
 20
0.8694237244030063
 10
-4.098399349725561
 20
-1.663146275597001
  0
LWPOLYLINE
  5
74
100
AcDbEntity
  8
0
  6
ByLayer
 62
  256
370
   -1
100
AcDbPolyline
 90
    9
 70
    1
 43
0
 10
-3.30396534972556
 20
-1.663146275597001
 10
-2.713107349725561
 20
1.892543724402998
 10
-1.30299234972556
 20
1.892543724402998
 10
-1.46187934972556
 20
0.9453767244030047
 10
-1.948467349725561
 20
0.9453767244030047
 10
-2.008051349725561
 20
0.9302267244029991
 10
-2.042803349725562
 20
0.8694237244030063
 10
-1.476771349725562
 20
0.8694237244030063
 10
-1.898815349725561
 20
-1.663146275597001
  0
LWPOLYLINE
  5
75
100
AcDbEntity
  8
0
  6
ByLayer
 62
  256
370
   -1
100
AcDbPolyline
 90
   30
 70
    1
 43
0
 10
-0.1609913497255597
 20
-0.9641282755970053
 10
-0.1510603497255616
 20
-0.9083752755969954
 10
0.2262946502744398
 20
1.360783724403007
 10
0.3206306502744383
 20
1.614043724403004
 10
0.4795156502744398
 20
1.776119724403003
 10
0.6632286502744407
 20
1.862273724402996
 10
0.8320446502744403
 20
1.892674724402994
 10
3.994872650274438
 20
1.892674724402994
 10
3.835986650274439
 20
0.9455077244030008
 10
1.020721650274439
 20
0.9455077244030008
 10
0.9561776502744372
 20
0.9303577244029952
 10
0.9263866502744378
 20
0.8695547244030024
 10
1.49738365027444
 20
0.8695547244030024
 10
1.229262650274439
 20
-0.7158172755970043
 10
2.207406650274439
 20
-0.7158172755970043
 10
2.29181165027444
 20
-0.3004812755969937
 10
1.71088365027444
 20
-0.3004812755969937
 10
1.87970065027444
 20
0.646686724402997
 10
3.796264650274438
 20
0.646686724402997
 10
3.488423650274438
 20
-1.131163275597004
 10
3.394087650274439
 20
-1.384413275596998
 10
3.235200650274439
 20
-1.546500275596998
 10
3.05148865027444
 20
-1.637704275597002
 10
2.88267265027444
 20
-1.663055275597003
 10
0.4546936502744394
 20
-1.663055275597003
 10
0.2759466502744381
 20
-1.632654275597005
 10
0.07237365027443943
 20
-1.526289275596994
 10
-0.09147734972556165
 20
-1.328752275596997
 10
-0.1609923497255608
 20
-1.019779275597003
 10
-0.1609913497255597
 20
-1.019880275597004
  0
LWPOLYLINE
  5
76
100
AcDbEntity
  8
0
  6
ByLayer
 62
  256
370
   -1
100
AcDbPolyline
 90
    4
 70
    1
 43
0
 10
5.548982650274439
 20
-1.663146275597001
 10
4.143833650274438
 20
-1.663146275597001
 10
4.734691650274439
 20
1.892543724402998
 10
6.144805650274439
 20
1.892543724402998
  0
LWPOLYLINE
  5
77
100
AcDbEntity
  8
0
  6
ByLayer
 62
  256
370
   -1
100
AcDbPolyline
 90
   24
 70
    1
 43
0
 10
10.00276465027444
 20
1.892543724402998
 10
10.18151165027444
 20
1.857092724403003
 10
10.38508465027444
 20
1.750727724403006
 10
10.54893665027444
 20
1.553190724402995
 10
10.61845065027444
 20
1.249278724402998
 10
10.61349965027444
 20
1.193525724403003
 10
10.60854965027444
 20
1.137773724403004
 10
10.14182265027444
 20
-1.663227275596995
 10
8.791288650274439
 20
-1.663227275596995
 10
8.80618965027444
 20
-1.566973275596993
 10
8.835981650274437
 20
-1.404886275596994
 10
8.890594650274441
 20
-1.106044275597
 10
8.955138650274439
 20
-0.7160292755969948
 10
9.024653650274438
 20
-0.2804322755969935
 10
9.09912765027444
 20
0.1500947244030044
 10
9.158711650274437
 20
0.5147787244030013
 10
9.203393650274439
 20
0.773098724402999
 10
9.218294650274441
 20
0.8794737244029989
 10
9.18354265027444
 20
0.9250247244030021
 10
9.12395965027444
 20
0.9453257244030056
 10
8.081268650274438
 20
0.9453257244030056
 10
7.644331650274438
 20
-1.663196275597002
 10
6.29379965027444
 20
-1.663196275597002
 10
6.884623650274438
 20
1.892543724402998
  0
LWPOLYLINE
  5
78
100
AcDbEntity
  8
0
  6
ByLayer
 62
  256
370
   -1
100
AcDbPolyline
 90
   29
 70
    1
 43
0
 10
11.33343865027444
 20
-1.663146275597001
 10
11.15469265027444
 20
-1.632744275597005
 10
10.95111965027444
 20
-1.526380275597006
 10
10.78726765027444
 20
-1.328842275596998
 10
10.71775365027444
 20
-1.019870275597
 10
10.71775365027444
 20
-0.9641182755970021
 10
10.72768465027444
 20
-0.9083652755970064
 10
11.10503865027444
 20
1.360793724402996
 10
11.19937365027444
 20
1.614053724403007
 10
11.35826065027444
 20
1.776129724403006
 10
11.54197265027444
 20
1.862283724402999
 10
11.71078865027444
 20
1.892684724402997
 10
14.58563565027444
 20
1.892684724402997
 10
14.43171465027444
 20
0.945517724403004
 10
12.47046365027444
 20
0.945517724403004
 10
12.40591965027444
 20
0.9252167244030005
 10
12.37612765027444
 20
0.8847157244029944
 10
12.35626665027444
 20
0.7783507244029977
 10
12.32647465027444
 20
0.5909437244030045
 10
12.28179165027444
 20
0.3427537244029963
 10
12.23710865027444
 20
0.07430372440299493
 10
12.19242665027444
 20
-0.1992172755969932
 10
12.15270365027444
 20
-0.4271462755969964
 10
12.12788265027444
 20
-0.5841622755969951
 10
12.11795165027444
 20
-0.6500152755969992
 10
12.15270365027444
 20
-0.7007172755970004
 10
12.21228765027444
 20
-0.7158672755970059
 10
14.15367765027444
 20
-0.7158672755970059
 10
13.99478265027444
 20
-1.663146275597001
  0
LWPOLYLINE
  5
79
100
AcDbEntity
  8
0
  6
ByLayer
 62
  256
370
   -1
100
AcDbPolyline
 90
   12
 70
    1
 43
0
 10
15.43964565027444
 20
1.892543724402998
 10
17.34131365027444
 20
1.892543724402998
 10
17.51509565027444
 20
1.862142724403
 10
17.70873865027444
 20
1.765888724402998
 10
17.87258965027444
 20
1.588611724402995
 10
17.95699465027444
 20
1.320160724402996
 10
18.25490665027444
 20
-1.663176275596996
 10
16.96395565027444
 20
-1.663176275596996
 10
16.91430265027444
 20
-1.151596275597001
 10
15.92623365027444
 20
-1.151596275597001
 10
15.78720865027444
 20
-1.663176275596996
 10
14.49129365027444
 20
-1.663146275597001
  0
LWPOLYLINE
  5
7A
100
AcDbEntity
  8
0
  6
ByLayer
 62
  256
370
   -1
100
AcDbPolyline
 90
    6
 70
    1
 43
0
 10
16.71073465027444
 20
0.884593724403004
 10
16.68094265027444
 20
0.9250957244030076
 10
16.61639865027444
 20
0.9453967244029968
 10
16.48730065027444
 20
0.9453967244029968
 10
16.17945965027444
 20
-0.2043982755970006
 10
16.81996865027444
 20
-0.2043982755970006
  0
LWPOLYLINE
  5
7B
100
AcDbEntity
  8
0
  6
ByLayer
 62
  256
370
   -1
100
AcDbPolyline
 90
   24
 70
    1
 43
0
 10
22.26182365027444
 20
1.892543724402998
 10
22.44057065027444
 20
1.857092724403003
 10
22.64414365027444
 20
1.750727724403006
 10
22.80799465027444
 20
1.553190724402995
 10
22.87750965027444
 20
1.249278724402998
 10
22.87255865027444
 20
1.193525724403003
 10
22.86760865027444
 20
1.137773724403004
 10
22.40087965027444
 20
-1.663227275596995
 10
21.05034765027444
 20
-1.663227275596995
 10
21.06524865027444
 20
-1.566973275596993
 10
21.09504065027444
 20
-1.404886275596994
 10
21.14965365027444
 20
-1.106044275597
 10
21.21419765027444
 20
-0.7160292755969948
 10
21.28371165027444
 20
-0.2804322755969935
 10
21.35818665027444
 20
0.1500947244030044
 10
21.41776965027444
 20
0.5147787244030013
 10
21.46245265027444
 20
0.773098724402999
 10
21.47734365027444
 20
0.8794737244029989
 10
21.44259165027444
 20
0.9250247244030021
 10
21.38300765027444
 20
0.9453257244030056
 10
20.34031765027444
 20
0.9453257244030056
 10
19.90337965027444
 20
-1.663196275597002
 10
18.55284765027444
 20
-1.663196275597002
 10
19.14368265027444
 20
1.892543724402998
  0
LWPOLYLINE
  5
7C
100
AcDbEntity
  8
0
  6
ByLayer
 62
  256
370
   -1
100
AcDbPolyline
 90
   12
 70
    1
 43
0
 10
23.92516665027444
 20
1.892543724402998
 10
25.82683565027444
 20
1.892543724402998
 10
26.00061865027444
 20
1.862142724403
 10
26.19426065027444
 20
1.765888724402998
 10
26.35811265027444
 20
1.588611724402995
 10
26.44251765027444
 20
1.320160724402996
 10
26.74042865027444
 20
-1.663176275596996
 10
25.44947865027444
 20
-1.663176275596996
 10
25.39982565027444
 20
-1.151596275597001
 10
24.41175265027444
 20
-1.151596275597001
 10
24.27272765027444
 20
-1.663176275596996
 10
22.97681565027444
 20
-1.663146275597001
  0
LWPOLYLINE
  5
7D
100
AcDbEntity
  8
0
  6
ByLayer
 62
  256
370
   -1
100
AcDbPolyline
 90
    6
 70
    1
 43
0
 10
25.19625665027444
 20
0.884593724403004
 10
25.16646465027444
 20
0.9250957244030076
 10
25.10192065027444
 20
0.9453967244029968
 10
24.97282565027444
 20
0.9453967244029968
 10
24.66498365027444
 20
-0.2043782755969943
 10
25.30549065027444
 20
-0.2043982755970006
  0
LWPOLYLINE
  5
7E
100
AcDbEntity
  8
0
  6
ByLayer
 62
  256
370
   -1
100
AcDbPolyline
 90
    9
 70
    1
 43
0
 10
-12.01539334972556
 20
-7.994504275596995
 10
-11.42453534972556
 20
-4.438815275596994
 10
-10.01442034972556
 20
-4.438815275596994
 10
-10.17330634972556
 20
-5.385982275597001
 10
-10.65989534972556
 20
-5.385982275597001
 10
-10.71947834972556
 20
-5.401233275596994
 10
-10.75423434972556
 20
-5.462036275597001
 10
-10.18820234972556
 20
-5.462036275597001
 10
-10.61024334972556
 20
-7.994504275596995
  0
LWPOLYLINE
  5
7F
100
AcDbEntity
  8
0
  6
ByLayer
 62
  256
370
   -1
100
AcDbPolyline
 90
   24
 70
    1
 43
0
 10
-6.156462349725562
 20
-4.438815275596994
 10
-5.97771534972556
 20
-4.474266275597003
 10
-5.774142349725562
 20
-4.580640275597005
 10
-5.610291349725561
 20
-4.778178275597
 10
-5.540776349725562
 20
-5.082080275596994
 10
-5.545727349725562
 20
-5.137833275597004
 10
-5.550677349725561
 20
-5.193585275597002
 10
-6.017406349725562
 20
-7.994575275597001
 10
-7.367968349725562
 20
-7.994575275597001
 10
-7.353073349725561
 20
-7.898321275596999
 10
-7.323282349725561
 20
-7.736235275596997
 10
-7.268664349725562
 20
-7.437393275597003
 10
-7.204117349725561
 20
-7.047388275597001
 10
-7.134605349725561
 20
-6.611791275597
 10
-7.060131349725561
 20
-6.181254275596999
 10
-7.000547349725561
 20
-5.816569275597004
 10
-6.955864349725561
 20
-5.558249275597007
 10
-6.940963349725561
 20
-5.451885275596993
 10
-6.975716349725561
 20
-5.406334275597004
 10
-7.035299349725561
 20
-5.386032275597003
 10
-8.077991349725561
 20
-5.386032275597003
 10
-8.514928349725562
 20
-7.994504275596995
 10
-9.865460349725561
 20
-7.994504275596995
 10
-9.274602349725562
 20
-4.438815275596994
  0
LWPOLYLINE
  5
80
100
AcDbEntity
  8
0
  6
ByLayer
 62
  256
370
   -1
100
AcDbPolyline
 90
    8
 70
    1
 43
0
 10
-5.183278349725562
 20
-4.438815275596994
 10
-1.583512349725561
 20
-4.438815275596994
 10
-1.742399349725561
 20
-5.385982275597001
 10
-2.849636349725561
 20
-5.385982275597001
 10
-3.281609349725562
 20
-7.994504275596995
 10
-4.632141349725561
 20
-7.994504275596995
 10
-4.195204349725561
 20
-5.385982275597001
 10
-5.342163349725562
 20
-5.385982275597001
  0
LWPOLYLINE
  5
81
100
AcDbEntity
  8
0
  6
ByLayer
 62
  256
370
   -1
100
AcDbPolyline
 90
   31
 70
    1
 43
0
 10
-0.2379533497255615
 20
-6.713004275597001
 10
-0.2528443497255601
 20
-6.794007275596996
 10
-0.2627753497255618
 20
-6.864909275597
 10
-0.2727053497255625
 20
-6.920662275596996
 10
-0.2776563497255609
 20
-6.956113275597005
 10
-0.2826063497255618
 20
-6.981464275597006
 10
-0.2478543497255608
 20
-7.032167275597004
 10
-0.1882713497255608
 20
-7.047418275596996
 10
1.638920650274439
 20
-7.047418275596996
 10
1.480033650274439
 20
-7.994585275597004
 10
-1.067109349725561
 20
-7.994585275597004
 10
-1.24585634972556
 20
-7.964184275597006
 10
-1.449429349725561
 20
-7.857820275596993
 10
-1.613280349725562
 20
-7.660282275596998
 10
-1.682795349725561
 20
-7.351310275597001
 10
-1.682795349725561
 20
-7.295557275597005
 10
-1.672864349725561
 20
-7.239805275596993
 10
-1.295509349725561
 20
-4.970646275597005
 10
-1.201173349725561
 20
-4.717396275596997
 10
-1.04228834972556
 20
-4.555309275596997
 10
-0.8585753497255624
 20
-4.469155275597004
 10
-0.6897593497255627
 20
-4.438754275597006
 10
2.075852650274438
 20
-4.438754275597006
 10
1.91696765027444
 20
-5.385921275596999
 10
0.06991465027443766
 20
-5.385921275596999
 10
0.005370650274439726
 20
-5.406223275597
 10
-0.02442134972556076
 20
-5.446724275597006
 10
-0.0641433497255619
 20
-5.684783275596999
 10
1.534648650274438
 20
-5.684783275596999
 10
1.365832650274438
 20
-6.631961275596993
 10
-0.2230523497255597
 20
-6.632001275597005
  0
LWPOLYLINE
  5
82
100
AcDbEntity
  8
0
  6
ByLayer
 62
  256
370
   -1
100
AcDbPolyline
 90
   26
 70
    1
 43
0
 10
3.565391650274439
 20
-7.047337275597002
 10
4.543534650274438
 20
-7.047337275597002
 10
4.627939650274438
 20
-6.632001275597005
 10
4.047015650274439
 20
-6.632001275597005
 10
4.215831650274438
 20
-5.684824275596995
 10
6.13239665027444
 20
-5.684824275596995
 10
5.82455465027444
 20
-7.462674275596996
 10
5.730218650274438
 20
-7.715924275597004
 10
5.571331650274438
 20
-7.878010275597006
 10
5.387619650274438
 20
-7.969214275596997
 10
5.218803650274438
 20
-7.994565275596997
 10
2.790824650274438
 20
-7.994565275596997
 10
2.61207765027444
 20
-7.964164275597
 10
2.408504650274438
 20
-7.857800275597
 10
2.24465365027444
 20
-7.660262275597006
 10
2.175139650274438
 20
-7.351290275596995
 10
2.175139650274438
 20
-7.295537275596999
 10
2.185069650274439
 20
-7.239785275597001
 10
2.562424650274441
 20
-4.970625275597001
 10
2.656760650274439
 20
-4.717376275597005
 10
2.815646650274438
 20
-4.555289275597005
 10
2.999358650274438
 20
-4.469135275596997
 10
3.168174650274437
 20
-4.438734275597
 10
6.331002650274439
 20
-4.438734275597
 10
6.17211665027444
 20
-5.385901275596993
 10
3.843441650274439
 20
-5.385982275597001
  0
LWPOLYLINE
  5
83
100
AcDbEntity
  8
0
  6
ByLayer
 62
  256
370
   -1
100
AcDbPolyline
 90
   19
 70
    1
 43
0
 10
7.021166650274438
 20
-4.438815275596994
 10
9.91090865027444
 20
-4.438815275596994
 10
10.08965565027444
 20
-4.474266275597003
 10
10.29322865027444
 20
-4.580640275597005
 10
10.45707965027444
 20
-4.778178275597
 10
10.52659365027444
 20
-5.082080275596994
 10
10.52659365027444
 20
-5.137833275597004
 10
10.51666365027444
 20
-5.193585275597002
 10
10.29819465027444
 20
-6.500376275597006
 10
10.21875065027444
 20
-6.733366275596993
 10
10.07972565027444
 20
-6.890392275596994
 10
9.91090865027444
 20
-6.986646275596996
 10
9.752022650274441
 20
-7.027147275597002
 10
9.945664650274438
 20
-7.994575275597001
 10
8.70933265027444
 20
-7.994575275597001
 10
8.515689650274439
 20
-7.032207275597003
 10
7.939727650274438
 20
-7.032207275597003
 10
7.780840650274438
 20
-7.994575275597001
 10
6.430308650274441
 20
-7.994504275596995
  0
LWPOLYLINE
  5
84
100
AcDbEntity
  8
0
  6
ByLayer
 62
  256
370
   -1
100
AcDbPolyline
 90
   14
 70
    1
 43
0
 10
9.00227465027444
 20
-6.064668275597001
 10
9.032066650274437
 20
-6.024167275596994
 10
9.05192765027444
 20
-5.907672275596994
 10
9.08171965027444
 20
-5.715195275596997
 10
9.111511650274441
 20
-5.532848275597004
 10
9.116462650274439
 20
-5.497396275596998
 10
9.12141265027444
 20
-5.466995275597
 10
9.126362650274437
 20
-5.456895275597006
 10
9.126362650274437
 20
-5.451845275596995
 10
9.09161065027444
 20
-5.406293275596994
 10
9.03202765027444
 20
-5.385992275597005
 10
8.217735650274438
 20
-5.385992275597005
 10
8.098570650274439
 20
-6.084980275597005
 10
8.93773165027444
 20
-6.084969275597004
  0
LWPOLYLINE
  5
85
100
AcDbEntity
  8
0
  6
ByLayer
 62
  256
370
   -1
100
AcDbPolyline
 90
   12
 70
    1
 43
0
 10
11.47493965027444
 20
-4.438815275596994
 10
13.37660865027444
 20
-4.438815275596994
 10
13.55039065027444
 20
-4.469216275597006
 10
13.74403265027444
 20
-4.565470275596994
 10
13.90788365027444
 20
-4.742747275596997
 10
13.99228865027444
 20
-5.011198275596996
 10
14.29020165027444
 20
-7.994535275597002
 10
12.99925065027444
 20
-7.994535275597002
 10
12.94959765027444
 20
-7.482965275596996
 10
11.96152465027444
 20
-7.482965275596996
 10
11.82249865027444
 20
-7.994535275597002
 10
10.52658765027444
 20
-7.994504275596995
  0
LWPOLYLINE
  5
86
100
AcDbEntity
  8
0
  6
ByLayer
 62
  256
370
   -1
100
AcDbPolyline
 90
    6
 70
    1
 43
0
 10
12.74602965027444
 20
-5.446764275597005
 10
12.71623765027444
 20
-5.406263275596999
 10
12.65169365027444
 20
-5.385962275596995
 10
12.52259865027444
 20
-5.385962275596995
 10
12.21475565027444
 20
-6.535737275597
 10
12.85526265027444
 20
-6.535757275596993
  0
LWPOLYLINE
  5
87
100
AcDbEntity
  8
0
  6
ByLayer
 62
  256
370
   -1
100
AcDbPolyline
 90
   17
 70
    1
 43
0
 10
17.22464065027444
 20
-5.391012275597006
 10
17.18988865027444
 20
-5.385962275596995
 10
16.37559665027444
 20
-5.385962275596995
 10
16.09754665027444
 20
-7.047317275596996
 10
16.93666365027444
 20
-7.047317275596996
 10
16.99624665027444
 20
-7.032066275597003
 10
17.02603865027444
 20
-6.986515275597
 10
17.04589965027444
 20
-6.885211275597001
 10
17.07569165027444
 20
-6.692733275596993
 10
17.12037465027444
 20
-6.449613275597002
 10
17.16505765027444
 20
-6.176103275597001
 10
17.20973965027444
 20
-5.907652275597002
 10
17.24946265027444
 20
-5.679723275596999
 10
17.27429365027444
 20
-5.517637275596996
 10
17.28422465027444
 20
-5.451784275597007
 10
17.25940265027444
 20
-5.411283275597
 10
17.25939265027444
 20
-5.411313275596996
  0
LWPOLYLINE
  5
88
100
AcDbEntity
  8
0
  6
ByLayer
 62
  256
370
   -1
100
AcDbPolyline
 90
   15
 70
    1
 43
0
 10
18.68440265027444
 20
-5.137833275597004
 10
18.67447265027444
 20
-5.193585275597002
 10
18.29711765027444
 20
-7.462744275597004
 10
18.20278165027444
 20
-7.715994275596998
 10
18.04389565027444
 20
-7.878081275596998
 10
17.86018365027444
 20
-7.969285275597002
 10
17.69136665027444
 20
-7.994636275597003
 10
14.58812165027444
 20
-7.994636275597003
 10
15.17897965027444
 20
-4.438946275597004
 10
18.06872165027444
 20
-4.438946275597004
 10
18.24746865027444
 20
-4.474397275596999
 10
18.45104165027444
 20
-4.580772275596999
 10
18.61489265027444
 20
-4.778309275596996
 10
18.68440665027444
 20
-5.082211275597004
 10
18.68440265027444
 20
-5.082080275596994
  0
LWPOLYLINE
  5
89
100
AcDbEntity
  8
0
  6
ByLayer
 62
  256
370
   -1
100
AcDbPolyline
 90
   30
 70
    1
 43
0
 10
20.48180165027444
 20
-5.553129275597001
 10
20.45200965027444
 20
-5.740546275596998
 10
20.41228665027444
 20
-5.988726275597003
 10
20.36760465027444
 20
-6.257176275597004
 10
20.32292165027444
 20
-6.530697275597007
 10
20.28816965027444
 20
-6.758626275596995
 10
20.26334765027444
 20
-6.915642275596994
 10
20.25341765027444
 20
-6.981495275596998
 10
20.25341765027444
 20
-7.001796275597002
 10
20.27823865027444
 20
-7.022097275597005
 10
20.31300065027444
 20
-7.042398275596994
 10
20.34279265027444
 20
-7.047448275597006
 10
21.37555265027444
 20
-7.047448275597006
 10
21.44009665027444
 20
-7.032197275596999
 10
21.46988865027444
 20
-6.986646275596996
 10
21.48478965027444
 20
-6.885342275596997
 10
21.51954165027444
 20
-6.692864275597003
 10
21.55926365027444
 20
-6.449745275596996
 10
21.60394665027444
 20
-6.176234275596997
 10
21.64862965027444
 20
-5.907783275596998
 10
21.68835165027444
 20
-5.679854275596995
 10
21.71317365027444
 20
-5.517768275596993
 10
21.72310365027444
 20
-5.451915275597003
 10
21.69828265027444
 20
-5.411414275596997
 10
21.66353065027444
 20
-5.391113275596993
 10
21.62877765027444
 20
-5.386063275596996
 10
20.59601765027444
 20
-5.386063275596996
 10
20.53147365027444
 20
-5.406364275596999
 10
20.50168165027444
 20
-5.446865275597006
 10
20.50166265027444
 20
-5.446764275597005
  0
LWPOLYLINE
  5
8A
100
AcDbEntity
  8
0
  6
ByLayer
 62
  256
370
   -1
100
AcDbPolyline
 90
   24
 70
    1
 43
0
 10
22.65159165027444
 20
-4.474266275597003
 10
22.85516365027444
 20
-4.580640275597005
 10
23.01901565027444
 20
-4.778178275597
 10
23.08852965027444
 20
-5.082080275596994
 10
23.08852965027444
 20
-5.137833275597004
 10
23.08357965027444
 20
-5.193585275597002
 10
22.70126065027444
 20
-7.462744275597004
 10
22.60692465027444
 20
-7.715994275596998
 10
22.44803765027444
 20
-7.878081275596998
 10
22.26432565027444
 20
-7.969285275597002
 10
22.09550965027444
 20
-7.994636275597003
 10
19.49871465027444
 20
-7.994636275597003
 10
19.31996765027444
 20
-7.964234275596993
 10
19.11639365027444
 20
-7.857870275596994
 10
18.95254265027444
 20
-7.660333275596997
 10
18.88302865027444
 20
-7.351360275597003
 10
18.88302865027444
 20
-7.295608275597004
 10
18.89295965027444
 20
-7.239855275596994
 10
19.27031465027444
 20
-4.970696275596993
 10
19.36464965027444
 20
-4.717446275596998
 10
19.52353565027444
 20
-4.555360275596996
 10
19.70724765027444
 20
-4.469206275597003
 10
19.87606465027444
 20
-4.438805275597005
 10
22.47284465027444
 20
-4.438815275596994
  0
LWPOLYLINE
  5
8B
100
AcDbEntity
  8
0
  6
ByLayer
 62
  256
370
   -1
100
AcDbPolyline
 90
   19
 70
    1
 43
0
 10
23.78365565027444
 20
-4.438815275596994
 10
26.67339765027444
 20
-4.438815275596994
 10
26.85214465027444
 20
-4.474266275597003
 10
27.05571665027444
 20
-4.580640275597005
 10
27.21956865027444
 20
-4.778178275597
 10
27.28908265027444
 20
-5.082080275596994
 10
27.28908265027444
 20
-5.137833275597004
 10
27.27915265027444
 20
-5.193585275597002
 10
27.06068365027444
 20
-6.500376275597006
 10
26.98123965027444
 20
-6.733366275596993
 10
26.84221365027444
 20
-6.890392275596994
 10
26.67339765027444
 20
-6.986646275596996
 10
26.51451065027444
 20
-7.027147275597002
 10
26.70815365027444
 20
-7.994575275597001
 10
25.47182065027444
 20
-7.994575275597001
 10
25.27817765027444
 20
-7.032207275597003
 10
24.70221565027444
 20
-7.032207275597003
 10
24.54332965027444
 20
-7.994575275597001
 10
23.19279765027444
 20
-7.994504275596995
  0
LWPOLYLINE
  5
8C
100
AcDbEntity
  8
0
  6
ByLayer
 62
  256
370
   -1
100
AcDbPolyline
 90
   14
 70
    1
 43
0
 10
25.76476365027444
 20
-6.064668275597001
 10
25.79455465027444
 20
-6.024167275596994
 10
25.81441665027444
 20
-5.907672275596994
 10
25.84420765027444
 20
-5.715195275596997
 10
25.87399965027444
 20
-5.532848275597004
 10
25.87895065027444
 20
-5.497396275596998
 10
25.88390065027444
 20
-5.466995275597
 10
25.88885165027444
 20
-5.456895275597006
 10
25.88885165027444
 20
-5.451845275596995
 10
25.85409865027444
 20
-5.406293275596994
 10
25.79451565027444
 20
-5.385992275597005
 10
24.98022365027444
 20
-5.385992275597005
 10
24.86105965027444
 20
-6.084980275597005
 10
25.70021965027444
 20
-6.084969275597004
  0
LWPOLYLINE
  5
8D
100
AcDbEntity
  8
0
  6
ByLayer
 62
  256
370
   -1
100
AcDbPolyline
 90
   12
 70
    1
 43
0
 10
28.23742765027444
 20
-4.438815275596994
 10
30.13909665027444
 20
-4.438815275596994
 10
30.31287865027444
 20
-4.469216275597006
 10
30.50652065027444
 20
-4.565470275596994
 10
30.67037165027444
 20
-4.742747275596997
 10
30.75477765027444
 20
-5.011198275596996
 10
31.05268965027444
 20
-7.994535275597002
 10
29.76174165027444
 20
-7.994535275597002
 10
29.71208865027444
 20
-7.482965275596996
 10
28.72401565027444
 20
-7.482965275596996
 10
28.58498965027444
 20
-7.994535275597002
 10
27.28907565027444
 20
-7.994504275596995
  0
LWPOLYLINE
  5
8E
100
AcDbEntity
  8
0
  6
ByLayer
 62
  256
370
   -1
100
AcDbPolyline
 90
    6
 70
    1
 43
0
 10
29.50851765027444
 20
-5.446764275597005
 10
29.47872565027444
 20
-5.406263275596999
 10
29.41418165027444
 20
-5.385962275596995
 10
29.28508665027444
 20
-5.385962275596995
 10
28.97724465027444
 20
-6.535737275597
 10
29.61775165027444
 20
-6.535757275596993
  0
LWPOLYLINE
  5
8F
100
AcDbEntity
  8
0
  6
ByLayer
 62
  256
370
   -1
100
AcDbPolyline
 90
   17
 70
    1
 43
0
 10
-7.901745349725561
 20
-11.722371275597
 10
-7.93650134972556
 20
-11.717321275597
 10
-8.75079334972556
 20
-11.717321275597
 10
-9.028844349725562
 20
-13.378666275597
 10
-8.189726349725561
 20
-13.378666275597
 10
-8.130144349725562
 20
-13.36351627559699
 10
-8.100353349725561
 20
-13.31796427559701
 10
-8.080492349725562
 20
-13.21666027559699
 10
-8.050701349725561
 20
-13.024193275597
 10
-8.006014349725561
 20
-12.78106327559701
 10
-7.96132834972556
 20
-12.50755227559699
 10
-7.916641349725561
 20
-12.23910227559701
 10
-7.876919349725561
 20
-12.011173275597
 10
-7.852094349725562
 20
-11.849086275597
 10
-7.842163349725562
 20
-11.783234275597
 10
-7.866989349725561
 20
-11.74273227559699
 10
-7.866989349725561
 20
-11.742672275597
  0
LWPOLYLINE
  5
90
100
AcDbEntity
  8
0
  6
ByLayer
 62
  256
370
   -1
100
AcDbPolyline
 90
   15
 70
    1
 43
0
 10
-6.44197934972556
 20
-11.469191275597
 10
-6.45191034972556
 20
-11.52494427559699
 10
-6.829265349725562
 20
-13.794103275597
 10
-6.923600349725561
 20
-14.04736327559699
 10
-7.082487349725561
 20
-14.20943927559701
 10
-7.266199349725561
 20
-14.300643275597
 10
-7.43501534972556
 20
-14.32599527559699
 10
-10.53826334972556
 20
-14.32599527559699
 10
-9.94740534972556
 20
-10.770305275597
 10
-7.05766334972556
 20
-10.770305275597
 10
-6.878916349725561
 20
-10.80575627559701
 10
-6.67534334972556
 20
-10.912120275597
 10
-6.511491349725562
 20
-11.109658275597
 10
-6.441977349725562
 20
-11.41356027559699
 10
-6.44197934972556
 20
-11.413439275597
  0
LWPOLYLINE
  5
91
100
AcDbEntity
  8
0
  6
ByLayer
 62
  256
370
   -1
100
AcDbPolyline
 90
   30
 70
    1
 43
0
 10
-4.644581349725561
 20
-11.884497275597
 10
-4.67437234972556
 20
-12.071905275597
 10
-4.714095349725561
 20
-12.320095275597
 10
-4.758778349725562
 20
-12.588545275597
 10
-4.803460349725562
 20
-12.862056275597
 10
-4.838212349725561
 20
-13.089985275597
 10
-4.863034349725561
 20
-13.247001275597
 10
-4.872965349725561
 20
-13.312854275597
 10
-4.872965349725561
 20
-13.33315527559699
 10
-4.848133349725561
 20
-13.353456275597
 10
-4.81338134972556
 20
-13.373656275597
 10
-4.783589349725561
 20
-13.378706275597
 10
-3.750829349725562
 20
-13.378706275597
 10
-3.68628534972556
 20
-13.36355627559701
 10
-3.656493349725562
 20
-13.318005275597
 10
-3.641593349725561
 20
-13.216701275597
 10
-3.606840349725561
 20
-13.024233275597
 10
-3.567118349725561
 20
-12.781103275597
 10
-3.52243534972556
 20
-12.507593275597
 10
-3.47775334972556
 20
-12.239142275597
 10
-3.438030349725562
 20
-12.011213275597
 10
-3.413209349725561
 20
-11.849127275597
 10
-3.403278349725561
 20
-11.78327427559699
 10
-3.428100349725561
 20
-11.742773275597
 10
-3.46285234972556
 20
-11.722472275597
 10
-3.497604349725561
 20
-11.717422275597
 10
-4.530364349725561
 20
-11.717422275597
 10
-4.594908349725561
 20
-11.73772327559701
 10
-4.624700349725561
 20
-11.778224275597
 10
-4.624719349725561
 20
-11.778123275597
  0
LWPOLYLINE
  5
92
100
AcDbEntity
  8
0
  6
ByLayer
 62
  256
370
   -1
100
AcDbPolyline
 90
   24
 70
    1
 43
0
 10
-2.47479134972556
 20
-10.805625275597
 10
-2.271218349725562
 20
-10.91198927559699
 10
-2.107367349725561
 20
-11.109527275597
 10
-2.037853349725561
 20
-11.413429275597
 10
-2.037853349725561
 20
-11.46918127559699
 10
-2.042803349725562
 20
-11.524934275597
 10
-2.425123349725562
 20
-13.79409327559699
 10
-2.519459349725562
 20
-14.047353275597
 10
-2.678345349725561
 20
-14.209429275597
 10
-2.862057349725561
 20
-14.30063327559699
 10
-3.03087334972556
 20
-14.32598427559699
 10
-5.627688349725561
 20
-14.32598427559699
 10
-5.806435349725561
 20
-14.295583275597
 10
-6.010009349725561
 20
-14.189219275597
 10
-6.173860349725562
 20
-13.991681275597
 10
-6.243374349725562
 20
-13.68270927559701
 10
-6.243374349725562
 20
-13.62695727559699
 10
-6.233443349725562
 20
-13.571204275597
 10
-5.85608834972556
 20
-11.30203527559699
 10
-5.761753349725561
 20
-11.048785275597
 10
-5.60286734972556
 20
-10.886698275597
 10
-5.41915534972556
 20
-10.800545275597
 10
-5.250337349725561
 20
-10.77014327559699
 10
-2.653538349725562
 20
-10.770174275597
  0
LWPOLYLINE
  5
93
100
AcDbEntity
  8
0
  6
ByLayer
 62
  256
370
   -1
100
AcDbPolyline
 90
    9
 70
    1
 43
0
 10
-0.8908913497255604
 20
-14.325863275597
 10
-0.3000333497255596
 20
-10.770174275597
 10
1.110081650274438
 20
-10.770174275597
 10
0.951195650274439
 20
-11.717351275597
 10
0.4646076502744378
 20
-11.717351275597
 10
0.4050236502744404
 20
-11.732501275597
 10
0.3702716502744394
 20
-11.793304275597
 10
0.9363026502744383
 20
-11.793304275597
 10
0.5142586502744386
 20
-14.325863275597
  0
LWPOLYLINE
  5
94
100
AcDbEntity
  8
0
  6
ByLayer
 62
  256
370
   -1
100
AcDbPolyline
 90
   17
 70
    1
 43
0
 10
2.495377650274438
 20
-11.732501275597
 10
2.465585650274438
 20
-11.793304275597
 10
3.031618650274439
 20
-11.793304275597
 10
2.92734965027444
 20
-12.416308275597
 10
4.511245650274439
 20
-12.416308275597
 10
4.33746365027444
 20
-13.363485275597
 10
2.768463650274438
 20
-13.363485275597
 10
2.609576650274438
 20
-14.32584327559699
 10
1.25904465027444
 20
-14.32584327559699
 10
1.765494650274437
 20
-11.30198427559699
 10
1.859830650274439
 20
-11.048734275597
 10
2.018715650274437
 20
-10.886648275597
 10
2.202427650274441
 20
-10.800494275597
 10
2.371245650274439
 20
-10.77009327559701
 10
5.017692650274437
 20
-10.77009327559701
 10
4.858806650274438
 20
-11.717270275597
 10
2.55992165027444
 20
-11.717351275597
  0
LWPOLYLINE
  5
95
100
AcDbEntity
  8
0
  6
ByLayer
 62
  256
370
   -1
100
AcDbPolyline
 90
   30
 70
    1
 43
0
 10
5.116997650274438
 20
-13.62684527559701
 10
5.12692865027444
 20
-13.57109327559699
 10
5.504283650274438
 20
-11.301924275597
 10
5.598618650274439
 20
-11.04867427559699
 10
5.757504650274438
 20
-10.88658727559699
 10
5.941216650274438
 20
-10.800433275597
 10
6.110032650274437
 20
-10.770032275597
 10
9.272860650274438
 20
-10.770032275597
 10
9.113974650274439
 20
-11.717209275597
 10
6.29871065027444
 20
-11.717209275597
 10
6.234166650274439
 20
-11.732360275597
 10
6.204374650274438
 20
-11.793162275597
 10
6.775372650274438
 20
-11.793162275597
 10
6.507252650274438
 20
-13.378534275597
 10
7.48539465027444
 20
-13.378534275597
 10
7.56979965027444
 20
-12.96319827559699
 10
6.988872650274438
 20
-12.96319827559699
 10
7.157688650274437
 20
-12.016021275597
 10
9.074253650274439
 20
-12.016021275597
 10
8.766411650274438
 20
-13.793871275597
 10
8.672076650274438
 20
-14.047131275597
 10
8.513189650274438
 20
-14.209207275597
 10
8.329477650274438
 20
-14.300411275597
 10
8.160660650274441
 20
-14.325762275597
 10
5.73268165027444
 20
-14.325762275597
 10
5.55393565027444
 20
-14.295361275597
 10
5.35036165027444
 20
-14.188997275597
 10
5.186510650274439
 20
-13.99145927559699
 10
5.116996650274437
 20
-13.682487275597
 10
5.116997650274438
 20
-13.682598275597
  0
LWPOLYLINE
  5
96
100
AcDbEntity
  8
0
  6
ByLayer
 62
  256
370
   -1
100
AcDbPolyline
 90
    4
 70
    1
 43
0
 10
12.71871265027444
 20
-13.019072275597
 10
10.36521165027444
 20
-13.019072275597
 10
10.52409765027444
 20
-12.076965275597
 10
12.87759965027444
 20
-12.076965275597
  0
LWPOLYLINE
  5
97
100
AcDbEntity
  8
0
  6
ByLayer
 62
  256
370
   -1
100
AcDbPolyline
 90
   37
 70
    1
 43
0
 10
14.26786165027444
 20
-12.548023275597
 10
14.36219765027444
 20
-12.29476327559701
 10
14.52108465027444
 20
-12.13268727559699
 10
14.70479665027444
 20
-12.046533275597
 10
14.87361265027444
 20
-12.016132275597
 10
16.20428365027444
 20
-12.016132275597
 10
16.26386765027444
 20
-12.000982275597
 10
16.29365965027444
 20
-11.955430275597
 10
16.30358965027444
 20
-11.90987927559699
 10
16.31352065027444
 20
-11.85917627559699
 10
16.32345065027444
 20
-11.813625275597
 10
16.32345065027444
 20
-11.78322427559699
 10
16.31850065027444
 20
-11.76292227559701
 10
16.29863965027444
 20
-11.742621275597
 10
16.26388765027444
 20
-11.722320275597
 10
16.22913465027444
 20
-11.717270275597
 10
14.40690865027444
 20
-11.717270275597
 10
14.56083065027444
 20
-10.77009327559701
 10
17.10797365027444
 20
-10.77009327559701
 10
17.28672165027444
 20
-10.805544275597
 10
17.49029365027444
 20
-10.911908275597
 10
17.65911065027444
 20
-11.10944627559699
 10
17.72862465027444
 20
-11.413348275597
 10
17.72367365027444
 20
-11.469100275597
 10
17.71872365027444
 20
-11.524853275597
 10
17.56480265027444
 20
-12.43150927559699
 10
17.47046665027444
 20
-12.684759275597
 10
17.31158065027444
 20
-12.846845275597
 10
17.12786865027444
 20
-12.938049275597
 10
16.95905265027444
 20
-12.963400275597
 10
15.62838065027444
 20
-12.963400275597
 10
15.56383665027444
 20
-12.983701275597
 10
15.53900465027444
 20
-13.024203275597
 10
15.47942065027444
 20
-13.378757275597
 10
17.40591665027444
 20
-13.378757275597
 10
17.25199465027444
 20
-14.325924275597
 10
13.96995065027444
 20
-14.325863275597
  0
LWPOLYLINE
  5
98
100
AcDbEntity
  8
0
  6
ByLayer
 62
  256
370
   -1
100
AcDbPolyline
 90
   24
 70
    1
 43
0
 10
18.26484465027444
 20
-14.295462275597
 10
18.06127165027444
 20
-14.189098275597
 10
17.89741965027444
 20
-13.991560275597
 10
17.82790565027444
 20
-13.682588275597
 10
17.82790565027444
 20
-13.626835275597
 10
17.83783665027444
 20
-13.571083275597
 10
18.21519065027444
 20
-11.301914275597
 10
18.30952565027444
 20
-11.04866427559701
 10
18.46841265027444
 20
-10.88657727559701
 10
18.65212465027444
 20
-10.800423275597
 10
18.82094165027444
 20
-10.770022275597
 10
21.19430365027444
 20
-10.770022275597
 10
21.37305065027444
 20
-10.805473275597
 10
21.57662265027444
 20
-10.91183827559701
 10
21.74047365027444
 20
-11.109375275597
 10
21.80998865027444
 20
-11.413277275597
 10
21.80503765027444
 20
-11.46903027559699
 10
21.80008765027444
 20
-11.524782275597
 10
21.42273265027444
 20
-13.793942275597
 10
21.32342965027444
 20
-14.047202275597
 10
21.16454265027444
 20
-14.209278275597
 10
20.98083065027444
 20
-14.30048227559701
 10
20.81201465027444
 20
-14.32583327559701
 10
18.44359165027444
 20
-14.325863275597
  0
LWPOLYLINE
  5
99
100
AcDbEntity
  8
0
  6
ByLayer
 62
  256
370
   -1
100
AcDbPolyline
 90
    5
 70
    1
 43
0
 10
20.10196665027444
 20
-13.37869627559699
 10
20.16154965027444
 20
-13.363546275597
 10
20.19134165027444
 20
-13.317994275597
 10
20.40980965027444
 20
-12.284714275597
 10
19.40683865027444
 20
-13.37869627559699
  0
LWPOLYLINE
  5
9A
100
AcDbEntity
  8
0
  6
ByLayer
 62
  256
370
   -1
100
AcDbPolyline
 90
    5
 70
    1
 43
0
 10
19.53593365027444
 20
-11.717351275597
 10
19.47634965027444
 20
-11.737652275597
 10
19.44655865027444
 20
-11.77815327559701
 10
19.22808965027444
 20
-12.872216275597
 10
20.29064365027444
 20
-11.717351275597
  0
LWPOLYLINE
  5
9B
100
AcDbEntity
  8
0
  6
ByLayer
 62
  256
370
   -1
100
AcDbPolyline
 90
   37
 70
    1
 43
0
 10
22.20720965027444
 20
-12.548023275597
 10
22.30154565027444
 20
-12.29476327559701
 10
22.46043165027444
 20
-12.13268727559699
 10
22.64414365027444
 20
-12.046533275597
 10
22.81296065027444
 20
-12.016132275597
 10
24.14363265027444
 20
-12.016132275597
 10
24.20321565027444
 20
-12.000982275597
 10
24.23300765027444
 20
-11.955430275597
 10
24.24293865027444
 20
-11.90987927559699
 10
24.25286865027444
 20
-11.85917627559699
 10
24.26279965027444
 20
-11.813625275597
 10
24.26279965027444
 20
-11.78322427559699
 10
24.25784965027444
 20
-11.76292227559701
 10
24.23798765027444
 20
-11.742621275597
 10
24.20323565027444
 20
-11.722320275597
 10
24.16848365027444
 20
-11.717270275597
 10
22.34623465027444
 20
-11.717270275597
 10
22.50015665027444
 20
-10.77009327559701
 10
25.04730065027444
 20
-10.77009327559701
 10
25.22604765027444
 20
-10.805544275597
 10
25.42961965027444
 20
-10.911908275597
 10
25.59843565027444
 20
-11.10944627559699
 10
25.66795065027444
 20
-11.413348275597
 10
25.66299965027444
 20
-11.469100275597
 10
25.65804965027444
 20
-11.524853275597
 10
25.50412765027444
 20
-12.43150927559699
 10
25.40979265027444
 20
-12.684759275597
 10
25.25090565027444
 20
-12.846845275597
 10
25.06719365027444
 20
-12.938049275597
 10
24.89837665027444
 20
-12.963400275597
 10
23.56770465027444
 20
-12.963400275597
 10
23.50316065027444
 20
-12.983701275597
 10
23.47832965027444
 20
-13.024203275597
 10
23.41874565027444
 20
-13.378757275597
 10
25.34524065027444
 20
-13.378757275597
 10
25.19131865027444
 20
-14.325924275597
 10
21.90929865027444
 20
-14.325863275597
  0
LWPOLYLINE
  5
9C
100
AcDbEntity
  8
0
  6
ByLayer
 62
  256
370
   -1
100
AcDbPolyline
 90
   30
 70
    1
 43
0
 10
26.20419165027444
 20
-14.295462275597
 10
26.00061965027444
 20
-14.189098275597
 10
25.83676865027444
 20
-13.991560275597
 10
25.76725465027444
 20
-13.682588275597
 10
25.76725465027444
 20
-13.626835275597
 10
25.77718465027444
 20
-13.571083275597
 10
26.15453965027444
 20
-11.301914275597
 10
26.24887565027444
 20
-11.04866427559701
 10
26.40776265027444
 20
-10.88657727559701
 10
26.59147465027444
 20
-10.800423275597
 10
26.76029065027444
 20
-10.770022275597
 10
29.52590365027444
 20
-10.770022275597
 10
29.36701665027444
 20
-11.717199275597
 10
27.51996465027444
 20
-11.717199275597
 10
27.45542065027444
 20
-11.737501275597
 10
27.42562965027444
 20
-11.778002275597
 10
27.38590665027444
 20
-12.016061275597
 10
28.67685765027444
 20
-12.016061275597
 10
28.85560465027444
 20
-12.051513275597
 10
29.05917665027444
 20
-12.157877275597
 10
29.22302865027444
 20
-12.355415275597
 10
29.29254265027444
 20
-12.65932727559699
 10
29.29254265027444
 20
-12.720129275597
 10
29.28261265027444
 20
-12.770832275597
 10
29.11379565027444
 20
-13.793982275597
 10
29.01946065027444
 20
-14.047242275597
 10
28.86057465027444
 20
-14.209318275597
 10
28.67686265027444
 20
-14.300522275597
 10
28.50804565027444
 20
-14.325873275597
 10
26.38293865027444
 20
-14.325863275597
  0
LWPOLYLINE
  5
9D
100
AcDbEntity
  8
0
  6
ByLayer
 62
  256
370
   -1
100
AcDbPolyline
 90
   10
 70
    1
 43
0
 10
27.15750765027444
 20
-13.37869627559699
 10
27.75333165027444
 20
-13.37869627559699
 10
27.81291465027444
 20
-13.363546275597
 10
27.84270665027444
 20
-13.317994275597
 10
27.88738965027444
 20
-13.07487527559699
 10
27.89233965027444
 20
-13.02932427559701
 10
27.88738965027444
 20
-13.009022275597
 10
27.86752865027444
 20
-12.988721275597
 10
27.79801365027444
 20
-12.963370275597
 10
27.22702265027444
 20
-12.963360275597
  0
ENDBLK
  5
54
330
52
100
AcDbEntity
  8
0
100
AcDbBlockEnd
  0
BLOCK
  5
56
330
55
100
AcDbEntity
  8
0
100
AcDbBlockBegin
  2
chaveiro
 70
    0
 10
0
 20
0
  3
chaveiro
  1

  0
LWPOLYLINE
  5
9E
100
AcDbEntity
  8
0
  6
ByLayer
 62
  256
370
   -1
100
AcDbPolyline
 90
   21
 70
    1
 43
0
 10
2.533319000000006
 20
8.785717000000005
 10
3.263895999999988
 20
8.640395999999996
 10
3.883250000000004
 20
8.226557999999997
 10
4.297088000000002
 20
7.607203999999996
 10
4.442408999999998
 20
6.876626999999999
 10
4.442408999999998
 20
0.1948119999999989
 10
4.297088000000002
 20
-0.5357649999999978
 10
3.883250000000004
 20
-1.155118000000002
 10
3.263895999999988
 20
-1.568956999999997
 10
2.533319000000006
 20
-1.714277999999993
 10
-22.762123
 20
-1.714277999999993
 10
-23.4927
 20
-1.568956999999997
 10
-24.112054
 20
-1.155118000000002
 10
-24.525892
 20
-0.5357649999999978
 10
-24.67121299999999
 20
0.1948119999999989
 10
-24.67121299999999
 20
6.876626999999999
 10
-24.525892
 20
7.607203999999996
 10
-24.112054
 20
8.226557999999997
 10
-23.4927
 20
8.640395999999996
 10
-22.762123
 20
8.785717000000005
 10
-22.762123
 20
8.785717000000005
  0
LWPOLYLINE
  5
9F
100
AcDbEntity
  8
0
  6
ByLayer
 62
  256
370
   -1
100
AcDbPolyline
 90
   56
 70
    1
 43
0
 10
-21.305688
 20
0.1834819999999979
 10
-21.168291
 20
0.1632450000000034
 10
-20.93795900000001
 20
0.2238590000000045
 10
-20.772288
 20
0.3935769999999934
 10
-20.67125900000001
 20
0.6602769999999936
 10
-20.63890000000001
 20
0.9956659999999999
 10
-20.735882
 20
1.520989999999998
 10
-21.01470500000001
 20
1.929115999999993
 10
-21.447085
 20
2.191777999999999
 10
-22.016853
 20
2.288758999999999
 10
-22.65531900000001
 20
2.175617000000003
 10
-23.144266
 20
1.860426000000004
 10
-23.45137200000001
 20
1.371470000000002
 10
-23.56047599999999
 20
0.7410979999999938
 10
-23.459457
 20
0.1389999999999958
 10
-23.168511
 20
-0.3176260000000042
 10
-22.719971
 20
-0.6085709999999978
 10
-22.13808
 20
-0.7136279999999999
 10
-21.86734199999999
 20
-0.6933920000000029
 10
-21.669331
 20
-0.6530149999999963
 10
-21.616832
 20
-0.7782890000000009
 10
-21.73805900000001
 20
-0.9237619999999964
 10
-22.16235399999999
 20
-0.9762620000000055
 10
-22.865472
 20
-0.8550340000000034
 10
-23.40695700000001
 20
-0.5115509999999972
 10
-23.758515
 20
0.02588599999999985
 10
-23.879743
 20
0.7411270000000059
 10
-23.75043100000001
 20
1.484650999999999
 10
-23.37462600000001
 20
2.054418999999996
 10
-22.788698
 20
2.422148000000007
 10
-22.020929
 20
2.551450000000003
 10
-21.309726
 20
2.438308000000006
 10
-20.776326
 20
2.123116999999993
 10
-20.43689000000001
 20
1.630122999999998
 10
-20.3197
 20
0.9916659999999951
 10
-20.533872
 20
0.1794440000000037
 10
-20.79956199999999
 20
-0.03270799999999952
 10
-21.168291
 20
-0.1034259999999989
 10
-21.41883
 20
-0.06304799999999489
 10
-21.633002
 20
0.05414100000000133
 10
-21.835041
 20
-0.04687900000000411
 10
-22.11386299999999
 20
-0.08324700000000007
 10
-22.437139
 20
-0.03074700000000519
 10
-22.68363100000001
 20
0.1268490000000071
 10
-22.84122600000001
 20
0.3814260000000047
 10
-22.897831
 20
0.7249000000000052
 10
-22.833208
 20
1.112826999999996
 10
-22.643292
 20
1.403772000000004
 10
-22.35234699999999
 20
1.585612999999995
 10
-21.968457
 20
1.650236000000007
 10
-21.69367200000001
 20
1.617876999999993
 10
-21.467388
 20
1.537026999999995
 10
-21.301708
 20
1.339016000000001
 10
-21.305526
 20
1.278402
 10
-21.309344
 20
1.217788999999996
 10
-21.40670799999999
 20
0.235982000000007
  0
LWPOLYLINE
  5
A0
100
AcDbEntity
  8
0
  6
ByLayer
 62
  256
370
   -1
100
AcDbPolyline
 90
    9
 70
    1
 43
0
 10
-22.437139
 20
0.3208410000000015
 10
-22.069419
 20
0.1834530000000001
 10
-21.721898
 20
0.3046800000000047
 10
-21.620879
 20
1.306819000000004
 10
-21.778474
 20
1.359318999999999
 10
-21.988598
 20
1.383564000000007
 10
-22.408856
 20
1.209809000000007
 10
-22.566451
 20
0.7249000000000052
 10
-22.566451
 20
0.7249280000000056
  0
LWPOLYLINE
  5
A1
100
AcDbEntity
  8
0
  6
ByLayer
 62
  256
370
   -1
100
AcDbPolyline
 90
    8
 70
    1
 43
0
 10
-19.46303399999999
 20
-0.09130299999999636
 10
-19.551903
 20
-0.1034259999999989
 10
-19.725658
 20
0.04204699999999661
 10
-19.725658
 20
2.535290000000003
 10
-19.66504500000001
 20
2.551422000000002
 10
-19.576177
 20
2.563543999999993
 10
-19.402421
 20
2.418071999999995
 10
-19.402421
 20
-0.07517099999999743
  0
LWPOLYLINE
  5
A2
100
AcDbEntity
  8
0
  6
ByLayer
 62
  256
370
   -1
100
AcDbPolyline
 90
    9
 70
    1
 43
0
 10
-17.818382
 20
0.159236000000007
 10
-17.656749
 20
0.2279640000000001
 10
-17.656749
 20
0.8138919999999956
 10
-18.15781800000001
 20
0.7613920000000007
 10
-18.468971
 20
0.6644100000000037
 10
-18.569991
 20
0.4462010000000021
 10
-18.452811
 20
0.2077940000000069
 10
-18.097205
 20
0.1269439999999946
 10
-18.097205
 20
0.1268769999999932
  0
LWPOLYLINE
  5
A3
100
AcDbEntity
  8
0
  6
ByLayer
 62
  256
370
   -1
100
AcDbPolyline
 90
   24
 70
    1
 43
0
 10
-17.543378
 20
1.678585999999996
 10
-17.33729099999999
 20
1.181554000000006
 10
-17.33729099999999
 20
0.2238590000000045
 10
-17.373659
 20
0.08647100000000307
 10
-17.474688
 20
0.001611999999994396
 10
-17.73330300000001
 20
-0.09536900000000514
 10
-18.096985
 20
-0.1398509999999931
 10
-18.686961
 20
0.009658999999999196
 10
-18.893047
 20
0.4420300000000026
 10
-18.71928200000001
 20
0.8420799999999957
 10
-18.230335
 20
1.011807000000005
 10
-17.65652900000001
 20
1.068411999999995
 10
-17.65652900000001
 20
1.181563999999995
 10
-17.77775699999999
 20
1.476546999999997
 10
-18.10507
 20
1.569519
 10
-18.42429799999999
 20
1.521028000000001
 10
-18.69099799999999
 20
1.411923999999999
 10
-18.75161199999999
 20
1.476546999999997
 10
-18.775857
 20
1.557396999999995
 10
-18.747603
 20
1.650368999999998
 10
-18.65873499999999
 20
1.719097000000005
 10
-18.40819500000001
 20
1.803955999999999
 10
-18.10109
 20
1.836314999999999
 10
-18.101023
 20
1.836180999999996
  0
LWPOLYLINE
  5
A4
100
AcDbEntity
  8
0
  6
ByLayer
 62
  256
370
   -1
100
AcDbPolyline
 90
   20
 70
    1
 43
0
 10
-15.567374
 20
1.775566999999995
 10
-15.288551
 20
1.593727000000001
 10
-15.102673
 20
1.286610999999994
 10
-15.033946
 20
0.8501930000000044
 10
-15.102673
 20
0.4097380000000044
 10
-15.29663600000001
 20
0.1026319999999998
 10
-15.59161899999999
 20
-0.07920900000000586
 10
-15.97147099999999
 20
-0.1358129999999989
 10
-16.33110499999999
 20
-0.08732299999999782
 10
-16.58972
 20
0.01774399999999332
 10
-16.70690999999999
 20
0.1187639999999988
 10
-16.73926899999999
 20
0.2561510000000027
 10
-16.73926899999999
 20
2.535223000000002
 10
-16.67865500000001
 20
2.551355000000001
 10
-16.585683
 20
2.563478000000003
 10
-16.415964
 20
2.418004999999994
 10
-16.415964
 20
1.694678999999994
 10
-16.20583999999999
 20
1.791661000000005
 10
-15.914895
 20
1.836143000000007
 10
-15.914895
 20
1.836180999999996
  0
LWPOLYLINE
  5
A5
100
AcDbEntity
  8
0
  6
ByLayer
 62
  256
370
   -1
100
AcDbPolyline
 90
   14
 70
    1
 43
0
 10
-16.22200100000001
 20
1.516981000000001
 10
-16.415964
 20
1.399792000000005
 10
-16.415964
 20
0.2562180000000041
 10
-16.242209
 20
0.1713589999999954
 10
-15.97147099999999
 20
0.130982000000003
 10
-15.724969
 20
0.1713589999999954
 10
-15.531006
 20
0.3047090000000026
 10
-15.40574100000001
 20
0.5269559999999984
 10
-15.361259
 20
0.8502320000000054
 10
-15.40574100000001
 20
1.173507000000001
 10
-15.531006
 20
1.395753999999997
 10
-15.724969
 20
1.525065999999995
 10
-15.963386
 20
1.569547999999998
 10
-15.963386
 20
1.569480999999996
  0
LWPOLYLINE
  5
A6
100
AcDbEntity
  8
0
  6
ByLayer
 62
  256
370
   -1
100
AcDbPolyline
 90
   34
 70
    1
 43
0
 10
-12.274041
 20
1.476536999999993
 10
-12.57710899999999
 20
1.569509999999994
 10
-13.045857
 20
1.383630999999994
 10
-13.021612
 20
1.209874999999997
 10
-13.021612
 20
-0.0751329999999939
 10
-13.086235
 20
-0.09126500000000703
 10
-13.171094
 20
-0.1033879999999954
 10
-13.34484999999999
 20
0.04208500000000015
 10
-13.34484999999999
 20
1.185659000000001
 10
-13.458001
 20
1.476603999999995
 10
-13.765107
 20
1.569576999999995
 10
-14.011599
 20
1.529199000000006
 10
-14.205563
 20
1.436227000000002
 10
-14.205563
 20
-0.0750759999999957
 10
-14.266176
 20
-0.09120799999999463
 10
-14.355045
 20
-0.1033299999999997
 10
-14.5288
 20
0.04214199999999835
 10
-14.5288
 20
1.420095000000003
 10
-14.496441
 20
1.553444999999996
 10
-14.375214
 20
1.666587000000007
 10
-14.10043899999999
 20
1.783777000000001
 10
-13.761003
 20
1.836276999999995
 10
-13.40944399999999
 20
1.775662999999994
 10
-13.175065
 20
1.618067999999994
 10
-12.912412
 20
1.771625
 10
-12.552768
 20
1.836247999999998
 10
-12.031491
 20
1.678652
 10
-11.83752800000001
 20
1.201819
 10
-11.83752800000001
 20
-0.07510399999999606
 10
-11.90215000000001
 20
-0.09123599999999499
 10
-11.987009
 20
-0.1033589999999975
 10
-12.160775
 20
0.04211399999999799
 10
-12.160775
 20
1.185687000000001
 10
-12.160899
 20
1.185592
  0
LWPOLYLINE
  5
A7
100
AcDbEntity
  8
0
  6
ByLayer
 62
  256
370
   -1
100
AcDbPolyline
 90
    9
 70
    1
 43
0
 10
-10.28591499999999
 20
0.159236000000007
 10
-10.12428199999999
 20
0.2279640000000001
 10
-10.12428199999999
 20
0.8138919999999956
 10
-10.62535099999999
 20
0.7613920000000007
 10
-10.93650400000001
 20
0.6644100000000037
 10
-11.03752299999999
 20
0.4462010000000021
 10
-10.920334
 20
0.2077940000000069
 10
-10.56473700000001
 20
0.1269439999999946
 10
-10.56473700000001
 20
0.1268769999999932
  0
LWPOLYLINE
  5
A8
100
AcDbEntity
  8
0
  6
ByLayer
 62
  256
370
   -1
100
AcDbPolyline
 90
   24
 70
    1
 43
0
 10
-10.01091
 20
1.678585999999996
 10
-9.804823999999996
 20
1.181554000000006
 10
-9.804823999999996
 20
0.2238590000000045
 10
-9.841192000000007
 20
0.08647100000000307
 10
-9.942212000000012
 20
0.001611999999994396
 10
-10.200827
 20
-0.09536900000000514
 10
-10.56450799999999
 20
-0.1398509999999931
 10
-11.154484
 20
0.009658999999999196
 10
-11.36057
 20
0.4420389999999941
 10
-11.18680500000001
 20
0.8420890000000014
 10
-10.697858
 20
1.011807000000005
 10
-10.12405200000001
 20
1.068411999999995
 10
-10.12405200000001
 20
1.181554000000006
 10
-10.24528000000001
 20
1.476536999999993
 10
-10.57259300000001
 20
1.569509999999994
 10
-10.89182199999999
 20
1.521018999999995
 10
-11.15852099999999
 20
1.411913999999996
 10
-11.21913499999999
 20
1.476536999999993
 10
-11.243381
 20
1.557387000000006
 10
-11.215126
 20
1.650360000000006
 10
-11.12625800000001
 20
1.719087000000002
 10
-10.87572800000001
 20
1.803945999999996
 10
-10.568622
 20
1.836304999999996
 10
-10.568555
 20
1.836180999999996
  0
LWPOLYLINE
  5
A9
100
AcDbEntity
  8
0
  6
ByLayer
 62
  256
370
   -1
100
AcDbPolyline
 90
   22
 70
    1
 43
0
 10
-8.944100999999989
 20
-0.09130299999999636
 10
-9.032969000000008
 20
-0.1034259999999989
 10
-9.206725000000006
 20
0.04204699999999661
 10
-9.206725000000006
 20
2.535290000000003
 10
-9.146111999999988
 20
2.551422000000002
 10
-9.053138999999987
 20
2.563543999999993
 10
-8.883420999999998
 20
2.418071999999995
 10
-8.883420999999998
 20
0.9633450000000039
 10
-7.998461999999989
 20
1.820010999999994
 10
-7.848951999999997
 20
1.771519999999995
 10
-7.792347000000007
 20
1.662415999999993
 10
-7.828714999999988
 20
1.561396000000002
 10
-7.925697000000014
 20
1.464414000000005
 10
-8.57628600000001
 20
0.8946470000000062
 10
-7.675166999999988
 20
0.08647100000000307
 10
-7.731772000000007
 20
-0.05496399999999824
 10
-7.852999000000011
 20
-0.1074629999999956
 10
-7.966150999999996
 20
-0.07920900000000586
 10
-8.067170000000004
 20
0.009658999999999196
 10
-8.883430000000004
 20
0.8299669999999963
 10
-8.883430000000004
 20
-0.07519999999999527
 10
-8.883488
 20
-0.07517099999999743
  0
LWPOLYLINE
  5
AA
100
AcDbEntity
  8
0
  6
ByLayer
 62
  256
370
   -1
100
AcDbPolyline
 90
   24
 70
    1
 43
0
 10
-6.828692999999987
 20
0.2632559999999984
 10
-6.361971000000011
 20
0.1309150000000017
 10
-6.054865000000007
 20
0.1875200000000063
 10
-5.836656000000005
 20
0.3087469999999968
 10
-5.739675000000005
 20
0.1551989999999961
 10
-5.792174999999986
 20
0.04609399999999653
 10
-5.929562000000004
 20
-0.04687900000000411
 10
-6.131610999999992
 20
-0.1115010000000041
 10
-6.37810300000001
 20
-0.135746999999995
 10
-6.798358000000007
 20
-0.072102000000001
 10
-7.121626999999989
 20
0.1188310000000001
 10
-7.324687000000011
 20
0.4320000000000022
 10
-7.39237399999999
 20
0.8623539999999963
 10
-7.327751000000006
 20
1.270488999999998
 10
-7.141873000000004
 20
1.577595000000002
 10
-6.854964999999993
 20
1.767510999999999
 10
-6.495330999999993
 20
1.836237999999994
 10
-6.159931999999998
 20
1.775625000000005
 10
-5.897278999999997
 20
1.601868999999994
 10
-5.723513999999994
 20
1.339207000000002
 10
-5.658891000000011
 20
1.007856000000004
 10
-5.699268999999987
 20
0.8785529999999966
 10
-5.812420000000003
 20
0.8340709999999945
 10
-7.057004000000006
 20
0.6602769999999936
  0
LWPOLYLINE
  5
AB
100
AcDbEntity
  8
0
  6
ByLayer
 62
  256
370
   -1
100
AcDbPolyline
 90
    6
 70
    1
 43
0
 10
-6.907494000000014
 20
1.399762999999993
 10
-7.077212000000003
 20
0.910815999999997
 10
-5.965958999999998
 20
1.064364999999995
 10
-6.123554000000013
 20
1.428045999999995
 10
-6.499358999999998
 20
1.573519000000005
 10
-6.499358999999998
 20
1.573519000000005
  0
LWPOLYLINE
  5
AC
100
AcDbEntity
  8
0
  6
ByLayer
 62
  256
370
   -1
100
AcDbPolyline
 90
   16
 70
    1
 43
0
 10
-4.927451999999988
 20
-0.09130299999999636
 10
-5.016320000000007
 20
-0.1034259999999989
 10
-5.190086000000008
 20
0.04204699999999661
 10
-5.190086000000008
 20
1.411913999999996
 10
-5.157726999999994
 20
1.557387000000006
 10
-5.040537
 20
1.666492000000005
 10
-4.757677000000001
 20
1.783681000000001
 10
-4.349542000000014
 20
1.836180999999996
 10
-4.026275999999996
 20
1.674548000000001
 10
-4.038398999999998
 20
1.597802999999999
 10
-4.070758000000012
 20
1.541197999999994
 10
-4.175824000000006
 20
1.557329999999993
 10
-4.305137000000002
 20
1.564965999999998
 10
-4.632450000000006
 20
1.524589000000006
 10
-4.866818999999992
 20
1.435721000000001
 10
-4.866838999999999
 20
-0.07517099999999743
  0
LWPOLYLINE
  5
AD
100
AcDbEntity
  8
0
  6
ByLayer
 62
  256
370
   -1
100
AcDbPolyline
 90
    9
 70
    1
 43
0
 10
-4.03034199999999
 20
0.2481049999999954
 10
-3.86466200000001
 20
0.3127269999999953
 10
-3.703028999999987
 20
0.2481049999999954
 10
-3.646423999999996
 20
0.08647100000000307
 10
-3.703028999999987
 20
-0.07112399999999752
 10
-3.86466200000001
 20
-0.135746999999995
 10
-4.03034199999999
 20
-0.07112399999999752
 10
-4.086947000000009
 20
0.08647100000000307
 10
-4.086947000000009
 20
0.08647100000000307
  0
LWPOLYLINE
  5
AE
100
AcDbEntity
  8
0
  6
ByLayer
 62
  256
370
   -1
100
AcDbPolyline
 90
   16
 70
    1
 43
0
 10
-3.428271999999993
 20
-0.604495
 10
-3.331290999999993
 20
-0.5196360000000055
 10
-3.270677000000006
 20
-0.3943710000000067
 10
-3.246431999999999
 20
-0.2044450000000069
 10
-3.246431999999999
 20
1.775595999999993
 10
-3.185818000000012
 20
1.791728000000006
 10
-3.092845000000011
 20
1.803850999999995
 10
-2.923126999999994
 20
1.654340000000005
 10
-2.923126999999994
 20
-0.2650869999999941
 10
-2.971618000000007
 20
-0.5560329999999993
 10
-3.092845000000011
 20
-0.7419210000000049
 10
-3.238317999999992
 20
-0.8429399999999987
 10
-3.371668
 20
-0.8711950000000002
 10
-3.513103000000001
 20
-0.8105809999999991
 10
-3.557584999999989
 20
-0.6731939999999952
 10
-3.557584999999989
 20
-0.6732219999999955
  0
LWPOLYLINE
  5
AF
100
AcDbEntity
  8
0
  6
ByLayer
 62
  256
370
   -1
100
AcDbPolyline
 90
    9
 70
    1
 43
0
 10
-3.238317999999992
 20
2.515052999999995
 10
-3.084769999999992
 20
2.575666999999996
 10
-2.935249999999996
 20
2.515052999999995
 10
-2.878645000000006
 20
2.373619000000005
 10
-2.935249999999996
 20
2.228145999999995
 10
-3.084769999999992
 20
2.171541000000005
 10
-3.238317999999992
 20
2.228145999999995
 10
-3.294923000000011
 20
2.373619000000005
 10
-3.294923000000011
 20
2.373619000000005
  0
LWPOLYLINE
  5
B0
100
AcDbEntity
  8
0
  6
ByLayer
 62
  256
370
   -1
100
AcDbPolyline
 90
    9
 70
    1
 43
0
 10
-1.351248999999996
 20
0.159236000000007
 10
-1.189606999999995
 20
0.2279640000000001
 10
-1.189606999999995
 20
0.8138919999999956
 10
-1.690685999999999
 20
0.7613920000000007
 10
-2.001828999999987
 20
0.6644100000000037
 10
-2.102857999999998
 20
0.4462010000000021
 10
-1.985669000000001
 20
0.2077940000000069
 10
-1.630072000000013
 20
0.1269439999999946
 10
-1.630072000000013
 20
0.1268769999999932
  0
LWPOLYLINE
  5
B1
100
AcDbEntity
  8
0
  6
ByLayer
 62
  256
370
   -1
100
AcDbPolyline
 90
   24
 70
    1
 43
0
 10
-1.076245
 20
1.678585999999996
 10
-0.870159000000001
 20
1.181554000000006
 10
-0.870159000000001
 20
0.2238590000000045
 10
-0.9065270000000112
 20
0.08647100000000307
 10
-1.007545999999991
 20
0.001611999999994396
 10
-1.266171000000014
 20
-0.09536900000000514
 10
-1.629852
 20
-0.1398509999999931
 10
-2.219818000000004
 20
0.009658999999999196
 10
-2.425905
 20
0.4420389999999941
 10
-2.252149000000003
 20
0.8420890000000014
 10
-1.763202000000007
 20
1.011807000000005
 10
-1.189387000000011
 20
1.068411999999995
 10
-1.189387000000011
 20
1.181554000000006
 10
-1.310613999999987
 20
1.476536999999993
 10
-1.637927999999988
 20
1.569509999999994
 10
-1.957166000000001
 20
1.521018999999995
 10
-2.223865999999987
 20
1.411913999999996
 10
-2.284479000000005
 20
1.476536999999993
 10
-2.30872500000001
 20
1.557387000000006
 10
-2.280470000000008
 20
1.650360000000006
 10
-2.191601999999989
 20
1.719087000000002
 10
-1.941063000000014
 20
1.803945999999996
 10
-1.633957000000009
 20
1.836304999999996
 10
-1.633890000000008
 20
1.836180999999996
  0
LWPOLYLINE
  5
B2
100
AcDbEntity
  8
0
  6
ByLayer
 62
  256
370
   -1
100
AcDbPolyline
 90
   22
 70
    1
 43
0
 10
-0.1023889999999881
 20
-0.01050999999999647
 10
-0.2761450000000139
 20
0.405699999999996
 10
-0.2761450000000139
 20
2.325128000000007
 10
-0.2155319999999961
 20
2.341258999999994
 10
-0.1225589999999954
 20
2.353381999999996
 10
0.04715899999999351
 20
2.207909999999998
 10
0.04715899999999351
 20
1.743207999999996
 10
0.7098609999999894
 20
1.743207999999996
 10
0.7341069999999945
 20
1.686604000000003
 10
0.7462299999999971
 20
1.613867999999997
 10
0.625001999999995
 20
1.476470000000006
 10
0.04696799999999257
 20
1.476470000000006
 10
0.04696799999999257
 20
0.4258410000000055
 10
0.1358360000000118
 20
0.1955090000000013
 10
0.3944510000000037
 20
0.1308860000000038
 10
0.5480090000000075
 20
0.1551319999999947
 10
0.6894440000000088
 20
0.2117360000000019
 10
0.7339259999999967
 20
0.1511229999999983
 10
0.754162000000008
 20
0.06626400000000388
 10
0.6490949999999884
 20
-0.07920900000000586
 10
0.3581499999999949
 20
-0.1358129999999989
 10
0.3582739999999944
 20
-0.1357849999999985
  0
LWPOLYLINE
  5
B3
100
AcDbEntity
  8
0
  6
ByLayer
 62
  256
370
   -1
100
AcDbPolyline
 90
    9
 70
    1
 43
0
 10
2.192851999999988
 20
0.159236000000007
 10
2.354485000000011
 20
0.2279640000000001
 10
2.354485000000011
 20
0.8138919999999956
 10
1.85341600000001
 20
0.7613920000000007
 10
1.542262999999991
 20
0.6644100000000037
 10
1.441242999999986
 20
0.4462010000000021
 10
1.558423000000005
 20
0.2077940000000069
 10
1.914029999999997
 20
0.1269439999999946
 10
1.914029999999997
 20
0.1268769999999932
  0
LWPOLYLINE
  5
B4
100
AcDbEntity
  8
0
  6
ByLayer
 62
  256
370
   -1
100
AcDbPolyline
 90
   24
 70
    1
 43
0
 10
2.467857000000009
 20
1.678585999999996
 10
2.673943000000008
 20
1.181554000000006
 10
2.673943000000008
 20
0.2238590000000045
 10
2.637574999999998
 20
0.08647100000000307
 10
2.536554999999993
 20
0.001611999999994396
 10
2.277940000000001
 20
-0.09536900000000514
 10
1.914258999999987
 20
-0.1398509999999931
 10
1.324283000000008
 20
0.009658999999999196
 10
1.118197000000009
 20
0.4420389999999941
 10
1.291953000000007
 20
0.8420890000000014
 10
1.780909000000008
 20
1.011807000000005
 10
2.354714000000001
 20
1.068411999999995
 10
2.354714000000001
 20
1.181554000000006
 10
2.233486999999997
 20
1.476536999999993
 10
1.906173999999993
 20
1.569509999999994
 10
1.586944999999986
 20
1.521018999999995
 10
1.320245
 20
1.411913999999996
 10
1.259632000000011
 20
1.476536999999993
 10
1.235386000000005
 20
1.557387000000006
 10
1.263641000000007
 20
1.650360000000006
 10
1.352508999999998
 20
1.719087000000002
 10
1.603048000000001
 20
1.803945999999996
 10
1.910154000000006
 20
1.836304999999996
 10
1.910211000000004
 20
1.836180999999996
  0
LWPOLYLINE
  5
B5
100
AcDbEntity
  8
0
  6
ByLayer
 62
  256
370
   -1
100
AcDbPolyline
 90
    8
 70
    1
 43
0
 10
3.546778999999987
 20
-0.09130299999999636
 10
3.457910999999996
 20
-0.1034259999999989
 10
3.284154999999998
 20
0.04204699999999661
 10
3.284154999999998
 20
1.775595999999993
 10
3.344767999999988
 20
1.791728000000006
 10
3.437740999999988
 20
1.803850999999995
 10
3.607459000000006
 20
1.654340000000005
 10
3.607392000000004
 20
-0.07517099999999743
  0
LWPOLYLINE
  5
B6
100
AcDbEntity
  8
0
  6
ByLayer
 62
  256
370
   -1
100
AcDbPolyline
 90
    9
 70
    1
 43
0
 10
3.292239999999993
 20
2.515052999999995
 10
3.445796999999999
 20
2.575666999999996
 10
3.595307999999989
 20
2.515052999999995
 10
3.65191200000001
 20
2.373619000000005
 10
3.595307999999989
 20
2.228145999999995
 10
3.445796999999999
 20
2.171541000000005
 10
3.292239999999993
 20
2.228145999999995
 10
3.235635000000002
 20
2.373619000000005
 10
3.235635000000002
 20
2.373619000000005
  0
LWPOLYLINE
  5
B7
100
AcDbEntity
  8
0
  6
ByLayer
 62
  256
370
   -1
100
AcDbPolyline
 90
   21
 70
    1
 43
0
 10
-22.319534
 20
7.907759999999996
 10
-22.82038
 20
7.669843999999998
 10
-23.23184999999999
 20
7.298169999999999
 10
-23.523515
 20
6.813070999999994
 10
-23.66029399999999
 20
6.263816000000006
 10
-23.632153
 20
5.710048999999998
 10
-23.446234
 20
5.187665999999993
 10
-23.10967599999999
 20
4.732562999999999
 10
-22.654574
 20
4.396005000000002
 10
-22.13219100000001
 20
4.210086000000004
 10
-21.578424
 20
4.181945999999996
 10
-21.029169
 20
4.318724000000003
 10
-20.54407
 20
4.610388999999998
 10
-20.17239600000001
 20
5.021860000000004
 10
-19.93447999999999
 20
5.522705000000002
 10
-19.850656
 20
6.082493999999997
 10
-19.995977
 20
6.813070999999994
 10
-20.40981600000001
 20
7.432423999999997
 10
-21.029169
 20
7.846262999999993
 10
-21.75974600000001
 20
7.991584000000003
 10
-21.75974600000001
 20
7.991584000000003
  0
ENDBLK
  5
57
330
55
100
AcDbEntity
  8
0
100
AcDbBlockEnd
  0
ENDSEC
  0
SECTION
  2
ENTITIES
  0
INSERT
  5
B8
100
AcDbEntity
  8
0
  6
ByLayer
 62
  256
370
   -1
100
AcDbBlockReference
  2
texto
 10
14.37553775995145
 20
78.84946207801785
 30
0
 41
0.928571429
 42
0.928571429
 43
0
 50
0
 70
    1
 71
    1
 44
0
 45
0
  0
LWPOLYLINE
  5
B9
100
AcDbEntity
  8
Corte
  6
CONTINUOUS
 62
    1
370
   -1
100
AcDbPolyline
 90
    4
 70
    1
 43
0
 10
36.86815787415892
 20
127.8945200590283
 10
36.86815787415892
 20
126.9659486300283
 10
9.560420075841071
 20
126.9659486300283
 10
9.560420075841071
 20
127.8945200590283
  0
LWPOLYLINE
  5
BA
100
AcDbEntity
  8
Corte
  6
ByLayer
 62
    1
370
   -1
100
AcDbPolyline
 90
    6
 70
    1
 43
0
 10
14.11485743526455
 20
86.50629059706884
 10
18.96075925892969
 20
113.8810231757748
 10
11.71795928951543
 20
113.8810231757748
 10
13.38536728207071
 20
123.8209787253625
 10
34.48848889538204
 20
123.8209787253625
 10
27.87096642697066
 20
86.50629059706884
  0
LWPOLYLINE
  5
BB
100
AcDbEntity
  8
0
  6
ByLayer
 62
  256
370
   -1
100
AcDbPolyline
 90
   56
 70
    1
 43
0
 10
25.62595949657734
 20
90.70393067196625
 10
25.68036456527639
 20
90.86873210762289
 10
25.65673241386634
 20
91.16525364221225
 10
25.48653658257818
 20
91.40554574542706
 10
25.18450576851543
 20
91.58703546679394
 10
24.7841331185546
 20
91.69870442290934
 10
24.12497215021234
 20
91.69183550057285
 10
23.56870121786839
 20
91.43601813300276
 10
23.15579427335798
 20
90.96001583221931
 10
22.91431849520763
 20
90.27940249778773
 10
22.91316727041987
 20
89.46921683653109
 10
23.18989903054947
 20
88.79981357096405
 10
23.71717302082476
 20
88.31703910625644
 10
24.45920285161889
 20
88.04771629465705
 10
25.21249733458971
 20
88.04311099998709
 10
25.83031253829631
 20
88.30346386753719
 10
26.28108246442219
 20
88.79330138003257
 10
26.53499954920565
 20
89.48710839195874
 10
26.56918496160893
 20
89.82472143808839
 10
26.56311910467971
 20
90.07712133785355
 10
26.72668458800601
 20
90.11491597532226
 10
26.87707701699482
 20
89.93452738492807
 10
26.84875174304391
 20
89.40097504418229
 10
26.54887839264351
 20
88.56140101434779
 10
26.01411612235466
 20
87.96840089402764
 10
25.28498356904101
 20
87.6507430088115
 10
24.38986793453744
 20
87.65470442928475
 10
23.51477888277812
 20
87.97313867194487
 10
22.90425441015066
 20
88.55779033606321
 10
22.58475540297315
 20
89.35783013758603
 10
22.59434344845624
 20
90.33064916856399
 10
22.8861496681372
 20
91.18190773604441
 10
23.38479077380283
 20
91.77101490741903
 10
24.05730730388094
 20
92.08326957881727
 10
24.85827705971405
 20
92.09078328619009
 10
25.79839385222416
 20
91.65317225891066
 10
25.99842419434058
 20
91.28066795394712
 10
26.00428937992598
 20
90.81161542307918
 10
25.90086061315954
 20
90.51184992545998
 10
25.71202342901569
 20
90.27330394424274
 10
25.79087792334687
 20
90.00295680587415
 10
25.77453332137302
 20
89.65193712793949
 10
25.64059178048349
 20
89.26522863175329
 10
25.39565694319833
 20
88.99555122645771
 10
25.05221531879764
 20
88.85607792635544
 10
24.62271141973905
 20
88.85996376543085
 10
24.1655241326416
 20
89.02260254947865
 10
23.85333665759498
 20
89.31870517230722
 10
23.69560685446488
 20
89.71580628004179
 10
23.7004360825823
 20
90.2022165688832
 10
23.79938698961678
 20
90.53354646504754
 10
23.94671226703859
 20
90.79478556894961
 10
24.22319818635585
 20
90.95632705121365
 10
24.2959971798408
 20
90.93864453421168
 10
24.36879495862743
 20
90.92096223139376
 10
25.54026056167329
 20
90.59081959003659
  0
LWPOLYLINE
  5
BC
100
AcDbEntity
  8
0
  6
ByLayer
 62
  256
370
   -1
100
AcDbPolyline
 90
    9
 70
    1
 43
0
 10
25.21351842892662
 20
89.34053318637436
 10
25.46022023884648
 20
89.763770643464
 10
25.38839847438293
 20
90.2175343238077
 10
24.19302897484715
 20
90.55653106558847
 10
24.09504994206666
 20
90.37377608782896
 10
24.01999033196857
 20
90.12030607393959
 10
24.13982956844412
 20
89.56575239383363
 10
24.69464034301434
 20
89.26789296030668
 10
24.69460633146149
 20
89.26789895746111
  0
LWPOLYLINE
  5
BD
100
AcDbEntity
  8
0
  6
ByLayer
 62
  256
370
   -1
100
AcDbPolyline
 90
    8
 70
    1
 43
0
 10
26.35970451781689
 20
92.91338547868085
 10
26.35514051287035
 20
92.80139107473883
 10
26.14071966440662
 20
92.61865645382613
 10
23.11218159070759
 20
93.15266942832213
 10
23.10574265851682
 20
93.23073932489159
 10
23.11030766110295
 20
93.34273228364827
 10
23.3247275119271
 20
93.5254683497463
 10
26.35326558562613
 20
92.99145537525031
  0
LWPOLYLINE
  5
BE
100
AcDbEntity
  8
0
  6
ByLayer
 62
  256
370
   -1
100
AcDbPolyline
 90
    9
 70
    1
 43
0
 10
26.41236129740477
 20
94.99161561658551
 10
26.36396136589044
 20
95.20530648584446
 10
25.65223561094144
 20
95.33080293930706
 10
25.60724586974584
 20
94.70274170844294
 10
25.65751126557418
 20
94.29893997480904
 10
25.9006420971201
 20
94.12784733299419
 10
26.21566962101473
 20
94.22103307417781
 10
26.39106536803583
 20
94.64146772198636
 10
26.39114675282301
 20
94.64145337165256
  0
LWPOLYLINE
  5
BF
100
AcDbEntity
  8
0
  6
ByLayer
 62
  256
370
   -1
100
AcDbPolyline
 90
   24
 70
    1
 43
0
 10
24.62650143094287
 20
95.65556647677658
 10
25.27497834770021
 20
95.80280348688524
 10
26.43828885152644
 20
95.59768045811913
 10
26.59727983173881
 20
95.5234850813051
 10
26.67842868930575
 20
95.38094280842009
 10
26.74009670220305
 20
95.04181563274594
 10
26.71518855819809
 20
94.58459529889134
 10
26.40551956930512
 20
93.89035676704232
 10
25.83558647742309
 20
93.72927163071471
 10
25.3873636269867
 20
94.02886090708554
 10
25.28732674270858
 20
94.66710809868708
 10
25.34311834845211
 20
95.38558789329056
 10
25.20567280459008
 20
95.40982325105159
 10
24.82104385500918
 20
95.32377209568057
 10
24.63706477776173
 20
94.94076250579094
 10
24.62667548826753
 20
94.5374064375882
 10
24.70131436898632
 20
94.1857300631107
 10
24.60966012160264
 20
94.12495537144912
 10
24.5061891737409
 20
94.11242652949261
 10
24.39938901936817
 20
94.16712036176011
 10
24.33519480907379
 20
94.29123742491988
 10
24.286498619887
 20
94.61782792598727
 10
24.31385201958398
 20
95.00280534832828
 10
24.31402933209351
 20
95.00285912474457
  0
LWPOLYLINE
  5
C0
100
AcDbEntity
  8
0
  6
ByLayer
 62
  256
370
   -1
100
AcDbPolyline
 90
   20
 70
    1
 43
0
 10
24.93760770018339
 20
98.10880166156001
 10
25.21900940937297
 20
98.41308588933857
 10
25.63240914077655
 20
98.57612258012702
 10
26.17744314609929
 20
98.56725181248787
 10
26.69754529729986
 20
98.38831033760385
 10
27.02848507513626
 20
98.08376442368588
 10
27.18533839509846
 20
97.68169253289591
 10
27.17164498435223
 20
97.20197056929993
 10
27.03468256225917
 20
96.76964645140778
 10
26.85092320978746
 20
96.47379474205238
 10
26.70277727285792
 20
96.35117058175774
 10
26.52886971173174
 20
96.34076272134395
 10
23.76048479108767
 20
96.82890367583998
 10
23.75404607595564
 20
96.90697480341068
 10
23.75950067288781
 20
97.02402000548952
 10
23.9730454723011
 20
97.20178630534926
 10
24.85166834648401
 20
97.0468613867632
 10
24.77947372381765
 20
97.32629629491245
 10
24.78859366668711
 20
97.69397729070293
 10
24.78854750815112
 20
97.69398542969822
  0
LWPOLYLINE
  5
C1
100
AcDbEntity
  8
0
  6
ByLayer
 62
  256
370
   -1
100
AcDbPolyline
 90
   14
 70
    1
 43
0
 10
25.1096191710805
 20
97.24756999878656
 10
25.20986708882035
 20
96.98370128403347
 10
26.59896450094275
 20
96.73876593144396
 10
26.73975762567511
 20
96.93448310657865
 10
26.84756954711143
 20
97.25911381267036
 10
26.85202908525298
 20
97.57120619414454
 10
26.73215042802682
 20
97.83853633792035
 10
26.48937723368655
 20
98.04033948043053
 10
26.10634962746087
 20
98.16433745288313
 10
25.70401282272131
 20
98.17882041577191
 10
25.40685990375022
 20
98.07222081462757
 10
25.20768347187598
 20
97.8611486913925
 10
25.10190076919395
 20
97.57718440244082
 10
25.10198215398113
 20
97.57717005210701
  0
LWPOLYLINE
  5
C2
100
AcDbEntity
  8
0
  6
ByLayer
 62
  256
370
   -1
100
AcDbPolyline
 90
   34
 70
    1
 43
0
 10
26.01568562928729
 20
102.0988512402942
 10
25.83696792634753
 20
101.7456874899426
 10
25.96100898719533
 20
101.1288457912635
 10
26.17733269681157
 20
101.1214756464753
 10
27.7382297505716
 20
100.846247381789
 10
27.74379827723901
 20
100.7632411701992
 10
27.74010467781582
 20
100.6561830812775
 10
27.52568361229336
 20
100.4734472293636
 10
26.13658620017095
 20
100.7183825819531
 10
25.75861538578499
 20
100.6414093483527
 10
25.57902119967732
 20
100.2832748149456
 10
25.57456504682142
 20
99.97119452929984
 10
25.64539639838183
 20
99.71251147956939
 10
27.48117360758108
 20
99.38881442701788
 10
27.48761253977183
 20
99.31074453044837
 10
27.48304732012699
 20
99.19875034069045
 10
27.26862768636157
 20
99.01601550559369
 10
25.59483049761269
 20
99.31115111020409
 10
25.43987428073606
 20
99.37954652765751
 10
25.32875426300466
 20
99.55301033234952
 10
25.2460460809791
 20
99.91635893446045
 10
25.25595196782092
 20
100.3454497399658
 10
25.40588864302112
 20
100.7652367548831
 10
25.64819303316292
 20
101.0200032561977
 10
25.51867873150253
 20
101.3762188938078
 10
25.51824515355523
 20
101.8327823262941
 10
25.82282447506453
 20
102.4407204106107
 10
26.4441340804441
 20
102.5773590659046
 10
27.99521029831857
 20
102.3038624795581
 10
28.00077904204469
 20
102.2208574989695
 10
27.99708544262153
 20
102.1137994100478
 10
27.78266220651172
 20
101.9310512481214
 10
26.39356600908763
 20
102.1759863865268
 10
26.39365449014464
 20
102.1758133948834
  0
LWPOLYLINE
  5
C3
100
AcDbEntity
  8
0
  6
ByLayer
 62
  256
370
   -1
100
AcDbPolyline
 90
    9
 70
    1
 43
0
 10
28.04734904837548
 20
104.2640919239633
 10
27.99894911686114
 20
104.4777827932222
 10
27.28722336191215
 20
104.6032792466849
 10
27.24223362071654
 20
103.9752180158207
 10
27.29249901654488
 20
103.5714162821868
 10
27.53563006514954
 20
103.4003248713733
 10
27.85065954257277
 20
103.4935216915681
 10
28.02605333606527
 20
103.9139452603654
 10
28.02613472085245
 20
103.9139309100316
  0
LWPOLYLINE
  5
C4
100
AcDbEntity
  8
0
  6
ByLayer
 62
  256
370
   -1
100
AcDbPolyline
 90
   24
 70
    1
 43
0
 10
26.26148939897232
 20
104.9280440151556
 10
26.90996609867092
 20
105.075279794263
 10
28.07327660249714
 20
104.8701567654969
 10
28.23226758270952
 20
104.7959613886829
 10
28.31341839380506
 20
104.6534301948092
 10
28.37508640670236
 20
104.314303019135
 10
28.35017847975614
 20
103.8570839162817
 10
28.04050949086317
 20
103.1628453844326
 10
27.4705654666963
 20
103.0017621757618
 10
27.0223426162599
 20
103.3013514521326
 10
26.92231666426662
 20
103.9395967160774
 10
26.97810827001016
 20
104.6580765106809
 10
26.84067487313127
 20
104.682309726601
 10
26.45604592355039
 20
104.59625857123
 10
26.27206563160462
 20
104.2132491955244
 10
26.26167612505169
 20
103.8098918963205
 10
26.33631643752754
 20
103.4582165386602
 10
26.24466219014386
 20
103.3974418469986
 10
26.14119102522335
 20
103.3849117740408
 10
26.03438987321104
 20
103.4396070514936
 10
25.97019687761499
 20
103.5637239004693
 10
25.92149851784087
 20
103.8903020915242
 10
25.94885213459658
 20
104.2752807448665
 10
25.94901730012295
 20
104.2753366631237
  0
LWPOLYLINE
  5
C5
100
AcDbEntity
  8
0
  6
ByLayer
 62
  256
370
   -1
100
AcDbPolyline
 90
   22
 70
    1
 43
0
 10
28.64293079790302
 20
105.8622051710067
 10
28.63836701001521
 20
105.7502119980659
 10
28.42394594449275
 20
105.567476146152
 10
25.39540787079371
 20
106.101489120648
 10
25.38896893860295
 20
106.1795590172174
 10
25.39442496729219
 20
106.2966052361135
 10
25.60796833494841
 20
106.4743705191561
 10
27.37502277221664
 20
106.162791145485
 10
26.52652010475477
 20
107.4356610071082
 10
26.61787449212161
 20
107.6093220037485
 10
26.76268954683859
 20
107.6556344890373
 10
26.87750437869146
 20
107.5892285590828
 10
26.97425746064084
 20
107.4490715945833
 10
27.52513645140456
 20
106.5261606966293
 10
28.70242222703737
 20
107.4623408754684
 10
28.86193647373485
 20
107.36236692332
 10
28.89939354148368
 20
107.2018918841885
 10
28.84051282539056
 20
107.0686531877076
 10
28.71063795918574
 20
106.9633327836387
 10
27.53703485069127
 20
106.1342126213782
 10
28.63653968136999
 20
105.9403402543103
 10
28.63649186571226
 20
105.9402750675762
  0
LWPOLYLINE
  5
C6
100
AcDbEntity
  8
0
  6
ByLayer
 62
  256
370
   -1
100
AcDbPolyline
 90
   24
 70
    1
 43
0
 10
28.67141636003768
 20
108.5422159629636
 10
28.93347683634041
 20
109.0884059930849
 10
28.93137887772422
 20
109.4785777537897
 10
28.83148881424876
 20
109.7731582002394
 10
29.03905388437024
 20
109.8596543945349
 10
29.16018796061169
 20
109.7716582740441
 10
29.24330105886433
 20
109.5826213679618
 10
29.27794079329917
 20
109.320057791963
 10
29.25388912720814
 20
109.0114327240013
 10
29.08535963462053
 20
108.5077300390455
 10
28.78326528115108
 20
108.1506803055212
 10
28.35878347767251
 20
107.9677890074973
 10
27.82134114402191
 20
107.9766412041377
 10
27.33960723335293
 20
108.1436082202065
 10
27.00691253565208
 20
108.4382014890023
 10
26.83849777751038
 20
108.8320625811815
 10
26.83307690708651
 20
109.2894927151465
 10
26.97950469844683
 20
109.6893869640161
 10
27.24757694672027
 20
109.9754973657061
 10
27.60434924673541
 20
110.1331442777129
 10
28.02086773503734
 20
110.1417251603569
 10
28.16916747384078
 20
110.0643251468623
 10
28.19863927152537
 20
109.9155087876635
 10
28.13959872326607
 20
108.3462004163516
  0
LWPOLYLINE
  5
C7
100
AcDbEntity
  8
0
  6
ByLayer
 62
  256
370
   -1
100
AcDbPolyline
 90
    6
 70
    1
 43
0
 10
27.27379877561658
 20
108.6886335469574
 10
27.83088309895479
 20
108.3749858099114
 10
27.8855745565594
 20
109.7758273964656
 10
27.40960448708022
 20
109.659722436942
 10
27.15132692141033
 20
109.22826401307
 10
27.15132692141033
 20
109.22826401307
  0
LWPOLYLINE
  5
C8
100
AcDbEntity
  8
0
  6
ByLayer
 62
  256
370
   -1
100
AcDbPolyline
 90
   16
 70
    1
 43
0
 10
29.51477954479414
 20
110.8067051187068
 10
29.51021575690633
 20
110.694711945766
 10
29.29579252079653
 20
110.5119637838396
 10
27.63181738263155
 20
110.8053674959262
 10
27.46213537806896
 20
110.8763594670608
 10
27.35504283133044
 20
111.0439890585412
 10
27.27409078386763
 20
111.4172900915902
 10
27.29890838867701
 20
111.9309494521042
 10
27.56541143030888
 20
112.2942710863607
 10
27.65600204954471
 20
112.2629101004611
 10
27.71773624415315
 20
112.2109522407297
 10
27.67533523797082
 20
112.085071080875
 10
27.63799128555851
 20
111.9275221256647
 10
27.6159910140631
 20
111.5159513020181
 10
27.67306698558672
 20
111.2084086581932
 10
29.50834061260338
 20
110.8847750152762
  0
LWPOLYLINE
  5
C9
100
AcDbEntity
  8
0
  6
ByLayer
 62
  256
370
   -1
100
AcDbPolyline
 90
    9
 70
    1
 43
0
 10
29.2972267795924
 20
111.9837444443031
 10
29.25469283606045
 20
112.2015377357694
 10
29.36827292499649
 20
112.3866671570872
 10
29.57689608225758
 20
112.4217285523097
 10
29.75603985374305
 20
112.3182933853228
 10
29.79945344866984
 20
112.1054817417391
 10
29.68499370833896
 20
111.9153706725387
 10
29.48127671757654
 20
111.8794441877907
 10
29.48127671757654
 20
111.8794441877907
  0
LWPOLYLINE
  5
CA
100
AcDbEntity
  8
0
  6
ByLayer
 62
  256
370
   -1
100
AcDbPolyline
 90
   16
 70
    1
 43
0
 10
30.463563115873
 20
112.5422800158828
 10
30.38153560455082
 20
112.6798391956998
 10
30.24253321808913
 20
112.7812848751877
 10
30.01709301471373
 20
112.8518096273632
 10
27.61194054622786
 20
113.2759029002749
 10
27.60550183109582
 20
113.3539740278456
 10
27.61095664508674
 20
113.4710204609256
 10
27.82940617924165
 20
113.6479206544427
 10
30.16093092399613
 20
113.236809935753
 10
30.50381714519803
 20
113.1148014507994
 10
30.70330160663158
 20
112.9257566105474
 10
30.79443303061228
 20
112.7250425031815
 10
30.7998095493535
 20
112.5548367148667
 10
30.69548212357783
 20
112.3937126070172
 10
30.51894315941929
 20
112.3683813184258
 10
30.51897717097214
 20
112.3683753212713
  0
LWPOLYLINE
  5
CB
100
AcDbEntity
  8
0
  6
ByLayer
 62
  256
370
   -1
100
AcDbPolyline
 90
    9
 70
    1
 43
0
 10
26.71548458807587
 20
113.4442711665195
 10
26.67518579883382
 20
113.646271500978
 10
26.78126814447395
 20
113.8173482539497
 10
26.96535439575005
 20
113.8567361677204
 10
27.12977359424791
 20
113.7558973402306
 10
27.16607697052132
 20
113.5597141428179
 10
27.06399003784983
 20
113.3828202528003
 10
26.87499762007502
 20
113.3442974285552
 10
26.87499762007502
 20
113.3442974285552
  0
LWPOLYLINE
  5
CC
100
AcDbEntity
  8
0
  6
ByLayer
 62
  256
370
   -1
100
AcDbPolyline
 90
    9
 70
    1
 43
0
 10
29.98669633911229
 20
115.2626769558438
 10
29.93829836112656
 20
115.4763789041141
 10
29.22657260617756
 20
115.6018753575767
 10
29.18158069439461
 20
114.9738018167
 10
29.23184826081031
 20
114.5700123930787
 10
29.47497713882762
 20
114.3989086722525
 10
29.79000661625084
 20
114.4921054924474
 10
29.96540040974334
 20
114.9125290612446
 10
29.96548179453053
 20
114.9125147109109
  0
LWPOLYLINE
  5
CD
100
AcDbEntity
  8
0
  6
ByLayer
 62
  256
370
   -1
100
AcDbPolyline
 90
   24
 70
    1
 43
0
 10
28.20083647265039
 20
115.9266278160349
 10
28.849313172349
 20
116.0738635951423
 10
30.01262367617522
 20
115.8687405663762
 10
30.17161465638759
 20
115.7945451895622
 10
30.25276568454188
 20
115.6520152266897
 10
30.31443152685183
 20
115.312875741003
 10
30.2895235999056
 20
114.8556566381497
 10
29.97985678159998
 20
114.1614304163132
 10
29.40991254037437
 20
114.0003459766411
 10
28.96168773640938
 20
114.2999241740007
 10
28.86166178441609
 20
114.9381694379454
 10
28.91745534368824
 20
115.6566603115601
 10
28.78002194680936
 20
115.6808935274803
 10
28.3953932142872
 20
115.5948436031105
 10
28.2114127052827
 20
115.2118329964038
 10
28.20102124520116
 20
114.8084646181885
 10
28.27566134061827
 20
114.4567880295269
 10
28.18400731029332
 20
114.3960145688665
 10
28.08053614537283
 20
114.3834844959088
 10
27.97373499336052
 20
114.4381797733616
 10
27.90954199776447
 20
114.5622966223374
 10
27.86084559151895
 20
114.8888858924035
 10
27.88819920827465
 20
115.2738645457458
 10
27.88836437380102
 20
115.2739204640029
  0
LWPOLYLINE
  5
CE
100
AcDbEntity
  8
0
  6
ByLayer
 62
  256
370
   -1
100
AcDbPolyline
 90
   22
 70
    1
 43
0
 10
30.46396249002721
 20
116.7636682874166
 10
29.92067764650194
 20
116.6389199925422
 10
27.58915168704912
 20
117.0500309254159
 10
27.58271396955669
 20
117.1281006078013
 10
27.5881687835476
 20
117.2451470408814
 10
27.80171215120382
 20
117.422912323924
 10
28.36618488808671
 20
117.3233805505372
 10
28.51003014523071
 20
118.1391675422163
 10
28.58404973477931
 20
118.1568907225365
 10
28.67503343453069
 20
118.1562352569949
 10
28.81561695755837
 20
117.9775749720984
 10
28.69014962930527
 20
117.2660143944206
 10
29.96634690643884
 20
117.0409863817553
 10
30.26542037455386
 20
117.1010495519922
 10
30.4000524683297
 20
117.4055637225439
 10
30.4039319980345
 20
117.5997869201554
 10
30.36587491659493
 20
117.7860172582619
 10
30.4491566322341
 20
117.8277923159138
 10
30.55662711718041
 20
117.8345274098482
 10
30.7105272153108
 20
117.6740317996857
 10
30.71613184542894
 20
117.3037544643982
 10
30.71612474915911
 20
117.3039131057078
  0
LWPOLYLINE
  5
CF
100
AcDbEntity
  8
0
  6
ByLayer
 62
  256
370
   -1
100
AcDbPolyline
 90
    9
 70
    1
 43
0
 10
30.75597441536579
 20
119.6254697239309
 10
30.70757448385147
 20
119.8391605931898
 10
29.99584872890246
 20
119.9646570466524
 10
29.95085898770686
 20
119.3365958157883
 10
30.0011243835352
 20
118.9327940821544
 10
30.24425521508112
 20
118.7617014403395
 10
30.55928273897575
 20
118.8548871815232
 10
30.73467870305559
 20
119.2753230603329
 10
30.73476008784277
 20
119.2753087099991
  0
LWPOLYLINE
  5
D0
100
AcDbEntity
  8
0
  6
ByLayer
 62
  256
370
   -1
100
AcDbPolyline
 90
   24
 70
    1
 43
0
 10
28.97011476596263
 20
120.2894218151232
 10
29.61859146566124
 20
120.4366575942306
 10
30.78190196948746
 20
120.2315345654644
 10
30.94089294969983
 20
120.1573391886504
 10
31.02204376079538
 20
120.0148079947767
 10
31.08371177369268
 20
119.6756808191026
 10
31.05880384674644
 20
119.2184617162492
 10
30.74913485785349
 20
118.5242231844002
 10
30.17919083368662
 20
118.3631399757294
 10
29.73096602972162
 20
118.6627181730889
 10
29.63094203125694
 20
119.300974516045
 10
29.68673341994175
 20
120.0194530796471
 10
29.54930002306287
 20
120.0436862955673
 10
29.1646712905407
 20
119.9576363711976
 10
28.98069099859494
 20
119.574626995492
 10
28.970301492042
 20
119.171269696288
 10
29.04494158745912
 20
118.8195931076264
 10
28.95328755713417
 20
118.7588196469661
 10
28.84981639221368
 20
118.7462895740083
 10
28.74301524020136
 20
118.8009848514612
 10
28.67882224460531
 20
118.9251017004369
 10
28.6301258383598
 20
119.251690970503
 10
28.6574794551155
 20
119.6366696238453
 10
28.65764245005453
 20
119.6367132320899
  0
LWPOLYLINE
  5
D1
100
AcDbEntity
  8
0
  6
ByLayer
 62
  256
370
   -1
100
AcDbPolyline
 90
    8
 70
    1
 43
0
 10
31.35418539733836
 20
121.2384940891393
 10
31.34962160945056
 20
121.1265009161985
 10
31.1352005439281
 20
120.9437650642845
 10
29.02946149277148
 20
121.3150636733349
 10
29.0230225605807
 20
121.3931335699043
 10
29.02847737457163
 20
121.5101800029844
 10
29.24692690872652
 20
121.6870801965015
 10
31.34774646514761
 20
121.3165639857087
  0
LWPOLYLINE
  5
D2
100
AcDbEntity
  8
0
  6
ByLayer
 62
  256
370
   -1
100
AcDbPolyline
 90
    9
 70
    1
 43
0
 10
28.1329992399162
 20
121.4833962405432
 10
28.09270240420275
 20
121.6854076540131
 10
28.19878279631428
 20
121.8564733279734
 10
28.38286883053165
 20
121.8958600107429
 10
28.54728824608823
 20
121.7950224142543
 10
28.58359357589026
 20
121.5988502958529
 10
28.48150468969015
 20
121.4219453268241
 10
28.29251227191535
 20
121.383422502579
 10
28.29251227191535
 20
121.383422502579
  0
LINE
  5
D3
100
AcDbEntity
  8
Corte
  6
ByLayer
 62
    1
370
   -1
100
AcDbLine
 10
20.35130380688898
 20
121.8922399802878
 11
20.68640309959601
 21
122.7604557363027
  0
LINE
  5
D4
100
AcDbEntity
  8
Corte
  6
ByLayer
 62
    1
370
   -1
100
AcDbLine
 10
20.68640309959601
 20
122.7604557363027
 11
21.32352761647165
 21
123.434243771703
  0
LINE
  5
D5
100
AcDbEntity
  8
Corte
  6
ByLayer
 62
    1
370
   -1
100
AcDbLine
 10
16.76529093997282
 20
87.99453033140503
 11
15.9094034805846
 21
88.32989863173931
  0
LINE
  5
D6
100
AcDbEntity
  8
Corte
  6
ByLayer
 62
    1
370
   -1
100
AcDbLine
 10
15.9094034805846
 20
88.32989863173931
 11
15.24690237208608
 21
88.97198949858917
  0
LINE
  5
D7
100
AcDbEntity
  8
Corte
  6
ByLayer
 62
    1
370
   -1
100
AcDbLine
 10
15.24690237208608
 20
88.97198949858917
 11
14.87865024549499
 21
89.82305256200675
  0
LINE
  5
D8
100
AcDbEntity
  8
Corte
  6
ByLayer
 62
    1
370
   -1
100
AcDbLine
 10
14.86070719021745
 20
90.75351920930406
 11
14.86070719021745
 21
90.75351920930406
  0
LINE
  5
D9
100
AcDbEntity
  8
Corte
  6
ByLayer
 62
  256
370
   -1
100
AcDbLine
 10
20.3513
 20
121.892
 11
18.9608
 21
113.881
  0
LINE
  5
DA
100
AcDbEntity
  8
Corte
  6
ByLayer
 62
    1
370
   -1
100
AcDbLine
 10
32.64588889353867
 20
122.066928720024
 11
33.30838878733888
 21
121.4248380673583
  0
LINE
  5
DB
100
AcDbEntity
  8
Corte
  6
ByLayer
 62
    1
370
   -1
100
AcDbLine
 10
33.30838878733888
 20
121.4248380673583
 11
33.67664212862828
 21
120.5737747897566
  0
LINE
  5
DC
100
AcDbEntity
  8
Corte
  6
ByLayer
 62
    1
370
   -1
100
AcDbLine
 10
28.23591152772111
 20
88.56413213571959
 11
27.86888927452726
 21
87.63637161546065
  0
LINE
  5
DD
100
AcDbEntity
  8
Corte
  6
ByLayer
 62
    1
370
   -1
100
AcDbLine
 10
27.86888927452726
 20
87.63637161546065
 11
27.23176354295332
 21
86.96258379424442
  0
LINE
  5
DE
100
AcDbEntity
  8
Corte
  6
ByLayer
 62
    1
370
   -1
100
AcDbLine
 10
31.20104630256958
 20
122.4022970203584
 11
32.64588889353867
 21
122.066928720024
  0
LINE
  5
DF
100
AcDbEntity
  8
Corte
  6
ByLayer
 62
    1
370
   -1
100
AcDbLine
 10
33.67664212862828
 20
120.5737747897566
 11
33.7069410766975
 21
119.4140102185275
  0
LINE
  5
E0
100
AcDbEntity
  8
Corte
  6
ByLayer
 62
    1
370
   -1
100
AcDbLine
 10
21.32352761647165
 20
123.434243771703
 11
22.19030672485057
 21
123.8209787253625
  0
LINE
  5
E1
100
AcDbEntity
  8
Corte
  6
ByLayer
 62
    1
370
   -1
100
AcDbLine
 10
23.13415453343457
 20
123.8209787253625
 11
31.20104630256958
 21
122.4022970203584
  0
LINE
  5
E2
100
AcDbEntity
  8
Corte
  6
ByLayer
 62
    1
370
   -1
100
AcDbLine
 10
27.23176354295332
 20
86.96258379424442
 11
26.20546445843977
 21
86.50629059706884
  0
LINE
  5
E3
100
AcDbEntity
  8
Corte
  6
ByLayer
 62
    1
370
   -1
100
AcDbLine
 10
25.22419740266374
 20
86.50629059706884
 11
16.76529093997282
 21
87.99453033140503
  0
LINE
  5
E4
100
AcDbEntity
  8
Corte
  6
ByLayer
 62
    1
370
   -1
100
AcDbLine
 10
14.87865024549499
 20
89.82305256200675
 11
14.86602389110362
 21
90.7496660509975
  0
LWPOLYLINE
  5
E5
100
AcDbEntity
  8
Corte
  6
ByLayer
 62
    1
370
   -1
100
AcDbPolyline
 90
   21
 70
    1
 43
0
 10
16.91043205284931
 20
91.55658070736115
 10
17.09071521872724
 20
90.88908083318493
 10
17.45287384337913
 20
90.30295409185584
 10
17.97881434616107
 20
89.84001362550163
 10
18.61630439318539
 20
89.5539968248026
 10
19.29507248542438
 20
89.47003035197895
 10
19.96996557864544
 20
89.58701074805988
 10
20.59583127979216
 20
89.9038382470784
 10
21.10343157962235
 20
90.39198401104944
 10
21.44265486849802
 20
90.99521724686734
 10
21.5970364430677
 20
91.67087797696828
 10
21.55011303173688
 20
92.3763072406056
 10
21.30112302218312
 20
93.03593471853497
 10
20.8819849792673
 20
93.58159641813323
 10
20.32525114690609
 20
93.98174434082242
 10
19.66347112256074
 20
94.20482968539137
 10
18.74449727860322
 20
94.18241731985235
 10
17.90234286301617
 20
93.80563654929625
 10
17.26521734850095
 20
93.13184995908132
 10
16.93011805579392
 20
92.26363420306636
 10
16.93011805579392
 20
92.26363420306636
  0
LINE
  5
E6
100
AcDbEntity
  8
Corte
  6
ByLayer
 62
    1
370
   -1
100
AcDbLine
 10
46.42857052142857
 20
130.00000006
 11
-3.298948417551628e-15
 21
130.00000006
  0
LINE
  5
E7
100
AcDbEntity
  8
Corte
  6
ByLayer
 62
    1
370
   -1
100
AcDbLine
 10
-3.298948417551628e-15
 20
130.00000006
 11
0
 21
65.00000003
  0
LINE
  5
E8
100
AcDbEntity
  8
Corte
  6
ByLayer
 62
    1
370
   -1
100
AcDbLine
 10
46.42857145
 20
65.00000003
 11
-3.298948417551628e-15
 21
65.00000003
  0
LINE
  5
E9
100
AcDbEntity
  8
Corte
  6
ByLayer
 62
    1
370
   -1
100
AcDbLine
 10
46.42857052142857
 20
130.00000006
 11
46.42858073571429
 21
65.00000003
  0
ENDSEC
  0
SECTION
  2
OBJECTS
  0
DICTIONARY
  5
C
330
0
100
AcDbDictionary
281
    1
  3
ACAD_GROUP
350
D
  0
DICTIONARY
  5
D
330
C
100
AcDbDictionary
281
    1
  0
PLOTSETTINGS
  5
EA
100
AcDbPlotSettings
  6
1x1
 40
0
 41
0
 42
0
 43
0
  0
ENDSEC
  0
EOF
