999
dxfrw 0.6.3
  0
SECTION
  2
HEADER
  9
$ACADVER
  1
AC1021
  9
$DWGCODEPAGE
  3
ANSI_1252
  9
$INSBASE
 10
0
 20
0
 30
0
  9
$EXTMIN
 10
0
 20
0
 30
0
  9
$EXTMAX
 10
46.42857145
 20
65.00000003
 30
0
  9
$LIMMIN
 10
0
 20
0
  9
$LIMMAX
 10
420
 20
297
  9
$ORTHOMODE
 70
    0
  9
$REGENMODE
 70
    1
  9
$FILLMODE
 70
    1
  9
$QTEXTMODE
 70
    0
  9
$MIRRTEXT
 70
    0
  9
$LTSCALE
 40
1
  9
$ATTMODE
 70
    0
  9
$TEXTSIZE
 40
2.5
  9
$TRACEWID
 40
15.68
  9
$TEXTSTYLE
  7
STANDARD
  9
$CLAYER
  8
Corte
  9
$CELTYPE
  6
BYLAYER
  9
$CECOLOR
 62
  256
  9
$CELTSCALE
 40
1
  9
$DISPSILH
 70
    0
  9
$DIMSCALE
 40
1
  9
$DIMASZ
 40
2.5
  9
$DIMEXO
 40
0.625
  9
$DIMDLI
 40
3.75
  9
$DIMRND
 40
0
  9
$DIMDLE
 40
0
  9
$DIMEXE
 40
1.25
  9
$DIMTP
 40
0
  9
$DIMTM
 40
0
  9
$DIMTXT
 40
2.5
  9
$DIMCEN
 40
2.5
  9
$DIMTSZ
 40
0
  9
$DIMTOL
 70
    0
  9
$DIMLIM
 70
    0
  9
$DIMTIH
 70
    0
  9
$DIMTOH
 70
    0
  9
$DIMSE1
 70
    0
  9
$DIMSE2
 70
    0
  9
$DIMTAD
 70
    1
  9
$DIMZIN
 70
    8
  9
$DIMBLK
  1

  9
$DIMASO
 70
    1
  9
$DIMSHO
 70
    1
  9
$DIMPOST
  1

  9
$DIMAPOST
  1

  9
$DIMALT
 70
    0
  9
$DIMALTD
 70
    3
  9
$DIMALTF
 40
0.03937
  9
$DIMLFAC
 40
1
  9
$DIMTOFL
 70
    1
  9
$DIMTVP
 40
0
  9
$DIMTIX
 70
    0
  9
$DIMSOXD
 70
    0
  9
$DIMSAH
 70
    0
  9
$DIMBLK1
  1

  9
$DIMBLK2
  1

  9
$DIMSTYLE
  2
Standard
  9
$DIMCLRD
 70
    0
  9
$DIMCLRE
 70
    0
  9
$DIMCLRT
 70
    0
  9
$DIMTFAC
 40
1
  9
$DIMGAP
 40
0.625
  9
$DIMJUST
 70
    0
  9
$DIMSD1
 70
    0
  9
$DIMSD2
 70
    0
  9
$DIMTOLJ
 70
    0
  9
$DIMTZIN
 70
    8
  9
$DIMALTZ
 70
    0
  9
$DIMALTTZ
 70
    0
  9
$DIMUPT
 70
    0
  9
$DIMDEC
 70
    2
  9
$DIMTDEC
 70
    2
  9
$DIMALTU
 70
    2
  9
$DIMALTTD
 70
    3
  9
$DIMTXSTY
  7
STANDARD
  9
$DIMAUNIT
 70
    0
  9
$DIMADEC
 70
    0
  9
$DIMALTRND
 40
0
  9
$DIMAZIN
 70
    0
  9
$DIMDSEP
 70
   44
  9
$DIMATFIT
 70
    3
  9
$DIMFRAC
 70
    0
  9
$DIMLDRBLK
  1
STANDARD
  9
$DIMLUNIT
 70
    2
  9
$DIMLWD
 70
   -2
  9
$DIMLWE
 70
   -2
  9
$DIMTMOVE
 70
    0
  9
$DIMFXL
 40
1
  9
$DIMFXLON
 70
    0
  9
$DIMJOGANG
 40
0.7854
  9
$DIMTFILL
 70
    0
  9
$DIMTFILLCLR
 70
    0
  9
$DIMARCSYM
 70
    0
  9
$DIMLTYPE
  6

  9
$DIMLTEX1
  6

  9
$DIMLTEX2
  6

  9
$LUNITS
 70
    2
  9
$LUPREC
 70
    4
  9
$SKETCHINC
 40
1
  9
$FILLETRAD
 40
0
  9
$AUNITS
 70
    0
  9
$AUPREC
 70
    2
  9
$MENU
  1
.
  9
$ELEVATION
 40
0
  9
$PELEVATION
 40
0
  9
$THICKNESS
 40
0
  9
$LIMCHECK
 70
    0
  9
$CHAMFERA
 40
0
  9
$CHAMFERB
 40
0
  9
$CHAMFERC
 40
0
  9
$CHAMFERD
 40
0
  9
$SKPOLY
 70
    0
  9
$USRTIMER
 70
    1
  9
$ANGBASE
 50
0
  9
$ANGDIR
 70
    0
  9
$PDMODE
 70
   96
  9
$PDSIZE
 40
-2
  9
$PLINEWID
 40
0
  9
$SPLFRAME
 70
    0
  9
$SPLINETYPE
 70
    2
  9
$SPLINESEGS
 70
    8
  9
$HANDSEED
  5
20000
  9
$SURFTAB1
 70
    6
  9
$SURFTAB2
 70
    6
  9
$SURFTYPE
 70
    6
  9
$SURFU
 70
    6
  9
$SURFV
 70
    6
  9
$UCSBASE
  2

  9
$UCSNAME
  2

  9
$UCSORG
 10
0
 20
0
 30
0
  9
$UCSXDIR
 10
1
 20
0
 30
0
  9
$UCSYDIR
 10
0
 20
1
 30
0
  9
$UCSORTHOREF
  2

  9
$UCSORTHOVIEW
 70
    0
  9
$UCSORGTOP
 10
0
 20
0
 30
0
  9
$UCSORGBOTTOM
 10
0
 20
0
 30
0
  9
$UCSORGLEFT
 10
0
 20
0
 30
0
  9
$UCSORGRIGHT
 10
0
 20
0
 30
0
  9
$UCSORGFRONT
 10
0
 20
0
 30
0
  9
$UCSORGBACK
 10
0
 20
0
 30
0
  9
$PUCSBASE
  2

  9
$PUCSNAME
  2

  9
$PUCSORG
 10
0
 20
0
 30
0
  9
$PUCSXDIR
 10
1
 20
0
 30
0
  9
$PUCSYDIR
 10
0
 20
1
 30
0
  9
$PUCSORTHOREF
  2

  9
$PUCSORTHOVIEW
 70
    0
  9
$PUCSORGTOP
 10
0
 20
0
 30
0
  9
$PUCSORGBOTTOM
 10
0
 20
0
 30
0
  9
$PUCSORGLEFT
 10
0
 20
0
 30
0
  9
$PUCSORGRIGHT
 10
0
 20
0
 30
0
  9
$PUCSORGFRONT
 10
0
 20
0
 30
0
  9
$PUCSORGBACK
 10
0
 20
0
 30
0
  9
$USERI1
 70
    0
  9
$USERI2
 70
    0
  9
$USERI3
 70
    0
  9
$USERI4
 70
    0
  9
$USERI5
 70
    0
  9
$USERR1
 40
0
  9
$USERR2
 40
0
  9
$USERR3
 40
0
  9
$USERR4
 40
0
  9
$USERR5
 40
0
  9
$WORLDVIEW
 70
    1
  9
$SHADEDGE
 70
    3
  9
$SHADEDIF
 70
   70
  9
$TILEMODE
 70
    1
  9
$MAXACTVP
 70
   64
  9
$PINSBASE
 10
0
 20
0
 30
0
  9
$PLIMCHECK
 70
    0
  9
$PEXTMIN
 10
0
 20
0
 30
0
  9
$PEXTMAX
 10
0
 20
0
 30
0
  9
$GRIDMODE
 70
    1
  9
$SNAPSTYLE
 70
    0
  9
$PLIMMIN
 10
0
 20
0
  9
$PLIMMAX
 10
210
 20
297
  9
$UNITMODE
 70
    0
  9
$VISRETAIN
 70
    1
  9
$PLINEGEN
 70
    0
  9
$PSLTSCALE
 70
    1
  9
$TREEDEPTH
 70
 3020
  9
$CMLSTYLE
  2
Standard
  9
$CMLJUST
 70
    0
  9
$CMLSCALE
 40
20
  9
$PROXYGRAPHICS
 70
    1
  9
$MEASUREMENT
 70
    1
  9
$CELWEIGHT
370
   -1
  9
$ENDCAPS
280
    0
  9
$JOINSTYLE
280
    0
  9
$LWDISPLAY
290
    0
  9
$INSUNITS
 70
    4
  9
$HYPERLINKBASE
  1

  9
$STYLESHEET
  1

  9
$XEDIT
290
    1
  9
$CEPSNTYPE
380
    0
  9
$PSTYLEMODE
290
    1
  9
$EXTNAMES
290
    1
  9
$PSVPSCALE
 40
1
  9
$OLESTARTUP
290
    0
  9
$SORTENTS
280
  127
  9
$INDEXCTL
280
    0
  9
$HIDETEXT
280
    1
  9
$XCLIPFRAME
290
    0
  9
$HALOGAP
280
    0
  9
$OBSCOLOR
 70
  257
  9
$OBSLTYPE
280
    0
  9
$INTERSECTIONDISPLAY
280
    0
  9
$INTERSECTIONCOLOR
 70
  257
  9
$DIMASSOC
280
    1
  9
$PROJECTNAME
  1

  9
$CAMERADISPLAY
290
    0
  9
$LENSLENGTH
 40
50
  9
$CAMERAHEIGHT
 40
0
  9
$STEPSPERSEC
 40
2
  9
$STEPSIZE
 40
50
  9
$3DDWFPREC
 40
2
  9
$PSOLWIDTH
 40
5
  9
$PSOLHEIGHT
 40
80
  9
$LOFTANG1
 40
1.570796326794897
  9
$LOFTANG2
 40
1.570796326794897
  9
$LOFTMAG1
 40
0
  9
$LOFTMAG2
 40
0
  9
$LOFTPARAM
 70
    7
  9
$LOFTNORMALS
280
    1
  9
$LATITUDE
 40
1
  9
$LONGITUDE
 40
1
  9
$NORTHDIRECTION
 40
0
  9
$TIMEZONE
 70
-8000
  9
$LIGHTGLYPHDISPLAY
280
    1
  9
$TILEMODELIGHTSYNCH
280
    1
  9
$SOLIDHIST
280
    1
  9
$SHOWHIST
280
    1
  9
$DWFFRAME
280
    2
  9
$DGNFRAME
280
    0
  9
$REALWORLDSCALE
290
    1
  9
$INTERFERECOLOR
 62
    1
  9
$CSHADOW
280
    0
  9
$SHADOWPLANELOCATION
 40
0
  0
ENDSEC
  0
SECTION
  2
CLASSES
  0
ENDSEC
  0
SECTION
  2
TABLES
  0
TABLE
  2
VPORT
  5
8
330
0
100
AcDbSymbolTable
 70
    1
  0
VPORT
  5
31
330
2
100
AcDbSymbolTableRecord
100
AcDbViewportTableRecord
  2
*ACTIVE
 70
    0
 10
0
 20
0
 11
1
 21
1
 12
59.9146832794692
 22
47.9597114699135
 13
0
 23
0
 14
10
 24
10
 15
10
 25
10
 16
0
 26
0
 36
1
 17
0
 27
0
 37
0
 40
110.1814945722794
 41
1.722081218274112
 42
50
 43
0
 44
0
 50
0
 51
0
 71
    0
 72
  100
 73
    1
 74
    3
 75
    0
 76
    1
 77
    0
 78
    0
281
    0
 65
    1
110
0
120
0
130
0
111
1
121
0
131
0
112
0
122
1
132
0
 79
    0
146
0
348
10020
 60
    7
 61
    5
292
1
282
    1
141
0
142
0
 63
  250
421
3358443
  0
ENDTAB
  0
TABLE
  2
LTYPE
  5
5
330
0
100
AcDbSymbolTable
 70
    4
  0
LTYPE
  5
14
330
5
100
AcDbSymbolTableRecord
100
AcDbLinetypeTableRecord
  2
ByBlock
 70
    0
  3

 72
   65
 73
    0
 40
0
  0
LTYPE
  5
15
330
5
100
AcDbSymbolTableRecord
100
AcDbLinetypeTableRecord
  2
ByLayer
 70
    0
  3

 72
   65
 73
    0
 40
0
  0
LTYPE
  5
16
330
5
100
AcDbSymbolTableRecord
100
AcDbLinetypeTableRecord
  2
Continuous
 70
    0
  3
Solid line
 72
   65
 73
    0
 40
0
  0
LTYPE
  5
32
330
5
100
AcDbSymbolTableRecord
100
AcDbLinetypeTableRecord
  2
DOT
 70
    0
  3
Dot . . . . . . . . . . . . . . . . . . . . . .
 72
   65
 73
    2
 40
6.35
 49
0
 74
    0
 49
-6.35
 74
    0
  0
LTYPE
  5
33
330
5
100
AcDbSymbolTableRecord
100
AcDbLinetypeTableRecord
  2
DOTTINY
 70
    0
  3
Dot (.15x) .....................................
 72
   65
 73
    2
 40
0.9525
 49
0
 74
    0
 49
-0.9525
 74
    0
  0
LTYPE
  5
34
330
5
100
AcDbSymbolTableRecord
100
AcDbLinetypeTableRecord
  2
DOT2
 70
    0
  3
Dot (.5x) .....................................
 72
   65
 73
    2
 40
3.175
 49
0
 74
    0
 49
-3.175
 74
    0
  0
LTYPE
  5
35
330
5
100
AcDbSymbolTableRecord
100
AcDbLinetypeTableRecord
  2
DOTX2
 70
    0
  3
Dot (2x) .  .  .  .  .  .  .  .  .  .  .  .  .
 72
   65
 73
    2
 40
12.7
 49
0
 74
    0
 49
-12.7
 74
    0
  0
LTYPE
  5
36
330
5
100
AcDbSymbolTableRecord
100
AcDbLinetypeTableRecord
  2
DASHED
 70
    0
  3
Dashed _ _ _ _ _ _ _ _ _ _ _ _ _ _ _ _ _
 72
   65
 73
    2
 40
19.05
 49
12.7
 74
    0
 49
-6.35
 74
    0
  0
LTYPE
  5
37
330
5
100
AcDbSymbolTableRecord
100
AcDbLinetypeTableRecord
  2
DASHEDTINY
 70
    0
  3
Dashed (.15x) _ _ _ _ _ _ _ _ _ _ _ _ _ _ _ _ _
 72
   65
 73
    2
 40
2.8575
 49
1.905
 74
    0
 49
-0.9525
 74
    0
  0
LTYPE
  5
38
330
5
100
AcDbSymbolTableRecord
100
AcDbLinetypeTableRecord
  2
DASHED2
 70
    0
  3
Dashed (.5x) _ _ _ _ _ _ _ _ _ _ _ _ _ _ _ _ _
 72
   65
 73
    2
 40
9.524999999999999
 49
6.35
 74
    0
 49
-3.175
 74
    0
  0
LTYPE
  5
39
330
5
100
AcDbSymbolTableRecord
100
AcDbLinetypeTableRecord
  2
DASHEDX2
 70
    0
  3
Dashed (2x) ____  ____  ____  ____  ____  ___
 72
   65
 73
    2
 40
38.09999999999999
 49
25.4
 74
    0
 49
-12.7
 74
    0
  0
LTYPE
  5
3A
330
5
100
AcDbSymbolTableRecord
100
AcDbLinetypeTableRecord
  2
DASHDOT
 70
    0
  3
Dash dot __ . __ . __ . __ . __ . __ . __ . __
 72
   65
 73
    4
 40
25.4
 49
12.7
 74
    0
 49
-6.35
 74
    0
 49
0
 74
    0
 49
-6.35
 74
    0
  0
LTYPE
  5
3B
330
5
100
AcDbSymbolTableRecord
100
AcDbLinetypeTableRecord
  2
DASHDOTTINY
 70
    0
  3
Dash dot (.15x) _._._._._._._._._._._._._._._.
 72
   65
 73
    4
 40
3.81
 49
1.905
 74
    0
 49
-0.9525
 74
    0
 49
0
 74
    0
 49
-0.9525
 74
    0
  0
LTYPE
  5
3C
330
5
100
AcDbSymbolTableRecord
100
AcDbLinetypeTableRecord
  2
DASHDOT2
 70
    0
  3
Dash dot (.5x) _._._._._._._._._._._._._._._.
 72
   65
 73
    4
 40
12.7
 49
6.35
 74
    0
 49
-3.175
 74
    0
 49
0
 74
    0
 49
-3.175
 74
    0
  0
LTYPE
  5
3D
330
5
100
AcDbSymbolTableRecord
100
AcDbLinetypeTableRecord
  2
DASHDOTX2
 70
    0
  3
Dash dot (2x) ____  .  ____  .  ____  .  ___
 72
   65
 73
    4
 40
50.8
 49
25.4
 74
    0
 49
-12.7
 74
    0
 49
0
 74
    0
 49
-12.7
 74
    0
  0
LTYPE
  5
3E
330
5
100
AcDbSymbolTableRecord
100
AcDbLinetypeTableRecord
  2
DIVIDE
 70
    0
  3
Divide ____ . . ____ . . ____ . . ____ . . ____
 72
   65
 73
    6
 40
31.75
 49
12.7
 74
    0
 49
-6.35
 74
    0
 49
0
 74
    0
 49
-6.35
 74
    0
 49
0
 74
    0
 49
-6.35
 74
    0
  0
LTYPE
  5
3F
330
5
100
AcDbSymbolTableRecord
100
AcDbLinetypeTableRecord
  2
DIVIDETINY
 70
    0
  3
Divide (.15x) __..__..__..__..__..__..__..__.._
 72
   65
 73
    6
 40
4.7625
 49
1.905
 74
    0
 49
-0.9525
 74
    0
 49
0
 74
    0
 49
-0.9525
 74
    0
 49
0
 74
    0
 49
-0.9525
 74
    0
  0
LTYPE
  5
40
330
5
100
AcDbSymbolTableRecord
100
AcDbLinetypeTableRecord
  2
DIVIDE2
 70
    0
  3
Divide (.5x) __..__..__..__..__..__..__..__.._
 72
   65
 73
    6
 40
15.875
 49
6.35
 74
    0
 49
-3.175
 74
    0
 49
0
 74
    0
 49
-3.175
 74
    0
 49
0
 74
    0
 49
-3.175
 74
    0
  0
LTYPE
  5
41
330
5
100
AcDbSymbolTableRecord
100
AcDbLinetypeTableRecord
  2
DIVIDEX2
 70
    0
  3
Divide (2x) ________  .  .  ________  .  .  _
 72
   65
 73
    6
 40
63.5
 49
25.4
 74
    0
 49
-12.7
 74
    0
 49
0
 74
    0
 49
-12.7
 74
    0
 49
0
 74
    0
 49
-12.7
 74
    0
  0
LTYPE
  5
42
330
5
100
AcDbSymbolTableRecord
100
AcDbLinetypeTableRecord
  2
BORDER
 70
    0
  3
Border __ __ . __ __ . __ __ . __ __ . __ __ .
 72
   65
 73
    6
 40
44.45
 49
12.7
 74
    0
 49
-6.35
 74
    0
 49
12.7
 74
    0
 49
-6.35
 74
    0
 49
0
 74
    0
 49
-6.35
 74
    0
  0
LTYPE
  5
43
330
5
100
AcDbSymbolTableRecord
100
AcDbLinetypeTableRecord
  2
BORDERTINY
 70
    0
  3
Border (.15x) __.__.__.__.__.__.__.__.__.__.__.
 72
   65
 73
    6
 40
6.6675
 49
1.905
 74
    0
 49
-0.9525
 74
    0
 49
1.905
 74
    0
 49
-0.9525
 74
    0
 49
0
 74
    0
 49
-0.9525
 74
    0
  0
LTYPE
  5
44
330
5
100
AcDbSymbolTableRecord
100
AcDbLinetypeTableRecord
  2
BORDER2
 70
    0
  3
Border (.5x) __.__.__.__.__.__.__.__.__.__.__.
 72
   65
 73
    6
 40
22.225
 49
6.35
 74
    0
 49
-3.175
 74
    0
 49
6.35
 74
    0
 49
-3.175
 74
    0
 49
0
 74
    0
 49
-3.175
 74
    0
  0
LTYPE
  5
45
330
5
100
AcDbSymbolTableRecord
100
AcDbLinetypeTableRecord
  2
BORDERX2
 70
    0
  3
Border (2x) ____  ____  .  ____  ____  .  ___
 72
   65
 73
    6
 40
88.89999999999999
 49
25.4
 74
    0
 49
-12.7
 74
    0
 49
25.4
 74
    0
 49
-12.7
 74
    0
 49
0
 74
    0
 49
-12.7
 74
    0
  0
LTYPE
  5
46
330
5
100
AcDbSymbolTableRecord
100
AcDbLinetypeTableRecord
  2
CENTER
 70
    0
  3
Center ____ _ ____ _ ____ _ ____ _ ____ _ ____
 72
   65
 73
    4
 40
50.8
 49
31.75
 74
    0
 49
-6.35
 74
    0
 49
6.35
 74
    0
 49
-6.35
 74
    0
  0
LTYPE
  5
47
330
5
100
AcDbSymbolTableRecord
100
AcDbLinetypeTableRecord
  2
CENTERTINY
 70
    0
  3
Center (.15x) ___ _ ___ _ ___ _ ___ _ ___ _ ___
 72
   65
 73
    4
 40
7.619999999999999
 49
4.7625
 74
    0
 49
-0.9525
 74
    0
 49
0.9525
 74
    0
 49
-0.9525
 74
    0
  0
LTYPE
  5
48
330
5
100
AcDbSymbolTableRecord
100
AcDbLinetypeTableRecord
  2
CENTER2
 70
    0
  3
Center (.5x) ___ _ ___ _ ___ _ ___ _ ___ _ ___
 72
   65
 73
    4
 40
28.575
 49
19.05
 74
    0
 49
-3.175
 74
    0
 49
3.175
 74
    0
 49
-3.175
 74
    0
  0
LTYPE
  5
49
330
5
100
AcDbSymbolTableRecord
100
AcDbLinetypeTableRecord
  2
CENTERX2
 70
    0
  3
Center (2x) ________  __  ________  __  _____
 72
   65
 73
    4
 40
101.6
 49
63.5
 74
    0
 49
-12.7
 74
    0
 49
12.7
 74
    0
 49
-12.7
 74
    0
  0
ENDTAB
  0
TABLE
  2
LAYER
  5
2
330
0
100
AcDbSymbolTable
 70
    1
  0
LAYER
  5
10
330
2
100
AcDbSymbolTableRecord
100
AcDbLayerTableRecord
  2
0
 70
    0
 62
    7
  6
CONTINUOUS
370
   25
390
F
  0
LAYER
  5
4A
330
2
100
AcDbSymbolTableRecord
100
AcDbLayerTableRecord
  2
Corte
 70
    0
 62
    1
  6
CONTINUOUS
370
    0
390
F
  0
LAYER
  5
4B
330
2
100
AcDbSymbolTableRecord
100
AcDbLayerTableRecord
  2
Gravação
 70
    0
 62
    5
  6
CONTINUOUS
370
   -3
390
F
  0
ENDTAB
  0
TABLE
  2
STYLE
  5
3
330
0
100
AcDbSymbolTable
 70
    3
  0
STYLE
  5
4C
330
2
100
AcDbSymbolTableRecord
100
AcDbTextStyleTableRecord
  2
Standard
 70
    0
 40
0
 41
1
 50
0
 71
    0
 42
1
  3
txt
  4

  0
ENDTAB
  0
TABLE
  2
VIEW
  5
6
330
0
100
AcDbSymbolTable
 70
    0
  0
ENDTAB
  0
TABLE
  2
UCS
  5
7
330
0
100
AcDbSymbolTable
 70
    0
  0
ENDTAB
  0
TABLE
  2
APPID
  5
9
330
0
100
AcDbSymbolTable
 70
    1
  0
APPID
  5
12
330
9
100
AcDbSymbolTableRecord
100
AcDbRegAppTableRecord
  2
ACAD
 70
    0
  0
APPID
  5
4D
330
9
100
AcDbSymbolTableRecord
100
AcDbRegAppTableRecord
  2
LibreCad
 70
    0
  0
ENDTAB
  0
TABLE
  2
DIMSTYLE
  5
A
330
0
100
AcDbSymbolTable
 70
    1
100
AcDbDimStyleTable
 71
    1
  0
DIMSTYLE
105
4E
330
A
100
AcDbSymbolTableRecord
100
AcDbDimStyleTableRecord
  2
Standard
 70
    0
 40
1
 41
2.5
 42
0.625
 43
0.38
 44
1.25
 45
0
 46
0
 47
0
 48
0
 49
1
140
2.5
141
0.09
142
0
143
25.4
144
1
145
0
146
1
147
0.625
148
0
 71
    0
 72
    0
 73
    0
 74
    1
 75
    0
 76
    0
 77
    0
 78
    8
 79
    0
170
    0
171
    2
172
    0
173
    0
174
    0
175
    0
176
    0
177
    0
178
    0
179
    0
271
    2
272
    4
273
    2
274
    2
275
    0
276
    0
277
    2
278
   44
279
    0
280
    0
281
    0
282
    0
283
    1
284
    0
285
    0
286
    0
288
    0
289
    3
340
4C
  0
ENDTAB
  0
TABLE
  2
BLOCK_RECORD
  5
1
330
0
100
AcDbSymbolTable
 70
    2
  0
BLOCK_RECORD
  5
1F
330
1
100
AcDbSymbolTableRecord
100
AcDbBlockTableRecord
  2
*Model_Space
 70
    0
280
    1
281
    0
  0
BLOCK_RECORD
  5
1E
330
1
100
AcDbSymbolTableRecord
100
AcDbBlockTableRecord
  2
*Paper_Space
 70
    0
280
    1
281
    0
  0
BLOCK_RECORD
  5
4F
330
1
100
AcDbSymbolTableRecord
100
AcDbBlockTableRecord
  2
chaveiro2
 70
    0
280
    1
281
    0
  0
BLOCK_RECORD
  5
52
330
1
100
AcDbSymbolTableRecord
100
AcDbBlockTableRecord
  2
texto
 70
    0
280
    1
281
    0
  0
BLOCK_RECORD
  5
55
330
1
100
AcDbSymbolTableRecord
100
AcDbBlockTableRecord
  2
chaveiro
 70
    0
280
    1
281
    0
  0
ENDTAB
  0
ENDSEC
  0
SECTION
  2
BLOCKS
  0
BLOCK
  5
20
330
1F
100
AcDbEntity
  8
0
100
AcDbBlockBegin
  2
*Model_Space
 70
    0
 10
0
 20
0
 30
0
  3
*Model_Space
  1

  0
ENDBLK
  5
21
330
1F
100
AcDbEntity
  8
0
100
AcDbBlockEnd
  0
BLOCK
  5
1C
330
1B
100
AcDbEntity
  8
0
100
AcDbBlockBegin
  2
*Paper_Space
 70
    0
 10
0
 20
0
 30
0
  3
*Paper_Space
  1

  0
ENDBLK
  5
1D
330
1F
100
AcDbEntity
  8
0
100
AcDbBlockEnd
  0
BLOCK
  5
50
330
4F
100
AcDbEntity
  8
0
100
AcDbBlockBegin
  2
chaveiro2
 70
    0
 10
0
 20
0
  3
chaveiro2
  1

  0
LWPOLYLINE
  5
58
100
AcDbEntity
  8
0
  6
ByLayer
 62
  256
370
   -1
100
AcDbPolyline
 90
   21
 70
    1
 43
0
 10
-13.441376
 20
-6.44242899999999
 10
-13.221578
 20
-7.261019999999988
 10
-12.776049
 20
-7.982063999999994
 10
-12.12698
 20
-8.554204999999996
 10
-11.338791
 20
-8.911128999999988
 10
-10.498399
 20
-9.021322999999995
 10
-9.661745
 20
-8.885639999999995
 10
-8.884767
 20
-8.504926999999995
 10
-8.253386000000003
 20
-7.913323999999989
 10
-7.829975000000001
 20
-7.179072999999988
 10
-7.635157
 20
-6.354180999999997
 10
-7.689552000000003
 20
-5.49065499999999
 10
-7.994503000000002
 20
-4.680937999999998
 10
-8.510831
 20
-4.008771999999993
 10
-9.198378000000002
 20
-3.513110999999995
 10
-10.016988
 20
-3.232908999999992
 10
-11.175633
 20
-3.25383699999999
 10
-12.20073
 20
-3.701889999999992
 10
-12.983021
 20
-4.501636999999988
 10
-13.413248
 20
-5.577648999999994
 10
-13.413248
 20
-5.577648999999994
  0
LWPOLYLINE
  5
59
100
AcDbEntity
  8
0
  6
ByLayer
 62
  256
370
   -1
100
AcDbPolyline
 90
   57
 70
    1
 43
0
 10
-1.547971
 20
-7.045265999999998
 10
-1.479705000000003
 20
-6.844248999999991
 10
-1.507411000000001
 20
-6.481230999999994
 10
-1.716972999999999
 20
-6.185389000000001
 10
-2.090158000000002
 20
-5.960032999999996
 10
-2.585536000000001
 20
-5.819012999999998
 10
-3.40212
 20
-5.820160999999999
 10
-4.092563000000002
 20
-6.126999999999995
 10
-4.606577000000001
 20
-6.704788999999991
 10
-4.909312
 20
-7.534780999999995
 10
-4.915024000000003
 20
-8.525936000000002
 10
-4.575760000000002
 20
-9.347916999999995
 10
-3.925144
 20
-9.94433699999999
 10
-3.007366000000001
 20
-10.28198999999999
 10
-2.074233
 20
-10.295914
 10
-1.307525999999999
 20
-9.984203999999991
 10
-0.7465350000000015
 20
-9.389905999999996
 10
-0.4283199999999994
 20
-8.543909999999997
 10
-0.3841859999999997
 20
-8.131256999999991
 10
-0.3903660000000002
 20
-7.822408999999993
 10
-0.1875450000000001
 20
-7.777969999999996
 10
-0.00219900000000095
 20
-8.000309999999999
 10
-0.04011000000000209
 20
-8.652737000000002
 10
-0.4160240000000002
 20
-9.676555999999991
 10
-1.081607999999999
 20
-10.396136
 10
-1.986516000000002
 20
-10.77672899999999
 10
-3.095335000000002
 20
-10.76203
 10
-4.177681
 20
-10.362832
 10
-4.930886000000001
 20
-9.640861000000001
 10
-5.322438000000002
 20
-8.658588999999992
 10
-5.305415
 20
-7.468564999999998
 10
-4.939431000000003
 20
-6.430361999999988
 10
-4.318614
 20
-5.715147999999999
 10
-3.48387
 20
-5.340541999999999
 10
-2.491614999999999
 20
-5.340166999999994
 10
-1.80611
 20
-5.548930999999996
 10
-1.329343000000001
 20
-5.885877999999991
 10
-1.083523
 20
-6.343795999999998
 10
-1.078739000000002
 20
-6.917689999999993
 10
-1.208449000000002
 20
-7.283279999999991
 10
-1.443637000000003
 20
-7.573033999999993
 10
-1.347384999999999
 20
-7.904638999999989
 10
-1.369489000000002
 20
-8.333891999999992
 10
-1.537458000000001
 20
-8.805509000000001
 10
-1.842301000000003
 20
-9.13273199999999
 10
-2.268484000000001
 20
-9.299582000000001
 10
-2.800519000000001
 20
-9.290099999999995
 10
-3.366007
 20
-9.08609899999999
 10
-3.751169000000001
 20
-8.720416
 10
-3.944458000000001
 20
-8.232872999999998
 10
-3.935902000000002
 20
-7.637861999999998
 10
-3.811572000000002
 20
-7.23360799999999
 10
-3.627688000000003
 20
-6.915633999999997
 10
-3.284331000000002
 20
-6.721048999999994
 10
-3.194245000000002
 20
-6.743482999999998
 10
-3.104158000000002
 20
-6.765917000000002
 10
-1.654731000000002
 20
-7.182699999999997
  0
LWPOLYLINE
  5
5A
100
AcDbEntity
  8
0
  6
ByLayer
 62
  256
370
   -1
100
AcDbPolyline
 90
   10
 70
    1
 43
0
 10
-2.066103000000002
 20
-8.708682999999994
 10
-1.758259000000002
 20
-8.193618000000001
 10
-1.844829000000001
 20
-7.637699999999995
 10
-3.323820000000001
 20
-7.209820999999991
 10
-3.446160000000003
 20
-7.432321999999999
 10
-3.540483000000002
 20
-7.741586999999996
 10
-3.539714
 20
-8.105949999999993
 10
-3.394963000000001
 20
-8.421335999999997
 10
-2.709257000000001
 20
-8.791838999999996
 10
-2.709300000000002
 20
-8.791831000000002
  0
LWPOLYLINE
  5
5B
100
AcDbEntity
  8
0
  6
ByLayer
 62
  256
370
   -1
100
AcDbPolyline
 90
   10
 70
    1
 43
0
 10
-0.6273420000000023
 20
-4.350335000000001
 10
-0.6335890000000006
 20
-4.487294999999989
 10
-0.7241610000000023
 20
-4.673222999999993
 10
-0.9001730000000023
 20
-4.708490999999995
 10
-4.649003
 20
-4.021856
 10
-4.656566000000002
 20
-3.92627499999999
 10
-4.650319
 20
-3.789314999999988
 10
-4.559747000000002
 20
-3.603386999999998
 10
-4.383735000000001
 20
-3.568118999999996
 10
-0.6349049999999998
 20
-4.254753999999991
  0
LWPOLYLINE
  5
5C
100
AcDbEntity
  8
0
  6
ByLayer
 62
  256
370
   -1
100
AcDbPolyline
 90
    9
 70
    1
 43
0
 10
-0.5511180000000024
 20
-1.808443999999994
 10
-0.6099430000000012
 20
-1.546486000000002
 10
-1.490942
 20
-1.385121999999996
 10
-1.549997000000001
 20
-2.152985999999999
 10
-1.489867
 20
-2.647543999999996
 10
-1.189589000000002
 20
-2.859529999999992
 10
-0.7988500000000016
 20
-2.748995999999991
 10
-0.5793510000000026
 20
-2.23657399999999
 10
-0.5792500000000018
 20
-2.236592000000002
  0
LWPOLYLINE
  5
5D
100
AcDbEntity
  8
0
  6
ByLayer
 62
  256
370
   -1
100
AcDbPolyline
 90
   27
 70
    1
 43
0
 10
-2.759869999999999
 20
-0.9765230000000003
 10
-2.411989000000002
 20
-0.8000409999999931
 10
-1.955779
 20
-0.8035339999999991
 10
-0.5157930000000022
 20
-1.067280999999994
 10
-0.3192330000000005
 20
-1.159801000000002
 10
-0.2194630000000011
 20
-1.335076999999998
 10
-0.1448630000000009
 20
-1.750637999999995
 10
-0.1781380000000006
 20
-2.309719000000001
 10
-0.5654190000000021
 20
-3.15562899999999
 10
-0.8829160000000016
 20
-3.337676000000002
 10
-1.272286000000001
 20
-3.346424999999996
 10
-1.611205000000002
 20
-3.216838999999993
 10
-1.825945000000001
 20
-2.97497899999999
 10
-1.946491000000002
 20
-2.193057999999994
 10
-1.873577000000001
 20
-1.314697999999993
 10
-2.043711000000002
 20
-1.283535999999998
 10
-2.520632000000003
 20
-1.384574999999998
 10
-2.750567
 20
-1.851118
 10
-2.765572000000002
 20
-2.34446299999999
 10
-2.674970999999999
 20
-2.775518999999989
 10
-2.788830000000001
 20
-2.848860000000002
 10
-2.917073000000002
 20
-2.863050000000001
 10
-3.049085000000002
 20
-2.794961999999998
 10
-3.127949000000001
 20
-2.642411999999993
 10
-3.186545000000002
 20
-2.24233199999999
 10
-3.150623
 20
-1.771657999999988
 10
-3.150404000000002
 20
-1.771593999999993
  0
LWPOLYLINE
  5
5E
100
AcDbEntity
  8
0
  6
ByLayer
 62
  256
370
   -1
100
AcDbPolyline
 90
   21
 70
    1
 43
0
 10
-2.361503000000003
 20
2.021297000000004
 10
-2.011301
 20
2.390455000000003
 10
-1.498333000000002
 20
2.585362000000003
 10
-0.8232090000000021
 20
2.568511000000001
 10
-0.1798690000000001
 20
2.343873000000002
 10
0.2284760000000006
 20
1.96765400000001
 10
0.420653999999999
 20
1.474040000000002
 10
0.4011539999999982
 20
0.887307000000007
 10
0.2291999999999987
 20
0.35991700000001
 10
0
 20
0
 10
-0.1841660000000012
 20
-0.1483849999999904
 10
-0.3996530000000007
 20
-0.1592039999999884
 10
-3.826456
 20
0.4684480000000093
 10
-3.834019000000001
 20
0.5640300000000025
 10
-3.826642
 20
0.7071609999999993
 10
-3.736904000000003
 20
0.888536000000002
 10
-3.561170000000001
 20
0.9222859999999997
 10
-2.473580999999999
 20
0.7230830000000026
 10
-2.561534000000002
 20
1.065734000000006
 10
-2.548291000000003
 20
1.515448000000006
 10
-2.548348000000001
 20
1.515459000000007
  0
LWPOLYLINE
  5
5F
100
AcDbEntity
  8
0
  6
ByLayer
 62
  256
370
   -1
100
AcDbPolyline
 90
   14
 70
    1
 43
0
 10
-2.152977
 20
0.9657880000000034
 10
-2.030189
 20
0.6418720000000064
 10
-0.3107159999999993
 20
0.3269340000000085
 10
-0.135270000000002
 20
0.5648220000000066
 10
9.999999974752427e-07
 20
0.9607820000000089
 10
0.007175999999997629
 20
1.342541000000011
 10
-0.1399110000000015
 20
1.670908000000011
 10
-0.4395820000000015
 20
1.920462999999998
 10
-0.9134080000000004
 20
2.076374999999999
 10
-1.411735
 20
2.098522000000003
 10
-1.780402000000002
 20
1.971380000000011
 10
-2.028252000000002
 20
1.715350000000001
 10
-2.160793999999999
 20
1.369118
 10
-2.160693999999999
 20
1.369099000000006
  0
LWPOLYLINE
  5
60
100
AcDbEntity
  8
0
  6
ByLayer
 62
  256
370
   -1
100
AcDbPolyline
 90
   38
 70
    1
 43
0
 10
-1.004905000000001
 20
6.890787000000003
 10
-1.228162000000001
 20
6.460699000000005
 10
-1.077769
 20
5.704701
 10
-0.8098330000000011
 20
5.693304000000012
 10
1.122301
 20
5.339415000000002
 10
1.128759000000002
 20
5.237806000000006
 10
1.123616999999996
 20
5.106873000000007
 10
1.033045000000001
 20
4.920945000000003
 10
0.8570330000000013
 20
4.885677999999999
 10
-0.8624399999999994
 20
5.200616000000011
 10
-1.331066
 20
5.110607000000002
 10
-1.555434999999999
 20
4.67444900000001
 10
-1.562608000000001
 20
4.292704000000001
 10
-1.476232
 20
3.975457000000006
 10
0.7961570000000009
 20
3.559246999999999
 10
0.8037199999999984
 20
3.463666000000003
 10
0.7974729999999965
 20
3.326706000000001
 10
0.706901000000002
 20
3.140777
 10
0.5308890000000019
 20
3.10551000000001
 10
-1.540995000000002
 20
3.48499600000001
 10
-1.732588
 20
3.570374999999999
 10
-1.869322
 20
3.783811
 10
-1.969855000000003
 20
4.229236
 10
-1.955314000000001
 20
4.754069000000001
 10
-1.767357000000001
 20
5.265979000000002
 10
-1.465849000000002
 20
5.574989000000002
 10
-1.624404000000002
 20
6.012201000000005
 10
-1.622525
 20
6.570758000000012
 10
-1.242007000000001
 20
7.311146000000008
 10
-0.9072580000000023
 20
7.475904
 10
-0.4716249999999995
 20
7.471470000000011
 10
1.448352
 20
7.119807000000009
 10
1.454810999999999
 20
7.018197999999998
 10
1.449669
 20
6.887266000000011
 10
1.359094999999996
 20
6.701327000000006
 10
1.183081999999999
 20
6.666056000000012
 10
-0.5363900000000008
 20
6.98099400000001
 10
-0.5362810000000025
 20
6.980781000000007
  0
LWPOLYLINE
  5
61
100
AcDbEntity
  8
0
  6
ByLayer
 62
  256
370
   -1
100
AcDbPolyline
 90
    9
 70
    1
 43
0
 10
1.523310000000002
 20
9.517343000000011
 10
1.464484999999996
 20
9.779301000000004
 10
0.5834860000000006
 20
9.94066500000001
 10
0.5244309999999999
 20
9.172801000000007
 10
0.5845619999999982
 20
8.678244000000007
 10
0.8848389999999995
 20
8.466256999999999
 10
1.275581000000003
 20
8.576806000000005
 10
1.495077000000002
 20
9.089213000000001
 10
1.495177999999996
 20
9.089195000000004
  0
LWPOLYLINE
  5
62
100
AcDbEntity
  8
0
  6
ByLayer
 62
  256
370
   -1
100
AcDbPolyline
 90
   27
 70
    1
 43
0
 10
-0.6854420000000019
 20
10.349265
 10
-0.3375610000000009
 20
10.52574700000001
 10
0.1186489999999978
 20
10.522254
 10
1.558635000000002
 20
10.25850600000001
 10
1.755195000000001
 20
10.165987
 10
1.854968
 20
9.990724
 10
1.929566999999999
 20
9.575163000000003
 10
1.896293
 20
9.016083000000009
 10
1.509011000000001
 20
8.170173000000005
 10
1.191511999999996
 20
7.988127000000006
 10
0.8021299999999982
 20
7.979379000000009
 10
0.4632109999999976
 20
8.108965000000012
 10
0.2484719999999996
 20
8.350825
 10
0.1279389999999978
 20
9.132743000000005
 10
0.2008539999999996
 20
10.011104
 10
0.03073399999999893
 20
10.04226300000001
 10
-0.4461870000000019
 20
9.941224000000005
 10
-0.6761219999999994
 20
9.474681000000004
 10
-0.6911260000000006
 20
8.981335999999999
 10
-0.6005260000000021
 20
8.550280000000001
 10
-0.714385
 20
8.476939000000002
 10
-0.8426280000000013
 20
8.46275
 10
-0.9746400000000008
 20
8.530838000000003
 10
-1.053504
 20
8.68338700000001
 10
-1.112102
 20
9.083452000000008
 10
-1.076181000000002
 20
9.554127000000008
 10
-1.075976000000001
 20
9.554193000000012
  0
LWPOLYLINE
  5
63
100
AcDbEntity
  8
0
  6
ByLayer
 62
  256
370
   -1
100
AcDbPolyline
 90
   24
 70
    1
 43
0
 10
2.269553000000002
 20
11.46589
 10
2.263306999999998
 20
11.32893
 10
2.172734999999996
 20
11.14300200000001
 10
1.996722999999996
 20
11.10773400000001
 10
-1.752107000000002
 20
11.794369
 10
-1.75967
 20
11.88995
 10
-1.752293000000002
 20
12.03308200000001
 10
-1.662555000000001
 20
12.21445700000001
 10
-1.486821000000003
 20
12.24820700000001
 10
0.7004999999999981
 20
11.847577
 10
-0.3438639999999999
 20
13.41412200000001
 10
-0.2297779999999996
 20
13.62557100000001
 10
-0.05014000000000252
 20
13.68063400000001
 10
0.0917369999999984
 20
13.59813000000001
 10
0.2108489999999996
 20
13.4256
 10
0.8883790000000005
 20
12.290464
 10
2.351714000000001
 20
13.422813
 10
2.548786999999997
 20
13.29875200000001
 10
2.594340000000003
 20
13.102017
 10
2.520693999999999
 20
12.93966300000001
 10
2.359251999999998
 20
12.812245
 10
0.9010449999999963
 20
11.81083100000001
 10
2.262048999999998
 20
11.56155000000001
 10
2.261989999999997
 20
11.56147100000001
  0
LWPOLYLINE
  5
64
100
AcDbEntity
  8
0
  6
ByLayer
 62
  256
370
   -1
100
AcDbPolyline
 90
   24
 70
    1
 43
0
 10
2.319020000000002
 20
14.74425400000001
 10
2.646540999999999
 20
15.409569
 10
2.646006999999997
 20
15.886921
 10
2.523825000000002
 20
16.24840500000001
 10
2.781407999999999
 20
16.351939
 10
2.930998000000002
 20
16.24295400000001
 10
3.032955000000001
 20
16.01077400000001
 10
3.074477999999999
 20
15.689177
 10
3.043050000000001
 20
15.311875
 10
2.831617000000001
 20
14.69750900000001
 10
2.455503
 20
14.264026
 10
1.928700999999997
 20
14.04495200000001
 10
1.262980999999996
 20
14.06169700000001
 10
0.6671079999999989
 20
14.271263
 10
0.2565360000000005
 20
14.63532600000001
 10
0.04999199999999959
 20
15.119021
 10
0.04569700000000054
 20
15.67869400000001
 10
0.2292029999999983
 20
16.16630400000001
 10
0.5627959999999987
 20
16.51337600000001
 10
1.005587999999996
 20
16.70231200000001
 10
1.521603999999996
 20
16.708225
 10
1.704903000000002
 20
16.61190400000001
 10
1.740623999999997
 20
16.429519
 10
1.659183999999996
 20
14.510306
  0
LWPOLYLINE
  5
65
100
AcDbEntity
  8
0
  6
ByLayer
 62
  256
370
   -1
100
AcDbPolyline
 90
    6
 70
    1
 43
0
 10
0.5884700000000009
 20
14.93876200000001
 10
1.276907999999999
 20
14.54892000000001
 10
1.352071000000002
 20
16.26208200000001
 10
0.7618390000000019
 20
16.12527900000001
 10
0.4396109999999993
 20
15.600284
 10
0.4396109999999993
 20
15.600284
  0
LWPOLYLINE
  5
66
100
AcDbEntity
  8
0
  6
ByLayer
 62
  256
370
   -1
100
AcDbPolyline
 90
   18
 70
    1
 43
0
 10
3.375731000000002
 20
17.505308
 10
3.369484999999997
 20
17.36834700000001
 10
3.278911000000001
 20
17.182408
 10
3.102897999999996
 20
17.147137
 10
1.043171000000001
 20
17.52439600000001
 10
0.8333499999999958
 20
17.61311400000001
 10
0.7015749999999983
 20
17.81936700000001
 10
0.6032679999999999
 20
18.27694800000002
 10
0.6367290000000025
 20
18.90507699999999
 10
0.7642570000000006
 20
19.258495
 10
0.968786999999999
 20
19.346625
 10
1.080843000000002
 20
19.30726199999999
 10
1.157041
 20
19.24301799999999
 10
1.103850000000001
 20
19.08948300000002
 10
1.056756
 20
18.89715199999999
 10
1.027326000000002
 20
18.393885
 10
1.096401999999998
 20
18.017014
 10
3.368167999999997
 20
17.60088900000001
  0
LWPOLYLINE
  5
67
100
AcDbEntity
  8
0
  6
ByLayer
 62
  256
370
   -1
100
AcDbPolyline
 90
    9
 70
    1
 43
0
 10
3.112462000000001
 20
18.947671
 10
3.060923000000003
 20
19.21458400000002
 10
3.202602999999996
 20
19.43981800000002
 10
3.461222999999997
 20
19.48041500000001
 10
3.682594000000002
 20
19.35190300000001
 10
3.735247000000001
 20
19.091075
 10
3.592452000000002
 20
18.85975600000002
 10
3.339903999999997
 20
18.81804699999999
 10
3.339903999999997
 20
18.81804699999999
  0
LWPOLYLINE
  5
68
100
AcDbEntity
  8
0
  6
ByLayer
 62
  256
370
   -1
100
AcDbPolyline
 90
   17
 70
    1
 43
0
 10
4.560235999999996
 20
19.61813600000001
 10
4.459350999999998
 20
19.78732700000002
 10
4.287695999999997
 20
19.912964
 10
4.008800999999998
 20
20.00172400000001
 10
1.031618999999999
 20
20.54702400000001
 10
1.024056000000002
 20
20.64260500000002
 10
1.031433
 20
20.785737
 10
1.122689000000001
 20
20.96683399999999
 10
1.302976999999998
 20
20.99974999999999
 10
4.189019999999999
 20
20.471143
 10
4.613129999999998
 20
20.31810600000001
 10
4.859245000000001
 20
20.084636
 10
4.971074999999999
 20
19.838083
 10
4.976833999999997
 20
19.62979800000001
 10
4.846744000000001
 20
19.43383000000001
 10
4.627918999999999
 20
19.40478299999999
 10
4.627961999999997
 20
19.40477500000001
  0
LWPOLYLINE
  5
69
100
AcDbEntity
  8
0
  6
ByLayer
 62
  256
370
   -1
100
AcDbPolyline
 90
    9
 70
    1
 43
0
 10
-0.07799100000000081
 20
20.76286900000001
 10
-0.1268430000000009
 20
21.01043600000001
 10
0.005472999999998507
 20
21.21856100000001
 10
0.2337229999999977
 20
21.26472
 10
0.4368659999999984
 20
21.13954700000001
 10
0.4807989999999975
 20
20.899141
 10
0.3534019999999991
 20
20.68385500000001
 10
0.1190809999999978
 20
20.638808
 10
0.1190809999999978
 20
20.638808
  0
LWPOLYLINE
  5
6A
100
AcDbEntity
  8
0
  6
ByLayer
 62
  256
370
   -1
100
AcDbPolyline
 90
    9
 70
    1
 43
0
 10
3.983900999999996
 20
22.95147000000001
 10
3.925078999999997
 20
23.213442
 10
3.044080000000001
 20
23.37480599999999
 10
2.985022000000001
 20
22.606928
 10
3.045155000000001
 20
22.112385
 10
3.34543
 20
21.90038400000002
 10
3.736171999999996
 20
22.01093200000001
 10
3.955667999999996
 20
22.52334
 10
3.955768999999997
 20
22.52332199999999
  0
LWPOLYLINE
  5
6B
100
AcDbEntity
  8
0
  6
ByLayer
 62
  256
370
   -1
100
AcDbPolyline
 90
   27
 70
    1
 43
0
 10
1.775148999999999
 20
23.78339100000001
 10
2.12303
 20
23.959873
 10
2.579239999999999
 20
23.95638000000001
 10
4.019225999999996
 20
23.69263300000001
 10
4.215786000000001
 20
23.60011300000001
 10
4.315559
 20
23.424851
 10
4.390155999999998
 20
23.00927600000001
 10
4.356881000000001
 20
22.45019499999999
 10
3.969602000000002
 20
21.60429900000001
 10
3.652102999999997
 20
21.422253
 10
3.262720999999999
 20
21.413506
 10
2.923802000000002
 20
21.543088
 10
2.709060000000001
 20
21.784937
 10
2.588527999999997
 20
22.56685600000002
 10
2.661445000000001
 20
23.44523
 10
2.491324999999996
 20
23.47638999999999
 10
2.014403999999999
 20
23.37535100000001
 10
1.784469000000001
 20
22.90880800000001
 10
1.769461999999997
 20
22.41544900000001
 10
1.860061999999999
 20
21.984393
 10
1.746203000000001
 20
21.911051
 10
1.617959999999997
 20
21.89686200000001
 10
1.485948
 20
21.96495
 10
1.407083999999998
 20
22.117499
 10
1.348489000000001
 20
22.517579
 10
1.384410000000003
 20
22.988254
 10
1.384614999999997
 20
22.98832
  0
LWPOLYLINE
  5
6C
100
AcDbEntity
  8
0
  6
ByLayer
 62
  256
370
   -1
100
AcDbPolyline
 90
   24
 70
    1
 43
0
 10
4.583064999999998
 20
24.78250300000001
 10
4.296548999999999
 20
24.63246300000002
 10
3.909401000000003
 20
24.635868
 10
1.023356999999997
 20
25.164475
 10
1.015794999999997
 20
25.26005600000001
 10
1.023170999999998
 20
25.40318700000002
 10
1.112909000000002
 20
25.58456199999999
 10
1.288643999999998
 20
25.61831200000002
 10
1.987366000000002
 20
25.490334
 10
2.169873000000003
 20
26.48677100000002
 10
2.261660999999997
 20
26.507637
 10
2.374366000000002
 20
26.50583400000001
 10
2.54757
 20
26.28571800000002
 10
2.388379999999998
 20
25.416588
 10
3.968102000000002
 20
25.127246
 10
4.338901999999997
 20
25.197435
 10
4.507291000000002
 20
25.56849100000001
 10
4.513125000000002
 20
25.806056
 10
4.466965000000002
 20
26.034306
 10
4.570354000000002
 20
26.08449600000002
 10
4.703521000000002
 20
26.09155300000002
 10
4.893318000000001
 20
25.893512
 10
4.898302000000001
 20
25.44045900000002
 10
4.898293000000002
 20
25.44065400000001
  0
LWPOLYLINE
  5
6D
100
AcDbEntity
  8
0
  6
ByLayer
 62
  256
370
   -1
100
AcDbPolyline
 90
    9
 70
    1
 43
0
 10
4.959939999999996
 20
28.280366
 10
4.901116000000002
 20
28.54232499999999
 10
4.020116000000002
 20
28.70368800000001
 10
3.961061000000001
 20
27.93582400000001
 10
4.021191999999999
 20
27.441267
 10
4.321469
 20
27.22928
 10
4.712209000000001
 20
27.339815
 10
4.931708
 20
27.85223700000002
 10
4.931807999999997
 20
27.85221800000001
  0
LWPOLYLINE
  5
6E
100
AcDbEntity
  8
0
  6
ByLayer
 62
  256
370
   -1
100
AcDbPolyline
 90
   27
 70
    1
 43
0
 10
2.751188999999997
 20
29.11228799999999
 10
3.099069
 20
29.28877000000001
 10
3.555278999999999
 20
29.28527699999999
 10
4.995264999999996
 20
29.021529
 10
5.191825000000001
 20
28.92900999999999
 10
5.291598
 20
28.75374800000002
 10
5.366197999999997
 20
28.33818700000002
 10
5.332923000000001
 20
27.779106
 10
4.945641999999999
 20
26.933196
 10
4.628141999999997
 20
26.75115000000001
 10
4.238760999999997
 20
26.74240200000001
 10
3.899841000000002
 20
26.87198500000001
 10
3.685099000000001
 20
27.11383400000001
 10
3.564569999999996
 20
27.89576699999999
 10
3.637484000000001
 20
28.77412700000001
 10
3.467363999999996
 20
28.80528600000001
 10
2.990442999999999
 20
28.704247
 10
2.760508000000002
 20
28.23770499999999
 10
2.745503999999997
 20
27.74436000000001
 10
2.836103999999999
 20
27.313304
 10
2.722245000000001
 20
27.23996200000001
 10
2.594001999999996
 20
27.22577300000002
 10
2.46199
 20
27.29386100000001
 10
2.383125999999997
 20
27.44641
 10
2.324531
 20
27.84649
 10
2.360452000000002
 20
28.317165
 10
2.360653999999997
 20
28.31721700000001
  0
LWPOLYLINE
  5
6F
100
AcDbEntity
  8
0
  6
ByLayer
 62
  256
370
   -1
100
AcDbPolyline
 90
   10
 70
    1
 43
0
 10
5.709519
 20
30.24712699999999
 10
5.703272999999996
 20
30.110167
 10
5.612701000000001
 20
29.92423800000002
 10
5.436689000000001
 20
29.88897100000001
 10
2.830131000000002
 20
30.36638700000002
 10
2.822567999999997
 20
30.461968
 10
2.829945000000002
 20
30.60510000000001
 10
2.921200999999996
 20
30.786197
 10
3.101487999999996
 20
30.819113
 10
5.701955999999996
 20
30.342708
  0
LWPOLYLINE
  5
70
100
AcDbEntity
  8
0
  6
ByLayer
 62
  256
370
   -1
100
AcDbPolyline
 90
    9
 70
    1
 43
0
 10
1.720512999999997
 20
30.58218900000001
 10
1.671664
 20
30.82977100000001
 10
1.803976999999996
 20
31.03788100000001
 10
2.032226999999999
 20
31.08404
 10
2.235369999999996
 20
30.95886700000001
 10
2.279305999999998
 20
30.718475
 10
2.151905999999997
 20
30.50317500000001
 10
1.917585000000003
 20
30.458128
 10
1.917585000000003
 20
30.458128
  0
LWPOLYLINE
  5
71
100
AcDbEntity
  8
0
  6
ByLayer
 62
  256
370
   -1
100
AcDbPolyline
 90
   21
 70
    1
 43
0
 10
-7.917037000000001
 20
31.168009
 10
-7.486810000000002
 20
32.24401999999999
 10
-6.704519000000001
 20
33.04376700000002
 10
-5.679422000000002
 20
33.49182
 10
-4.520777000000002
 20
33.512749
 10
5.525973
 20
31.672589
 10
6.584443999999998
 20
31.252886
 10
7.401730999999998
 20
30.46007100000001
 10
7.853408000000002
 20
29.414843
 10
7.870713000000002
 20
28.27632900000002
 10
0.9043929999999989
 20
-9.757795999999999
 10
0.4741649999999993
 20
-10.83380699999999
 10
-0.3081260000000015
 20
-11.63355399999999
 10
-1.333223
 20
-12.08160699999999
 10
-2.491866999999999
 20
-12.102536
 10
-12.538617
 20
-10.26237599999999
 10
-13.614629
 20
-9.832147999999989
 10
-14.414376
 20
-9.049858
 10
-14.862429
 20
-8.024760999999998
 10
-14.883357
 20
-6.866115999999991
 10
-14.883357
 20
-6.866115999999991
  0
ENDBLK
  5
51
330
4F
100
AcDbEntity
  8
0
100
AcDbBlockEnd
  0
BLOCK
  5
53
330
52
100
AcDbEntity
  8
0
100
AcDbBlockBegin
  2
texto
 70
    0
 10
0
 20
0
  3
texto
  1

  0
LWPOLYLINE
  5
72
100
AcDbEntity
  8
0
  6
ByLayer
 62
  256
370
   -1
100
AcDbPolyline
 90
    9
 70
    1
 43
0
 10
-7.703134349725561
 20
-1.663146275597001
 10
-7.112276349725562
 20
1.892543724402998
 10
-5.702161349725561
 20
1.892543724402998
 10
-5.861047349725562
 20
0.9453767244030047
 10
-6.347636349725562
 20
0.9453767244030047
 10
-6.407220349725561
 20
0.9302267244029991
 10
-6.44197234972556
 20
0.8694237244030063
 10
-5.87594034972556
 20
0.8694237244030063
 10
-6.297984349725562
 20
-1.663146275597001
  0
LWPOLYLINE
  5
73
100
AcDbEntity
  8
0
  6
ByLayer
 62
  256
370
   -1
100
AcDbPolyline
 90
    9
 70
    1
 43
0
 10
-5.503549349725562
 20
-1.663146275597001
 10
-4.912691349725561
 20
1.892543724402998
 10
-3.502577349725561
 20
1.892543724402998
 10
-3.661463349725562
 20
0.9453767244030047
 10
-4.148051349725561
 20
0.9453767244030047
 10
-4.20763534972556
 20
0.9302267244029991
 10
-4.242387349725561
 20
0.8694237244030063
 10
-3.676356349725561
 20
0.8694237244030063
 10
-4.098399349725561
 20
-1.663146275597001
  0
LWPOLYLINE
  5
74
100
AcDbEntity
  8
0
  6
ByLayer
 62
  256
370
   -1
100
AcDbPolyline
 90
    9
 70
    1
 43
0
 10
-3.30396534972556
 20
-1.663146275597001
 10
-2.713107349725561
 20
1.892543724402998
 10
-1.30299234972556
 20
1.892543724402998
 10
-1.46187934972556
 20
0.9453767244030047
 10
-1.948467349725561
 20
0.9453767244030047
 10
-2.008051349725561
 20
0.9302267244029991
 10
-2.042803349725562
 20
0.8694237244030063
 10
-1.476771349725562
 20
0.8694237244030063
 10
-1.898815349725561
 20
-1.663146275597001
  0
LWPOLYLINE
  5
75
100
AcDbEntity
  8
0
  6
ByLayer
 62
  256
370
   -1
100
AcDbPolyline
 90
   30
 70
    1
 43
0
 10
-0.1609913497255597
 20
-0.9641282755970053
 10
-0.1510603497255616
 20
-0.9083752755969954
 10
0.2262946502744398
 20
1.360783724403007
 10
0.3206306502744383
 20
1.614043724403004
 10
0.4795156502744398
 20
1.776119724403003
 10
0.6632286502744407
 20
1.862273724402996
 10
0.8320446502744403
 20
1.892674724402994
 10
3.994872650274438
 20
1.892674724402994
 10
3.835986650274439
 20
0.9455077244030008
 10
1.020721650274439
 20
0.9455077244030008
 10
0.9561776502744372
 20
0.9303577244029952
 10
0.9263866502744378
 20
0.8695547244030024
 10
1.49738365027444
 20
0.8695547244030024
 10
1.229262650274439
 20
-0.7158172755970043
 10
2.207406650274439
 20
-0.7158172755970043
 10
2.29181165027444
 20
-0.3004812755969937
 10
1.71088365027444
 20
-0.3004812755969937
 10
1.87970065027444
 20
0.646686724402997
 10
3.796264650274438
 20
0.646686724402997
 10
3.488423650274438
 20
-1.131163275597004
 10
3.394087650274439
 20
-1.384413275596998
 10
3.235200650274439
 20
-1.546500275596998
 10
3.05148865027444
 20
-1.637704275597002
 10
2.88267265027444
 20
-1.663055275597003
 10
0.4546936502744394
 20
-1.663055275597003
 10
0.2759466502744381
 20
-1.632654275597005
 10
0.07237365027443943
 20
-1.526289275596994
 10
-0.09147734972556165
 20
-1.328752275596997
 10
-0.1609923497255608
 20
-1.019779275597003
 10
-0.1609913497255597
 20
-1.019880275597004
  0
LWPOLYLINE
  5
76
100
AcDbEntity
  8
0
  6
ByLayer
 62
  256
370
   -1
100
AcDbPolyline
 90
    4
 70
    1
 43
0
 10
5.548982650274439
 20
-1.663146275597001
 10
4.143833650274438
 20
-1.663146275597001
 10
4.734691650274439
 20
1.892543724402998
 10
6.144805650274439
 20
1.892543724402998
  0
LWPOLYLINE
  5
77
100
AcDbEntity
  8
0
  6
ByLayer
 62
  256
370
   -1
100
AcDbPolyline
 90
   24
 70
    1
 43
0
 10
10.00276465027444
 20
1.892543724402998
 10
10.18151165027444
 20
1.857092724403003
 10
10.38508465027444
 20
1.750727724403006
 10
10.54893665027444
 20
1.553190724402995
 10
10.61845065027444
 20
1.249278724402998
 10
10.61349965027444
 20
1.193525724403003
 10
10.60854965027444
 20
1.137773724403004
 10
10.14182265027444
 20
-1.663227275596995
 10
8.791288650274439
 20
-1.663227275596995
 10
8.80618965027444
 20
-1.566973275596993
 10
8.835981650274437
 20
-1.404886275596994
 10
8.890594650274441
 20
-1.106044275597
 10
8.955138650274439
 20
-0.7160292755969948
 10
9.024653650274438
 20
-0.2804322755969935
 10
9.09912765027444
 20
0.1500947244030044
 10
9.158711650274437
 20
0.5147787244030013
 10
9.203393650274439
 20
0.773098724402999
 10
9.218294650274441
 20
0.8794737244029989
 10
9.18354265027444
 20
0.9250247244030021
 10
9.12395965027444
 20
0.9453257244030056
 10
8.081268650274438
 20
0.9453257244030056
 10
7.644331650274438
 20
-1.663196275597002
 10
6.29379965027444
 20
-1.663196275597002
 10
6.884623650274438
 20
1.892543724402998
  0
LWPOLYLINE
  5
78
100
AcDbEntity
  8
0
  6
ByLayer
 62
  256
370
   -1
100
AcDbPolyline
 90
   29
 70
    1
 43
0
 10
11.33343865027444
 20
-1.663146275597001
 10
11.15469265027444
 20
-1.632744275597005
 10
10.95111965027444
 20
-1.526380275597006
 10
10.78726765027444
 20
-1.328842275596998
 10
10.71775365027444
 20
-1.019870275597
 10
10.71775365027444
 20
-0.9641182755970021
 10
10.72768465027444
 20
-0.9083652755970064
 10
11.10503865027444
 20
1.360793724402996
 10
11.19937365027444
 20
1.614053724403007
 10
11.35826065027444
 20
1.776129724403006
 10
11.54197265027444
 20
1.862283724402999
 10
11.71078865027444
 20
1.892684724402997
 10
14.58563565027444
 20
1.892684724402997
 10
14.43171465027444
 20
0.945517724403004
 10
12.47046365027444
 20
0.945517724403004
 10
12.40591965027444
 20
0.9252167244030005
 10
12.37612765027444
 20
0.8847157244029944
 10
12.35626665027444
 20
0.7783507244029977
 10
12.32647465027444
 20
0.5909437244030045
 10
12.28179165027444
 20
0.3427537244029963
 10
12.23710865027444
 20
0.07430372440299493
 10
12.19242665027444
 20
-0.1992172755969932
 10
12.15270365027444
 20
-0.4271462755969964
 10
12.12788265027444
 20
-0.5841622755969951
 10
12.11795165027444
 20
-0.6500152755969992
 10
12.15270365027444
 20
-0.7007172755970004
 10
12.21228765027444
 20
-0.7158672755970059
 10
14.15367765027444
 20
-0.7158672755970059
 10
13.99478265027444
 20
-1.663146275597001
  0
LWPOLYLINE
  5
79
100
AcDbEntity
  8
0
  6
ByLayer
 62
  256
370
   -1
100
AcDbPolyline
 90
   12
 70
    1
 43
0
 10
15.43964565027444
 20
1.892543724402998
 10
17.34131365027444
 20
1.892543724402998
 10
17.51509565027444
 20
1.862142724403
 10
17.70873865027444
 20
1.765888724402998
 10
17.87258965027444
 20
1.588611724402995
 10
17.95699465027444
 20
1.320160724402996
 10
18.25490665027444
 20
-1.663176275596996
 10
16.96395565027444
 20
-1.663176275596996
 10
16.91430265027444
 20
-1.151596275597001
 10
15.92623365027444
 20
-1.151596275597001
 10
15.78720865027444
 20
-1.663176275596996
 10
14.49129365027444
 20
-1.663146275597001
  0
LWPOLYLINE
  5
7A
100
AcDbEntity
  8
0
  6
ByLayer
 62
  256
370
   -1
100
AcDbPolyline
 90
    6
 70
    1
 43
0
 10
16.71073465027444
 20
0.884593724403004
 10
16.68094265027444
 20
0.9250957244030076
 10
16.61639865027444
 20
0.9453967244029968
 10
16.48730065027444
 20
0.9453967244029968
 10
16.17945965027444
 20
-0.2043982755970006
 10
16.81996865027444
 20
-0.2043982755970006
  0
LWPOLYLINE
  5
7B
100
AcDbEntity
  8
0
  6
ByLayer
 62
  256
370
   -1
100
AcDbPolyline
 90
   24
 70
    1
 43
0
 10
22.26182365027444
 20
1.892543724402998
 10
22.44057065027444
 20
1.857092724403003
 10
22.64414365027444
 20
1.750727724403006
 10
22.80799465027444
 20
1.553190724402995
 10
22.87750965027444
 20
1.249278724402998
 10
22.87255865027444
 20
1.193525724403003
 10
22.86760865027444
 20
1.137773724403004
 10
22.40087965027444
 20
-1.663227275596995
 10
21.05034765027444
 20
-1.663227275596995
 10
21.06524865027444
 20
-1.566973275596993
 10
21.09504065027444
 20
-1.404886275596994
 10
21.14965365027444
 20
-1.106044275597
 10
21.21419765027444
 20
-0.7160292755969948
 10
21.28371165027444
 20
-0.2804322755969935
 10
21.35818665027444
 20
0.1500947244030044
 10
21.41776965027444
 20
0.5147787244030013
 10
21.46245265027444
 20
0.773098724402999
 10
21.47734365027444
 20
0.8794737244029989
 10
21.44259165027444
 20
0.9250247244030021
 10
21.38300765027444
 20
0.9453257244030056
 10
20.34031765027444
 20
0.9453257244030056
 10
19.90337965027444
 20
-1.663196275597002
 10
18.55284765027444
 20
-1.663196275597002
 10
19.14368265027444
 20
1.892543724402998
  0
LWPOLYLINE
  5
7C
100
AcDbEntity
  8
0
  6
ByLayer
 62
  256
370
   -1
100
AcDbPolyline
 90
   12
 70
    1
 43
0
 10
23.92516665027444
 20
1.892543724402998
 10
25.82683565027444
 20
1.892543724402998
 10
26.00061865027444
 20
1.862142724403
 10
26.19426065027444
 20
1.765888724402998
 10
26.35811265027444
 20
1.588611724402995
 10
26.44251765027444
 20
1.320160724402996
 10
26.74042865027444
 20
-1.663176275596996
 10
25.44947865027444
 20
-1.663176275596996
 10
25.39982565027444
 20
-1.151596275597001
 10
24.41175265027444
 20
-1.151596275597001
 10
24.27272765027444
 20
-1.663176275596996
 10
22.97681565027444
 20
-1.663146275597001
  0
LWPOLYLINE
  5
7D
100
AcDbEntity
  8
0
  6
ByLayer
 62
  256
370
   -1
100
AcDbPolyline
 90
    6
 70
    1
 43
0
 10
25.19625665027444
 20
0.884593724403004
 10
25.16646465027444
 20
0.9250957244030076
 10
25.10192065027444
 20
0.9453967244029968
 10
24.97282565027444
 20
0.9453967244029968
 10
24.66498365027444
 20
-0.2043782755969943
 10
25.30549065027444
 20
-0.2043982755970006
  0
LWPOLYLINE
  5
7E
100
AcDbEntity
  8
0
  6
ByLayer
 62
  256
370
   -1
100
AcDbPolyline
 90
    9
 70
    1
 43
0
 10
-12.01539334972556
 20
-7.994504275596995
 10
-11.42453534972556
 20
-4.438815275596994
 10
-10.01442034972556
 20
-4.438815275596994
 10
-10.17330634972556
 20
-5.385982275597001
 10
-10.65989534972556
 20
-5.385982275597001
 10
-10.71947834972556
 20
-5.401233275596994
 10
-10.75423434972556
 20
-5.462036275597001
 10
-10.18820234972556
 20
-5.462036275597001
 10
-10.61024334972556
 20
-7.994504275596995
  0
LWPOLYLINE
  5
7F
100
AcDbEntity
  8
0
  6
ByLayer
 62
  256
370
   -1
100
AcDbPolyline
 90
   24
 70
    1
 43
0
 10
-6.156462349725562
 20
-4.438815275596994
 10
-5.97771534972556
 20
-4.474266275597003
 10
-5.774142349725562
 20
-4.580640275597005
 10
-5.610291349725561
 20
-4.778178275597
 10
-5.540776349725562
 20
-5.082080275596994
 10
-5.545727349725562
 20
-5.137833275597004
 10
-5.550677349725561
 20
-5.193585275597002
 10
-6.017406349725562
 20
-7.994575275597001
 10
-7.367968349725562
 20
-7.994575275597001
 10
-7.353073349725561
 20
-7.898321275596999
 10
-7.323282349725561
 20
-7.736235275596997
 10
-7.268664349725562
 20
-7.437393275597003
 10
-7.204117349725561
 20
-7.047388275597001
 10
-7.134605349725561
 20
-6.611791275597
 10
-7.060131349725561
 20
-6.181254275596999
 10
-7.000547349725561
 20
-5.816569275597004
 10
-6.955864349725561
 20
-5.558249275597007
 10
-6.940963349725561
 20
-5.451885275596993
 10
-6.975716349725561
 20
-5.406334275597004
 10
-7.035299349725561
 20
-5.386032275597003
 10
-8.077991349725561
 20
-5.386032275597003
 10
-8.514928349725562
 20
-7.994504275596995
 10
-9.865460349725561
 20
-7.994504275596995
 10
-9.274602349725562
 20
-4.438815275596994
  0
LWPOLYLINE
  5
80
100
AcDbEntity
  8
0
  6
ByLayer
 62
  256
370
   -1
100
AcDbPolyline
 90
    8
 70
    1
 43
0
 10
-5.183278349725562
 20
-4.438815275596994
 10
-1.583512349725561
 20
-4.438815275596994
 10
-1.742399349725561
 20
-5.385982275597001
 10
-2.849636349725561
 20
-5.385982275597001
 10
-3.281609349725562
 20
-7.994504275596995
 10
-4.632141349725561
 20
-7.994504275596995
 10
-4.195204349725561
 20
-5.385982275597001
 10
-5.342163349725562
 20
-5.385982275597001
  0
LWPOLYLINE
  5
81
100
AcDbEntity
  8
0
  6
ByLayer
 62
  256
370
   -1
100
AcDbPolyline
 90
   31
 70
    1
 43
0
 10
-0.2379533497255615
 20
-6.713004275597001
 10
-0.2528443497255601
 20
-6.794007275596996
 10
-0.2627753497255618
 20
-6.864909275597
 10
-0.2727053497255625
 20
-6.920662275596996
 10
-0.2776563497255609
 20
-6.956113275597005
 10
-0.2826063497255618
 20
-6.981464275597006
 10
-0.2478543497255608
 20
-7.032167275597004
 10
-0.1882713497255608
 20
-7.047418275596996
 10
1.638920650274439
 20
-7.047418275596996
 10
1.480033650274439
 20
-7.994585275597004
 10
-1.067109349725561
 20
-7.994585275597004
 10
-1.24585634972556
 20
-7.964184275597006
 10
-1.449429349725561
 20
-7.857820275596993
 10
-1.613280349725562
 20
-7.660282275596998
 10
-1.682795349725561
 20
-7.351310275597001
 10
-1.682795349725561
 20
-7.295557275597005
 10
-1.672864349725561
 20
-7.239805275596993
 10
-1.295509349725561
 20
-4.970646275597005
 10
-1.201173349725561
 20
-4.717396275596997
 10
-1.04228834972556
 20
-4.555309275596997
 10
-0.8585753497255624
 20
-4.469155275597004
 10
-0.6897593497255627
 20
-4.438754275597006
 10
2.075852650274438
 20
-4.438754275597006
 10
1.91696765027444
 20
-5.385921275596999
 10
0.06991465027443766
 20
-5.385921275596999
 10
0.005370650274439726
 20
-5.406223275597
 10
-0.02442134972556076
 20
-5.446724275597006
 10
-0.0641433497255619
 20
-5.684783275596999
 10
1.534648650274438
 20
-5.684783275596999
 10
1.365832650274438
 20
-6.631961275596993
 10
-0.2230523497255597
 20
-6.632001275597005
  0
LWPOLYLINE
  5
82
100
AcDbEntity
  8
0
  6
ByLayer
 62
  256
370
   -1
100
AcDbPolyline
 90
   26
 70
    1
 43
0
 10
3.565391650274439
 20
-7.047337275597002
 10
4.543534650274438
 20
-7.047337275597002
 10
4.627939650274438
 20
-6.632001275597005
 10
4.047015650274439
 20
-6.632001275597005
 10
4.215831650274438
 20
-5.684824275596995
 10
6.13239665027444
 20
-5.684824275596995
 10
5.82455465027444
 20
-7.462674275596996
 10
5.730218650274438
 20
-7.715924275597004
 10
5.571331650274438
 20
-7.878010275597006
 10
5.387619650274438
 20
-7.969214275596997
 10
5.218803650274438
 20
-7.994565275596997
 10
2.790824650274438
 20
-7.994565275596997
 10
2.61207765027444
 20
-7.964164275597
 10
2.408504650274438
 20
-7.857800275597
 10
2.24465365027444
 20
-7.660262275597006
 10
2.175139650274438
 20
-7.351290275596995
 10
2.175139650274438
 20
-7.295537275596999
 10
2.185069650274439
 20
-7.239785275597001
 10
2.562424650274441
 20
-4.970625275597001
 10
2.656760650274439
 20
-4.717376275597005
 10
2.815646650274438
 20
-4.555289275597005
 10
2.999358650274438
 20
-4.469135275596997
 10
3.168174650274437
 20
-4.438734275597
 10
6.331002650274439
 20
-4.438734275597
 10
6.17211665027444
 20
-5.385901275596993
 10
3.843441650274439
 20
-5.385982275597001
  0
LWPOLYLINE
  5
83
100
AcDbEntity
  8
0
  6
ByLayer
 62
  256
370
   -1
100
AcDbPolyline
 90
   19
 70
    1
 43
0
 10
7.021166650274438
 20
-4.438815275596994
 10
9.91090865027444
 20
-4.438815275596994
 10
10.08965565027444
 20
-4.474266275597003
 10
10.29322865027444
 20
-4.580640275597005
 10
10.45707965027444
 20
-4.778178275597
 10
10.52659365027444
 20
-5.082080275596994
 10
10.52659365027444
 20
-5.137833275597004
 10
10.51666365027444
 20
-5.193585275597002
 10
10.29819465027444
 20
-6.500376275597006
 10
10.21875065027444
 20
-6.733366275596993
 10
10.07972565027444
 20
-6.890392275596994
 10
9.91090865027444
 20
-6.986646275596996
 10
9.752022650274441
 20
-7.027147275597002
 10
9.945664650274438
 20
-7.994575275597001
 10
8.70933265027444
 20
-7.994575275597001
 10
8.515689650274439
 20
-7.032207275597003
 10
7.939727650274438
 20
-7.032207275597003
 10
7.780840650274438
 20
-7.994575275597001
 10
6.430308650274441
 20
-7.994504275596995
  0
LWPOLYLINE
  5
84
100
AcDbEntity
  8
0
  6
ByLayer
 62
  256
370
   -1
100
AcDbPolyline
 90
   14
 70
    1
 43
0
 10
9.00227465027444
 20
-6.064668275597001
 10
9.032066650274437
 20
-6.024167275596994
 10
9.05192765027444
 20
-5.907672275596994
 10
9.08171965027444
 20
-5.715195275596997
 10
9.111511650274441
 20
-5.532848275597004
 10
9.116462650274439
 20
-5.497396275596998
 10
9.12141265027444
 20
-5.466995275597
 10
9.126362650274437
 20
-5.456895275597006
 10
9.126362650274437
 20
-5.451845275596995
 10
9.09161065027444
 20
-5.406293275596994
 10
9.03202765027444
 20
-5.385992275597005
 10
8.217735650274438
 20
-5.385992275597005
 10
8.098570650274439
 20
-6.084980275597005
 10
8.93773165027444
 20
-6.084969275597004
  0
LWPOLYLINE
  5
85
100
AcDbEntity
  8
0
  6
ByLayer
 62
  256
370
   -1
100
AcDbPolyline
 90
   12
 70
    1
 43
0
 10
11.47493965027444
 20
-4.438815275596994
 10
13.37660865027444
 20
-4.438815275596994
 10
13.55039065027444
 20
-4.469216275597006
 10
13.74403265027444
 20
-4.565470275596994
 10
13.90788365027444
 20
-4.742747275596997
 10
13.99228865027444
 20
-5.011198275596996
 10
14.29020165027444
 20
-7.994535275597002
 10
12.99925065027444
 20
-7.994535275597002
 10
12.94959765027444
 20
-7.482965275596996
 10
11.96152465027444
 20
-7.482965275596996
 10
11.82249865027444
 20
-7.994535275597002
 10
10.52658765027444
 20
-7.994504275596995
  0
LWPOLYLINE
  5
86
100
AcDbEntity
  8
0
  6
ByLayer
 62
  256
370
   -1
100
AcDbPolyline
 90
    6
 70
    1
 43
0
 10
12.74602965027444
 20
-5.446764275597005
 10
12.71623765027444
 20
-5.406263275596999
 10
12.65169365027444
 20
-5.385962275596995
 10
12.52259865027444
 20
-5.385962275596995
 10
12.21475565027444
 20
-6.535737275597
 10
12.85526265027444
 20
-6.535757275596993
  0
LWPOLYLINE
  5
87
100
AcDbEntity
  8
0
  6
ByLayer
 62
  256
370
   -1
100
AcDbPolyline
 90
   17
 70
    1
 43
0
 10
17.22464065027444
 20
-5.391012275597006
 10
17.18988865027444
 20
-5.385962275596995
 10
16.37559665027444
 20
-5.385962275596995
 10
16.09754665027444
 20
-7.047317275596996
 10
16.93666365027444
 20
-7.047317275596996
 10
16.99624665027444
 20
-7.032066275597003
 10
17.02603865027444
 20
-6.986515275597
 10
17.04589965027444
 20
-6.885211275597001
 10
17.07569165027444
 20
-6.692733275596993
 10
17.12037465027444
 20
-6.449613275597002
 10
17.16505765027444
 20
-6.176103275597001
 10
17.20973965027444
 20
-5.907652275597002
 10
17.24946265027444
 20
-5.679723275596999
 10
17.27429365027444
 20
-5.517637275596996
 10
17.28422465027444
 20
-5.451784275597007
 10
17.25940265027444
 20
-5.411283275597
 10
17.25939265027444
 20
-5.411313275596996
  0
LWPOLYLINE
  5
88
100
AcDbEntity
  8
0
  6
ByLayer
 62
  256
370
   -1
100
AcDbPolyline
 90
   15
 70
    1
 43
0
 10
18.68440265027444
 20
-5.137833275597004
 10
18.67447265027444
 20
-5.193585275597002
 10
18.29711765027444
 20
-7.462744275597004
 10
18.20278165027444
 20
-7.715994275596998
 10
18.04389565027444
 20
-7.878081275596998
 10
17.86018365027444
 20
-7.969285275597002
 10
17.69136665027444
 20
-7.994636275597003
 10
14.58812165027444
 20
-7.994636275597003
 10
15.17897965027444
 20
-4.438946275597004
 10
18.06872165027444
 20
-4.438946275597004
 10
18.24746865027444
 20
-4.474397275596999
 10
18.45104165027444
 20
-4.580772275596999
 10
18.61489265027444
 20
-4.778309275596996
 10
18.68440665027444
 20
-5.082211275597004
 10
18.68440265027444
 20
-5.082080275596994
  0
LWPOLYLINE
  5
89
100
AcDbEntity
  8
0
  6
ByLayer
 62
  256
370
   -1
100
AcDbPolyline
 90
   30
 70
    1
 43
0
 10
20.48180165027444
 20
-5.553129275597001
 10
20.45200965027444
 20
-5.740546275596998
 10
20.41228665027444
 20
-5.988726275597003
 10
20.36760465027444
 20
-6.257176275597004
 10
20.32292165027444
 20
-6.530697275597007
 10
20.28816965027444
 20
-6.758626275596995
 10
20.26334765027444
 20
-6.915642275596994
 10
20.25341765027444
 20
-6.981495275596998
 10
20.25341765027444
 20
-7.001796275597002
 10
20.27823865027444
 20
-7.022097275597005
 10
20.31300065027444
 20
-7.042398275596994
 10
20.34279265027444
 20
-7.047448275597006
 10
21.37555265027444
 20
-7.047448275597006
 10
21.44009665027444
 20
-7.032197275596999
 10
21.46988865027444
 20
-6.986646275596996
 10
21.48478965027444
 20
-6.885342275596997
 10
21.51954165027444
 20
-6.692864275597003
 10
21.55926365027444
 20
-6.449745275596996
 10
21.60394665027444
 20
-6.176234275596997
 10
21.64862965027444
 20
-5.907783275596998
 10
21.68835165027444
 20
-5.679854275596995
 10
21.71317365027444
 20
-5.517768275596993
 10
21.72310365027444
 20
-5.451915275597003
 10
21.69828265027444
 20
-5.411414275596997
 10
21.66353065027444
 20
-5.391113275596993
 10
21.62877765027444
 20
-5.386063275596996
 10
20.59601765027444
 20
-5.386063275596996
 10
20.53147365027444
 20
-5.406364275596999
 10
20.50168165027444
 20
-5.446865275597006
 10
20.50166265027444
 20
-5.446764275597005
  0
LWPOLYLINE
  5
8A
100
AcDbEntity
  8
0
  6
ByLayer
 62
  256
370
   -1
100
AcDbPolyline
 90
   24
 70
    1
 43
0
 10
22.65159165027444
 20
-4.474266275597003
 10
22.85516365027444
 20
-4.580640275597005
 10
23.01901565027444
 20
-4.778178275597
 10
23.08852965027444
 20
-5.082080275596994
 10
23.08852965027444
 20
-5.137833275597004
 10
23.08357965027444
 20
-5.193585275597002
 10
22.70126065027444
 20
-7.462744275597004
 10
22.60692465027444
 20
-7.715994275596998
 10
22.44803765027444
 20
-7.878081275596998
 10
22.26432565027444
 20
-7.969285275597002
 10
22.09550965027444
 20
-7.994636275597003
 10
19.49871465027444
 20
-7.994636275597003
 10
19.31996765027444
 20
-7.964234275596993
 10
19.11639365027444
 20
-7.857870275596994
 10
18.95254265027444
 20
-7.660333275596997
 10
18.88302865027444
 20
-7.351360275597003
 10
18.88302865027444
 20
-7.295608275597004
 10
18.89295965027444
 20
-7.239855275596994
 10
19.27031465027444
 20
-4.970696275596993
 10
19.36464965027444
 20
-4.717446275596998
 10
19.52353565027444
 20
-4.555360275596996
 10
19.70724765027444
 20
-4.469206275597003
 10
19.87606465027444
 20
-4.438805275597005
 10
22.47284465027444
 20
-4.438815275596994
  0
LWPOLYLINE
  5
8B
100
AcDbEntity
  8
0
  6
ByLayer
 62
  256
370
   -1
100
AcDbPolyline
 90
   19
 70
    1
 43
0
 10
23.78365565027444
 20
-4.438815275596994
 10
26.67339765027444
 20
-4.438815275596994
 10
26.85214465027444
 20
-4.474266275597003
 10
27.05571665027444
 20
-4.580640275597005
 10
27.21956865027444
 20
-4.778178275597
 10
27.28908265027444
 20
-5.082080275596994
 10
27.28908265027444
 20
-5.137833275597004
 10
27.27915265027444
 20
-5.193585275597002
 10
27.06068365027444
 20
-6.500376275597006
 10
26.98123965027444
 20
-6.733366275596993
 10
26.84221365027444
 20
-6.890392275596994
 10
26.67339765027444
 20
-6.986646275596996
 10
26.51451065027444
 20
-7.027147275597002
 10
26.70815365027444
 20
-7.994575275597001
 10
25.47182065027444
 20
-7.994575275597001
 10
25.27817765027444
 20
-7.032207275597003
 10
24.70221565027444
 20
-7.032207275597003
 10
24.54332965027444
 20
-7.994575275597001
 10
23.19279765027444
 20
-7.994504275596995
  0
LWPOLYLINE
  5
8C
100
AcDbEntity
  8
0
  6
ByLayer
 62
  256
370
   -1
100
AcDbPolyline
 90
   14
 70
    1
 43
0
 10
25.76476365027444
 20
-6.064668275597001
 10
25.79455465027444
 20
-6.024167275596994
 10
25.81441665027444
 20
-5.907672275596994
 10
25.84420765027444
 20
-5.715195275596997
 10
25.87399965027444
 20
-5.532848275597004
 10
25.87895065027444
 20
-5.497396275596998
 10
25.88390065027444
 20
-5.466995275597
 10
25.88885165027444
 20
-5.456895275597006
 10
25.88885165027444
 20
-5.451845275596995
 10
25.85409865027444
 20
-5.406293275596994
 10
25.79451565027444
 20
-5.385992275597005
 10
24.98022365027444
 20
-5.385992275597005
 10
24.86105965027444
 20
-6.084980275597005
 10
25.70021965027444
 20
-6.084969275597004
  0
LWPOLYLINE
  5
8D
100
AcDbEntity
  8
0
  6
ByLayer
 62
  256
370
   -1
100
AcDbPolyline
 90
   12
 70
    1
 43
0
 10
28.23742765027444
 20
-4.438815275596994
 10
30.13909665027444
 20
-4.438815275596994
 10
30.31287865027444
 20
-4.469216275597006
 10
30.50652065027444
 20
-4.565470275596994
 10
30.67037165027444
 20
-4.742747275596997
 10
30.75477765027444
 20
-5.011198275596996
 10
31.05268965027444
 20
-7.994535275597002
 10
29.76174165027444
 20
-7.994535275597002
 10
29.71208865027444
 20
-7.482965275596996
 10
28.72401565027444
 20
-7.482965275596996
 10
28.58498965027444
 20
-7.994535275597002
 10
27.28907565027444
 20
-7.994504275596995
  0
LWPOLYLINE
  5
8E
100
AcDbEntity
  8
0
  6
ByLayer
 62
  256
370
   -1
100
AcDbPolyline
 90
    6
 70
    1
 43
0
 10
29.50851765027444
 20
-5.446764275597005
 10
29.47872565027444
 20
-5.406263275596999
 10
29.41418165027444
 20
-5.385962275596995
 10
29.28508665027444
 20
-5.385962275596995
 10
28.97724465027444
 20
-6.535737275597
 10
29.61775165027444
 20
-6.535757275596993
  0
LWPOLYLINE
  5
8F
100
AcDbEntity
  8
0
  6
ByLayer
 62
  256
370
   -1
100
AcDbPolyline
 90
   17
 70
    1
 43
0
 10
-7.901745349725561
 20
-11.722371275597
 10
-7.93650134972556
 20
-11.717321275597
 10
-8.75079334972556
 20
-11.717321275597
 10
-9.028844349725562
 20
-13.378666275597
 10
-8.189726349725561
 20
-13.378666275597
 10
-8.130144349725562
 20
-13.36351627559699
 10
-8.100353349725561
 20
-13.31796427559701
 10
-8.080492349725562
 20
-13.21666027559699
 10
-8.050701349725561
 20
-13.024193275597
 10
-8.006014349725561
 20
-12.78106327559701
 10
-7.96132834972556
 20
-12.50755227559699
 10
-7.916641349725561
 20
-12.23910227559701
 10
-7.876919349725561
 20
-12.011173275597
 10
-7.852094349725562
 20
-11.849086275597
 10
-7.842163349725562
 20
-11.783234275597
 10
-7.866989349725561
 20
-11.74273227559699
 10
-7.866989349725561
 20
-11.742672275597
  0
LWPOLYLINE
  5
90
100
AcDbEntity
  8
0
  6
ByLayer
 62
  256
370
   -1
100
AcDbPolyline
 90
   15
 70
    1
 43
0
 10
-6.44197934972556
 20
-11.469191275597
 10
-6.45191034972556
 20
-11.52494427559699
 10
-6.829265349725562
 20
-13.794103275597
 10
-6.923600349725561
 20
-14.04736327559699
 10
-7.082487349725561
 20
-14.20943927559701
 10
-7.266199349725561
 20
-14.300643275597
 10
-7.43501534972556
 20
-14.32599527559699
 10
-10.53826334972556
 20
-14.32599527559699
 10
-9.94740534972556
 20
-10.770305275597
 10
-7.05766334972556
 20
-10.770305275597
 10
-6.878916349725561
 20
-10.80575627559701
 10
-6.67534334972556
 20
-10.912120275597
 10
-6.511491349725562
 20
-11.109658275597
 10
-6.441977349725562
 20
-11.41356027559699
 10
-6.44197934972556
 20
-11.413439275597
  0
LWPOLYLINE
  5
91
100
AcDbEntity
  8
0
  6
ByLayer
 62
  256
370
   -1
100
AcDbPolyline
 90
   30
 70
    1
 43
0
 10
-4.644581349725561
 20
-11.884497275597
 10
-4.67437234972556
 20
-12.071905275597
 10
-4.714095349725561
 20
-12.320095275597
 10
-4.758778349725562
 20
-12.588545275597
 10
-4.803460349725562
 20
-12.862056275597
 10
-4.838212349725561
 20
-13.089985275597
 10
-4.863034349725561
 20
-13.247001275597
 10
-4.872965349725561
 20
-13.312854275597
 10
-4.872965349725561
 20
-13.33315527559699
 10
-4.848133349725561
 20
-13.353456275597
 10
-4.81338134972556
 20
-13.373656275597
 10
-4.783589349725561
 20
-13.378706275597
 10
-3.750829349725562
 20
-13.378706275597
 10
-3.68628534972556
 20
-13.36355627559701
 10
-3.656493349725562
 20
-13.318005275597
 10
-3.641593349725561
 20
-13.216701275597
 10
-3.606840349725561
 20
-13.024233275597
 10
-3.567118349725561
 20
-12.781103275597
 10
-3.52243534972556
 20
-12.507593275597
 10
-3.47775334972556
 20
-12.239142275597
 10
-3.438030349725562
 20
-12.011213275597
 10
-3.413209349725561
 20
-11.849127275597
 10
-3.403278349725561
 20
-11.78327427559699
 10
-3.428100349725561
 20
-11.742773275597
 10
-3.46285234972556
 20
-11.722472275597
 10
-3.497604349725561
 20
-11.717422275597
 10
-4.530364349725561
 20
-11.717422275597
 10
-4.594908349725561
 20
-11.73772327559701
 10
-4.624700349725561
 20
-11.778224275597
 10
-4.624719349725561
 20
-11.778123275597
  0
LWPOLYLINE
  5
92
100
AcDbEntity
  8
0
  6
ByLayer
 62
  256
370
   -1
100
AcDbPolyline
 90
   24
 70
    1
 43
0
 10
-2.47479134972556
 20
-10.805625275597
 10
-2.271218349725562
 20
-10.91198927559699
 10
-2.107367349725561
 20
-11.109527275597
 10
-2.037853349725561
 20
-11.413429275597
 10
-2.037853349725561
 20
-11.46918127559699
 10
-2.042803349725562
 20
-11.524934275597
 10
-2.425123349725562
 20
-13.79409327559699
 10
-2.519459349725562
 20
-14.047353275597
 10
-2.678345349725561
 20
-14.209429275597
 10
-2.862057349725561
 20
-14.30063327559699
 10
-3.03087334972556
 20
-14.32598427559699
 10
-5.627688349725561
 20
-14.32598427559699
 10
-5.806435349725561
 20
-14.295583275597
 10
-6.010009349725561
 20
-14.189219275597
 10
-6.173860349725562
 20
-13.991681275597
 10
-6.243374349725562
 20
-13.68270927559701
 10
-6.243374349725562
 20
-13.62695727559699
 10
-6.233443349725562
 20
-13.571204275597
 10
-5.85608834972556
 20
-11.30203527559699
 10
-5.761753349725561
 20
-11.048785275597
 10
-5.60286734972556
 20
-10.886698275597
 10
-5.41915534972556
 20
-10.800545275597
 10
-5.250337349725561
 20
-10.77014327559699
 10
-2.653538349725562
 20
-10.770174275597
  0
LWPOLYLINE
  5
93
100
AcDbEntity
  8
0
  6
ByLayer
 62
  256
370
   -1
100
AcDbPolyline
 90
    9
 70
    1
 43
0
 10
-0.8908913497255604
 20
-14.325863275597
 10
-0.3000333497255596
 20
-10.770174275597
 10
1.110081650274438
 20
-10.770174275597
 10
0.951195650274439
 20
-11.717351275597
 10
0.4646076502744378
 20
-11.717351275597
 10
0.4050236502744404
 20
-11.732501275597
 10
0.3702716502744394
 20
-11.793304275597
 10
0.9363026502744383
 20
-11.793304275597
 10
0.5142586502744386
 20
-14.325863275597
  0
LWPOLYLINE
  5
94
100
AcDbEntity
  8
0
  6
ByLayer
 62
  256
370
   -1
100
AcDbPolyline
 90
   17
 70
    1
 43
0
 10
2.495377650274438
 20
-11.732501275597
 10
2.465585650274438
 20
-11.793304275597
 10
3.031618650274439
 20
-11.793304275597
 10
2.92734965027444
 20
-12.416308275597
 10
4.511245650274439
 20
-12.416308275597
 10
4.33746365027444
 20
-13.363485275597
 10
2.768463650274438
 20
-13.363485275597
 10
2.609576650274438
 20
-14.32584327559699
 10
1.25904465027444
 20
-14.32584327559699
 10
1.765494650274437
 20
-11.30198427559699
 10
1.859830650274439
 20
-11.048734275597
 10
2.018715650274437
 20
-10.886648275597
 10
2.202427650274441
 20
-10.800494275597
 10
2.371245650274439
 20
-10.77009327559701
 10
5.017692650274437
 20
-10.77009327559701
 10
4.858806650274438
 20
-11.717270275597
 10
2.55992165027444
 20
-11.717351275597
  0
LWPOLYLINE
  5
95
100
AcDbEntity
  8
0
  6
ByLayer
 62
  256
370
   -1
100
AcDbPolyline
 90
   30
 70
    1
 43
0
 10
5.116997650274438
 20
-13.62684527559701
 10
5.12692865027444
 20
-13.57109327559699
 10
5.504283650274438
 20
-11.301924275597
 10
5.598618650274439
 20
-11.04867427559699
 10
5.757504650274438
 20
-10.88658727559699
 10
5.941216650274438
 20
-10.800433275597
 10
6.110032650274437
 20
-10.770032275597
 10
9.272860650274438
 20
-10.770032275597
 10
9.113974650274439
 20
-11.717209275597
 10
6.29871065027444
 20
-11.717209275597
 10
6.234166650274439
 20
-11.732360275597
 10
6.204374650274438
 20
-11.793162275597
 10
6.775372650274438
 20
-11.793162275597
 10
6.507252650274438
 20
-13.378534275597
 10
7.48539465027444
 20
-13.378534275597
 10
7.56979965027444
 20
-12.96319827559699
 10
6.988872650274438
 20
-12.96319827559699
 10
7.157688650274437
 20
-12.016021275597
 10
9.074253650274439
 20
-12.016021275597
 10
8.766411650274438
 20
-13.793871275597
 10
8.672076650274438
 20
-14.047131275597
 10
8.513189650274438
 20
-14.209207275597
 10
8.329477650274438
 20
-14.300411275597
 10
8.160660650274441
 20
-14.325762275597
 10
5.73268165027444
 20
-14.325762275597
 10
5.55393565027444
 20
-14.295361275597
 10
5.35036165027444
 20
-14.188997275597
 10
5.186510650274439
 20
-13.99145927559699
 10
5.116996650274437
 20
-13.682487275597
 10
5.116997650274438
 20
-13.682598275597
  0
LWPOLYLINE
  5
96
100
AcDbEntity
  8
0
  6
ByLayer
 62
  256
370
   -1
100
AcDbPolyline
 90
    4
 70
    1
 43
0
 10
12.71871265027444
 20
-13.019072275597
 10
10.36521165027444
 20
-13.019072275597
 10
10.52409765027444
 20
-12.076965275597
 10
12.87759965027444
 20
-12.076965275597
  0
LWPOLYLINE
  5
97
100
AcDbEntity
  8
0
  6
ByLayer
 62
  256
370
   -1
100
AcDbPolyline
 90
   37
 70
    1
 43
0
 10
14.26786165027444
 20
-12.548023275597
 10
14.36219765027444
 20
-12.29476327559701
 10
14.52108465027444
 20
-12.13268727559699
 10
14.70479665027444
 20
-12.046533275597
 10
14.87361265027444
 20
-12.016132275597
 10
16.20428365027444
 20
-12.016132275597
 10
16.26386765027444
 20
-12.000982275597
 10
16.29365965027444
 20
-11.955430275597
 10
16.30358965027444
 20
-11.90987927559699
 10
16.31352065027444
 20
-11.85917627559699
 10
16.32345065027444
 20
-11.813625275597
 10
16.32345065027444
 20
-11.78322427559699
 10
16.31850065027444
 20
-11.76292227559701
 10
16.29863965027444
 20
-11.742621275597
 10
16.26388765027444
 20
-11.722320275597
 10
16.22913465027444
 20
-11.717270275597
 10
14.40690865027444
 20
-11.717270275597
 10
14.56083065027444
 20
-10.77009327559701
 10
17.10797365027444
 20
-10.77009327559701
 10
17.28672165027444
 20
-10.805544275597
 10
17.49029365027444
 20
-10.911908275597
 10
17.65911065027444
 20
-11.10944627559699
 10
17.72862465027444
 20
-11.413348275597
 10
17.72367365027444
 20
-11.469100275597
 10
17.71872365027444
 20
-11.524853275597
 10
17.56480265027444
 20
-12.43150927559699
 10
17.47046665027444
 20
-12.684759275597
 10
17.31158065027444
 20
-12.846845275597
 10
17.12786865027444
 20
-12.938049275597
 10
16.95905265027444
 20
-12.963400275597
 10
15.62838065027444
 20
-12.963400275597
 10
15.56383665027444
 20
-12.983701275597
 10
15.53900465027444
 20
-13.024203275597
 10
15.47942065027444
 20
-13.378757275597
 10
17.40591665027444
 20
-13.378757275597
 10
17.25199465027444
 20
-14.325924275597
 10
13.96995065027444
 20
-14.325863275597
  0
LWPOLYLINE
  5
98
100
AcDbEntity
  8
0
  6
ByLayer
 62
  256
370
   -1
100
AcDbPolyline
 90
   24
 70
    1
 43
0
 10
18.26484465027444
 20
-14.295462275597
 10
18.06127165027444
 20
-14.189098275597
 10
17.89741965027444
 20
-13.991560275597
 10
17.82790565027444
 20
-13.682588275597
 10
17.82790565027444
 20
-13.626835275597
 10
17.83783665027444
 20
-13.571083275597
 10
18.21519065027444
 20
-11.301914275597
 10
18.30952565027444
 20
-11.04866427559701
 10
18.46841265027444
 20
-10.88657727559701
 10
18.65212465027444
 20
-10.800423275597
 10
18.82094165027444
 20
-10.770022275597
 10
21.19430365027444
 20
-10.770022275597
 10
21.37305065027444
 20
-10.805473275597
 10
21.57662265027444
 20
-10.91183827559701
 10
21.74047365027444
 20
-11.109375275597
 10
21.80998865027444
 20
-11.413277275597
 10
21.80503765027444
 20
-11.46903027559699
 10
21.80008765027444
 20
-11.524782275597
 10
21.42273265027444
 20
-13.793942275597
 10
21.32342965027444
 20
-14.047202275597
 10
21.16454265027444
 20
-14.209278275597
 10
20.98083065027444
 20
-14.30048227559701
 10
20.81201465027444
 20
-14.32583327559701
 10
18.44359165027444
 20
-14.325863275597
  0
LWPOLYLINE
  5
99
100
AcDbEntity
  8
0
  6
ByLayer
 62
  256
370
   -1
100
AcDbPolyline
 90
    5
 70
    1
 43
0
 10
20.10196665027444
 20
-13.37869627559699
 10
20.16154965027444
 20
-13.363546275597
 10
20.19134165027444
 20
-13.317994275597
 10
20.40980965027444
 20
-12.284714275597
 10
19.40683865027444
 20
-13.37869627559699
  0
LWPOLYLINE
  5
9A
100
AcDbEntity
  8
0
  6
ByLayer
 62
  256
370
   -1
100
AcDbPolyline
 90
    5
 70
    1
 43
0
 10
19.53593365027444
 20
-11.717351275597
 10
19.47634965027444
 20
-11.737652275597
 10
19.44655865027444
 20
-11.77815327559701
 10
19.22808965027444
 20
-12.872216275597
 10
20.29064365027444
 20
-11.717351275597
  0
LWPOLYLINE
  5
9B
100
AcDbEntity
  8
0
  6
ByLayer
 62
  256
370
   -1
100
AcDbPolyline
 90
   37
 70
    1
 43
0
 10
22.20720965027444
 20
-12.548023275597
 10
22.30154565027444
 20
-12.29476327559701
 10
22.46043165027444
 20
-12.13268727559699
 10
22.64414365027444
 20
-12.046533275597
 10
22.81296065027444
 20
-12.016132275597
 10
24.14363265027444
 20
-12.016132275597
 10
24.20321565027444
 20
-12.000982275597
 10
24.23300765027444
 20
-11.955430275597
 10
24.24293865027444
 20
-11.90987927559699
 10
24.25286865027444
 20
-11.85917627559699
 10
24.26279965027444
 20
-11.813625275597
 10
24.26279965027444
 20
-11.78322427559699
 10
24.25784965027444
 20
-11.76292227559701
 10
24.23798765027444
 20
-11.742621275597
 10
24.20323565027444
 20
-11.722320275597
 10
24.16848365027444
 20
-11.717270275597
 10
22.34623465027444
 20
-11.717270275597
 10
22.50015665027444
 20
-10.77009327559701
 10
25.04730065027444
 20
-10.77009327559701
 10
25.22604765027444
 20
-10.805544275597
 10
25.42961965027444
 20
-10.911908275597
 10
25.59843565027444
 20
-11.10944627559699
 10
25.66795065027444
 20
-11.413348275597
 10
25.66299965027444
 20
-11.469100275597
 10
25.65804965027444
 20
-11.524853275597
 10
25.50412765027444
 20
-12.43150927559699
 10
25.40979265027444
 20
-12.684759275597
 10
25.25090565027444
 20
-12.846845275597
 10
25.06719365027444
 20
-12.938049275597
 10
24.89837665027444
 20
-12.963400275597
 10
23.56770465027444
 20
-12.963400275597
 10
23.50316065027444
 20
-12.983701275597
 10
23.47832965027444
 20
-13.024203275597
 10
23.41874565027444
 20
-13.378757275597
 10
25.34524065027444
 20
-13.378757275597
 10
25.19131865027444
 20
-14.325924275597
 10
21.90929865027444
 20
-14.325863275597
  0
LWPOLYLINE
  5
9C
100
AcDbEntity
  8
0
  6
ByLayer
 62
  256
370
   -1
100
AcDbPolyline
 90
   30
 70
    1
 43
0
 10
26.20419165027444
 20
-14.295462275597
 10
26.00061965027444
 20
-14.189098275597
 10
25.83676865027444
 20
-13.991560275597
 10
25.76725465027444
 20
-13.682588275597
 10
25.76725465027444
 20
-13.626835275597
 10
25.77718465027444
 20
-13.571083275597
 10
26.15453965027444
 20
-11.301914275597
 10
26.24887565027444
 20
-11.04866427559701
 10
26.40776265027444
 20
-10.88657727559701
 10
26.59147465027444
 20
-10.800423275597
 10
26.76029065027444
 20
-10.770022275597
 10
29.52590365027444
 20
-10.770022275597
 10
29.36701665027444
 20
-11.717199275597
 10
27.51996465027444
 20
-11.717199275597
 10
27.45542065027444
 20
-11.737501275597
 10
27.42562965027444
 20
-11.778002275597
 10
27.38590665027444
 20
-12.016061275597
 10
28.67685765027444
 20
-12.016061275597
 10
28.85560465027444
 20
-12.051513275597
 10
29.05917665027444
 20
-12.157877275597
 10
29.22302865027444
 20
-12.355415275597
 10
29.29254265027444
 20
-12.65932727559699
 10
29.29254265027444
 20
-12.720129275597
 10
29.28261265027444
 20
-12.770832275597
 10
29.11379565027444
 20
-13.793982275597
 10
29.01946065027444
 20
-14.047242275597
 10
28.86057465027444
 20
-14.209318275597
 10
28.67686265027444
 20
-14.300522275597
 10
28.50804565027444
 20
-14.325873275597
 10
26.38293865027444
 20
-14.325863275597
  0
LWPOLYLINE
  5
9D
100
AcDbEntity
  8
0
  6
ByLayer
 62
  256
370
   -1
100
AcDbPolyline
 90
   10
 70
    1
 43
0
 10
27.15750765027444
 20
-13.37869627559699
 10
27.75333165027444
 20
-13.37869627559699
 10
27.81291465027444
 20
-13.363546275597
 10
27.84270665027444
 20
-13.317994275597
 10
27.88738965027444
 20
-13.07487527559699
 10
27.89233965027444
 20
-13.02932427559701
 10
27.88738965027444
 20
-13.009022275597
 10
27.86752865027444
 20
-12.988721275597
 10
27.79801365027444
 20
-12.963370275597
 10
27.22702265027444
 20
-12.963360275597
  0
ENDBLK
  5
54
330
52
100
AcDbEntity
  8
0
100
AcDbBlockEnd
  0
BLOCK
  5
56
330
55
100
AcDbEntity
  8
0
100
AcDbBlockBegin
  2
chaveiro
 70
    0
 10
0
 20
0
  3
chaveiro
  1

  0
LWPOLYLINE
  5
9E
100
AcDbEntity
  8
0
  6
ByLayer
 62
  256
370
   -1
100
AcDbPolyline
 90
   21
 70
    1
 43
0
 10
2.533319000000006
 20
8.785717000000005
 10
3.263895999999988
 20
8.640395999999996
 10
3.883250000000004
 20
8.226557999999997
 10
4.297088000000002
 20
7.607203999999996
 10
4.442408999999998
 20
6.876626999999999
 10
4.442408999999998
 20
0.1948119999999989
 10
4.297088000000002
 20
-0.5357649999999978
 10
3.883250000000004
 20
-1.155118000000002
 10
3.263895999999988
 20
-1.568956999999997
 10
2.533319000000006
 20
-1.714277999999993
 10
-22.762123
 20
-1.714277999999993
 10
-23.4927
 20
-1.568956999999997
 10
-24.112054
 20
-1.155118000000002
 10
-24.525892
 20
-0.5357649999999978
 10
-24.67121299999999
 20
0.1948119999999989
 10
-24.67121299999999
 20
6.876626999999999
 10
-24.525892
 20
7.607203999999996
 10
-24.112054
 20
8.226557999999997
 10
-23.4927
 20
8.640395999999996
 10
-22.762123
 20
8.785717000000005
 10
-22.762123
 20
8.785717000000005
  0
LWPOLYLINE
  5
9F
100
AcDbEntity
  8
0
  6
ByLayer
 62
  256
370
   -1
100
AcDbPolyline
 90
   56
 70
    1
 43
0
 10
-21.305688
 20
0.1834819999999979
 10
-21.168291
 20
0.1632450000000034
 10
-20.93795900000001
 20
0.2238590000000045
 10
-20.772288
 20
0.3935769999999934
 10
-20.67125900000001
 20
0.6602769999999936
 10
-20.63890000000001
 20
0.9956659999999999
 10
-20.735882
 20
1.520989999999998
 10
-21.01470500000001
 20
1.929115999999993
 10
-21.447085
 20
2.191777999999999
 10
-22.016853
 20
2.288758999999999
 10
-22.65531900000001
 20
2.175617000000003
 10
-23.144266
 20
1.860426000000004
 10
-23.45137200000001
 20
1.371470000000002
 10
-23.56047599999999
 20
0.7410979999999938
 10
-23.459457
 20
0.1389999999999958
 10
-23.168511
 20
-0.3176260000000042
 10
-22.719971
 20
-0.6085709999999978
 10
-22.13808
 20
-0.7136279999999999
 10
-21.86734199999999
 20
-0.6933920000000029
 10
-21.669331
 20
-0.6530149999999963
 10
-21.616832
 20
-0.7782890000000009
 10
-21.73805900000001
 20
-0.9237619999999964
 10
-22.16235399999999
 20
-0.9762620000000055
 10
-22.865472
 20
-0.8550340000000034
 10
-23.40695700000001
 20
-0.5115509999999972
 10
-23.758515
 20
0.02588599999999985
 10
-23.879743
 20
0.7411270000000059
 10
-23.75043100000001
 20
1.484650999999999
 10
-23.37462600000001
 20
2.054418999999996
 10
-22.788698
 20
2.422148000000007
 10
-22.020929
 20
2.551450000000003
 10
-21.309726
 20
2.438308000000006
 10
-20.776326
 20
2.123116999999993
 10
-20.43689000000001
 20
1.630122999999998
 10
-20.3197
 20
0.9916659999999951
 10
-20.533872
 20
0.1794440000000037
 10
-20.79956199999999
 20
-0.03270799999999952
 10
-21.168291
 20
-0.1034259999999989
 10
-21.41883
 20
-0.06304799999999489
 10
-21.633002
 20
0.05414100000000133
 10
-21.835041
 20
-0.04687900000000411
 10
-22.11386299999999
 20
-0.08324700000000007
 10
-22.437139
 20
-0.03074700000000519
 10
-22.68363100000001
 20
0.1268490000000071
 10
-22.84122600000001
 20
0.3814260000000047
 10
-22.897831
 20
0.7249000000000052
 10
-22.833208
 20
1.112826999999996
 10
-22.643292
 20
1.403772000000004
 10
-22.35234699999999
 20
1.585612999999995
 10
-21.968457
 20
1.650236000000007
 10
-21.69367200000001
 20
1.617876999999993
 10
-21.467388
 20
1.537026999999995
 10
-21.301708
 20
1.339016000000001
 10
-21.305526
 20
1.278402
 10
-21.309344
 20
1.217788999999996
 10
-21.40670799999999
 20
0.235982000000007
  0
LWPOLYLINE
  5
A0
100
AcDbEntity
  8
0
  6
ByLayer
 62
  256
370
   -1
100
AcDbPolyline
 90
    9
 70
    1
 43
0
 10
-22.437139
 20
0.3208410000000015
 10
-22.069419
 20
0.1834530000000001
 10
-21.721898
 20
0.3046800000000047
 10
-21.620879
 20
1.306819000000004
 10
-21.778474
 20
1.359318999999999
 10
-21.988598
 20
1.383564000000007
 10
-22.408856
 20
1.209809000000007
 10
-22.566451
 20
0.7249000000000052
 10
-22.566451
 20
0.7249280000000056
  0
LWPOLYLINE
  5
A1
100
AcDbEntity
  8
0
  6
ByLayer
 62
  256
370
   -1
100
AcDbPolyline
 90
    8
 70
    1
 43
0
 10
-19.46303399999999
 20
-0.09130299999999636
 10
-19.551903
 20
-0.1034259999999989
 10
-19.725658
 20
0.04204699999999661
 10
-19.725658
 20
2.535290000000003
 10
-19.66504500000001
 20
2.551422000000002
 10
-19.576177
 20
2.563543999999993
 10
-19.402421
 20
2.418071999999995
 10
-19.402421
 20
-0.07517099999999743
  0
LWPOLYLINE
  5
A2
100
AcDbEntity
  8
0
  6
ByLayer
 62
  256
370
   -1
100
AcDbPolyline
 90
    9
 70
    1
 43
0
 10
-17.818382
 20
0.159236000000007
 10
-17.656749
 20
0.2279640000000001
 10
-17.656749
 20
0.8138919999999956
 10
-18.15781800000001
 20
0.7613920000000007
 10
-18.468971
 20
0.6644100000000037
 10
-18.569991
 20
0.4462010000000021
 10
-18.452811
 20
0.2077940000000069
 10
-18.097205
 20
0.1269439999999946
 10
-18.097205
 20
0.1268769999999932
  0
LWPOLYLINE
  5
A3
100
AcDbEntity
  8
0
  6
ByLayer
 62
  256
370
   -1
100
AcDbPolyline
 90
   24
 70
    1
 43
0
 10
-17.543378
 20
1.678585999999996
 10
-17.33729099999999
 20
1.181554000000006
 10
-17.33729099999999
 20
0.2238590000000045
 10
-17.373659
 20
0.08647100000000307
 10
-17.474688
 20
0.001611999999994396
 10
-17.73330300000001
 20
-0.09536900000000514
 10
-18.096985
 20
-0.1398509999999931
 10
-18.686961
 20
0.009658999999999196
 10
-18.893047
 20
0.4420300000000026
 10
-18.71928200000001
 20
0.8420799999999957
 10
-18.230335
 20
1.011807000000005
 10
-17.65652900000001
 20
1.068411999999995
 10
-17.65652900000001
 20
1.181563999999995
 10
-17.77775699999999
 20
1.476546999999997
 10
-18.10507
 20
1.569519
 10
-18.42429799999999
 20
1.521028000000001
 10
-18.69099799999999
 20
1.411923999999999
 10
-18.75161199999999
 20
1.476546999999997
 10
-18.775857
 20
1.557396999999995
 10
-18.747603
 20
1.650368999999998
 10
-18.65873499999999
 20
1.719097000000005
 10
-18.40819500000001
 20
1.803955999999999
 10
-18.10109
 20
1.836314999999999
 10
-18.101023
 20
1.836180999999996
  0
LWPOLYLINE
  5
A4
100
AcDbEntity
  8
0
  6
ByLayer
 62
  256
370
   -1
100
AcDbPolyline
 90
   20
 70
    1
 43
0
 10
-15.567374
 20
1.775566999999995
 10
-15.288551
 20
1.593727000000001
 10
-15.102673
 20
1.286610999999994
 10
-15.033946
 20
0.8501930000000044
 10
-15.102673
 20
0.4097380000000044
 10
-15.29663600000001
 20
0.1026319999999998
 10
-15.59161899999999
 20
-0.07920900000000586
 10
-15.97147099999999
 20
-0.1358129999999989
 10
-16.33110499999999
 20
-0.08732299999999782
 10
-16.58972
 20
0.01774399999999332
 10
-16.70690999999999
 20
0.1187639999999988
 10
-16.73926899999999
 20
0.2561510000000027
 10
-16.73926899999999
 20
2.535223000000002
 10
-16.67865500000001
 20
2.551355000000001
 10
-16.585683
 20
2.563478000000003
 10
-16.415964
 20
2.418004999999994
 10
-16.415964
 20
1.694678999999994
 10
-16.20583999999999
 20
1.791661000000005
 10
-15.914895
 20
1.836143000000007
 10
-15.914895
 20
1.836180999999996
  0
LWPOLYLINE
  5
A5
100
AcDbEntity
  8
0
  6
ByLayer
 62
  256
370
   -1
100
AcDbPolyline
 90
   14
 70
    1
 43
0
 10
-16.22200100000001
 20
1.516981000000001
 10
-16.415964
 20
1.399792000000005
 10
-16.415964
 20
0.2562180000000041
 10
-16.242209
 20
0.1713589999999954
 10
-15.97147099999999
 20
0.130982000000003
 10
-15.724969
 20
0.1713589999999954
 10
-15.531006
 20
0.3047090000000026
 10
-15.40574100000001
 20
0.5269559999999984
 10
-15.361259
 20
0.8502320000000054
 10
-15.40574100000001
 20
1.173507000000001
 10
-15.531006
 20
1.395753999999997
 10
-15.724969
 20
1.525065999999995
 10
-15.963386
 20
1.569547999999998
 10
-15.963386
 20
1.569480999999996
  0
LWPOLYLINE
  5
A6
100
AcDbEntity
  8
0
  6
ByLayer
 62
  256
370
   -1
100
AcDbPolyline
 90
   34
 70
    1
 43
0
 10
-12.274041
 20
1.476536999999993
 10
-12.57710899999999
 20
1.569509999999994
 10
-13.045857
 20
1.383630999999994
 10
-13.021612
 20
1.209874999999997
 10
-13.021612
 20
-0.0751329999999939
 10
-13.086235
 20
-0.09126500000000703
 10
-13.171094
 20
-0.1033879999999954
 10
-13.34484999999999
 20
0.04208500000000015
 10
-13.34484999999999
 20
1.185659000000001
 10
-13.458001
 20
1.476603999999995
 10
-13.765107
 20
1.569576999999995
 10
-14.011599
 20
1.529199000000006
 10
-14.205563
 20
1.436227000000002
 10
-14.205563
 20
-0.0750759999999957
 10
-14.266176
 20
-0.09120799999999463
 10
-14.355045
 20
-0.1033299999999997
 10
-14.5288
 20
0.04214199999999835
 10
-14.5288
 20
1.420095000000003
 10
-14.496441
 20
1.553444999999996
 10
-14.375214
 20
1.666587000000007
 10
-14.10043899999999
 20
1.783777000000001
 10
-13.761003
 20
1.836276999999995
 10
-13.40944399999999
 20
1.775662999999994
 10
-13.175065
 20
1.618067999999994
 10
-12.912412
 20
1.771625
 10
-12.552768
 20
1.836247999999998
 10
-12.031491
 20
1.678652
 10
-11.83752800000001
 20
1.201819
 10
-11.83752800000001
 20
-0.07510399999999606
 10
-11.90215000000001
 20
-0.09123599999999499
 10
-11.987009
 20
-0.1033589999999975
 10
-12.160775
 20
0.04211399999999799
 10
-12.160775
 20
1.185687000000001
 10
-12.160899
 20
1.185592
  0
LWPOLYLINE
  5
A7
100
AcDbEntity
  8
0
  6
ByLayer
 62
  256
370
   -1
100
AcDbPolyline
 90
    9
 70
    1
 43
0
 10
-10.28591499999999
 20
0.159236000000007
 10
-10.12428199999999
 20
0.2279640000000001
 10
-10.12428199999999
 20
0.8138919999999956
 10
-10.62535099999999
 20
0.7613920000000007
 10
-10.93650400000001
 20
0.6644100000000037
 10
-11.03752299999999
 20
0.4462010000000021
 10
-10.920334
 20
0.2077940000000069
 10
-10.56473700000001
 20
0.1269439999999946
 10
-10.56473700000001
 20
0.1268769999999932
  0
LWPOLYLINE
  5
A8
100
AcDbEntity
  8
0
  6
ByLayer
 62
  256
370
   -1
100
AcDbPolyline
 90
   24
 70
    1
 43
0
 10
-10.01091
 20
1.678585999999996
 10
-9.804823999999996
 20
1.181554000000006
 10
-9.804823999999996
 20
0.2238590000000045
 10
-9.841192000000007
 20
0.08647100000000307
 10
-9.942212000000012
 20
0.001611999999994396
 10
-10.200827
 20
-0.09536900000000514
 10
-10.56450799999999
 20
-0.1398509999999931
 10
-11.154484
 20
0.009658999999999196
 10
-11.36057
 20
0.4420389999999941
 10
-11.18680500000001
 20
0.8420890000000014
 10
-10.697858
 20
1.011807000000005
 10
-10.12405200000001
 20
1.068411999999995
 10
-10.12405200000001
 20
1.181554000000006
 10
-10.24528000000001
 20
1.476536999999993
 10
-10.57259300000001
 20
1.569509999999994
 10
-10.89182199999999
 20
1.521018999999995
 10
-11.15852099999999
 20
1.411913999999996
 10
-11.21913499999999
 20
1.476536999999993
 10
-11.243381
 20
1.557387000000006
 10
-11.215126
 20
1.650360000000006
 10
-11.12625800000001
 20
1.719087000000002
 10
-10.87572800000001
 20
1.803945999999996
 10
-10.568622
 20
1.836304999999996
 10
-10.568555
 20
1.836180999999996
  0
LWPOLYLINE
  5
A9
100
AcDbEntity
  8
0
  6
ByLayer
 62
  256
370
   -1
100
AcDbPolyline
 90
   22
 70
    1
 43
0
 10
-8.944100999999989
 20
-0.09130299999999636
 10
-9.032969000000008
 20
-0.1034259999999989
 10
-9.206725000000006
 20
0.04204699999999661
 10
-9.206725000000006
 20
2.535290000000003
 10
-9.146111999999988
 20
2.551422000000002
 10
-9.053138999999987
 20
2.563543999999993
 10
-8.883420999999998
 20
2.418071999999995
 10
-8.883420999999998
 20
0.9633450000000039
 10
-7.998461999999989
 20
1.820010999999994
 10
-7.848951999999997
 20
1.771519999999995
 10
-7.792347000000007
 20
1.662415999999993
 10
-7.828714999999988
 20
1.561396000000002
 10
-7.925697000000014
 20
1.464414000000005
 10
-8.57628600000001
 20
0.8946470000000062
 10
-7.675166999999988
 20
0.08647100000000307
 10
-7.731772000000007
 20
-0.05496399999999824
 10
-7.852999000000011
 20
-0.1074629999999956
 10
-7.966150999999996
 20
-0.07920900000000586
 10
-8.067170000000004
 20
0.009658999999999196
 10
-8.883430000000004
 20
0.8299669999999963
 10
-8.883430000000004
 20
-0.07519999999999527
 10
-8.883488
 20
-0.07517099999999743
  0
LWPOLYLINE
  5
AA
100
AcDbEntity
  8
0
  6
ByLayer
 62
  256
370
   -1
100
AcDbPolyline
 90
   24
 70
    1
 43
0
 10
-6.828692999999987
 20
0.2632559999999984
 10
-6.361971000000011
 20
0.1309150000000017
 10
-6.054865000000007
 20
0.1875200000000063
 10
-5.836656000000005
 20
0.3087469999999968
 10
-5.739675000000005
 20
0.1551989999999961
 10
-5.792174999999986
 20
0.04609399999999653
 10
-5.929562000000004
 20
-0.04687900000000411
 10
-6.131610999999992
 20
-0.1115010000000041
 10
-6.37810300000001
 20
-0.135746999999995
 10
-6.798358000000007
 20
-0.072102000000001
 10
-7.121626999999989
 20
0.1188310000000001
 10
-7.324687000000011
 20
0.4320000000000022
 10
-7.39237399999999
 20
0.8623539999999963
 10
-7.327751000000006
 20
1.270488999999998
 10
-7.141873000000004
 20
1.577595000000002
 10
-6.854964999999993
 20
1.767510999999999
 10
-6.495330999999993
 20
1.836237999999994
 10
-6.159931999999998
 20
1.775625000000005
 10
-5.897278999999997
 20
1.601868999999994
 10
-5.723513999999994
 20
1.339207000000002
 10
-5.658891000000011
 20
1.007856000000004
 10
-5.699268999999987
 20
0.8785529999999966
 10
-5.812420000000003
 20
0.8340709999999945
 10
-7.057004000000006
 20
0.6602769999999936
  0
LWPOLYLINE
  5
AB
100
AcDbEntity
  8
0
  6
ByLayer
 62
  256
370
   -1
100
AcDbPolyline
 90
    6
 70
    1
 43
0
 10
-6.907494000000014
 20
1.399762999999993
 10
-7.077212000000003
 20
0.910815999999997
 10
-5.965958999999998
 20
1.064364999999995
 10
-6.123554000000013
 20
1.428045999999995
 10
-6.499358999999998
 20
1.573519000000005
 10
-6.499358999999998
 20
1.573519000000005
  0
LWPOLYLINE
  5
AC
100
AcDbEntity
  8
0
  6
ByLayer
 62
  256
370
   -1
100
AcDbPolyline
 90
   16
 70
    1
 43
0
 10
-4.927451999999988
 20
-0.09130299999999636
 10
-5.016320000000007
 20
-0.1034259999999989
 10
-5.190086000000008
 20
0.04204699999999661
 10
-5.190086000000008
 20
1.411913999999996
 10
-5.157726999999994
 20
1.557387000000006
 10
-5.040537
 20
1.666492000000005
 10
-4.757677000000001
 20
1.783681000000001
 10
-4.349542000000014
 20
1.836180999999996
 10
-4.026275999999996
 20
1.674548000000001
 10
-4.038398999999998
 20
1.597802999999999
 10
-4.070758000000012
 20
1.541197999999994
 10
-4.175824000000006
 20
1.557329999999993
 10
-4.305137000000002
 20
1.564965999999998
 10
-4.632450000000006
 20
1.524589000000006
 10
-4.866818999999992
 20
1.435721000000001
 10
-4.866838999999999
 20
-0.07517099999999743
  0
LWPOLYLINE
  5
AD
100
AcDbEntity
  8
0
  6
ByLayer
 62
  256
370
   -1
100
AcDbPolyline
 90
    9
 70
    1
 43
0
 10
-4.03034199999999
 20
0.2481049999999954
 10
-3.86466200000001
 20
0.3127269999999953
 10
-3.703028999999987
 20
0.2481049999999954
 10
-3.646423999999996
 20
0.08647100000000307
 10
-3.703028999999987
 20
-0.07112399999999752
 10
-3.86466200000001
 20
-0.135746999999995
 10
-4.03034199999999
 20
-0.07112399999999752
 10
-4.086947000000009
 20
0.08647100000000307
 10
-4.086947000000009
 20
0.08647100000000307
  0
LWPOLYLINE
  5
AE
100
AcDbEntity
  8
0
  6
ByLayer
 62
  256
370
   -1
100
AcDbPolyline
 90
   16
 70
    1
 43
0
 10
-3.428271999999993
 20
-0.604495
 10
-3.331290999999993
 20
-0.5196360000000055
 10
-3.270677000000006
 20
-0.3943710000000067
 10
-3.246431999999999
 20
-0.2044450000000069
 10
-3.246431999999999
 20
1.775595999999993
 10
-3.185818000000012
 20
1.791728000000006
 10
-3.092845000000011
 20
1.803850999999995
 10
-2.923126999999994
 20
1.654340000000005
 10
-2.923126999999994
 20
-0.2650869999999941
 10
-2.971618000000007
 20
-0.5560329999999993
 10
-3.092845000000011
 20
-0.7419210000000049
 10
-3.238317999999992
 20
-0.8429399999999987
 10
-3.371668
 20
-0.8711950000000002
 10
-3.513103000000001
 20
-0.8105809999999991
 10
-3.557584999999989
 20
-0.6731939999999952
 10
-3.557584999999989
 20
-0.6732219999999955
  0
LWPOLYLINE
  5
AF
100
AcDbEntity
  8
0
  6
ByLayer
 62
  256
370
   -1
100
AcDbPolyline
 90
    9
 70
    1
 43
0
 10
-3.238317999999992
 20
2.515052999999995
 10
-3.084769999999992
 20
2.575666999999996
 10
-2.935249999999996
 20
2.515052999999995
 10
-2.878645000000006
 20
2.373619000000005
 10
-2.935249999999996
 20
2.228145999999995
 10
-3.084769999999992
 20
2.171541000000005
 10
-3.238317999999992
 20
2.228145999999995
 10
-3.294923000000011
 20
2.373619000000005
 10
-3.294923000000011
 20
2.373619000000005
  0
LWPOLYLINE
  5
B0
100
AcDbEntity
  8
0
  6
ByLayer
 62
  256
370
   -1
100
AcDbPolyline
 90
    9
 70
    1
 43
0
 10
-1.351248999999996
 20
0.159236000000007
 10
-1.189606999999995
 20
0.2279640000000001
 10
-1.189606999999995
 20
0.8138919999999956
 10
-1.690685999999999
 20
0.7613920000000007
 10
-2.001828999999987
 20
0.6644100000000037
 10
-2.102857999999998
 20
0.4462010000000021
 10
-1.985669000000001
 20
0.2077940000000069
 10
-1.630072000000013
 20
0.1269439999999946
 10
-1.630072000000013
 20
0.1268769999999932
  0
LWPOLYLINE
  5
B1
100
AcDbEntity
  8
0
  6
ByLayer
 62
  256
370
   -1
100
AcDbPolyline
 90
   24
 70
    1
 43
0
 10
-1.076245
 20
1.678585999999996
 10
-0.870159000000001
 20
1.181554000000006
 10
-0.870159000000001
 20
0.2238590000000045
 10
-0.9065270000000112
 20
0.08647100000000307
 10
-1.007545999999991
 20
0.001611999999994396
 10
-1.266171000000014
 20
-0.09536900000000514
 10
-1.629852
 20
-0.1398509999999931
 10
-2.219818000000004
 20
0.009658999999999196
 10
-2.425905
 20
0.4420389999999941
 10
-2.252149000000003
 20
0.8420890000000014
 10
-1.763202000000007
 20
1.011807000000005
 10
-1.189387000000011
 20
1.068411999999995
 10
-1.189387000000011
 20
1.181554000000006
 10
-1.310613999999987
 20
1.476536999999993
 10
-1.637927999999988
 20
1.569509999999994
 10
-1.957166000000001
 20
1.521018999999995
 10
-2.223865999999987
 20
1.411913999999996
 10
-2.284479000000005
 20
1.476536999999993
 10
-2.30872500000001
 20
1.557387000000006
 10
-2.280470000000008
 20
1.650360000000006
 10
-2.191601999999989
 20
1.719087000000002
 10
-1.941063000000014
 20
1.803945999999996
 10
-1.633957000000009
 20
1.836304999999996
 10
-1.633890000000008
 20
1.836180999999996
  0
LWPOLYLINE
  5
B2
100
AcDbEntity
  8
0
  6
ByLayer
 62
  256
370
   -1
100
AcDbPolyline
 90
   22
 70
    1
 43
0
 10
-0.1023889999999881
 20
-0.01050999999999647
 10
-0.2761450000000139
 20
0.405699999999996
 10
-0.2761450000000139
 20
2.325128000000007
 10
-0.2155319999999961
 20
2.341258999999994
 10
-0.1225589999999954
 20
2.353381999999996
 10
0.04715899999999351
 20
2.207909999999998
 10
0.04715899999999351
 20
1.743207999999996
 10
0.7098609999999894
 20
1.743207999999996
 10
0.7341069999999945
 20
1.686604000000003
 10
0.7462299999999971
 20
1.613867999999997
 10
0.625001999999995
 20
1.476470000000006
 10
0.04696799999999257
 20
1.476470000000006
 10
0.04696799999999257
 20
0.4258410000000055
 10
0.1358360000000118
 20
0.1955090000000013
 10
0.3944510000000037
 20
0.1308860000000038
 10
0.5480090000000075
 20
0.1551319999999947
 10
0.6894440000000088
 20
0.2117360000000019
 10
0.7339259999999967
 20
0.1511229999999983
 10
0.754162000000008
 20
0.06626400000000388
 10
0.6490949999999884
 20
-0.07920900000000586
 10
0.3581499999999949
 20
-0.1358129999999989
 10
0.3582739999999944
 20
-0.1357849999999985
  0
LWPOLYLINE
  5
B3
100
AcDbEntity
  8
0
  6
ByLayer
 62
  256
370
   -1
100
AcDbPolyline
 90
    9
 70
    1
 43
0
 10
2.192851999999988
 20
0.159236000000007
 10
2.354485000000011
 20
0.2279640000000001
 10
2.354485000000011
 20
0.8138919999999956
 10
1.85341600000001
 20
0.7613920000000007
 10
1.542262999999991
 20
0.6644100000000037
 10
1.441242999999986
 20
0.4462010000000021
 10
1.558423000000005
 20
0.2077940000000069
 10
1.914029999999997
 20
0.1269439999999946
 10
1.914029999999997
 20
0.1268769999999932
  0
LWPOLYLINE
  5
B4
100
AcDbEntity
  8
0
  6
ByLayer
 62
  256
370
   -1
100
AcDbPolyline
 90
   24
 70
    1
 43
0
 10
2.467857000000009
 20
1.678585999999996
 10
2.673943000000008
 20
1.181554000000006
 10
2.673943000000008
 20
0.2238590000000045
 10
2.637574999999998
 20
0.08647100000000307
 10
2.536554999999993
 20
0.001611999999994396
 10
2.277940000000001
 20
-0.09536900000000514
 10
1.914258999999987
 20
-0.1398509999999931
 10
1.324283000000008
 20
0.009658999999999196
 10
1.118197000000009
 20
0.4420389999999941
 10
1.291953000000007
 20
0.8420890000000014
 10
1.780909000000008
 20
1.011807000000005
 10
2.354714000000001
 20
1.068411999999995
 10
2.354714000000001
 20
1.181554000000006
 10
2.233486999999997
 20
1.476536999999993
 10
1.906173999999993
 20
1.569509999999994
 10
1.586944999999986
 20
1.521018999999995
 10
1.320245
 20
1.411913999999996
 10
1.259632000000011
 20
1.476536999999993
 10
1.235386000000005
 20
1.557387000000006
 10
1.263641000000007
 20
1.650360000000006
 10
1.352508999999998
 20
1.719087000000002
 10
1.603048000000001
 20
1.803945999999996
 10
1.910154000000006
 20
1.836304999999996
 10
1.910211000000004
 20
1.836180999999996
  0
LWPOLYLINE
  5
B5
100
AcDbEntity
  8
0
  6
ByLayer
 62
  256
370
   -1
100
AcDbPolyline
 90
    8
 70
    1
 43
0
 10
3.546778999999987
 20
-0.09130299999999636
 10
3.457910999999996
 20
-0.1034259999999989
 10
3.284154999999998
 20
0.04204699999999661
 10
3.284154999999998
 20
1.775595999999993
 10
3.344767999999988
 20
1.791728000000006
 10
3.437740999999988
 20
1.803850999999995
 10
3.607459000000006
 20
1.654340000000005
 10
3.607392000000004
 20
-0.07517099999999743
  0
LWPOLYLINE
  5
B6
100
AcDbEntity
  8
0
  6
ByLayer
 62
  256
370
   -1
100
AcDbPolyline
 90
    9
 70
    1
 43
0
 10
3.292239999999993
 20
2.515052999999995
 10
3.445796999999999
 20
2.575666999999996
 10
3.595307999999989
 20
2.515052999999995
 10
3.65191200000001
 20
2.373619000000005
 10
3.595307999999989
 20
2.228145999999995
 10
3.445796999999999
 20
2.171541000000005
 10
3.292239999999993
 20
2.228145999999995
 10
3.235635000000002
 20
2.373619000000005
 10
3.235635000000002
 20
2.373619000000005
  0
LWPOLYLINE
  5
B7
100
AcDbEntity
  8
0
  6
ByLayer
 62
  256
370
   -1
100
AcDbPolyline
 90
   21
 70
    1
 43
0
 10
-22.319534
 20
7.907759999999996
 10
-22.82038
 20
7.669843999999998
 10
-23.23184999999999
 20
7.298169999999999
 10
-23.523515
 20
6.813070999999994
 10
-23.66029399999999
 20
6.263816000000006
 10
-23.632153
 20
5.710048999999998
 10
-23.446234
 20
5.187665999999993
 10
-23.10967599999999
 20
4.732562999999999
 10
-22.654574
 20
4.396005000000002
 10
-22.13219100000001
 20
4.210086000000004
 10
-21.578424
 20
4.181945999999996
 10
-21.029169
 20
4.318724000000003
 10
-20.54407
 20
4.610388999999998
 10
-20.17239600000001
 20
5.021860000000004
 10
-19.93447999999999
 20
5.522705000000002
 10
-19.850656
 20
6.082493999999997
 10
-19.995977
 20
6.813070999999994
 10
-20.40981600000001
 20
7.432423999999997
 10
-21.029169
 20
7.846262999999993
 10
-21.75974600000001
 20
7.991584000000003
 10
-21.75974600000001
 20
7.991584000000003
  0
ENDBLK
  5
57
330
55
100
AcDbEntity
  8
0
100
AcDbBlockEnd
  0
ENDSEC
  0
SECTION
  2
ENTITIES
  0
INSERT
  5
B8
100
AcDbEntity
  8
0
  6
ByLayer
 62
  256
370
   -1
100
AcDbBlockReference
  2
texto
 10
14.27208747418946
 20
13.84951358373216
 30
0
 41
0.928571429
 42
0.928571429
 43
0
 50
0
 70
    1
 71
    1
 44
0.928571429
 45
0.928571429
  0
LWPOLYLINE
  5
B9
100
AcDbEntity
  8
Gravação
  6
CONTINUOUS
 62
    1
370
   -1
100
AcDbPolyline
 90
    4
 70
    1
 43
0
 10
36.86815787415893
 20
62.89452002902824
 10
36.86815787415893
 20
61.96594860002825
 10
9.560422861555358
 20
61.96594860002825
 10
9.560422861555358
 20
62.89452002902824
  0
LWPOLYLINE
  5
BA
100
AcDbEntity
  8
Corte
  6
ByLayer
 62
  256
370
   -1
100
AcDbPolyline
 90
   21
 70
    1
 43
0
 10
16.23284835650071
 20
43.21405309258935
 10
15.81125792747734
 20
43.016437996577
 10
15.46490033686016
 20
42.70772234401354
 10
15.21938939640919
 20
42.30479490130061
 10
15.10425476961496
 20
41.84857892776267
 10
15.12794264226072
 20
41.38861524783585
 10
15.2844411886674
 20
40.95471939089385
 10
15.56774110842568
 20
40.5767068863103
 10
15.95082622327015
 20
40.29715888834581
 10
16.39054556431414
 20
40.14273295215185
 10
16.85668259467676
 20
40.11935962374272
 10
17.31902161923368
 20
40.23296861852397
 10
17.72735690698443
 20
40.47522810077165
 10
18.04021595171441
 20
40.81699948719078
 10
18.24048331635651
 20
41.23300569426512
 10
18.31104272208692
 20
41.69797129969582
 10
18.18871781036533
 20
42.30479490130061
 10
17.84036609834884
 20
42.81923488247266
 10
17.31902161923368
 20
43.16297315025898
 10
16.70405360338725
 20
43.2836780350402
 10
16.70405360338725
 20
43.2836780350402
  0
LWPOLYLINE
  5
BB
100
AcDbEntity
  8
Corte
  6
ByLayer
 62
  256
370
   -1
100
AcDbPolyline
 90
   21
 70
    1
 43
0
 10
12.73293481565472
 20
56.69944279485554
 10
12.25265163372649
 20
56.47431622514256
 10
11.85807501562831
 20
56.1226219604798
 10
11.57838466319043
 20
55.6635999785988
 10
11.44722128494451
 20
55.14387077145131
 10
11.4742069232897
 20
54.61987211171321
 10
11.65249280138579
 20
54.12557037132426
 10
11.97523301922402
 20
53.69493192222421
 10
12.41165027455181
 20
53.37646595923953
 10
12.91258622976599
 20
53.20054123490629
 10
13.44361767816901
 20
53.17391393085055
 10
13.97032237200702
 20
53.3033392824545
 10
14.43550506543015
 20
53.5793255169042
 10
14.79191955483405
 20
53.968677451059
 10
15.02006763530519
 20
54.44259898978653
 10
15.10045014298609
 20
54.97229593044231
 10
14.96109546653666
 20
55.6635999785988
 10
14.56424711050306
 20
56.24965899241648
 10
13.97032237200702
 20
56.64125163218618
 10
13.26974006486353
 20
56.7787607456433
 10
13.26974006486353
 20
56.7787607456433
  0
LWPOLYLINE
  5
BC
100
AcDbEntity
  8
Corte
  6
ByLayer
 62
  256
370
   -1
100
AcDbPolyline
 90
   21
 70
    1
 43
0
 10
7.639988439406114
 20
29.54568280410329
 10
7.159705257477883
 20
29.32055623439031
 10
6.765128639379695
 20
28.96886196972756
 10
6.485438286941816
 20
28.50983998784655
 10
6.354274908695897
 20
27.99011078069907
 10
6.381260547041088
 20
27.46611212096096
 10
6.55954642513718
 20
26.97181038057201
 10
6.882286642975412
 20
26.54117193147196
 10
7.318703898303191
 20
26.22270596848728
 10
7.819639853517387
 20
26.04678124415405
 10
8.350671301920402
 20
26.02015394009831
 10
8.877375995758408
 20
26.14957929170225
 10
9.342558689181541
 20
26.42556552615196
 10
9.698973178585447
 20
26.81491746030675
 10
9.927121259056582
 20
27.28883899903428
 10
10.00750376673748
 20
27.81853593969006
 10
9.868149090288052
 20
28.50983998784655
 10
9.471300734254454
 20
29.09589900166424
 10
8.877375995758408
 20
29.48749164143395
 10
8.176793688614922
 20
29.62500075489106
 10
8.176793688614922
 20
29.62500075489106
  0
LINE
  5
BD
100
AcDbEntity
  8
Corte
  6
CONTINUOUS
 62
  256
370
   -3
100
AcDbLine
 10
46.4286
 20
65
 11
0
 21
65
  0
LWPOLYLINE
  5
BE
100
AcDbEntity
  8
Corte
  6
ByLayer
 62
  256
370
   -1
100
AcDbPolyline
 90
    4
 70
    1
 43
0
 10
0
 20
65.00000003
 10
0
 20
0
 10
46.42857145
 20
0
 10
46.42857145
 20
65.00000003
  0
LWPOLYLINE
  5
BF
100
AcDbEntity
  8
Gravação
  6
ByLayer
 62
  256
370
   -1
100
AcDbPolyline
 90
   57
 70
    0
 43
0
 10
12.67736516706226
 20
50.68142222485948
 10
12.80912117259568
 20
50.66227308654478
 10
13.02999662305328
 20
50.71962871582816
 10
13.18886580646143
 20
50.88022334232888
 10
13.28574694275287
 20
51.13258659718543
 10
13.31677740617678
 20
51.44994640102153
 10
13.22377711556898
 20
51.94703104479455
 10
12.95640151980744
 20
52.33321779301947
 10
12.54177338620525
 20
52.581760114906
 10
11.9953978775641
 20
52.67352779701789
 10
11.38314484562815
 20
52.5664678668305
 10
10.91427213634375
 20
52.26822029779602
 10
10.61977473221302
 20
51.80554865309545
 10
10.51515012448712
 20
51.20906297746575
 10
10.61202167134025
 20
50.63933140257778
 10
10.89102254316371
 20
50.20725182397961
 10
11.32114720907316
 20
49.93194688515607
 10
11.87914799377625
 20
49.83253733710408
 10
12.138770528665
 20
49.85168552917485
 10
12.32865195556425
 20
49.88989202014354
 10
12.37899554774239
 20
49.77135225865534
 10
12.26274566395452
 20
49.6336993161216
 10
11.85587059122512
 20
49.58402151004747
 10
11.18161992273417
 20
49.69873276861422
 10
10.66236622246221
 20
50.02375147078106
 10
10.32524184716058
 20
50.53229796722028
 10
10.20899100442888
 20
51.2090904185396
 10
10.33299394908952
 20
51.91264548679593
 10
10.69336983545886
 20
52.4517849955815
 10
11.25524187640727
 20
52.79974632795926
 10
11.99148922250938
 20
52.92209755997823
 10
12.6734929518731
 20
52.81503762979085
 10
13.18499359127227
 20
52.51679006075634
 10
13.5104936494558
 20
52.05029748308574
 10
13.62287227699835
 20
51.44616142532063
 10
13.41749335884799
 20
50.67760129188944
 10
13.16271157241762
 20
50.47685375066586
 10
12.80912117259568
 20
50.40993727276204
 10
12.56886834414717
 20
50.44814470997464
 10
12.36348942599682
 20
50.55903408932742
 10
12.16974537334671
 20
50.46344452800155
 10
11.90237073652903
 20
50.42903152892909
 10
11.59236721065274
 20
50.47870933500321
 10
11.35599522788786
 20
50.62783359264243
 10
11.20487047485803
 20
50.86872553239351
 10
11.15058945931025
 20
51.19373571836503
 10
11.21255928649416
 20
51.56080928554439
 10
11.39467806308233
 20
51.83611422436796
 10
11.67367797596197
 20
52.00818016597413
 10
12.04180692320408
 20
52.06932928715373
 10
12.30531030377644
 20
52.03870977997749
 10
12.5223039496066
 20
51.96220595862332
 10
12.68118176350922
 20
51.77483925274631
 10
12.67752051596286
 20
51.71748362346293
 10
12.67385926841651
 20
51.66012894042348
 10
12.58049266126529
 20
50.73110003093361
 10
12.67736516706226
 20
50.68142222485948
  0
LWPOLYLINE
  5
C0
100
AcDbEntity
  8
Gravação
  6
ByLayer
 62
  256
370
   -1
100
AcDbPolyline
 90
   10
 70
    0
 43
0
 10
11.59236721065274
 20
50.81139734418397
 10
11.9449900361493
 20
50.68139478378566
 10
12.27824315520562
 20
50.79610509610848
 10
12.37511470205876
 20
51.74437303708596
 10
12.22398994902893
 20
51.79405084316007
 10
12.02249283550603
 20
51.81699252712708
 10
11.61948901902193
 20
51.65257791390024
 10
11.4683642659921
 20
51.19373571836503
 10
11.4683642659921
 20
51.19376221319494
 10
11.59236721065274
 20
50.81139734418397
  0
LWPOLYLINE
  5
C1
100
AcDbEntity
  8
Gravação
  6
ByLayer
 62
  256
370
   -1
100
AcDbPolyline
 90
    9
 70
    0
 43
0
 10
14.4443668528355
 20
50.42140858786751
 10
14.35914647352772
 20
50.40993727276204
 10
14.19252518819063
 20
50.54759021529579
 10
14.19252518819063
 20
52.90680625814665
 10
14.25064965061263
 20
52.92207106514834
 10
14.33586907097658
 20
52.93354143400986
 10
14.5024913152575
 20
52.79588943772004
 10
14.5024913152575
 20
50.43667339486918
 10
14.4443668528355
 20
50.42140858786751
  0
LWPOLYLINE
  5
C2
100
AcDbEntity
  8
Gravação
  6
ByLayer
 62
  256
370
   -1
100
AcDbPolyline
 90
   10
 70
    0
 43
0
 10
16.02149574220394
 20
50.65847959464856
 10
16.17649271042292
 20
50.72351304714119
 10
16.17649271042292
 20
51.27794385775832
 10
15.69599568402039
 20
51.2282660516842
 10
15.39761743420605
 20
51.13649742332837
 10
15.30074492840909
 20
50.93001848264973
 10
15.41311396651331
 20
50.70442730716948
 10
15.75412014644242
 20
50.62792348581531
 10
15.75412014644242
 20
50.62786008747231
 10
16.02149574220394
 20
50.65847959464856
  0
LWPOLYLINE
  5
C3
100
AcDbEntity
  8
Gravação
  6
ByLayer
 62
  256
370
   -1
100
AcDbPolyline
 90
   25
 70
    0
 43
0
 10
16.28520913147527
 20
52.09615530243375
 10
16.48283498875286
 20
51.6258417917931
 10
16.48283498875286
 20
50.71962871582816
 10
16.44796011951086
 20
50.58962615542982
 10
16.35107898321942
 20
50.50932884217945
 10
16.10308172439261
 20
50.41756116006755
 10
15.75433111408521
 20
50.37547033778586
 10
15.18857726850934
 20
50.51694326704571
 10
14.99095237017561
 20
50.92607169923765
 10
15.15758324495099
 20
51.30461658152246
 10
15.62645595423542
 20
51.46521972421854
 10
16.1767036780657
 20
51.51878186160568
 10
16.1767036780657
 20
51.62585125423234
 10
16.06045283533403
 20
51.90497712602593
 10
15.74657805321243
 20
51.99295131624162
 10
15.44045633196362
 20
51.94706700206371
 10
15.18470601226403
 20
51.84382800484635
 10
15.12658059089819
 20
51.90497712602593
 10
15.10333099771814
 20
51.98148094738009
 10
15.13042499671624
 20
52.06945513759578
 10
15.21564441708018
 20
52.1344885900884
 10
15.45589820447249
 20
52.21478590333876
 10
15.75039464965939
 20
52.245405410515
 10
15.75045889889605
 20
52.24527861382902
 10
16.28520913147527
 20
52.09615530243375
  0
LWPOLYLINE
  5
C4
100
AcDbEntity
  8
Gravação
  6
ByLayer
 62
  256
370
   -1
100
AcDbPolyline
 90
   21
 70
    0
 43
0
 10
18.1800859770983
 20
52.18792298454565
 10
18.44746157285982
 20
52.01585798918338
 10
18.62570813425885
 20
51.72525133984508
 10
18.69161346692474
 20
51.3122934584878
 10
18.62570813425885
 20
50.89551559040438
 10
18.43970851198702
 20
50.60491840350533
 10
18.15683638391827
 20
50.43285246189913
 10
17.7925796518653
 20
50.37929127075589
 10
17.44771084618536
 20
50.4251746386899
 10
17.19971358735854
 20
50.52459364918112
 10
17.08733495981602
 20
50.620183210507
 10
17.05630449639209
 20
50.7501848246614
 10
17.05630449639209
 20
52.90674285980367
 10
17.11442991775792
 20
52.92200766680534
 10
17.20358484360386
 20
52.9334789819108
 10
17.36633583163946
 20
52.79582603937706
 10
17.36633583163946
 20
52.11138320592233
 10
17.56783294516237
 20
52.20315183427817
 10
17.84683285804198
 20
52.24524265655988
 10
17.84683285804198
 20
52.24527861382902
 10
18.1800859770983
 20
52.18792298454565
  0
LWPOLYLINE
  5
C5
100
AcDbEntity
  8
Gravação
  6
ByLayer
 62
  256
370
   -1
100
AcDbPolyline
 90
   15
 70
    0
 43
0
 10
17.55233545391126
 20
51.94323755289834
 10
17.36633583163946
 20
51.83234817354558
 10
17.36633583163946
 20
50.75024822300439
 10
17.53295711697655
 20
50.66995090975403
 10
17.7925796518653
 20
50.63174441878535
 10
18.02896122406846
 20
50.66995090975403
 10
18.21496084634028
 20
50.79613253718231
 10
18.33508294531728
 20
51.00643241083098
 10
18.37773868480313
 20
51.31233036200088
 10
18.33508294531728
 20
51.61822736692683
 10
18.21496084634028
 20
51.82852724057552
 10
18.02896122406846
 20
51.95088793503374
 10
17.80033271273807
 20
51.99297875731545
 10
17.80033271273807
 20
51.99291535897246
 10
17.55233545391126
 20
51.94323755289834
  0
LWPOLYLINE
  5
C6
100
AcDbEntity
  8
Gravação
  6
ByLayer
 62
  256
370
   -1
100
AcDbPolyline
 90
   35
 70
    0
 43
0
 10
21.33820734052987
 20
51.90496766358668
 10
21.04758215158832
 20
51.99294280004629
 10
20.59807914874412
 20
51.81705592547005
 10
20.62132874192416
 20
51.65264036599928
 10
20.62132874192416
 20
50.43670935213835
 10
20.55935891474027
 20
50.42144454513666
 10
20.47798390019438
 20
50.40997323003121
 10
20.31136165591347
 20
50.54762617256495
 10
20.31136165591347
 20
51.62972612310613
 10
20.20285620250391
 20
51.90503106192967
 10
19.9083587983732
 20
51.9930061983893
 10
19.67198681560832
 20
51.95479876117671
 10
19.48598623439269
 20
51.86682457096101
 10
19.48598623439269
 20
50.43676328804208
 10
19.42786177197067
 20
50.42149848104041
 10
19.34264139266291
 20
50.41002811217887
 10
19.17602010732582
 20
50.54768010846868
 10
19.17602010732582
 20
51.85155976395934
 10
19.20705057074973
 20
51.97774139138761
 10
19.32330045453759
 20
52.08480132157502
 10
19.58679424567166
 20
52.19569164717171
 10
19.91229430385518
 20
52.24536945324584
 10
20.24941963810067
 20
52.18801382396246
 10
20.4741759342419
 20
52.03889051256719
 10
20.72604540825785
 20
52.18419289099243
 10
21.07092380337611
 20
52.24534201217201
 10
21.57079916671334
 20
52.09621775453282
 10
21.75679878898514
 20
51.6450174249377
 10
21.75679878898514
 20
50.43673679321217
 10
21.69482992074507
 20
50.4214719862105
 10
21.6134549061992
 20
50.41000067110505
 10
21.44682307247997
 20
50.54765361363877
 10
21.44682307247997
 20
51.62975261793603
 10
21.44670416344494
 20
51.62966272476314
 10
21.33820734052987
 20
51.90496766358668
  0
LWPOLYLINE
  5
C7
100
AcDbEntity
  8
Gravação
  6
ByLayer
 62
  256
370
   -1
100
AcDbPolyline
 90
   10
 70
    0
 43
0
 10
23.24470850327101
 20
50.65847959464856
 10
23.39970547148999
 20
50.72351304714119
 10
23.39970547148999
 20
51.27794385775832
 10
22.91920844508748
 20
51.2282660516842
 10
22.62083019527311
 20
51.13649742332837
 10
22.52395864841999
 20
50.93001848264973
 10
22.63633631701868
 20
50.70442730716948
 10
22.97733386645329
 20
50.62792348581531
 10
22.97733386645329
 20
50.62786008747231
 10
23.24470850327101
 20
50.65847959464856
  0
LWPOLYLINE
  5
C8
100
AcDbEntity
  8
Gravação
  6
ByLayer
 62
  256
370
   -1
100
AcDbPolyline
 90
   25
 70
    0
 43
0
 10
23.50842285148616
 20
52.09615530243375
 10
23.7060477498199
 20
51.6258417917931
 10
23.7060477498199
 20
50.71962871582816
 10
23.67117288057792
 20
50.58962615542982
 10
23.57430037478094
 20
50.50932884217945
 10
23.32630311595415
 20
50.41756116006755
 10
22.97755346459059
 20
50.37547033778586
 10
22.41179961901471
 20
50.51694326704571
 10
22.21417472068097
 20
50.92608021543296
 10
22.38080559545636
 20
51.3046250977178
 10
22.84967830474078
 20
51.46521972421854
 10
23.39992602857107
 20
51.51878186160568
 10
23.39992602857107
 20
51.6258417917931
 10
23.28367518583939
 20
51.90496766358668
 10
22.96980040371778
 20
51.99294280004629
 10
22.66367772352515
 20
51.94705848586838
 10
22.4079283627694
 20
51.84381854240709
 10
22.34980294140355
 20
51.90496766358668
 10
22.32655238927968
 20
51.98147148494084
 10
22.3536473472216
 20
52.06944662140045
 10
22.43886676758553
 20
52.13447912764914
 10
22.67911096553956
 20
52.21477644089951
 10
22.97360836967028
 20
52.24539594807575
 10
22.97367261890695
 20
52.24527861382902
 10
23.50842285148616
 20
52.09615530243375
  0
LWPOLYLINE
  5
C9
100
AcDbEntity
  8
Gravação
  6
ByLayer
 62
  256
370
   -1
100
AcDbPolyline
 90
   23
 70
    0
 43
0
 10
24.531432760779
 20
50.42140858786751
 10
24.44621334041504
 20
50.40993727276204
 10
24.27959109613412
 20
50.54759021529579
 10
24.27959109613412
 20
52.90680625814665
 10
24.33771555855616
 20
52.92207106514834
 10
24.42687144334591
 20
52.93354143400986
 10
24.58962147243767
 20
52.79588943772004
 10
24.58962147243767
 20
51.41936285111445
 10
25.43824744608232
 20
52.22997784955819
 10
25.58161913823936
 20
52.18409353538026
 10
25.63590015378715
 20
52.08085453816292
 10
25.60102528454518
 20
51.98526497683705
 10
25.50802499393735
 20
51.89349634848123
 10
24.88414668593946
 20
51.35435778593959
 10
25.74826919189139
 20
50.58962615542982
 10
25.69398817634358
 20
50.45579414586613
 10
25.57773829255572
 20
50.40611728603593
 10
25.46923188020235
 20
50.43285246189913
 10
25.37236033334921
 20
50.51694326704571
 10
24.58961284194319
 20
51.29315472885626
 10
24.58961284194319
 20
50.43664595379536
 10
24.589557223201
 20
50.43667339486918
 10
24.531432760779
 20
50.42140858786751
  0
LWPOLYLINE
  5
CA
100
AcDbEntity
  8
Gravação
  6
ByLayer
 62
  256
370
   -1
100
AcDbPolyline
 90
   25
 70
    0
 43
0
 10
26.55999021220406
 20
50.75690788775009
 10
27.00755039484682
 20
50.63168102044237
 10
27.30204779897753
 20
50.68524315782953
 10
27.51129797337322
 20
50.79995347015234
 10
27.6042973050372
 20
50.65465960792243
 10
27.55395275391525
 20
50.55141966446116
 10
27.42220633782012
 20
50.46344452800155
 10
27.22845269573171
 20
50.40229635306588
 10
26.99208071296682
 20
50.37935372285497
 10
26.58907977331423
 20
50.43957741747568
 10
26.27908296004478
 20
50.62024660884999
 10
26.0843598257433
 20
50.91658087266766
 10
26.01945179466156
 20
51.32380073086241
 10
26.08142162184544
 20
51.70999599528265
 10
26.25966818324447
 20
52.00059318218172
 10
26.53479683987879
 20
52.18030004348408
 10
26.87966564555873
 20
52.24533254973275
 10
27.20129444749693
 20
52.18797786669331
 10
27.4531639215129
 20
52.02356230722254
 10
27.6197947962883
 20
51.77501998533603
 10
27.68176462347218
 20
51.46148111446997
 10
27.64304438946834
 20
51.33912893620707
 10
27.53453893605877
 20
51.29703811392536
 10
26.34105278722866
 20
51.13258659718543
 10
26.55999021220406
 20
50.75690788775009
  0
LWPOLYLINE
  5
CB
100
AcDbEntity
  8
Gravação
  6
ByLayer
 62
  256
370
   -1
100
AcDbPolyline
 90
    7
 70
    0
 43
0
 10
26.4844244793857
 20
51.83232073247173
 10
26.32167445029395
 20
51.36965760396648
 10
27.38730365920706
 20
51.5149524124403
 10
27.23617890617721
 20
51.85908334940877
 10
26.87580301980788
 20
51.99673629194251
 10
26.87580301980788
 20
51.99673629194251
 10
26.4844244793857
 20
51.83232073247173
  0
LWPOLYLINE
  5
CC
100
AcDbEntity
  8
Gravação
  6
ByLayer
 62
  256
370
   -1
100
AcDbPolyline
 90
   17
 70
    0
 43
0
 10
28.38317354019791
 20
50.42140858786751
 10
28.29795411983395
 20
50.40993727276204
 10
28.13132228611472
 20
50.54759021529579
 10
28.13132228611472
 20
51.84381854240709
 10
28.16235274953865
 20
51.98147148494084
 10
28.27473137708119
 20
52.08471142840214
 10
28.54597822908803
 20
52.19560080775489
 10
28.93735676951017
 20
52.24527861382902
 10
29.24735070594816
 20
52.09233436946371
 10
29.23572542988622
 20
52.01971487942259
 10
29.20469496646229
 20
51.96615274203542
 10
29.10394257392554
 20
51.9814175490371
 10
28.97993867032106
 20
51.98864306765009
 10
28.66606388819946
 20
51.95043657668143
 10
28.44131718149654
 20
51.86634577153485
 10
28.44129800261992
 20
50.43667339486918
 10
28.38317354019791
 20
50.42140858786751
  0
LWPOLYLINE
  5
CD
100
AcDbEntity
  8
Gravação
  6
ByLayer
 62
  256
370
   -1
100
AcDbPolyline
 90
   10
 70
    0
 43
0
 10
29.24345164033175
 20
50.74257134603907
 10
29.40232945423435
 20
50.80371952097472
 10
29.55732642245335
 20
50.74257134603907
 10
29.61160743800113
 20
50.58962615542982
 10
29.55732642245335
 20
50.44050284403456
 10
29.40232945423435
 20
50.37935372285497
 10
29.24345164033175
 20
50.44050284403456
 10
29.18917062478394
 20
50.58962615542982
 10
29.18917062478394
 20
50.58962615542982
 10
29.24345164033175
 20
50.74257134603907
  0
LWPOLYLINE
  5
CE
100
AcDbEntity
  8
Gravação
  6
ByLayer
 62
  256
370
   -1
100
AcDbPolyline
 90
   17
 70
    0
 43
0
 10
29.82080295259846
 20
49.93580377539527
 10
29.91380228426244
 20
50.01610108864564
 10
29.97192770562827
 20
50.1346323339385
 10
29.99517729880831
 20
50.31434865768009
 10
29.99517729880831
 20
52.18795042561947
 10
30.05330272017415
 20
52.20321523262116
 10
30.14245860496392
 20
52.21468654772661
 10
30.3052086340557
 20
52.07321267222283
 10
30.3052086340557
 20
50.25696653356683
 10
30.25870848875178
 20
49.98166064849935
 10
30.14245860496392
 20
49.80576525772778
 10
30.00295816905221
 20
49.71017664264584
 10
29.8750830092024
 20
49.6834405205387
 10
29.73945478847983
 20
49.74079614982208
 10
29.69679904899398
 20
49.87079776397648
 10
29.69679904899398
 20
49.87077126914658
 10
29.82080295259846
 20
49.93580377539527
  0
LWPOLYLINE
  5
CF
100
AcDbEntity
  8
Gravação
  6
ByLayer
 62
  256
370
   -1
100
AcDbPolyline
 90
   10
 70
    0
 43
0
 10
30.00295816905221
 20
52.88765711983195
 10
30.15020207639841
 20
52.94501274911532
 10
30.29358335799377
 20
52.88765711983195
 10
30.34786437354154
 20
52.7538260565122
 10
30.29358335799377
 20
52.61617311397844
 10
30.15020207639841
 20
52.56261097659128
 10
30.00295816905221
 20
52.61617311397844
 10
29.9486771535044
 20
52.7538260565122
 10
29.9486771535044
 20
52.7538260565122
 10
30.00295816905221
 20
52.88765711983195
  0
LWPOLYLINE
  5
D0
100
AcDbEntity
  8
Gravação
  6
ByLayer
 62
  256
370
   -1
100
AcDbPolyline
 90
   10
 70
    0
 43
0
 10
31.81255134507462
 20
50.65847959464856
 10
31.96755694378808
 20
50.72351304714119
 10
31.96755694378808
 20
51.27794385775832
 10
31.48705032794726
 20
51.2282660516842
 10
31.18868166757123
 20
51.13649742332837
 10
31.09180053127978
 20
50.93001848264973
 10
31.20417819987847
 20
50.70442730716948
 10
31.54517574931308
 20
50.62792348581531
 10
31.54517574931308
 20
50.62786008747231
 10
31.81255134507462
 20
50.65847959464856
  0
LWPOLYLINE
  5
D1
100
AcDbEntity
  8
Gravação
  6
ByLayer
 62
  256
370
   -1
100
AcDbPolyline
 90
   25
 70
    0
 43
0
 10
32.07626473434595
 20
52.09615530243375
 10
32.2738896326797
 20
51.6258417917931
 10
32.2738896326797
 20
50.71962871582816
 10
32.23901476343771
 20
50.58962615542982
 10
32.14214321658459
 20
50.50932884217945
 10
31.89413636831945
 20
50.41756116006755
 10
31.54538671695589
 20
50.37547033778586
 10
30.97964246081834
 20
50.51694326704571
 10
30.78201660354076
 20
50.92608021543296
 10
30.94863884782168
 20
51.3046250977178
 10
31.41751155710609
 20
51.46521972421854
 10
31.96776791143086
 20
51.51878186160568
 10
31.96776791143086
 20
51.6258417917931
 10
31.85151802764303
 20
51.90496766358668
 10
31.53764228657759
 20
51.99294280004629
 10
31.23151097589046
 20
51.94705848586838
 10
30.97576065619088
 20
51.84381854240709
 10
30.91763619376886
 20
51.90496766358668
 10
30.89438564164498
 20
51.98147148494084
 10
30.92148059958691
 20
52.06944662140045
 10
31.00670001995087
 20
52.13447912764914
 10
31.24695284839934
 20
52.21477644089951
 10
31.54145025253006
 20
52.24539594807575
 10
31.54151450176673
 20
52.24527861382902
 10
32.07626473434595
 20
52.09615530243375
  0
LWPOLYLINE
  5
D2
100
AcDbEntity
  8
Gravação
  6
ByLayer
 62
  256
370
   -1
100
AcDbPolyline
 90
   23
 70
    0
 43
0
 10
33.01013793772564
 20
50.49785847331793
 10
32.8435156934447
 20
50.89169465743433
 10
32.8435156934447
 20
52.70794174233428
 10
32.90164015586673
 20
52.72320560309201
 10
32.99079604065649
 20
52.73467691819747
 10
33.15354606974824
 20
52.59702492190765
 10
33.15354606974824
 20
52.1573034773694
 10
33.78904006436975
 20
52.1573034773694
 10
33.81229061649363
 20
52.10374228622619
 10
33.82391589255556
 20
52.03491628808126
 10
33.70766504982387
 20
51.9049042652437
 10
33.15336291147656
 20
51.9049042652437
 10
33.15336291147656
 20
50.91075295633223
 10
33.2385823318405
 20
50.69280270054812
 10
33.4865795906673
 20
50.63165357936854
 10
33.63383308745182
 20
50.65459620957945
 10
33.76946130817439
 20
50.70815740072269
 10
33.81211704766024
 20
50.65080271768324
 10
33.83152223502223
 20
50.57050540443288
 10
33.73076888354161
 20
50.43285246189913
 10
33.45176897066198
 20
50.37929127075589
 10
33.45188787969702
 20
50.3793177655858
 10
33.01013793772564
 20
50.49785847331793
  0
LWPOLYLINE
  5
D3
100
AcDbEntity
  8
Gravação
  6
ByLayer
 62
  256
370
   -1
100
AcDbPolyline
 90
   10
 70
    0
 43
0
 10
35.21114513509194
 20
50.65847959464856
 10
35.36614210331095
 20
50.72351304714119
 10
35.36614210331095
 20
51.27794385775832
 10
34.88564507690842
 20
51.2282660516842
 10
34.58726682709407
 20
51.13649742332837
 10
34.49039432129709
 20
50.93001848264973
 10
34.60276335940134
 20
50.70442730716948
 10
34.94377049827426
 20
50.62792348581531
 10
34.94377049827426
 20
50.62786008747231
 10
35.21114513509194
 20
50.65847959464856
  0
LWPOLYLINE
  5
D4
100
AcDbEntity
  8
Gravação
  6
ByLayer
 62
  256
370
   -1
100
AcDbPolyline
 90
   25
 70
    0
 43
0
 10
35.47485948330713
 20
52.09615530243375
 10
35.67248438164087
 20
51.6258417917931
 10
35.67248438164087
 20
50.71962871582816
 10
35.63760951239889
 20
50.58962615542982
 10
35.54073700660192
 20
50.50932884217945
 10
35.29273974777512
 20
50.41756116006755
 10
34.94399009641151
 20
50.37547033778586
 10
34.37823625083568
 20
50.51694326704571
 10
34.18061135250194
 20
50.92608021543296
 10
34.34723359678286
 20
51.3046250977178
 10
34.81611493656175
 20
51.46521972421854
 10
35.36636170144821
 20
51.51878186160568
 10
35.36636170144821
 20
51.6258417917931
 10
35.25011181766035
 20
51.90496766358668
 10
34.93623703553875
 20
51.99294280004629
 10
34.6301143553461
 20
51.94705848586838
 10
34.37436403564652
 20
51.84381854240709
 10
34.31623957322452
 20
51.90496766358668
 10
34.29298902110064
 20
51.98147148494084
 10
34.32008397904257
 20
52.06944662140045
 10
34.4053033994065
 20
52.13447912764914
 10
34.645556227855
 20
52.21477644089951
 10
34.94005363198572
 20
52.24539594807575
 10
34.94010829178408
 20
52.24527861382902
 10
35.47485948330713
 20
52.09615530243375
  0
LWPOLYLINE
  5
D5
100
AcDbEntity
  8
Gravação
  6
ByLayer
 62
  256
370
   -1
100
AcDbPolyline
 90
    9
 70
    0
 43
0
 10
36.50948507922356
 20
50.42140858786751
 10
36.42426565885962
 20
50.40993727276204
 10
36.25764341457869
 20
50.54759021529579
 10
36.25764341457869
 20
52.18795042561947
 10
36.31576787700071
 20
52.20321523262116
 10
36.40492376179048
 20
52.21468654772661
 10
36.56767379088225
 20
52.07321267222283
 10
36.56760954164558
 20
50.43667339486918
 10
36.50948507922356
 20
50.42140858786751
  0
LWPOLYLINE
  5
D6
100
AcDbEntity
  8
Gravação
  6
ByLayer
 62
  256
370
   -1
100
AcDbPolyline
 90
   10
 70
    0
 43
0
 10
36.26539647545149
 20
52.88765711983195
 10
36.41264901329217
 20
52.94501274911532
 10
36.55602166439304
 20
52.88765711983195
 10
36.61030172099701
 20
52.7538260565122
 10
36.55602166439304
 20
52.61617311397844
 10
36.41264901329217
 20
52.56261097659128
 10
36.26539647545149
 20
52.61617311397844
 10
36.21111545990371
 20
52.7538260565122
 10
36.21111545990371
 20
52.7538260565122
 10
36.26539647545149
 20
52.88765711983195
  0
LWPOLYLINE
  5
D7
100
AcDbEntity
  8
Gravação
  6
ByLayer
 62
  256
370
   -1
100
AcDbPolyline
 90
   57
 70
    0
 43
0
 10
15.98252413576761
 20
37.96218281979388
 10
16.09817896814428
 20
37.94537379182603
 10
16.29206245068744
 20
37.99572030668711
 10
16.43151710933847
 20
38.13668955156774
 10
16.51655893747287
 20
38.35821288798266
 10
16.5437973394822
 20
38.63678990439384
 10
16.46216210033177
 20
39.07312858147981
 10
16.22746099821336
 20
39.41212158184602
 10
15.86350227696746
 20
39.63029092038903
 10
15.38389629915434
 20
39.71084418131462
 10
14.84646332603117
 20
39.61686745342315
 10
14.43488895886104
 20
39.35506707124109
 10
14.17638045465884
 20
38.9489359708283
 10
14.08454144193205
 20
38.42534351255104
 10
14.16957485250039
 20
37.92523568424679
 10
14.41448056995173
 20
37.54595816263524
 10
14.79204207794849
 20
37.30429671864112
 10
15.28185267109458
 20
37.21703546197167
 10
15.50974817105452
 20
37.23384365933084
 10
15.67642523833937
 20
37.26738114622407
 10
15.72061661839091
 20
37.16332747376048
 10
15.61857299033115
 20
37.04249633645907
 10
15.26141987124371
 20
36.99888938047188
 10
14.66956565003786
 20
37.09958241019406
 10
14.21376707430854
 20
37.38488237330544
 10
13.91784080546222
 20
37.83128221339851
 10
13.81579633564586
 20
38.42536760020294
 10
13.92464556586406
 20
39.04294509245851
 10
14.24098190713291
 20
39.51619934196152
 10
14.7341906716969
 20
39.82163824326082
 10
15.38046529922882
 20
39.92903760750948
 10
15.97912512259311
 20
39.83506087961801
 10
16.42811809616398
 20
39.57326049743595
 10
16.71384059143393
 20
39.16377539915124
 10
16.8124860480758
 20
38.63346746965195
 10
16.63220535228349
 20
37.95882882192195
 10
16.40855903967
 20
37.78261352808207
 10
16.09817896814428
 20
37.72387454306298
 10
15.88728610986631
 20
37.75741286056491
 10
15.707005414074
 20
37.85475106180647
 10
15.53693775118071
 20
37.77084297240027
 10
15.30223749081893
 20
37.74063539572708
 10
15.03011778229982
 20
37.78424235171427
 10
14.82263151300579
 20
37.91514295810966
 10
14.68997488070377
 20
38.1265968254306
 10
14.64232724802853
 20
38.41188931306381
 10
14.69672408516963
 20
38.73410484859222
 10
14.85658713272997
 20
38.97576629258636
 10
15.10149200842472
 20
39.12680500656096
 10
15.424633951852
 20
39.18048143164211
 10
15.65593604079588
 20
39.15360376518896
 10
15.84641209259849
 20
39.08644905296869
 10
15.98587432705897
 20
38.92197939655005
 10
15.98266050033777
 20
38.87163288168895
 10
15.97944667361656
 20
38.82128719743655
 10
15.89748988344267
 20
38.00578977578108
 10
15.98252413576761
 20
37.96218281979388
  0
LWPOLYLINE
  5
D8
100
AcDbEntity
  8
Gravação
  6
ByLayer
 62
  256
370
   -1
100
AcDbPolyline
 90
   10
 70
    0
 43
0
 10
15.03011778229982
 20
38.07627439822139
 10
15.3396485214102
 20
37.96215873214202
 10
15.63217661883861
 20
38.06285093125551
 10
15.71721002940696
 20
38.89523628870397
 10
15.58455339710494
 20
38.93884324469115
 10
15.40768013205319
 20
38.95898135227039
 10
15.05392518438363
 20
38.81465894012651
 10
14.9212685520816
 20
38.41188931306381
 10
14.9212685520816
 20
38.41191257010701
 10
15.03011778229982
 20
38.07627439822139
  0
LWPOLYLINE
  5
D9
100
AcDbEntity
  8
Gravação
  6
ByLayer
 62
  256
370
   -1
100
AcDbPolyline
 90
    9
 70
    0
 43
0
 10
17.53359031259972
 20
37.73394401215694
 10
17.45878424479269
 20
37.72387454306298
 10
17.3125248257398
 20
37.84470568036438
 10
17.3125248257398
 20
39.91561497115229
 10
17.36354621889138
 20
39.92901435046629
 10
17.43835144494181
 20
39.93908298895155
 10
17.58461170575129
 20
39.81825268225883
 10
17.58461170575129
 20
37.74734339147095
 10
17.53359031259972
 20
37.73394401215694
  0
LWPOLYLINE
  5
DA
100
AcDbEntity
  8
Gravação
  6
ByLayer
 62
  256
370
   -1
100
AcDbPolyline
 90
   10
 70
    0
 43
0
 10
18.91798699795641
 20
37.94204388160597
 10
19.05404264343293
 20
37.99912995534096
 10
19.05404264343293
 20
38.48580684120117
 10
18.63226450268644
 20
38.44219988521398
 10
18.3703494095003
 20
38.36164579367971
 10
18.28531515717534
 20
38.18039950303194
 10
18.38395219625115
 20
37.98237657815503
 10
18.68328589583803
 20
37.91522186593475
 10
18.68328589583803
 20
37.91516621515284
 10
18.91798699795641
 20
37.94204388160597
  0
LWPOLYLINE
  5
DB
100
AcDbEntity
  8
Gravação
  6
ByLayer
 62
  256
370
   -1
100
AcDbPolyline
 90
   25
 70
    0
 43
0
 10
19.14947343159699
 20
39.20402918787519
 10
19.32294852523085
 20
38.79119009171853
 10
19.32294852523085
 20
37.99572030668711
 10
19.29233552098857
 20
37.88160464060773
 10
19.20729369285417
 20
37.8111200181674
 10
18.98960280822718
 20
37.73056675724182
 10
18.68347108229132
 20
37.69361962169474
 10
18.18685488698678
 20
37.81780392625939
 10
18.01338063510952
 20
38.17693503420484
 10
18.15964847172846
 20
38.50922003882721
 10
18.5712228388986
 20
38.65019675918602
 10
19.05422782988622
 20
38.69721336382706
 10
19.05422782988622
 20
38.79119839780538
 10
18.95218336006987
 20
39.03621383967145
 10
18.67666548013285
 20
39.113437190377
 10
18.40795320235432
 20
39.07316014460986
 10
18.18345671556888
 20
38.98253741459032
 10
18.1324344806607
 20
39.03621383967145
 10
18.11202609175139
 20
39.10336855189173
 10
18.13580908289363
 20
39.18059190259727
 10
18.21061430894406
 20
39.23767797633227
 10
18.42150800897862
 20
39.30816259877259
 10
18.68001567142422
 20
39.33504026522571
 10
18.68007206911681
 20
39.33492896366187
 10
19.14947343159699
 20
39.20402918787519
  0
LWPOLYLINE
  5
DC
100
AcDbEntity
  8
Gravação
  6
ByLayer
 62
  256
370
   -1
100
AcDbPolyline
 90
   21
 70
    0
 43
0
 10
20.81278785182179
 20
39.28458244880077
 10
21.04748895394019
 20
39.13354456543486
 10
21.20395298832602
 20
38.87845134838798
 10
21.26180439457762
 20
38.51595876709244
 10
21.20395298832602
 20
38.15011301853363
 10
21.04068335178172
 20
37.89502810757361
 10
20.79237946291249
 20
37.74398939359901
 10
20.4726365326597
 20
37.69697361956665
 10
20.16991223746438
 20
37.73724983472511
 10
19.9522213528374
 20
37.82451939748141
 10
19.85357589619554
 20
37.90842748688762
 10
19.82633749418622
 20
38.02254232235832
 10
19.82633749418622
 20
39.91555932037035
 10
19.87735972909438
 20
39.92895869968437
 10
19.9556195242553
 20
39.93902816877831
 10
20.09848161364689
 20
39.8181970314769
 10
20.09848161364689
 20
39.21739617345045
 10
20.27535487869864
 20
39.29795026498473
 10
20.52025975439338
 20
39.33489740053182
 10
20.52025975439338
 20
39.33492896366187
 10
20.81278785182179
 20
39.28458244880077
  0
LWPOLYLINE
  5
DD
100
AcDbEntity
  8
Gravação
  6
ByLayer
 62
  256
370
   -1
100
AcDbPolyline
 90
   15
 70
    0
 43
0
 10
20.26175125019117
 20
39.06979867125977
 10
20.09848161364689
 20
38.97246047001819
 10
20.09848161364689
 20
38.02259797314024
 10
20.24474103269976
 20
37.95211335069992
 10
20.4726365326597
 20
37.91857586380669
 10
20.68013121951977
 20
37.95211335069992
 10
20.84340085606406
 20
38.06287501890738
 10
20.94884349729831
 20
38.24747530742709
 10
20.98628651464061
 20
38.51599116083116
 10
20.94884349729831
 20
38.78450618362656
 10
20.84340085606406
 20
38.96910647214627
 10
20.68013121951977
 20
39.07651414248179
 10
20.47944213481814
 20
39.11346127802887
 10
20.47944213481814
 20
39.11340562724693
 10
20.26175125019117
 20
39.06979867125977
  0
LWPOLYLINE
  5
DE
100
AcDbEntity
  8
Gravação
  6
ByLayer
 62
  256
370
   -1
100
AcDbPolyline
 90
   35
 70
    0
 43
0
 10
23.58497265990024
 20
39.0362055335846
 10
23.32986316887256
 20
39.11342971489881
 10
22.93529144338437
 20
38.9590370030523
 10
22.95569983229367
 20
38.81471376029974
 10
22.95569983229367
 20
37.747374954601
 10
22.90130299515256
 20
37.73397557528698
 10
22.82987237133507
 20
37.72390610619304
 10
22.68361211052559
 20
37.84473724349445
 10
22.68361211052559
 20
38.79459974037239
 10
22.58836650881483
 20
39.03626118436652
 10
22.32985800461263
 20
39.11348536568075
 10
22.12237173531862
 20
39.07994704817884
 10
21.95910125701772
 20
39.00272369747329
 10
21.95910125701772
 20
37.74742229929607
 10
21.90807986386615
 20
37.73402291998206
 10
21.83327379605912
 20
37.72395428149679
 10
21.68701437700624
 20
37.84478458818951
 10
21.68701437700624
 20
38.98932431815929
 10
21.71425277901558
 20
39.10008598636675
 10
21.81629640707533
 20
39.19406271425824
 10
22.04759007845317
 20
39.29140174610848
 10
22.33331257372312
 20
39.33500870209566
 10
22.62923968432606
 20
39.28466218723457
 10
22.82652975585316
 20
39.15376241144789
 10
23.04761965365464
 20
39.28130818936264
 10
23.35035236641601
 20
39.33498461444378
 10
23.78914072465392
 20
39.20408400804843
 10
23.9524103611982
 20
38.80802237672959
 10
23.9524103611982
 20
37.74739904225287
 10
23.8980143658137
 20
37.73399966293887
 10
23.82658374199621
 20
37.72393019384491
 10
23.68031506362067
 20
37.84476133114632
 10
23.68031506362067
 20
38.79462299741557
 10
23.68021068580154
 20
38.79454408959046
 10
23.58497265990024
 20
39.0362055335846
  0
LWPOLYLINE
  5
DF
100
AcDbEntity
  8
Gravação
  6
ByLayer
 62
  256
370
   -1
100
AcDbPolyline
 90
   10
 70
    0
 43
0
 10
25.25849085370141
 20
37.94204388160597
 10
25.39454649917794
 20
37.99912995534096
 10
25.39454649917794
 20
38.48580684120117
 10
24.97276835843145
 20
38.44219988521398
 10
24.71085326524528
 20
38.36164579367971
 10
24.62581985467695
 20
38.18039950303194
 10
24.7244644695622
 20
37.98237657815503
 10
25.02379059333961
 20
37.91522186593475
 10
25.02379059333961
 20
37.91516621515284
 10
25.25849085370141
 20
37.94204388160597
  0
LWPOLYLINE
  5
E0
100
AcDbEntity
  8
Gravação
  6
ByLayer
 62
  256
370
   -1
100
AcDbPolyline
 90
   25
 70
    0
 43
0
 10
25.48997812909858
 20
39.20402918787519
 10
25.66345238097583
 20
38.79119009171853
 10
25.66345238097583
 20
37.99572030668711
 10
25.63283937673355
 20
37.88160464060773
 10
25.5478051244086
 20
37.8111200181674
 10
25.33011423978164
 20
37.73056675724182
 10
25.02398335560238
 20
37.69361962169474
 10
24.52736716029783
 20
37.81780392625939
 10
24.35389290842058
 20
38.176942509683
 10
24.50016074503951
 20
38.50922751430538
 10
24.91173511220966
 20
38.65019675918602
 10
25.39474010319727
 20
38.69721336382706
 10
25.39474010319727
 20
38.79119009171853
 10
25.29269563338091
 20
39.0362055335846
 10
25.01717775344391
 20
39.11342971489881
 10
24.74846463390876
 20
39.07315266913169
 10
24.52396898887994
 20
38.98252910850346
 10
24.47294675397176
 20
39.0362055335846
 10
24.45253752330584
 20
39.10336024580486
 10
24.47632135620468
 20
39.1805844271191
 10
24.55112658225509
 20
39.23766967024541
 10
24.76201186472361
 20
39.30815429268573
 10
25.02052036892582
 20
39.33503195913887
 10
25.02057676661841
 20
39.33492896366187
 10
25.48997812909858
 20
39.20402918787519
  0
LWPOLYLINE
  5
E1
100
AcDbEntity
  8
Gravação
  6
ByLayer
 62
  256
370
   -1
100
AcDbPolyline
 90
   23
 70
    0
 43
0
 10
26.38797165204976
 20
37.73394401215694
 10
26.31316642599933
 20
37.72387454306298
 10
26.16690616518985
 20
37.84470568036438
 10
26.16690616518985
 20
39.91561497115229
 10
26.21792755834144
 20
39.92901435046629
 10
26.29618819525896
 20
39.93908298895155
 10
26.43904944289392
 20
39.81825268225883
 10
26.43904944289392
 20
38.60994380107076
 10
27.18396952706771
 20
39.32149802121781
 10
27.30982055721127
 20
39.28122097545067
 10
27.35746818988652
 20
39.19059824543112
 10
27.32685518564427
 20
39.10669015602492
 10
27.2452199464938
 20
39.02613606449066
 10
26.69758235803769
 20
38.55288264559633
 10
27.45610522896234
 20
37.88160464060773
 10
27.40845759628708
 20
37.76412750117824
 10
27.30641396822731
 20
37.72052137579975
 10
27.21116752475997
 20
37.74398939359901
 10
27.12613411419161
 20
37.81780392625939
 10
26.43904186708447
 20
38.4991588758201
 10
26.43904186708447
 20
37.74731930381907
 10
26.43899304520133
 20
37.74734339147095
 10
26.38797165204976
 20
37.73394401215694
  0
LWPOLYLINE
  5
E2
100
AcDbEntity
  8
Gravação
  6
ByLayer
 62
  256
370
   -1
100
AcDbPolyline
 90
   25
 70
    0
 43
0
 10
28.16863031015923
 20
38.02844379706858
 10
28.5614966367639
 20
37.91852021302476
 10
28.8200051409661
 20
37.96553681766581
 10
29.00368400817631
 20
38.06622901677931
 10
29.08531840557015
 20
37.93869071434273
 10
29.04112618376201
 20
37.8480671537145
 10
28.92547976895138
 20
37.77084297240027
 10
28.75540368849204
 20
37.71716737792781
 10
28.547917419198
 20
37.69702843973991
 10
28.19416499679826
 20
37.74989252952665
 10
27.92205118057542
 20
37.90848313766955
 10
27.75112408418751
 20
38.16860402908958
 10
27.69414810480603
 20
38.52605979931643
 10
27.74854494194712
 20
38.86506027516083
 10
27.90500897633297
 20
39.12014518612085
 10
28.14651568060981
 20
39.27789106523062
 10
28.44923997580514
 20
39.33497630835693
 10
28.7315642996572
 20
39.28463062410452
 10
28.95265419745868
 20
39.14030738135196
 10
29.09892203407761
 20
38.92213804280897
 10
29.15331887121872
 20
38.64691502426973
 10
29.11933042298693
 20
38.53951482941236
 10
29.02408482127617
 20
38.50256769386527
 10
27.97644801771651
 20
38.35821288798266
 10
28.16863031015923
 20
38.02844379706858
  0
LWPOLYLINE
  5
E3
100
AcDbEntity
  8
Gravação
  6
ByLayer
 62
  256
370
   -1
100
AcDbPolyline
 90
    7
 70
    0
 43
0
 10
28.10229904786007
 20
38.97243638236631
 10
27.9594378002251
 20
38.56631275743168
 10
28.89484235376755
 20
38.69385189047697
 10
28.76218572146551
 20
38.99592848781747
 10
28.44584938019668
 20
39.11675962511889
 10
28.44584938019668
 20
39.11675962511889
 10
28.10229904786007
 20
38.97243638236631
  0
LWPOLYLINE
  5
E4
100
AcDbEntity
  8
Gravação
  6
ByLayer
 62
  256
370
   -1
100
AcDbPolyline
 90
   17
 70
    0
 43
0
 10
29.76901248125942
 20
37.73394401215694
 10
29.69420725520897
 20
37.72387454306298
 10
29.54793857683343
 20
37.84470568036438
 10
29.54793857683343
 20
38.98252910850346
 10
29.57517697884278
 20
39.10336024580486
 10
29.67382243548463
 20
39.19398380643312
 10
29.91192170902092
 20
39.29132200767468
 10
30.25547204135751
 20
39.33492896366187
 10
30.52758333231057
 20
39.20067519000326
 10
30.51737871697761
 20
39.13693012643684
 10
30.49014031496827
 20
39.0899135217958
 10
30.40170031541597
 20
39.1033129011098
 10
30.29285024344115
 20
39.10965542903205
 10
30.01733236350415
 20
39.07611794213883
 10
29.8200507095431
 20
39.00230340947844
 10
29.82003387441097
 20
37.74734339147095
 10
29.76901248125942
 20
37.73394401215694
  0
LWPOLYLINE
  5
E5
100
AcDbEntity
  8
Gravação
  6
ByLayer
 62
  256
370
   -1
100
AcDbPolyline
 90
   10
 70
    0
 43
0
 10
30.52416074995111
 20
38.01585924487502
 10
30.66362298441158
 20
38.06953483934748
 10
30.79967862988812
 20
38.01585924487502
 10
30.84732626256336
 20
37.88160464060773
 10
30.79967862988812
 20
37.75070486482105
 10
30.66362298441158
 20
37.69702843973991
 10
30.52416074995111
 20
37.75070486482105
 10
30.47651311727584
 20
37.88160464060773
 10
30.47651311727584
 20
37.88160464060773
 10
30.52416074995111
 20
38.01585924487502
  0
LWPOLYLINE
  5
E6
100
AcDbEntity
  8
Gravação
  6
ByLayer
 62
  256
370
   -1
100
AcDbPolyline
 90
   17
 70
    0
 43
0
 10
31.03095714964703
 20
37.30768227964309
 10
31.11259154704088
 20
37.37816690208341
 10
31.16361378194906
 20
37.48221309906884
 10
31.18402217085837
 20
37.63996728426547
 10
31.18402217085837
 20
39.28460653645265
 10
31.23504440576654
 20
39.29800591576667
 10
31.31330504268406
 20
39.30807538486062
 10
31.45616629031905
 20
39.18389024968727
 10
31.45616629031905
 20
37.58959751236118
 10
31.41534867074382
 20
37.34793523775835
 10
31.31330504268406
 20
37.19353505043365
 10
31.1908521839584
 20
37.10962779163614
 10
31.07860394056568
 20
37.08615894322818
 10
30.95955009501451
 20
37.13650545808927
 10
30.92210707767223
 20
37.25062029355998
 10
30.92210707767223
 20
37.25059703651678
 10
31.03095714964703
 20
37.30768227964309
  0
LWPOLYLINE
  5
E7
100
AcDbEntity
  8
Gravação
  6
ByLayer
 62
  256
370
   -1
100
AcDbPolyline
 90
   10
 70
    0
 43
0
 10
31.1908521839584
 20
39.89880594318443
 10
31.32010222727647
 20
39.94915245804551
 10
31.44596167498608
 20
39.89880594318443
 10
31.49360930766133
 20
39.78132963436363
 10
31.44596167498608
 20
39.66049849706221
 10
31.32010222727647
 20
39.61348189242117
 10
31.1908521839584
 20
39.66049849706221
 10
31.14320455128313
 20
39.78132963436363
 10
31.14320455128313
 20
39.78132963436363
 10
31.1908521839584
 20
39.89880594318443
  0
LWPOLYLINE
  5
E8
100
AcDbEntity
  8
Gravação
  6
ByLayer
 62
  256
370
   -1
100
AcDbPolyline
 90
   10
 70
    0
 43
0
 10
32.77930498044019
 20
37.94204388160597
 10
32.91536820172617
 20
37.99912995534096
 10
32.91536820172617
 20
38.48580684120117
 10
32.49358164341362
 20
38.44219988521398
 10
32.23167496779354
 20
38.36164579367971
 10
32.14663313965912
 20
38.18039950303194
 10
32.24527775454438
 20
37.98237657815503
 10
32.5446038783218
 20
37.91522186593475
 10
32.5446038783218
 20
37.91516621515284
 10
32.77930498044019
 20
37.94204388160597
  0
LWPOLYLINE
  5
E9
100
AcDbEntity
  8
Gravação
  6
ByLayer
 62
  256
370
   -1
100
AcDbPolyline
 90
   25
 70
    0
 43
0
 10
33.01079141408077
 20
39.20402918787519
 10
33.18426566595801
 20
38.79119009171853
 10
33.18426566595801
 20
37.99572030668711
 10
33.15365266171573
 20
37.88160464060773
 10
33.06861925114741
 20
37.8111200181674
 10
32.85091994895436
 20
37.73056675724182
 10
32.5447890647751
 20
37.69361962169474
 10
32.0481812870366
 20
37.81780392625939
 10
31.87470619340276
 20
38.176942509683
 10
32.02096645421224
 20
38.50922751430538
 10
32.43254082138237
 20
38.65019675918602
 10
32.91555338817945
 20
38.69721336382706
 10
32.91555338817945
 20
38.79119009171853
 10
32.81350976011971
 20
39.0362055335846
 10
32.5379910384261
 20
39.11342971489881
 10
32.26927034308148
 20
39.07315266913169
 10
32.04477385629606
 20
38.98252910850346
 10
31.99375246314447
 20
39.0362055335846
 10
31.97334323247855
 20
39.10336024580486
 10
31.9971270653774
 20
39.1805844271191
 10
32.07193229142784
 20
39.23766967024541
 10
32.28282514970579
 20
39.30815429268573
 10
32.54133365390799
 20
39.33503195913887
 10
32.54139005160059
 20
39.33492896366187
 10
33.01079141408077
 20
39.20402918787519
  0
LWPOLYLINE
  5
EA
100
AcDbEntity
  8
Gravação
  6
ByLayer
 62
  256
370
   -1
100
AcDbPolyline
 90
   23
 70
    0
 43
0
 10
33.83054113524655
 20
37.80105137968215
 10
33.68428087443704
 20
38.1467590206617
 10
33.68428087443704
 20
39.74105258859649
 10
33.73530226758863
 20
39.7544511373018
 10
33.81356290450615
 20
39.76452060639575
 10
33.95642415214112
 20
39.64369029970304
 10
33.95642415214112
 20
39.25770478234764
 10
34.51425793836412
 20
39.25770478234764
 10
34.53466716903005
 20
39.21068900831528
 10
34.54487178436301
 20
39.15027385496892
 10
34.44282731454665
 20
39.03614988280268
 10
33.9562633766294
 20
39.03614988280268
 10
33.9562633766294
 20
38.16348831019576
 10
34.03106860267984
 20
37.97217255045403
 10
34.24875948730681
 20
37.91849612537288
 10
34.37801794819094
 20
37.9386350635608
 10
34.49707179374211
 20
37.98565083759316
 10
34.53451481108439
 20
37.93530515334074
 10
34.55154859776078
 20
37.86482053090043
 10
34.46310775645186
 20
37.74398939359901
 10
34.21820288075712
 20
37.69697361956665
 10
34.21830725857626
 20
37.69699687660984
 10
33.83054113524655
 20
37.80105137968215
  0
LWPOLYLINE
  5
EB
100
AcDbEntity
  8
Gravação
  6
ByLayer
 62
  256
370
   -1
100
AcDbPolyline
 90
   10
 70
    0
 43
0
 10
35.76257540905934
 20
37.94204388160597
 10
35.89863105453588
 20
37.99912995534096
 10
35.89863105453588
 20
38.48580684120117
 10
35.4768529137894
 20
38.44219988521398
 10
35.21493782060323
 20
38.36164579367971
 10
35.12990356827828
 20
38.18039950303194
 10
35.22854060735409
 20
37.98237657815503
 10
35.52787514869757
 20
37.91522186593475
 10
35.52787514869757
 20
37.91516621515284
 10
35.76257540905934
 20
37.94204388160597
  0
LWPOLYLINE
  5
EC
100
AcDbEntity
  8
Gravação
  6
ByLayer
 62
  256
370
   -1
100
AcDbPolyline
 90
   25
 70
    0
 43
0
 10
35.99406268445654
 20
39.20402918787519
 10
36.16753693633378
 20
38.79119009171853
 10
36.16753693633378
 20
37.99572030668711
 10
36.13692393209151
 20
37.88160464060773
 10
36.05188967976655
 20
37.8111200181674
 10
35.83419879513959
 20
37.73056675724182
 10
35.5280679109603
 20
37.69361962169474
 10
35.03145171565578
 20
37.81780392625939
 10
34.85797746377853
 20
38.176942509683
 10
35.00423772458802
 20
38.50922751430538
 10
35.4158196675676
 20
38.65019675918602
 10
35.89882381679862
 20
38.69721336382706
 10
35.89882381679862
 20
38.79119009171853
 10
35.79678018873886
 20
39.0362055335846
 10
35.52126230880185
 20
39.11342971489881
 10
35.25254918926669
 20
39.07315266913169
 10
35.02805270248128
 20
38.98252910850346
 10
34.9770313093297
 20
39.0362055335846
 10
34.95662207866378
 20
39.10336024580486
 10
34.98040591156264
 20
39.1805844271191
 10
35.05521113761305
 20
39.23766967024541
 10
35.26610399589102
 20
39.30815429268573
 10
35.52461250009322
 20
39.33503195913887
 10
35.52466048021975
 20
39.33492896366187
 10
35.99406268445654
 20
39.20402918787519
  0
LWPOLYLINE
  5
ED
100
AcDbEntity
  8
Gravação
  6
ByLayer
 62
  256
370
   -1
100
AcDbPolyline
 90
    9
 70
    0
 43
0
 10
36.90225240517459
 20
37.73394401215694
 10
36.82744717912418
 20
37.72387454306298
 10
36.68118691831469
 20
37.84470568036438
 10
36.68118691831469
 20
39.28460653645265
 10
36.73220831146627
 20
39.29800591576667
 10
36.81046894838378
 20
39.30807538486062
 10
36.95333019601878
 20
39.18389024968727
 10
36.95327379832618
 20
37.74734339147095
 10
36.90225240517459
 20
37.73394401215694
  0
LWPOLYLINE
  5
EE
100
AcDbEntity
  8
Gravação
  6
ByLayer
 62
  256
370
   -1
100
AcDbPolyline
 90
   10
 70
    0
 43
0
 10
36.68799252047314
 20
39.89880594318443
 10
36.81725013960067
 20
39.94915245804551
 10
36.94310201150084
 20
39.89880594318443
 10
36.9907488024195
 20
39.78132963436363
 10
36.94310201150084
 20
39.66049849706221
 10
36.81725013960067
 20
39.61348189242117
 10
36.68799252047314
 20
39.66049849706221
 10
36.64034488779791
 20
39.78132963436363
 10
36.64034488779791
 20
39.78132963436363
 10
36.68799252047314
 20
39.89880594318443
  0
LWPOLYLINE
  5
EF
100
AcDbEntity
  8
Gravação
  6
ByLayer
 62
  256
370
   -1
100
AcDbPolyline
 90
   10
 70
    0
 43
0
 10
7.065261778841281
 20
23.43664015369231
 10
7.417884604337836
 20
23.30663759329398
 10
7.751137723394153
 20
23.42134790561681
 10
7.848009270247296
 20
24.36961584659429
 10
7.696884517217462
 20
24.41929365266841
 10
7.495387403694567
 20
24.44223533663542
 10
7.092383587210469
 20
24.27782072340857
 10
6.941258834180637
 20
23.81897852787336
 10
6.941258834180637
 20
23.81900502270327
 10
7.065261778841281
 20
23.43664015369231
  0
LWPOLYLINE
  5
F0
100
AcDbEntity
  8
Gravação
  6
ByLayer
 62
  256
370
   -1
100
AcDbPolyline
 90
    9
 70
    0
 43
0
 10
9.917261421024035
 20
23.04665139737584
 10
9.832041041716254
 20
23.03518008227038
 10
9.665419756379167
 20
23.17283302480412
 10
9.665419756379167
 20
25.532049067655
 10
9.72354421880117
 20
25.54731387465666
 10
9.808763639165118
 20
25.55878424351819
 10
9.975385883446039
 20
25.42113224722838
 10
9.975385883446039
 20
23.06191620437752
 10
9.917261421024035
 20
23.04665139737584
  0
LWPOLYLINE
  5
F1
100
AcDbEntity
  8
Gravação
  6
ByLayer
 62
  256
370
   -1
100
AcDbPolyline
 90
   10
 70
    0
 43
0
 10
11.49439031039247
 20
23.2837224041569
 10
11.64938727861145
 20
23.34875585664951
 10
11.64938727861145
 20
23.90318666726666
 10
11.16889025220893
 20
23.85350886119254
 10
10.87051200239459
 20
23.76174023283672
 10
10.77363949659762
 20
23.55526129215806
 10
10.88600853470185
 20
23.32967011667781
 10
11.22701471463095
 20
23.25316629532364
 10
11.22701471463095
 20
23.25310289698065
 10
11.49439031039247
 20
23.2837224041569
  0
LWPOLYLINE
  5
F2
100
AcDbEntity
  8
Gravação
  6
ByLayer
 62
  256
370
   -1
100
AcDbPolyline
 90
   25
 70
    0
 43
0
 10
11.75810369966381
 20
24.72139811194209
 10
11.95572955694139
 20
24.25108460130143
 10
11.95572955694139
 20
23.34487152533649
 10
11.9208546876994
 20
23.21486896493817
 10
11.82397355140796
 20
23.13457165168779
 10
11.57597629258114
 20
23.04280396957589
 10
11.22722568227375
 20
23.0007131472942
 10
10.66147183669788
 20
23.14218607655405
 10
10.46384693836414
 20
23.55131450874597
 10
10.63047781313953
 20
23.9298593910308
 10
11.09935052242395
 20
24.09046253372687
 10
11.64959824625424
 20
24.14402467111402
 10
11.64959824625424
 20
24.25109406374067
 10
11.53334740352257
 20
24.53021993553427
 10
11.21947262140096
 20
24.61819412574995
 10
10.91335090015215
 20
24.57230981157205
 10
10.65760058045257
 20
24.46907081435468
 10
10.59947515908672
 20
24.53021993553427
 10
10.57622556590668
 20
24.60672375688842
 10
10.60331956490477
 20
24.69469794710411
 10
10.68853898526872
 20
24.75973139959674
 10
10.92879277266103
 20
24.8400287128471
 10
11.22328921784792
 20
24.87064822002333
 10
11.22335346708459
 20
24.87052142333736
 10
11.75810369966381
 20
24.72139811194209
  0
LWPOLYLINE
  5
F3
100
AcDbEntity
  8
Gravação
  6
ByLayer
 62
  256
370
   -1
100
AcDbPolyline
 90
   21
 70
    0
 43
0
 10
13.65298054528683
 20
24.81316579405398
 10
13.92035614104836
 20
24.64110079869172
 10
14.09860270244738
 20
24.35049414935341
 10
14.16450803511328
 20
23.93753626799613
 10
14.09860270244738
 20
23.52075839991272
 10
13.91260308017556
 20
23.23016121301367
 10
13.6297309521068
 20
23.05809527140746
 10
13.26547422005383
 20
23.00453408026424
 10
12.9206054143739
 20
23.05041744819822
 10
12.67260815554707
 20
23.14983645868946
 10
12.56022952800455
 20
23.24542602001533
 10
12.52919906458063
 20
23.37542763416974
 10
12.52919906458063
 20
25.53198566931201
 10
12.58732448594645
 20
25.54725047631367
 10
12.6764794117924
 20
25.55872179141913
 10
12.839230399828
 20
25.42106884888539
 10
12.839230399828
 20
24.73662601543067
 10
13.0407275133509
 20
24.8283946437865
 10
13.31972742623051
 20
24.87048546606821
 10
13.31972742623051
 20
24.87052142333736
 10
13.65298054528683
 20
24.81316579405398
  0
LWPOLYLINE
  5
F4
100
AcDbEntity
  8
Gravação
  6
ByLayer
 62
  256
370
   -1
100
AcDbPolyline
 90
   15
 70
    0
 43
0
 10
13.02523002209979
 20
24.56848036240668
 10
12.839230399828
 20
24.4575909830539
 10
12.839230399828
 20
23.37549103251273
 10
13.00585168516508
 20
23.29519371926235
 10
13.26547422005383
 20
23.2569872282937
 10
13.501855792257
 20
23.29519371926235
 10
13.68785541452881
 20
23.42137534669063
 10
13.80797751350581
 20
23.63167522033932
 10
13.85063325299167
 20
23.93757317150922
 10
13.80797751350581
 20
24.24347017643517
 10
13.68785541452881
 20
24.45377005008385
 10
13.501855792257
 20
24.57613074454208
 10
13.27322728092661
 20
24.6182215668238
 10
13.27322728092661
 20
24.6181581684808
 10
13.02523002209979
 20
24.56848036240668
  0
LWPOLYLINE
  5
F5
100
AcDbEntity
  8
Gravação
  6
ByLayer
 62
  256
370
   -1
100
AcDbPolyline
 90
   35
 70
    0
 43
0
 10
16.8111019087184
 20
24.53021047309501
 10
16.52047671977685
 20
24.61818560955463
 10
16.07097371693266
 20
24.44229873497839
 10
16.0942233101127
 20
24.27788317550762
 10
16.0942233101127
 20
23.06195216164668
 10
16.0322534829288
 20
23.04668735464499
 10
15.95087846838292
 20
23.03521603953955
 10
15.78425622410201
 20
23.17286898207328
 10
15.78425622410201
 20
24.25496893261445
 10
15.67575077069244
 20
24.53027387143801
 10
15.38125336656173
 20
24.61824900789762
 10
15.14488138379686
 20
24.58004157068503
 10
14.95888080258122
 20
24.49206738046935
 10
14.95888080258122
 20
23.06200609755041
 10
14.90075634015921
 20
23.04674129054874
 10
14.81553596085144
 20
23.0352709216872
 10
14.64891467551435
 20
23.17292291797702
 10
14.64891467551435
 20
24.47680257346768
 10
14.67994513893827
 20
24.60298420089595
 10
14.79619502272613
 20
24.71004413108336
 10
15.05968881386019
 20
24.82093445668005
 10
15.38518887204372
 20
24.87061226275418
 10
15.7223142062892
 20
24.8132566334708
 10
15.94707050243044
 20
24.66413332207554
 10
16.19893997644639
 20
24.80943570050076
 10
16.54381837156464
 20
24.87058482168034
 10
17.04369373490188
 20
24.72146056404115
 10
17.22969335717368
 20
24.27026023444604
 10
17.22969335717368
 20
23.06197960272051
 10
17.16772448893361
 20
23.04671479571884
 10
17.08634947438773
 20
23.03524348061337
 10
16.91971764066851
 20
23.17289642314711
 10
16.91971764066851
 20
24.25499542744437
 10
16.91959873163347
 20
24.25490553427147
 10
16.8111019087184
 20
24.53021047309501
  0
LWPOLYLINE
  5
F6
100
AcDbEntity
  8
Gravação
  6
ByLayer
 62
  256
370
   -1
100
AcDbPolyline
 90
   10
 70
    0
 43
0
 10
18.71760307145954
 20
23.2837224041569
 10
18.87260003967852
 20
23.34875585664951
 10
18.87260003967852
 20
23.90318666726666
 10
18.39210301327601
 20
23.85350886119254
 10
18.09372476346164
 20
23.76174023283672
 10
17.99685321660852
 20
23.55526129215806
 10
18.10923088520722
 20
23.32967011667781
 10
18.45022843464183
 20
23.25316629532364
 10
18.45022843464183
 20
23.25310289698065
 10
18.71760307145954
 20
23.2837224041569
  0
LWPOLYLINE
  5
F7
100
AcDbEntity
  8
Gravação
  6
ByLayer
 62
  256
370
   -1
100
AcDbPolyline
 90
   25
 70
    0
 43
0
 10
18.9813174196747
 20
24.72139811194209
 10
19.17894231800844
 20
24.25108460130143
 10
19.17894231800844
 20
23.34487152533649
 10
19.14406744876646
 20
23.21486896493817
 10
19.04719494296949
 20
23.13457165168779
 10
18.79919768414269
 20
23.04280396957589
 10
18.45044803277913
 20
23.0007131472942
 10
17.88469418720325
 20
23.14218607655405
 10
17.68706928886951
 20
23.55132302494129
 10
17.8537001636449
 20
23.92986790722613
 10
18.32257287292932
 20
24.09046253372687
 10
18.87282059675961
 20
24.14402467111402
 10
18.87282059675961
 20
24.25108460130143
 10
18.75656975402793
 20
24.53021047309501
 10
18.44269497190632
 20
24.61818560955463
 10
18.13657229171369
 20
24.57230129537672
 10
17.88082293095794
 20
24.46906135191543
 10
17.82269750959209
 20
24.53021047309501
 10
17.79944695746822
 20
24.60671429444918
 10
17.82654191541014
 20
24.6946894309088
 10
17.91176133577407
 20
24.75972193715748
 10
18.1520055337281
 20
24.84001925040785
 10
18.44650293785881
 20
24.87063875758409
 10
18.44656718709549
 20
24.87052142333736
 10
18.9813174196747
 20
24.72139811194209
  0
LWPOLYLINE
  5
F8
100
AcDbEntity
  8
Gravação
  6
ByLayer
 62
  256
370
   -1
100
AcDbPolyline
 90
   23
 70
    0
 43
0
 10
20.00432732896753
 20
23.04665139737584
 10
19.91910790860357
 20
23.03518008227038
 10
19.75248566432266
 20
23.17283302480412
 10
19.75248566432266
 20
25.532049067655
 10
19.81061012674469
 20
25.54731387465666
 10
19.89976601153445
 20
25.55878424351819
 10
20.06251604062621
 20
25.42113224722838
 10
20.06251604062621
 20
24.04460566062278
 10
20.91114201427085
 20
24.85522065906652
 10
21.0545137064279
 20
24.80933634488861
 10
21.10879472197567
 20
24.70609734767125
 10
21.07391985273372
 20
24.61050778634539
 10
20.98091956212588
 20
24.51873915798957
 10
20.357041254128
 20
23.97960059544792
 10
21.22116376007992
 20
23.21486896493817
 10
21.16688274453212
 20
23.08103695537446
 10
21.05063286074426
 20
23.03136009554427
 10
20.94212644839089
 20
23.05809527140746
 10
20.84525490153774
 20
23.14218607655405
 10
20.06250741013172
 20
23.91839753836459
 10
20.06250741013172
 20
23.06188876330369
 10
20.06245179138953
 20
23.06191620437752
 10
20.00432732896753
 20
23.04665139737584
  0
LWPOLYLINE
  5
F9
100
AcDbEntity
  8
Gravação
  6
ByLayer
 62
  256
370
   -1
100
AcDbPolyline
 90
   25
 70
    0
 43
0
 10
22.03288478039259
 20
23.38215069725843
 10
22.48044496303535
 20
23.2569238299507
 10
22.77494236716607
 20
23.31048596733787
 10
22.98419254156175
 20
23.42519627966067
 10
23.07719187322574
 20
23.27990241743077
 10
23.02684732210378
 20
23.17666247396949
 10
22.89510090600866
 20
23.08868733750987
 10
22.70134726392024
 20
23.02753916257422
 10
22.46497528115536
 20
23.0045965323633
 10
22.06197434150276
 20
23.06482022698402
 10
21.75197752823332
 20
23.24548941835832
 10
21.55725439393184
 20
23.541823682176
 10
21.4923463628501
 20
23.94904354037074
 10
21.55431619003398
 20
24.33523880479099
 10
21.73256275143301
 20
24.62583599169005
 10
22.00769140806732
 20
24.8055428529924
 10
22.35256021374727
 20
24.8705753592411
 10
22.67418901568548
 20
24.81322067620166
 10
22.92605848970143
 20
24.64880511673087
 10
23.09268936447683
 20
24.40026279484436
 10
23.15465919166071
 20
24.08672392397831
 10
23.11593895765688
 20
23.9643717457154
 10
23.00743350424731
 20
23.9222809234337
 10
21.8139473554172
 20
23.75782940669376
 10
22.03288478039259
 20
23.38215069725843
  0
LWPOLYLINE
  5
FA
100
AcDbEntity
  8
Gravação
  6
ByLayer
 62
  256
370
   -1
100
AcDbPolyline
 90
    7
 70
    0
 43
0
 10
21.95731904757425
 20
24.45756354198006
 10
21.79456901848248
 20
23.99490041347482
 10
22.86019822739559
 20
24.14019522194865
 10
22.70907347436575
 20
24.4843261589171
 10
22.34869758799642
 20
24.62197910145085
 10
22.34869758799642
 20
24.62197910145085
 10
21.95731904757425
 20
24.45756354198006
  0
LWPOLYLINE
  5
FB
100
AcDbEntity
  8
Gravação
  6
ByLayer
 62
  256
370
   -1
100
AcDbPolyline
 90
   17
 70
    0
 43
0
 10
23.85606810838645
 20
23.04665139737584
 10
23.77084868802249
 20
23.03518008227038
 10
23.60421685430326
 20
23.17283302480412
 10
23.60421685430326
 20
24.46906135191543
 10
23.6352473177272
 20
24.60671429444918
 10
23.74762594526972
 20
24.70995423791046
 10
24.01887279727656
 20
24.82084361726324
 10
24.41025133769871
 20
24.87052142333736
 10
24.7202452741367
 20
24.71757717897204
 10
24.70861999807477
 20
24.64495768893092
 10
24.67758953465083
 20
24.59139555154376
 10
24.57683714211407
 20
24.60666035854543
 10
24.4528332385096
 20
24.61388587715842
 10
24.138958456388
 20
24.57567938618977
 10
23.91421174968507
 20
24.49158858104319
 10
23.91419257080845
 20
23.06191620437752
 10
23.85606810838645
 20
23.04665139737584
  0
LWPOLYLINE
  5
FC
100
AcDbEntity
  8
Gravação
  6
ByLayer
 62
  256
370
   -1
100
AcDbPolyline
 90
   10
 70
    0
 43
0
 10
24.71634620852029
 20
23.3678141555474
 10
24.87522402242289
 20
23.42896233048306
 10
25.03022099064188
 20
23.3678141555474
 10
25.08450200618967
 20
23.21486896493817
 10
25.03022099064188
 20
23.06574565354289
 10
24.87522402242289
 20
23.0045965323633
 10
24.71634620852029
 20
23.06574565354289
 10
24.66206519297248
 20
23.21486896493817
 10
24.66206519297248
 20
23.21486896493817
 10
24.71634620852029
 20
23.3678141555474
  0
LWPOLYLINE
  5
FD
100
AcDbEntity
  8
Gravação
  6
ByLayer
 62
  256
370
   -1
100
AcDbPolyline
 90
   17
 70
    0
 43
0
 10
25.29369752078699
 20
22.5610465849036
 10
25.38669685245097
 20
22.64134389815396
 10
25.44482227381681
 20
22.75987514344683
 10
25.46807186699686
 20
22.93959146718844
 10
25.46807186699686
 20
24.81319323512782
 10
25.52619728836268
 20
24.8284580421295
 10
25.61535317315245
 20
24.83992935723495
 10
25.77810320224423
 20
24.69845548173117
 10
25.77810320224423
 20
22.88220934307517
 10
25.73160305694032
 20
22.60690345800769
 10
25.61535317315245
 20
22.43100806723612
 10
25.47585273724074
 20
22.33541945215418
 10
25.34797757739094
 20
22.30868333004704
 10
25.21234935666837
 20
22.36603895933042
 10
25.16969361718252
 20
22.49604057348483
 10
25.16969361718252
 20
22.49601407865492
 10
25.29369752078699
 20
22.5610465849036
  0
LWPOLYLINE
  5
FE
100
AcDbEntity
  8
Gravação
  6
ByLayer
 62
  256
370
   -1
100
AcDbPolyline
 90
   10
 70
    0
 43
0
 10
25.47585273724074
 20
25.51289992934027
 10
25.62309664458694
 20
25.57025555862365
 10
25.76647792618229
 20
25.51289992934027
 10
25.82075894173008
 20
25.37906886602052
 10
25.76647792618229
 20
25.24141592348677
 10
25.62309664458694
 20
25.18785378609962
 10
25.47585273724074
 20
25.24141592348677
 10
25.42157172169293
 20
25.37906886602052
 10
25.42157172169293
 20
25.37906886602052
 10
25.47585273724074
 20
25.51289992934027
  0
LWPOLYLINE
  5
FF
100
AcDbEntity
  8
Gravação
  6
ByLayer
 62
  256
370
   -1
100
AcDbPolyline
 90
   10
 70
    0
 43
0
 10
27.28544591326316
 20
23.2837224041569
 10
27.44045151197662
 20
23.34875585664951
 10
27.44045151197662
 20
23.90318666726666
 10
26.95994489613579
 20
23.85350886119254
 10
26.66157623575977
 20
23.76174023283672
 10
26.56469509946831
 20
23.55526129215806
 10
26.67707276806701
 20
23.32967011667781
 10
27.01807031750162
 20
23.25316629532364
 10
27.01807031750162
 20
23.25310289698065
 10
27.28544591326316
 20
23.2837224041569
  0
LWPOLYLINE
  5
100
100
AcDbEntity
  8
Gravação
  6
ByLayer
 62
  256
370
   -1
100
AcDbPolyline
 90
   25
 70
    0
 43
0
 10
27.54915930253448
 20
24.72139811194209
 10
27.74678420086823
 20
24.25108460130143
 10
27.74678420086823
 20
23.34487152533649
 10
27.71190933162624
 20
23.21486896493817
 10
27.61503778477312
 20
23.13457165168779
 10
27.36703093650799
 20
23.04280396957589
 10
27.01828128514443
 20
23.0007131472942
 10
26.45253702900687
 20
23.14218607655405
 10
26.25491117172929
 20
23.55132302494129
 10
26.42153341601021
 20
23.92986790722613
 10
26.89040612529463
 20
24.09046253372687
 10
27.4406624796194
 20
24.14402467111402
 10
27.4406624796194
 20
24.25108460130143
 10
27.32441259583157
 20
24.53021047309501
 10
27.01053685476614
 20
24.61818560955463
 10
26.70440554407899
 20
24.57230129537672
 10
26.44865522437942
 20
24.46906135191543
 10
26.39053076195739
 20
24.53021047309501
 10
26.36728020983351
 20
24.60671429444918
 10
26.39437516777545
 20
24.6946894309088
 10
26.4795945881394
 20
24.75972193715748
 10
26.71984741658788
 20
24.84001925040785
 10
27.0143448207186
 20
24.87063875758409
 10
27.01440906995527
 20
24.87052142333736
 10
27.54915930253448
 20
24.72139811194209
  0
LWPOLYLINE
  5
101
100
AcDbEntity
  8
Gravação
  6
ByLayer
 62
  256
370
   -1
100
AcDbPolyline
 90
   23
 70
    0
 43
0
 10
28.48303250591417
 20
23.12310128282627
 10
28.31641026163323
 20
23.51693746694267
 10
28.31641026163323
 20
25.33318455184261
 10
28.37453472405526
 20
25.34844841260034
 10
28.46369060884503
 20
25.3599197277058
 10
28.62644063793678
 20
25.22226773141599
 10
28.62644063793678
 20
24.78254628687774
 10
29.26193463255829
 20
24.78254628687774
 10
29.28518518468216
 20
24.72898509573451
 10
29.2968104607441
 20
24.6601590975896
 10
29.1805596180124
 20
24.53014707475204
 10
28.62625747966509
 20
24.53014707475204
 10
28.62625747966509
 20
23.53599576584056
 10
28.71147690002904
 20
23.31804551005646
 10
28.95947415885583
 20
23.25689638887687
 10
29.10672765564035
 20
23.27983901908778
 10
29.24235587636293
 20
23.33340021023102
 10
29.28501161584877
 20
23.27604552719157
 10
29.30441680321076
 20
23.19574821394121
 10
29.20366345173015
 20
23.05809527140746
 10
28.92466353885052
 20
23.00453408026424
 10
28.92478244788555
 20
23.00456057509414
 10
28.48303250591417
 20
23.12310128282627
  0
LWPOLYLINE
  5
102
100
AcDbEntity
  8
Gravação
  6
ByLayer
 62
  256
370
   -1
100
AcDbPolyline
 90
   10
 70
    0
 43
0
 10
30.68403970328048
 20
23.2837224041569
 10
30.83903667149949
 20
23.34875585664951
 10
30.83903667149949
 20
23.90318666726666
 10
30.35853964509697
 20
23.85350886119254
 10
30.06016139528261
 20
23.76174023283672
 10
29.96328888948563
 20
23.55526129215806
 10
30.07565792758988
 20
23.32967011667781
 10
30.41666506646279
 20
23.25316629532364
 10
30.41666506646279
 20
23.25310289698065
 10
30.68403970328048
 20
23.2837224041569
  0
LWPOLYLINE
  5
103
100
AcDbEntity
  8
Gravação
  6
ByLayer
 62
  256
370
   -1
100
AcDbPolyline
 90
   25
 70
    0
 43
0
 10
30.94775405149566
 20
24.72139811194209
 10
31.1453789498294
 20
24.25108460130143
 10
31.1453789498294
 20
23.34487152533649
 10
31.11050408058743
 20
23.21486896493817
 10
31.01363157479044
 20
23.13457165168779
 10
30.76563431596365
 20
23.04280396957589
 10
30.41688466460006
 20
23.0007131472942
 10
29.85113081902422
 20
23.14218607655405
 10
29.65350592069048
 20
23.55132302494129
 10
29.8201281649714
 20
23.92986790722613
 10
30.28900950475029
 20
24.09046253372687
 10
30.83925626963675
 20
24.14402467111402
 10
30.83925626963675
 20
24.25108460130143
 10
30.72300638584889
 20
24.53021047309501
 10
30.40913160372729
 20
24.61818560955463
 10
30.10300892353463
 20
24.57230129537672
 10
29.84725860383506
 20
24.46906135191543
 10
29.78913414141305
 20
24.53021047309501
 10
29.76588358928917
 20
24.60671429444918
 10
29.79297854723111
 20
24.6946894309088
 10
29.87819796759504
 20
24.75972193715748
 10
30.11845079604355
 20
24.84001925040785
 10
30.41294820017426
 20
24.87063875758409
 10
30.41300285997262
 20
24.87052142333736
 10
30.94775405149566
 20
24.72139811194209
  0
LWPOLYLINE
  5
104
100
AcDbEntity
  8
Gravação
  6
ByLayer
 62
  256
370
   -1
100
AcDbPolyline
 90
    9
 70
    0
 43
0
 10
31.9823796474121
 20
23.04665139737584
 10
31.89716022704815
 20
23.03518008227038
 10
31.73053798276724
 20
23.17283302480412
 10
31.73053798276724
 20
24.81319323512782
 10
31.78866244518925
 20
24.8284580421295
 10
31.87781832997901
 20
24.83992935723495
 10
32.0405683590708
 20
24.69845548173117
 10
32.04050410983412
 20
23.06191620437752
 10
31.9823796474121
 20
23.04665139737584
  0
LWPOLYLINE
  5
105
100
AcDbEntity
  8
Gravação
  6
ByLayer
 62
  256
370
   -1
100
AcDbPolyline
 90
   10
 70
    0
 43
0
 10
31.73829104364002
 20
25.51289992934027
 10
31.88554358148071
 20
25.57025555862365
 10
32.02891623258158
 20
25.51289992934027
 10
32.08319628918556
 20
25.37906886602052
 10
32.02891623258158
 20
25.24141592348677
 10
31.88554358148071
 20
25.18785378609962
 10
31.73829104364002
 20
25.24141592348677
 10
31.68401002809225
 20
25.37906886602052
 10
31.68401002809225
 20
25.37906886602052
 10
31.73829104364002
 20
25.51289992934027
  0
LWPOLYLINE
  5
106
100
AcDbEntity
  8
Gravação
  6
ByLayer
 62
  256
370
   -1
100
AcDbPolyline
 90
   56
 70
    1
 43
0
 10
8.15025973525079
 20
23.30666503436782
 10
8.282015740784212
 20
23.28751589605311
 10
8.502891191241817
 20
23.34487152533649
 10
8.661760374649964
 20
23.5054661518372
 10
8.758641510941402
 20
23.75782940669376
 10
8.789671974365319
 20
24.07518921052987
 10
8.696671683757511
 20
24.57227385430289
 10
8.429296087995979
 20
24.9584606025278
 10
8.014667954393786
 20
25.20700292441432
 10
7.468292445752638
 20
25.29877060652623
 10
6.856039413816687
 20
25.19171067633883
 10
6.387166704532282
 20
24.89346310730436
 10
6.092669300401557
 20
24.43079146260377
 10
5.988044692675654
 20
23.83430578697409
 10
6.084916239528786
 20
23.26457421208611
 10
6.363917111352242
 20
22.83249463348795
 10
6.794041777261699
 20
22.55718969466439
 10
7.352042561964783
 20
22.45778014661241
 10
7.61166509685353
 20
22.47692833868319
 10
7.801546523752789
 20
22.51513482965186
 10
7.851890115930924
 20
22.39659506816367
 10
7.735640232143057
 20
22.25894212562993
 10
7.328765159413656
 20
22.2092643195558
 10
6.654514490922706
 20
22.32397557812255
 10
6.13526079065074
 20
22.64899428028938
 10
5.798136415349113
 20
23.15754077672862
 10
5.68188557261742
 20
23.83433322804793
 10
5.805888517278055
 20
24.53788829630427
 10
6.166264403647393
 20
25.07702780508983
 10
6.728136444595807
 20
25.4249891374676
 10
7.464383790697916
 20
25.54734036948657
 10
8.146387520061637
 20
25.44028043929917
 10
8.657888159460809
 20
25.14203287026469
 10
8.983388217644336
 20
24.67554029259408
 10
9.09576684518688
 20
24.07140423482897
 10
8.890387927036528
 20
23.30284410139778
 10
8.635606140606154
 20
23.10209656017419
 10
8.282015740784212
 20
23.03518008227038
 10
8.041762912335713
 20
23.07338751948297
 10
7.836383994185358
 20
23.18427689883575
 10
7.642639941535247
 20
23.08868733750987
 10
7.375265304717562
 20
23.05427433843743
 10
7.065261778841281
 20
23.10395214451155
 10
6.828889796076401
 20
23.25307640215076
 10
6.677765043046566
 20
23.49396834190186
 10
6.623484027498789
 20
23.81897852787336
 10
6.685453854682692
 20
24.18605209505273
 10
6.867572631270868
 20
24.46135703387629
 10
7.146572544150498
 20
24.63342297548247
 10
7.514701491392612
 20
24.69457209666206
 10
7.778204871964975
 20
24.66395258948582
 10
7.995198517795135
 20
24.58744876813166
 10
8.15407633169775
 20
24.40008206225464
 10
8.150415084151396
 20
24.34272643297127
 10
8.146753836605042
 20
24.28537174993182
 10
8.053387229453827
 20
23.35634284044195
  0
LINE
  5
107
100
AcDbEntity
  8
Corte
  6
ByLayer
 62
    1
370
   -1
100
AcDbLine
 10
26.59304147600292
 20
45.10727392525003
 11
26.95778893438556
 21
45.16042823706027
  0
LWPOLYLINE
  5
108
100
AcDbEntity
  8
Corte
  6
ByLayer
 62
  256
370
   -1
100
AcDbPolyline
 90
   93
 70
    0
 43
0
 10
25.96776873857148
 20
36.38988183801234
 10
26.33250905159698
 20
36.33671720513065
 10
26.69725730390817
 20
36.12409995788966
 10
26.90568102043293
 20
35.91148271064868
 10
26.95779687367128
 20
35.69885752412197
 10
26.95779687367128
 20
35.53939617654837
 10
26.90568102043293
 20
35.32677892930739
 10
26.90568102043293
 20
35.16730964244807
 10
26.80147313181342
 20
34.58260586110677
 10
26.69725730390817
 20
34.05105877336145
 10
26.48883279345484
 20
32.88165914996458
 10
26.38461696554959
 20
32.08433018209658
 10
26.07197742111958
 20
31.60593899401864
 10
25.3946
 20
31.4465
 10
33.1063560557948
 20
31.44210239832
 10
33.80693836293825
 20
31.30459328486288
 10
34.40086406037815
 20
30.91300159133709
 10
34.79771145746791
 20
30.3269416312755
 10
34.93706613391734
 20
29.635637583119
 10
34.93706613391734
 20
23.31301072991552
 10
34.79771145746791
 20
22.62170668175902
 10
34.40086406037815
 20
22.03564766794134
 10
33.80693836293825
 20
21.64405502817164
 10
33.1063560557948
 20
21.50654591471453
 10
33.97913920119761
 20
21.57298900295949
 10
34.93007985092223
 20
21.77231985555148
 10
35.94615598853405
 20
22.18427113109875
 10
36.91012738790751
 20
22.78226607066046
 10
37.79593572545922
 20
23.5795855113856
 10
38.5775353804628
 20
24.58952537506602
 10
39.17675773359652
 20
25.83866400849968
 10
39.51544766232427
 20
27.35357578884173
 10
39.77597929280165
 20
29.1076871328656
 10
40.14072754511285
 20
31.49965021861245
 10
40.50547500349548
 20
33.89162203757357
 10
40.66179080606763
 20
35.64573338159745
 10
40.47941906169775
 20
37.14735559157622
 10
39.93230303465951
 20
38.35662630784863
 10
39.20280970575139
 20
39.31341265364738
 10
38.36910372465232
 20
40.05758175220512
 10
38.00436341162684
 20
40.3233548991135
 10
37.6396159532442
 20
40.58912883995045
 10
39.09859943534616
 20
41.3332979385082
 10
40.45336708954287
 20
42.39639687757028
 10
41.04282094552921
 20
43.09737467396523
 10
41.50852197931557
 20
43.92459584648989
 10
41.85047098483053
 20
44.87805960121567
 10
42.06866716814552
 20
45.95776752599971
 10
42.27709088467027
 20
47.3397923359233
 10
42.48551460119506
 20
48.98759108668381
 10
42.6418391369815
 20
50.63538983744432
 10
42.74605496488672
 20
52.07057134096384
 10
42.56368083873114
 20
53.82468030320202
 10
42.01655925419291
 20
55.25986339457871
 10
41.24799034883817
 20
56.4425565579817
 10
40.297043347685
 20
57.33289663982121
 10
39.26794201792431
 20
58.01062026834829
 10
38.16067921419898
 20
58.44914830283638
 10
37.14460387051574
 20
58.72821340189375
 10
36.28484750511892
 20
58.82123483693671
 10
36.98542981226237
 20
58.68372572347958
 10
37.57935550970229
 20
58.29213402995382
 10
37.97620290679205
 20
57.70607406989221
 10
38.11555758324145
 20
57.01477002173571
 10
38.11555758324145
 20
50.69214316853224
 10
37.97620290679205
 20
50.00083912037573
 10
37.57935550970229
 20
49.41478010655808
 10
36.98542981226237
 20
49.02318746678835
 10
36.28484750511892
 20
48.88567835333125
 10
26.95777305581413
 20
48.88127849342045
 10
27.32252130812532
 20
48.82811386053878
 10
27.68726162115081
 20
48.61548867401207
 10
27.89569327696129
 20
48.40287142677109
 10
27.94780913019963
 20
48.19025417953009
 10
27.79149253369891
 20
47.12715921011086
 10
27.68727670579367
 20
46.38298614191024
 10
27.58306881717416
 20
45.79828236056895
 10
27.21832135879151
 20
45.31989117249103
 10
26.9578
 20
45.1604
 10
36.04916575538998
 20
45.10727392525
 10
36.66413377123638
 20
44.98656904046877
 10
37.18547909210817
 20
44.64283160329114
 10
37.53382996236805
 20
44.1283907915104
 10
37.65615487408962
 20
43.52156718990561
 10
37.65615487408962
 20
37.97159361620025
 10
37.53382996236805
 20
37.36477001459546
 10
37.18547909210817
 20
36.85033003342342
 10
36.66413377123638
 20
36.50659176563709
 10
36.0492
 20
36.3859
 10
25.96776873857148
 20
36.38988183801234
 10
11.69059489805344
 20
36.38988183801234
 10
13.14957123479825
 20
45.10727392525003
 10
26.59304147600292
 20
45.10727392525003
  0
LWPOLYLINE
  5
109
100
AcDbEntity
  8
Corte
  6
ByLayer
 62
  256
370
   -1
100
AcDbPolyline
 90
    6
 70
    0
 43
0
 10
6.444828957442287
 20
21.50652464599639
 10
5.743923420543132
 20
21.64843027629669
 10
5.149997723103241
 20
22.04002291606639
 10
4.753150326013491
 20
22.62608192988407
 10
4.61379564956407
 20
23.31738597804057
 10
4.61379564956407
 20
29.64001283124405
  0
LWPOLYLINE
  5
10A
100
AcDbEntity
  8
Corte
  6
ByLayer
 62
  256
370
   -1
100
AcDbPolyline
 90
    4
 70
    0
 43
0
 10
4.721525619906611
 20
30.28269430249593
 10
5.149997723103241
 20
30.91737683946214
 10
5.743923420543132
 20
31.30896853298793
 10
6.444505727686606
 20
31.44647764644505
  0
LWPOLYLINE
  5
10B
100
AcDbEntity
  8
Corte
  6
ByLayer
 62
  256
370
   -1
100
AcDbPolyline
 90
    6
 70
    0
 43
0
 10
10.98700871287702
 20
48.88567835333125
 10
10.28642640573354
 20
49.02318746678835
 10
9.692500708293652
 20
49.41478010655808
 10
9.295653311203898
 20
50.00083912037573
 10
9.156298634754474
 20
50.69214316853224
 10
9.156298634754474
 20
57.01477002173571
  0
LWPOLYLINE
  5
10C
100
AcDbEntity
  8
Corte
  6
ByLayer
 62
  256
370
   -1
100
AcDbPolyline
 90
    4
 70
    0
 43
0
 10
9.260755082894748
 20
57.65659515136736
 10
9.692500708293652
 20
58.29213402995382
 10
10.28642640573354
 20
58.68372572347958
 10
10.98700871287702
 20
58.82123483693671
  0
LWPOLYLINE
  5
10D
100
AcDbEntity
  8
Corte
  6
ByLayer
 62
  256
370
   -1
100
AcDbPolyline
 90
    6
 70
    0
 43
0
 10
14.47339678037204
 20
36.38988183801234
 10
13.87284062322997
 20
36.50659176563709
 10
13.35149530235819
 20
36.85033003342342
 10
13.0031444320983
 20
37.36477001459546
 10
12.88081952037673
 20
37.97159361620025
 10
12.88387828059934
 20
43.5197569805023
  0
LWPOLYLINE
  5
10E
100
AcDbEntity
  8
Corte
  6
ByLayer
 62
  256
370
   -1
100
AcDbPolyline
 90
    4
 70
    0
 43
0
 10
12.98007484124901
 20
44.09453198918946
 10
13.35149530235819
 20
44.64283160329114
 10
13.87284062322997
 20
44.98656904046877
 10
14.48780863907638
 20
45.10727392525
  0
LWPOLYLINE
  5
10F
100
AcDbEntity
  8
Corte
  6
ByLayer
 62
  256
370
   -1
100
AcDbPolyline
 90
    4
 70
    0
 43
0
 10
33.1063560557948
 20
21.50654591471453
 10
3.249340695228916
 20
21.50652209685737
 10
4.916747893855625
 20
31.44647764644505
 10
25.3945975636641
 20
31.44647764644505
  0
LWPOLYLINE
  5
110
100
AcDbEntity
  8
Corte
  6
ByLayer
 62
  256
370
   -1
100
AcDbPolyline
 90
    4
 70
    0
 43
0
 10
26.95777305581413
 20
48.88127849342045
 10
7.834715651988093
 20
48.88127849342045
 10
9.45001573059076
 20
58.82123483693671
 10
36.28484750511892
 20
58.82123483693671
  0
ENDSEC
  0
SECTION
  2
OBJECTS
  0
DICTIONARY
  5
C
330
0
100
AcDbDictionary
281
    1
  3
ACAD_GROUP
350
D
  0
DICTIONARY
  5
D
330
C
100
AcDbDictionary
281
    1
  0
PLOTSETTINGS
  5
111
100
AcDbPlotSettings
  6
1x1
 40
0
 41
0
 42
0
 43
0
  0
ENDSEC
  0
EOF
