<?xml version="1.0" encoding="UTF-8" standalone="no"?>
<!-- Created with Inkscape (http://www.inkscape.org/) -->

<svg
   width="210mm"
   height="297mm"
   viewBox="0 0 210 297"
   version="1.1"
   id="svg1"
   inkscape:version="1.4 (e7c3feb100, 2024-10-09)"
   sodipodi:docname="troféus.svg"
   xmlns:inkscape="http://www.inkscape.org/namespaces/inkscape"
   xmlns:sodipodi="http://sodipodi.sourceforge.net/DTD/sodipodi-0.dtd"
   xmlns="http://www.w3.org/2000/svg"
   xmlns:svg="http://www.w3.org/2000/svg">
  <sodipodi:namedview
     id="namedview1"
     pagecolor="#ffffff"
     bordercolor="#000000"
     borderopacity="0.25"
     inkscape:showpageshadow="2"
     inkscape:pageopacity="0.0"
     inkscape:pagecheckerboard="0"
     inkscape:deskcolor="#d1d1d1"
     inkscape:document-units="mm"
     inkscape:zoom="0.25080401"
     inkscape:cx="-1263.9351"
     inkscape:cy="1335.7043"
     inkscape:window-width="1920"
     inkscape:window-height="1009"
     inkscape:window-x="0"
     inkscape:window-y="34"
     inkscape:window-maximized="1"
     inkscape:current-layer="layer1" />
  <defs
     id="defs1" />
  <g
     inkscape:label="Layer 1"
     inkscape:groupmode="layer"
     id="layer1">
    <path
       id="text1"
       style="font-weight:bold;font-size:284.9px;font-family:'Cross Boxed';-inkscape-font-specification:'Cross Boxed Bold';text-align:end;text-anchor:end;stroke-width:2.24331;fill:#000000"
       d="M 33.876485 173.25868 L 24.759729 226.53501 L 64.360413 226.53501 L 37.864872 373.25835 L 39.982572 373.25835 L 39.982572 379.2585 L 109.98295 379.2585 L 109.98295 373.25835 L 113.07837 373.25835 L 149.26066 173.25868 L 33.876485 173.25868 z " />
    <path
       id="text2"
       style="font-weight:bold;font-size:249.288px;font-family:'Cross Boxed';-inkscape-font-specification:'Cross Boxed Bold';text-align:end;text-anchor:end;stroke-width:1.9629;fill:#000000"
       d="M -375.63444 201.28642 L -383.36213 247.90321 L -291.87366 247.90321 C -291.37508 247.90321 -290.79331 247.98663 -290.12854 248.15281 C -289.46378 248.31901 -288.882 248.65107 -288.38343 249.14965 C -287.71866 249.48203 -287.38608 249.81462 -287.38608 250.14701 C -287.21989 250.47939 -287.137 250.81146 -287.137 251.14384 L -287.137 252.63988 C -287.137 253.30464 -287.30329 254.05271 -287.63567 254.88367 L -288.13435 257.37654 C -288.30054 258.0413 -288.46684 258.78885 -288.63303 259.61981 C -288.79922 260.45077 -289.29758 261.19884 -290.12854 261.8636 C -290.79331 262.36218 -291.79055 262.61136 -293.12009 262.61136 L -359.92893 262.61136 C -362.42181 262.61136 -365.24726 263.10972 -368.4049 264.10688 C -371.56255 264.93784 -374.63717 266.35056 -377.62863 268.34486 C -380.62008 270.33917 -383.27923 272.99831 -385.60592 276.32215 C -387.93261 279.64599 -389.51111 283.80075 -390.34207 288.78651 L -405.29981 376.28659 L -359.3884 376.28659 L -359.3884 382.28674 L -289.38802 382.28674 L -289.38802 376.28659 L -240.5202 376.28659 L -232.79251 329.6698 L -329.5158 329.6698 L -326.52477 312.2197 C -326.52477 311.55493 -326.1093 310.89028 -325.27834 310.22551 C -324.44738 309.56074 -323.36672 309.22815 -322.03719 309.22815 L -255.22835 309.22815 C -252.73547 309.22815 -249.91003 308.81268 -246.75238 307.98172 C -243.59473 306.98456 -240.52011 305.48895 -237.52865 303.49465 C -234.5372 301.50035 -231.87805 298.8412 -229.55136 295.51736 C -227.22468 292.19352 -225.64618 288.03877 -224.81522 283.05301 L -217.08701 238.43041 C -216.92081 237.59945 -216.83793 236.68561 -216.83793 235.68846 C -216.67173 234.69131 -216.58833 233.77695 -216.58833 232.94599 C -216.58833 226.96307 -217.75186 221.97737 -220.07856 217.98876 C -222.40524 213.83396 -225.23068 210.59305 -228.55452 208.26636 C -231.71217 205.77348 -235.11887 204.02868 -238.77509 203.03153 C -242.26512 201.86819 -245.25686 201.28642 -247.74974 201.28642 L -375.63444 201.28642 z " />
    <path
       id="text3"
       style="font-weight:bold;font-size:213.675px;font-family:'Cross Boxed';-inkscape-font-specification:'Cross Boxed Bold';text-align:end;text-anchor:end;stroke-width:1.68248"
       d="M -160.0476 217.95931 L -166.67148 257.91656 L -88.253011 257.91656 C -87.825664 257.91656 -87.326778 257.98753 -86.756978 258.12998 C -86.187178 258.27243 -85.688816 258.55736 -85.261462 258.98471 C -84.691662 259.26961 -84.406734 259.55454 -84.406734 259.83944 C -84.264288 260.12434 -84.192794 260.40927 -84.192794 260.69417 C -84.192794 261.40642 -84.406752 262.83106 -84.834098 264.96781 C -84.976552 266.10741 -85.119016 267.10465 -85.261462 267.95935 C -85.403916 268.81405 -85.54638 269.59735 -85.688826 270.3096 C -85.973726 271.02185 -86.472089 271.66268 -87.184342 272.23248 C -87.754142 272.80228 -88.608927 273.08721 -89.748527 273.08721 L -144.87694 273.08721 L -150.85953 308.13003 L -92.312712 308.13003 C -91.885358 308.13003 -91.386479 308.20152 -90.816679 308.34397 C -90.246879 308.48642 -89.74851 308.77134 -89.321163 309.1987 C -88.751363 309.4836 -88.466435 309.76801 -88.466435 310.05291 C -88.323981 310.33781 -88.253011 310.62274 -88.253011 310.90764 L -88.253011 311.54894 C -88.253011 311.83384 -88.323981 312.11877 -88.466435 312.40367 L -88.466435 313.04446 C -88.608881 313.7567 -88.751345 314.54052 -88.893799 315.39522 C -88.893799 316.10747 -89.036263 316.81928 -89.321163 317.53152 L -90.175891 322.23253 C -90.318338 323.65703 -90.460802 324.72525 -90.603255 325.4375 C -90.745702 326.14975 -91.173094 326.7911 -91.885347 327.3609 C -92.597594 327.78825 -93.523356 328.00168 -94.662956 328.00168 L -178.63716 328.00168 L -185.47498 367.95894 L -150.48435 367.95894 L -150.48435 373.95909 L -80.484493 373.95909 L -80.484493 367.95894 L -63.039046 367.95894 C -60.759846 367.95894 -58.26698 367.60303 -55.560433 366.89078 C -52.711433 366.03608 -50.005132 364.68294 -47.441032 362.83108 C -44.876932 360.97924 -42.597506 358.55735 -40.603206 355.56589 C -38.608906 352.57445 -37.32673 348.8709 -36.75693 344.45494 C -36.47203 342.888 -36.116131 340.53759 -35.688778 337.40369 C -35.118978 334.26979 -34.620608 331.06461 -34.193262 327.78826 C -33.623462 324.51191 -33.124582 321.30673 -32.697229 318.17283 C -32.269882 315.03893 -32.056441 312.68853 -32.056441 311.12158 C -32.056441 306.70563 -33.05369 303.07305 -35.04799 300.22405 C -36.899837 297.37505 -39.036281 295.09614 -41.457935 293.38674 C -41.885281 292.95939 -42.384167 292.60297 -42.953967 292.31807 C -43.381321 291.89073 -43.879683 291.53482 -44.449483 291.24992 C -40.31843 289.68297 -36.472416 287.26108 -32.911169 283.98473 C -29.349916 280.56593 -27.141984 275.79416 -26.287284 269.66881 C -26.002384 268.10186 -25.717456 266.24983 -25.432556 264.11308 C -25.147656 261.97633 -24.862728 259.76839 -24.577828 257.48919 C -24.292928 255.35244 -24.07897 253.14451 -23.936523 250.86531 C -23.651623 248.58611 -23.509159 246.6631 -23.509159 245.09615 C -23.509159 239.96795 -24.506408 235.69403 -26.500708 232.27523 C -28.352555 228.71397 -30.702957 225.93619 -33.551957 223.94189 C -36.258511 221.80514 -39.178763 220.30952 -42.312663 219.45482 C -45.304109 218.45767 -47.868463 217.95931 -50.005216 217.95931 L -160.0476 217.95931 z " />
    <text
       xml:space="preserve"
       style="font-style:normal;font-variant:normal;font-weight:bold;font-stretch:normal;font-size:12.7px;font-family:'Cross Boxed';-inkscape-font-specification:'Cross Boxed Bold';text-align:end;writing-mode:lr-tb;direction:ltr;text-anchor:end;fill:#000000;stroke:none;stroke-width:0.1"
       x="199.48387"
       y="132.63834"
       id="text4"><tspan
         sodipodi:role="line"
         id="tspan4"
         style="stroke-width:0.1"
         x="199.48387"
         y="132.63834" /></text>
    <path
       d="m -421.32328,485.3016 2.14125,-12.52629 q 0.17843,-1.07062 0.67806,-1.78437 0.49962,-0.71375 1.142,-1.142 0.64237,-0.42825 1.32043,-0.60668 0.67806,-0.21413 1.21337,-0.21413 h 9.56424 q 0.2855,0 0.42825,-0.10706 0.17843,-0.14275 0.21412,-0.32119 0.0357,-0.17843 0.0714,-0.32118 0.0357,-0.17844 0.0714,-0.35688 0.0714,-0.17844 0.0714,-0.32118 0,-0.14275 0,-0.21413 0,-0.0714 -0.0357,-0.14275 0,-0.0714 -0.14275,-0.14275 -0.10706,-0.10706 -0.24981,-0.14275 -0.14275,-0.0357 -0.24982,-0.0357 h -13.09729 l 1.10632,-6.67355 h 18.30765 q 0.53531,0 1.28475,0.24982 0.78512,0.21412 1.46318,0.74943 0.71375,0.49963 1.21338,1.39181 0.49962,0.8565 0.49962,2.14125 0,0.17843 -0.0357,0.39256 0,0.21412 -0.0357,0.39256 l -1.10632,6.38805 q -0.17843,1.07063 -0.67806,1.78437 -0.49962,0.71375 -1.14199,1.142 -0.64238,0.42825 -1.32044,0.64238 -0.67806,0.17843 -1.21337,0.17843 h -9.56424 q -0.2855,0 -0.46393,0.14275 -0.17844,0.14275 -0.17844,0.2855 l -0.42825,2.49812 h 13.84673 l -1.10631,6.67355 z m 31.76185,-24.33883 q -0.0714,0.32119 -0.10707,0.64238 -0.0357,0.2855 -0.10706,0.53531 0,0.0714 -0.0357,0.14275 0,0.0357 0,0.10706 h 2.42674 q 0.17844,-0.71375 0.2855,-1.46319 0.14275,-0.74943 0.21413,-1.49887 0.0357,-0.0714 0.0357,-0.10706 0,-0.0714 0.0357,-0.14275 h -2.42675 q -0.0714,0.24981 -0.17843,0.74944 -0.0714,0.49962 -0.14275,1.03493 z m -2.31969,4.35387 q -0.21412,0 -0.49962,-0.0714 -0.24981,-0.10706 -0.53531,-0.2855 -0.42825,-0.39256 -0.571,-0.78512 -0.10706,-0.39256 -0.10706,-0.92787 0.0357,-0.0714 0.0357,-0.24981 0.0357,-0.17844 0.10707,-0.60669 0.0714,-0.39256 0.14275,-0.82081 0.0714,-0.42825 0.14275,-0.92788 0.17843,-0.92787 0.32118,-1.74868 0.14275,-0.8565 0.17844,-1.142 0.17844,-0.92787 0.74944,-1.21337 0.571,-0.2855 0.92787,-0.2855 h 6.2453 q 0.74944,0 1.21337,0.571 0.49963,0.571 0.49963,1.28475 0,0.0357 -0.0357,0.21412 0,0.17844 -0.0357,0.21413 0,0.14275 -0.0357,0.32118 0,0.14275 -0.0357,0.32119 -0.17844,1.142 -0.39256,2.31968 -0.17844,1.142 -0.42825,2.284 -0.14275,0.92787 -0.71375,1.24906 -0.571,0.2855 -0.96356,0.2855 z m 28.01467,12.7761 h -3.49737 q -0.32119,0 -0.46394,0.10706 -0.14275,0.10707 -0.21412,0.42825 h 15.77385 l -0.96356,6.67355 h -21.94778 l 4.24681,-25.05258 h 10.13523 z m 13.02594,2.67656 q 0,-0.17844 0,-0.39256 0.0357,-0.21413 0.0714,-0.39256 l 3.35462,-19.73516 h 9.70698 l -0.10706,0.67806 q -0.0357,0.24982 -0.17844,1.142 -0.14275,0.8565 -0.35687,2.10556 -0.21413,1.24906 -0.49963,2.78362 -0.24981,1.49887 -0.53531,3.03343 -0.24981,1.57025 -0.49962,3.03344 -0.24982,1.46318 -0.46394,2.60518 -0.17844,1.10631 -0.32119,1.82006 -0.10706,0.67806 -0.10706,0.71375 0,0.21412 0.24981,0.35687 0.24981,0.10706 0.42825,0.10706 h 6.70924 l 3.10481,-18.37903 h 9.70698 l -4.24681,25.05258 h -21.59091 q -0.53532,0 -1.28475,-0.21412 -0.74944,-0.24981 -1.46319,-0.74944 -0.67806,-0.53531 -1.17768,-1.39181 -0.49963,-0.89218 -0.49963,-2.17693 z m 43.00334,-13.84673 -1.9985,11.70548 h 7.03043 l 0.60668,-2.92637 h -4.17543 l 1.21337,-6.67355 h 13.77536 l -2.21263,12.52629 q -0.17843,1.07063 -0.67806,1.78437 -0.49962,0.71375 -1.142,1.142 -0.64237,0.42825 -1.32043,0.64238 -0.67806,0.17843 -1.21337,0.17843 h -17.45116 q -0.53531,0 -1.28475,-0.21412 -0.74943,-0.24981 -1.46318,-0.74944 -0.67806,-0.53531 -1.17769,-1.39181 -0.49962,-0.89218 -0.49962,-2.17693 0,-0.17844 0,-0.39256 0.0357,-0.21413 0.0714,-0.39256 l 2.71225,-15.98798 q 0.17843,-1.07062 0.67806,-1.78437 0.49962,-0.71375 1.142,-1.142 0.64237,-0.42825 1.32043,-0.60668 0.67806,-0.21413 1.21338,-0.21413 h 22.73289 l -1.142,6.67355 z m 17.8794,18.37903 6.8163,-25.05258 h 13.66829 q 0.53531,0 1.24906,0.21413 0.71375,0.17843 1.39181,0.67806 0.67806,0.46394 1.17769,1.24906 0.49962,0.74944 0.60668,1.89143 l 2.14125,21.0199 h -9.27873 l -0.35688,-3.60443 h -7.1018 l -0.99925,3.60443 z m 16.73741,-10.27798 -0.78512,-7.6728 q -0.0357,-0.14275 -0.21413,-0.2855 -0.17843,-0.14275 -0.46393,-0.14275 h -0.92788 l -2.21262,8.10105 z m 12.45494,10.27798 4.24681,-25.05258 h 20.77009 q 0.53531,0 1.28475,0.24982 0.78512,0.21412 1.46318,0.74943 0.71375,0.49963 1.17769,1.39181 0.49962,0.8565 0.49962,2.14125 0,0.17843 0,0.39256 0,0.21412 -0.0714,0.39256 l -1.57025,9.20736 q -0.14275,0.96356 -0.571,1.64162 -0.42825,0.67806 -0.99925,1.10631 -0.571,0.42825 -1.21337,0.67806 -0.60669,0.21413 -1.142,0.2855 l 1.39181,6.8163 h -8.88617 l -1.39181,-6.78061 h -4.13974 l -1.142,6.78061 z m 18.02216,-13.45416 q 0.2855,0 0.46394,-0.14275 0.17843,-0.14275 0.21412,-0.2855 0.0357,-0.21412 0.14275,-0.82081 0.10706,-0.64237 0.21413,-1.35612 0.17843,-0.71375 0.21412,-1.28475 0.0357,-0.14275 0.0357,-0.24981 0.0357,-0.10706 0.0357,-0.21413 0.0357,-0.0357 0.0357,-0.0714 v -0.0357 q 0,-0.21412 -0.24981,-0.32119 -0.24981,-0.14275 -0.42825,-0.14275 h -5.85274 l -0.8565,4.92487 z"
       id="text8"
       style="font-weight:bold;font-size:12.7px;font-family:'Cross Boxed';-inkscape-font-specification:'Cross Boxed Bold';text-align:center;text-anchor:middle;stroke-width:0.281003"
       aria-label="2º Lugar" />
    <g
       id="text5-1"
       style="font-weight:bold;font-size:12.7px;font-family:'Cross Boxed';-inkscape-font-specification:'Cross Boxed Bold';text-align:end;text-anchor:end;stroke-width:0.1"
       aria-label="3ª Gincana INtegradora&#10;do IFG - 2026"
       transform="matrix(0.90767326,0,0,0.90767326,-412.53411,230.29516)">
      <path
         style="text-align:center;text-anchor:middle"
         d="m -4.0977946,218.0506 0.4064,-2.3749 h 4.9910999 q 0.1016,0 0.1651,-0.0381 0.0635,-0.0508 0.0762,-0.1143 0.0127,-0.0635 0.0254,-0.1905 0.0254,-0.1397 0.0508,-0.2794 0.0254,-0.0635 0.0254,-0.127 0.0127,-0.0762 0.0254,-0.1397 0,-0.0254 0,-0.0381 0.0127,-0.0254 0.0127,-0.0508 v -0.0381 q 0,-0.0254 -0.0127,-0.0508 0,-0.0254 -0.0508,-0.0508 -0.0381,-0.0381 -0.0889,-0.0508 -0.0508,-0.0127 -0.0889,-0.0127 h -3.4797999 l 0.3555999,-2.0828 h 3.2766 q 0.1016,0 0.1524,-0.0508 0.0635,-0.0508 0.0889,-0.1143 0.0127,-0.0635 0.0254,-0.1397 0.0127,-0.0762 0.0254,-0.1778 0.0381,-0.1905 0.0381,-0.254 0,-0.0254 -0.0127,-0.0508 0,-0.0254 -0.0508,-0.0508 -0.0381,-0.0381 -0.0889,-0.0508 -0.0508,-0.0127 -0.0889,-0.0127 h -4.6608999 l 0.3937,-2.3749 h 6.5404999 q 0.1905,0 0.4572,0.0889 0.2794,0.0762 0.5206999,0.2667 0.254,0.1778 0.4191,0.4953 0.1778,0.3048 0.1778,0.762 0,0.1397 -0.0254,0.3429 -0.0127,0.2032 -0.0381,0.3937 -0.0254,0.2032 -0.0508,0.3937 -0.0254,0.1905 -0.0508,0.3302 -0.0762,0.5461 -0.3937,0.8509 -0.3174999,0.2921 -0.6857999,0.4318 0.0508,0.0254 0.0889,0.0635 0.0508,0.0254 0.0889,0.0635 0.2159,0.1524 0.3809999,0.4064 0.1778,0.254 0.1778,0.6477 0,0.1397 -0.0381,0.4191 -0.0381,0.2794 -0.0889,0.5715 -0.0381,0.2921 -0.0889,0.5715 -0.0381,0.2794 -0.0635,0.4191 -0.0508,0.3937 -0.2285999,0.6604 -0.1778,0.2667 -0.4064,0.4318 -0.2286,0.1651 -0.4826,0.2413 -0.2413,0.0635 -0.4445,0.0635 z M 7.8782968,208.7542 H 6.0494969 l 0.1777999,-1.0414 h 2.4257 q 0.2667,0 0.4318,0.2032 0.1778,0.2032 0.1778,0.4572 0,0.0381 -0.0127,0.0762 v 0.0762 q -0.0127,0.0889 -0.0381,0.2286 -0.0635,0.4064 -0.1397,0.8255 -0.0635,0.4064 -0.1524,0.8128 -0.0508,0.3302 -0.254,0.4445 -0.2032,0.1016 -0.3429,0.1016 h -1.9177 q -0.0762,0 -0.1778,-0.0254 -0.0889,-0.0381 -0.1904999,-0.1016 -0.0889,-0.0762 -0.1651,-0.2032 -0.0762,-0.127 -0.0762,-0.3302 0,-0.1016 0.0127,-0.2413 0.0254,-0.1397 0.0508,-0.2794 0.0254,-0.1397 0.0508,-0.254 0.0254,-0.127 0.0381,-0.2159 0.0635,-0.3302 0.2666999,-0.4318 0.2032,-0.1016 0.3302,-0.1016 z m -0.1905,1.143 0.0127,-0.1016 h -0.508 q -0.0127,0.0254 -0.0127,0.0508 0,0.0254 -0.0127,0.0508 z m 4.3688012,6.5405 q 0,-0.0635 0,-0.1397 0.0127,-0.0762 0.0254,-0.1397 l 0.9652,-5.6896 q 0.0635,-0.381 0.2413,-0.635 0.1778,-0.254 0.4064,-0.4064 0.2286,-0.1524 0.4699,-0.2159 0.2413,-0.0762 0.4318,-0.0762 h 8.089899 l -0.4064,2.3749 h -7.200899 q -0.1016,0 -0.1651,0.0381 -0.0508,0.0381 -0.0762,0.1524 h 1.4605 l -0.6858,3.9751 h 2.5019 l 0.2159,-1.0414 h -1.4859 l 0.4318,-2.3749 h 4.902199 l -0.7874,4.4577 q -0.0635,0.381 -0.2413,0.635 -0.1778,0.254 -0.4064,0.4064 -0.2286,0.1524 -0.469899,0.2286 -0.2413,0.0635 -0.4318,0.0635 h -6.2103 q -0.1905,0 -0.4572,-0.0762 -0.2667,-0.0889 -0.5207,-0.2667 -0.2413,-0.1905 -0.4191,-0.4953 -0.1778,-0.3175 -0.1778,-0.7747 z m 16.129003,-7.3025 -1.524,8.9154 h -3.5941 l 1.5113,-8.9154 z m 1.89231,0 h 7.9756 q 0.1905,0 0.4572,0.0889 0.2794,0.0762 0.5207,0.2667 0.254,0.1778 0.4191,0.4953 0.1778,0.3048 0.1778,0.762 0,0.0635 -0.0127,0.1397 0,0.0762 -0.0127,0.1397 l -1.1938,7.0231 h -3.4544 l 0.0381,-0.2413 q 0.0254,-0.1016 0.0762,-0.4064 0.0635,-0.3048 0.1397,-0.7493 0.0762,-0.4445 0.1651,-0.9779 0.0889,-0.5461 0.1778,-1.0922 0.1016,-0.5588 0.1905,-1.0795 0.0889,-0.5207 0.1524,-0.9144 0.0762,-0.4064 0.1143,-0.6477 0.0381,-0.254 0.0381,-0.2667 0,-0.0762 -0.0889,-0.1143 -0.0889,-0.0508 -0.1524,-0.0508 h -2.667 l -1.1176,6.5405 h -3.4544 z m 18.186408,8.9154 h -6.8072 q -0.1905,0 -0.4572,-0.0762 -0.2667,-0.0889 -0.5207,-0.2667 -0.2413,-0.1905 -0.4191,-0.4953 -0.1778,-0.3175 -0.1778,-0.7747 0,-0.0635 0,-0.1397 0.0127,-0.0762 0.0254,-0.1397 l 0.9652,-5.6896 q 0.0635,-0.381 0.2413,-0.635 0.1778,-0.254 0.4064,-0.4064 0.2286,-0.1524 0.4699,-0.2159 0.2413,-0.0762 0.4318,-0.0762 h 7.3533 l -0.3937,2.3749 h -5.0165 q -0.1016,0 -0.1651,0.0508 -0.0635,0.0381 -0.0762,0.1016 -0.0127,0.0635 -0.0508,0.2667 -0.0254,0.1905 -0.0762,0.4699 -0.0508,0.2794 -0.1143,0.6223 -0.0508,0.3302 -0.1143,0.6731 -0.0508,0.3556 -0.1143,0.6858 -0.0508,0.3175 -0.1016,0.5715 -0.0381,0.2413 -0.0635,0.3937 -0.0254,0.1524 -0.0254,0.1651 0,0.0762 0.0889,0.127 0.0889,0.0381 0.1524,0.0381 h 4.9657 z m 1.269982,0 2.4257,-8.9154 h 4.8641 q 0.1905,0 0.4445,0.0762 0.254,0.0635 0.4953,0.2413 0.2413,0.1651 0.4191,0.4445 0.1778,0.2667 0.2159,0.6731 l 0.762,7.4803 h -3.302 l -0.127,-1.2827 h -2.5273 l -0.3556,1.2827 z m 5.9563,-3.6576 -0.2794,-2.7305 q -0.0127,-0.0508 -0.0762,-0.1016 -0.0635,-0.0508 -0.1651,-0.0508 h -0.3302 l -0.7874,2.8829 z m 5.943611,-5.2578 h 7.975599 q 0.1905,0 0.4572,0.0889 0.2794,0.0762 0.5207,0.2667 0.254,0.1778 0.4191,0.4953 0.1778,0.3048 0.1778,0.762 0,0.0635 -0.0127,0.1397 0,0.0762 -0.0127,0.1397 l -1.1938,7.0231 h -3.4544 l 0.0381,-0.2413 q 0.0254,-0.1016 0.0762,-0.4064 0.0635,-0.3048 0.1397,-0.7493 0.0762,-0.4445 0.1651,-0.9779 0.0889,-0.5461 0.1778,-1.0922 0.1016,-0.5588 0.1905,-1.0795 0.0889,-0.5207 0.1524,-0.9144 0.0762,-0.4064 0.1143,-0.6477 0.0381,-0.254 0.0381,-0.2667 0,-0.0762 -0.0889,-0.1143 -0.0889,-0.0508 -0.1524,-0.0508 h -2.667 l -1.117599,6.5405 h -3.4544 z m 9.804404,8.9154 2.4257,-8.9154 h 4.8641 q 0.1905,0 0.4445,0.0762 0.254,0.0635 0.4953,0.2413 0.2413,0.1651 0.4191,0.4445 0.1778,0.2667 0.2159,0.6731 l 0.762,7.4803 h -3.302 l -0.127,-1.2827 h -2.5273 l -0.3556,1.2827 z m 5.9563,-3.6576 -0.2794,-2.7305 q -0.0127,-0.0508 -0.0762,-0.1016 -0.0635,-0.0508 -0.1651,-0.0508 h -0.3302 l -0.7874,2.8829 z m 10.185408,3.6576 h -3.5941 l 1.5113,-8.9154 h 3.6068 l -0.4064,2.3749 h -1.2446 q -0.1016,0 -0.1524,0.0381 -0.0508,0.0254 -0.0889,0.1524 h 1.4478 z m 3.416314,-8.9154 h 7.9756 q 0.1905,0 0.4572,0.0889 0.2794,0.0762 0.5207,0.2667 0.254002,0.1778 0.419102,0.4953 0.1778,0.3048 0.1778,0.762 0,0.0635 -0.0127,0.1397 0,0.0762 -0.0127,0.1397 l -1.193802,7.0231 h -3.4544 l 0.0381,-0.2413 q 0.0254,-0.1016 0.0762,-0.4064 0.0635,-0.3048 0.1397,-0.7493 0.0762,-0.4445 0.1651,-0.9779 0.0889,-0.5461 0.1778,-1.0922 0.1016,-0.5588 0.1905,-1.0795 0.0889,-0.5207 0.1524,-0.9144 0.0762,-0.4064 0.1143,-0.6477 0.0381,-0.254 0.0381,-0.2667 0,-0.0762 -0.0889,-0.1143 -0.0889,-0.0508 -0.1524,-0.0508 h -3.9116 q -0.1143,0 -0.1651,0.0381 -0.0508,0.0381 -0.0762,0.1524 h 1.4478 l -1.0795,6.35 h -3.4544 z m 10.058412,2.3749 0.4064,-2.3749 h 9.2075 l -0.4064,2.3749 h -2.8321 l -1.1049,6.5405 h -3.4544 l 1.1176,-6.5405 z m 13.09369,3.1242 q -0.0254,0.0889 -0.0381,0.2032 -0.0127,0.1016 -0.0381,0.2032 -0.0127,0.0889 -0.0254,0.1778 -0.0127,0.0762 -0.0254,0.1397 0,0.0254 -0.0127,0.0889 0,0.0508 -0.0127,0.0635 0,0.0762 0.0889,0.127 0.0889,0.0381 0.1524,0.0381 h 4.6736 l -0.4064,2.3749 h -6.5151 q -0.1905,0 -0.4572,-0.0762 -0.2667,-0.0889 -0.5207,-0.2667 -0.2413,-0.1905 -0.4191,-0.4953 -0.1778,-0.3175 -0.1778,-0.7747 0,-0.0635 0,-0.1397 0.0127,-0.0762 0.0254,-0.1397 l 0.9652,-5.6896 q 0.0635,-0.381 0.2413,-0.635 0.1778,-0.254 0.4064,-0.4064 0.2286,-0.1524 0.4699,-0.2159 0.2413,-0.0762 0.4318,-0.0762 h 7.0739 l -0.4064,2.3749 h -4.7244 q -0.1016,0 -0.1651,0.0508 -0.0635,0.0381 -0.0762,0.1016 l -0.1016,0.5969 h 4.0894 l -0.4318,2.3749 z m 10.40131,-3.1242 -0.7112,4.1656 h 2.5019 l 0.2159,-1.0414 h -1.4859 l 0.4318,-2.3749 h 4.9022 l -0.7874,4.4577 q -0.0635,0.381 -0.2413,0.635 -0.1778,0.254 -0.4064,0.4064 -0.2286,0.1524 -0.4699,0.2286 -0.2413,0.0635 -0.4318,0.0635 h -6.2103 q -0.1905,0 -0.4572,-0.0762 -0.2667,-0.0889 -0.5207,-0.2667 -0.2413,-0.1905 -0.4191,-0.4953 -0.1778,-0.3175 -0.1778,-0.7747 0,-0.0635 0,-0.1397 0.0127,-0.0762 0.0254,-0.1397 l 0.9652,-5.6896 q 0.0635,-0.381 0.2413,-0.635 0.1778,-0.254 0.4064,-0.4064 0.2286,-0.1524 0.4699,-0.2159 0.2413,-0.0762 0.4318,-0.0762 h 8.0899 l -0.4064,2.3749 z m 6.6167,6.5405 1.5113,-8.9154 h 7.3914 q 0.1905,0 0.4572,0.0889 0.2794,0.0762 0.5207,0.2667 0.254,0.1778 0.4191,0.4953 0.1778,0.3048 0.1778,0.762 0,0.0635 0,0.1397 0,0.0762 -0.0254,0.1397 l -0.5588,3.2766 q -0.0508,0.3429 -0.2032,0.5842 -0.1524,0.2413 -0.3556,0.3937 -0.2032,0.1524 -0.4318,0.2413 -0.2159,0.0762 -0.4064,0.1016 l 0.4953,2.4257 h -3.1623 l -0.4953,-2.413 h -1.4732 l -0.4064,2.413 z m 6.4135,-4.7879 q 0.1016,0 0.1651,-0.0508 0.0635,-0.0508 0.0762,-0.1016 0.0127,-0.0762 0.0508,-0.2921 0.0381,-0.2286 0.0762,-0.4826 0.0635,-0.254 0.0762,-0.4572 0.0127,-0.0508 0.0127,-0.0889 0.0127,-0.0381 0.0127,-0.0762 0.0127,-0.0127 0.0127,-0.0254 v -0.0127 q 0,-0.0762 -0.0889,-0.1143 -0.0889,-0.0508 -0.1524,-0.0508 h -2.0828 l -0.3048,1.7526 z m 4.06399,4.7879 2.4257,-8.9154 h 4.8641 q 0.1905,0 0.4445,0.0762 0.254,0.0635 0.4953,0.2413 0.2413,0.1651 0.4191,0.4445 0.1778,0.2667 0.2159,0.6731 l 0.762,7.4803 h -3.302 l -0.127,-1.2827 h -2.5273 l -0.3556,1.2827 z m 5.9563,-3.6576 -0.2794,-2.7305 q -0.0127,-0.0508 -0.0762,-0.1016 -0.0635,-0.0508 -0.1651,-0.0508 h -0.3302 l -0.7874,2.8829 z m 11.26491,-2.8194 q -0.0381,-0.0381 -0.0889,-0.0508 -0.0508,-0.0127 -0.0889,-0.0127 h -2.0828 l -0.7112,4.1656 h 2.1463 q 0.1016,0 0.1524,-0.0381 0.0635,-0.0508 0.0762,-0.1143 0.0127,-0.0635 0.0508,-0.254 0.0381,-0.2032 0.0762,-0.4826 0.0508,-0.2794 0.1143,-0.6096 0.0635,-0.3429 0.1143,-0.6858 0.0635,-0.3556 0.1143,-0.6731 0.0635,-0.3302 0.1016,-0.5715 0.0381,-0.254 0.0635,-0.4064 0.0254,-0.1524 0.0254,-0.1651 0,-0.0508 -0.0635,-0.1016 z m 3.6449,-0.8255 q 0,0.0635 0,0.1397 0,0.0762 -0.0254,0.1397 l -0.9652,5.6896 q -0.0635,0.381 -0.2413,0.635 -0.1778,0.254 -0.4064,0.4064 -0.2286,0.1524 -0.4699,0.2286 -0.2413,0.0635 -0.4318,0.0635 h -7.9375 l 1.5113,-8.9154 h 7.3914 q 0.1905,0 0.4572,0.0889 0.2794,0.0762 0.5207,0.2667 0.254,0.1778 0.4191,0.4953 0.1778,0.3048 0.1778,0.762 z m 4.64819,0.9144 q -0.0127,0.0635 -0.0508,0.2667 -0.0254,0.1905 -0.0762,0.4699 -0.0381,0.2794 -0.1016,0.6223 -0.0508,0.3302 -0.1143,0.6731 -0.0508,0.3556 -0.1143,0.6858 -0.0508,0.3175 -0.0889,0.5715 -0.0381,0.2413 -0.0635,0.3937 -0.0254,0.1524 -0.0254,0.1651 0,0.0254 0,0.0508 0.0127,0.0254 0.0635,0.0508 0.0381,0.0381 0.0889,0.0508 0.0508,0.0127 0.0762,0.0127 h 2.6416 q 0.1016,0 0.1651,-0.0381 0.0635,-0.0508 0.0762,-0.1143 0.0127,-0.0635 0.0381,-0.254 0.0381,-0.2032 0.0889,-0.4826 0.0508,-0.2794 0.1016,-0.6096 0.0635,-0.3429 0.1143,-0.6858 0.0635,-0.3556 0.1143,-0.6731 0.0635,-0.3302 0.1016,-0.5715 0.0381,-0.254 0.0635,-0.4064 0.0254,-0.1524 0.0254,-0.1651 0,-0.0508 -0.0635,-0.1016 -0.0381,-0.0381 -0.0889,-0.0508 -0.0508,-0.0127 -0.0889,-0.0127 h -2.6416 q -0.1016,0 -0.1651,0.0508 -0.0635,0.0381 -0.0762,0.1016 z m 5.0419,-2.5273 q 0.1905,0 0.4572,0.0889 0.2794,0.0762 0.5207,0.2667 0.254,0.1778 0.4191,0.4953 0.1778,0.3048 0.1778,0.762 0,0.0635 0,0.1397 0,0.0762 -0.0127,0.1397 l -0.9779,5.6896 q -0.0635,0.381 -0.2413,0.635 -0.1778,0.254 -0.4064,0.4064 -0.2286,0.1524 -0.4699,0.2286 -0.2413,0.0635 -0.4318,0.0635 h -6.6421 q -0.1905,0 -0.4572,-0.0762 -0.2667,-0.0889 -0.5207,-0.2667 -0.2413,-0.1905 -0.4191,-0.4953 -0.1778,-0.3175 -0.1778,-0.7747 0,-0.0635 0,-0.1397 0.0127,-0.0762 0.0254,-0.1397 l 0.9652,-5.6896 q 0.0635,-0.381 0.2413,-0.635 0.1778,-0.254 0.4064,-0.4064 0.2286,-0.1524 0.4699,-0.2159 0.2413,-0.0762 0.4318,-0.0762 z m 1.84151,8.9154 1.5113,-8.9154 h 7.3914 q 0.1905,0 0.4572,0.0889 0.2794,0.0762 0.5207,0.2667 0.254,0.1778 0.4191,0.4953 0.1778,0.3048 0.1778,0.762 0,0.0635 0,0.1397 0,0.0762 -0.0254,0.1397 l -0.5588,3.2766 q -0.0508,0.3429 -0.2032,0.5842 -0.1524,0.2413 -0.3556,0.3937 -0.2032,0.1524 -0.4318,0.2413 -0.2159,0.0762 -0.4064,0.1016 l 0.4953,2.4257 h -3.1623 l -0.4953,-2.413 h -1.4732 l -0.4064,2.413 z m 6.4135,-4.7879 q 0.1016,0 0.1651,-0.0508 0.0635,-0.0508 0.0762,-0.1016 0.0127,-0.0762 0.0508,-0.2921 0.0381,-0.2286 0.0762,-0.4826 0.0635,-0.254 0.0762,-0.4572 0.0127,-0.0508 0.0127,-0.0889 0.0127,-0.0381 0.0127,-0.0762 0.0127,-0.0127 0.0127,-0.0254 v -0.0127 q 0,-0.0762 -0.0889,-0.1143 -0.0889,-0.0508 -0.1524,-0.0508 h -2.0828 l -0.3048,1.7526 z m 4.06398,4.7879 2.4257,-8.9154 h 4.8641 q 0.1905,0 0.4445,0.0762 0.254,0.0635 0.4953,0.2413 0.2413,0.1651 0.4191,0.4445 0.1778,0.2667 0.2159,0.6731 l 0.762,7.4803 h -3.302 l -0.127,-1.2827 h -2.5273 l -0.3556,1.2827 z m 5.9563,-3.6576 -0.2794,-2.7305 q -0.0127,-0.0508 -0.0762,-0.1016 -0.0635,-0.0508 -0.1651,-0.0508 h -0.3302 l -0.7874,2.8829 z"
         id="path9-8" />
      <path
         style="text-align:center;text-anchor:middle"
         d="m 50.518528,227.4486 q -0.0381,-0.0381 -0.0889,-0.0508 -0.0508,-0.0127 -0.0889,-0.0127 h -2.0828 l -0.7112,4.1656 h 2.1463 q 0.1016,0 0.1524,-0.0381 0.0635,-0.0508 0.0762,-0.1143 0.0127,-0.0635 0.0508,-0.254 0.0381,-0.2032 0.0762,-0.4826 0.0508,-0.2794 0.1143,-0.6096 0.0635,-0.3429 0.1143,-0.6858 0.0635,-0.3556 0.1143,-0.6731 0.0635,-0.3302 0.1016,-0.5715 0.0381,-0.254 0.0635,-0.4064 0.0254,-0.1524 0.0254,-0.1651 0,-0.0508 -0.0635,-0.1016 z m 3.6449,-0.8255 q 0,0.0635 0,0.1397 0,0.0762 -0.0254,0.1397 l -0.9652,5.6896 q -0.0635,0.381 -0.2413,0.635 -0.1778,0.254 -0.4064,0.4064 -0.2286,0.1524 -0.4699,0.2286 -0.2413,0.0635 -0.4318,0.0635 h -7.9375 l 1.5113,-8.9154 h 7.3914 q 0.1905,0 0.4572,0.0889 0.2794,0.0762 0.5207,0.2667 0.254,0.1778 0.4191,0.4953 0.1778,0.3048 0.1778,0.762 z m 4.648196,0.9144 q -0.0127,0.0635 -0.0508,0.2667 -0.0254,0.1905 -0.0762,0.4699 -0.0381,0.2794 -0.1016,0.6223 -0.0508,0.3302 -0.1143,0.6731 -0.0508,0.3556 -0.1143,0.6858 -0.0508,0.3175 -0.0889,0.5715 -0.0381,0.2413 -0.0635,0.3937 -0.0254,0.1524 -0.0254,0.1651 0,0.0254 0,0.0508 0.0127,0.0254 0.0635,0.0508 0.0381,0.0381 0.0889,0.0508 0.0508,0.0127 0.0762,0.0127 h 2.6416 q 0.1016,0 0.1651,-0.0381 0.0635,-0.0508 0.0762,-0.1143 0.0127,-0.0635 0.0381,-0.254 0.0381,-0.2032 0.0889,-0.4826 0.0508,-0.2794 0.1016,-0.6096 0.0635,-0.3429 0.1143,-0.6858 0.0635,-0.3556 0.1143,-0.6731 0.0635,-0.3302 0.1016,-0.5715 0.0381,-0.254 0.0635,-0.4064 0.0254,-0.1524 0.0254,-0.1651 0,-0.0508 -0.0635,-0.1016 -0.0381,-0.0381 -0.0889,-0.0508 -0.0508,-0.0127 -0.0889,-0.0127 h -2.6416 q -0.1016,0 -0.1651,0.0508 -0.0635,0.0381 -0.0762,0.1016 z m 5.0419,-2.5273 q 0.1905,0 0.4572,0.0889 0.2794,0.0762 0.5207,0.2667 0.254,0.1778 0.4191,0.4953 0.1778,0.3048 0.1778,0.762 0,0.0635 0,0.1397 0,0.0762 -0.0127,0.1397 l -0.9779,5.6896 q -0.0635,0.381 -0.2413,0.635 -0.1778,0.254 -0.4064,0.4064 -0.2286,0.1524 -0.4699,0.2286 -0.2413,0.0635 -0.4318,0.0635 h -6.642099 q -0.1905,0 -0.4572,-0.0762 -0.2667,-0.0889 -0.5207,-0.2667 -0.2413,-0.1905 -0.4191,-0.4953 -0.1778,-0.3175 -0.1778,-0.7747 0,-0.0635 0,-0.1397 0.0127,-0.0762 0.0254,-0.1397 l 0.9652,-5.6896 q 0.0635,-0.381 0.2413,-0.635 0.1778,-0.254 0.4064,-0.4064 0.2286,-0.1524 0.4699,-0.2159 0.2413,-0.0762 0.4318,-0.0762 z m 8.102611,8.9154 h -3.5941 l 1.5113,-8.9154 h 3.6068 l -0.4064,2.3749 h -1.2446 q -0.1016,0 -0.1524,0.0381 -0.0508,0.0254 -0.0889,0.1524 h 1.4478 z m 5.23241,-6.5405 q -0.1143,0 -0.1651,0.0381 -0.0508,0.0381 -0.0762,0.1524 h 1.4478 l -0.2667,1.5621 h 4.0513 l -0.4445,2.3749 h -4.0132 l -0.4064,2.413 h -3.4544 l 1.2954,-7.5819 q 0.0635,-0.381 0.2413,-0.635 0.1778,-0.254 0.4064,-0.4064 0.2286,-0.1524 0.4699,-0.2159 0.2413,-0.0762 0.4318,-0.0762 h 6.7691 l -0.4064,2.3749 z m 6.540504,4.9276 q 0,-0.0635 0,-0.1397 0.0127,-0.0762 0.0254,-0.1397 l 0.9652,-5.6896 q 0.0635,-0.381 0.2413,-0.635 0.1778,-0.254 0.4064,-0.4064 0.2286,-0.1524 0.4699,-0.2159 0.2413,-0.0762 0.4318,-0.0762 h 8.0899 l -0.4064,2.3749 h -7.2009 q -0.1016,0 -0.1651,0.0381 -0.0508,0.0381 -0.0762,0.1524 h 1.4605 l -0.6858,3.9751 h 2.5019 l 0.2159,-1.0414 h -1.4859 l 0.4318,-2.3749 h 4.9022 l -0.7874,4.4577 q -0.0635,0.381 -0.2413,0.635 -0.1778,0.254 -0.4064,0.4064 -0.2286,0.1524 -0.4699,0.2286 -0.2413,0.0635 -0.4318,0.0635 h -6.2103 q -0.1905,0 -0.4572,-0.0762 -0.2667,-0.0889 -0.5207,-0.2667 -0.2413,-0.1905 -0.4191,-0.4953 -0.1778,-0.3175 -0.1778,-0.7747 z m 19.850121,-4.0259 -0.4064,2.3622 h -6.019805 l 0.4064,-2.3622 z m 2.79402,5.6388 0.762,-4.4577 q 0.0635,-0.381 0.2413,-0.635 0.1778,-0.254 0.4064,-0.4064 0.2286,-0.1524 0.4699,-0.2159 0.2413,-0.0762 0.4318,-0.0762 h 3.4036 q 0.1016,0 0.1524,-0.0381 0.0635,-0.0508 0.0762,-0.1143 0.0127,-0.0635 0.0254,-0.1143 0.0127,-0.0635 0.0254,-0.127 0.0254,-0.0635 0.0254,-0.1143 0,-0.0508 0,-0.0762 0,-0.0254 -0.0127,-0.0508 0,-0.0254 -0.0508,-0.0508 -0.0381,-0.0381 -0.0889,-0.0508 -0.0508,-0.0127 -0.0889,-0.0127 h -4.6609 l 0.3937,-2.3749 h 6.5151 q 0.1905,0 0.4572,0.0889 0.2794,0.0762 0.5207,0.2667 0.254,0.1778 0.4318,0.4953 0.1778,0.3048 0.1778,0.762 0,0.0635 -0.0127,0.1397 0,0.0762 -0.0127,0.1397 l -0.3937,2.2733 q -0.0635,0.381 -0.2413,0.635 -0.1778,0.254 -0.4064,0.4064 -0.2286,0.1524 -0.4699,0.2286 -0.2413,0.0635 -0.4318,0.0635 h -3.4036 q -0.1016,0 -0.1651,0.0508 -0.0635,0.0508 -0.0635,0.1016 l -0.1524,0.889 h 4.9276 l -0.3937,2.3749 z m 11.44271,0 q -0.1905,0 -0.4572,-0.0762 -0.2667,-0.0889 -0.5207,-0.2667 -0.2413,-0.1905 -0.4191,-0.4953 -0.1778,-0.3175 -0.1778,-0.7747 0,-0.0635 0,-0.1397 0.0127,-0.0762 0.0254,-0.1397 l 0.9652,-5.6896 q 0.0635,-0.381 0.2413,-0.635 0.1778,-0.254 0.4064,-0.4064 0.2286,-0.1524 0.4699,-0.2159 0.2413,-0.0762 0.4318,-0.0762 h 6.0706 q 0.1905,0 0.4572,0.0889 0.2794,0.0762 0.5207,0.2667 0.254,0.1778 0.4191,0.4953 0.1778,0.3048 0.1778,0.762 0,0.0635 -0.0127,0.1397 0,0.0762 -0.0127,0.1397 l -0.9652,5.6896 q -0.0635,0.381 -0.254,0.635 -0.1778,0.254 -0.4064,0.4064 -0.2286,0.1524 -0.4699,0.2286 -0.2413,0.0635 -0.4318,0.0635 z m 2.4638,-2.3749 h 1.778 q 0.0889,0 0.1524,-0.0381 0.0635,-0.0508 0.0762,-0.1143 l 0.5588,-2.5908 z m 2.2606,-4.1656 h -1.9304 q -0.0889,0 -0.1524,0.0508 -0.0635,0.0381 -0.0762,0.1016 l -0.5588,2.7432 z m 4.1402,6.5405 0.762,-4.4577 q 0.0635,-0.381 0.2413,-0.635 0.1778,-0.254 0.4064,-0.4064 0.2286,-0.1524 0.4699,-0.2159 0.2413,-0.0762 0.4318,-0.0762 h 3.4036 q 0.1016,0 0.1524,-0.0381 0.0635,-0.0508 0.0762,-0.1143 0.0127,-0.0635 0.0254,-0.1143 0.0127,-0.0635 0.0254,-0.127 0.0254,-0.0635 0.0254,-0.1143 0,-0.0508 0,-0.0762 0,-0.0254 -0.0127,-0.0508 0,-0.0254 -0.0508,-0.0508 -0.0381,-0.0381 -0.0889,-0.0508 -0.0508,-0.0127 -0.0889,-0.0127 h -4.6609 l 0.3937,-2.3749 h 6.5151 q 0.1905,0 0.4572,0.0889 0.2794,0.0762 0.5207,0.2667 0.254,0.1778 0.4318,0.4953 0.1778,0.3048 0.1778,0.762 0,0.0635 -0.0127,0.1397 0,0.0762 -0.0127,0.1397 l -0.3937,2.2733 q -0.0635,0.381 -0.2413,0.635 -0.1778,0.254 -0.4064,0.4064 -0.2286,0.1524 -0.4699,0.2286 -0.2413,0.0635 -0.4318,0.0635 h -3.4036 q -0.1016,0 -0.1651,0.0508 -0.0635,0.0508 -0.0635,0.1016 l -0.1524,0.889 h 4.9276 l -0.3937,2.3749 z m 11.44271,0 q -0.1905,0 -0.4572,-0.0762 -0.2667,-0.0889 -0.5207,-0.2667 -0.2413,-0.1905 -0.4191,-0.4953 -0.1778,-0.3175 -0.1778,-0.7747 0,-0.0635 0,-0.1397 0.0127,-0.0762 0.0254,-0.1397 l 0.9652,-5.6896 q 0.0635,-0.381 0.2413,-0.635 0.1778,-0.254 0.4064,-0.4064 0.2286,-0.1524 0.4699,-0.2159 0.2413,-0.0762 0.4318,-0.0762 h 7.0739 l -0.4064,2.3749 h -4.7244 q -0.1016,0 -0.1651,0.0508 -0.0635,0.0381 -0.0762,0.1016 l -0.1016,0.5969 h 3.302 q 0.1905,0 0.4572,0.0889 0.2794,0.0762 0.5207,0.2667 0.254,0.1905 0.4191,0.4953 0.1778,0.3048 0.1778,0.762 0,0.0762 0,0.1524 0,0.0635 -0.0254,0.127 l -0.4318,2.5654 q -0.0635,0.381 -0.2413,0.635 -0.1778,0.254 -0.4064,0.4064 -0.2286,0.1524 -0.4699,0.2286 -0.2413,0.0635 -0.4318,0.0635 z m 2.159,-3.4163 -0.1778,1.0414 h 1.524 q 0.1016,0 0.1524,-0.0381 0.0635,-0.0508 0.0762,-0.1143 l 0.1143,-0.6096 q 0.0127,-0.0635 0.0127,-0.1143 0,-0.0254 -0.0127,-0.0508 0,-0.0254 -0.0508,-0.0508 -0.0889,-0.0635 -0.1778,-0.0635 z"
         id="path10-7" />
    </g>
    <rect
       style="fill:#1a1a1a;stroke:#000000;stroke-width:0.0286353"
       id="rect2-0"
       width="70"
       height="3"
       x="-361.37402"
       y="400.13065" />
    <g
       id="text5"
       style="font-weight:bold;font-size:12.7px;font-family:'Cross Boxed';-inkscape-font-specification:'Cross Boxed Bold';text-align:end;text-anchor:end;stroke-width:0.1"
       aria-label="3ª Gincana INtegradora&#10;do IFG - 2026"
       transform="matrix(0.90767326,0,0,0.90767326,-12.534106,230.29515)">
      <path
         style="text-align:center;text-anchor:middle"
         d="m -4.0977946,218.0506 0.4064,-2.3749 h 4.9910999 q 0.1016,0 0.1651,-0.0381 0.0635,-0.0508 0.0762,-0.1143 0.0127,-0.0635 0.0254,-0.1905 0.0254,-0.1397 0.0508,-0.2794 0.0254,-0.0635 0.0254,-0.127 0.0127,-0.0762 0.0254,-0.1397 0,-0.0254 0,-0.0381 0.0127,-0.0254 0.0127,-0.0508 v -0.0381 q 0,-0.0254 -0.0127,-0.0508 0,-0.0254 -0.0508,-0.0508 -0.0381,-0.0381 -0.0889,-0.0508 -0.0508,-0.0127 -0.0889,-0.0127 h -3.4797999 l 0.3555999,-2.0828 h 3.2766 q 0.1016,0 0.1524,-0.0508 0.0635,-0.0508 0.0889,-0.1143 0.0127,-0.0635 0.0254,-0.1397 0.0127,-0.0762 0.0254,-0.1778 0.0381,-0.1905 0.0381,-0.254 0,-0.0254 -0.0127,-0.0508 0,-0.0254 -0.0508,-0.0508 -0.0381,-0.0381 -0.0889,-0.0508 -0.0508,-0.0127 -0.0889,-0.0127 h -4.6608999 l 0.3937,-2.3749 h 6.5404999 q 0.1905,0 0.4572,0.0889 0.2794,0.0762 0.5206999,0.2667 0.254,0.1778 0.4191,0.4953 0.1778,0.3048 0.1778,0.762 0,0.1397 -0.0254,0.3429 -0.0127,0.2032 -0.0381,0.3937 -0.0254,0.2032 -0.0508,0.3937 -0.0254,0.1905 -0.0508,0.3302 -0.0762,0.5461 -0.3937,0.8509 -0.3174999,0.2921 -0.6857999,0.4318 0.0508,0.0254 0.0889,0.0635 0.0508,0.0254 0.0889,0.0635 0.2159,0.1524 0.3809999,0.4064 0.1778,0.254 0.1778,0.6477 0,0.1397 -0.0381,0.4191 -0.0381,0.2794 -0.0889,0.5715 -0.0381,0.2921 -0.0889,0.5715 -0.0381,0.2794 -0.0635,0.4191 -0.0508,0.3937 -0.2285999,0.6604 -0.1778,0.2667 -0.4064,0.4318 -0.2286,0.1651 -0.4826,0.2413 -0.2413,0.0635 -0.4445,0.0635 z M 7.8782968,208.7542 H 6.0494969 l 0.1777999,-1.0414 h 2.4257 q 0.2667,0 0.4318,0.2032 0.1778,0.2032 0.1778,0.4572 0,0.0381 -0.0127,0.0762 v 0.0762 q -0.0127,0.0889 -0.0381,0.2286 -0.0635,0.4064 -0.1397,0.8255 -0.0635,0.4064 -0.1524,0.8128 -0.0508,0.3302 -0.254,0.4445 -0.2032,0.1016 -0.3429,0.1016 h -1.9177 q -0.0762,0 -0.1778,-0.0254 -0.0889,-0.0381 -0.1904999,-0.1016 -0.0889,-0.0762 -0.1651,-0.2032 -0.0762,-0.127 -0.0762,-0.3302 0,-0.1016 0.0127,-0.2413 0.0254,-0.1397 0.0508,-0.2794 0.0254,-0.1397 0.0508,-0.254 0.0254,-0.127 0.0381,-0.2159 0.0635,-0.3302 0.2666999,-0.4318 0.2032,-0.1016 0.3302,-0.1016 z m -0.1905,1.143 0.0127,-0.1016 h -0.508 q -0.0127,0.0254 -0.0127,0.0508 0,0.0254 -0.0127,0.0508 z m 4.3688012,6.5405 q 0,-0.0635 0,-0.1397 0.0127,-0.0762 0.0254,-0.1397 l 0.9652,-5.6896 q 0.0635,-0.381 0.2413,-0.635 0.1778,-0.254 0.4064,-0.4064 0.2286,-0.1524 0.4699,-0.2159 0.2413,-0.0762 0.4318,-0.0762 h 8.089899 l -0.4064,2.3749 h -7.200899 q -0.1016,0 -0.1651,0.0381 -0.0508,0.0381 -0.0762,0.1524 h 1.4605 l -0.6858,3.9751 h 2.5019 l 0.2159,-1.0414 h -1.4859 l 0.4318,-2.3749 h 4.902199 l -0.7874,4.4577 q -0.0635,0.381 -0.2413,0.635 -0.1778,0.254 -0.4064,0.4064 -0.2286,0.1524 -0.469899,0.2286 -0.2413,0.0635 -0.4318,0.0635 h -6.2103 q -0.1905,0 -0.4572,-0.0762 -0.2667,-0.0889 -0.5207,-0.2667 -0.2413,-0.1905 -0.4191,-0.4953 -0.1778,-0.3175 -0.1778,-0.7747 z m 16.129003,-7.3025 -1.524,8.9154 h -3.5941 l 1.5113,-8.9154 z m 1.89231,0 h 7.9756 q 0.1905,0 0.4572,0.0889 0.2794,0.0762 0.5207,0.2667 0.254,0.1778 0.4191,0.4953 0.1778,0.3048 0.1778,0.762 0,0.0635 -0.0127,0.1397 0,0.0762 -0.0127,0.1397 l -1.1938,7.0231 h -3.4544 l 0.0381,-0.2413 q 0.0254,-0.1016 0.0762,-0.4064 0.0635,-0.3048 0.1397,-0.7493 0.0762,-0.4445 0.1651,-0.9779 0.0889,-0.5461 0.1778,-1.0922 0.1016,-0.5588 0.1905,-1.0795 0.0889,-0.5207 0.1524,-0.9144 0.0762,-0.4064 0.1143,-0.6477 0.0381,-0.254 0.0381,-0.2667 0,-0.0762 -0.0889,-0.1143 -0.0889,-0.0508 -0.1524,-0.0508 h -2.667 l -1.1176,6.5405 h -3.4544 z m 18.186408,8.9154 h -6.8072 q -0.1905,0 -0.4572,-0.0762 -0.2667,-0.0889 -0.5207,-0.2667 -0.2413,-0.1905 -0.4191,-0.4953 -0.1778,-0.3175 -0.1778,-0.7747 0,-0.0635 0,-0.1397 0.0127,-0.0762 0.0254,-0.1397 l 0.9652,-5.6896 q 0.0635,-0.381 0.2413,-0.635 0.1778,-0.254 0.4064,-0.4064 0.2286,-0.1524 0.4699,-0.2159 0.2413,-0.0762 0.4318,-0.0762 h 7.3533 l -0.3937,2.3749 h -5.0165 q -0.1016,0 -0.1651,0.0508 -0.0635,0.0381 -0.0762,0.1016 -0.0127,0.0635 -0.0508,0.2667 -0.0254,0.1905 -0.0762,0.4699 -0.0508,0.2794 -0.1143,0.6223 -0.0508,0.3302 -0.1143,0.6731 -0.0508,0.3556 -0.1143,0.6858 -0.0508,0.3175 -0.1016,0.5715 -0.0381,0.2413 -0.0635,0.3937 -0.0254,0.1524 -0.0254,0.1651 0,0.0762 0.0889,0.127 0.0889,0.0381 0.1524,0.0381 h 4.9657 z m 1.269982,0 2.4257,-8.9154 h 4.8641 q 0.1905,0 0.4445,0.0762 0.254,0.0635 0.4953,0.2413 0.2413,0.1651 0.4191,0.4445 0.1778,0.2667 0.2159,0.6731 l 0.762,7.4803 h -3.302 l -0.127,-1.2827 h -2.5273 l -0.3556,1.2827 z m 5.9563,-3.6576 -0.2794,-2.7305 q -0.0127,-0.0508 -0.0762,-0.1016 -0.0635,-0.0508 -0.1651,-0.0508 h -0.3302 l -0.7874,2.8829 z m 5.943611,-5.2578 h 7.975599 q 0.1905,0 0.4572,0.0889 0.2794,0.0762 0.5207,0.2667 0.254,0.1778 0.4191,0.4953 0.1778,0.3048 0.1778,0.762 0,0.0635 -0.0127,0.1397 0,0.0762 -0.0127,0.1397 l -1.1938,7.0231 h -3.4544 l 0.0381,-0.2413 q 0.0254,-0.1016 0.0762,-0.4064 0.0635,-0.3048 0.1397,-0.7493 0.0762,-0.4445 0.1651,-0.9779 0.0889,-0.5461 0.1778,-1.0922 0.1016,-0.5588 0.1905,-1.0795 0.0889,-0.5207 0.1524,-0.9144 0.0762,-0.4064 0.1143,-0.6477 0.0381,-0.254 0.0381,-0.2667 0,-0.0762 -0.0889,-0.1143 -0.0889,-0.0508 -0.1524,-0.0508 h -2.667 l -1.117599,6.5405 h -3.4544 z m 9.804404,8.9154 2.4257,-8.9154 h 4.8641 q 0.1905,0 0.4445,0.0762 0.254,0.0635 0.4953,0.2413 0.2413,0.1651 0.4191,0.4445 0.1778,0.2667 0.2159,0.6731 l 0.762,7.4803 h -3.302 l -0.127,-1.2827 h -2.5273 l -0.3556,1.2827 z m 5.9563,-3.6576 -0.2794,-2.7305 q -0.0127,-0.0508 -0.0762,-0.1016 -0.0635,-0.0508 -0.1651,-0.0508 h -0.3302 l -0.7874,2.8829 z m 10.185408,3.6576 h -3.5941 l 1.5113,-8.9154 h 3.6068 l -0.4064,2.3749 h -1.2446 q -0.1016,0 -0.1524,0.0381 -0.0508,0.0254 -0.0889,0.1524 h 1.4478 z m 3.416314,-8.9154 h 7.9756 q 0.1905,0 0.4572,0.0889 0.2794,0.0762 0.5207,0.2667 0.254002,0.1778 0.419102,0.4953 0.1778,0.3048 0.1778,0.762 0,0.0635 -0.0127,0.1397 0,0.0762 -0.0127,0.1397 l -1.193802,7.0231 h -3.4544 l 0.0381,-0.2413 q 0.0254,-0.1016 0.0762,-0.4064 0.0635,-0.3048 0.1397,-0.7493 0.0762,-0.4445 0.1651,-0.9779 0.0889,-0.5461 0.1778,-1.0922 0.1016,-0.5588 0.1905,-1.0795 0.0889,-0.5207 0.1524,-0.9144 0.0762,-0.4064 0.1143,-0.6477 0.0381,-0.254 0.0381,-0.2667 0,-0.0762 -0.0889,-0.1143 -0.0889,-0.0508 -0.1524,-0.0508 h -3.9116 q -0.1143,0 -0.1651,0.0381 -0.0508,0.0381 -0.0762,0.1524 h 1.4478 l -1.0795,6.35 h -3.4544 z m 10.058412,2.3749 0.4064,-2.3749 h 9.2075 l -0.4064,2.3749 h -2.8321 l -1.1049,6.5405 h -3.4544 l 1.1176,-6.5405 z m 13.09369,3.1242 q -0.0254,0.0889 -0.0381,0.2032 -0.0127,0.1016 -0.0381,0.2032 -0.0127,0.0889 -0.0254,0.1778 -0.0127,0.0762 -0.0254,0.1397 0,0.0254 -0.0127,0.0889 0,0.0508 -0.0127,0.0635 0,0.0762 0.0889,0.127 0.0889,0.0381 0.1524,0.0381 h 4.6736 l -0.4064,2.3749 h -6.5151 q -0.1905,0 -0.4572,-0.0762 -0.2667,-0.0889 -0.5207,-0.2667 -0.2413,-0.1905 -0.4191,-0.4953 -0.1778,-0.3175 -0.1778,-0.7747 0,-0.0635 0,-0.1397 0.0127,-0.0762 0.0254,-0.1397 l 0.9652,-5.6896 q 0.0635,-0.381 0.2413,-0.635 0.1778,-0.254 0.4064,-0.4064 0.2286,-0.1524 0.4699,-0.2159 0.2413,-0.0762 0.4318,-0.0762 h 7.0739 l -0.4064,2.3749 h -4.7244 q -0.1016,0 -0.1651,0.0508 -0.0635,0.0381 -0.0762,0.1016 l -0.1016,0.5969 h 4.0894 l -0.4318,2.3749 z m 10.40131,-3.1242 -0.7112,4.1656 h 2.5019 l 0.2159,-1.0414 h -1.4859 l 0.4318,-2.3749 h 4.9022 l -0.7874,4.4577 q -0.0635,0.381 -0.2413,0.635 -0.1778,0.254 -0.4064,0.4064 -0.2286,0.1524 -0.4699,0.2286 -0.2413,0.0635 -0.4318,0.0635 h -6.2103 q -0.1905,0 -0.4572,-0.0762 -0.2667,-0.0889 -0.5207,-0.2667 -0.2413,-0.1905 -0.4191,-0.4953 -0.1778,-0.3175 -0.1778,-0.7747 0,-0.0635 0,-0.1397 0.0127,-0.0762 0.0254,-0.1397 l 0.9652,-5.6896 q 0.0635,-0.381 0.2413,-0.635 0.1778,-0.254 0.4064,-0.4064 0.2286,-0.1524 0.4699,-0.2159 0.2413,-0.0762 0.4318,-0.0762 h 8.0899 l -0.4064,2.3749 z m 6.6167,6.5405 1.5113,-8.9154 h 7.3914 q 0.1905,0 0.4572,0.0889 0.2794,0.0762 0.5207,0.2667 0.254,0.1778 0.4191,0.4953 0.1778,0.3048 0.1778,0.762 0,0.0635 0,0.1397 0,0.0762 -0.0254,0.1397 l -0.5588,3.2766 q -0.0508,0.3429 -0.2032,0.5842 -0.1524,0.2413 -0.3556,0.3937 -0.2032,0.1524 -0.4318,0.2413 -0.2159,0.0762 -0.4064,0.1016 l 0.4953,2.4257 h -3.1623 l -0.4953,-2.413 h -1.4732 l -0.4064,2.413 z m 6.4135,-4.7879 q 0.1016,0 0.1651,-0.0508 0.0635,-0.0508 0.0762,-0.1016 0.0127,-0.0762 0.0508,-0.2921 0.0381,-0.2286 0.0762,-0.4826 0.0635,-0.254 0.0762,-0.4572 0.0127,-0.0508 0.0127,-0.0889 0.0127,-0.0381 0.0127,-0.0762 0.0127,-0.0127 0.0127,-0.0254 v -0.0127 q 0,-0.0762 -0.0889,-0.1143 -0.0889,-0.0508 -0.1524,-0.0508 h -2.0828 l -0.3048,1.7526 z m 4.06399,4.7879 2.4257,-8.9154 h 4.8641 q 0.1905,0 0.4445,0.0762 0.254,0.0635 0.4953,0.2413 0.2413,0.1651 0.4191,0.4445 0.1778,0.2667 0.2159,0.6731 l 0.762,7.4803 h -3.302 l -0.127,-1.2827 h -2.5273 l -0.3556,1.2827 z m 5.9563,-3.6576 -0.2794,-2.7305 q -0.0127,-0.0508 -0.0762,-0.1016 -0.0635,-0.0508 -0.1651,-0.0508 h -0.3302 l -0.7874,2.8829 z m 11.26491,-2.8194 q -0.0381,-0.0381 -0.0889,-0.0508 -0.0508,-0.0127 -0.0889,-0.0127 h -2.0828 l -0.7112,4.1656 h 2.1463 q 0.1016,0 0.1524,-0.0381 0.0635,-0.0508 0.0762,-0.1143 0.0127,-0.0635 0.0508,-0.254 0.0381,-0.2032 0.0762,-0.4826 0.0508,-0.2794 0.1143,-0.6096 0.0635,-0.3429 0.1143,-0.6858 0.0635,-0.3556 0.1143,-0.6731 0.0635,-0.3302 0.1016,-0.5715 0.0381,-0.254 0.0635,-0.4064 0.0254,-0.1524 0.0254,-0.1651 0,-0.0508 -0.0635,-0.1016 z m 3.6449,-0.8255 q 0,0.0635 0,0.1397 0,0.0762 -0.0254,0.1397 l -0.9652,5.6896 q -0.0635,0.381 -0.2413,0.635 -0.1778,0.254 -0.4064,0.4064 -0.2286,0.1524 -0.4699,0.2286 -0.2413,0.0635 -0.4318,0.0635 h -7.9375 l 1.5113,-8.9154 h 7.3914 q 0.1905,0 0.4572,0.0889 0.2794,0.0762 0.5207,0.2667 0.254,0.1778 0.4191,0.4953 0.1778,0.3048 0.1778,0.762 z m 4.64819,0.9144 q -0.0127,0.0635 -0.0508,0.2667 -0.0254,0.1905 -0.0762,0.4699 -0.0381,0.2794 -0.1016,0.6223 -0.0508,0.3302 -0.1143,0.6731 -0.0508,0.3556 -0.1143,0.6858 -0.0508,0.3175 -0.0889,0.5715 -0.0381,0.2413 -0.0635,0.3937 -0.0254,0.1524 -0.0254,0.1651 0,0.0254 0,0.0508 0.0127,0.0254 0.0635,0.0508 0.0381,0.0381 0.0889,0.0508 0.0508,0.0127 0.0762,0.0127 h 2.6416 q 0.1016,0 0.1651,-0.0381 0.0635,-0.0508 0.0762,-0.1143 0.0127,-0.0635 0.0381,-0.254 0.0381,-0.2032 0.0889,-0.4826 0.0508,-0.2794 0.1016,-0.6096 0.0635,-0.3429 0.1143,-0.6858 0.0635,-0.3556 0.1143,-0.6731 0.0635,-0.3302 0.1016,-0.5715 0.0381,-0.254 0.0635,-0.4064 0.0254,-0.1524 0.0254,-0.1651 0,-0.0508 -0.0635,-0.1016 -0.0381,-0.0381 -0.0889,-0.0508 -0.0508,-0.0127 -0.0889,-0.0127 h -2.6416 q -0.1016,0 -0.1651,0.0508 -0.0635,0.0381 -0.0762,0.1016 z m 5.0419,-2.5273 q 0.1905,0 0.4572,0.0889 0.2794,0.0762 0.5207,0.2667 0.254,0.1778 0.4191,0.4953 0.1778,0.3048 0.1778,0.762 0,0.0635 0,0.1397 0,0.0762 -0.0127,0.1397 l -0.9779,5.6896 q -0.0635,0.381 -0.2413,0.635 -0.1778,0.254 -0.4064,0.4064 -0.2286,0.1524 -0.4699,0.2286 -0.2413,0.0635 -0.4318,0.0635 h -6.6421 q -0.1905,0 -0.4572,-0.0762 -0.2667,-0.0889 -0.5207,-0.2667 -0.2413,-0.1905 -0.4191,-0.4953 -0.1778,-0.3175 -0.1778,-0.7747 0,-0.0635 0,-0.1397 0.0127,-0.0762 0.0254,-0.1397 l 0.9652,-5.6896 q 0.0635,-0.381 0.2413,-0.635 0.1778,-0.254 0.4064,-0.4064 0.2286,-0.1524 0.4699,-0.2159 0.2413,-0.0762 0.4318,-0.0762 z m 1.84151,8.9154 1.5113,-8.9154 h 7.3914 q 0.1905,0 0.4572,0.0889 0.2794,0.0762 0.5207,0.2667 0.254,0.1778 0.4191,0.4953 0.1778,0.3048 0.1778,0.762 0,0.0635 0,0.1397 0,0.0762 -0.0254,0.1397 l -0.5588,3.2766 q -0.0508,0.3429 -0.2032,0.5842 -0.1524,0.2413 -0.3556,0.3937 -0.2032,0.1524 -0.4318,0.2413 -0.2159,0.0762 -0.4064,0.1016 l 0.4953,2.4257 h -3.1623 l -0.4953,-2.413 h -1.4732 l -0.4064,2.413 z m 6.4135,-4.7879 q 0.1016,0 0.1651,-0.0508 0.0635,-0.0508 0.0762,-0.1016 0.0127,-0.0762 0.0508,-0.2921 0.0381,-0.2286 0.0762,-0.4826 0.0635,-0.254 0.0762,-0.4572 0.0127,-0.0508 0.0127,-0.0889 0.0127,-0.0381 0.0127,-0.0762 0.0127,-0.0127 0.0127,-0.0254 v -0.0127 q 0,-0.0762 -0.0889,-0.1143 -0.0889,-0.0508 -0.1524,-0.0508 h -2.0828 l -0.3048,1.7526 z m 4.06398,4.7879 2.4257,-8.9154 h 4.8641 q 0.1905,0 0.4445,0.0762 0.254,0.0635 0.4953,0.2413 0.2413,0.1651 0.4191,0.4445 0.1778,0.2667 0.2159,0.6731 l 0.762,7.4803 h -3.302 l -0.127,-1.2827 h -2.5273 l -0.3556,1.2827 z m 5.9563,-3.6576 -0.2794,-2.7305 q -0.0127,-0.0508 -0.0762,-0.1016 -0.0635,-0.0508 -0.1651,-0.0508 h -0.3302 l -0.7874,2.8829 z"
         id="path9" />
      <path
         style="text-align:center;text-anchor:middle"
         d="m 50.518528,227.4486 q -0.0381,-0.0381 -0.0889,-0.0508 -0.0508,-0.0127 -0.0889,-0.0127 h -2.0828 l -0.7112,4.1656 h 2.1463 q 0.1016,0 0.1524,-0.0381 0.0635,-0.0508 0.0762,-0.1143 0.0127,-0.0635 0.0508,-0.254 0.0381,-0.2032 0.0762,-0.4826 0.0508,-0.2794 0.1143,-0.6096 0.0635,-0.3429 0.1143,-0.6858 0.0635,-0.3556 0.1143,-0.6731 0.0635,-0.3302 0.1016,-0.5715 0.0381,-0.254 0.0635,-0.4064 0.0254,-0.1524 0.0254,-0.1651 0,-0.0508 -0.0635,-0.1016 z m 3.6449,-0.8255 q 0,0.0635 0,0.1397 0,0.0762 -0.0254,0.1397 l -0.9652,5.6896 q -0.0635,0.381 -0.2413,0.635 -0.1778,0.254 -0.4064,0.4064 -0.2286,0.1524 -0.4699,0.2286 -0.2413,0.0635 -0.4318,0.0635 h -7.9375 l 1.5113,-8.9154 h 7.3914 q 0.1905,0 0.4572,0.0889 0.2794,0.0762 0.5207,0.2667 0.254,0.1778 0.4191,0.4953 0.1778,0.3048 0.1778,0.762 z m 4.648196,0.9144 q -0.0127,0.0635 -0.0508,0.2667 -0.0254,0.1905 -0.0762,0.4699 -0.0381,0.2794 -0.1016,0.6223 -0.0508,0.3302 -0.1143,0.6731 -0.0508,0.3556 -0.1143,0.6858 -0.0508,0.3175 -0.0889,0.5715 -0.0381,0.2413 -0.0635,0.3937 -0.0254,0.1524 -0.0254,0.1651 0,0.0254 0,0.0508 0.0127,0.0254 0.0635,0.0508 0.0381,0.0381 0.0889,0.0508 0.0508,0.0127 0.0762,0.0127 h 2.6416 q 0.1016,0 0.1651,-0.0381 0.0635,-0.0508 0.0762,-0.1143 0.0127,-0.0635 0.0381,-0.254 0.0381,-0.2032 0.0889,-0.4826 0.0508,-0.2794 0.1016,-0.6096 0.0635,-0.3429 0.1143,-0.6858 0.0635,-0.3556 0.1143,-0.6731 0.0635,-0.3302 0.1016,-0.5715 0.0381,-0.254 0.0635,-0.4064 0.0254,-0.1524 0.0254,-0.1651 0,-0.0508 -0.0635,-0.1016 -0.0381,-0.0381 -0.0889,-0.0508 -0.0508,-0.0127 -0.0889,-0.0127 h -2.6416 q -0.1016,0 -0.1651,0.0508 -0.0635,0.0381 -0.0762,0.1016 z m 5.0419,-2.5273 q 0.1905,0 0.4572,0.0889 0.2794,0.0762 0.5207,0.2667 0.254,0.1778 0.4191,0.4953 0.1778,0.3048 0.1778,0.762 0,0.0635 0,0.1397 0,0.0762 -0.0127,0.1397 l -0.9779,5.6896 q -0.0635,0.381 -0.2413,0.635 -0.1778,0.254 -0.4064,0.4064 -0.2286,0.1524 -0.4699,0.2286 -0.2413,0.0635 -0.4318,0.0635 h -6.642099 q -0.1905,0 -0.4572,-0.0762 -0.2667,-0.0889 -0.5207,-0.2667 -0.2413,-0.1905 -0.4191,-0.4953 -0.1778,-0.3175 -0.1778,-0.7747 0,-0.0635 0,-0.1397 0.0127,-0.0762 0.0254,-0.1397 l 0.9652,-5.6896 q 0.0635,-0.381 0.2413,-0.635 0.1778,-0.254 0.4064,-0.4064 0.2286,-0.1524 0.4699,-0.2159 0.2413,-0.0762 0.4318,-0.0762 z m 8.102611,8.9154 h -3.5941 l 1.5113,-8.9154 h 3.6068 l -0.4064,2.3749 h -1.2446 q -0.1016,0 -0.1524,0.0381 -0.0508,0.0254 -0.0889,0.1524 h 1.4478 z m 5.23241,-6.5405 q -0.1143,0 -0.1651,0.0381 -0.0508,0.0381 -0.0762,0.1524 h 1.4478 l -0.2667,1.5621 h 4.0513 l -0.4445,2.3749 h -4.0132 l -0.4064,2.413 h -3.4544 l 1.2954,-7.5819 q 0.0635,-0.381 0.2413,-0.635 0.1778,-0.254 0.4064,-0.4064 0.2286,-0.1524 0.4699,-0.2159 0.2413,-0.0762 0.4318,-0.0762 h 6.7691 l -0.4064,2.3749 z m 6.540504,4.9276 q 0,-0.0635 0,-0.1397 0.0127,-0.0762 0.0254,-0.1397 l 0.9652,-5.6896 q 0.0635,-0.381 0.2413,-0.635 0.1778,-0.254 0.4064,-0.4064 0.2286,-0.1524 0.4699,-0.2159 0.2413,-0.0762 0.4318,-0.0762 h 8.0899 l -0.4064,2.3749 h -7.2009 q -0.1016,0 -0.1651,0.0381 -0.0508,0.0381 -0.0762,0.1524 h 1.4605 l -0.6858,3.9751 h 2.5019 l 0.2159,-1.0414 h -1.4859 l 0.4318,-2.3749 h 4.9022 l -0.7874,4.4577 q -0.0635,0.381 -0.2413,0.635 -0.1778,0.254 -0.4064,0.4064 -0.2286,0.1524 -0.4699,0.2286 -0.2413,0.0635 -0.4318,0.0635 h -6.2103 q -0.1905,0 -0.4572,-0.0762 -0.2667,-0.0889 -0.5207,-0.2667 -0.2413,-0.1905 -0.4191,-0.4953 -0.1778,-0.3175 -0.1778,-0.7747 z m 19.850121,-4.0259 -0.4064,2.3622 h -6.019805 l 0.4064,-2.3622 z m 2.79402,5.6388 0.762,-4.4577 q 0.0635,-0.381 0.2413,-0.635 0.1778,-0.254 0.4064,-0.4064 0.2286,-0.1524 0.4699,-0.2159 0.2413,-0.0762 0.4318,-0.0762 h 3.4036 q 0.1016,0 0.1524,-0.0381 0.0635,-0.0508 0.0762,-0.1143 0.0127,-0.0635 0.0254,-0.1143 0.0127,-0.0635 0.0254,-0.127 0.0254,-0.0635 0.0254,-0.1143 0,-0.0508 0,-0.0762 0,-0.0254 -0.0127,-0.0508 0,-0.0254 -0.0508,-0.0508 -0.0381,-0.0381 -0.0889,-0.0508 -0.0508,-0.0127 -0.0889,-0.0127 h -4.6609 l 0.3937,-2.3749 h 6.5151 q 0.1905,0 0.4572,0.0889 0.2794,0.0762 0.5207,0.2667 0.254,0.1778 0.4318,0.4953 0.1778,0.3048 0.1778,0.762 0,0.0635 -0.0127,0.1397 0,0.0762 -0.0127,0.1397 l -0.3937,2.2733 q -0.0635,0.381 -0.2413,0.635 -0.1778,0.254 -0.4064,0.4064 -0.2286,0.1524 -0.4699,0.2286 -0.2413,0.0635 -0.4318,0.0635 h -3.4036 q -0.1016,0 -0.1651,0.0508 -0.0635,0.0508 -0.0635,0.1016 l -0.1524,0.889 h 4.9276 l -0.3937,2.3749 z m 11.44271,0 q -0.1905,0 -0.4572,-0.0762 -0.2667,-0.0889 -0.5207,-0.2667 -0.2413,-0.1905 -0.4191,-0.4953 -0.1778,-0.3175 -0.1778,-0.7747 0,-0.0635 0,-0.1397 0.0127,-0.0762 0.0254,-0.1397 l 0.9652,-5.6896 q 0.0635,-0.381 0.2413,-0.635 0.1778,-0.254 0.4064,-0.4064 0.2286,-0.1524 0.4699,-0.2159 0.2413,-0.0762 0.4318,-0.0762 h 6.0706 q 0.1905,0 0.4572,0.0889 0.2794,0.0762 0.5207,0.2667 0.254,0.1778 0.4191,0.4953 0.1778,0.3048 0.1778,0.762 0,0.0635 -0.0127,0.1397 0,0.0762 -0.0127,0.1397 l -0.9652,5.6896 q -0.0635,0.381 -0.254,0.635 -0.1778,0.254 -0.4064,0.4064 -0.2286,0.1524 -0.4699,0.2286 -0.2413,0.0635 -0.4318,0.0635 z m 2.4638,-2.3749 h 1.778 q 0.0889,0 0.1524,-0.0381 0.0635,-0.0508 0.0762,-0.1143 l 0.5588,-2.5908 z m 2.2606,-4.1656 h -1.9304 q -0.0889,0 -0.1524,0.0508 -0.0635,0.0381 -0.0762,0.1016 l -0.5588,2.7432 z m 4.1402,6.5405 0.762,-4.4577 q 0.0635,-0.381 0.2413,-0.635 0.1778,-0.254 0.4064,-0.4064 0.2286,-0.1524 0.4699,-0.2159 0.2413,-0.0762 0.4318,-0.0762 h 3.4036 q 0.1016,0 0.1524,-0.0381 0.0635,-0.0508 0.0762,-0.1143 0.0127,-0.0635 0.0254,-0.1143 0.0127,-0.0635 0.0254,-0.127 0.0254,-0.0635 0.0254,-0.1143 0,-0.0508 0,-0.0762 0,-0.0254 -0.0127,-0.0508 0,-0.0254 -0.0508,-0.0508 -0.0381,-0.0381 -0.0889,-0.0508 -0.0508,-0.0127 -0.0889,-0.0127 h -4.6609 l 0.3937,-2.3749 h 6.5151 q 0.1905,0 0.4572,0.0889 0.2794,0.0762 0.5207,0.2667 0.254,0.1778 0.4318,0.4953 0.1778,0.3048 0.1778,0.762 0,0.0635 -0.0127,0.1397 0,0.0762 -0.0127,0.1397 l -0.3937,2.2733 q -0.0635,0.381 -0.2413,0.635 -0.1778,0.254 -0.4064,0.4064 -0.2286,0.1524 -0.4699,0.2286 -0.2413,0.0635 -0.4318,0.0635 h -3.4036 q -0.1016,0 -0.1651,0.0508 -0.0635,0.0508 -0.0635,0.1016 l -0.1524,0.889 h 4.9276 l -0.3937,2.3749 z m 11.44271,0 q -0.1905,0 -0.4572,-0.0762 -0.2667,-0.0889 -0.5207,-0.2667 -0.2413,-0.1905 -0.4191,-0.4953 -0.1778,-0.3175 -0.1778,-0.7747 0,-0.0635 0,-0.1397 0.0127,-0.0762 0.0254,-0.1397 l 0.9652,-5.6896 q 0.0635,-0.381 0.2413,-0.635 0.1778,-0.254 0.4064,-0.4064 0.2286,-0.1524 0.4699,-0.2159 0.2413,-0.0762 0.4318,-0.0762 h 7.0739 l -0.4064,2.3749 h -4.7244 q -0.1016,0 -0.1651,0.0508 -0.0635,0.0381 -0.0762,0.1016 l -0.1016,0.5969 h 3.302 q 0.1905,0 0.4572,0.0889 0.2794,0.0762 0.5207,0.2667 0.254,0.1905 0.4191,0.4953 0.1778,0.3048 0.1778,0.762 0,0.0762 0,0.1524 0,0.0635 -0.0254,0.127 l -0.4318,2.5654 q -0.0635,0.381 -0.2413,0.635 -0.1778,0.254 -0.4064,0.4064 -0.2286,0.1524 -0.4699,0.2286 -0.2413,0.0635 -0.4318,0.0635 z m 2.159,-3.4163 -0.1778,1.0414 h 1.524 q 0.1016,0 0.1524,-0.0381 0.0635,-0.0508 0.0762,-0.1143 l 0.1143,-0.6096 q 0.0127,-0.0635 0.0127,-0.1143 0,-0.0254 -0.0127,-0.0508 0,-0.0254 -0.0508,-0.0508 -0.0889,-0.0635 -0.1778,-0.0635 z"
         id="path10" />
    </g>
    <path
       d="m -9.552702,486.23036 h -10.023973 l 3.53117,-19.55434 h -5.277774 l 1.21503,-7.1003 H -4.730563 Z M 0.319425,460.3351 q -0.07595,0.34175 -0.113908,0.68345 -0.03797,0.3037 -0.113908,0.56954 0,0.076 -0.03797,0.15184 0,0.0378 0,0.11399 h 2.581932 q 0.189846,-0.75938 0.303759,-1.55676 0.151882,-0.79737 0.227818,-1.5947 0.03797,-0.0761 0.03797,-0.11401 0,-0.0759 0.03797,-0.15184 H 0.661155 q -0.07595,0.26581 -0.189847,0.79734 -0.07595,0.53159 -0.151884,1.10112 z m -2.468025,4.63231 q -0.227817,0 -0.531574,-0.0761 -0.265787,-0.11401 -0.569543,-0.30368 -0.455634,-0.41767 -0.607513,-0.83533 -0.113897,-0.41766 -0.113897,-0.9872 0.03797,-0.0759 0.03797,-0.26582 0.03797,-0.18971 0.113896,-0.64545 0.07593,-0.41769 0.151883,-0.87328 0.07596,-0.45566 0.151885,-0.98726 0.189846,-0.98719 0.341725,-1.8605 0.151882,-0.91126 0.189846,-1.21503 0.189847,-0.98722 0.797362,-1.29099 0.607514,-0.30369 0.987208,-0.30369 h 6.644683 q 0.797362,0 1.290966,0.6075 0.531575,0.60752 0.531575,1.36691 0,0.0378 -0.03797,0.22795 0,0.18971 -0.03797,0.22791 0,0.15186 -0.03797,0.34174 0,0.15185 -0.03797,0.34174 -0.189847,1.21499 -0.417666,2.46801 -0.189847,1.21503 -0.455636,2.43006 -0.151884,0.9872 -0.75939,1.32894 -0.607514,0.30368 -1.02518,0.30368 z m 29.806168,13.59312 h -3.721021 q -0.341728,0 -0.493606,0.114 -0.151883,0.11399 -0.227816,0.45564 h 16.782563 l -1.025179,7.10031 H 15.621202 l 4.518383,-26.65467 h 10.783369 z m 13.858951,2.84768 q 0,-0.18971 0,-0.41765 0.03797,-0.22793 0.07596,-0.41764 l 3.569142,-20.9972 h 10.327735 l -0.113895,0.72141 q -0.03797,0.2658 -0.189858,1.21505 -0.151882,0.91125 -0.379697,2.2402 -0.227835,1.32892 -0.531573,2.96162 -0.26578,1.59472 -0.569545,3.22741 -0.265779,1.67066 -0.531573,3.22743 -0.26578,1.55672 -0.493605,2.77178 -0.189857,1.17704 -0.341726,1.93645 -0.113895,0.72142 -0.113895,0.75938 0,0.22792 0.26578,0.37968 0.265782,0.11402 0.455637,0.11402 h 7.138281 l 3.303356,-19.55437 h 10.327732 l -4.518384,26.65466 H 46.224764 q -0.569546,0 -1.366907,-0.22794 -0.797362,-0.26582 -1.556755,-0.79736 -0.72142,-0.56956 -1.252997,-1.48082 -0.531574,-0.94925 -0.531574,-2.31617 z m 45.753335,-14.73219 -2.126287,12.45405 h 7.48 l 0.645484,-3.11351 h -4.442445 l 1.290966,-7.10032 h 14.656268 l -2.35412,13.32733 q -0.18985,1.13908 -0.72142,1.89847 -0.53157,0.7594 -1.21503,1.21503 -0.683449,0.45567 -1.404867,0.68345 -0.721427,0.18974 -1.29097,0.18974 H 79.220309 q -0.569544,0 -1.366904,-0.22794 -0.797364,-0.26582 -1.556758,-0.79738 -0.721419,-0.56954 -1.252995,-1.48082 -0.531574,-0.94926 -0.531574,-2.31617 0,-0.1897 0,-0.41766 0.03797,-0.22793 0.07593,-0.41763 l 2.885689,-17.01042 q 0.189857,-1.13907 0.721424,-1.89846 0.531574,-0.75941 1.215026,-1.21503 0.683453,-0.45564 1.404877,-0.64549 0.72142,-0.22795 1.290965,-0.22795 h 24.186631 l -1.21503,7.10031 z m 19.022766,19.55434 7.2522,-26.65464 h 14.54236 q 0.56955,0 1.32894,0.22793 0.75939,0.18971 1.48081,0.72145 0.72142,0.49357 1.253,1.32893 0.53157,0.79734 0.64548,2.01236 l 2.27818,22.36412 h -9.8721 l -0.3797,-3.83492 h -7.55595 l -1.06315,3.83492 z m 17.80775,-10.93524 -0.83533,-8.16347 q -0.038,-0.15184 -0.22783,-0.30368 -0.18986,-0.15186 -0.49361,-0.15186 h -0.98721 l -2.35412,8.61911 z m 13.25142,10.93524 4.51838,-26.65464 h 22.09833 q 0.56954,0 1.36689,0.26581 0.83534,0.22794 1.55677,0.79736 0.75938,0.53156 1.25298,1.48082 0.53158,0.91127 0.53158,2.27819 0,0.18973 0,0.41766 0,0.22793 -0.0758,0.41765 l -1.67066,9.79617 q -0.15188,1.02516 -0.60753,1.74658 -0.45563,0.72146 -1.06315,1.1771 -0.6075,0.45562 -1.29094,0.7214 -0.6455,0.22796 -1.21505,0.3037 l 1.48083,7.25219 h -9.45446 l -1.48081,-7.21424 h -4.40448 l -1.21502,7.21424 z m 19.17465,-14.31454 q 0.30376,0 0.4936,-0.15183 0.18986,-0.15185 0.22785,-0.30369 0.0379,-0.22793 0.15188,-0.8733 0.11389,-0.68344 0.2278,-1.44285 0.18985,-0.75939 0.2278,-1.3669 0.0379,-0.15184 0.0379,-0.26581 0.0379,-0.114 0.0379,-0.22793 0.0379,-0.0378 0.0379,-0.0757 v -0.0378 q 0,-0.22794 -0.26578,-0.34172 -0.26577,-0.15186 -0.45563,-0.15186 h -6.22702 l -0.91127,5.23982 z"
       id="text7"
       style="font-weight:bold;font-size:12.7px;font-family:'Cross Boxed';-inkscape-font-specification:'Cross Boxed Bold';text-align:center;text-anchor:middle;stroke-width:0.298973"
       aria-label="1º Lugar" />
    <rect
       style="fill:#1a1a1a;stroke:#000000;stroke-width:0.0286353"
       id="rect2"
       width="70"
       height="3"
       x="38.625977"
       y="400.13065" />
    <path
       d="m -221.32328,485.29611 1.14157,-6.67104 h 14.0199 q 0.28539,0 0.46376,-0.10702 0.17837,-0.1427 0.21405,-0.32107 0.0357,-0.17837 0.0713,-0.53511 0.0713,-0.39242 0.1427,-0.78483 0.0713,-0.17837 0.0713,-0.35674 0.0357,-0.21405 0.0713,-0.39242 0,-0.0713 0,-0.10702 0.0357,-0.0714 0.0357,-0.14269 v -0.10703 q 0,-0.0713 -0.0357,-0.14269 0,-0.0713 -0.1427,-0.1427 -0.10702,-0.10702 -0.24972,-0.1427 -0.14269,-0.0357 -0.24972,-0.0357 h -9.77468 l 0.99887,-5.85054 h 9.2039 q 0.2854,0 0.42809,-0.1427 0.17837,-0.1427 0.24972,-0.32108 0.0357,-0.17836 0.0713,-0.3924 0.0357,-0.21405 0.0713,-0.49944 0.10702,-0.53511 0.10702,-0.71348 0,-0.0713 -0.0357,-0.1427 0,-0.0713 -0.14269,-0.14269 -0.10702,-0.10702 -0.24972,-0.1427 -0.1427,-0.0357 -0.24972,-0.0357 h -13.09237 l 1.10589,-6.67104 h 18.37214 q 0.53511,0 1.28426,0.24972 0.78483,0.21405 1.46264,0.74916 0.71348,0.49943 1.17724,1.39128 0.49944,0.85618 0.49944,2.14045 0,0.39241 -0.0713,0.9632 -0.0357,0.57078 -0.10702,1.10589 -0.0713,0.57079 -0.1427,1.1059 -0.0713,0.5351 -0.1427,0.92752 -0.21404,1.53399 -1.10589,2.39016 -0.89185,0.82051 -1.9264,1.21292 0.1427,0.0713 0.24972,0.17836 0.1427,0.0713 0.24972,0.17837 0.60646,0.42809 1.07022,1.14157 0.49944,0.71348 0.49944,1.81938 0,0.39242 -0.10703,1.17724 -0.10702,0.78484 -0.24972,1.60533 -0.10702,0.82051 -0.24971,1.60535 -0.10703,0.78481 -0.17837,1.17723 -0.1427,1.10589 -0.64214,1.85506 -0.49943,0.74914 -1.14157,1.21291 -0.64213,0.46376 -1.35561,0.6778 -0.67781,0.17837 -1.24859,0.17837 z m 31.82122,-24.3297 q -0.0713,0.32107 -0.10702,0.64214 -0.0357,0.28539 -0.10702,0.5351 0,0.0713 -0.0357,0.1427 0,0.0357 0,0.10703 h 2.42584 q 0.17837,-0.71348 0.28539,-1.46264 0.1427,-0.74915 0.21404,-1.49832 0.0357,-0.0713 0.0357,-0.10701 0,-0.0713 0.0357,-0.1427 h -2.42583 q -0.0713,0.24972 -0.17837,0.74916 -0.0713,0.49943 -0.1427,1.03454 z m -2.31881,4.35224 q -0.21405,0 -0.49944,-0.0713 -0.24972,-0.10702 -0.53511,-0.28539 -0.42809,-0.39242 -0.57078,-0.78483 -0.10703,-0.39242 -0.10703,-0.92753 0.0357,-0.0713 0.0357,-0.24972 0.0357,-0.17837 0.10702,-0.60645 0.0714,-0.39243 0.1427,-0.82052 0.0713,-0.42809 0.14269,-0.92751 0.17837,-0.92754 0.32107,-1.74803 0.1427,-0.85618 0.17837,-1.14157 0.17837,-0.92753 0.74915,-1.21292 0.57079,-0.28539 0.92753,-0.28539 h 6.24296 q 0.74915,0 1.21292,0.57078 0.49943,0.57079 0.49943,1.28427 0,0.0357 -0.0357,0.21404 0,0.17837 -0.0357,0.21405 0,0.14269 -0.0357,0.32107 0,0.14269 -0.0357,0.32106 -0.17837,1.14157 -0.39242,2.31881 -0.17837,1.14157 -0.42809,2.28314 -0.14269,0.92752 -0.71348,1.2486 -0.57078,0.28539 -0.9632,0.28539 z m 28.00415,12.77131 h -3.49605 q -0.32107,0 -0.46377,0.10701 -0.14269,0.10703 -0.21404,0.42809 h 15.76793 l -0.9632,6.67105 h -21.93954 l 4.24521,-25.04318 h 10.13143 z m 13.02109,2.67554 q 0,-0.17836 0,-0.3924 0.0357,-0.21405 0.0713,-0.39242 l 3.35336,-19.72775 h 9.70335 l -0.10703,0.67781 q -0.0357,0.24972 -0.17837,1.14157 -0.14269,0.85618 -0.35674,2.10476 -0.21404,1.2486 -0.49943,2.78258 -0.24972,1.4983 -0.53511,3.0323 -0.24972,1.56966 -0.49944,3.03229 -0.24972,1.46264 -0.46376,2.60421 -0.17837,1.10589 -0.32107,1.81937 -0.10702,0.67781 -0.10702,0.71348 0,0.21405 0.24972,0.35675 0.24971,0.10701 0.42808,0.10701 h 6.70672 l 3.10365,-18.37213 h 9.70334 l -4.24521,25.04318 h -21.5828 q -0.53511,0 -1.28427,-0.21405 -0.74915,-0.24972 -1.46263,-0.74915 -0.67781,-0.53512 -1.17725,-1.39129 -0.49943,-0.89185 -0.49943,-2.17612 z m 42.98719,-13.84152 -1.99774,11.70109 h 7.02778 l 0.60646,-2.92527 h -4.17386 l 1.21292,-6.67105 h 13.770181 l -2.21179,12.52159 q -0.17837,1.07022 -0.67781,1.7837 -0.49943,0.71348 -1.14157,1.14157 -0.64213,0.42809 -1.31994,0.64213 -0.6778,0.17837 -1.21291,0.17837 h -17.444611 q -0.53511,0 -1.28427,-0.21404 -0.74915,-0.24972 -1.46264,-0.74916 -0.6778,-0.53511 -1.17724,-1.39128 -0.49944,-0.89185 -0.49944,-2.17613 0,-0.17836 0,-0.3924 0.0357,-0.21405 0.0713,-0.39242 l 2.71123,-15.98197 q 0.17837,-1.07022 0.67781,-1.7837 0.49943,-0.71349 1.14157,-1.14157 0.64213,-0.42809 1.31994,-0.60647 0.6778,-0.21404 1.21291,-0.21404 h 22.724371 l -1.14157,6.67104 z m 17.872671,18.37213 6.81375,-25.04318 h 13.66316 q 0.53511,0 1.24859,0.21404 0.71348,0.17837 1.39129,0.67781 0.6778,0.46376 1.17724,1.2486 0.49944,0.74915 0.60646,1.89072 l 2.14044,21.012 h -9.27525 l -0.35674,-3.60307 h -7.09914 l -0.99887,3.60307 z m 16.73113,-10.27412 -0.78483,-7.66992 q -0.0357,-0.1427 -0.21404,-0.28539 -0.17837,-0.1427 -0.46376,-0.1427 h -0.92753 l -2.21179,8.09801 z m 12.45027,10.27412 4.24521,-25.04318 h 20.7623 q 0.53511,0 1.28426,0.24972 0.78483,0.21404 1.46264,0.74916 0.71348,0.49943 1.17724,1.39128 0.49944,0.85618 0.49944,2.14045 0,0.17837 0,0.3924 0,0.21406 -0.0713,0.39242 l -1.56966,9.2039 q -0.14269,0.96321 -0.57078,1.64102 -0.42809,0.67779 -0.99887,1.10588 -0.57079,0.42809 -1.21292,0.67781 -0.60646,0.21405 -1.14157,0.28539 l 1.39129,6.81375 h -8.88284 l -1.39129,-6.77806 h -4.13819 l -1.14157,6.77806 z m 18.0154,-13.44911 q 0.28539,0 0.46376,-0.1427 0.17837,-0.14269 0.21404,-0.28539 0.0357,-0.21405 0.1427,-0.82051 0.10702,-0.64213 0.21404,-1.35561 0.17837,-0.71348 0.21405,-1.28426 0.0357,-0.1427 0.0357,-0.24972 0.0357,-0.10703 0.0357,-0.21406 0.0357,-0.0357 0.0357,-0.0713 v -0.0357 q 0,-0.21404 -0.24972,-0.32105 -0.24972,-0.1427 -0.42809,-0.1427 h -5.85054 l -0.85618,4.92301 z"
       id="text9"
       style="font-weight:bold;font-size:12.7px;font-family:'Cross Boxed';-inkscape-font-specification:'Cross Boxed Bold';text-align:center;text-anchor:middle;stroke-width:0.280898"
       aria-label="3º Lugar" />
    <g
       id="text5-5"
       style="font-weight:bold;font-size:12.7px;font-family:'Cross Boxed';-inkscape-font-specification:'Cross Boxed Bold';text-align:end;text-anchor:end;stroke-width:0.1"
       aria-label="3ª Gincana INtegradora&#10;do IFG - 2026"
       transform="matrix(0.90767326,0,0,0.90767326,-212.53411,230.29515)">
      <path
         style="text-align:center;text-anchor:middle"
         d="m -4.0977946,218.0506 0.4064,-2.3749 h 4.9910999 q 0.1016,0 0.1651,-0.0381 0.0635,-0.0508 0.0762,-0.1143 0.0127,-0.0635 0.0254,-0.1905 0.0254,-0.1397 0.0508,-0.2794 0.0254,-0.0635 0.0254,-0.127 0.0127,-0.0762 0.0254,-0.1397 0,-0.0254 0,-0.0381 0.0127,-0.0254 0.0127,-0.0508 v -0.0381 q 0,-0.0254 -0.0127,-0.0508 0,-0.0254 -0.0508,-0.0508 -0.0381,-0.0381 -0.0889,-0.0508 -0.0508,-0.0127 -0.0889,-0.0127 h -3.4797999 l 0.3555999,-2.0828 h 3.2766 q 0.1016,0 0.1524,-0.0508 0.0635,-0.0508 0.0889,-0.1143 0.0127,-0.0635 0.0254,-0.1397 0.0127,-0.0762 0.0254,-0.1778 0.0381,-0.1905 0.0381,-0.254 0,-0.0254 -0.0127,-0.0508 0,-0.0254 -0.0508,-0.0508 -0.0381,-0.0381 -0.0889,-0.0508 -0.0508,-0.0127 -0.0889,-0.0127 h -4.6608999 l 0.3937,-2.3749 h 6.5404999 q 0.1905,0 0.4572,0.0889 0.2794,0.0762 0.5206999,0.2667 0.254,0.1778 0.4191,0.4953 0.1778,0.3048 0.1778,0.762 0,0.1397 -0.0254,0.3429 -0.0127,0.2032 -0.0381,0.3937 -0.0254,0.2032 -0.0508,0.3937 -0.0254,0.1905 -0.0508,0.3302 -0.0762,0.5461 -0.3937,0.8509 -0.3174999,0.2921 -0.6857999,0.4318 0.0508,0.0254 0.0889,0.0635 0.0508,0.0254 0.0889,0.0635 0.2159,0.1524 0.3809999,0.4064 0.1778,0.254 0.1778,0.6477 0,0.1397 -0.0381,0.4191 -0.0381,0.2794 -0.0889,0.5715 -0.0381,0.2921 -0.0889,0.5715 -0.0381,0.2794 -0.0635,0.4191 -0.0508,0.3937 -0.2285999,0.6604 -0.1778,0.2667 -0.4064,0.4318 -0.2286,0.1651 -0.4826,0.2413 -0.2413,0.0635 -0.4445,0.0635 z M 7.8782968,208.7542 H 6.0494969 l 0.1777999,-1.0414 h 2.4257 q 0.2667,0 0.4318,0.2032 0.1778,0.2032 0.1778,0.4572 0,0.0381 -0.0127,0.0762 v 0.0762 q -0.0127,0.0889 -0.0381,0.2286 -0.0635,0.4064 -0.1397,0.8255 -0.0635,0.4064 -0.1524,0.8128 -0.0508,0.3302 -0.254,0.4445 -0.2032,0.1016 -0.3429,0.1016 h -1.9177 q -0.0762,0 -0.1778,-0.0254 -0.0889,-0.0381 -0.1904999,-0.1016 -0.0889,-0.0762 -0.1651,-0.2032 -0.0762,-0.127 -0.0762,-0.3302 0,-0.1016 0.0127,-0.2413 0.0254,-0.1397 0.0508,-0.2794 0.0254,-0.1397 0.0508,-0.254 0.0254,-0.127 0.0381,-0.2159 0.0635,-0.3302 0.2666999,-0.4318 0.2032,-0.1016 0.3302,-0.1016 z m -0.1905,1.143 0.0127,-0.1016 h -0.508 q -0.0127,0.0254 -0.0127,0.0508 0,0.0254 -0.0127,0.0508 z m 4.3688012,6.5405 q 0,-0.0635 0,-0.1397 0.0127,-0.0762 0.0254,-0.1397 l 0.9652,-5.6896 q 0.0635,-0.381 0.2413,-0.635 0.1778,-0.254 0.4064,-0.4064 0.2286,-0.1524 0.4699,-0.2159 0.2413,-0.0762 0.4318,-0.0762 h 8.089899 l -0.4064,2.3749 h -7.200899 q -0.1016,0 -0.1651,0.0381 -0.0508,0.0381 -0.0762,0.1524 h 1.4605 l -0.6858,3.9751 h 2.5019 l 0.2159,-1.0414 h -1.4859 l 0.4318,-2.3749 h 4.902199 l -0.7874,4.4577 q -0.0635,0.381 -0.2413,0.635 -0.1778,0.254 -0.4064,0.4064 -0.2286,0.1524 -0.469899,0.2286 -0.2413,0.0635 -0.4318,0.0635 h -6.2103 q -0.1905,0 -0.4572,-0.0762 -0.2667,-0.0889 -0.5207,-0.2667 -0.2413,-0.1905 -0.4191,-0.4953 -0.1778,-0.3175 -0.1778,-0.7747 z m 16.129003,-7.3025 -1.524,8.9154 h -3.5941 l 1.5113,-8.9154 z m 1.89231,0 h 7.9756 q 0.1905,0 0.4572,0.0889 0.2794,0.0762 0.5207,0.2667 0.254,0.1778 0.4191,0.4953 0.1778,0.3048 0.1778,0.762 0,0.0635 -0.0127,0.1397 0,0.0762 -0.0127,0.1397 l -1.1938,7.0231 h -3.4544 l 0.0381,-0.2413 q 0.0254,-0.1016 0.0762,-0.4064 0.0635,-0.3048 0.1397,-0.7493 0.0762,-0.4445 0.1651,-0.9779 0.0889,-0.5461 0.1778,-1.0922 0.1016,-0.5588 0.1905,-1.0795 0.0889,-0.5207 0.1524,-0.9144 0.0762,-0.4064 0.1143,-0.6477 0.0381,-0.254 0.0381,-0.2667 0,-0.0762 -0.0889,-0.1143 -0.0889,-0.0508 -0.1524,-0.0508 h -2.667 l -1.1176,6.5405 h -3.4544 z m 18.186408,8.9154 h -6.8072 q -0.1905,0 -0.4572,-0.0762 -0.2667,-0.0889 -0.5207,-0.2667 -0.2413,-0.1905 -0.4191,-0.4953 -0.1778,-0.3175 -0.1778,-0.7747 0,-0.0635 0,-0.1397 0.0127,-0.0762 0.0254,-0.1397 l 0.9652,-5.6896 q 0.0635,-0.381 0.2413,-0.635 0.1778,-0.254 0.4064,-0.4064 0.2286,-0.1524 0.4699,-0.2159 0.2413,-0.0762 0.4318,-0.0762 h 7.3533 l -0.3937,2.3749 h -5.0165 q -0.1016,0 -0.1651,0.0508 -0.0635,0.0381 -0.0762,0.1016 -0.0127,0.0635 -0.0508,0.2667 -0.0254,0.1905 -0.0762,0.4699 -0.0508,0.2794 -0.1143,0.6223 -0.0508,0.3302 -0.1143,0.6731 -0.0508,0.3556 -0.1143,0.6858 -0.0508,0.3175 -0.1016,0.5715 -0.0381,0.2413 -0.0635,0.3937 -0.0254,0.1524 -0.0254,0.1651 0,0.0762 0.0889,0.127 0.0889,0.0381 0.1524,0.0381 h 4.9657 z m 1.269982,0 2.4257,-8.9154 h 4.8641 q 0.1905,0 0.4445,0.0762 0.254,0.0635 0.4953,0.2413 0.2413,0.1651 0.4191,0.4445 0.1778,0.2667 0.2159,0.6731 l 0.762,7.4803 h -3.302 l -0.127,-1.2827 h -2.5273 l -0.3556,1.2827 z m 5.9563,-3.6576 -0.2794,-2.7305 q -0.0127,-0.0508 -0.0762,-0.1016 -0.0635,-0.0508 -0.1651,-0.0508 h -0.3302 l -0.7874,2.8829 z m 5.943611,-5.2578 h 7.975599 q 0.1905,0 0.4572,0.0889 0.2794,0.0762 0.5207,0.2667 0.254,0.1778 0.4191,0.4953 0.1778,0.3048 0.1778,0.762 0,0.0635 -0.0127,0.1397 0,0.0762 -0.0127,0.1397 l -1.1938,7.0231 h -3.4544 l 0.0381,-0.2413 q 0.0254,-0.1016 0.0762,-0.4064 0.0635,-0.3048 0.1397,-0.7493 0.0762,-0.4445 0.1651,-0.9779 0.0889,-0.5461 0.1778,-1.0922 0.1016,-0.5588 0.1905,-1.0795 0.0889,-0.5207 0.1524,-0.9144 0.0762,-0.4064 0.1143,-0.6477 0.0381,-0.254 0.0381,-0.2667 0,-0.0762 -0.0889,-0.1143 -0.0889,-0.0508 -0.1524,-0.0508 h -2.667 l -1.117599,6.5405 h -3.4544 z m 9.804404,8.9154 2.4257,-8.9154 h 4.8641 q 0.1905,0 0.4445,0.0762 0.254,0.0635 0.4953,0.2413 0.2413,0.1651 0.4191,0.4445 0.1778,0.2667 0.2159,0.6731 l 0.762,7.4803 h -3.302 l -0.127,-1.2827 h -2.5273 l -0.3556,1.2827 z m 5.9563,-3.6576 -0.2794,-2.7305 q -0.0127,-0.0508 -0.0762,-0.1016 -0.0635,-0.0508 -0.1651,-0.0508 h -0.3302 l -0.7874,2.8829 z m 10.185408,3.6576 h -3.5941 l 1.5113,-8.9154 h 3.6068 l -0.4064,2.3749 h -1.2446 q -0.1016,0 -0.1524,0.0381 -0.0508,0.0254 -0.0889,0.1524 h 1.4478 z m 3.416314,-8.9154 h 7.9756 q 0.1905,0 0.4572,0.0889 0.2794,0.0762 0.5207,0.2667 0.254002,0.1778 0.419102,0.4953 0.1778,0.3048 0.1778,0.762 0,0.0635 -0.0127,0.1397 0,0.0762 -0.0127,0.1397 l -1.193802,7.0231 h -3.4544 l 0.0381,-0.2413 q 0.0254,-0.1016 0.0762,-0.4064 0.0635,-0.3048 0.1397,-0.7493 0.0762,-0.4445 0.1651,-0.9779 0.0889,-0.5461 0.1778,-1.0922 0.1016,-0.5588 0.1905,-1.0795 0.0889,-0.5207 0.1524,-0.9144 0.0762,-0.4064 0.1143,-0.6477 0.0381,-0.254 0.0381,-0.2667 0,-0.0762 -0.0889,-0.1143 -0.0889,-0.0508 -0.1524,-0.0508 h -3.9116 q -0.1143,0 -0.1651,0.0381 -0.0508,0.0381 -0.0762,0.1524 h 1.4478 l -1.0795,6.35 h -3.4544 z m 10.058412,2.3749 0.4064,-2.3749 h 9.2075 l -0.4064,2.3749 h -2.8321 l -1.1049,6.5405 h -3.4544 l 1.1176,-6.5405 z m 13.09369,3.1242 q -0.0254,0.0889 -0.0381,0.2032 -0.0127,0.1016 -0.0381,0.2032 -0.0127,0.0889 -0.0254,0.1778 -0.0127,0.0762 -0.0254,0.1397 0,0.0254 -0.0127,0.0889 0,0.0508 -0.0127,0.0635 0,0.0762 0.0889,0.127 0.0889,0.0381 0.1524,0.0381 h 4.6736 l -0.4064,2.3749 h -6.5151 q -0.1905,0 -0.4572,-0.0762 -0.2667,-0.0889 -0.5207,-0.2667 -0.2413,-0.1905 -0.4191,-0.4953 -0.1778,-0.3175 -0.1778,-0.7747 0,-0.0635 0,-0.1397 0.0127,-0.0762 0.0254,-0.1397 l 0.9652,-5.6896 q 0.0635,-0.381 0.2413,-0.635 0.1778,-0.254 0.4064,-0.4064 0.2286,-0.1524 0.4699,-0.2159 0.2413,-0.0762 0.4318,-0.0762 h 7.0739 l -0.4064,2.3749 h -4.7244 q -0.1016,0 -0.1651,0.0508 -0.0635,0.0381 -0.0762,0.1016 l -0.1016,0.5969 h 4.0894 l -0.4318,2.3749 z m 10.40131,-3.1242 -0.7112,4.1656 h 2.5019 l 0.2159,-1.0414 h -1.4859 l 0.4318,-2.3749 h 4.9022 l -0.7874,4.4577 q -0.0635,0.381 -0.2413,0.635 -0.1778,0.254 -0.4064,0.4064 -0.2286,0.1524 -0.4699,0.2286 -0.2413,0.0635 -0.4318,0.0635 h -6.2103 q -0.1905,0 -0.4572,-0.0762 -0.2667,-0.0889 -0.5207,-0.2667 -0.2413,-0.1905 -0.4191,-0.4953 -0.1778,-0.3175 -0.1778,-0.7747 0,-0.0635 0,-0.1397 0.0127,-0.0762 0.0254,-0.1397 l 0.9652,-5.6896 q 0.0635,-0.381 0.2413,-0.635 0.1778,-0.254 0.4064,-0.4064 0.2286,-0.1524 0.4699,-0.2159 0.2413,-0.0762 0.4318,-0.0762 h 8.0899 l -0.4064,2.3749 z m 6.6167,6.5405 1.5113,-8.9154 h 7.3914 q 0.1905,0 0.4572,0.0889 0.2794,0.0762 0.5207,0.2667 0.254,0.1778 0.4191,0.4953 0.1778,0.3048 0.1778,0.762 0,0.0635 0,0.1397 0,0.0762 -0.0254,0.1397 l -0.5588,3.2766 q -0.0508,0.3429 -0.2032,0.5842 -0.1524,0.2413 -0.3556,0.3937 -0.2032,0.1524 -0.4318,0.2413 -0.2159,0.0762 -0.4064,0.1016 l 0.4953,2.4257 h -3.1623 l -0.4953,-2.413 h -1.4732 l -0.4064,2.413 z m 6.4135,-4.7879 q 0.1016,0 0.1651,-0.0508 0.0635,-0.0508 0.0762,-0.1016 0.0127,-0.0762 0.0508,-0.2921 0.0381,-0.2286 0.0762,-0.4826 0.0635,-0.254 0.0762,-0.4572 0.0127,-0.0508 0.0127,-0.0889 0.0127,-0.0381 0.0127,-0.0762 0.0127,-0.0127 0.0127,-0.0254 v -0.0127 q 0,-0.0762 -0.0889,-0.1143 -0.0889,-0.0508 -0.1524,-0.0508 h -2.0828 l -0.3048,1.7526 z m 4.06399,4.7879 2.4257,-8.9154 h 4.8641 q 0.1905,0 0.4445,0.0762 0.254,0.0635 0.4953,0.2413 0.2413,0.1651 0.4191,0.4445 0.1778,0.2667 0.2159,0.6731 l 0.762,7.4803 h -3.302 l -0.127,-1.2827 h -2.5273 l -0.3556,1.2827 z m 5.9563,-3.6576 -0.2794,-2.7305 q -0.0127,-0.0508 -0.0762,-0.1016 -0.0635,-0.0508 -0.1651,-0.0508 h -0.3302 l -0.7874,2.8829 z m 11.26491,-2.8194 q -0.0381,-0.0381 -0.0889,-0.0508 -0.0508,-0.0127 -0.0889,-0.0127 h -2.0828 l -0.7112,4.1656 h 2.1463 q 0.1016,0 0.1524,-0.0381 0.0635,-0.0508 0.0762,-0.1143 0.0127,-0.0635 0.0508,-0.254 0.0381,-0.2032 0.0762,-0.4826 0.0508,-0.2794 0.1143,-0.6096 0.0635,-0.3429 0.1143,-0.6858 0.0635,-0.3556 0.1143,-0.6731 0.0635,-0.3302 0.1016,-0.5715 0.0381,-0.254 0.0635,-0.4064 0.0254,-0.1524 0.0254,-0.1651 0,-0.0508 -0.0635,-0.1016 z m 3.6449,-0.8255 q 0,0.0635 0,0.1397 0,0.0762 -0.0254,0.1397 l -0.9652,5.6896 q -0.0635,0.381 -0.2413,0.635 -0.1778,0.254 -0.4064,0.4064 -0.2286,0.1524 -0.4699,0.2286 -0.2413,0.0635 -0.4318,0.0635 h -7.9375 l 1.5113,-8.9154 h 7.3914 q 0.1905,0 0.4572,0.0889 0.2794,0.0762 0.5207,0.2667 0.254,0.1778 0.4191,0.4953 0.1778,0.3048 0.1778,0.762 z m 4.64819,0.9144 q -0.0127,0.0635 -0.0508,0.2667 -0.0254,0.1905 -0.0762,0.4699 -0.0381,0.2794 -0.1016,0.6223 -0.0508,0.3302 -0.1143,0.6731 -0.0508,0.3556 -0.1143,0.6858 -0.0508,0.3175 -0.0889,0.5715 -0.0381,0.2413 -0.0635,0.3937 -0.0254,0.1524 -0.0254,0.1651 0,0.0254 0,0.0508 0.0127,0.0254 0.0635,0.0508 0.0381,0.0381 0.0889,0.0508 0.0508,0.0127 0.0762,0.0127 h 2.6416 q 0.1016,0 0.1651,-0.0381 0.0635,-0.0508 0.0762,-0.1143 0.0127,-0.0635 0.0381,-0.254 0.0381,-0.2032 0.0889,-0.4826 0.0508,-0.2794 0.1016,-0.6096 0.0635,-0.3429 0.1143,-0.6858 0.0635,-0.3556 0.1143,-0.6731 0.0635,-0.3302 0.1016,-0.5715 0.0381,-0.254 0.0635,-0.4064 0.0254,-0.1524 0.0254,-0.1651 0,-0.0508 -0.0635,-0.1016 -0.0381,-0.0381 -0.0889,-0.0508 -0.0508,-0.0127 -0.0889,-0.0127 h -2.6416 q -0.1016,0 -0.1651,0.0508 -0.0635,0.0381 -0.0762,0.1016 z m 5.0419,-2.5273 q 0.1905,0 0.4572,0.0889 0.2794,0.0762 0.5207,0.2667 0.254,0.1778 0.4191,0.4953 0.1778,0.3048 0.1778,0.762 0,0.0635 0,0.1397 0,0.0762 -0.0127,0.1397 l -0.9779,5.6896 q -0.0635,0.381 -0.2413,0.635 -0.1778,0.254 -0.4064,0.4064 -0.2286,0.1524 -0.4699,0.2286 -0.2413,0.0635 -0.4318,0.0635 h -6.6421 q -0.1905,0 -0.4572,-0.0762 -0.2667,-0.0889 -0.5207,-0.2667 -0.2413,-0.1905 -0.4191,-0.4953 -0.1778,-0.3175 -0.1778,-0.7747 0,-0.0635 0,-0.1397 0.0127,-0.0762 0.0254,-0.1397 l 0.9652,-5.6896 q 0.0635,-0.381 0.2413,-0.635 0.1778,-0.254 0.4064,-0.4064 0.2286,-0.1524 0.4699,-0.2159 0.2413,-0.0762 0.4318,-0.0762 z m 1.84151,8.9154 1.5113,-8.9154 h 7.3914 q 0.1905,0 0.4572,0.0889 0.2794,0.0762 0.5207,0.2667 0.254,0.1778 0.4191,0.4953 0.1778,0.3048 0.1778,0.762 0,0.0635 0,0.1397 0,0.0762 -0.0254,0.1397 l -0.5588,3.2766 q -0.0508,0.3429 -0.2032,0.5842 -0.1524,0.2413 -0.3556,0.3937 -0.2032,0.1524 -0.4318,0.2413 -0.2159,0.0762 -0.4064,0.1016 l 0.4953,2.4257 h -3.1623 l -0.4953,-2.413 h -1.4732 l -0.4064,2.413 z m 6.4135,-4.7879 q 0.1016,0 0.1651,-0.0508 0.0635,-0.0508 0.0762,-0.1016 0.0127,-0.0762 0.0508,-0.2921 0.0381,-0.2286 0.0762,-0.4826 0.0635,-0.254 0.0762,-0.4572 0.0127,-0.0508 0.0127,-0.0889 0.0127,-0.0381 0.0127,-0.0762 0.0127,-0.0127 0.0127,-0.0254 v -0.0127 q 0,-0.0762 -0.0889,-0.1143 -0.0889,-0.0508 -0.1524,-0.0508 h -2.0828 l -0.3048,1.7526 z m 4.06398,4.7879 2.4257,-8.9154 h 4.8641 q 0.1905,0 0.4445,0.0762 0.254,0.0635 0.4953,0.2413 0.2413,0.1651 0.4191,0.4445 0.1778,0.2667 0.2159,0.6731 l 0.762,7.4803 h -3.302 l -0.127,-1.2827 h -2.5273 l -0.3556,1.2827 z m 5.9563,-3.6576 -0.2794,-2.7305 q -0.0127,-0.0508 -0.0762,-0.1016 -0.0635,-0.0508 -0.1651,-0.0508 h -0.3302 l -0.7874,2.8829 z"
         id="path9-9" />
      <path
         style="text-align:center;text-anchor:middle"
         d="m 50.518528,227.4486 q -0.0381,-0.0381 -0.0889,-0.0508 -0.0508,-0.0127 -0.0889,-0.0127 h -2.0828 l -0.7112,4.1656 h 2.1463 q 0.1016,0 0.1524,-0.0381 0.0635,-0.0508 0.0762,-0.1143 0.0127,-0.0635 0.0508,-0.254 0.0381,-0.2032 0.0762,-0.4826 0.0508,-0.2794 0.1143,-0.6096 0.0635,-0.3429 0.1143,-0.6858 0.0635,-0.3556 0.1143,-0.6731 0.0635,-0.3302 0.1016,-0.5715 0.0381,-0.254 0.0635,-0.4064 0.0254,-0.1524 0.0254,-0.1651 0,-0.0508 -0.0635,-0.1016 z m 3.6449,-0.8255 q 0,0.0635 0,0.1397 0,0.0762 -0.0254,0.1397 l -0.9652,5.6896 q -0.0635,0.381 -0.2413,0.635 -0.1778,0.254 -0.4064,0.4064 -0.2286,0.1524 -0.4699,0.2286 -0.2413,0.0635 -0.4318,0.0635 h -7.9375 l 1.5113,-8.9154 h 7.3914 q 0.1905,0 0.4572,0.0889 0.2794,0.0762 0.5207,0.2667 0.254,0.1778 0.4191,0.4953 0.1778,0.3048 0.1778,0.762 z m 4.648196,0.9144 q -0.0127,0.0635 -0.0508,0.2667 -0.0254,0.1905 -0.0762,0.4699 -0.0381,0.2794 -0.1016,0.6223 -0.0508,0.3302 -0.1143,0.6731 -0.0508,0.3556 -0.1143,0.6858 -0.0508,0.3175 -0.0889,0.5715 -0.0381,0.2413 -0.0635,0.3937 -0.0254,0.1524 -0.0254,0.1651 0,0.0254 0,0.0508 0.0127,0.0254 0.0635,0.0508 0.0381,0.0381 0.0889,0.0508 0.0508,0.0127 0.0762,0.0127 h 2.6416 q 0.1016,0 0.1651,-0.0381 0.0635,-0.0508 0.0762,-0.1143 0.0127,-0.0635 0.0381,-0.254 0.0381,-0.2032 0.0889,-0.4826 0.0508,-0.2794 0.1016,-0.6096 0.0635,-0.3429 0.1143,-0.6858 0.0635,-0.3556 0.1143,-0.6731 0.0635,-0.3302 0.1016,-0.5715 0.0381,-0.254 0.0635,-0.4064 0.0254,-0.1524 0.0254,-0.1651 0,-0.0508 -0.0635,-0.1016 -0.0381,-0.0381 -0.0889,-0.0508 -0.0508,-0.0127 -0.0889,-0.0127 h -2.6416 q -0.1016,0 -0.1651,0.0508 -0.0635,0.0381 -0.0762,0.1016 z m 5.0419,-2.5273 q 0.1905,0 0.4572,0.0889 0.2794,0.0762 0.5207,0.2667 0.254,0.1778 0.4191,0.4953 0.1778,0.3048 0.1778,0.762 0,0.0635 0,0.1397 0,0.0762 -0.0127,0.1397 l -0.9779,5.6896 q -0.0635,0.381 -0.2413,0.635 -0.1778,0.254 -0.4064,0.4064 -0.2286,0.1524 -0.4699,0.2286 -0.2413,0.0635 -0.4318,0.0635 h -6.642099 q -0.1905,0 -0.4572,-0.0762 -0.2667,-0.0889 -0.5207,-0.2667 -0.2413,-0.1905 -0.4191,-0.4953 -0.1778,-0.3175 -0.1778,-0.7747 0,-0.0635 0,-0.1397 0.0127,-0.0762 0.0254,-0.1397 l 0.9652,-5.6896 q 0.0635,-0.381 0.2413,-0.635 0.1778,-0.254 0.4064,-0.4064 0.2286,-0.1524 0.4699,-0.2159 0.2413,-0.0762 0.4318,-0.0762 z m 8.102611,8.9154 h -3.5941 l 1.5113,-8.9154 h 3.6068 l -0.4064,2.3749 h -1.2446 q -0.1016,0 -0.1524,0.0381 -0.0508,0.0254 -0.0889,0.1524 h 1.4478 z m 5.23241,-6.5405 q -0.1143,0 -0.1651,0.0381 -0.0508,0.0381 -0.0762,0.1524 h 1.4478 l -0.2667,1.5621 h 4.0513 l -0.4445,2.3749 h -4.0132 l -0.4064,2.413 h -3.4544 l 1.2954,-7.5819 q 0.0635,-0.381 0.2413,-0.635 0.1778,-0.254 0.4064,-0.4064 0.2286,-0.1524 0.4699,-0.2159 0.2413,-0.0762 0.4318,-0.0762 h 6.7691 l -0.4064,2.3749 z m 6.540504,4.9276 q 0,-0.0635 0,-0.1397 0.0127,-0.0762 0.0254,-0.1397 l 0.9652,-5.6896 q 0.0635,-0.381 0.2413,-0.635 0.1778,-0.254 0.4064,-0.4064 0.2286,-0.1524 0.4699,-0.2159 0.2413,-0.0762 0.4318,-0.0762 h 8.0899 l -0.4064,2.3749 h -7.2009 q -0.1016,0 -0.1651,0.0381 -0.0508,0.0381 -0.0762,0.1524 h 1.4605 l -0.6858,3.9751 h 2.5019 l 0.2159,-1.0414 h -1.4859 l 0.4318,-2.3749 h 4.9022 l -0.7874,4.4577 q -0.0635,0.381 -0.2413,0.635 -0.1778,0.254 -0.4064,0.4064 -0.2286,0.1524 -0.4699,0.2286 -0.2413,0.0635 -0.4318,0.0635 h -6.2103 q -0.1905,0 -0.4572,-0.0762 -0.2667,-0.0889 -0.5207,-0.2667 -0.2413,-0.1905 -0.4191,-0.4953 -0.1778,-0.3175 -0.1778,-0.7747 z m 19.850121,-4.0259 -0.4064,2.3622 h -6.019805 l 0.4064,-2.3622 z m 2.79402,5.6388 0.762,-4.4577 q 0.0635,-0.381 0.2413,-0.635 0.1778,-0.254 0.4064,-0.4064 0.2286,-0.1524 0.4699,-0.2159 0.2413,-0.0762 0.4318,-0.0762 h 3.4036 q 0.1016,0 0.1524,-0.0381 0.0635,-0.0508 0.0762,-0.1143 0.0127,-0.0635 0.0254,-0.1143 0.0127,-0.0635 0.0254,-0.127 0.0254,-0.0635 0.0254,-0.1143 0,-0.0508 0,-0.0762 0,-0.0254 -0.0127,-0.0508 0,-0.0254 -0.0508,-0.0508 -0.0381,-0.0381 -0.0889,-0.0508 -0.0508,-0.0127 -0.0889,-0.0127 h -4.6609 l 0.3937,-2.3749 h 6.5151 q 0.1905,0 0.4572,0.0889 0.2794,0.0762 0.5207,0.2667 0.254,0.1778 0.4318,0.4953 0.1778,0.3048 0.1778,0.762 0,0.0635 -0.0127,0.1397 0,0.0762 -0.0127,0.1397 l -0.3937,2.2733 q -0.0635,0.381 -0.2413,0.635 -0.1778,0.254 -0.4064,0.4064 -0.2286,0.1524 -0.4699,0.2286 -0.2413,0.0635 -0.4318,0.0635 h -3.4036 q -0.1016,0 -0.1651,0.0508 -0.0635,0.0508 -0.0635,0.1016 l -0.1524,0.889 h 4.9276 l -0.3937,2.3749 z m 11.44271,0 q -0.1905,0 -0.4572,-0.0762 -0.2667,-0.0889 -0.5207,-0.2667 -0.2413,-0.1905 -0.4191,-0.4953 -0.1778,-0.3175 -0.1778,-0.7747 0,-0.0635 0,-0.1397 0.0127,-0.0762 0.0254,-0.1397 l 0.9652,-5.6896 q 0.0635,-0.381 0.2413,-0.635 0.1778,-0.254 0.4064,-0.4064 0.2286,-0.1524 0.4699,-0.2159 0.2413,-0.0762 0.4318,-0.0762 h 6.0706 q 0.1905,0 0.4572,0.0889 0.2794,0.0762 0.5207,0.2667 0.254,0.1778 0.4191,0.4953 0.1778,0.3048 0.1778,0.762 0,0.0635 -0.0127,0.1397 0,0.0762 -0.0127,0.1397 l -0.9652,5.6896 q -0.0635,0.381 -0.254,0.635 -0.1778,0.254 -0.4064,0.4064 -0.2286,0.1524 -0.4699,0.2286 -0.2413,0.0635 -0.4318,0.0635 z m 2.4638,-2.3749 h 1.778 q 0.0889,0 0.1524,-0.0381 0.0635,-0.0508 0.0762,-0.1143 l 0.5588,-2.5908 z m 2.2606,-4.1656 h -1.9304 q -0.0889,0 -0.1524,0.0508 -0.0635,0.0381 -0.0762,0.1016 l -0.5588,2.7432 z m 4.1402,6.5405 0.762,-4.4577 q 0.0635,-0.381 0.2413,-0.635 0.1778,-0.254 0.4064,-0.4064 0.2286,-0.1524 0.4699,-0.2159 0.2413,-0.0762 0.4318,-0.0762 h 3.4036 q 0.1016,0 0.1524,-0.0381 0.0635,-0.0508 0.0762,-0.1143 0.0127,-0.0635 0.0254,-0.1143 0.0127,-0.0635 0.0254,-0.127 0.0254,-0.0635 0.0254,-0.1143 0,-0.0508 0,-0.0762 0,-0.0254 -0.0127,-0.0508 0,-0.0254 -0.0508,-0.0508 -0.0381,-0.0381 -0.0889,-0.0508 -0.0508,-0.0127 -0.0889,-0.0127 h -4.6609 l 0.3937,-2.3749 h 6.5151 q 0.1905,0 0.4572,0.0889 0.2794,0.0762 0.5207,0.2667 0.254,0.1778 0.4318,0.4953 0.1778,0.3048 0.1778,0.762 0,0.0635 -0.0127,0.1397 0,0.0762 -0.0127,0.1397 l -0.3937,2.2733 q -0.0635,0.381 -0.2413,0.635 -0.1778,0.254 -0.4064,0.4064 -0.2286,0.1524 -0.4699,0.2286 -0.2413,0.0635 -0.4318,0.0635 h -3.4036 q -0.1016,0 -0.1651,0.0508 -0.0635,0.0508 -0.0635,0.1016 l -0.1524,0.889 h 4.9276 l -0.3937,2.3749 z m 11.44271,0 q -0.1905,0 -0.4572,-0.0762 -0.2667,-0.0889 -0.5207,-0.2667 -0.2413,-0.1905 -0.4191,-0.4953 -0.1778,-0.3175 -0.1778,-0.7747 0,-0.0635 0,-0.1397 0.0127,-0.0762 0.0254,-0.1397 l 0.9652,-5.6896 q 0.0635,-0.381 0.2413,-0.635 0.1778,-0.254 0.4064,-0.4064 0.2286,-0.1524 0.4699,-0.2159 0.2413,-0.0762 0.4318,-0.0762 h 7.0739 l -0.4064,2.3749 h -4.7244 q -0.1016,0 -0.1651,0.0508 -0.0635,0.0381 -0.0762,0.1016 l -0.1016,0.5969 h 3.302 q 0.1905,0 0.4572,0.0889 0.2794,0.0762 0.5207,0.2667 0.254,0.1905 0.4191,0.4953 0.1778,0.3048 0.1778,0.762 0,0.0762 0,0.1524 0,0.0635 -0.0254,0.127 l -0.4318,2.5654 q -0.0635,0.381 -0.2413,0.635 -0.1778,0.254 -0.4064,0.4064 -0.2286,0.1524 -0.4699,0.2286 -0.2413,0.0635 -0.4318,0.0635 z m 2.159,-3.4163 -0.1778,1.0414 h 1.524 q 0.1016,0 0.1524,-0.0381 0.0635,-0.0508 0.0762,-0.1143 l 0.1143,-0.6096 q 0.0127,-0.0635 0.0127,-0.1143 0,-0.0254 -0.0127,-0.0508 0,-0.0254 -0.0508,-0.0508 -0.0889,-0.0635 -0.1778,-0.0635 z"
         id="path10-2" />
    </g>
    <rect
       style="fill:#1a1a1a;stroke:#000000;stroke-width:0.0286353"
       id="rect2-9"
       width="70"
       height="3"
       x="-161.37402"
       y="400.13065" />
    <rect
       style="fill:#1a1a1a;stroke:#000000;stroke-width:0.0286353"
       id="rect2-0-2"
       width="70"
       height="3"
       x="-361.37402"
       y="500.13062" />
    <rect
       style="fill:#1a1a1a;stroke:#000000;stroke-width:0.0286353"
       id="rect2-3"
       width="70"
       height="3"
       x="38.625961"
       y="500.13062" />
    <path
       id="rect1-8-1"
       style="fill:none;stroke:#000000;stroke-width:0.2686"
       d="m -226.37404,494.04568 h 200.000001 v 100 H -226.37404 Z m 200.000003,0 H 173.62596 v 100 H -26.374037 Z m -399.999983,0 h 200 v 100 h -200 z m 200,-100 h 199.999997 v 100 H -226.37402 Z m 199.999997,0 H 173.62598 v 100 H -26.374023 Z m -399.999997,0 h 200 v 100 h -200 z" />
    <rect
       style="fill:#1a1a1a;stroke:#000000;stroke-width:0.0286353"
       id="rect2-9-9"
       width="70"
       height="3"
       x="-161.37404"
       y="500.13062" />
  </g>
</svg>
