999
dxfrw 0.6.3
  0
SECTION
  2
HEADER
  9
$ACADVER
  1
AC1021
  9
$DWGCODEPAGE
  3
ANSI_1252
  9
$INSBASE
 10
0
 20
0
 30
0
  9
$EXTMIN
 10
-619.2126046476085
 20
-397.04568
 30
0
  9
$EXTMAX
 10
-26.374023
 20
201.1690623131354
 30
0
  9
$LIMMIN
 10
0
 20
0
  9
$LIMMAX
 10
420
 20
297
  9
$ORTHOMODE
 70
    0
  9
$REGENMODE
 70
    1
  9
$FILLMODE
 70
    1
  9
$QTEXTMODE
 70
    0
  9
$MIRRTEXT
 70
    0
  9
$LTSCALE
 40
1
  9
$ATTMODE
 70
    0
  9
$TEXTSIZE
 40
2.5
  9
$TRACEWID
 40
15.68
  9
$TEXTSTYLE
  7
STANDARD
  9
$CLAYER
  8
0
  9
$CELTYPE
  6
BYLAYER
  9
$CECOLOR
 62
  256
  9
$CELTSCALE
 40
1
  9
$DISPSILH
 70
    0
  9
$DIMSCALE
 40
2.5
  9
$DIMASZ
 40
2.5
  9
$DIMEXO
 40
0.625
  9
$DIMDLI
 40
3.75
  9
$DIMRND
 40
0
  9
$DIMDLE
 40
0
  9
$DIMEXE
 40
1.25
  9
$DIMTP
 40
0
  9
$DIMTM
 40
0
  9
$DIMTXT
 40
2.5
  9
$DIMCEN
 40
2.5
  9
$DIMTSZ
 40
0
  9
$DIMTOL
 70
    0
  9
$DIMLIM
 70
    0
  9
$DIMTIH
 70
    0
  9
$DIMTOH
 70
    0
  9
$DIMSE1
 70
    0
  9
$DIMSE2
 70
    0
  9
$DIMTAD
 70
    1
  9
$DIMZIN
 70
    8
  9
$DIMBLK
  1

  9
$DIMASO
 70
    1
  9
$DIMSHO
 70
    1
  9
$DIMPOST
  1

  9
$DIMAPOST
  1

  9
$DIMALT
 70
    0
  9
$DIMALTD
 70
    3
  9
$DIMALTF
 40
0.03937
  9
$DIMLFAC
 40
1
  9
$DIMTOFL
 70
    1
  9
$DIMTVP
 40
0
  9
$DIMTIX
 70
    0
  9
$DIMSOXD
 70
    0
  9
$DIMSAH
 70
    0
  9
$DIMBLK1
  1

  9
$DIMBLK2
  1

  9
$DIMSTYLE
  2
Standard
  9
$DIMCLRD
 70
    0
  9
$DIMCLRE
 70
    0
  9
$DIMCLRT
 70
    0
  9
$DIMTFAC
 40
1
  9
$DIMGAP
 40
0.625
  9
$DIMJUST
 70
    0
  9
$DIMSD1
 70
    0
  9
$DIMSD2
 70
    0
  9
$DIMTOLJ
 70
    0
  9
$DIMTZIN
 70
    8
  9
$DIMALTZ
 70
    0
  9
$DIMALTTZ
 70
    0
  9
$DIMUPT
 70
    0
  9
$DIMDEC
 70
    2
  9
$DIMTDEC
 70
    2
  9
$DIMALTU
 70
    2
  9
$DIMALTTD
 70
    3
  9
$DIMTXSTY
  7
STANDARD
  9
$DIMAUNIT
 70
    0
  9
$DIMADEC
 70
    0
  9
$DIMALTRND
 40
0
  9
$DIMAZIN
 70
    0
  9
$DIMDSEP
 70
   44
  9
$DIMATFIT
 70
    3
  9
$DIMFRAC
 70
    0
  9
$DIMLDRBLK
  1
STANDARD
  9
$DIMLUNIT
 70
    2
  9
$DIMLWD
 70
   -2
  9
$DIMLWE
 70
   -2
  9
$DIMTMOVE
 70
    0
  9
$DIMFXL
 40
1
  9
$DIMFXLON
 70
    0
  9
$DIMJOGANG
 40
0.7854
  9
$DIMTFILL
 70
    0
  9
$DIMTFILLCLR
 70
    0
  9
$DIMARCSYM
 70
    0
  9
$DIMLTYPE
  6

  9
$DIMLTEX1
  6

  9
$DIMLTEX2
  6

  9
$LUNITS
 70
    2
  9
$LUPREC
 70
    4
  9
$SKETCHINC
 40
1
  9
$FILLETRAD
 40
0
  9
$AUNITS
 70
    0
  9
$AUPREC
 70
    2
  9
$MENU
  1
.
  9
$ELEVATION
 40
0
  9
$PELEVATION
 40
0
  9
$THICKNESS
 40
0
  9
$LIMCHECK
 70
    0
  9
$CHAMFERA
 40
0
  9
$CHAMFERB
 40
0
  9
$CHAMFERC
 40
0
  9
$CHAMFERD
 40
0
  9
$SKPOLY
 70
    0
  9
$USRTIMER
 70
    1
  9
$ANGBASE
 50
0
  9
$ANGDIR
 70
    0
  9
$PDMODE
 70
   96
  9
$PDSIZE
 40
-2
  9
$PLINEWID
 40
0
  9
$SPLFRAME
 70
    0
  9
$SPLINETYPE
 70
    2
  9
$SPLINESEGS
 70
    8
  9
$HANDSEED
  5
20000
  9
$SURFTAB1
 70
    6
  9
$SURFTAB2
 70
    6
  9
$SURFTYPE
 70
    6
  9
$SURFU
 70
    6
  9
$SURFV
 70
    6
  9
$UCSBASE
  2

  9
$UCSNAME
  2

  9
$UCSORG
 10
0
 20
0
 30
0
  9
$UCSXDIR
 10
1
 20
0
 30
0
  9
$UCSYDIR
 10
0
 20
1
 30
0
  9
$UCSORTHOREF
  2

  9
$UCSORTHOVIEW
 70
    0
  9
$UCSORGTOP
 10
0
 20
0
 30
0
  9
$UCSORGBOTTOM
 10
0
 20
0
 30
0
  9
$UCSORGLEFT
 10
0
 20
0
 30
0
  9
$UCSORGRIGHT
 10
0
 20
0
 30
0
  9
$UCSORGFRONT
 10
0
 20
0
 30
0
  9
$UCSORGBACK
 10
0
 20
0
 30
0
  9
$PUCSBASE
  2

  9
$PUCSNAME
  2

  9
$PUCSORG
 10
0
 20
0
 30
0
  9
$PUCSXDIR
 10
1
 20
0
 30
0
  9
$PUCSYDIR
 10
0
 20
1
 30
0
  9
$PUCSORTHOREF
  2

  9
$PUCSORTHOVIEW
 70
    0
  9
$PUCSORGTOP
 10
0
 20
0
 30
0
  9
$PUCSORGBOTTOM
 10
0
 20
0
 30
0
  9
$PUCSORGLEFT
 10
0
 20
0
 30
0
  9
$PUCSORGRIGHT
 10
0
 20
0
 30
0
  9
$PUCSORGFRONT
 10
0
 20
0
 30
0
  9
$PUCSORGBACK
 10
0
 20
0
 30
0
  9
$USERI1
 70
    0
  9
$USERI2
 70
    0
  9
$USERI3
 70
    0
  9
$USERI4
 70
    0
  9
$USERI5
 70
    0
  9
$USERR1
 40
0
  9
$USERR2
 40
0
  9
$USERR3
 40
0
  9
$USERR4
 40
0
  9
$USERR5
 40
0
  9
$WORLDVIEW
 70
    1
  9
$SHADEDGE
 70
    3
  9
$SHADEDIF
 70
   70
  9
$TILEMODE
 70
    1
  9
$MAXACTVP
 70
   64
  9
$PINSBASE
 10
0
 20
0
 30
0
  9
$PLIMCHECK
 70
    0
  9
$PEXTMIN
 10
0
 20
0
 30
0
  9
$PEXTMAX
 10
0
 20
0
 30
0
  9
$SNAPSTYLE
 70
    0
  9
$PLIMMIN
 10
0
 20
0
  9
$PLIMMAX
 10
210
 20
297
  9
$UNITMODE
 70
    0
  9
$VISRETAIN
 70
    1
  9
$PLINEGEN
 70
    0
  9
$PSLTSCALE
 70
    1
  9
$TREEDEPTH
 70
 3020
  9
$CMLSTYLE
  2
Standard
  9
$CMLJUST
 70
    0
  9
$CMLSCALE
 40
20
  9
$PROXYGRAPHICS
 70
    1
  9
$MEASUREMENT
 70
    1
  9
$CELWEIGHT
370
   -1
  9
$ENDCAPS
280
    0
  9
$JOINSTYLE
280
    0
  9
$LWDISPLAY
290
    0
  9
$INSUNITS
 70
    4
  9
$HYPERLINKBASE
  1

  9
$STYLESHEET
  1

  9
$XEDIT
290
    1
  9
$CEPSNTYPE
380
    0
  9
$PSTYLEMODE
290
    1
  9
$EXTNAMES
290
    1
  9
$PSVPSCALE
 40
1
  9
$OLESTARTUP
290
    0
  9
$SORTENTS
280
  127
  9
$INDEXCTL
280
    0
  9
$HIDETEXT
280
    1
  9
$XCLIPFRAME
290
    0
  9
$HALOGAP
280
    0
  9
$OBSCOLOR
 70
  257
  9
$OBSLTYPE
280
    0
  9
$INTERSECTIONDISPLAY
280
    0
  9
$INTERSECTIONCOLOR
 70
  257
  9
$DIMASSOC
280
    1
  9
$PROJECTNAME
  1

  9
$CAMERADISPLAY
290
    0
  9
$LENSLENGTH
 40
50
  9
$CAMERAHEIGHT
 40
0
  9
$STEPSPERSEC
 40
2
  9
$STEPSIZE
 40
50
  9
$3DDWFPREC
 40
2
  9
$PSOLWIDTH
 40
5
  9
$PSOLHEIGHT
 40
80
  9
$LOFTANG1
 40
1.570796326794897
  9
$LOFTANG2
 40
1.570796326794897
  9
$LOFTMAG1
 40
0
  9
$LOFTMAG2
 40
0
  9
$LOFTPARAM
 70
    7
  9
$LOFTNORMALS
280
    1
  9
$LATITUDE
 40
1
  9
$LONGITUDE
 40
1
  9
$NORTHDIRECTION
 40
0
  9
$TIMEZONE
 70
-8000
  9
$LIGHTGLYPHDISPLAY
280
    1
  9
$TILEMODELIGHTSYNCH
280
    1
  9
$SOLIDHIST
280
    1
  9
$SHOWHIST
280
    1
  9
$DWFFRAME
280
    2
  9
$DGNFRAME
280
    0
  9
$REALWORLDSCALE
290
    1
  9
$INTERFERECOLOR
 62
    1
  9
$CSHADOW
280
    0
  9
$SHADOWPLANELOCATION
 40
0
  0
ENDSEC
  0
SECTION
  2
CLASSES
  0
ENDSEC
  0
SECTION
  2
TABLES
  0
TABLE
  2
VPORT
  5
8
330
0
100
AcDbSymbolTable
 70
    1
  0
VPORT
  5
31
330
2
100
AcDbSymbolTableRecord
100
AcDbViewportTableRecord
  2
*ACTIVE
 70
    0
 10
0
 20
0
 11
1
 21
1
 12
470.6966510003444
 22
232.331039275811
 13
0
 23
0
 14
10
 24
10
 15
10
 25
10
 16
0
 26
0
 36
1
 17
0
 27
0
 37
0
 40
1188.810772398306
 41
1.722081218274112
 42
50
 43
0
 44
0
 50
0
 51
0
 71
    0
 72
  100
 73
    1
 74
    3
 75
    0
 76
    1
 77
    0
 78
    0
281
    0
 65
    1
110
0
120
0
130
0
111
1
121
0
131
0
112
0
122
1
132
0
 79
    0
146
0
348
10020
 60
    7
 61
    5
292
1
282
    1
141
0
142
0
 63
  250
421
3358443
  0
ENDTAB
  0
TABLE
  2
LTYPE
  5
5
330
0
100
AcDbSymbolTable
 70
    4
  0
LTYPE
  5
14
330
5
100
AcDbSymbolTableRecord
100
AcDbLinetypeTableRecord
  2
ByBlock
 70
    0
  3

 72
   65
 73
    0
 40
0
  0
LTYPE
  5
15
330
5
100
AcDbSymbolTableRecord
100
AcDbLinetypeTableRecord
  2
ByLayer
 70
    0
  3

 72
   65
 73
    0
 40
0
  0
LTYPE
  5
16
330
5
100
AcDbSymbolTableRecord
100
AcDbLinetypeTableRecord
  2
Continuous
 70
    0
  3
Solid line
 72
   65
 73
    0
 40
0
  0
LTYPE
  5
32
330
5
100
AcDbSymbolTableRecord
100
AcDbLinetypeTableRecord
  2
DOT
 70
    0
  3
Dot . . . . . . . . . . . . . . . . . . . . . .
 72
   65
 73
    2
 40
6.35
 49
0
 74
    0
 49
-6.35
 74
    0
  0
LTYPE
  5
33
330
5
100
AcDbSymbolTableRecord
100
AcDbLinetypeTableRecord
  2
DOTTINY
 70
    0
  3
Dot (.15x) .....................................
 72
   65
 73
    2
 40
0.9525
 49
0
 74
    0
 49
-0.9525
 74
    0
  0
LTYPE
  5
34
330
5
100
AcDbSymbolTableRecord
100
AcDbLinetypeTableRecord
  2
DOT2
 70
    0
  3
Dot (.5x) .....................................
 72
   65
 73
    2
 40
3.175
 49
0
 74
    0
 49
-3.175
 74
    0
  0
LTYPE
  5
35
330
5
100
AcDbSymbolTableRecord
100
AcDbLinetypeTableRecord
  2
DOTX2
 70
    0
  3
Dot (2x) .  .  .  .  .  .  .  .  .  .  .  .  .
 72
   65
 73
    2
 40
12.7
 49
0
 74
    0
 49
-12.7
 74
    0
  0
LTYPE
  5
36
330
5
100
AcDbSymbolTableRecord
100
AcDbLinetypeTableRecord
  2
DASHED
 70
    0
  3
Dashed _ _ _ _ _ _ _ _ _ _ _ _ _ _ _ _ _
 72
   65
 73
    2
 40
19.05
 49
12.7
 74
    0
 49
-6.35
 74
    0
  0
LTYPE
  5
37
330
5
100
AcDbSymbolTableRecord
100
AcDbLinetypeTableRecord
  2
DASHEDTINY
 70
    0
  3
Dashed (.15x) _ _ _ _ _ _ _ _ _ _ _ _ _ _ _ _ _
 72
   65
 73
    2
 40
2.8575
 49
1.905
 74
    0
 49
-0.9525
 74
    0
  0
LTYPE
  5
38
330
5
100
AcDbSymbolTableRecord
100
AcDbLinetypeTableRecord
  2
DASHED2
 70
    0
  3
Dashed (.5x) _ _ _ _ _ _ _ _ _ _ _ _ _ _ _ _ _
 72
   65
 73
    2
 40
9.524999999999999
 49
6.35
 74
    0
 49
-3.175
 74
    0
  0
LTYPE
  5
39
330
5
100
AcDbSymbolTableRecord
100
AcDbLinetypeTableRecord
  2
DASHEDX2
 70
    0
  3
Dashed (2x) ____  ____  ____  ____  ____  ___
 72
   65
 73
    2
 40
38.09999999999999
 49
25.4
 74
    0
 49
-12.7
 74
    0
  0
LTYPE
  5
3A
330
5
100
AcDbSymbolTableRecord
100
AcDbLinetypeTableRecord
  2
DASHDOT
 70
    0
  3
Dash dot __ . __ . __ . __ . __ . __ . __ . __
 72
   65
 73
    4
 40
25.4
 49
12.7
 74
    0
 49
-6.35
 74
    0
 49
0
 74
    0
 49
-6.35
 74
    0
  0
LTYPE
  5
3B
330
5
100
AcDbSymbolTableRecord
100
AcDbLinetypeTableRecord
  2
DASHDOTTINY
 70
    0
  3
Dash dot (.15x) _._._._._._._._._._._._._._._.
 72
   65
 73
    4
 40
3.81
 49
1.905
 74
    0
 49
-0.9525
 74
    0
 49
0
 74
    0
 49
-0.9525
 74
    0
  0
LTYPE
  5
3C
330
5
100
AcDbSymbolTableRecord
100
AcDbLinetypeTableRecord
  2
DASHDOT2
 70
    0
  3
Dash dot (.5x) _._._._._._._._._._._._._._._.
 72
   65
 73
    4
 40
12.7
 49
6.35
 74
    0
 49
-3.175
 74
    0
 49
0
 74
    0
 49
-3.175
 74
    0
  0
LTYPE
  5
3D
330
5
100
AcDbSymbolTableRecord
100
AcDbLinetypeTableRecord
  2
DASHDOTX2
 70
    0
  3
Dash dot (2x) ____  .  ____  .  ____  .  ___
 72
   65
 73
    4
 40
50.8
 49
25.4
 74
    0
 49
-12.7
 74
    0
 49
0
 74
    0
 49
-12.7
 74
    0
  0
LTYPE
  5
3E
330
5
100
AcDbSymbolTableRecord
100
AcDbLinetypeTableRecord
  2
DIVIDE
 70
    0
  3
Divide ____ . . ____ . . ____ . . ____ . . ____
 72
   65
 73
    6
 40
31.75
 49
12.7
 74
    0
 49
-6.35
 74
    0
 49
0
 74
    0
 49
-6.35
 74
    0
 49
0
 74
    0
 49
-6.35
 74
    0
  0
LTYPE
  5
3F
330
5
100
AcDbSymbolTableRecord
100
AcDbLinetypeTableRecord
  2
DIVIDETINY
 70
    0
  3
Divide (.15x) __..__..__..__..__..__..__..__.._
 72
   65
 73
    6
 40
4.7625
 49
1.905
 74
    0
 49
-0.9525
 74
    0
 49
0
 74
    0
 49
-0.9525
 74
    0
 49
0
 74
    0
 49
-0.9525
 74
    0
  0
LTYPE
  5
40
330
5
100
AcDbSymbolTableRecord
100
AcDbLinetypeTableRecord
  2
DIVIDE2
 70
    0
  3
Divide (.5x) __..__..__..__..__..__..__..__.._
 72
   65
 73
    6
 40
15.875
 49
6.35
 74
    0
 49
-3.175
 74
    0
 49
0
 74
    0
 49
-3.175
 74
    0
 49
0
 74
    0
 49
-3.175
 74
    0
  0
LTYPE
  5
41
330
5
100
AcDbSymbolTableRecord
100
AcDbLinetypeTableRecord
  2
DIVIDEX2
 70
    0
  3
Divide (2x) ________  .  .  ________  .  .  _
 72
   65
 73
    6
 40
63.5
 49
25.4
 74
    0
 49
-12.7
 74
    0
 49
0
 74
    0
 49
-12.7
 74
    0
 49
0
 74
    0
 49
-12.7
 74
    0
  0
LTYPE
  5
42
330
5
100
AcDbSymbolTableRecord
100
AcDbLinetypeTableRecord
  2
BORDER
 70
    0
  3
Border __ __ . __ __ . __ __ . __ __ . __ __ .
 72
   65
 73
    6
 40
44.45
 49
12.7
 74
    0
 49
-6.35
 74
    0
 49
12.7
 74
    0
 49
-6.35
 74
    0
 49
0
 74
    0
 49
-6.35
 74
    0
  0
LTYPE
  5
43
330
5
100
AcDbSymbolTableRecord
100
AcDbLinetypeTableRecord
  2
BORDERTINY
 70
    0
  3
Border (.15x) __.__.__.__.__.__.__.__.__.__.__.
 72
   65
 73
    6
 40
6.6675
 49
1.905
 74
    0
 49
-0.9525
 74
    0
 49
1.905
 74
    0
 49
-0.9525
 74
    0
 49
0
 74
    0
 49
-0.9525
 74
    0
  0
LTYPE
  5
44
330
5
100
AcDbSymbolTableRecord
100
AcDbLinetypeTableRecord
  2
BORDER2
 70
    0
  3
Border (.5x) __.__.__.__.__.__.__.__.__.__.__.
 72
   65
 73
    6
 40
22.225
 49
6.35
 74
    0
 49
-3.175
 74
    0
 49
6.35
 74
    0
 49
-3.175
 74
    0
 49
0
 74
    0
 49
-3.175
 74
    0
  0
LTYPE
  5
45
330
5
100
AcDbSymbolTableRecord
100
AcDbLinetypeTableRecord
  2
BORDERX2
 70
    0
  3
Border (2x) ____  ____  .  ____  ____  .  ___
 72
   65
 73
    6
 40
88.89999999999999
 49
25.4
 74
    0
 49
-12.7
 74
    0
 49
25.4
 74
    0
 49
-12.7
 74
    0
 49
0
 74
    0
 49
-12.7
 74
    0
  0
LTYPE
  5
46
330
5
100
AcDbSymbolTableRecord
100
AcDbLinetypeTableRecord
  2
CENTER
 70
    0
  3
Center ____ _ ____ _ ____ _ ____ _ ____ _ ____
 72
   65
 73
    4
 40
50.8
 49
31.75
 74
    0
 49
-6.35
 74
    0
 49
6.35
 74
    0
 49
-6.35
 74
    0
  0
LTYPE
  5
47
330
5
100
AcDbSymbolTableRecord
100
AcDbLinetypeTableRecord
  2
CENTERTINY
 70
    0
  3
Center (.15x) ___ _ ___ _ ___ _ ___ _ ___ _ ___
 72
   65
 73
    4
 40
7.619999999999999
 49
4.7625
 74
    0
 49
-0.9525
 74
    0
 49
0.9525
 74
    0
 49
-0.9525
 74
    0
  0
LTYPE
  5
48
330
5
100
AcDbSymbolTableRecord
100
AcDbLinetypeTableRecord
  2
CENTER2
 70
    0
  3
Center (.5x) ___ _ ___ _ ___ _ ___ _ ___ _ ___
 72
   65
 73
    4
 40
28.575
 49
19.05
 74
    0
 49
-3.175
 74
    0
 49
3.175
 74
    0
 49
-3.175
 74
    0
  0
LTYPE
  5
49
330
5
100
AcDbSymbolTableRecord
100
AcDbLinetypeTableRecord
  2
CENTERX2
 70
    0
  3
Center (2x) ________  __  ________  __  _____
 72
   65
 73
    4
 40
101.6
 49
63.5
 74
    0
 49
-12.7
 74
    0
 49
12.7
 74
    0
 49
-12.7
 74
    0
  0
ENDTAB
  0
TABLE
  2
LAYER
  5
2
330
0
100
AcDbSymbolTable
 70
    1
  0
LAYER
  5
10
330
2
100
AcDbSymbolTableRecord
100
AcDbLayerTableRecord
  2
0
 70
    0
 62
    7
  6
CONTINUOUS
370
   25
390
F
  0
LAYER
  5
4A
330
2
100
AcDbSymbolTableRecord
100
AcDbLayerTableRecord
  2
Layer 1
 70
    0
 62
    7
  6
CONTINUOUS
370
   -3
390
F
  0
ENDTAB
  0
TABLE
  2
STYLE
  5
3
330
0
100
AcDbSymbolTable
 70
    3
  0
STYLE
  5
4B
330
2
100
AcDbSymbolTableRecord
100
AcDbTextStyleTableRecord
  2
Standard
 70
    0
 40
0
 41
1
 50
0
 71
    0
 42
1
  3
txt
  4

  0
ENDTAB
  0
TABLE
  2
VIEW
  5
6
330
0
100
AcDbSymbolTable
 70
    0
  0
ENDTAB
  0
TABLE
  2
UCS
  5
7
330
0
100
AcDbSymbolTable
 70
    0
  0
ENDTAB
  0
TABLE
  2
APPID
  5
9
330
0
100
AcDbSymbolTable
 70
    1
  0
APPID
  5
12
330
9
100
AcDbSymbolTableRecord
100
AcDbRegAppTableRecord
  2
ACAD
 70
    0
  0
APPID
  5
4C
330
9
100
AcDbSymbolTableRecord
100
AcDbRegAppTableRecord
  2
LibreCad
 70
    0
  0
ENDTAB
  0
TABLE
  2
DIMSTYLE
  5
A
330
0
100
AcDbSymbolTable
 70
    1
100
AcDbDimStyleTable
 71
    1
  0
DIMSTYLE
105
4D
330
A
100
AcDbSymbolTableRecord
100
AcDbDimStyleTableRecord
  2
Standard
 70
    0
 40
1
 41
2.5
 42
0.625
 43
0.38
 44
1.25
 45
0
 46
0
 47
0
 48
0
 49
1
140
2.5
141
0.09
142
2.5
143
25.4
144
1
145
0
146
1
147
0.625
148
0
 71
    0
 72
    0
 73
    0
 74
    1
 75
    0
 76
    0
 77
    0
 78
    1
 79
    0
170
    0
171
    2
172
    0
173
    0
174
    0
175
    0
176
    0
177
    0
178
    0
179
    0
271
    2
272
    4
273
    2
274
    2
275
    0
276
    0
277
    2
278
    0
279
    0
280
    0
281
    0
282
    0
283
    1
284
    0
285
    0
286
    0
288
    0
289
    3
340
4B
  0
ENDTAB
  0
TABLE
  2
BLOCK_RECORD
  5
1
330
0
100
AcDbSymbolTable
 70
    2
  0
BLOCK_RECORD
  5
1F
330
1
100
AcDbSymbolTableRecord
100
AcDbBlockTableRecord
  2
*Model_Space
 70
    0
280
    1
281
    0
  0
BLOCK_RECORD
  5
1E
330
1
100
AcDbSymbolTableRecord
100
AcDbBlockTableRecord
  2
*Paper_Space
 70
    0
280
    1
281
    0
  0
ENDTAB
  0
ENDSEC
  0
SECTION
  2
BLOCKS
  0
BLOCK
  5
20
330
1F
100
AcDbEntity
  8
0
100
AcDbBlockBegin
  2
*Model_Space
 70
    0
 10
0
 20
0
 30
0
  3
*Model_Space
  1

  0
ENDBLK
  5
21
330
1F
100
AcDbEntity
  8
0
100
AcDbBlockEnd
  0
BLOCK
  5
1C
330
1B
100
AcDbEntity
  8
0
100
AcDbBlockBegin
  2
*Paper_Space
 70
    0
 10
0
 20
0
 30
0
  3
*Paper_Space
  1

  0
ENDBLK
  5
1D
330
1F
100
AcDbEntity
  8
0
100
AcDbBlockEnd
  0
ENDSEC
  0
SECTION
  2
ENTITIES
  0
LWPOLYLINE
  5
4E
100
AcDbEntity
  8
0
  6
ByLayer
 62
  256
370
   -1
100
AcDbPolyline
 90
    4
 70
    1
 43
0
 10
-291.37402
 20
-103.13065
 10
-291.37402
 20
-106.13065
 10
-361.37402
 20
-106.13065
 10
-361.37402
 20
-103.13065
  0
LWPOLYLINE
  5
4F
100
AcDbEntity
  8
0
  6
ByLayer
 62
  256
370
   -1
100
AcDbPolyline
 90
   54
 70
    0
 43
0
 10
-415.884579
 20
-129.05801
 10
-411.354293
 20
-129.05801
 10
-411.204436
 20
-129.023427
 10
-411.135271
 20
-128.91968
 10
-411.112216
 20
-128.746769
 10
-411.066106
 20
-128.493165
 10
-411.043052
 20
-128.37789
 10
-411.019997
 20
-128.251088
 10
-411.019997
 20
-128.216506
 10
-411.008469
 20
-128.170396
 10
-411.008469
 20
-128.135814
 10
-411.019997
 20
-128.089704
 10
-411.066106
 20
-128.043594
 10
-411.146799
 20
-127.997485
 10
-411.227491
 20
-127.985957
 10
-414.386011
 20
-127.985957
 10
-414.063243
 20
-126.095456
 10
-411.089161
 20
-126.095456
 10
-410.950832
 20
-126.049346
 10
-410.87014
 20
-125.945599
 10
-410.847085
 20
-125.818797
 10
-410.82403
 20
-125.657413
 10
-410.789448
 20
-125.426864
 10
-410.800975
 20
-125.380754
 10
-410.847085
 20
-125.334644
 10
-410.927777
 20
-125.288534
 10
-411.008469
 20
-125.277007
 10
-415.239042
 20
-125.277007
 10
-414.881691
 20
-123.121374
 10
-408.945056
 20
-123.121374
 10
-408.530068
 20
-123.202067
 10
-408.057443
 20
-123.444143
 10
-407.677037
 20
-123.893713
 10
-407.515653
 20
-124.58536
 10
-407.538708
 20
-124.896601
 10
-407.57329
 20
-125.253952
 10
-407.6194
 20
-125.611303
 10
-407.66551
 20
-125.911017
 10
-408.02286
 20
-126.683356
 10
-408.645343
 20
-127.075289
 10
-408.56465
 20
-127.132926
 10
-408.483958
 20
-127.190563
 10
-408.138135
 20
-127.559442
 10
-407.976751
 20
-128.147341
 10
-408.011333
 20
-128.527747
 10
-408.092025
 20
-129.046482
 10
-408.172717
 20
-129.565217
 10
-408.230355
 20
-129.945623
 10
-408.437848
 20
-130.54505
 10
-408.806727
 20
-130.936984
 10
-409.24477
 20
-131.156005
 10
-409.64823
 20
-131.213642
 10
-416.253458
 20
-131.213642
 10
-415.884579
 20
-129.05801
  0
LWPOLYLINE
  5
50
100
AcDbEntity
  8
0
  6
ByLayer
 62
  256
370
   -1
100
AcDbPolyline
 90
   25
 70
    0
 43
0
 10
-407.043035
 20
-122.775551
 10
-406.881651
 20
-121.8303
 10
-404.679908
 20
-121.8303
 10
-404.287975
 20
-122.014739
 10
-404.126591
 20
-122.429728
 10
-404.138118
 20
-122.498892
 10
-404.138118
 20
-122.568057
 10
-404.172701
 20
-122.775551
 10
-404.299503
 20
-123.524835
 10
-404.437832
 20
-124.262592
 10
-404.668381
 20
-124.666052
 10
-404.979622
 20
-124.758272
 10
-406.720267
 20
-124.758272
 10
-406.881651
 20
-124.735217
 10
-407.054562
 20
-124.642997
 10
-407.204419
 20
-124.458558
 10
-407.273584
 20
-124.158845
 10
-407.262056
 20
-123.939823
 10
-407.215947
 20
-123.686219
 10
-407.169837
 20
-123.45567
 10
-407.135255
 20
-123.259704
 10
-406.893178
 20
-122.867771
 10
-406.593465
 20
-122.775551
 10
-405.383083
 20
-122.775551
 10
-407.043035
 20
-122.775551
  0
LWPOLYLINE
  5
51
100
AcDbEntity
  8
0
  6
ByLayer
 62
  256
370
   -1
100
AcDbPolyline
 90
    6
 70
    0
 43
0
 10
-405.544467
 20
-123.720802
 10
-406.005565
 20
-123.720802
 10
-406.017092
 20
-123.766911
 10
-406.02862
 20
-123.813021
 10
-405.555994
 20
-123.813021
 10
-405.544467
 20
-123.720802
  0
LWPOLYLINE
  5
52
100
AcDbEntity
  8
0
  6
ByLayer
 62
  256
370
   -1
100
AcDbPolyline
 90
   31
 70
    0
 43
0
 10
-401.590552
 20
-129.622855
 10
-401.567497
 20
-129.496053
 10
-400.691411
 20
-124.331756
 10
-400.472389
 20
-123.755384
 10
-400.103511
 20
-123.386506
 10
-399.676995
 20
-123.190539
 10
-399.285062
 20
-123.121374
 10
-391.942079
 20
-123.121374
 10
-392.310958
 20
-125.277007
 10
-398.847019
 20
-125.277007
 10
-398.996876
 20
-125.311589
 10
-399.066041
 20
-125.449919
 10
-397.740384
 20
-125.449919
 10
-398.362866
 20
-129.05801
 10
-396.091959
 20
-129.05801
 10
-395.895993
 20
-128.112759
 10
-397.244704
 20
-128.112759
 10
-396.852771
 20
-125.957126
 10
-392.403177
 20
-125.957126
 10
-393.117879
 20
-130.00326
 10
-393.3369
 20
-130.579633
 10
-393.705779
 20
-130.948511
 10
-394.132293
 20
-131.156005
 10
-394.524226
 20
-131.213642
 10
-400.161148
 20
-131.213642
 10
-400.576136
 20
-131.144478
 10
-401.048762
 20
-130.902401
 10
-401.429167
 20
-130.452831
 10
-401.590552
 20
-129.749656
 10
-401.590552
 20
-129.749656
 10
-401.590552
 20
-129.622855
  0
LWPOLYLINE
  5
53
100
AcDbEntity
  8
0
  6
ByLayer
 62
  256
370
   -1
100
AcDbPolyline
 90
    5
 70
    0
 43
0
 10
-388.333985
 20
-131.213642
 10
-391.596252
 20
-131.213642
 10
-390.224486
 20
-123.121374
 10
-386.950691
 20
-123.121374
 10
-388.333985
 20
-131.213642
  0
LWPOLYLINE
  5
54
100
AcDbEntity
  8
0
  6
ByLayer
 62
  256
370
   -1
100
AcDbPolyline
 90
   25
 70
    0
 43
0
 10
-377.993856
 20
-123.121374
 10
-377.578867
 20
-123.202067
 10
-377.106242
 20
-123.444143
 10
-376.725836
 20
-123.893713
 10
-376.564452
 20
-124.58536
 10
-376.57598
 20
-124.712162
 10
-376.587507
 20
-124.838964
 10
-377.671087
 20
-131.213642
 10
-380.806553
 20
-131.213642
 10
-380.77197
 20
-130.994621
 10
-380.702806
 20
-130.625742
 10
-380.576004
 20
-129.945623
 10
-380.426147
 20
-129.05801
 10
-380.264763
 20
-128.066649
 10
-380.091851
 20
-127.086816
 10
-379.953522
 20
-126.25684
 10
-379.849774
 20
-125.66894
 10
-379.815192
 20
-125.426864
 10
-379.895884
 20
-125.323117
 10
-380.034214
 20
-125.277007
 10
-382.454978
 20
-125.277007
 10
-383.469393
 20
-131.213642
 10
-386.604858
 20
-131.213642
 10
-385.233092
 20
-123.121374
 10
-377.993856
 20
-123.121374
  0
LWPOLYLINE
  5
55
100
AcDbEntity
  8
0
  6
ByLayer
 62
  256
370
   -1
100
AcDbPolyline
 90
   30
 70
    0
 43
0
 10
-374.904492
 20
-131.213642
 10
-375.319481
 20
-131.144478
 10
-375.792106
 20
-130.902401
 10
-376.172512
 20
-130.452831
 10
-376.333896
 20
-129.749656
 10
-376.333896
 20
-129.622855
 10
-376.310841
 20
-129.496053
 10
-375.434755
 20
-124.331756
 10
-375.215733
 20
-123.755384
 10
-374.846855
 20
-123.386506
 10
-374.42034
 20
-123.190539
 10
-374.028406
 20
-123.121374
 10
-367.354015
 20
-123.121374
 10
-367.711365
 20
-125.277007
 10
-372.264707
 20
-125.277007
 10
-372.414564
 20
-125.323117
 10
-372.483729
 20
-125.415336
 10
-372.529838
 20
-125.657413
 10
-372.599003
 20
-126.083928
 10
-372.70275
 20
-126.648773
 10
-372.806497
 20
-127.259728
 10
-372.910244
 20
-127.88221
 10
-373.002464
 20
-128.400945
 10
-373.060101
 20
-128.758296
 10
-373.083156
 20
-128.908153
 10
-373.002464
 20
-129.023427
 10
-372.864134
 20
-129.05801
 10
-368.356902
 20
-129.05801
 10
-368.725781
 20
-131.213642
 10
-374.904492
 20
-131.213642
  0
LWPOLYLINE
  5
56
100
AcDbEntity
  8
0
  6
ByLayer
 62
  256
370
   -1
100
AcDbPolyline
 90
   13
 70
    0
 43
0
 10
-365.37131
 20
-123.121374
 10
-360.956298
 20
-123.121374
 10
-360.552837
 20
-123.190539
 10
-360.103267
 20
-123.409561
 10
-359.722861
 20
-123.813021
 10
-359.526894
 20
-124.423976
 10
-358.835248
 20
-131.213642
 10
-361.832384
 20
-131.213642
 10
-361.947658
 20
-130.04937
 10
-364.24162
 20
-130.04937
 10
-364.564389
 20
-131.213642
 10
-367.573052
 20
-131.213642
 10
-365.37131
 20
-123.121374
  0
LWPOLYLINE
  5
57
100
AcDbEntity
  8
0
  6
ByLayer
 62
  256
370
   -1
100
AcDbPolyline
 90
    7
 70
    0
 43
0
 10
-362.420284
 20
-125.415336
 10
-362.489448
 20
-125.323117
 10
-362.639305
 20
-125.277007
 10
-362.939019
 20
-125.277007
 10
-363.65372
 20
-127.893737
 10
-362.16668
 20
-127.893737
 10
-362.420284
 20
-125.415336
  0
LWPOLYLINE
  5
58
100
AcDbEntity
  8
0
  6
ByLayer
 62
  256
370
   -1
100
AcDbPolyline
 90
   25
 70
    0
 43
0
 10
-349.532589
 20
-123.121374
 10
-349.117601
 20
-123.202067
 10
-348.644975
 20
-123.444143
 10
-348.264569
 20
-123.893713
 10
-348.103185
 20
-124.58536
 10
-348.114713
 20
-124.712162
 10
-348.12624
 20
-124.838964
 10
-349.20982
 20
-131.213642
 10
-352.345286
 20
-131.213642
 10
-352.310703
 20
-130.994621
 10
-352.241539
 20
-130.625742
 10
-352.114737
 20
-129.945623
 10
-351.96488
 20
-129.05801
 10
-351.803496
 20
-128.066649
 10
-351.630584
 20
-127.086816
 10
-351.492255
 20
-126.25684
 10
-351.388508
 20
-125.66894
 10
-351.353925
 20
-125.426864
 10
-351.434617
 20
-125.323117
 10
-351.572947
 20
-125.277007
 10
-353.993711
 20
-125.277007
 10
-355.008125
 20
-131.213642
 10
-358.143591
 20
-131.213642
 10
-356.771824
 20
-123.121374
 10
-349.532589
 20
-123.121374
  0
LWPOLYLINE
  5
59
100
AcDbEntity
  8
0
  6
ByLayer
 62
  256
370
   -1
100
AcDbPolyline
 90
   13
 70
    0
 43
0
 10
-345.670889
 20
-123.121374
 10
-341.255877
 20
-123.121374
 10
-340.852416
 20
-123.190539
 10
-340.402846
 20
-123.409561
 10
-340.02244
 20
-123.813021
 10
-339.826474
 20
-124.423976
 10
-339.134827
 20
-131.213642
 10
-342.131963
 20
-131.213642
 10
-342.247238
 20
-130.04937
 10
-344.541199
 20
-130.04937
 10
-344.863968
 20
-131.213642
 10
-347.872632
 20
-131.213642
 10
-345.670889
 20
-123.121374
  0
LWPOLYLINE
  5
5A
100
AcDbEntity
  8
0
  6
ByLayer
 62
  256
370
   -1
100
AcDbPolyline
 90
    7
 70
    0
 43
0
 10
-342.719863
 20
-125.415336
 10
-342.789028
 20
-125.323117
 10
-342.938884
 20
-125.277007
 10
-343.238598
 20
-125.277007
 10
-343.9533
 20
-127.893737
 10
-342.466259
 20
-127.893737
 10
-342.719863
 20
-125.415336
  0
LWPOLYLINE
  5
5B
100
AcDbEntity
  8
0
  6
ByLayer
 62
  256
370
   -1
100
AcDbPolyline
 90
   10
 70
    0
 43
0
 10
-336.483507
 20
-131.213642
 10
-335.11174
 20
-123.121374
 10
-331.837946
 20
-123.121374
 10
-332.206824
 20
-125.277007
 10
-333.336514
 20
-125.277007
 10
-333.474843
 20
-125.311589
 10
-333.555535
 20
-125.449919
 10
-332.241406
 20
-125.449919
 10
-333.221239
 20
-131.213642
 10
-336.483507
 20
-131.213642
  0
LWPOLYLINE
  5
5C
100
AcDbEntity
  8
0
  6
ByLayer
 62
  256
370
   -1
100
AcDbPolyline
 90
   28
 70
    0
 43
0
 10
-322.881106
 20
-123.121374
 10
-322.466118
 20
-123.202067
 10
-321.993493
 20
-123.444143
 10
-321.613085
 20
-123.893713
 10
-321.451701
 20
-124.58536
 10
-321.463229
 20
-124.712162
 10
-321.474756
 20
-124.838964
 10
-322.558338
 20
-131.213642
 10
-325.693804
 20
-131.213642
 10
-325.659221
 20
-130.994621
 10
-325.590056
 20
-130.625742
 10
-325.463255
 20
-129.945623
 10
-325.313398
 20
-129.05801
 10
-325.152013
 20
-128.066649
 10
-324.979102
 20
-127.086816
 10
-324.840772
 20
-126.25684
 10
-324.737025
 20
-125.66894
 10
-324.702443
 20
-125.426864
 10
-324.783135
 20
-125.323117
 10
-324.921465
 20
-125.277007
 10
-328.471918
 20
-125.277007
 10
-328.621775
 20
-125.311589
 10
-328.69094
 20
-125.449919
 10
-327.376811
 20
-125.449919
 10
-328.356644
 20
-131.213642
 10
-331.492109
 20
-131.213642
 10
-330.120343
 20
-123.121374
 10
-322.881106
 20
-123.121374
  0
LWPOLYLINE
  5
5D
100
AcDbEntity
  8
0
  6
ByLayer
 62
  256
370
   -1
100
AcDbPolyline
 90
    9
 70
    0
 43
0
 10
-320.621716
 20
-123.121374
 10
-312.264317
 20
-123.121374
 10
-312.633195
 20
-125.277007
 10
-315.203816
 20
-125.277007
 10
-316.206704
 20
-131.213642
 10
-319.342169
 20
-131.213642
 10
-318.327754
 20
-125.277007
 10
-320.990594
 20
-125.277007
 10
-320.621716
 20
-123.121374
  0
LWPOLYLINE
  5
5E
100
AcDbEntity
  8
0
  6
ByLayer
 62
  256
370
   -1
100
AcDbPolyline
 90
   32
 70
    0
 43
0
 10
-309.140388
 20
-128.297198
 10
-309.17497
 20
-128.481637
 10
-309.198025
 20
-128.643022
 10
-309.22108
 20
-128.769823
 10
-309.232607
 20
-128.850516
 10
-309.244135
 20
-128.908153
 10
-309.163443
 20
-129.023427
 10
-309.025113
 20
-129.05801
 10
-304.783013
 20
-129.05801
 10
-305.151891
 20
-131.213642
 10
-311.065471
 20
-131.213642
 10
-311.480459
 20
-131.144478
 10
-311.953085
 20
-130.902401
 10
-312.333491
 20
-130.452831
 10
-312.494875
 20
-129.749656
 10
-312.494875
 20
-129.622855
 10
-312.47182
 20
-129.496053
 10
-311.595734
 20
-124.331756
 10
-311.376712
 20
-123.755384
 10
-311.007834
 20
-123.386506
 10
-310.581319
 20
-123.190539
 10
-310.189385
 20
-123.121374
 10
-303.768597
 20
-123.121374
 10
-304.137476
 20
-125.277007
 10
-308.425686
 20
-125.277007
 10
-308.575543
 20
-125.323117
 10
-308.644707
 20
-125.415336
 10
-308.736927
 20
-125.957126
 10
-305.025089
 20
-125.957126
 10
-305.417022
 20
-128.112759
 10
-309.105805
 20
-128.112759
 10
-309.140388
 20
-128.297198
  0
LWPOLYLINE
  5
5F
100
AcDbEntity
  8
0
  6
ByLayer
 62
  256
370
   -1
100
AcDbPolyline
 90
   27
 70
    0
 43
0
 10
-300.310354
 20
-129.05801
 10
-298.039447
 20
-129.05801
 10
-297.84348
 20
-128.112759
 10
-299.192192
 20
-128.112759
 10
-298.800259
 20
-125.957126
 10
-294.350664
 20
-125.957126
 10
-295.065366
 20
-130.00326
 10
-295.284387
 20
-130.579633
 10
-295.653265
 20
-130.948511
 10
-296.079781
 20
-131.156005
 10
-296.471714
 20
-131.213642
 10
-302.108636
 20
-131.213642
 10
-302.523624
 20
-131.144478
 10
-302.996249
 20
-130.902401
 10
-303.376655
 20
-130.452831
 10
-303.538039
 20
-129.749656
 10
-303.538039
 20
-129.622855
 10
-303.514984
 20
-129.496053
 10
-302.638898
 20
-124.331756
 10
-302.419877
 20
-123.755384
 10
-302.050999
 20
-123.386506
 10
-301.624483
 20
-123.190539
 10
-301.23255
 20
-123.121374
 10
-293.889566
 20
-123.121374
 10
-294.258444
 20
-125.277007
 10
-299.664817
 20
-125.277007
 10
-300.310354
 20
-129.05801
  0
LWPOLYLINE
  5
60
100
AcDbEntity
  8
0
  6
ByLayer
 62
  256
370
   -1
100
AcDbPolyline
 90
   20
 70
    0
 43
0
 10
-292.287251
 20
-123.121374
 10
-285.578277
 20
-123.121374
 10
-285.163289
 20
-123.202067
 10
-284.690663
 20
-123.444143
 10
-284.310258
 20
-123.893713
 10
-284.148873
 20
-124.58536
 10
-284.148873
 20
-124.712162
 10
-284.171928
 20
-124.838964
 10
-284.679136
 20
-127.813045
 10
-284.863575
 20
-128.343308
 10
-285.186344
 20
-128.700659
 10
-285.578277
 20
-128.91968
 10
-285.947155
 20
-129.0119
 10
-285.497585
 20
-131.213642
 10
-288.367919
 20
-131.213642
 10
-288.817489
 20
-129.023427
 10
-290.154673
 20
-129.023427
 10
-290.523552
 20
-131.213642
 10
-293.659017
 20
-131.213642
 10
-292.287251
 20
-123.121374
  0
LWPOLYLINE
  5
61
100
AcDbEntity
  8
0
  6
ByLayer
 62
  256
370
   -1
100
AcDbPolyline
 90
   15
 70
    0
 43
0
 10
-287.6878
 20
-126.821685
 10
-287.618635
 20
-126.729465
 10
-287.572525
 20
-126.464334
 10
-287.50336
 20
-126.026291
 10
-287.434196
 20
-125.611303
 10
-287.422668
 20
-125.530611
 10
-287.411141
 20
-125.461446
 10
-287.399613
 20
-125.438391
 10
-287.399613
 20
-125.426864
 10
-287.480305
 20
-125.323117
 10
-287.618635
 20
-125.277007
 10
-289.509136
 20
-125.277007
 10
-289.785795
 20
-126.867795
 10
-287.837656
 20
-126.867795
 10
-287.6878
 20
-126.821685
  0
LWPOLYLINE
  5
62
100
AcDbEntity
  8
0
  6
ByLayer
 62
  256
370
   -1
100
AcDbPolyline
 90
   13
 70
    0
 43
0
 10
-281.94714
 20
-123.121374
 10
-277.532128
 20
-123.121374
 10
-277.128667
 20
-123.190539
 10
-276.679097
 20
-123.409561
 10
-276.298691
 20
-123.813021
 10
-276.102724
 20
-124.423976
 10
-275.411077
 20
-131.213642
 10
-278.408214
 20
-131.213642
 10
-278.523488
 20
-130.04937
 10
-280.81745
 20
-130.04937
 10
-281.140219
 20
-131.213642
 10
-284.148882
 20
-131.213642
 10
-281.94714
 20
-123.121374
  0
LWPOLYLINE
  5
63
100
AcDbEntity
  8
0
  6
ByLayer
 62
  256
370
   -1
100
AcDbPolyline
 90
    7
 70
    0
 43
0
 10
-278.996113
 20
-125.415336
 10
-279.065278
 20
-125.323117
 10
-279.215135
 20
-125.277007
 10
-279.514849
 20
-125.277007
 10
-280.22955
 20
-127.893737
 10
-278.74251
 20
-127.893737
 10
-278.996113
 20
-125.415336
  0
LWPOLYLINE
  5
64
100
AcDbEntity
  8
0
  6
ByLayer
 62
  256
370
   -1
100
AcDbPolyline
 90
   18
 70
    0
 43
0
 10
-268.598347
 20
-125.288534
 10
-268.679039
 20
-125.277007
 10
-270.569541
 20
-125.277007
 10
-271.215078
 20
-129.05801
 10
-269.266939
 20
-129.05801
 10
-269.12861
 20
-129.023427
 10
-269.059445
 20
-128.91968
 10
-269.013335
 20
-128.689131
 10
-268.944171
 20
-128.251088
 10
-268.840424
 20
-127.697771
 10
-268.736676
 20
-127.075289
 10
-268.632929
 20
-126.464334
 10
-268.54071
 20
-125.945599
 10
-268.483073
 20
-125.576721
 10
-268.460018
 20
-125.426864
 10
-268.517655
 20
-125.334644
 10
-268.517655
 20
-125.334644
 10
-268.598347
 20
-125.288534
  0
LWPOLYLINE
  5
65
100
AcDbEntity
  8
0
  6
ByLayer
 62
  256
370
   -1
100
AcDbPolyline
 90
   16
 70
    0
 43
0
 10
-265.209278
 20
-124.712162
 10
-265.232333
 20
-124.838964
 10
-266.108419
 20
-130.00326
 10
-266.32744
 20
-130.579633
 10
-266.696318
 20
-130.948511
 10
-267.122834
 20
-131.156005
 10
-267.514767
 20
-131.213642
 10
-274.719422
 20
-131.213642
 10
-273.347655
 20
-123.121374
 10
-266.638681
 20
-123.121374
 10
-266.223693
 20
-123.202067
 10
-265.751068
 20
-123.444143
 10
-265.370662
 20
-123.893713
 10
-265.209278
 20
-124.58536
 10
-265.209278
 20
-124.58536
 10
-265.209278
 20
-124.712162
  0
LWPOLYLINE
  5
66
100
AcDbEntity
  8
0
  6
ByLayer
 62
  256
370
   -1
100
AcDbPolyline
 90
   31
 70
    0
 43
0
 10
-261.036351
 20
-125.657413
 10
-261.105516
 20
-126.083928
 10
-261.197735
 20
-126.648773
 10
-261.301482
 20
-127.259728
 10
-261.405229
 20
-127.88221
 10
-261.485921
 20
-128.400945
 10
-261.543559
 20
-128.758296
 10
-261.566613
 20
-128.908153
 10
-261.566613
 20
-128.954263
 10
-261.508976
 20
-129.000372
 10
-261.428284
 20
-129.046482
 10
-261.359119
 20
-129.05801
 10
-258.96141
 20
-129.05801
 10
-258.811554
 20
-129.023427
 10
-258.742389
 20
-128.91968
 10
-258.707807
 20
-128.689131
 10
-258.627114
 20
-128.251088
 10
-258.534895
 20
-127.697771
 10
-258.431148
 20
-127.075289
 10
-258.327401
 20
-126.464334
 10
-258.235181
 20
-125.945599
 10
-258.177544
 20
-125.576721
 10
-258.154489
 20
-125.426864
 10
-258.212126
 20
-125.334644
 10
-258.292819
 20
-125.288534
 10
-258.373511
 20
-125.277007
 10
-260.77122
 20
-125.277007
 10
-260.921076
 20
-125.323117
 10
-260.990241
 20
-125.415336
 10
-260.990241
 20
-125.415336
 10
-261.036351
 20
-125.657413
  0
LWPOLYLINE
  5
67
100
AcDbEntity
  8
0
  6
ByLayer
 62
  256
370
   -1
100
AcDbPolyline
 90
   25
 70
    0
 43
0
 10
-255.998857
 20
-123.202067
 10
-255.526231
 20
-123.444143
 10
-255.145825
 20
-123.893713
 10
-254.984441
 20
-124.58536
 10
-254.984441
 20
-124.712162
 10
-254.995969
 20
-124.838964
 10
-255.883582
 20
-130.00326
 10
-256.102604
 20
-130.579633
 10
-256.471482
 20
-130.948511
 10
-256.897997
 20
-131.156005
 10
-257.289931
 20
-131.213642
 10
-263.318785
 20
-131.213642
 10
-263.733774
 20
-131.144478
 10
-264.206399
 20
-130.902401
 10
-264.586805
 20
-130.452831
 10
-264.748189
 20
-129.749656
 10
-264.748189
 20
-129.622855
 10
-264.725134
 20
-129.496053
 10
-263.849048
 20
-124.331756
 10
-263.630027
 20
-123.755384
 10
-263.261148
 20
-123.386506
 10
-262.834633
 20
-123.190539
 10
-262.442699
 20
-123.121374
 10
-256.413845
 20
-123.121374
 10
-255.998857
 20
-123.202067
  0
LWPOLYLINE
  5
68
100
AcDbEntity
  8
0
  6
ByLayer
 62
  256
370
   -1
100
AcDbPolyline
 90
   20
 70
    0
 43
0
 10
-253.37059
 20
-123.121374
 10
-246.661615
 20
-123.121374
 10
-246.246627
 20
-123.202067
 10
-245.774002
 20
-123.444143
 10
-245.393596
 20
-123.893713
 10
-245.232212
 20
-124.58536
 10
-245.232212
 20
-124.712162
 10
-245.255267
 20
-124.838964
 10
-245.762474
 20
-127.813045
 10
-245.946914
 20
-128.343308
 10
-246.269682
 20
-128.700659
 10
-246.661615
 20
-128.91968
 10
-247.030494
 20
-129.0119
 10
-246.580923
 20
-131.213642
 10
-249.451257
 20
-131.213642
 10
-249.900828
 20
-129.023427
 10
-251.238012
 20
-129.023427
 10
-251.60689
 20
-131.213642
 10
-254.742356
 20
-131.213642
 10
-253.37059
 20
-123.121374
  0
LWPOLYLINE
  5
69
100
AcDbEntity
  8
0
  6
ByLayer
 62
  256
370
   -1
100
AcDbPolyline
 90
   15
 70
    0
 43
0
 10
-248.771138
 20
-126.821685
 10
-248.701973
 20
-126.729465
 10
-248.655864
 20
-126.464334
 10
-248.586699
 20
-126.026291
 10
-248.517534
 20
-125.611303
 10
-248.506007
 20
-125.530611
 10
-248.494479
 20
-125.461446
 10
-248.482952
 20
-125.438391
 10
-248.482952
 20
-125.426864
 10
-248.563644
 20
-125.323117
 10
-248.701973
 20
-125.277007
 10
-250.592475
 20
-125.277007
 10
-250.869133
 20
-126.867795
 10
-248.920995
 20
-126.867795
 10
-248.771138
 20
-126.821685
  0
LWPOLYLINE
  5
6A
100
AcDbEntity
  8
0
  6
ByLayer
 62
  256
370
   -1
100
AcDbPolyline
 90
   13
 70
    0
 43
0
 10
-243.030488
 20
-123.121374
 10
-238.615475
 20
-123.121374
 10
-238.212015
 20
-123.190539
 10
-237.762444
 20
-123.409561
 10
-237.382039
 20
-123.813021
 10
-237.186072
 20
-124.423976
 10
-236.494425
 20
-131.213642
 10
-239.491561
 20
-131.213642
 10
-239.606836
 20
-130.04937
 10
-241.900798
 20
-130.04937
 10
-242.223566
 20
-131.213642
 10
-245.23223
 20
-131.213642
 10
-243.030488
 20
-123.121374
  0
LWPOLYLINE
  5
6B
100
AcDbEntity
  8
0
  6
ByLayer
 62
  256
370
   -1
100
AcDbPolyline
 90
    7
 70
    0
 43
0
 10
-240.079461
 20
-125.415336
 10
-240.148626
 20
-125.323117
 10
-240.298483
 20
-125.277007
 10
-240.598196
 20
-125.277007
 10
-241.312898
 20
-127.893737
 10
-239.825857
 20
-127.893737
 10
-240.079461
 20
-125.415336
  0
LWPOLYLINE
  5
6C
100
AcDbEntity
  8
0
  6
ByLayer
 62
  256
370
   -1
100
AcDbPolyline
 90
   18
 70
    0
 43
0
 10
-366.760388
 20
-139.697843
 10
-366.84108
 20
-139.686316
 10
-368.731582
 20
-139.686316
 10
-369.377119
 20
-143.467319
 10
-367.42898
 20
-143.467319
 10
-367.290651
 20
-143.432736
 10
-367.221486
 20
-143.328989
 10
-367.175376
 20
-143.09844
 10
-367.106212
 20
-142.660397
 10
-367.002465
 20
-142.10708
 10
-366.898718
 20
-141.484598
 10
-366.794971
 20
-140.873643
 10
-366.702751
 20
-140.354908
 10
-366.645114
 20
-139.986029
 10
-366.622059
 20
-139.836173
 10
-366.679696
 20
-139.743953
 10
-366.679696
 20
-139.743953
 10
-366.760388
 20
-139.697843
  0
LWPOLYLINE
  5
6D
100
AcDbEntity
  8
0
  6
ByLayer
 62
  256
370
   -1
100
AcDbPolyline
 90
   16
 70
    0
 43
0
 10
-363.371319
 20
-139.121471
 10
-363.394374
 20
-139.248273
 10
-364.27046
 20
-144.412569
 10
-364.489481
 20
-144.988942
 10
-364.858359
 20
-145.35782
 10
-365.284875
 20
-145.565314
 10
-365.676808
 20
-145.622951
 10
-372.881463
 20
-145.622951
 10
-371.509696
 20
-137.530683
 10
-364.800722
 20
-137.530683
 10
-364.385734
 20
-137.611375
 10
-363.913109
 20
-137.853452
 10
-363.532703
 20
-138.303022
 10
-363.371319
 20
-138.994669
 10
-363.371319
 20
-138.994669
 10
-363.371319
 20
-139.121471
  0
LWPOLYLINE
  5
6E
100
AcDbEntity
  8
0
  6
ByLayer
 62
  256
370
   -1
100
AcDbPolyline
 90
   31
 70
    0
 43
0
 10
-359.198387
 20
-140.066722
 10
-359.267551
 20
-140.493237
 10
-359.359771
 20
-141.058082
 10
-359.463518
 20
-141.669037
 10
-359.567265
 20
-142.291519
 10
-359.647957
 20
-142.810254
 10
-359.705594
 20
-143.167605
 10
-359.728649
 20
-143.317462
 10
-359.728649
 20
-143.363571
 10
-359.671012
 20
-143.409681
 10
-359.59032
 20
-143.455791
 10
-359.521155
 20
-143.467319
 10
-357.123446
 20
-143.467319
 10
-356.973589
 20
-143.432736
 10
-356.904425
 20
-143.328989
 10
-356.869842
 20
-143.09844
 10
-356.78915
 20
-142.660397
 10
-356.696931
 20
-142.10708
 10
-356.593184
 20
-141.484598
 10
-356.489437
 20
-140.873643
 10
-356.397217
 20
-140.354908
 10
-356.33958
 20
-139.986029
 10
-356.316525
 20
-139.836173
 10
-356.374162
 20
-139.743953
 10
-356.454854
 20
-139.697843
 10
-356.535546
 20
-139.686316
 10
-358.933255
 20
-139.686316
 10
-359.083112
 20
-139.732426
 10
-359.152277
 20
-139.824645
 10
-359.152277
 20
-139.824645
 10
-359.198387
 20
-140.066722
  0
LWPOLYLINE
  5
6F
100
AcDbEntity
  8
0
  6
ByLayer
 62
  256
370
   -1
100
AcDbPolyline
 90
   25
 70
    0
 43
0
 10
-354.160892
 20
-137.611375
 10
-353.688267
 20
-137.853452
 10
-353.307861
 20
-138.303022
 10
-353.146477
 20
-138.994669
 10
-353.146477
 20
-139.121471
 10
-353.158004
 20
-139.248273
 10
-354.045618
 20
-144.412569
 10
-354.264639
 20
-144.988942
 10
-354.633518
 20
-145.35782
 10
-355.060033
 20
-145.565314
 10
-355.451966
 20
-145.622951
 10
-361.48082
 20
-145.622951
 10
-361.895808
 20
-145.553786
 10
-362.368434
 20
-145.31171
 10
-362.748839
 20
-144.86214
 10
-362.910224
 20
-144.158965
 10
-362.910224
 20
-144.032163
 10
-362.887169
 20
-143.905362
 10
-362.011083
 20
-138.741065
 10
-361.792061
 20
-138.164693
 10
-361.423183
 20
-137.795815
 10
-360.996667
 20
-137.599848
 10
-360.604734
 20
-137.530683
 10
-354.57588
 20
-137.530683
 10
-354.160892
 20
-137.611375
  0
LWPOLYLINE
  5
70
100
AcDbEntity
  8
0
  6
ByLayer
 62
  256
370
   -1
100
AcDbPolyline
 90
   10
 70
    0
 43
0
 10
-350.483627
 20
-145.622951
 10
-349.11186
 20
-137.530683
 10
-345.838065
 20
-137.530683
 10
-346.206944
 20
-139.686316
 10
-347.336634
 20
-139.686316
 10
-347.474963
 20
-139.720898
 10
-347.555655
 20
-139.859228
 10
-346.241526
 20
-139.859228
 10
-347.221359
 20
-145.622951
 10
-350.483627
 20
-145.622951
  0
LWPOLYLINE
  5
71
100
AcDbEntity
  8
0
  6
ByLayer
 62
  256
370
   -1
100
AcDbPolyline
 90
   18
 70
    0
 43
0
 10
-342.621899
 20
-139.720898
 10
-342.691063
 20
-139.859228
 10
-341.376934
 20
-139.859228
 10
-341.619011
 20
-141.277104
 10
-337.941755
 20
-141.277104
 10
-338.345216
 20
-143.432736
 10
-341.987889
 20
-143.432736
 10
-342.356767
 20
-145.622951
 10
-345.492233
 20
-145.622951
 10
-344.316433
 20
-138.741065
 10
-344.097412
 20
-138.164693
 10
-343.728534
 20
-137.795815
 10
-343.302018
 20
-137.599848
 10
-342.910085
 20
-137.530683
 10
-336.765955
 20
-137.530683
 10
-337.134834
 20
-139.686316
 10
-342.472042
 20
-139.686316
 10
-342.621899
 20
-139.720898
  0
LWPOLYLINE
  5
72
100
AcDbEntity
  8
0
  6
ByLayer
 62
  256
370
   -1
100
AcDbPolyline
 90
   31
 70
    0
 43
0
 10
-336.535403
 20
-144.032163
 10
-336.512348
 20
-143.905362
 10
-335.636262
 20
-138.741065
 10
-335.417241
 20
-138.164693
 10
-335.048362
 20
-137.795815
 10
-334.621847
 20
-137.599848
 10
-334.229913
 20
-137.530683
 10
-326.88693
 20
-137.530683
 10
-327.255808
 20
-139.686316
 10
-333.79187
 20
-139.686316
 10
-333.941727
 20
-139.720898
 10
-334.010892
 20
-139.859228
 10
-332.685236
 20
-139.859228
 10
-333.307718
 20
-143.467319
 10
-331.036811
 20
-143.467319
 10
-330.840844
 20
-142.522068
 10
-332.189555
 20
-142.522068
 10
-331.797622
 20
-140.366435
 10
-327.348028
 20
-140.366435
 10
-328.062729
 20
-144.412569
 10
-328.281751
 20
-144.988942
 10
-328.650629
 20
-145.35782
 10
-329.077145
 20
-145.565314
 10
-329.469078
 20
-145.622951
 10
-335.105999
 20
-145.622951
 10
-335.520988
 20
-145.553786
 10
-335.993613
 20
-145.31171
 10
-336.374019
 20
-144.86214
 10
-336.535403
 20
-144.158965
 10
-336.535403
 20
-144.158965
 10
-336.535403
 20
-144.032163
  0
LWPOLYLINE
  5
73
100
AcDbEntity
  8
0
  6
ByLayer
 62
  256
370
   -1
100
AcDbPolyline
 90
    5
 70
    0
 43
0
 10
-318.886862
 20
-142.64887
 10
-324.350877
 20
-142.64887
 10
-323.981998
 20
-140.504765
 10
-318.517984
 20
-140.504765
 10
-318.886862
 20
-142.64887
  0
LWPOLYLINE
  5
74
100
AcDbEntity
  8
0
  6
ByLayer
 62
  256
370
   -1
100
AcDbPolyline
 90
   38
 70
    0
 43
0
 10
-315.290281
 20
-141.576817
 10
-315.071259
 20
-141.000445
 10
-314.702381
 20
-140.631567
 10
-314.275865
 20
-140.4356
 10
-313.883932
 20
-140.366435
 10
-310.794576
 20
-140.366435
 10
-310.656247
 20
-140.331853
 10
-310.587082
 20
-140.228106
 10
-310.564027
 20
-140.124359
 10
-310.540972
 20
-140.009084
 10
-310.517918
 20
-139.905337
 10
-310.517918
 20
-139.836173
 10
-310.529445
 20
-139.790063
 10
-310.575555
 20
-139.743953
 10
-310.656247
 20
-139.697843
 10
-310.736939
 20
-139.686316
 10
-314.967512
 20
-139.686316
 10
-314.610161
 20
-137.530683
 10
-308.696581
 20
-137.530683
 10
-308.281593
 20
-137.611375
 10
-307.808968
 20
-137.853452
 10
-307.417034
 20
-138.303022
 10
-307.25565
 20
-138.994669
 10
-307.267178
 20
-139.121471
 10
-307.278705
 20
-139.248273
 10
-307.636056
 20
-141.311686
 10
-307.855077
 20
-141.888058
 10
-308.223956
 20
-142.256937
 10
-308.650471
 20
-142.464431
 10
-309.042404
 20
-142.522068
 10
-312.13176
 20
-142.522068
 10
-312.281617
 20
-142.568178
 10
-312.339254
 20
-142.660397
 10
-312.477584
 20
-143.467319
 10
-308.004934
 20
-143.467319
 10
-308.362285
 20
-145.622951
 10
-315.981928
 20
-145.622951
 10
-315.290281
 20
-141.576817
  0
LWPOLYLINE
  5
75
100
AcDbEntity
  8
0
  6
ByLayer
 62
  256
370
   -1
100
AcDbPolyline
 90
   25
 70
    0
 43
0
 10
-306.010677
 20
-145.553786
 10
-306.483302
 20
-145.31171
 10
-306.863708
 20
-144.86214
 10
-307.025092
 20
-144.158965
 10
-307.025092
 20
-144.032163
 10
-307.002037
 20
-143.905362
 10
-306.125951
 20
-138.741065
 10
-305.90693
 20
-138.164693
 10
-305.538051
 20
-137.795815
 10
-305.111536
 20
-137.599848
 10
-304.719603
 20
-137.530683
 10
-299.209483
 20
-137.530683
 10
-298.794495
 20
-137.611375
 10
-298.321869
 20
-137.853452
 10
-297.941464
 20
-138.303022
 10
-297.780079
 20
-138.994669
 10
-297.791607
 20
-139.121471
 10
-297.803134
 20
-139.248273
 10
-298.67922
 20
-144.412569
 10
-298.909769
 20
-144.988942
 10
-299.278648
 20
-145.35782
 10
-299.705163
 20
-145.565314
 10
-300.097096
 20
-145.622951
 10
-305.595689
 20
-145.622951
 10
-306.010677
 20
-145.553786
  0
LWPOLYLINE
  5
76
100
AcDbEntity
  8
0
  6
ByLayer
 62
  256
370
   -1
100
AcDbPolyline
 90
    6
 70
    0
 43
0
 10
-301.745521
 20
-143.467319
 10
-301.607192
 20
-143.432736
 10
-301.538027
 20
-143.328989
 10
-301.03082
 20
-140.97739
 10
-303.359364
 20
-143.467319
 10
-301.745521
 20
-143.467319
  0
LWPOLYLINE
  5
77
100
AcDbEntity
  8
0
  6
ByLayer
 62
  256
370
   -1
100
AcDbPolyline
 90
    6
 70
    0
 43
0
 10
-303.05965
 20
-139.686316
 10
-303.19798
 20
-139.732426
 10
-303.267144
 20
-139.824645
 10
-303.774352
 20
-142.314574
 10
-301.307478
 20
-139.686316
 10
-303.05965
 20
-139.686316
  0
LWPOLYLINE
  5
78
100
AcDbEntity
  8
0
  6
ByLayer
 62
  256
370
   -1
100
AcDbPolyline
 90
   38
 70
    0
 43
0
 10
-296.857884
 20
-141.576817
 10
-296.638862
 20
-141.000445
 10
-296.269984
 20
-140.631567
 10
-295.843468
 20
-140.4356
 10
-295.451535
 20
-140.366435
 10
-292.362179
 20
-140.366435
 10
-292.22385
 20
-140.331853
 10
-292.154685
 20
-140.228106
 10
-292.13163
 20
-140.124359
 10
-292.108575
 20
-140.009084
 10
-292.085521
 20
-139.905337
 10
-292.085521
 20
-139.836173
 10
-292.097048
 20
-139.790063
 10
-292.143158
 20
-139.743953
 10
-292.22385
 20
-139.697843
 10
-292.304542
 20
-139.686316
 10
-296.535115
 20
-139.686316
 10
-296.177764
 20
-137.530683
 10
-290.264184
 20
-137.530683
 10
-289.849196
 20
-137.611375
 10
-289.376571
 20
-137.853452
 10
-288.984637
 20
-138.303022
 10
-288.823253
 20
-138.994669
 10
-288.834781
 20
-139.121471
 10
-288.846308
 20
-139.248273
 10
-289.203659
 20
-141.311686
 10
-289.42268
 20
-141.888058
 10
-289.791559
 20
-142.256937
 10
-290.218074
 20
-142.464431
 10
-290.610007
 20
-142.522068
 10
-293.699363
 20
-142.522068
 10
-293.84922
 20
-142.568178
 10
-293.906857
 20
-142.660397
 10
-294.045187
 20
-143.467319
 10
-289.572537
 20
-143.467319
 10
-289.929888
 20
-145.622951
 10
-297.549531
 20
-145.622951
 10
-296.857884
 20
-141.576817
  0
LWPOLYLINE
  5
79
100
AcDbEntity
  8
0
  6
ByLayer
 62
  256
370
   -1
100
AcDbPolyline
 90
   31
 70
    0
 43
0
 10
-287.57828
 20
-145.553786
 10
-288.050905
 20
-145.31171
 10
-288.431311
 20
-144.86214
 10
-288.592695
 20
-144.158965
 10
-288.592695
 20
-144.032163
 10
-288.56964
 20
-143.905362
 10
-287.693554
 20
-138.741065
 10
-287.474533
 20
-138.164693
 10
-287.105654
 20
-137.795815
 10
-286.679139
 20
-137.599848
 10
-286.287206
 20
-137.530683
 10
-279.866418
 20
-137.530683
 10
-280.235296
 20
-139.686316
 10
-284.523506
 20
-139.686316
 10
-284.673363
 20
-139.732426
 10
-284.742528
 20
-139.824645
 10
-284.834747
 20
-140.366435
 10
-281.837611
 20
-140.366435
 10
-281.422623
 20
-140.447127
 10
-280.949998
 20
-140.689204
 10
-280.569592
 20
-141.138774
 10
-280.408208
 20
-141.830421
 10
-280.408208
 20
-141.96875
 10
-280.431263
 20
-142.084025
 10
-280.823196
 20
-144.412569
 10
-281.042217
 20
-144.988942
 10
-281.411096
 20
-145.35782
 10
-281.837611
 20
-145.565314
 10
-282.229544
 20
-145.622951
 10
-287.163292
 20
-145.622951
 10
-287.57828
 20
-145.553786
  0
LWPOLYLINE
  5
7A
100
AcDbEntity
  8
0
  6
ByLayer
 62
  256
370
   -1
100
AcDbPolyline
 90
   11
 70
    0
 43
0
 10
-285.36501
 20
-143.467319
 10
-283.981716
 20
-143.467319
 10
-283.843387
 20
-143.432736
 10
-283.774222
 20
-143.328989
 10
-283.670475
 20
-142.775672
 10
-283.658948
 20
-142.671925
 10
-283.670475
 20
-142.625815
 10
-283.716585
 20
-142.579705
 10
-283.877969
 20
-142.522068
 10
-285.203626
 20
-142.522068
 10
-285.36501
 20
-143.467319
  0
LWPOLYLINE
  5
7B
100
AcDbEntity
  8
0
  6
ByLayer
 62
  256
370
   -1
100
AcDbPolyline
 90
   45
 70
    0
 43
0
 10
-419.18203
 20
-175.77531
 10
-418.9233
 20
-174.793907
 10
-418.50397
 20
-173.99094
 10
-417.96866
 20
-173.348565
 10
-417.36197
 20
-172.84894
 10
-416.04154
 20
-172.24226
 10
-414.82817
 20
-172.02813
 10
-405.26393
 20
-172.02813
 10
-404.83568
 20
-171.92107
 10
-404.62156
 20
-171.59988
 10
-404.55016
 20
-171.2787
 10
-404.47876
 20
-170.92182
 10
-404.40736
 20
-170.60064
 10
-404.40736
 20
-170.38651
 10
-404.44306
 20
-170.24376
 10
-404.58581
 20
-170.10101
 10
-404.83562
 20
-169.95826
 10
-405.08544
 20
-169.92256
 10
-418.18273
 20
-169.92256
 10
-417.07641
 20
-163.24901
 10
-398.76876
 20
-163.24901
 10
-397.48401
 20
-163.49883
 10
-396.725655
 20
-163.793248
 10
-396.02083
 20
-164.24826
 10
-395.36061
 20
-164.846028
 10
-394.80745
 20
-165.64007
 10
-394.432735
 20
-166.603633
 10
-394.30783
 20
-167.78132
 10
-394.34353
 20
-168.17388
 10
-394.37923
 20
-168.56644
 10
-395.48555
 20
-174.95449
 10
-395.74428
 20
-175.935898
 10
-396.16361
 20
-176.73886
 10
-396.698918
 20
-177.381235
 10
-397.3056
 20
-177.88086
 10
-398.62604
 20
-178.52324
 10
-399.83941
 20
-178.70167
 10
-409.40365
 20
-178.70167
 10
-409.86758
 20
-178.84442
 10
-410.04602
 20
-179.12992
 10
-410.47427
 20
-181.62804
 10
-396.62754
 20
-181.62804
 10
-397.73385
 20
-188.30159
 10
-421.32328
 20
-188.3016
 10
-419.18203
 20
-175.77531
  0
LWPOLYLINE
  5
7C
100
AcDbEntity
  8
0
  6
ByLayer
 62
  256
370
   -1
100
AcDbPolyline
 90
   14
 70
    0
 43
0
 10
-389.6685
 20
-164.60515
 10
-389.77556
 20
-165.14046
 10
-389.81126
 20
-165.28321
 10
-389.81126
 20
-165.39027
 10
-387.38452
 20
-165.39027
 10
-387.09902
 20
-163.92708
 10
-386.88489
 20
-162.42821
 10
-386.84919
 20
-162.32115
 10
-386.81349
 20
-162.1784
 10
-389.24024
 20
-162.1784
 10
-389.41867
 20
-162.92784
 10
-389.56142
 20
-163.96277
 10
-389.56143
 20
-163.96277
 10
-389.6685
 20
-164.60515
  0
LWPOLYLINE
  5
7D
100
AcDbEntity
  8
0
  6
ByLayer
 62
  256
370
   -1
100
AcDbPolyline
 90
   29
 70
    0
 43
0
 10
-392.38074
 20
-168.24524
 10
-392.91605
 20
-167.95974
 10
-393.48705
 20
-167.17462
 10
-393.59411
 20
-166.24675
 10
-393.55841
 20
-165.99694
 10
-393.45134
 20
-165.39025
 10
-393.30859
 20
-164.56944
 10
-393.16584
 20
-163.64156
 10
-392.84466
 20
-161.89288
 10
-392.66622
 20
-160.75088
 10
-392.38964
 20
-159.983602
 10
-391.91678
 20
-159.53751
 10
-390.98891
 20
-159.25201
 10
-384.74361
 20
-159.25201
 10
-384.065547
 20
-159.39476
 10
-383.53024
 20
-159.82301
 10
-383.155517
 20
-160.429697
 10
-383.03061
 20
-161.10776
 10
-383.06631
 20
-161.32188
 10
-383.10201
 20
-161.53601
 10
-383.13771
 20
-161.85719
 10
-383.17341
 20
-162.17838
 10
-383.56597
 20
-164.49806
 10
-383.99422
 20
-166.78206
 10
-384.244033
 20
-167.55826
 10
-384.70797
 20
-168.03112
 10
-385.67153
 20
-168.31662
 10
-391.88112
 20
-168.31664
 10
-392.38074
 20
-168.24524
  0
LWPOLYLINE
  5
7E
100
AcDbEntity
  8
0
  6
ByLayer
 62
  256
370
   -1
100
AcDbPolyline
 90
   10
 70
    0
 43
0
 10
-367.36382
 20
-181.09274
 10
-367.82776
 20
-181.1998
 10
-368.04188
 20
-181.62805
 10
-352.26803
 20
-181.62805
 10
-353.23159
 20
-188.3016
 10
-375.17937
 20
-188.3016
 10
-370.93256
 20
-163.24902
 10
-360.79733
 20
-163.24902
 10
-363.86645
 20
-181.09274
 10
-367.36382
 20
-181.09274
  0
LWPOLYLINE
  5
7F
100
AcDbEntity
  8
0
  6
ByLayer
 62
  256
370
   -1
100
AcDbPolyline
 90
   28
 70
    0
 43
0
 10
-350.84051
 20
-183.37674
 10
-350.76911
 20
-182.98418
 10
-347.41449
 20
-163.24902
 10
-337.70751
 20
-163.24902
 10
-337.81457
 20
-163.92708
 10
-337.99301
 20
-165.06908
 10
-338.34988
 20
-167.17464
 10
-338.84951
 20
-169.95826
 10
-339.38482
 20
-172.99169
 10
-339.88444
 20
-176.02513
 10
-340.34838
 20
-178.63031
 10
-340.66957
 20
-180.45037
 10
-340.77663
 20
-181.16412
 10
-340.52682
 20
-181.52099
 10
-340.09857
 20
-181.62805
 10
-333.38933
 20
-181.62805
 10
-330.28452
 20
-163.24902
 10
-320.57754
 20
-163.24902
 10
-324.82435
 20
-188.3016
 10
-346.41526
 20
-188.3016
 10
-347.70001
 20
-188.08748
 10
-349.1632
 20
-187.33804
 10
-349.79665
 20
-186.722432
 10
-350.34088
 20
-185.94623
 10
-350.715602
 20
-184.955907
 10
-350.84051
 20
-183.7693
 10
-350.84051
 20
-183.7693
 10
-350.84051
 20
-183.37674
  0
LWPOLYLINE
  5
80
100
AcDbEntity
  8
0
  6
ByLayer
 62
  256
370
   -1
100
AcDbPolyline
 90
   33
 70
    0
 43
0
 10
-309.83567
 20
-181.62805
 10
-302.80524
 20
-181.62805
 10
-302.19856
 20
-178.70168
 10
-306.37399
 20
-178.70168
 10
-305.16062
 20
-172.02813
 10
-291.38526
 20
-172.02813
 10
-293.59789
 20
-184.55442
 10
-293.85662
 20
-185.535827
 10
-294.27595
 20
-186.33879
 10
-294.81126
 20
-186.981165
 10
-295.41795
 20
-187.48079
 10
-296.73838
 20
-188.12317
 10
-297.95175
 20
-188.3016
 10
-315.40291
 20
-188.3016
 10
-316.68766
 20
-188.08748
 10
-318.15084
 20
-187.33804
 10
-318.784292
 20
-186.722433
 10
-319.32853
 20
-185.94623
 10
-319.703245
 20
-184.955908
 10
-319.82815
 20
-183.7693
 10
-319.82815
 20
-183.37674
 10
-319.75675
 20
-182.98418
 10
-317.0445
 20
-166.9962
 10
-316.78577
 20
-166.014797
 10
-316.36644
 20
-165.21183
 10
-315.83113
 20
-164.569455
 10
-315.22444
 20
-164.06983
 10
-313.90401
 20
-163.46315
 10
-312.69063
 20
-163.24902
 10
-289.95774
 20
-163.24902
 10
-291.09974
 20
-169.92257
 10
-307.83717
 20
-169.92257
 10
-309.83567
 20
-181.62805
  0
LWPOLYLINE
  5
81
100
AcDbEntity
  8
0
  6
ByLayer
 62
  256
370
   -1
100
AcDbPolyline
 90
   16
 70
    0
 43
0
 10
-283.14147
 20
-163.24902
 10
-269.47318
 20
-163.24902
 10
-268.22412
 20
-163.46315
 10
-267.519293
 20
-163.72188
 10
-266.83231
 20
-164.14121
 10
-266.198858
 20
-164.685445
 10
-265.65462
 20
-165.39027
 10
-265.25314
 20
-166.237847
 10
-265.04794
 20
-167.2817
 10
-262.90669
 20
-188.3016
 10
-272.18542
 20
-188.3016
 10
-272.5423
 20
-184.69717
 10
-279.6441
 20
-184.69717
 10
-280.64335
 20
-188.3016
 10
-289.95777
 20
-188.3016
 10
-283.14147
 20
-163.24902
  0
LWPOLYLINE
  5
82
100
AcDbEntity
  8
0
  6
ByLayer
 62
  256
370
   -1
100
AcDbPolyline
 90
    7
 70
    0
 43
0
 10
-274.00548
 20
-170.35082
 10
-274.21961
 20
-170.06532
 10
-274.68354
 20
-169.92257
 10
-275.61142
 20
-169.92257
 10
-277.82404
 20
-178.02362
 10
-273.22036
 20
-178.02362
 10
-274.00548
 20
-170.35082
  0
LWPOLYLINE
  5
83
100
AcDbEntity
  8
0
  6
ByLayer
 62
  256
370
   -1
100
AcDbPolyline
 90
   24
 70
    0
 43
0
 10
-256.51861
 20
-163.24902
 10
-235.74852
 20
-163.24902
 10
-234.46377
 20
-163.49884
 10
-233.705415
 20
-163.793257
 10
-233.00059
 20
-164.24827
 10
-232.349292
 20
-164.846038
 10
-231.8229
 20
-165.64008
 10
-231.448185
 20
-166.603642
 10
-231.32328
 20
-167.78133
 10
-231.32328
 20
-168.17389
 10
-231.39468
 20
-168.56645
 10
-232.96493
 20
-177.77381
 10
-233.179055
 20
-178.665995
 10
-233.53593
 20
-179.41543
 10
-234.53518
 20
-180.52174
 10
-235.74855
 20
-181.1998
 10
-236.89055
 20
-181.4853
 10
-235.49874
 20
-188.3016
 10
-244.38491
 20
-188.3016
 10
-245.77672
 20
-181.52099
 10
-249.91646
 20
-181.52099
 10
-251.05846
 20
-188.3016
 10
-260.76542
 20
-188.3016
 10
-256.51861
 20
-163.24902
  0
LWPOLYLINE
  5
84
100
AcDbEntity
  8
0
  6
ByLayer
 62
  256
370
   -1
100
AcDbPolyline
 90
   15
 70
    0
 43
0
 10
-242.27932
 20
-174.70469
 10
-242.0652
 20
-174.41919
 10
-241.92245
 20
-173.59838
 10
-241.70832
 20
-172.24226
 10
-241.4942
 20
-170.95751
 10
-241.4585
 20
-170.7077
 10
-241.4228
 20
-170.49357
 10
-241.3871
 20
-170.42217
 10
-241.3871
 20
-170.38647
 10
-241.63691
 20
-170.06528
 10
-242.06516
 20
-169.92253
 10
-247.9179
 20
-169.92253
 10
-248.7744
 20
-174.8474
 10
-242.74326
 20
-174.84744
 10
-242.27932
 20
-174.70469
  0
LWPOLYLINE
  5
85
100
AcDbEntity
  8
0
  6
ByLayer
 62
  256
370
   -1
100
AcDbPolyline
 90
   61
 70
    0
 43
0
 10
-220.18171
 20
-181.62507
 10
-206.16181
 20
-181.62507
 10
-205.69805
 20
-181.51805
 10
-205.484
 20
-181.19698
 10
-205.4127
 20
-180.66187
 10
-205.27
 20
-179.87704
 10
-205.1987
 20
-179.5203
 10
-205.1274
 20
-179.12788
 10
-205.1274
 20
-179.02086
 10
-205.0917
 20
-178.87817
 10
-205.0917
 20
-178.77114
 10
-205.1274
 20
-178.62845
 10
-205.2701
 20
-178.48575
 10
-205.51982
 20
-178.34305
 10
-205.76954
 20
-178.30735
 10
-215.54422
 20
-178.30735
 10
-214.54535
 20
-172.45681
 10
-205.34145
 20
-172.45681
 10
-204.91336
 20
-172.31411
 10
-204.66364
 20
-171.99303
 10
-204.59234
 20
-171.60063
 10
-204.52104
 20
-171.10119
 10
-204.41402
 20
-170.38771
 10
-204.44972
 20
-170.24501
 10
-204.59241
 20
-170.10232
 10
-204.84213
 20
-169.95962
 10
-205.09185
 20
-169.92392
 10
-218.18422
 20
-169.92392
 10
-217.07833
 20
-163.25288
 10
-198.70619
 20
-163.25288
 10
-197.42193
 20
-163.5026
 10
-196.663855
 20
-163.796915
 10
-195.95929
 20
-164.25176
 10
-195.30824
 20
-164.849295
 10
-194.78205
 20
-165.64304
 10
-194.40747
 20
-166.606242
 10
-194.28261
 20
-167.78349
 10
-194.35391
 20
-168.74669
 10
-194.46093
 20
-169.85258
 10
-194.60363
 20
-170.95848
 10
-194.74633
 20
-171.886
 10
-195.129822
 20
-173.250535
 10
-195.85222
 20
-174.27616
 10
-196.779745
 20
-174.989645
 10
-197.77862
 20
-175.48908
 10
-197.5289
 20
-175.66744
 10
-197.27918
 20
-175.84581
 10
-196.20896
 20
-176.98738
 10
-195.83438
 20
-177.798965
 10
-195.70952
 20
-178.80676
 10
-195.81655
 20
-179.984
 10
-196.06627
 20
-181.58933
 10
-196.31598
 20
-183.19468
 10
-196.49435
 20
-184.37191
 10
-196.726235
 20
-185.38862
 10
-197.13649
 20
-186.22697
 10
-198.27806
 20
-187.43988
 10
-199.63367
 20
-188.11768
 10
-200.88226
 20
-188.29605
 10
-221.32328
 20
-188.29611
 10
-220.18171
 20
-181.62507
  0
LWPOLYLINE
  5
86
100
AcDbEntity
  8
0
  6
ByLayer
 62
  256
370
   -1
100
AcDbPolyline
 90
   14
 70
    0
 43
0
 10
-189.60908
 20
-164.60855
 10
-189.7161
 20
-165.14365
 10
-189.7518
 20
-165.28635
 10
-189.7518
 20
-165.39338
 10
-187.32596
 20
-165.39338
 10
-187.04057
 20
-163.93074
 10
-186.82653
 20
-162.43242
 10
-186.79083
 20
-162.32541
 10
-186.75513
 20
-162.18271
 10
-189.18096
 20
-162.18271
 10
-189.35933
 20
-162.93187
 10
-189.50203
 20
-163.96641
 10
-189.50206
 20
-163.96641
 10
-189.60908
 20
-164.60855
  0
LWPOLYLINE
  5
87
100
AcDbEntity
  8
0
  6
ByLayer
 62
  256
370
   -1
100
AcDbPolyline
 90
   29
 70
    0
 43
0
 10
-192.32031
 20
-168.24735
 10
-192.85542
 20
-167.96196
 10
-193.4262
 20
-167.17713
 10
-193.53323
 20
-166.2496
 10
-193.49753
 20
-165.99988
 10
-193.39051
 20
-165.39343
 10
-193.24781
 20
-164.57291
 10
-193.10512
 20
-163.6454
 10
-192.78405
 20
-161.89737
 10
-192.60568
 20
-160.7558
 10
-192.329208
 20
-159.988805
 10
-191.85653
 20
-159.54288
 10
-190.929
 20
-159.25749
 10
-184.68604
 20
-159.25749
 10
-184.008235
 20
-159.400185
 10
-183.47312
 20
-159.82827
 10
-183.098548
 20
-160.434732
 10
-182.97369
 20
-161.11254
 10
-183.00939
 20
-161.32658
 10
-183.04509
 20
-161.54063
 10
-183.08079
 20
-161.8617
 10
-183.11649
 20
-162.18276
 10
-183.50891
 20
-164.50157
 10
-183.937
 20
-166.78471
 10
-184.186715
 20
-167.56062
 10
-184.65048
 20
-168.03331
 10
-185.61368
 20
-168.3187
 10
-191.82087
 20
-168.31865
 10
-192.32031
 20
-168.24735
  0
LWPOLYLINE
  5
88
100
AcDbEntity
  8
0
  6
ByLayer
 62
  256
370
   -1
100
AcDbPolyline
 90
   10
 70
    0
 43
0
 10
-167.31277
 20
-181.08996
 10
-167.77654
 20
-181.19697
 10
-167.99058
 20
-181.62506
 10
-152.22265
 20
-181.62506
 10
-153.18585
 20
-188.29611
 10
-175.12539
 20
-188.29611
 10
-170.88018
 20
-163.25293
 10
-160.74875
 20
-163.25293
 10
-163.81672
 20
-181.08996
 10
-167.31277
 20
-181.08996
  0
LWPOLYLINE
  5
89
100
AcDbEntity
  8
0
  6
ByLayer
 62
  256
370
   -1
100
AcDbPolyline
 90
   28
 70
    0
 43
0
 10
-150.79563
 20
-183.3731
 10
-150.72433
 20
-182.98068
 10
-147.37097
 20
-163.25293
 10
-137.66762
 20
-163.25293
 10
-137.77465
 20
-163.93074
 10
-137.95302
 20
-165.07231
 10
-138.30976
 20
-167.17707
 10
-138.80919
 20
-169.95965
 10
-139.3443
 20
-172.99195
 10
-139.84374
 20
-176.02424
 10
-140.3075
 20
-178.62845
 10
-140.62857
 20
-180.44782
 10
-140.73559
 20
-181.1613
 10
-140.48587
 20
-181.51805
 10
-140.05779
 20
-181.62506
 10
-133.35107
 20
-181.62506
 10
-130.24742
 20
-163.25293
 10
-120.54408
 20
-163.25293
 10
-124.78929
 20
-188.29611
 10
-146.37209
 20
-188.29611
 10
-147.65636
 20
-188.08206
 10
-149.11899
 20
-187.33291
 10
-149.752208
 20
-186.717528
 10
-150.29624
 20
-185.94162
 10
-150.670813
 20
-184.951665
 10
-150.79567
 20
-183.7655
 10
-150.79563
 20
-183.7655
 10
-150.79563
 20
-183.3731
  0
LWPOLYLINE
  5
8A
100
AcDbEntity
  8
0
  6
ByLayer
 62
  256
370
   -1
100
AcDbPolyline
 90
   33
 70
    0
 43
0
 10
-109.80618
 20
-181.62507
 10
-102.7784
 20
-181.62507
 10
-102.17194
 20
-178.6998
 10
-106.3458
 20
-178.6998
 10
-105.13288
 20
-172.02875
 10
-91.36269900000001
 20
-172.02875
 10
-93.574489
 20
-184.55034
 10
-93.833127
 20
-185.531375
 10
-94.25229899999999
 20
-186.33404
 10
-94.787407
 20
-186.976173
 10
-95.393869
 20
-187.47561
 10
-96.713809
 20
-188.11774
 10
-97.92671900000001
 20
-188.29611
 10
-115.37133
 20
-188.29611
 10
-116.6556
 20
-188.08207
 10
-118.11824
 20
-187.33291
 10
-118.75145
 20
-186.717535
 10
-119.29548
 20
-185.94163
 10
-119.67006
 20
-184.951673
 10
-119.79492
 20
-183.7655
 10
-119.79492
 20
-183.3731
 10
-119.72362
 20
-182.98068
 10
-117.01239
 20
-166.99871
 10
-116.753752
 20
-166.017675
 10
-116.33458
 20
-165.21501
 10
-115.799473
 20
-164.572873
 10
-115.19301
 20
-164.07344
 10
-113.87307
 20
-163.46697
 10
-112.66016
 20
-163.25293
 10
-89.935789
 20
-163.25293
 10
-91.077359
 20
-169.92397
 10
-107.80844
 20
-169.92398
 10
-109.80618
 20
-181.62507
  0
LWPOLYLINE
  5
8B
100
AcDbEntity
  8
0
  6
ByLayer
 62
  256
370
   -1
100
AcDbPolyline
 90
   16
 70
    0
 43
0
 10
-83.12201899999999
 20
-163.25293
 10
-69.458859
 20
-163.25293
 10
-68.210269
 20
-163.46697
 10
-67.505707
 20
-163.725607
 10
-66.818979
 20
-164.14478
 10
-66.18576899999999
 20
-164.68881
 10
-65.641739
 20
-165.39338
 10
-65.240404
 20
-166.240635
 10
-65.035279
 20
-167.2841
 10
-62.894839
 20
-188.2961
 10
-72.170089
 20
-188.2961
 10
-72.52682900000001
 20
-184.69303
 10
-79.625969
 20
-184.69303
 10
-80.62483899999999
 20
-188.2961
 10
-89.93576899999999
 20
-188.29611
 10
-83.12201899999999
 20
-163.25293
  0
LWPOLYLINE
  5
8C
100
AcDbEntity
  8
0
  6
ByLayer
 62
  256
370
   -1
100
AcDbPolyline
 90
    7
 70
    0
 43
0
 10
-73.989469
 20
-170.35207
 10
-74.203509
 20
-170.06668
 10
-74.667269
 20
-169.92398
 10
-75.59479899999999
 20
-169.92398
 10
-77.806589
 20
-178.02199
 10
-73.204639
 20
-178.02199
 10
-73.989469
 20
-170.35207
  0
LWPOLYLINE
  5
8D
100
AcDbEntity
  8
0
  6
ByLayer
 62
  256
370
   -1
100
AcDbPolyline
 90
   24
 70
    0
 43
0
 10
-56.509159
 20
-163.25293
 10
-35.746859
 20
-163.25293
 10
-34.462599
 20
-163.50265
 10
-33.704524
 20
-163.79696
 10
-32.999959
 20
-164.25181
 10
-32.348909
 20
-164.849345
 10
-31.822719
 20
-165.64309
 10
-31.448139
 20
-166.606293
 10
-31.323279
 20
-167.78354
 10
-31.323279
 20
-168.17594
 10
-31.394579
 20
-168.56836
 10
-32.964239
 20
-177.77226
 10
-33.178279
 20
-178.66412
 10
-33.535019
 20
-179.41328
 10
-34.533889
 20
-180.51916
 10
-35.746809
 20
-181.19697
 10
-36.888379
 20
-181.48236
 10
-35.497089
 20
-188.29611
 10
-44.379929
 20
-188.29611
 10
-45.771219
 20
-181.51805
 10
-49.909409
 20
-181.51805
 10
-51.050979
 20
-188.29611
 10
-60.754369
 20
-188.29611
 10
-56.509159
 20
-163.25293
  0
LWPOLYLINE
  5
8E
100
AcDbEntity
  8
0
  6
ByLayer
 62
  256
370
   -1
100
AcDbPolyline
 90
   15
 70
    0
 43
0
 10
-42.275209
 20
-174.7043
 10
-42.061169
 20
-174.41891
 10
-41.918469
 20
-173.5984
 10
-41.704429
 20
-172.24279
 10
-41.490379
 20
-170.95853
 10
-41.454679
 20
-170.70881
 10
-41.418979
 20
-170.49475
 10
-41.383279
 20
-170.42345
 10
-41.383279
 20
-170.38775
 10
-41.632999
 20
-170.0667
 10
-42.061089
 20
-169.924
 10
-47.911629
 20
-169.924
 10
-48.767809
 20
-174.84701
 10
-42.738969
 20
-174.847
 10
-42.275209
 20
-174.7043
  0
LWPOLYLINE
  5
8F
100
AcDbEntity
  8
0
  6
ByLayer
 62
  256
370
   -1
100
AcDbPolyline
 90
   54
 70
    0
 43
0
 10
-215.884579
 20
-129.05801
 10
-211.354293
 20
-129.05801
 10
-211.204436
 20
-129.023427
 10
-211.135271
 20
-128.91968
 10
-211.112216
 20
-128.746769
 10
-211.066106
 20
-128.493165
 10
-211.043052
 20
-128.37789
 10
-211.019997
 20
-128.251088
 10
-211.019997
 20
-128.216506
 10
-211.008469
 20
-128.170396
 10
-211.008469
 20
-128.135814
 10
-211.019997
 20
-128.089704
 10
-211.066106
 20
-128.043594
 10
-211.146799
 20
-127.997485
 10
-211.227491
 20
-127.985957
 10
-214.386011
 20
-127.985957
 10
-214.063243
 20
-126.095456
 10
-211.089161
 20
-126.095456
 10
-210.950832
 20
-126.049346
 10
-210.87014
 20
-125.945599
 10
-210.847085
 20
-125.818797
 10
-210.82403
 20
-125.657413
 10
-210.789448
 20
-125.426864
 10
-210.800975
 20
-125.380754
 10
-210.847085
 20
-125.334644
 10
-210.927777
 20
-125.288534
 10
-211.008469
 20
-125.277007
 10
-215.239042
 20
-125.277007
 10
-214.881691
 20
-123.121374
 10
-208.945056
 20
-123.121374
 10
-208.530068
 20
-123.202067
 10
-208.057443
 20
-123.444143
 10
-207.677037
 20
-123.893713
 10
-207.515653
 20
-124.58536
 10
-207.538708
 20
-124.896601
 10
-207.57329
 20
-125.253952
 10
-207.6194
 20
-125.611303
 10
-207.66551
 20
-125.911017
 10
-208.02286
 20
-126.683356
 10
-208.645343
 20
-127.075289
 10
-208.56465
 20
-127.132926
 10
-208.483958
 20
-127.190563
 10
-208.138135
 20
-127.559442
 10
-207.976751
 20
-128.147341
 10
-208.011333
 20
-128.527747
 10
-208.092025
 20
-129.046482
 10
-208.172717
 20
-129.565217
 10
-208.230355
 20
-129.945623
 10
-208.437848
 20
-130.54505
 10
-208.806727
 20
-130.936984
 10
-209.24477
 20
-131.156005
 10
-209.64823
 20
-131.213642
 10
-216.253458
 20
-131.213642
 10
-215.884579
 20
-129.05801
  0
LWPOLYLINE
  5
90
100
AcDbEntity
  8
0
  6
ByLayer
 62
  256
370
   -1
100
AcDbPolyline
 90
   25
 70
    0
 43
0
 10
-207.043035
 20
-122.775551
 10
-206.881651
 20
-121.8303
 10
-204.679908
 20
-121.8303
 10
-204.287975
 20
-122.014739
 10
-204.126591
 20
-122.429728
 10
-204.138118
 20
-122.498892
 10
-204.138118
 20
-122.568057
 10
-204.172701
 20
-122.775551
 10
-204.299503
 20
-123.524835
 10
-204.437832
 20
-124.262592
 10
-204.668381
 20
-124.666052
 10
-204.979622
 20
-124.758272
 10
-206.720267
 20
-124.758272
 10
-206.881651
 20
-124.735217
 10
-207.054562
 20
-124.642997
 10
-207.204419
 20
-124.458558
 10
-207.273584
 20
-124.158845
 10
-207.262056
 20
-123.939823
 10
-207.215947
 20
-123.686219
 10
-207.169837
 20
-123.45567
 10
-207.135255
 20
-123.259704
 10
-206.893178
 20
-122.867771
 10
-206.593465
 20
-122.775551
 10
-205.383083
 20
-122.775551
 10
-207.043035
 20
-122.775551
  0
LWPOLYLINE
  5
91
100
AcDbEntity
  8
0
  6
ByLayer
 62
  256
370
   -1
100
AcDbPolyline
 90
    6
 70
    0
 43
0
 10
-205.544467
 20
-123.720802
 10
-206.005565
 20
-123.720802
 10
-206.017092
 20
-123.766911
 10
-206.02862
 20
-123.813021
 10
-205.555994
 20
-123.813021
 10
-205.544467
 20
-123.720802
  0
LWPOLYLINE
  5
92
100
AcDbEntity
  8
0
  6
ByLayer
 62
  256
370
   -1
100
AcDbPolyline
 90
   31
 70
    0
 43
0
 10
-201.590552
 20
-129.622855
 10
-201.567497
 20
-129.496053
 10
-200.691411
 20
-124.331756
 10
-200.472389
 20
-123.755384
 10
-200.103511
 20
-123.386506
 10
-199.676995
 20
-123.190539
 10
-199.285062
 20
-123.121374
 10
-191.942079
 20
-123.121374
 10
-192.310958
 20
-125.277007
 10
-198.847019
 20
-125.277007
 10
-198.996876
 20
-125.311589
 10
-199.066041
 20
-125.449919
 10
-197.740384
 20
-125.449919
 10
-198.362866
 20
-129.05801
 10
-196.091959
 20
-129.05801
 10
-195.895993
 20
-128.112759
 10
-197.244704
 20
-128.112759
 10
-196.852771
 20
-125.957126
 10
-192.403177
 20
-125.957126
 10
-193.117879
 20
-130.00326
 10
-193.3369
 20
-130.579633
 10
-193.705779
 20
-130.948511
 10
-194.132293
 20
-131.156005
 10
-194.524226
 20
-131.213642
 10
-200.161148
 20
-131.213642
 10
-200.576136
 20
-131.144478
 10
-201.048762
 20
-130.902401
 10
-201.429167
 20
-130.452831
 10
-201.590552
 20
-129.749656
 10
-201.590552
 20
-129.749656
 10
-201.590552
 20
-129.622855
  0
LWPOLYLINE
  5
93
100
AcDbEntity
  8
0
  6
ByLayer
 62
  256
370
   -1
100
AcDbPolyline
 90
    5
 70
    0
 43
0
 10
-188.333985
 20
-131.213642
 10
-191.596252
 20
-131.213642
 10
-190.224486
 20
-123.121374
 10
-186.950691
 20
-123.121374
 10
-188.333985
 20
-131.213642
  0
LWPOLYLINE
  5
94
100
AcDbEntity
  8
0
  6
ByLayer
 62
  256
370
   -1
100
AcDbPolyline
 90
   25
 70
    0
 43
0
 10
-177.993856
 20
-123.121374
 10
-177.578867
 20
-123.202067
 10
-177.106242
 20
-123.444143
 10
-176.725836
 20
-123.893713
 10
-176.564452
 20
-124.58536
 10
-176.57598
 20
-124.712162
 10
-176.587507
 20
-124.838964
 10
-177.671087
 20
-131.213642
 10
-180.806553
 20
-131.213642
 10
-180.77197
 20
-130.994621
 10
-180.702806
 20
-130.625742
 10
-180.576004
 20
-129.945623
 10
-180.426147
 20
-129.05801
 10
-180.264763
 20
-128.066649
 10
-180.091851
 20
-127.086816
 10
-179.953522
 20
-126.25684
 10
-179.849774
 20
-125.66894
 10
-179.815192
 20
-125.426864
 10
-179.895884
 20
-125.323117
 10
-180.034214
 20
-125.277007
 10
-182.454978
 20
-125.277007
 10
-183.469393
 20
-131.213642
 10
-186.604858
 20
-131.213642
 10
-185.233092
 20
-123.121374
 10
-177.993856
 20
-123.121374
  0
LWPOLYLINE
  5
95
100
AcDbEntity
  8
0
  6
ByLayer
 62
  256
370
   -1
100
AcDbPolyline
 90
   30
 70
    0
 43
0
 10
-174.904492
 20
-131.213642
 10
-175.319481
 20
-131.144478
 10
-175.792106
 20
-130.902401
 10
-176.172512
 20
-130.452831
 10
-176.333896
 20
-129.749656
 10
-176.333896
 20
-129.622855
 10
-176.310841
 20
-129.496053
 10
-175.434755
 20
-124.331756
 10
-175.215733
 20
-123.755384
 10
-174.846855
 20
-123.386506
 10
-174.42034
 20
-123.190539
 10
-174.028406
 20
-123.121374
 10
-167.354015
 20
-123.121374
 10
-167.711365
 20
-125.277007
 10
-172.264707
 20
-125.277007
 10
-172.414564
 20
-125.323117
 10
-172.483729
 20
-125.415336
 10
-172.529838
 20
-125.657413
 10
-172.599003
 20
-126.083928
 10
-172.70275
 20
-126.648773
 10
-172.806497
 20
-127.259728
 10
-172.910244
 20
-127.88221
 10
-173.002464
 20
-128.400945
 10
-173.060101
 20
-128.758296
 10
-173.083156
 20
-128.908153
 10
-173.002464
 20
-129.023427
 10
-172.864134
 20
-129.05801
 10
-168.356902
 20
-129.05801
 10
-168.725781
 20
-131.213642
 10
-174.904492
 20
-131.213642
  0
LWPOLYLINE
  5
96
100
AcDbEntity
  8
0
  6
ByLayer
 62
  256
370
   -1
100
AcDbPolyline
 90
   13
 70
    0
 43
0
 10
-165.37131
 20
-123.121374
 10
-160.956298
 20
-123.121374
 10
-160.552837
 20
-123.190539
 10
-160.103267
 20
-123.409561
 10
-159.722861
 20
-123.813021
 10
-159.526894
 20
-124.423976
 10
-158.835248
 20
-131.213642
 10
-161.832384
 20
-131.213642
 10
-161.947658
 20
-130.04937
 10
-164.24162
 20
-130.04937
 10
-164.564389
 20
-131.213642
 10
-167.573052
 20
-131.213642
 10
-165.37131
 20
-123.121374
  0
LWPOLYLINE
  5
97
100
AcDbEntity
  8
0
  6
ByLayer
 62
  256
370
   -1
100
AcDbPolyline
 90
    7
 70
    0
 43
0
 10
-162.420284
 20
-125.415336
 10
-162.489448
 20
-125.323117
 10
-162.639305
 20
-125.277007
 10
-162.939019
 20
-125.277007
 10
-163.65372
 20
-127.893737
 10
-162.16668
 20
-127.893737
 10
-162.420284
 20
-125.415336
  0
LWPOLYLINE
  5
98
100
AcDbEntity
  8
0
  6
ByLayer
 62
  256
370
   -1
100
AcDbPolyline
 90
   25
 70
    0
 43
0
 10
-149.532589
 20
-123.121374
 10
-149.117601
 20
-123.202067
 10
-148.644975
 20
-123.444143
 10
-148.264569
 20
-123.893713
 10
-148.103185
 20
-124.58536
 10
-148.114713
 20
-124.712162
 10
-148.12624
 20
-124.838964
 10
-149.20982
 20
-131.213642
 10
-152.345286
 20
-131.213642
 10
-152.310703
 20
-130.994621
 10
-152.241539
 20
-130.625742
 10
-152.114737
 20
-129.945623
 10
-151.96488
 20
-129.05801
 10
-151.803496
 20
-128.066649
 10
-151.630584
 20
-127.086816
 10
-151.492255
 20
-126.25684
 10
-151.388508
 20
-125.66894
 10
-151.353925
 20
-125.426864
 10
-151.434617
 20
-125.323117
 10
-151.572947
 20
-125.277007
 10
-153.993711
 20
-125.277007
 10
-155.008125
 20
-131.213642
 10
-158.143591
 20
-131.213642
 10
-156.771824
 20
-123.121374
 10
-149.532589
 20
-123.121374
  0
LWPOLYLINE
  5
99
100
AcDbEntity
  8
0
  6
ByLayer
 62
  256
370
   -1
100
AcDbPolyline
 90
   13
 70
    0
 43
0
 10
-145.670889
 20
-123.121374
 10
-141.255877
 20
-123.121374
 10
-140.852416
 20
-123.190539
 10
-140.402846
 20
-123.409561
 10
-140.02244
 20
-123.813021
 10
-139.826474
 20
-124.423976
 10
-139.134827
 20
-131.213642
 10
-142.131963
 20
-131.213642
 10
-142.247238
 20
-130.04937
 10
-144.541199
 20
-130.04937
 10
-144.863968
 20
-131.213642
 10
-147.872632
 20
-131.213642
 10
-145.670889
 20
-123.121374
  0
LWPOLYLINE
  5
9A
100
AcDbEntity
  8
0
  6
ByLayer
 62
  256
370
   -1
100
AcDbPolyline
 90
    7
 70
    0
 43
0
 10
-142.719863
 20
-125.415336
 10
-142.789028
 20
-125.323117
 10
-142.938884
 20
-125.277007
 10
-143.238598
 20
-125.277007
 10
-143.9533
 20
-127.893737
 10
-142.466259
 20
-127.893737
 10
-142.719863
 20
-125.415336
  0
LWPOLYLINE
  5
9B
100
AcDbEntity
  8
0
  6
ByLayer
 62
  256
370
   -1
100
AcDbPolyline
 90
   10
 70
    0
 43
0
 10
-136.483507
 20
-131.213642
 10
-135.11174
 20
-123.121374
 10
-131.837946
 20
-123.121374
 10
-132.206824
 20
-125.277007
 10
-133.336514
 20
-125.277007
 10
-133.474843
 20
-125.311589
 10
-133.555535
 20
-125.449919
 10
-132.241406
 20
-125.449919
 10
-133.221239
 20
-131.213642
 10
-136.483507
 20
-131.213642
  0
LWPOLYLINE
  5
9C
100
AcDbEntity
  8
0
  6
ByLayer
 62
  256
370
   -1
100
AcDbPolyline
 90
   28
 70
    0
 43
0
 10
-122.881106
 20
-123.121374
 10
-122.466118
 20
-123.202067
 10
-121.993493
 20
-123.444143
 10
-121.613085
 20
-123.893713
 10
-121.451701
 20
-124.58536
 10
-121.463229
 20
-124.712162
 10
-121.474756
 20
-124.838964
 10
-122.558338
 20
-131.213642
 10
-125.693804
 20
-131.213642
 10
-125.659221
 20
-130.994621
 10
-125.590056
 20
-130.625742
 10
-125.463255
 20
-129.945623
 10
-125.313398
 20
-129.05801
 10
-125.152013
 20
-128.066649
 10
-124.979102
 20
-127.086816
 10
-124.840772
 20
-126.25684
 10
-124.737025
 20
-125.66894
 10
-124.702443
 20
-125.426864
 10
-124.783135
 20
-125.323117
 10
-124.921465
 20
-125.277007
 10
-128.471918
 20
-125.277007
 10
-128.621775
 20
-125.311589
 10
-128.69094
 20
-125.449919
 10
-127.376811
 20
-125.449919
 10
-128.356644
 20
-131.213642
 10
-131.492109
 20
-131.213642
 10
-130.120343
 20
-123.121374
 10
-122.881106
 20
-123.121374
  0
LWPOLYLINE
  5
9D
100
AcDbEntity
  8
0
  6
ByLayer
 62
  256
370
   -1
100
AcDbPolyline
 90
    9
 70
    0
 43
0
 10
-120.621716
 20
-123.121374
 10
-112.264317
 20
-123.121374
 10
-112.633195
 20
-125.277007
 10
-115.203816
 20
-125.277007
 10
-116.206704
 20
-131.213642
 10
-119.342169
 20
-131.213642
 10
-118.327754
 20
-125.277007
 10
-120.990594
 20
-125.277007
 10
-120.621716
 20
-123.121374
  0
LWPOLYLINE
  5
9E
100
AcDbEntity
  8
0
  6
ByLayer
 62
  256
370
   -1
100
AcDbPolyline
 90
   32
 70
    0
 43
0
 10
-109.140388
 20
-128.297198
 10
-109.17497
 20
-128.481637
 10
-109.198025
 20
-128.643022
 10
-109.22108
 20
-128.769823
 10
-109.232607
 20
-128.850516
 10
-109.244135
 20
-128.908153
 10
-109.163443
 20
-129.023427
 10
-109.025113
 20
-129.05801
 10
-104.783013
 20
-129.05801
 10
-105.151891
 20
-131.213642
 10
-111.065471
 20
-131.213642
 10
-111.480459
 20
-131.144478
 10
-111.953085
 20
-130.902401
 10
-112.333491
 20
-130.452831
 10
-112.494875
 20
-129.749656
 10
-112.494875
 20
-129.622855
 10
-112.47182
 20
-129.496053
 10
-111.595734
 20
-124.331756
 10
-111.376712
 20
-123.755384
 10
-111.007834
 20
-123.386506
 10
-110.581319
 20
-123.190539
 10
-110.189385
 20
-123.121374
 10
-103.768597
 20
-123.121374
 10
-104.137476
 20
-125.277007
 10
-108.425686
 20
-125.277007
 10
-108.575543
 20
-125.323117
 10
-108.644707
 20
-125.415336
 10
-108.736927
 20
-125.957126
 10
-105.025089
 20
-125.957126
 10
-105.417022
 20
-128.112759
 10
-109.105805
 20
-128.112759
 10
-109.140388
 20
-128.297198
  0
LWPOLYLINE
  5
9F
100
AcDbEntity
  8
0
  6
ByLayer
 62
  256
370
   -1
100
AcDbPolyline
 90
   27
 70
    0
 43
0
 10
-100.310354
 20
-129.05801
 10
-98.039447
 20
-129.05801
 10
-97.84348
 20
-128.112759
 10
-99.19219200000001
 20
-128.112759
 10
-98.800259
 20
-125.957126
 10
-94.35066399999999
 20
-125.957126
 10
-95.065366
 20
-130.00326
 10
-95.284387
 20
-130.579633
 10
-95.653265
 20
-130.948511
 10
-96.079781
 20
-131.156005
 10
-96.47171400000001
 20
-131.213642
 10
-102.108636
 20
-131.213642
 10
-102.523624
 20
-131.144478
 10
-102.996249
 20
-130.902401
 10
-103.376655
 20
-130.452831
 10
-103.538039
 20
-129.749656
 10
-103.538039
 20
-129.622855
 10
-103.514984
 20
-129.496053
 10
-102.638898
 20
-124.331756
 10
-102.419877
 20
-123.755384
 10
-102.050999
 20
-123.386506
 10
-101.624483
 20
-123.190539
 10
-101.23255
 20
-123.121374
 10
-93.889566
 20
-123.121374
 10
-94.258444
 20
-125.277007
 10
-99.664817
 20
-125.277007
 10
-100.310354
 20
-129.05801
  0
LWPOLYLINE
  5
A0
100
AcDbEntity
  8
0
  6
ByLayer
 62
  256
370
   -1
100
AcDbPolyline
 90
   20
 70
    0
 43
0
 10
-92.287251
 20
-123.121374
 10
-85.578277
 20
-123.121374
 10
-85.16328900000001
 20
-123.202067
 10
-84.690663
 20
-123.444143
 10
-84.310258
 20
-123.893713
 10
-84.14887299999999
 20
-124.58536
 10
-84.14887299999999
 20
-124.712162
 10
-84.17192799999999
 20
-124.838964
 10
-84.679136
 20
-127.813045
 10
-84.863575
 20
-128.343308
 10
-85.18634400000001
 20
-128.700659
 10
-85.578277
 20
-128.91968
 10
-85.947155
 20
-129.0119
 10
-85.497585
 20
-131.213642
 10
-88.367919
 20
-131.213642
 10
-88.81748899999999
 20
-129.023427
 10
-90.154673
 20
-129.023427
 10
-90.523552
 20
-131.213642
 10
-93.65901700000001
 20
-131.213642
 10
-92.287251
 20
-123.121374
  0
LWPOLYLINE
  5
A1
100
AcDbEntity
  8
0
  6
ByLayer
 62
  256
370
   -1
100
AcDbPolyline
 90
   15
 70
    0
 43
0
 10
-87.6878
 20
-126.821685
 10
-87.618635
 20
-126.729465
 10
-87.572525
 20
-126.464334
 10
-87.50336
 20
-126.026291
 10
-87.434196
 20
-125.611303
 10
-87.422668
 20
-125.530611
 10
-87.411141
 20
-125.461446
 10
-87.399613
 20
-125.438391
 10
-87.399613
 20
-125.426864
 10
-87.480305
 20
-125.323117
 10
-87.618635
 20
-125.277007
 10
-89.509136
 20
-125.277007
 10
-89.78579499999999
 20
-126.867795
 10
-87.837656
 20
-126.867795
 10
-87.6878
 20
-126.821685
  0
LWPOLYLINE
  5
A2
100
AcDbEntity
  8
0
  6
ByLayer
 62
  256
370
   -1
100
AcDbPolyline
 90
   13
 70
    0
 43
0
 10
-81.94714
 20
-123.121374
 10
-77.532128
 20
-123.121374
 10
-77.12866699999999
 20
-123.190539
 10
-76.679097
 20
-123.409561
 10
-76.29869100000001
 20
-123.813021
 10
-76.10272399999999
 20
-124.423976
 10
-75.41107700000001
 20
-131.213642
 10
-78.408214
 20
-131.213642
 10
-78.523488
 20
-130.04937
 10
-80.81744999999999
 20
-130.04937
 10
-81.140219
 20
-131.213642
 10
-84.148882
 20
-131.213642
 10
-81.94714
 20
-123.121374
  0
LWPOLYLINE
  5
A3
100
AcDbEntity
  8
0
  6
ByLayer
 62
  256
370
   -1
100
AcDbPolyline
 90
    7
 70
    0
 43
0
 10
-78.99611299999999
 20
-125.415336
 10
-79.06527800000001
 20
-125.323117
 10
-79.215135
 20
-125.277007
 10
-79.514849
 20
-125.277007
 10
-80.22955
 20
-127.893737
 10
-78.74251
 20
-127.893737
 10
-78.99611299999999
 20
-125.415336
  0
LWPOLYLINE
  5
A4
100
AcDbEntity
  8
0
  6
ByLayer
 62
  256
370
   -1
100
AcDbPolyline
 90
   18
 70
    0
 43
0
 10
-68.598347
 20
-125.288534
 10
-68.679039
 20
-125.277007
 10
-70.569541
 20
-125.277007
 10
-71.21507800000001
 20
-129.05801
 10
-69.26693899999999
 20
-129.05801
 10
-69.12860999999999
 20
-129.023427
 10
-69.059445
 20
-128.91968
 10
-69.013335
 20
-128.689131
 10
-68.944171
 20
-128.251088
 10
-68.840424
 20
-127.697771
 10
-68.736676
 20
-127.075289
 10
-68.632929
 20
-126.464334
 10
-68.54071
 20
-125.945599
 10
-68.483073
 20
-125.576721
 10
-68.46001800000001
 20
-125.426864
 10
-68.517655
 20
-125.334644
 10
-68.517655
 20
-125.334644
 10
-68.598347
 20
-125.288534
  0
LWPOLYLINE
  5
A5
100
AcDbEntity
  8
0
  6
ByLayer
 62
  256
370
   -1
100
AcDbPolyline
 90
   16
 70
    0
 43
0
 10
-65.209278
 20
-124.712162
 10
-65.232333
 20
-124.838964
 10
-66.108419
 20
-130.00326
 10
-66.32744
 20
-130.579633
 10
-66.69631800000001
 20
-130.948511
 10
-67.122834
 20
-131.156005
 10
-67.51476700000001
 20
-131.213642
 10
-74.71942199999999
 20
-131.213642
 10
-73.347655
 20
-123.121374
 10
-66.63868100000001
 20
-123.121374
 10
-66.223693
 20
-123.202067
 10
-65.751068
 20
-123.444143
 10
-65.370662
 20
-123.893713
 10
-65.209278
 20
-124.58536
 10
-65.209278
 20
-124.58536
 10
-65.209278
 20
-124.712162
  0
LWPOLYLINE
  5
A6
100
AcDbEntity
  8
0
  6
ByLayer
 62
  256
370
   -1
100
AcDbPolyline
 90
   31
 70
    0
 43
0
 10
-61.036351
 20
-125.657413
 10
-61.105516
 20
-126.083928
 10
-61.197735
 20
-126.648773
 10
-61.301482
 20
-127.259728
 10
-61.405229
 20
-127.88221
 10
-61.485921
 20
-128.400945
 10
-61.543559
 20
-128.758296
 10
-61.566613
 20
-128.908153
 10
-61.566613
 20
-128.954263
 10
-61.508976
 20
-129.000372
 10
-61.428284
 20
-129.046482
 10
-61.359119
 20
-129.05801
 10
-58.96141
 20
-129.05801
 10
-58.811554
 20
-129.023427
 10
-58.742389
 20
-128.91968
 10
-58.707807
 20
-128.689131
 10
-58.627114
 20
-128.251088
 10
-58.534895
 20
-127.697771
 10
-58.431148
 20
-127.075289
 10
-58.327401
 20
-126.464334
 10
-58.235181
 20
-125.945599
 10
-58.177544
 20
-125.576721
 10
-58.154489
 20
-125.426864
 10
-58.212126
 20
-125.334644
 10
-58.292819
 20
-125.288534
 10
-58.373511
 20
-125.277007
 10
-60.77122
 20
-125.277007
 10
-60.921076
 20
-125.323117
 10
-60.990241
 20
-125.415336
 10
-60.990241
 20
-125.415336
 10
-61.036351
 20
-125.657413
  0
LWPOLYLINE
  5
A7
100
AcDbEntity
  8
0
  6
ByLayer
 62
  256
370
   -1
100
AcDbPolyline
 90
   25
 70
    0
 43
0
 10
-55.998857
 20
-123.202067
 10
-55.526231
 20
-123.444143
 10
-55.145825
 20
-123.893713
 10
-54.984441
 20
-124.58536
 10
-54.984441
 20
-124.712162
 10
-54.995969
 20
-124.838964
 10
-55.883582
 20
-130.00326
 10
-56.102604
 20
-130.579633
 10
-56.471482
 20
-130.948511
 10
-56.897997
 20
-131.156005
 10
-57.289931
 20
-131.213642
 10
-63.318785
 20
-131.213642
 10
-63.733774
 20
-131.144478
 10
-64.206399
 20
-130.902401
 10
-64.586805
 20
-130.452831
 10
-64.748189
 20
-129.749656
 10
-64.748189
 20
-129.622855
 10
-64.725134
 20
-129.496053
 10
-63.849048
 20
-124.331756
 10
-63.630027
 20
-123.755384
 10
-63.261148
 20
-123.386506
 10
-62.834633
 20
-123.190539
 10
-62.442699
 20
-123.121374
 10
-56.413845
 20
-123.121374
 10
-55.998857
 20
-123.202067
  0
LWPOLYLINE
  5
A8
100
AcDbEntity
  8
0
  6
ByLayer
 62
  256
370
   -1
100
AcDbPolyline
 90
   20
 70
    0
 43
0
 10
-53.37059
 20
-123.121374
 10
-46.661615
 20
-123.121374
 10
-46.246627
 20
-123.202067
 10
-45.774002
 20
-123.444143
 10
-45.393596
 20
-123.893713
 10
-45.232212
 20
-124.58536
 10
-45.232212
 20
-124.712162
 10
-45.255267
 20
-124.838964
 10
-45.762474
 20
-127.813045
 10
-45.946914
 20
-128.343308
 10
-46.269682
 20
-128.700659
 10
-46.661615
 20
-128.91968
 10
-47.030494
 20
-129.0119
 10
-46.580923
 20
-131.213642
 10
-49.451257
 20
-131.213642
 10
-49.900828
 20
-129.023427
 10
-51.238012
 20
-129.023427
 10
-51.60689
 20
-131.213642
 10
-54.742356
 20
-131.213642
 10
-53.37059
 20
-123.121374
  0
LWPOLYLINE
  5
A9
100
AcDbEntity
  8
0
  6
ByLayer
 62
  256
370
   -1
100
AcDbPolyline
 90
   15
 70
    0
 43
0
 10
-48.771138
 20
-126.821685
 10
-48.701973
 20
-126.729465
 10
-48.655864
 20
-126.464334
 10
-48.586699
 20
-126.026291
 10
-48.517534
 20
-125.611303
 10
-48.506007
 20
-125.530611
 10
-48.494479
 20
-125.461446
 10
-48.482952
 20
-125.438391
 10
-48.482952
 20
-125.426864
 10
-48.563644
 20
-125.323117
 10
-48.701973
 20
-125.277007
 10
-50.592475
 20
-125.277007
 10
-50.869133
 20
-126.867795
 10
-48.920995
 20
-126.867795
 10
-48.771138
 20
-126.821685
  0
LWPOLYLINE
  5
AA
100
AcDbEntity
  8
0
  6
ByLayer
 62
  256
370
   -1
100
AcDbPolyline
 90
   13
 70
    0
 43
0
 10
-43.030488
 20
-123.121374
 10
-38.615475
 20
-123.121374
 10
-38.212015
 20
-123.190539
 10
-37.762444
 20
-123.409561
 10
-37.382039
 20
-123.813021
 10
-37.186072
 20
-124.423976
 10
-36.494425
 20
-131.213642
 10
-39.491561
 20
-131.213642
 10
-39.606836
 20
-130.04937
 10
-41.900798
 20
-130.04937
 10
-42.223566
 20
-131.213642
 10
-45.23223
 20
-131.213642
 10
-43.030488
 20
-123.121374
  0
LWPOLYLINE
  5
AB
100
AcDbEntity
  8
0
  6
ByLayer
 62
  256
370
   -1
100
AcDbPolyline
 90
    7
 70
    0
 43
0
 10
-40.079461
 20
-125.415336
 10
-40.148626
 20
-125.323117
 10
-40.298483
 20
-125.277007
 10
-40.598196
 20
-125.277007
 10
-41.312898
 20
-127.893737
 10
-39.825857
 20
-127.893737
 10
-40.079461
 20
-125.415336
  0
LWPOLYLINE
  5
AC
100
AcDbEntity
  8
0
  6
ByLayer
 62
  256
370
   -1
100
AcDbPolyline
 90
   18
 70
    0
 43
0
 10
-166.760388
 20
-139.697843
 10
-166.84108
 20
-139.686316
 10
-168.731582
 20
-139.686316
 10
-169.377119
 20
-143.467319
 10
-167.42898
 20
-143.467319
 10
-167.290651
 20
-143.432736
 10
-167.221486
 20
-143.328989
 10
-167.175376
 20
-143.09844
 10
-167.106212
 20
-142.660397
 10
-167.002465
 20
-142.10708
 10
-166.898718
 20
-141.484598
 10
-166.794971
 20
-140.873643
 10
-166.702751
 20
-140.354908
 10
-166.645114
 20
-139.986029
 10
-166.622059
 20
-139.836173
 10
-166.679696
 20
-139.743953
 10
-166.679696
 20
-139.743953
 10
-166.760388
 20
-139.697843
  0
LWPOLYLINE
  5
AD
100
AcDbEntity
  8
0
  6
ByLayer
 62
  256
370
   -1
100
AcDbPolyline
 90
   16
 70
    0
 43
0
 10
-163.371319
 20
-139.121471
 10
-163.394374
 20
-139.248273
 10
-164.27046
 20
-144.412569
 10
-164.489481
 20
-144.988942
 10
-164.858359
 20
-145.35782
 10
-165.284875
 20
-145.565314
 10
-165.676808
 20
-145.622951
 10
-172.881463
 20
-145.622951
 10
-171.509696
 20
-137.530683
 10
-164.800722
 20
-137.530683
 10
-164.385734
 20
-137.611375
 10
-163.913109
 20
-137.853452
 10
-163.532703
 20
-138.303022
 10
-163.371319
 20
-138.994669
 10
-163.371319
 20
-138.994669
 10
-163.371319
 20
-139.121471
  0
LWPOLYLINE
  5
AE
100
AcDbEntity
  8
0
  6
ByLayer
 62
  256
370
   -1
100
AcDbPolyline
 90
   31
 70
    0
 43
0
 10
-159.198387
 20
-140.066722
 10
-159.267551
 20
-140.493237
 10
-159.359771
 20
-141.058082
 10
-159.463518
 20
-141.669037
 10
-159.567265
 20
-142.291519
 10
-159.647957
 20
-142.810254
 10
-159.705594
 20
-143.167605
 10
-159.728649
 20
-143.317462
 10
-159.728649
 20
-143.363571
 10
-159.671012
 20
-143.409681
 10
-159.59032
 20
-143.455791
 10
-159.521155
 20
-143.467319
 10
-157.123446
 20
-143.467319
 10
-156.973589
 20
-143.432736
 10
-156.904425
 20
-143.328989
 10
-156.869842
 20
-143.09844
 10
-156.78915
 20
-142.660397
 10
-156.696931
 20
-142.10708
 10
-156.593184
 20
-141.484598
 10
-156.489437
 20
-140.873643
 10
-156.397217
 20
-140.354908
 10
-156.33958
 20
-139.986029
 10
-156.316525
 20
-139.836173
 10
-156.374162
 20
-139.743953
 10
-156.454854
 20
-139.697843
 10
-156.535546
 20
-139.686316
 10
-158.933255
 20
-139.686316
 10
-159.083112
 20
-139.732426
 10
-159.152277
 20
-139.824645
 10
-159.152277
 20
-139.824645
 10
-159.198387
 20
-140.066722
  0
LWPOLYLINE
  5
AF
100
AcDbEntity
  8
0
  6
ByLayer
 62
  256
370
   -1
100
AcDbPolyline
 90
   25
 70
    0
 43
0
 10
-154.160892
 20
-137.611375
 10
-153.688267
 20
-137.853452
 10
-153.307861
 20
-138.303022
 10
-153.146477
 20
-138.994669
 10
-153.146477
 20
-139.121471
 10
-153.158004
 20
-139.248273
 10
-154.045618
 20
-144.412569
 10
-154.264639
 20
-144.988942
 10
-154.633518
 20
-145.35782
 10
-155.060033
 20
-145.565314
 10
-155.451966
 20
-145.622951
 10
-161.48082
 20
-145.622951
 10
-161.895808
 20
-145.553786
 10
-162.368434
 20
-145.31171
 10
-162.748839
 20
-144.86214
 10
-162.910224
 20
-144.158965
 10
-162.910224
 20
-144.032163
 10
-162.887169
 20
-143.905362
 10
-162.011083
 20
-138.741065
 10
-161.792061
 20
-138.164693
 10
-161.423183
 20
-137.795815
 10
-160.996667
 20
-137.599848
 10
-160.604734
 20
-137.530683
 10
-154.57588
 20
-137.530683
 10
-154.160892
 20
-137.611375
  0
LWPOLYLINE
  5
B0
100
AcDbEntity
  8
0
  6
ByLayer
 62
  256
370
   -1
100
AcDbPolyline
 90
   10
 70
    0
 43
0
 10
-150.483627
 20
-145.622951
 10
-149.11186
 20
-137.530683
 10
-145.838065
 20
-137.530683
 10
-146.206944
 20
-139.686316
 10
-147.336634
 20
-139.686316
 10
-147.474963
 20
-139.720898
 10
-147.555655
 20
-139.859228
 10
-146.241526
 20
-139.859228
 10
-147.221359
 20
-145.622951
 10
-150.483627
 20
-145.622951
  0
LWPOLYLINE
  5
B1
100
AcDbEntity
  8
0
  6
ByLayer
 62
  256
370
   -1
100
AcDbPolyline
 90
   18
 70
    0
 43
0
 10
-142.621899
 20
-139.720898
 10
-142.691063
 20
-139.859228
 10
-141.376934
 20
-139.859228
 10
-141.619011
 20
-141.277104
 10
-137.941755
 20
-141.277104
 10
-138.345216
 20
-143.432736
 10
-141.987889
 20
-143.432736
 10
-142.356767
 20
-145.622951
 10
-145.492233
 20
-145.622951
 10
-144.316433
 20
-138.741065
 10
-144.097412
 20
-138.164693
 10
-143.728534
 20
-137.795815
 10
-143.302018
 20
-137.599848
 10
-142.910085
 20
-137.530683
 10
-136.765955
 20
-137.530683
 10
-137.134834
 20
-139.686316
 10
-142.472042
 20
-139.686316
 10
-142.621899
 20
-139.720898
  0
LWPOLYLINE
  5
B2
100
AcDbEntity
  8
0
  6
ByLayer
 62
  256
370
   -1
100
AcDbPolyline
 90
   31
 70
    0
 43
0
 10
-136.535403
 20
-144.032163
 10
-136.512348
 20
-143.905362
 10
-135.636262
 20
-138.741065
 10
-135.417241
 20
-138.164693
 10
-135.048362
 20
-137.795815
 10
-134.621847
 20
-137.599848
 10
-134.229913
 20
-137.530683
 10
-126.88693
 20
-137.530683
 10
-127.255808
 20
-139.686316
 10
-133.79187
 20
-139.686316
 10
-133.941727
 20
-139.720898
 10
-134.010892
 20
-139.859228
 10
-132.685236
 20
-139.859228
 10
-133.307718
 20
-143.467319
 10
-131.036811
 20
-143.467319
 10
-130.840844
 20
-142.522068
 10
-132.189555
 20
-142.522068
 10
-131.797622
 20
-140.366435
 10
-127.348028
 20
-140.366435
 10
-128.062729
 20
-144.412569
 10
-128.281751
 20
-144.988942
 10
-128.650629
 20
-145.35782
 10
-129.077145
 20
-145.565314
 10
-129.469078
 20
-145.622951
 10
-135.105999
 20
-145.622951
 10
-135.520988
 20
-145.553786
 10
-135.993613
 20
-145.31171
 10
-136.374019
 20
-144.86214
 10
-136.535403
 20
-144.158965
 10
-136.535403
 20
-144.158965
 10
-136.535403
 20
-144.032163
  0
LWPOLYLINE
  5
B3
100
AcDbEntity
  8
0
  6
ByLayer
 62
  256
370
   -1
100
AcDbPolyline
 90
    5
 70
    0
 43
0
 10
-118.886862
 20
-142.64887
 10
-124.350877
 20
-142.64887
 10
-123.981998
 20
-140.504765
 10
-118.517984
 20
-140.504765
 10
-118.886862
 20
-142.64887
  0
LWPOLYLINE
  5
B4
100
AcDbEntity
  8
0
  6
ByLayer
 62
  256
370
   -1
100
AcDbPolyline
 90
   38
 70
    0
 43
0
 10
-115.290281
 20
-141.576817
 10
-115.071259
 20
-141.000445
 10
-114.702381
 20
-140.631567
 10
-114.275865
 20
-140.4356
 10
-113.883932
 20
-140.366435
 10
-110.794576
 20
-140.366435
 10
-110.656247
 20
-140.331853
 10
-110.587082
 20
-140.228106
 10
-110.564027
 20
-140.124359
 10
-110.540972
 20
-140.009084
 10
-110.517918
 20
-139.905337
 10
-110.517918
 20
-139.836173
 10
-110.529445
 20
-139.790063
 10
-110.575555
 20
-139.743953
 10
-110.656247
 20
-139.697843
 10
-110.736939
 20
-139.686316
 10
-114.967512
 20
-139.686316
 10
-114.610161
 20
-137.530683
 10
-108.696581
 20
-137.530683
 10
-108.281593
 20
-137.611375
 10
-107.808968
 20
-137.853452
 10
-107.417034
 20
-138.303022
 10
-107.25565
 20
-138.994669
 10
-107.267178
 20
-139.121471
 10
-107.278705
 20
-139.248273
 10
-107.636056
 20
-141.311686
 10
-107.855077
 20
-141.888058
 10
-108.223956
 20
-142.256937
 10
-108.650471
 20
-142.464431
 10
-109.042404
 20
-142.522068
 10
-112.13176
 20
-142.522068
 10
-112.281617
 20
-142.568178
 10
-112.339254
 20
-142.660397
 10
-112.477584
 20
-143.467319
 10
-108.004934
 20
-143.467319
 10
-108.362285
 20
-145.622951
 10
-115.981928
 20
-145.622951
 10
-115.290281
 20
-141.576817
  0
LWPOLYLINE
  5
B5
100
AcDbEntity
  8
0
  6
ByLayer
 62
  256
370
   -1
100
AcDbPolyline
 90
   25
 70
    0
 43
0
 10
-106.010677
 20
-145.553786
 10
-106.483302
 20
-145.31171
 10
-106.863708
 20
-144.86214
 10
-107.025092
 20
-144.158965
 10
-107.025092
 20
-144.032163
 10
-107.002037
 20
-143.905362
 10
-106.125951
 20
-138.741065
 10
-105.90693
 20
-138.164693
 10
-105.538051
 20
-137.795815
 10
-105.111536
 20
-137.599848
 10
-104.719603
 20
-137.530683
 10
-99.20948300000001
 20
-137.530683
 10
-98.794495
 20
-137.611375
 10
-98.32186900000001
 20
-137.853452
 10
-97.941464
 20
-138.303022
 10
-97.780079
 20
-138.994669
 10
-97.791607
 20
-139.121471
 10
-97.803134
 20
-139.248273
 10
-98.67922
 20
-144.412569
 10
-98.909769
 20
-144.988942
 10
-99.278648
 20
-145.35782
 10
-99.705163
 20
-145.565314
 10
-100.097096
 20
-145.622951
 10
-105.595689
 20
-145.622951
 10
-106.010677
 20
-145.553786
  0
LWPOLYLINE
  5
B6
100
AcDbEntity
  8
0
  6
ByLayer
 62
  256
370
   -1
100
AcDbPolyline
 90
    6
 70
    0
 43
0
 10
-101.745521
 20
-143.467319
 10
-101.607192
 20
-143.432736
 10
-101.538027
 20
-143.328989
 10
-101.03082
 20
-140.97739
 10
-103.359364
 20
-143.467319
 10
-101.745521
 20
-143.467319
  0
LWPOLYLINE
  5
B7
100
AcDbEntity
  8
0
  6
ByLayer
 62
  256
370
   -1
100
AcDbPolyline
 90
    6
 70
    0
 43
0
 10
-103.05965
 20
-139.686316
 10
-103.19798
 20
-139.732426
 10
-103.267144
 20
-139.824645
 10
-103.774352
 20
-142.314574
 10
-101.307478
 20
-139.686316
 10
-103.05965
 20
-139.686316
  0
LWPOLYLINE
  5
B8
100
AcDbEntity
  8
0
  6
ByLayer
 62
  256
370
   -1
100
AcDbPolyline
 90
   38
 70
    0
 43
0
 10
-96.857884
 20
-141.576817
 10
-96.638862
 20
-141.000445
 10
-96.26998399999999
 20
-140.631567
 10
-95.843468
 20
-140.4356
 10
-95.45153500000001
 20
-140.366435
 10
-92.362179
 20
-140.366435
 10
-92.22385
 20
-140.331853
 10
-92.154685
 20
-140.228106
 10
-92.13163
 20
-140.124359
 10
-92.108575
 20
-140.009084
 10
-92.085521
 20
-139.905337
 10
-92.085521
 20
-139.836173
 10
-92.097048
 20
-139.790063
 10
-92.143158
 20
-139.743953
 10
-92.22385
 20
-139.697843
 10
-92.304542
 20
-139.686316
 10
-96.535115
 20
-139.686316
 10
-96.177764
 20
-137.530683
 10
-90.264184
 20
-137.530683
 10
-89.84919600000001
 20
-137.611375
 10
-89.376571
 20
-137.853452
 10
-88.98463700000001
 20
-138.303022
 10
-88.82325299999999
 20
-138.994669
 10
-88.83478100000001
 20
-139.121471
 10
-88.84630799999999
 20
-139.248273
 10
-89.203659
 20
-141.311686
 10
-89.42268
 20
-141.888058
 10
-89.79155900000001
 20
-142.256937
 10
-90.218074
 20
-142.464431
 10
-90.610007
 20
-142.522068
 10
-93.69936300000001
 20
-142.522068
 10
-93.84922
 20
-142.568178
 10
-93.906857
 20
-142.660397
 10
-94.045187
 20
-143.467319
 10
-89.572537
 20
-143.467319
 10
-89.92988800000001
 20
-145.622951
 10
-97.549531
 20
-145.622951
 10
-96.857884
 20
-141.576817
  0
LWPOLYLINE
  5
B9
100
AcDbEntity
  8
0
  6
ByLayer
 62
  256
370
   -1
100
AcDbPolyline
 90
   31
 70
    0
 43
0
 10
-87.57828000000001
 20
-145.553786
 10
-88.050905
 20
-145.31171
 10
-88.43131099999999
 20
-144.86214
 10
-88.59269500000001
 20
-144.158965
 10
-88.59269500000001
 20
-144.032163
 10
-88.56964000000001
 20
-143.905362
 10
-87.69355400000001
 20
-138.741065
 10
-87.47453299999999
 20
-138.164693
 10
-87.105654
 20
-137.795815
 10
-86.67913900000001
 20
-137.599848
 10
-86.287206
 20
-137.530683
 10
-79.866418
 20
-137.530683
 10
-80.23529600000001
 20
-139.686316
 10
-84.523506
 20
-139.686316
 10
-84.67336299999999
 20
-139.732426
 10
-84.74252799999999
 20
-139.824645
 10
-84.83474699999999
 20
-140.366435
 10
-81.837611
 20
-140.366435
 10
-81.422623
 20
-140.447127
 10
-80.94999799999999
 20
-140.689204
 10
-80.569592
 20
-141.138774
 10
-80.408208
 20
-141.830421
 10
-80.408208
 20
-141.96875
 10
-80.431263
 20
-142.084025
 10
-80.823196
 20
-144.412569
 10
-81.04221699999999
 20
-144.988942
 10
-81.411096
 20
-145.35782
 10
-81.837611
 20
-145.565314
 10
-82.229544
 20
-145.622951
 10
-87.163292
 20
-145.622951
 10
-87.57828000000001
 20
-145.553786
  0
LWPOLYLINE
  5
BA
100
AcDbEntity
  8
0
  6
ByLayer
 62
  256
370
   -1
100
AcDbPolyline
 90
   11
 70
    0
 43
0
 10
-85.36501
 20
-143.467319
 10
-83.98171600000001
 20
-143.467319
 10
-83.84338700000001
 20
-143.432736
 10
-83.77422199999999
 20
-143.328989
 10
-83.670475
 20
-142.775672
 10
-83.658948
 20
-142.671925
 10
-83.670475
 20
-142.625815
 10
-83.71658499999999
 20
-142.579705
 10
-83.87796899999999
 20
-142.522068
 10
-85.203626
 20
-142.522068
 10
-85.36501
 20
-143.467319
  0
LWPOLYLINE
  5
BB
100
AcDbEntity
  8
0
  6
ByLayer
 62
  256
370
   -1
100
AcDbPolyline
 90
    5
 70
    0
 43
0
 10
-291.37402
 20
-203.13062
 10
-291.37402
 20
-206.13062
 10
-361.37402
 20
-206.13062
 10
-361.37402
 20
-203.13062
 10
-291.37402
 20
-203.13062
  0
LWPOLYLINE
  5
BC
100
AcDbEntity
  8
0
  6
ByLayer
 62
  256
370
   -1
100
AcDbPolyline
 90
    5
 70
    0
 43
0
 10
-91.37402
 20
-103.13065
 10
-91.37402
 20
-106.13065
 10
-161.37402
 20
-106.13065
 10
-161.37402
 20
-103.13065
 10
-91.37402
 20
-103.13065
  0
LWPOLYLINE
  5
BD
100
AcDbEntity
  8
0
  6
ByLayer
 62
  256
370
   -1
100
AcDbPolyline
 90
    5
 70
    0
 43
0
 10
-91.37403999999999
 20
-203.13062
 10
-91.37403999999999
 20
-206.13062
 10
-161.37404
 20
-206.13062
 10
-161.37404
 20
-203.13062
 10
-91.37403999999999
 20
-203.13062
  0
LWPOLYLINE
  5
BE
100
AcDbEntity
  8
0
  6
ByLayer
 62
  256
370
   -1
100
AcDbPolyline
 90
   54
 70
    0
 43
0
 10
-415.884676
 20
-329.05801
 10
-411.35439
 20
-329.05801
 10
-411.204533
 20
-329.023427
 10
-411.135368
 20
-328.91968
 10
-411.112313
 20
-328.746769
 10
-411.066203
 20
-328.493165
 10
-411.043149
 20
-328.37789
 10
-411.020094
 20
-328.251088
 10
-411.020094
 20
-328.216506
 10
-411.008566
 20
-328.170396
 10
-411.008566
 20
-328.135814
 10
-411.020094
 20
-328.089704
 10
-411.066203
 20
-328.043594
 10
-411.146896
 20
-327.997485
 10
-411.227588
 20
-327.985957
 10
-414.3861079999999
 20
-327.985957
 10
-414.0633399999999
 20
-326.095456
 10
-411.089258
 20
-326.095456
 10
-410.950929
 20
-326.049346
 10
-410.870237
 20
-325.945599
 10
-410.847182
 20
-325.818797
 10
-410.824127
 20
-325.657413
 10
-410.789545
 20
-325.426864
 10
-410.801072
 20
-325.380754
 10
-410.847182
 20
-325.334644
 10
-410.927874
 20
-325.288534
 10
-411.008566
 20
-325.277007
 10
-415.239139
 20
-325.277007
 10
-414.881788
 20
-323.121374
 10
-408.9451529999999
 20
-323.121374
 10
-408.530165
 20
-323.202067
 10
-408.05754
 20
-323.444143
 10
-407.677134
 20
-323.893713
 10
-407.51575
 20
-324.58536
 10
-407.538805
 20
-324.896601
 10
-407.573387
 20
-325.253952
 10
-407.619497
 20
-325.611303
 10
-407.665607
 20
-325.911017
 10
-408.022957
 20
-326.683356
 10
-408.64544
 20
-327.075289
 10
-408.564747
 20
-327.132926
 10
-408.484055
 20
-327.190563
 10
-408.138232
 20
-327.559442
 10
-407.976848
 20
-328.147341
 10
-408.01143
 20
-328.527747
 10
-408.092122
 20
-329.046482
 10
-408.172814
 20
-329.565217
 10
-408.230452
 20
-329.945623
 10
-408.437945
 20
-330.54505
 10
-408.8068239999999
 20
-330.936984
 10
-409.2448669999999
 20
-331.156005
 10
-409.6483269999999
 20
-331.213642
 10
-416.2535549999999
 20
-331.213642
 10
-415.884676
 20
-329.05801
  0
LWPOLYLINE
  5
BF
100
AcDbEntity
  8
0
  6
ByLayer
 62
  256
370
   -1
100
AcDbPolyline
 90
   25
 70
    0
 43
0
 10
-407.043132
 20
-322.775551
 10
-406.881748
 20
-321.8303
 10
-404.6800049999999
 20
-321.8303
 10
-404.2880719999999
 20
-322.014739
 10
-404.1266879999999
 20
-322.429728
 10
-404.1382149999999
 20
-322.498892
 10
-404.1382149999999
 20
-322.568057
 10
-404.1727979999999
 20
-322.775551
 10
-404.2995999999999
 20
-323.524835
 10
-404.4379289999999
 20
-324.262592
 10
-404.6684779999999
 20
-324.666052
 10
-404.9797189999999
 20
-324.758272
 10
-406.720364
 20
-324.758272
 10
-406.881748
 20
-324.735217
 10
-407.054659
 20
-324.642997
 10
-407.204516
 20
-324.458558
 10
-407.273681
 20
-324.158845
 10
-407.262153
 20
-323.939823
 10
-407.216044
 20
-323.686219
 10
-407.169934
 20
-323.45567
 10
-407.135352
 20
-323.259704
 10
-406.893275
 20
-322.867771
 10
-406.593562
 20
-322.775551
 10
-405.3831799999999
 20
-322.775551
 10
-407.043132
 20
-322.775551
  0
LWPOLYLINE
  5
C0
100
AcDbEntity
  8
0
  6
ByLayer
 62
  256
370
   -1
100
AcDbPolyline
 90
    6
 70
    0
 43
0
 10
-405.5445639999999
 20
-323.720802
 10
-406.005662
 20
-323.720802
 10
-406.017189
 20
-323.766911
 10
-406.028717
 20
-323.813021
 10
-405.5560909999999
 20
-323.813021
 10
-405.5445639999999
 20
-323.720802
  0
LWPOLYLINE
  5
C1
100
AcDbEntity
  8
0
  6
ByLayer
 62
  256
370
   -1
100
AcDbPolyline
 90
   31
 70
    0
 43
0
 10
-401.5906489999999
 20
-329.622855
 10
-401.5675939999999
 20
-329.496053
 10
-400.6915079999999
 20
-324.331756
 10
-400.4724859999999
 20
-323.755384
 10
-400.103608
 20
-323.386506
 10
-399.677092
 20
-323.190539
 10
-399.285159
 20
-323.121374
 10
-391.942176
 20
-323.121374
 10
-392.311055
 20
-325.277007
 10
-398.847116
 20
-325.277007
 10
-398.996973
 20
-325.311589
 10
-399.066138
 20
-325.449919
 10
-397.7404809999999
 20
-325.449919
 10
-398.3629629999999
 20
-329.05801
 10
-396.092056
 20
-329.05801
 10
-395.89609
 20
-328.112759
 10
-397.2448009999999
 20
-328.112759
 10
-396.8528679999999
 20
-325.957126
 10
-392.403274
 20
-325.957126
 10
-393.1179759999999
 20
-330.00326
 10
-393.3369969999999
 20
-330.579633
 10
-393.7058759999999
 20
-330.948511
 10
-394.1323899999999
 20
-331.156005
 10
-394.5243229999999
 20
-331.213642
 10
-400.161245
 20
-331.213642
 10
-400.5762329999999
 20
-331.144478
 10
-401.0488589999999
 20
-330.902401
 10
-401.4292639999999
 20
-330.452831
 10
-401.5906489999999
 20
-329.749656
 10
-401.5906489999999
 20
-329.749656
 10
-401.5906489999999
 20
-329.622855
  0
LWPOLYLINE
  5
C2
100
AcDbEntity
  8
0
  6
ByLayer
 62
  256
370
   -1
100
AcDbPolyline
 90
    5
 70
    0
 43
0
 10
-388.334082
 20
-331.213642
 10
-391.596349
 20
-331.213642
 10
-390.2245829999999
 20
-323.121374
 10
-386.9507879999999
 20
-323.121374
 10
-388.334082
 20
-331.213642
  0
LWPOLYLINE
  5
C3
100
AcDbEntity
  8
0
  6
ByLayer
 62
  256
370
   -1
100
AcDbPolyline
 90
   25
 70
    0
 43
0
 10
-377.993953
 20
-323.121374
 10
-377.5789639999999
 20
-323.202067
 10
-377.1063389999999
 20
-323.444143
 10
-376.7259329999999
 20
-323.893713
 10
-376.5645489999999
 20
-324.58536
 10
-376.5760769999999
 20
-324.712162
 10
-376.5876039999999
 20
-324.838964
 10
-377.6711839999999
 20
-331.213642
 10
-380.8066499999999
 20
-331.213642
 10
-380.7720669999999
 20
-330.994621
 10
-380.7029029999999
 20
-330.625742
 10
-380.5761009999999
 20
-329.945623
 10
-380.4262439999999
 20
-329.05801
 10
-380.2648599999999
 20
-328.066649
 10
-380.0919479999999
 20
-327.086816
 10
-379.9536189999999
 20
-326.25684
 10
-379.849871
 20
-325.66894
 10
-379.815289
 20
-325.426864
 10
-379.8959809999999
 20
-325.323117
 10
-380.0343109999999
 20
-325.277007
 10
-382.455075
 20
-325.277007
 10
-383.46949
 20
-331.213642
 10
-386.604955
 20
-331.213642
 10
-385.2331889999999
 20
-323.121374
 10
-377.993953
 20
-323.121374
  0
LWPOLYLINE
  5
C4
100
AcDbEntity
  8
0
  6
ByLayer
 62
  256
370
   -1
100
AcDbPolyline
 90
   30
 70
    0
 43
0
 10
-374.9045889999999
 20
-331.213642
 10
-375.319578
 20
-331.144478
 10
-375.792203
 20
-330.902401
 10
-376.172609
 20
-330.452831
 10
-376.333993
 20
-329.749656
 10
-376.333993
 20
-329.622855
 10
-376.310938
 20
-329.496053
 10
-375.434852
 20
-324.331756
 10
-375.2158299999999
 20
-323.755384
 10
-374.8469519999999
 20
-323.386506
 10
-374.4204369999999
 20
-323.190539
 10
-374.0285029999999
 20
-323.121374
 10
-367.3541119999999
 20
-323.121374
 10
-367.7114619999999
 20
-325.277007
 10
-372.264804
 20
-325.277007
 10
-372.414661
 20
-325.323117
 10
-372.483826
 20
-325.415336
 10
-372.529935
 20
-325.657413
 10
-372.5991
 20
-326.083928
 10
-372.702847
 20
-326.648773
 10
-372.806594
 20
-327.259728
 10
-372.910341
 20
-327.88221
 10
-373.002561
 20
-328.400945
 10
-373.060198
 20
-328.758296
 10
-373.083253
 20
-328.908153
 10
-373.002561
 20
-329.023427
 10
-372.864231
 20
-329.05801
 10
-368.356999
 20
-329.05801
 10
-368.725878
 20
-331.213642
 10
-374.9045889999999
 20
-331.213642
  0
LWPOLYLINE
  5
C5
100
AcDbEntity
  8
0
  6
ByLayer
 62
  256
370
   -1
100
AcDbPolyline
 90
   13
 70
    0
 43
0
 10
-365.371407
 20
-323.121374
 10
-360.9563949999999
 20
-323.121374
 10
-360.5529339999999
 20
-323.190539
 10
-360.1033639999999
 20
-323.409561
 10
-359.7229579999999
 20
-323.813021
 10
-359.526991
 20
-324.423976
 10
-358.835345
 20
-331.213642
 10
-361.832481
 20
-331.213642
 10
-361.947755
 20
-330.04937
 10
-364.2417169999999
 20
-330.04937
 10
-364.5644859999999
 20
-331.213642
 10
-367.5731489999999
 20
-331.213642
 10
-365.371407
 20
-323.121374
  0
LWPOLYLINE
  5
C6
100
AcDbEntity
  8
0
  6
ByLayer
 62
  256
370
   -1
100
AcDbPolyline
 90
    7
 70
    0
 43
0
 10
-362.420381
 20
-325.415336
 10
-362.489545
 20
-325.323117
 10
-362.639402
 20
-325.277007
 10
-362.939116
 20
-325.277007
 10
-363.6538169999999
 20
-327.893737
 10
-362.166777
 20
-327.893737
 10
-362.420381
 20
-325.415336
  0
LWPOLYLINE
  5
C7
100
AcDbEntity
  8
0
  6
ByLayer
 62
  256
370
   -1
100
AcDbPolyline
 90
   25
 70
    0
 43
0
 10
-349.532686
 20
-323.121374
 10
-349.117698
 20
-323.202067
 10
-348.645072
 20
-323.444143
 10
-348.2646659999999
 20
-323.893713
 10
-348.1032819999999
 20
-324.58536
 10
-348.1148099999999
 20
-324.712162
 10
-348.1263369999999
 20
-324.838964
 10
-349.209917
 20
-331.213642
 10
-352.345383
 20
-331.213642
 10
-352.3108
 20
-330.994621
 10
-352.241636
 20
-330.625742
 10
-352.114834
 20
-329.945623
 10
-351.964977
 20
-329.05801
 10
-351.803593
 20
-328.066649
 10
-351.630681
 20
-327.086816
 10
-351.492352
 20
-326.25684
 10
-351.3886049999999
 20
-325.66894
 10
-351.3540219999999
 20
-325.426864
 10
-351.4347139999999
 20
-325.323117
 10
-351.573044
 20
-325.277007
 10
-353.9938079999999
 20
-325.277007
 10
-355.0082219999999
 20
-331.213642
 10
-358.1436879999999
 20
-331.213642
 10
-356.771921
 20
-323.121374
 10
-349.532686
 20
-323.121374
  0
LWPOLYLINE
  5
C8
100
AcDbEntity
  8
0
  6
ByLayer
 62
  256
370
   -1
100
AcDbPolyline
 90
   13
 70
    0
 43
0
 10
-345.670986
 20
-323.121374
 10
-341.2559739999999
 20
-323.121374
 10
-340.8525129999999
 20
-323.190539
 10
-340.4029429999999
 20
-323.409561
 10
-340.0225369999999
 20
-323.813021
 10
-339.8265709999999
 20
-324.423976
 10
-339.134924
 20
-331.213642
 10
-342.13206
 20
-331.213642
 10
-342.247335
 20
-330.04937
 10
-344.5412959999999
 20
-330.04937
 10
-344.864065
 20
-331.213642
 10
-347.8727289999999
 20
-331.213642
 10
-345.670986
 20
-323.121374
  0
LWPOLYLINE
  5
C9
100
AcDbEntity
  8
0
  6
ByLayer
 62
  256
370
   -1
100
AcDbPolyline
 90
    7
 70
    0
 43
0
 10
-342.71996
 20
-325.415336
 10
-342.789125
 20
-325.323117
 10
-342.938981
 20
-325.277007
 10
-343.238695
 20
-325.277007
 10
-343.9533969999999
 20
-327.893737
 10
-342.466356
 20
-327.893737
 10
-342.71996
 20
-325.415336
  0
LWPOLYLINE
  5
CA
100
AcDbEntity
  8
0
  6
ByLayer
 62
  256
370
   -1
100
AcDbPolyline
 90
   10
 70
    0
 43
0
 10
-336.483604
 20
-331.213642
 10
-335.1118369999999
 20
-323.121374
 10
-331.838043
 20
-323.121374
 10
-332.206921
 20
-325.277007
 10
-333.3366109999999
 20
-325.277007
 10
-333.4749399999999
 20
-325.311589
 10
-333.5556319999999
 20
-325.449919
 10
-332.241503
 20
-325.449919
 10
-333.221336
 20
-331.213642
 10
-336.483604
 20
-331.213642
  0
LWPOLYLINE
  5
CB
100
AcDbEntity
  8
0
  6
ByLayer
 62
  256
370
   -1
100
AcDbPolyline
 90
   28
 70
    0
 43
0
 10
-322.881203
 20
-323.121374
 10
-322.4662149999999
 20
-323.202067
 10
-321.9935899999999
 20
-323.444143
 10
-321.6131819999999
 20
-323.893713
 10
-321.4517979999999
 20
-324.58536
 10
-321.4633259999999
 20
-324.712162
 10
-321.4748529999999
 20
-324.838964
 10
-322.5584349999999
 20
-331.213642
 10
-325.693901
 20
-331.213642
 10
-325.659318
 20
-330.994621
 10
-325.5901529999999
 20
-330.625742
 10
-325.463352
 20
-329.945623
 10
-325.3134949999999
 20
-329.05801
 10
-325.1521099999999
 20
-328.066649
 10
-324.9791989999999
 20
-327.086816
 10
-324.8408689999999
 20
-326.25684
 10
-324.7371219999999
 20
-325.66894
 10
-324.7025399999999
 20
-325.426864
 10
-324.7832319999999
 20
-325.323117
 10
-324.9215619999999
 20
-325.277007
 10
-328.4720149999999
 20
-325.277007
 10
-328.6218719999999
 20
-325.311589
 10
-328.6910369999999
 20
-325.449919
 10
-327.376908
 20
-325.449919
 10
-328.3567409999999
 20
-331.213642
 10
-331.492206
 20
-331.213642
 10
-330.1204399999999
 20
-323.121374
 10
-322.881203
 20
-323.121374
  0
LWPOLYLINE
  5
CC
100
AcDbEntity
  8
0
  6
ByLayer
 62
  256
370
   -1
100
AcDbPolyline
 90
    9
 70
    0
 43
0
 10
-320.621813
 20
-323.121374
 10
-312.2644139999999
 20
-323.121374
 10
-312.633292
 20
-325.277007
 10
-315.2039129999999
 20
-325.277007
 10
-316.2068009999999
 20
-331.213642
 10
-319.3422659999999
 20
-331.213642
 10
-318.327851
 20
-325.277007
 10
-320.990691
 20
-325.277007
 10
-320.621813
 20
-323.121374
  0
LWPOLYLINE
  5
CD
100
AcDbEntity
  8
0
  6
ByLayer
 62
  256
370
   -1
100
AcDbPolyline
 90
   32
 70
    0
 43
0
 10
-309.140485
 20
-328.297198
 10
-309.175067
 20
-328.481637
 10
-309.198122
 20
-328.643022
 10
-309.221177
 20
-328.769823
 10
-309.232704
 20
-328.850516
 10
-309.244232
 20
-328.908153
 10
-309.16354
 20
-329.023427
 10
-309.02521
 20
-329.05801
 10
-304.78311
 20
-329.05801
 10
-305.151988
 20
-331.213642
 10
-311.065568
 20
-331.213642
 10
-311.480556
 20
-331.144478
 10
-311.953182
 20
-330.902401
 10
-312.333588
 20
-330.452831
 10
-312.494972
 20
-329.749656
 10
-312.494972
 20
-329.622855
 10
-312.471917
 20
-329.496053
 10
-311.595831
 20
-324.331756
 10
-311.376809
 20
-323.755384
 10
-311.007931
 20
-323.386506
 10
-310.5814159999999
 20
-323.190539
 10
-310.1894819999999
 20
-323.121374
 10
-303.768694
 20
-323.121374
 10
-304.137573
 20
-325.277007
 10
-308.425783
 20
-325.277007
 10
-308.57564
 20
-325.323117
 10
-308.644804
 20
-325.415336
 10
-308.737024
 20
-325.957126
 10
-305.025186
 20
-325.957126
 10
-305.417119
 20
-328.112759
 10
-309.105902
 20
-328.112759
 10
-309.140485
 20
-328.297198
  0
LWPOLYLINE
  5
CE
100
AcDbEntity
  8
0
  6
ByLayer
 62
  256
370
   -1
100
AcDbPolyline
 90
   27
 70
    0
 43
0
 10
-300.3104509999999
 20
-329.05801
 10
-298.039544
 20
-329.05801
 10
-297.843577
 20
-328.112759
 10
-299.192289
 20
-328.112759
 10
-298.800356
 20
-325.957126
 10
-294.3507609999999
 20
-325.957126
 10
-295.065463
 20
-330.00326
 10
-295.284484
 20
-330.579633
 10
-295.653362
 20
-330.948511
 10
-296.079878
 20
-331.156005
 10
-296.4718109999999
 20
-331.213642
 10
-302.1087329999999
 20
-331.213642
 10
-302.523721
 20
-331.144478
 10
-302.996346
 20
-330.902401
 10
-303.376752
 20
-330.452831
 10
-303.538136
 20
-329.749656
 10
-303.538136
 20
-329.622855
 10
-303.515081
 20
-329.496053
 10
-302.638995
 20
-324.331756
 10
-302.419974
 20
-323.755384
 10
-302.0510959999999
 20
-323.386506
 10
-301.6245799999999
 20
-323.190539
 10
-301.2326469999999
 20
-323.121374
 10
-293.8896629999999
 20
-323.121374
 10
-294.2585409999999
 20
-325.277007
 10
-299.664914
 20
-325.277007
 10
-300.3104509999999
 20
-329.05801
  0
LWPOLYLINE
  5
CF
100
AcDbEntity
  8
0
  6
ByLayer
 62
  256
370
   -1
100
AcDbPolyline
 90
   20
 70
    0
 43
0
 10
-292.287348
 20
-323.121374
 10
-285.5783739999999
 20
-323.121374
 10
-285.1633859999999
 20
-323.202067
 10
-284.69076
 20
-323.444143
 10
-284.310355
 20
-323.893713
 10
-284.14897
 20
-324.58536
 10
-284.14897
 20
-324.712162
 10
-284.172025
 20
-324.838964
 10
-284.679233
 20
-327.813045
 10
-284.863672
 20
-328.343308
 10
-285.1864409999999
 20
-328.700659
 10
-285.5783739999999
 20
-328.91968
 10
-285.9472519999999
 20
-329.0119
 10
-285.4976819999999
 20
-331.213642
 10
-288.368016
 20
-331.213642
 10
-288.8175859999999
 20
-329.023427
 10
-290.15477
 20
-329.023427
 10
-290.523649
 20
-331.213642
 10
-293.6591139999999
 20
-331.213642
 10
-292.287348
 20
-323.121374
  0
LWPOLYLINE
  5
D0
100
AcDbEntity
  8
0
  6
ByLayer
 62
  256
370
   -1
100
AcDbPolyline
 90
   15
 70
    0
 43
0
 10
-287.687897
 20
-326.821685
 10
-287.618732
 20
-326.729465
 10
-287.572622
 20
-326.464334
 10
-287.503457
 20
-326.026291
 10
-287.434293
 20
-325.611303
 10
-287.422765
 20
-325.530611
 10
-287.411238
 20
-325.461446
 10
-287.39971
 20
-325.438391
 10
-287.39971
 20
-325.426864
 10
-287.480402
 20
-325.323117
 10
-287.618732
 20
-325.277007
 10
-289.5092329999999
 20
-325.277007
 10
-289.7858919999999
 20
-326.867795
 10
-287.837753
 20
-326.867795
 10
-287.687897
 20
-326.821685
  0
LWPOLYLINE
  5
D1
100
AcDbEntity
  8
0
  6
ByLayer
 62
  256
370
   -1
100
AcDbPolyline
 90
   13
 70
    0
 43
0
 10
-281.947237
 20
-323.121374
 10
-277.5322249999999
 20
-323.121374
 10
-277.1287639999999
 20
-323.190539
 10
-276.6791939999999
 20
-323.409561
 10
-276.2987879999999
 20
-323.813021
 10
-276.1028209999999
 20
-324.423976
 10
-275.411174
 20
-331.213642
 10
-278.408311
 20
-331.213642
 10
-278.523585
 20
-330.04937
 10
-280.8175469999999
 20
-330.04937
 10
-281.140316
 20
-331.213642
 10
-284.1489789999999
 20
-331.213642
 10
-281.947237
 20
-323.121374
  0
LWPOLYLINE
  5
D2
100
AcDbEntity
  8
0
  6
ByLayer
 62
  256
370
   -1
100
AcDbPolyline
 90
    7
 70
    0
 43
0
 10
-278.99621
 20
-325.415336
 10
-279.065375
 20
-325.323117
 10
-279.215232
 20
-325.277007
 10
-279.514946
 20
-325.277007
 10
-280.2296469999999
 20
-327.893737
 10
-278.742607
 20
-327.893737
 10
-278.99621
 20
-325.415336
  0
LWPOLYLINE
  5
D3
100
AcDbEntity
  8
0
  6
ByLayer
 62
  256
370
   -1
100
AcDbPolyline
 90
   18
 70
    0
 43
0
 10
-268.598444
 20
-325.288534
 10
-268.679136
 20
-325.277007
 10
-270.5696379999999
 20
-325.277007
 10
-271.2151749999999
 20
-329.05801
 10
-269.267036
 20
-329.05801
 10
-269.128707
 20
-329.023427
 10
-269.059542
 20
-328.91968
 10
-269.013432
 20
-328.689131
 10
-268.944268
 20
-328.251088
 10
-268.840521
 20
-327.697771
 10
-268.736773
 20
-327.075289
 10
-268.633026
 20
-326.464334
 10
-268.540807
 20
-325.945599
 10
-268.48317
 20
-325.576721
 10
-268.460115
 20
-325.426864
 10
-268.517752
 20
-325.334644
 10
-268.517752
 20
-325.334644
 10
-268.598444
 20
-325.288534
  0
LWPOLYLINE
  5
D4
100
AcDbEntity
  8
0
  6
ByLayer
 62
  256
370
   -1
100
AcDbPolyline
 90
   16
 70
    0
 43
0
 10
-265.2093749999999
 20
-324.712162
 10
-265.2324299999999
 20
-324.838964
 10
-266.108516
 20
-330.00326
 10
-266.3275369999999
 20
-330.579633
 10
-266.6964149999999
 20
-330.948511
 10
-267.1229309999999
 20
-331.156005
 10
-267.514864
 20
-331.213642
 10
-274.7195189999999
 20
-331.213642
 10
-273.347752
 20
-323.121374
 10
-266.6387779999999
 20
-323.121374
 10
-266.22379
 20
-323.202067
 10
-265.751165
 20
-323.444143
 10
-265.370759
 20
-323.893713
 10
-265.2093749999999
 20
-324.58536
 10
-265.2093749999999
 20
-324.58536
 10
-265.2093749999999
 20
-324.712162
  0
LWPOLYLINE
  5
D5
100
AcDbEntity
  8
0
  6
ByLayer
 62
  256
370
   -1
100
AcDbPolyline
 90
   31
 70
    0
 43
0
 10
-261.036448
 20
-325.657413
 10
-261.1056129999999
 20
-326.083928
 10
-261.1978319999999
 20
-326.648773
 10
-261.3015789999999
 20
-327.259728
 10
-261.4053259999999
 20
-327.88221
 10
-261.4860179999999
 20
-328.400945
 10
-261.5436559999999
 20
-328.758296
 10
-261.5667099999999
 20
-328.908153
 10
-261.5667099999999
 20
-328.954263
 10
-261.5090729999999
 20
-329.000372
 10
-261.4283809999999
 20
-329.046482
 10
-261.3592159999999
 20
-329.05801
 10
-258.961507
 20
-329.05801
 10
-258.811651
 20
-329.023427
 10
-258.742486
 20
-328.91968
 10
-258.707904
 20
-328.689131
 10
-258.627211
 20
-328.251088
 10
-258.534992
 20
-327.697771
 10
-258.431245
 20
-327.075289
 10
-258.327498
 20
-326.464334
 10
-258.2352779999999
 20
-325.945599
 10
-258.1776409999999
 20
-325.576721
 10
-258.1545859999999
 20
-325.426864
 10
-258.2122229999999
 20
-325.334644
 10
-258.292916
 20
-325.288534
 10
-258.373608
 20
-325.277007
 10
-260.771317
 20
-325.277007
 10
-260.921173
 20
-325.323117
 10
-260.990338
 20
-325.415336
 10
-260.990338
 20
-325.415336
 10
-261.036448
 20
-325.657413
  0
LWPOLYLINE
  5
D6
100
AcDbEntity
  8
0
  6
ByLayer
 62
  256
370
   -1
100
AcDbPolyline
 90
   25
 70
    0
 43
0
 10
-255.9989539999999
 20
-323.202067
 10
-255.5263279999999
 20
-323.444143
 10
-255.145922
 20
-323.893713
 10
-254.984538
 20
-324.58536
 10
-254.984538
 20
-324.712162
 10
-254.996066
 20
-324.838964
 10
-255.8836789999999
 20
-330.00326
 10
-256.1027009999999
 20
-330.579633
 10
-256.471579
 20
-330.948511
 10
-256.898094
 20
-331.156005
 10
-257.2900279999999
 20
-331.213642
 10
-263.3188819999999
 20
-331.213642
 10
-263.7338709999999
 20
-331.144478
 10
-264.206496
 20
-330.902401
 10
-264.586902
 20
-330.452831
 10
-264.748286
 20
-329.749656
 10
-264.748286
 20
-329.622855
 10
-264.725231
 20
-329.496053
 10
-263.849145
 20
-324.331756
 10
-263.6301239999999
 20
-323.755384
 10
-263.2612449999999
 20
-323.386506
 10
-262.8347299999999
 20
-323.190539
 10
-262.4427959999999
 20
-323.121374
 10
-256.413942
 20
-323.121374
 10
-255.9989539999999
 20
-323.202067
  0
LWPOLYLINE
  5
D7
100
AcDbEntity
  8
0
  6
ByLayer
 62
  256
370
   -1
100
AcDbPolyline
 90
   20
 70
    0
 43
0
 10
-253.3706869999999
 20
-323.121374
 10
-246.6617119999999
 20
-323.121374
 10
-246.2467239999999
 20
-323.202067
 10
-245.7740989999999
 20
-323.444143
 10
-245.393693
 20
-323.893713
 10
-245.232309
 20
-324.58536
 10
-245.232309
 20
-324.712162
 10
-245.255364
 20
-324.838964
 10
-245.762571
 20
-327.813045
 10
-245.9470109999999
 20
-328.343308
 10
-246.2697789999999
 20
-328.700659
 10
-246.6617119999999
 20
-328.91968
 10
-247.030591
 20
-329.0119
 10
-246.5810199999999
 20
-331.213642
 10
-249.451354
 20
-331.213642
 10
-249.9009249999999
 20
-329.023427
 10
-251.238109
 20
-329.023427
 10
-251.6069869999999
 20
-331.213642
 10
-254.742453
 20
-331.213642
 10
-253.3706869999999
 20
-323.121374
  0
LWPOLYLINE
  5
D8
100
AcDbEntity
  8
0
  6
ByLayer
 62
  256
370
   -1
100
AcDbPolyline
 90
   15
 70
    0
 43
0
 10
-248.771235
 20
-326.821685
 10
-248.70207
 20
-326.729465
 10
-248.655961
 20
-326.464334
 10
-248.586796
 20
-326.026291
 10
-248.5176309999999
 20
-325.611303
 10
-248.5061039999999
 20
-325.530611
 10
-248.4945759999999
 20
-325.461446
 10
-248.4830489999999
 20
-325.438391
 10
-248.4830489999999
 20
-325.426864
 10
-248.563741
 20
-325.323117
 10
-248.70207
 20
-325.277007
 10
-250.592572
 20
-325.277007
 10
-250.86923
 20
-326.867795
 10
-248.921092
 20
-326.867795
 10
-248.771235
 20
-326.821685
  0
LWPOLYLINE
  5
D9
100
AcDbEntity
  8
0
  6
ByLayer
 62
  256
370
   -1
100
AcDbPolyline
 90
   13
 70
    0
 43
0
 10
-243.0305849999999
 20
-323.121374
 10
-238.615572
 20
-323.121374
 10
-238.212112
 20
-323.190539
 10
-237.7625409999999
 20
-323.409561
 10
-237.3821359999999
 20
-323.813021
 10
-237.1861689999999
 20
-324.423976
 10
-236.494522
 20
-331.213642
 10
-239.4916579999999
 20
-331.213642
 10
-239.6069329999999
 20
-330.04937
 10
-241.900895
 20
-330.04937
 10
-242.223663
 20
-331.213642
 10
-245.2323269999999
 20
-331.213642
 10
-243.0305849999999
 20
-323.121374
  0
LWPOLYLINE
  5
DA
100
AcDbEntity
  8
0
  6
ByLayer
 62
  256
370
   -1
100
AcDbPolyline
 90
    7
 70
    0
 43
0
 10
-240.079558
 20
-325.415336
 10
-240.148723
 20
-325.323117
 10
-240.29858
 20
-325.277007
 10
-240.598293
 20
-325.277007
 10
-241.3129949999999
 20
-327.893737
 10
-239.8259539999999
 20
-327.893737
 10
-240.079558
 20
-325.415336
  0
LWPOLYLINE
  5
DB
100
AcDbEntity
  8
0
  6
ByLayer
 62
  256
370
   -1
100
AcDbPolyline
 90
   18
 70
    0
 43
0
 10
-366.760485
 20
-339.697843
 10
-366.841177
 20
-339.686316
 10
-368.7316789999999
 20
-339.686316
 10
-369.377216
 20
-343.467319
 10
-367.4290769999999
 20
-343.467319
 10
-367.290748
 20
-343.432736
 10
-367.221583
 20
-343.328989
 10
-367.175473
 20
-343.09844
 10
-367.106309
 20
-342.660397
 10
-367.002562
 20
-342.10708
 10
-366.898815
 20
-341.484598
 10
-366.795068
 20
-340.873643
 10
-366.702848
 20
-340.354908
 10
-366.645211
 20
-339.986029
 10
-366.622156
 20
-339.836173
 10
-366.679793
 20
-339.743953
 10
-366.679793
 20
-339.743953
 10
-366.760485
 20
-339.697843
  0
LWPOLYLINE
  5
DC
100
AcDbEntity
  8
0
  6
ByLayer
 62
  256
370
   -1
100
AcDbPolyline
 90
   16
 70
    0
 43
0
 10
-363.371416
 20
-339.121471
 10
-363.394471
 20
-339.248273
 10
-364.2705569999999
 20
-344.412569
 10
-364.4895779999999
 20
-344.988942
 10
-364.8584559999999
 20
-345.35782
 10
-365.2849719999999
 20
-345.565314
 10
-365.6769049999999
 20
-345.622951
 10
-372.8815599999999
 20
-345.622951
 10
-371.5097929999999
 20
-337.530683
 10
-364.8008189999999
 20
-337.530683
 10
-364.3858309999999
 20
-337.611375
 10
-363.9132059999999
 20
-337.853452
 10
-363.5328
 20
-338.303022
 10
-363.371416
 20
-338.994669
 10
-363.371416
 20
-338.994669
 10
-363.371416
 20
-339.121471
  0
LWPOLYLINE
  5
DD
100
AcDbEntity
  8
0
  6
ByLayer
 62
  256
370
   -1
100
AcDbPolyline
 90
   31
 70
    0
 43
0
 10
-359.198484
 20
-340.066722
 10
-359.267648
 20
-340.493237
 10
-359.3598679999999
 20
-341.058082
 10
-359.4636149999999
 20
-341.669037
 10
-359.5673619999999
 20
-342.291519
 10
-359.6480539999999
 20
-342.810254
 10
-359.7056909999999
 20
-343.167605
 10
-359.7287459999999
 20
-343.317462
 10
-359.7287459999999
 20
-343.363571
 10
-359.6711089999999
 20
-343.409681
 10
-359.5904169999999
 20
-343.455791
 10
-359.5212519999999
 20
-343.467319
 10
-357.1235429999999
 20
-343.467319
 10
-356.9736859999999
 20
-343.432736
 10
-356.9045219999999
 20
-343.328989
 10
-356.8699389999999
 20
-343.09844
 10
-356.7892469999999
 20
-342.660397
 10
-356.6970279999999
 20
-342.10708
 10
-356.5932809999999
 20
-341.484598
 10
-356.4895339999999
 20
-340.873643
 10
-356.3973139999999
 20
-340.354908
 10
-356.3396769999999
 20
-339.986029
 10
-356.3166219999999
 20
-339.836173
 10
-356.3742589999999
 20
-339.743953
 10
-356.4549509999999
 20
-339.697843
 10
-356.5356429999999
 20
-339.686316
 10
-358.933352
 20
-339.686316
 10
-359.083209
 20
-339.732426
 10
-359.152374
 20
-339.824645
 10
-359.152374
 20
-339.824645
 10
-359.198484
 20
-340.066722
  0
LWPOLYLINE
  5
DE
100
AcDbEntity
  8
0
  6
ByLayer
 62
  256
370
   -1
100
AcDbPolyline
 90
   25
 70
    0
 43
0
 10
-354.160989
 20
-337.611375
 10
-353.688364
 20
-337.853452
 10
-353.3079579999999
 20
-338.303022
 10
-353.1465739999999
 20
-338.994669
 10
-353.1465739999999
 20
-339.121471
 10
-353.1581009999999
 20
-339.248273
 10
-354.045715
 20
-344.412569
 10
-354.264736
 20
-344.988942
 10
-354.633615
 20
-345.35782
 10
-355.06013
 20
-345.565314
 10
-355.452063
 20
-345.622951
 10
-361.480917
 20
-345.622951
 10
-361.895905
 20
-345.553786
 10
-362.368531
 20
-345.31171
 10
-362.748936
 20
-344.86214
 10
-362.910321
 20
-344.158965
 10
-362.910321
 20
-344.032163
 10
-362.887266
 20
-343.905362
 10
-362.01118
 20
-338.741065
 10
-361.792158
 20
-338.164693
 10
-361.42328
 20
-337.795815
 10
-360.9967639999999
 20
-337.599848
 10
-360.6048309999999
 20
-337.530683
 10
-354.575977
 20
-337.530683
 10
-354.160989
 20
-337.611375
  0
LWPOLYLINE
  5
DF
100
AcDbEntity
  8
0
  6
ByLayer
 62
  256
370
   -1
100
AcDbPolyline
 90
   10
 70
    0
 43
0
 10
-350.4837239999999
 20
-345.622951
 10
-349.111957
 20
-337.530683
 10
-345.838162
 20
-337.530683
 10
-346.2070409999999
 20
-339.686316
 10
-347.3367309999999
 20
-339.686316
 10
-347.4750599999999
 20
-339.720898
 10
-347.5557519999999
 20
-339.859228
 10
-346.2416229999999
 20
-339.859228
 10
-347.2214559999999
 20
-345.622951
 10
-350.4837239999999
 20
-345.622951
  0
LWPOLYLINE
  5
E0
100
AcDbEntity
  8
0
  6
ByLayer
 62
  256
370
   -1
100
AcDbPolyline
 90
   18
 70
    0
 43
0
 10
-342.621996
 20
-339.720898
 10
-342.69116
 20
-339.859228
 10
-341.3770309999999
 20
-339.859228
 10
-341.6191079999999
 20
-341.277104
 10
-337.9418519999999
 20
-341.277104
 10
-338.3453129999999
 20
-343.432736
 10
-341.987986
 20
-343.432736
 10
-342.356864
 20
-345.622951
 10
-345.4923299999999
 20
-345.622951
 10
-344.3165299999999
 20
-338.741065
 10
-344.0975089999999
 20
-338.164693
 10
-343.728631
 20
-337.795815
 10
-343.302115
 20
-337.599848
 10
-342.910182
 20
-337.530683
 10
-336.7660519999999
 20
-337.530683
 10
-337.1349309999999
 20
-339.686316
 10
-342.472139
 20
-339.686316
 10
-342.621996
 20
-339.720898
  0
LWPOLYLINE
  5
E1
100
AcDbEntity
  8
0
  6
ByLayer
 62
  256
370
   -1
100
AcDbPolyline
 90
   31
 70
    0
 43
0
 10
-336.5355
 20
-344.032163
 10
-336.512445
 20
-343.905362
 10
-335.636359
 20
-338.741065
 10
-335.417338
 20
-338.164693
 10
-335.048459
 20
-337.795815
 10
-334.621944
 20
-337.599848
 10
-334.2300099999999
 20
-337.530683
 10
-326.8870269999999
 20
-337.530683
 10
-327.255905
 20
-339.686316
 10
-333.7919669999999
 20
-339.686316
 10
-333.9418239999999
 20
-339.720898
 10
-334.0109889999999
 20
-339.859228
 10
-332.685333
 20
-339.859228
 10
-333.3078149999999
 20
-343.467319
 10
-331.0369079999999
 20
-343.467319
 10
-330.8409409999999
 20
-342.522068
 10
-332.189652
 20
-342.522068
 10
-331.7977189999999
 20
-340.366435
 10
-327.348125
 20
-340.366435
 10
-328.062826
 20
-344.412569
 10
-328.281848
 20
-344.988942
 10
-328.650726
 20
-345.35782
 10
-329.077242
 20
-345.565314
 10
-329.469175
 20
-345.622951
 10
-335.106096
 20
-345.622951
 10
-335.521085
 20
-345.553786
 10
-335.99371
 20
-345.31171
 10
-336.374116
 20
-344.86214
 10
-336.5355
 20
-344.158965
 10
-336.5355
 20
-344.158965
 10
-336.5355
 20
-344.032163
  0
LWPOLYLINE
  5
E2
100
AcDbEntity
  8
0
  6
ByLayer
 62
  256
370
   -1
100
AcDbPolyline
 90
    5
 70
    0
 43
0
 10
-318.8869589999999
 20
-342.64887
 10
-324.350974
 20
-342.64887
 10
-323.982095
 20
-340.504765
 10
-318.5180809999999
 20
-340.504765
 10
-318.8869589999999
 20
-342.64887
  0
LWPOLYLINE
  5
E3
100
AcDbEntity
  8
0
  6
ByLayer
 62
  256
370
   -1
100
AcDbPolyline
 90
   38
 70
    0
 43
0
 10
-315.2903779999999
 20
-341.576817
 10
-315.0713559999999
 20
-341.000445
 10
-314.7024779999999
 20
-340.631567
 10
-314.2759619999999
 20
-340.4356
 10
-313.8840289999999
 20
-340.366435
 10
-310.7946729999999
 20
-340.366435
 10
-310.6563439999999
 20
-340.331853
 10
-310.5871789999999
 20
-340.228106
 10
-310.5641239999999
 20
-340.124359
 10
-310.5410689999999
 20
-340.009084
 10
-310.5180149999999
 20
-339.905337
 10
-310.5180149999999
 20
-339.836173
 10
-310.5295419999999
 20
-339.790063
 10
-310.5756519999999
 20
-339.743953
 10
-310.6563439999999
 20
-339.697843
 10
-310.7370359999999
 20
-339.686316
 10
-314.9676089999999
 20
-339.686316
 10
-314.6102579999999
 20
-337.530683
 10
-308.696678
 20
-337.530683
 10
-308.28169
 20
-337.611375
 10
-307.8090649999999
 20
-337.853452
 10
-307.4171309999999
 20
-338.303022
 10
-307.2557469999999
 20
-338.994669
 10
-307.2672749999999
 20
-339.121471
 10
-307.2788019999999
 20
-339.248273
 10
-307.6361529999999
 20
-341.311686
 10
-307.8551739999999
 20
-341.888058
 10
-308.224053
 20
-342.256937
 10
-308.650568
 20
-342.464431
 10
-309.042501
 20
-342.522068
 10
-312.131857
 20
-342.522068
 10
-312.281714
 20
-342.568178
 10
-312.339351
 20
-342.660397
 10
-312.477681
 20
-343.467319
 10
-308.0050309999999
 20
-343.467319
 10
-308.362382
 20
-345.622951
 10
-315.982025
 20
-345.622951
 10
-315.2903779999999
 20
-341.576817
  0
LWPOLYLINE
  5
E4
100
AcDbEntity
  8
0
  6
ByLayer
 62
  256
370
   -1
100
AcDbPolyline
 90
   25
 70
    0
 43
0
 10
-306.010774
 20
-345.553786
 10
-306.483399
 20
-345.31171
 10
-306.863805
 20
-344.86214
 10
-307.025189
 20
-344.158965
 10
-307.025189
 20
-344.032163
 10
-307.002134
 20
-343.905362
 10
-306.126048
 20
-338.741065
 10
-305.907027
 20
-338.164693
 10
-305.538148
 20
-337.795815
 10
-305.111633
 20
-337.599848
 10
-304.7196999999999
 20
-337.530683
 10
-299.20958
 20
-337.530683
 10
-298.794592
 20
-337.611375
 10
-298.321966
 20
-337.853452
 10
-297.941561
 20
-338.303022
 10
-297.780176
 20
-338.994669
 10
-297.791704
 20
-339.121471
 10
-297.803231
 20
-339.248273
 10
-298.679317
 20
-344.412569
 10
-298.909866
 20
-344.988942
 10
-299.278745
 20
-345.35782
 10
-299.70526
 20
-345.565314
 10
-300.0971929999999
 20
-345.622951
 10
-305.595786
 20
-345.622951
 10
-306.010774
 20
-345.553786
  0
LWPOLYLINE
  5
E5
100
AcDbEntity
  8
0
  6
ByLayer
 62
  256
370
   -1
100
AcDbPolyline
 90
    6
 70
    0
 43
0
 10
-301.7456179999999
 20
-343.467319
 10
-301.6072889999999
 20
-343.432736
 10
-301.5381239999999
 20
-343.328989
 10
-301.0309169999999
 20
-340.97739
 10
-303.359461
 20
-343.467319
 10
-301.7456179999999
 20
-343.467319
  0
LWPOLYLINE
  5
E6
100
AcDbEntity
  8
0
  6
ByLayer
 62
  256
370
   -1
100
AcDbPolyline
 90
    6
 70
    0
 43
0
 10
-303.059747
 20
-339.686316
 10
-303.198077
 20
-339.732426
 10
-303.267241
 20
-339.824645
 10
-303.7744489999999
 20
-342.314574
 10
-301.3075749999999
 20
-339.686316
 10
-303.059747
 20
-339.686316
  0
LWPOLYLINE
  5
E7
100
AcDbEntity
  8
0
  6
ByLayer
 62
  256
370
   -1
100
AcDbPolyline
 90
   38
 70
    0
 43
0
 10
-296.8579809999999
 20
-341.576817
 10
-296.6389589999999
 20
-341.000445
 10
-296.2700809999999
 20
-340.631567
 10
-295.843565
 20
-340.4356
 10
-295.451632
 20
-340.366435
 10
-292.362276
 20
-340.366435
 10
-292.223947
 20
-340.331853
 10
-292.154782
 20
-340.228106
 10
-292.131727
 20
-340.124359
 10
-292.108672
 20
-340.009084
 10
-292.085618
 20
-339.905337
 10
-292.085618
 20
-339.836173
 10
-292.097145
 20
-339.790063
 10
-292.143255
 20
-339.743953
 10
-292.223947
 20
-339.697843
 10
-292.304639
 20
-339.686316
 10
-296.5352119999999
 20
-339.686316
 10
-296.177861
 20
-337.530683
 10
-290.264281
 20
-337.530683
 10
-289.8492929999999
 20
-337.611375
 10
-289.3766679999999
 20
-337.853452
 10
-288.9847339999999
 20
-338.303022
 10
-288.8233499999999
 20
-338.994669
 10
-288.8348779999999
 20
-339.121471
 10
-288.8464049999999
 20
-339.248273
 10
-289.2037559999999
 20
-341.311686
 10
-289.4227769999999
 20
-341.888058
 10
-289.7916559999999
 20
-342.256937
 10
-290.218171
 20
-342.464431
 10
-290.610104
 20
-342.522068
 10
-293.6994599999999
 20
-342.522068
 10
-293.8493169999999
 20
-342.568178
 10
-293.9069539999999
 20
-342.660397
 10
-294.0452839999999
 20
-343.467319
 10
-289.5726339999999
 20
-343.467319
 10
-289.9299849999999
 20
-345.622951
 10
-297.549628
 20
-345.622951
 10
-296.8579809999999
 20
-341.576817
  0
LWPOLYLINE
  5
E8
100
AcDbEntity
  8
0
  6
ByLayer
 62
  256
370
   -1
100
AcDbPolyline
 90
   31
 70
    0
 43
0
 10
-287.5783769999999
 20
-345.553786
 10
-288.0510019999999
 20
-345.31171
 10
-288.4314079999999
 20
-344.86214
 10
-288.5927919999999
 20
-344.158965
 10
-288.5927919999999
 20
-344.032163
 10
-288.5697369999999
 20
-343.905362
 10
-287.6936509999999
 20
-338.741065
 10
-287.4746299999999
 20
-338.164693
 10
-287.1057509999999
 20
-337.795815
 10
-286.6792359999999
 20
-337.599848
 10
-286.287303
 20
-337.530683
 10
-279.8665149999999
 20
-337.530683
 10
-280.2353929999999
 20
-339.686316
 10
-284.523603
 20
-339.686316
 10
-284.67346
 20
-339.732426
 10
-284.742625
 20
-339.824645
 10
-284.834844
 20
-340.366435
 10
-281.837708
 20
-340.366435
 10
-281.42272
 20
-340.447127
 10
-280.9500949999999
 20
-340.689204
 10
-280.5696889999999
 20
-341.138774
 10
-280.4083049999999
 20
-341.830421
 10
-280.4083049999999
 20
-341.96875
 10
-280.4313599999999
 20
-342.084025
 10
-280.8232929999999
 20
-344.412569
 10
-281.0423139999999
 20
-344.988942
 10
-281.411193
 20
-345.35782
 10
-281.837708
 20
-345.565314
 10
-282.229641
 20
-345.622951
 10
-287.1633889999999
 20
-345.622951
 10
-287.5783769999999
 20
-345.553786
  0
LWPOLYLINE
  5
E9
100
AcDbEntity
  8
0
  6
ByLayer
 62
  256
370
   -1
100
AcDbPolyline
 90
   11
 70
    0
 43
0
 10
-285.365107
 20
-343.467319
 10
-283.9818129999999
 20
-343.467319
 10
-283.8434839999999
 20
-343.432736
 10
-283.7743189999999
 20
-343.328989
 10
-283.6705719999999
 20
-342.775672
 10
-283.6590449999999
 20
-342.671925
 10
-283.6705719999999
 20
-342.625815
 10
-283.7166819999999
 20
-342.579705
 10
-283.8780659999999
 20
-342.522068
 10
-285.203723
 20
-342.522068
 10
-285.365107
 20
-343.467319
  0
LWPOLYLINE
  5
EA
100
AcDbEntity
  8
0
  6
ByLayer
 62
  256
370
   -1
100
AcDbPolyline
 90
    7
 70
    0
 43
0
 10
-419.576672
 20
-389.23036
 10
-416.0455019999999
 20
-369.67602
 10
-421.323276
 20
-369.67602
 10
-420.108246
 20
-362.57572
 10
-404.73056
 20
-362.57572
 10
-409.552699
 20
-389.23036
 10
-419.576672
 20
-389.23036
  0
LWPOLYLINE
  5
EB
100
AcDbEntity
  8
0
  6
ByLayer
 62
  256
370
   -1
100
AcDbPolyline
 90
   14
 70
    0
 43
0
 10
-399.79448
 20
-364.01855
 10
-399.9083879999999
 20
-364.58809
 10
-399.946358
 20
-364.73993
 10
-399.946358
 20
-364.85392
 10
-397.3644259999999
 20
-364.85392
 10
-397.060667
 20
-363.29716
 10
-396.832849
 20
-361.70246
 10
-396.7948789999999
 20
-361.58845
 10
-396.756909
 20
-361.43661
 10
-399.3388419999999
 20
-361.43661
 10
-399.5286889999999
 20
-362.23395
 10
-399.6805729999999
 20
-363.33507
 10
-399.6805719999999
 20
-363.3351
 10
-399.79448
 20
-364.01855
  0
LWPOLYLINE
  5
EC
100
AcDbEntity
  8
0
  6
ByLayer
 62
  256
370
   -1
100
AcDbPolyline
 90
   29
 70
    0
 43
0
 10
-402.680171
 20
-367.89131
 10
-403.2497139999999
 20
-367.58763
 10
-403.857227
 20
-366.7523
 10
-403.971124
 20
-365.7651
 10
-403.9331539999999
 20
-365.49928
 10
-403.8192579999999
 20
-364.85383
 10
-403.6673749999999
 20
-363.98055
 10
-403.5154899999999
 20
-362.99329
 10
-403.1737649999999
 20
-361.13279
 10
-402.983919
 20
-359.91776
 10
-402.689655
 20
-359.101403
 10
-402.1865569999999
 20
-358.62677
 10
-401.1993489999999
 20
-358.32308
 10
-394.5546659999999
 20
-358.32308
 10
-393.8332439999999
 20
-358.474955
 10
-393.2637
 20
-358.93058
 10
-392.865019
 20
-359.576068
 10
-392.7321249999999
 20
-360.29749
 10
-392.770095
 20
-360.52544
 10
-392.8080649999999
 20
-360.75335
 10
-392.846035
 20
-361.09509
 10
-392.8840049999999
 20
-361.43683
 10
-393.3016709999999
 20
-363.90484
 10
-393.757307
 20
-366.3349
 10
-394.023096
 20
-367.160735
 10
-394.516697
 20
-367.66384
 10
-395.5418769999999
 20
-367.96752
 10
-402.1485969999999
 20
-367.96741
 10
-402.680171
 20
-367.89131
  0
LWPOLYLINE
  5
ED
100
AcDbEntity
  8
0
  6
ByLayer
 62
  256
370
   -1
100
AcDbPolyline
 90
   10
 70
    0
 43
0
 10
-376.0634499999999
 20
-381.56053
 10
-376.5570559999999
 20
-381.67453
 10
-376.784872
 20
-382.13017
 10
-360.002309
 20
-382.13017
 10
-361.0274879999999
 20
-389.23048
 10
-384.378795
 20
-389.23048
 10
-379.8604119999999
 20
-362.57581
 10
-369.0770429999999
 20
-362.57581
 10
-372.3424289999999
 20
-381.56053
 10
-376.0634499999999
 20
-381.56053
  0
LWPOLYLINE
  5
EE
100
AcDbEntity
  8
0
  6
ByLayer
 62
  256
370
   -1
100
AcDbPolyline
 90
   28
 70
    0
 43
0
 10
-358.4834779999999
 20
-383.99056
 10
-358.407518
 20
-383.57292
 10
-354.8383759999999
 20
-362.57572
 10
-344.510641
 20
-362.57572
 10
-344.6245359999999
 20
-363.29713
 10
-344.8143939999999
 20
-364.51218
 10
-345.194091
 20
-366.75238
 10
-345.7256639999999
 20
-369.714
 10
-346.2952089999999
 20
-372.94141
 10
-346.826782
 20
-376.16884
 10
-347.320387
 20
-378.94062
 10
-347.662113
 20
-380.87707
 10
-347.7760079999999
 20
-381.63645
 10
-347.5102279999999
 20
-382.01613
 10
-347.054591
 20
-382.13015
 10
-339.91631
 20
-382.13015
 10
-336.6129539999999
 20
-362.57578
 10
-326.285222
 20
-362.57578
 10
-330.8036059999999
 20
-389.23044
 10
-353.775233
 20
-389.23044
 10
-355.1421399999999
 20
-389.0025
 10
-356.6988949999999
 20
-388.20514
 10
-357.372854
 20
-387.550155
 10
-357.9518919999999
 20
-386.72432
 10
-358.3505729999999
 20
-385.670653
 10
-358.483466
 20
-384.40815
 10
-358.4834779999999
 20
-384.40821
 10
-358.4834779999999
 20
-383.99056
  0
LWPOLYLINE
  5
EF
100
AcDbEntity
  8
0
  6
ByLayer
 62
  256
370
   -1
100
AcDbPolyline
 90
   33
 70
    0
 43
0
 10
-314.8564299999999
 20
-382.13007
 10
-307.37643
 20
-382.13007
 10
-306.730946
 20
-379.01656
 10
-311.1733909999999
 20
-379.01656
 10
-309.882425
 20
-371.91624
 10
-295.2261569999999
 20
-371.91624
 10
-297.580277
 20
-385.24357
 10
-297.855557
 20
-386.287728
 10
-298.3016969999999
 20
-387.14204
 10
-298.8712399999999
 20
-387.825498
 10
-299.5167269999999
 20
-388.35707
 10
-300.921594
 20
-389.04052
 10
-302.2125639999999
 20
-389.23026
 10
-320.779688
 20
-389.23026
 10
-322.1465919999999
 20
-389.00232
 10
-323.7033499999999
 20
-388.20494
 10
-324.377308
 20
-387.549965
 10
-324.9563449999999
 20
-386.72412
 10
-325.355026
 20
-385.670448
 10
-325.4879189999999
 20
-384.40795
 10
-325.4879189999999
 20
-383.99029
 10
-325.4119889999999
 20
-383.57266
 10
-322.5262999999999
 20
-366.56224
 10
-322.2510159999999
 20
-365.51809
 10
-321.8048759999999
 20
-364.66378
 10
-321.235333
 20
-363.980318
 10
-320.58985
 20
-363.44875
 10
-319.184973
 20
-362.80326
 10
-317.894008
 20
-362.57531
 10
-293.707377
 20
-362.57531
 10
-294.922407
 20
-369.67562
 10
-312.7301429999999
 20
-369.67602
 10
-314.8564299999999
 20
-382.13007
  0
LWPOLYLINE
  5
F0
100
AcDbEntity
  8
0
  6
ByLayer
 62
  256
370
   -1
100
AcDbPolyline
 90
   16
 70
    0
 43
0
 10
-286.4551769999999
 20
-362.57572
 10
-271.912817
 20
-362.57572
 10
-270.5838769999999
 20
-362.80365
 10
-269.8339799999999
 20
-363.078868
 10
-269.103067
 20
-363.5251
 10
-268.4291069999999
 20
-364.104118
 10
-267.850067
 20
-364.85403
 10
-267.4229119999999
 20
-365.75579
 10
-267.2045869999999
 20
-366.86639
 10
-264.9264069999999
 20
-389.23051
 10
-274.798507
 20
-389.23051
 10
-275.1782069999999
 20
-385.39559
 10
-282.734157
 20
-385.39559
 10
-283.7973069999999
 20
-389.23051
 10
-293.707377
 20
-389.23036
 10
-286.4551769999999
 20
-362.57572
  0
LWPOLYLINE
  5
F1
100
AcDbEntity
  8
0
  6
ByLayer
 62
  256
370
   -1
100
AcDbPolyline
 90
    7
 70
    0
 43
0
 10
-276.734957
 20
-370.13165
 10
-276.9627869999999
 20
-369.82797
 10
-277.4563969999999
 20
-369.67611
 10
-278.4436069999999
 20
-369.67611
 10
-280.797727
 20
-378.29522
 10
-275.899627
 20
-378.29512
 10
-276.734957
 20
-370.13165
  0
LWPOLYLINE
  5
F2
100
AcDbEntity
  8
0
  6
ByLayer
 62
  256
370
   -1
100
AcDbPolyline
 90
   24
 70
    0
 43
0
 10
-258.129827
 20
-362.57572
 10
-236.0314969999999
 20
-362.57572
 10
-234.664607
 20
-362.84153
 10
-233.8577439999999
 20
-363.15484
 10
-233.107837
 20
-363.63889
 10
-232.414902
 20
-364.274875
 10
-231.854857
 20
-365.11971
 10
-231.456172
 20
-366.144893
 10
-231.323277
 20
-367.3979
 10
-231.323277
 20
-367.81556
 10
-231.3990769999999
 20
-368.23321
 10
-233.0697369999999
 20
-378.02938
 10
-233.2975589999999
 20
-378.978605
 10
-233.6772669999999
 20
-379.77596
 10
-234.740417
 20
-380.95306
 10
-236.031357
 20
-381.67446
 10
-237.2464069999999
 20
-381.97816
 10
-235.765577
 20
-389.23035
 10
-245.220037
 20
-389.23035
 10
-246.700847
 20
-382.01611
 10
-251.105327
 20
-382.01611
 10
-252.3203469999999
 20
-389.23035
 10
-262.648207
 20
-389.23036
 10
-258.129827
 20
-362.57572
  0
LWPOLYLINE
  5
F3
100
AcDbEntity
  8
0
  6
ByLayer
 62
  256
370
   -1
100
AcDbPolyline
 90
   15
 70
    0
 43
0
 10
-242.979957
 20
-374.76399
 10
-242.7521069999999
 20
-374.4603
 10
-242.600227
 20
-373.587
 10
-242.372427
 20
-372.14415
 10
-242.144627
 20
-370.77725
 10
-242.1067269999999
 20
-370.51144
 10
-242.0688269999999
 20
-370.28351
 10
-242.030927
 20
-370.20781
 10
-242.030927
 20
-370.17001
 10
-242.2967069999999
 20
-369.82829
 10
-242.752337
 20
-369.67643
 10
-248.979357
 20
-369.67643
 10
-249.8906269999999
 20
-374.91625
 10
-243.4735569999999
 20
-374.91582
 10
-242.979957
 20
-374.76399
  0
LWPOLYLINE
  5
F4
100
AcDbEntity
  8
0
  6
ByLayer
 62
  256
370
   -1
100
AcDbPolyline
 90
    5
 70
    0
 43
0
 10
-291.37402
 20
-303.13065
 10
-291.37402
 20
-306.13065
 10
-361.37402
 20
-306.13065
 10
-361.37402
 20
-303.13065
 10
-291.37402
 20
-303.13065
  0
LWPOLYLINE
  5
F5
100
AcDbEntity
  8
0
  6
ByLayer
 62
  256
370
   -1
100
AcDbPolyline
 90
    5
 70
    0
 43
0
 10
-91.37405600000001
 20
-303.13062
 10
-91.37405600000001
 20
-306.13062
 10
-161.374056
 20
-306.13062
 10
-161.374056
 20
-303.13062
 10
-91.37405600000001
 20
-303.13062
  0
LWPOLYLINE
  5
F6
100
AcDbEntity
  8
0
  6
ByLayer
 62
  256
370
   -1
100
AcDbPolyline
 90
   12
 70
    0
 43
0
 10
-603.9897616476085
 20
-4.830757686864587
 10
-533.9893836476085
 20
-4.830757686864587
 10
-533.9893836476085
 20
1.169392313135418
 10
-530.8939636476084
 20
1.169392313135418
 10
-494.7116736476084
 20
201.1690623131354
 10
-610.0958486476085
 20
201.1690623131354
 10
-610.0958486476085
 20
201.1690623131354
 10
-619.2126046476085
 20
147.8927323131354
 10
-579.6119206476085
 20
147.8927323131354
 10
-606.1074616476085
 20
1.169392313135418
 10
-603.9897616476085
 20
1.169392313135418
 10
-603.9897616476085
 20
-4.830757686864587
  0
LWPOLYLINE
  5
F7
100
AcDbEntity
  8
0
  6
ByLayer
 62
  256
370
   -1
100
AcDbPolyline
 90
   85
 70
    0
 43
0
 10
-478.4656336476085
 20
20.16874231313543
 10
-408.4652536476085
 20
20.16874231313543
 10
-408.4652536476085
 20
26.16889231313542
 10
-359.5974336476085
 20
26.16889231313542
 10
-351.8697436476085
 20
72.78568231313542
 10
-448.5930336476085
 20
72.78568231313542
 10
-445.6020036476085
 20
90.23578231313542
 10
-445.2903986476085
 20
91.23287731313542
 10
-444.3555736476085
 20
92.22997231313542
 10
-443.6855476476085
 20
92.66625931313541
 10
-442.9219626476085
 20
92.97794131313542
 10
-441.1144236476085
 20
93.22733231313542
 10
-374.3055836476085
 20
93.22733231313542
 10
-370.3168876476085
 20
93.53893731313542
 10
-365.8296136476085
 20
94.47376231313542
 10
-363.4769466476085
 20
95.31509531313542
 10
-361.1554276476085
 20
96.34337031313542
 10
-358.8650686476085
 20
97.55860831313542
 10
-356.6058836476085
 20
98.96083231313543
 10
-354.4246046476085
 20
100.5812143131354
 10
-352.3679536476085
 20
102.4508993131354
 10
-350.4359446476085
 20
104.5698743131354
 10
-348.6285936476085
 20
106.9381223131354
 10
-347.0238576476086
 20
109.5867993131354
 10
-345.6996286476085
 20
112.5470773131354
 10
-344.6558476476085
 20
115.8189653131354
 10
-343.8924536476085
 20
119.4024723131354
 10
-336.1642436476085
 20
164.0250723131354
 10
-335.9151636476086
 20
166.7670223131354
 10
-335.6655636476086
 20
169.5094923131354
 10
-335.8837196476085
 20
173.8097053131354
 10
-336.5381666476085
 20
177.7359733131354
 10
-337.6288686476086
 20
181.2883083131354
 10
-339.1557936476086
 20
184.4667223131354
 10
-340.9943156476085
 20
187.4114623131354
 10
-343.0198386476085
 20
190.0134633131354
 10
-345.2323296476085
 20
192.2726933131354
 10
-347.6317536476085
 20
194.1891223131354
 10
-350.0466956476085
 20
195.9185243131354
 10
-352.5550746476085
 20
197.3674363131354
 10
-355.1569366476085
 20
198.5358983131354
 10
-357.8523236476085
 20
199.4239523131354
 10
-360.3764076476085
 20
200.1874103131354
 10
-362.7135796476085
 20
200.7327593131354
 10
-364.8637866476085
 20
201.0599833131354
 10
-366.8269736476085
 20
201.1690623131354
 10
-494.7116736476085
 20
201.1690623131354
 10
-494.7116736476085
 20
201.1690623131354
 10
-502.4393636476085
 20
154.5522723131354
 10
-410.9508936476085
 20
154.5522723131354
 10
-409.2057736476085
 20
154.3026723131354
 10
-408.2708976476085
 20
153.9288953131354
 10
-407.4606636476085
 20
153.3058323131354
 10
-406.7126996476085
 20
152.8071563131354
 10
-406.4633136476085
 20
152.3084723131354
 10
-406.2142336476085
 20
151.3116423131354
 10
-406.2142336476085
 20
149.8156023131354
 10
-406.3389256476085
 20
148.7560323131354
 10
-406.7129036476085
 20
147.5718123131354
 10
-407.2115836476085
 20
145.0789423131354
 10
-407.7102636476085
 20
142.8356723131354
 10
-408.2087296476085
 20
141.6514523131354
 10
-409.2057736476085
 20
140.5918823131354
 10
-410.4522596476085
 20
140.0310343131354
 10
-412.1973236476085
 20
139.8441223131354
 10
-479.0061636476085
 20
139.8441223131354
 10
-480.9381746476085
 20
139.7506733131354
 10
-482.9948636476085
 20
139.4702973131354
 10
-485.1761956476085
 20
139.0029543131354
 10
-487.4821336476085
 20
138.3486023131354
 10
-489.8348006476085
 20
137.6163053131354
 10
-492.1563196476085
 20
136.6658653131354
 10
-494.4466786476085
 20
135.4972983131354
 10
-496.7058636476085
 20
134.1106223131354
 10
-498.8871426476085
 20
132.4902363131354
 10
-500.9437936476085
 20
130.6205513131354
 10
-502.8758026476085
 20
128.5015793131354
 10
-504.6831536476085
 20
126.1333323131354
 10
-506.2878956476085
 20
123.4846533131354
 10
-507.6121276476085
 20
120.5243723131354
 10
-508.6559096476085
 20
117.2524813131354
 10
-509.4193036476085
 20
113.6689723131354
 10
-524.3770436476085
 20
26.16889231313542
 10
-478.4656336476085
 20
26.16889231313542
 10
-478.4656336476085
 20
20.16874231313543
  0
LWPOLYLINE
  5
F8
100
AcDbEntity
  8
0
  6
ByLayer
 62
  256
370
   -1
100
AcDbPolyline
 90
  107
 70
    0
 43
0
 10
-324.6068036476086
 20
20.16874231313541
 10
-254.6069466476085
 20
20.16874231313541
 10
-254.6069466476085
 20
26.16889231313542
 10
-237.1614996476085
 20
26.16889231313542
 10
-233.5824486476085
 20
26.43587831313542
 10
-229.6828866476085
 20
27.23705231313541
 10
-227.5728846476085
 20
27.97153931313541
 10
-225.5163486476085
 20
28.89296731313541
 10
-223.5132306476085
 20
30.00136331313541
 10
-221.5634856476085
 20
31.29675231313541
 10
-219.6937936476085
 20
32.79250931313541
 10
-217.9308976476085
 20
34.50199031313541
 10
-216.2748386476085
 20
36.42514931313541
 10
-214.7256596476085
 20
38.56194231313542
 10
-213.3634616476085
 20
40.93904731313542
 10
-212.2683336476085
 20
43.58322231313541
 10
-211.4403006476085
 20
46.49449431313541
 10
-210.8793836476085
 20
49.67289231313542
 10
-209.8112316476085
 20
56.72414231313542
 10
-208.3157156476085
 20
66.33957231313542
 10
-206.8196826476085
 20
75.95500231313541
 10
-206.3390336476085
 20
80.06823331313541
 10
-206.1788946476085
 20
83.00625231313541
 10
-206.3658756476085
 20
86.17132931313542
 10
-206.9268066476085
 20
89.04262331313541
 10
-207.8616686476085
 20
91.62011431313542
 10
-209.1704436476085
 20
93.90378231313542
 10
-210.6127006476085
 20
95.93364931313542
 10
-212.1617386476085
 20
97.74978731313541
 10
-213.8176156476085
 20
99.35225031313541
 10
-215.5803886476085
 20
100.7410923131354
 10
-217.0764206476085
 20
101.8097623131354
 10
-218.5719366476085
 20
102.8779123131354
 10
-215.5270876476085
 20
104.2134183131354
 10
-212.5891026476085
 20
105.8694823131354
 10
-209.7579556476085
 20
107.8460583131354
 10
-207.0336226476085
 20
110.1431023131354
 10
-205.7615896476085
 20
111.4885743131354
 10
-204.6164296476085
 20
112.9608933131354
 10
-203.5981406476085
 20
114.5600683131354
 10
-202.7067226476085
 20
116.2861063131354
 10
-201.9421746476085
 20
118.1390133131354
 10
-201.3044946476085
 20
120.1187963131354
 10
-200.4097376476085
 20
124.4590223131354
 10
-199.5550096476085
 20
130.0147523131354
 10
-198.7002816476085
 20
136.6386423131354
 10
-198.0589766476085
 20
143.2625223131354
 10
-197.7384576476085
 20
146.4141963131354
 10
-197.6316126476085
 20
149.0316823131354
 10
-197.8185936476085
 20
152.7176413131354
 10
-198.3795246476085
 20
156.0831673131354
 10
-199.3143866476085
 20
159.1281803131354
 10
-200.6231616476085
 20
161.8526023131354
 10
-202.1055266476085
 20
164.3766443131354
 10
-203.7748536476085
 20
166.6068823131354
 10
-205.6311466476085
 20
168.5433143131354
 10
-207.6744106476085
 20
170.1859423131354
 10
-209.7443936476085
 20
171.6682963131354
 10
-211.8945086476085
 20
172.9102463131354
 10
-214.1247516476085
 20
173.9118113131354
 10
-216.4351166476085
 20
174.6730123131354
 10
-220.6019026476085
 20
175.7946983131354
 10
-222.4449376476085
 20
176.0750733131354
 10
-224.1276696476085
 20
176.1685223131354
 10
-334.1700536476085
 20
176.1685223131354
 10
-334.1700536476085
 20
176.1685223131354
 10
-340.7939336476085
 20
136.2112723131354
 10
-262.3754646476085
 20
136.2112723131354
 10
-260.8794316476085
 20
135.9978523131354
 10
-260.0782566476086
 20
135.6773243131354
 10
-259.3839156476085
 20
135.1431223131354
 10
-258.7428766476085
 20
134.7157573131354
 10
-258.5291876476085
 20
134.2883923131354
 10
-258.3152476476085
 20
133.4336623131354
 10
-258.4756446476085
 20
131.8310303131354
 10
-258.9565516476085
 20
129.1600223131354
 10
-259.3839156476085
 20
126.1684823131354
 10
-259.8112796476086
 20
123.8182323131354
 10
-260.3987806476085
 20
122.8033733131354
 10
-261.3067956476085
 20
121.8953523131354
 10
-262.3752126476085
 20
121.2543123131354
 10
-263.8709806476085
 20
121.0406223131354
 10
-318.9993936476085
 20
121.0406223131354
 10
-324.9819836476086
 20
85.99780231313542
 10
-266.4351656476085
 20
85.99780231313542
 10
-264.9391326476085
 20
85.78386231313542
 10
-264.1379546476085
 20
85.46333831313541
 10
-263.4436166476085
 20
84.92913231313541
 10
-262.8025776476085
 20
84.50202731313541
 10
-262.5888886476085
 20
84.07492231313542
 10
-262.3754646476085
 20
83.22019231313541
 10
-262.3754646476085
 20
82.57889231313541
 10
-262.5888886476085
 20
81.72416231313542
 10
-262.5888886476085
 20
81.08337231313541
 10
-263.0162526476086
 20
78.73261231313542
 10
-263.1230976476085
 20
77.66445831313541
 10
-263.4436166476085
 20
76.59631231313541
 10
-264.2983446476085
 20
71.89530231313542
 10
-264.7257086476085
 20
68.69033231313541
 10
-265.1530776476085
 20
67.67521331313542
 10
-266.0078006476085
 20
66.76693231313541
 10
-267.2363476476085
 20
66.28628631313541
 10
-268.7854096476085
 20
66.12615231313541
 10
-352.7596136476085
 20
66.12615231313541
 10
-359.5974336476085
 20
26.16889231313542
 10
-324.6068036476086
 20
26.16889231313542
 10
-324.6068036476086
 20
20.16874231313541
  0
LWPOLYLINE
  5
F9
100
AcDbEntity
  8
0
  6
ByLayer
 62
  256
370
   -1
100
AcDbPolyline
 90
   10
 70
    0
 43
0
 10
-26.374037
 20
-197.04568
 10
-226.37402
 20
-197.04568
 10
-226.37402
 20
-97.04568
 10
-426.37402
 20
-97.04568
 10
-426.37402
 20
-197.04568
 10
-426.37402
 20
-297.04568
 10
-226.374017
 20
-297.04568
 10
-226.374037
 20
-397.04568
 10
-426.3740339999999
 20
-397.04568
 10
-426.37402
 20
-297.04568
  0
LWPOLYLINE
  5
FA
100
AcDbEntity
  8
0
  6
ByLayer
 62
  256
370
   -1
100
AcDbPolyline
 90
    4
 70
    0
 43
0
 10
-226.374054
 20
-397.04568
 10
-26.37405700000002
 20
-397.04568
 10
-26.374023
 20
-97.04568
 10
-226.37402
 20
-97.04568
  0
LWPOLYLINE
  5
FB
100
AcDbEntity
  8
0
  6
ByLayer
 62
  256
370
   -1
100
AcDbPolyline
 90
    4
 70
    0
 43
0
 10
-26.374037
 20
-297.04568
 10
-226.37404
 20
-297.04568
 10
-226.37402
 20
-197.04568
 10
-426.37402
 20
-197.04568
  0
ENDSEC
  0
SECTION
  2
OBJECTS
  0
DICTIONARY
  5
C
330
0
100
AcDbDictionary
281
    1
  3
ACAD_GROUP
350
D
  0
DICTIONARY
  5
D
330
C
100
AcDbDictionary
281
    1
  0
PLOTSETTINGS
  5
FC
100
AcDbPlotSettings
  6
1x1
 40
0
 41
0
 42
0
 43
0
  0
ENDSEC
  0
EOF
