999
dxfrw 0.6.3
  0
SECTION
  2
HEADER
  9
$ACADVER
  1
AC1021
  9
$DWGCODEPAGE
  3
ANSI_1252
  9
$INSBASE
 10
0
 20
0
 30
0
  9
$EXTMIN
 10
-1.387778780781446e-16
 20
0
 30
0
  9
$EXTMAX
 10
259.587721
 20
199.793442
 30
0
  9
$LIMMIN
 10
0
 20
0
  9
$LIMMAX
 10
420
 20
297
  9
$ORTHOMODE
 70
    0
  9
$REGENMODE
 70
    1
  9
$FILLMODE
 70
    1
  9
$QTEXTMODE
 70
    0
  9
$MIRRTEXT
 70
    0
  9
$LTSCALE
 40
1
  9
$ATTMODE
 70
    0
  9
$TEXTSIZE
 40
2.5
  9
$TRACEWID
 40
15.68
  9
$TEXTSTYLE
  7
STANDARD
  9
$CLAYER
  8
0
  9
$CELTYPE
  6
BYLAYER
  9
$CECOLOR
 62
  256
  9
$CELTSCALE
 40
1
  9
$DISPSILH
 70
    0
  9
$DIMSCALE
 40
1
  9
$DIMASZ
 40
2.5
  9
$DIMEXO
 40
0.625
  9
$DIMDLI
 40
3.75
  9
$DIMRND
 40
0
  9
$DIMDLE
 40
0
  9
$DIMEXE
 40
1.25
  9
$DIMTP
 40
0
  9
$DIMTM
 40
0
  9
$DIMTXT
 40
2.5
  9
$DIMCEN
 40
2.5
  9
$DIMTSZ
 40
0
  9
$DIMTOL
 70
    0
  9
$DIMLIM
 70
    0
  9
$DIMTIH
 70
    0
  9
$DIMTOH
 70
    0
  9
$DIMSE1
 70
    0
  9
$DIMSE2
 70
    0
  9
$DIMTAD
 70
    1
  9
$DIMZIN
 70
    8
  9
$DIMBLK
  1

  9
$DIMASO
 70
    1
  9
$DIMSHO
 70
    1
  9
$DIMPOST
  1

  9
$DIMAPOST
  1

  9
$DIMALT
 70
    0
  9
$DIMALTD
 70
    3
  9
$DIMALTF
 40
0.03937
  9
$DIMLFAC
 40
1
  9
$DIMTOFL
 70
    1
  9
$DIMTVP
 40
0
  9
$DIMTIX
 70
    0
  9
$DIMSOXD
 70
    0
  9
$DIMSAH
 70
    0
  9
$DIMBLK1
  1

  9
$DIMBLK2
  1

  9
$DIMSTYLE
  2
Standard
  9
$DIMCLRD
 70
    0
  9
$DIMCLRE
 70
    0
  9
$DIMCLRT
 70
    0
  9
$DIMTFAC
 40
1
  9
$DIMGAP
 40
0.625
  9
$DIMJUST
 70
    0
  9
$DIMSD1
 70
    0
  9
$DIMSD2
 70
    0
  9
$DIMTOLJ
 70
    0
  9
$DIMTZIN
 70
    8
  9
$DIMALTZ
 70
    0
  9
$DIMALTTZ
 70
    0
  9
$DIMUPT
 70
    0
  9
$DIMDEC
 70
    2
  9
$DIMTDEC
 70
    2
  9
$DIMALTU
 70
    2
  9
$DIMALTTD
 70
    3
  9
$DIMTXSTY
  7
STANDARD
  9
$DIMAUNIT
 70
    0
  9
$DIMADEC
 70
    0
  9
$DIMALTRND
 40
0
  9
$DIMAZIN
 70
    0
  9
$DIMDSEP
 70
   44
  9
$DIMATFIT
 70
    3
  9
$DIMFRAC
 70
    0
  9
$DIMLDRBLK
  1
STANDARD
  9
$DIMLUNIT
 70
    2
  9
$DIMLWD
 70
   -2
  9
$DIMLWE
 70
   -2
  9
$DIMTMOVE
 70
    0
  9
$DIMFXL
 40
1
  9
$DIMFXLON
 70
    0
  9
$DIMJOGANG
 40
0.7854
  9
$DIMTFILL
 70
    0
  9
$DIMTFILLCLR
 70
    0
  9
$DIMARCSYM
 70
    0
  9
$DIMLTYPE
  6

  9
$DIMLTEX1
  6

  9
$DIMLTEX2
  6

  9
$LUNITS
 70
    2
  9
$LUPREC
 70
    4
  9
$SKETCHINC
 40
1
  9
$FILLETRAD
 40
0
  9
$AUNITS
 70
    0
  9
$AUPREC
 70
    2
  9
$MENU
  1
.
  9
$ELEVATION
 40
0
  9
$PELEVATION
 40
0
  9
$THICKNESS
 40
0
  9
$LIMCHECK
 70
    0
  9
$CHAMFERA
 40
0
  9
$CHAMFERB
 40
0
  9
$CHAMFERC
 40
0
  9
$CHAMFERD
 40
0
  9
$SKPOLY
 70
    0
  9
$USRTIMER
 70
    1
  9
$ANGBASE
 50
0
  9
$ANGDIR
 70
    0
  9
$PDMODE
 70
   34
  9
$PDSIZE
 40
0
  9
$PLINEWID
 40
0
  9
$SPLFRAME
 70
    0
  9
$SPLINETYPE
 70
    2
  9
$SPLINESEGS
 70
    8
  9
$HANDSEED
  5
20000
  9
$SURFTAB1
 70
    6
  9
$SURFTAB2
 70
    6
  9
$SURFTYPE
 70
    6
  9
$SURFU
 70
    6
  9
$SURFV
 70
    6
  9
$UCSBASE
  2

  9
$UCSNAME
  2

  9
$UCSORG
 10
0
 20
0
 30
0
  9
$UCSXDIR
 10
1
 20
0
 30
0
  9
$UCSYDIR
 10
0
 20
1
 30
0
  9
$UCSORTHOREF
  2

  9
$UCSORTHOVIEW
 70
    0
  9
$UCSORGTOP
 10
0
 20
0
 30
0
  9
$UCSORGBOTTOM
 10
0
 20
0
 30
0
  9
$UCSORGLEFT
 10
0
 20
0
 30
0
  9
$UCSORGRIGHT
 10
0
 20
0
 30
0
  9
$UCSORGFRONT
 10
0
 20
0
 30
0
  9
$UCSORGBACK
 10
0
 20
0
 30
0
  9
$PUCSBASE
  2

  9
$PUCSNAME
  2

  9
$PUCSORG
 10
0
 20
0
 30
0
  9
$PUCSXDIR
 10
1
 20
0
 30
0
  9
$PUCSYDIR
 10
0
 20
1
 30
0
  9
$PUCSORTHOREF
  2

  9
$PUCSORTHOVIEW
 70
    0
  9
$PUCSORGTOP
 10
0
 20
0
 30
0
  9
$PUCSORGBOTTOM
 10
0
 20
0
 30
0
  9
$PUCSORGLEFT
 10
0
 20
0
 30
0
  9
$PUCSORGRIGHT
 10
0
 20
0
 30
0
  9
$PUCSORGFRONT
 10
0
 20
0
 30
0
  9
$PUCSORGBACK
 10
0
 20
0
 30
0
  9
$USERI1
 70
    0
  9
$USERI2
 70
    0
  9
$USERI3
 70
    0
  9
$USERI4
 70
    0
  9
$USERI5
 70
    0
  9
$USERR1
 40
0
  9
$USERR2
 40
0
  9
$USERR3
 40
0
  9
$USERR4
 40
0
  9
$USERR5
 40
0
  9
$WORLDVIEW
 70
    1
  9
$SHADEDGE
 70
    3
  9
$SHADEDIF
 70
   70
  9
$TILEMODE
 70
    1
  9
$MAXACTVP
 70
   64
  9
$PINSBASE
 10
0
 20
0
 30
0
  9
$PLIMCHECK
 70
    0
  9
$PEXTMIN
 10
0
 20
0
 30
0
  9
$PEXTMAX
 10
0
 20
0
 30
0
  9
$SNAPSTYLE
 70
    0
  9
$PLIMMIN
 10
0
 20
0
  9
$PLIMMAX
 10
210
 20
297
  9
$UNITMODE
 70
    0
  9
$VISRETAIN
 70
    1
  9
$PLINEGEN
 70
    0
  9
$PSLTSCALE
 70
    1
  9
$TREEDEPTH
 70
 3020
  9
$CMLSTYLE
  2
Standard
  9
$CMLJUST
 70
    0
  9
$CMLSCALE
 40
20
  9
$PROXYGRAPHICS
 70
    1
  9
$MEASUREMENT
 70
    1
  9
$CELWEIGHT
370
   -1
  9
$ENDCAPS
280
    0
  9
$JOINSTYLE
280
    0
  9
$LWDISPLAY
290
    0
  9
$INSUNITS
 70
    4
  9
$HYPERLINKBASE
  1

  9
$STYLESHEET
  1

  9
$XEDIT
290
    1
  9
$CEPSNTYPE
380
    0
  9
$PSTYLEMODE
290
    1
  9
$EXTNAMES
290
    1
  9
$PSVPSCALE
 40
1
  9
$OLESTARTUP
290
    0
  9
$SORTENTS
280
  127
  9
$INDEXCTL
280
    0
  9
$HIDETEXT
280
    1
  9
$XCLIPFRAME
290
    0
  9
$HALOGAP
280
    0
  9
$OBSCOLOR
 70
  257
  9
$OBSLTYPE
280
    0
  9
$INTERSECTIONDISPLAY
280
    0
  9
$INTERSECTIONCOLOR
 70
  257
  9
$DIMASSOC
280
    1
  9
$PROJECTNAME
  1

  9
$CAMERADISPLAY
290
    0
  9
$LENSLENGTH
 40
50
  9
$CAMERAHEIGHT
 40
0
  9
$STEPSPERSEC
 40
2
  9
$STEPSIZE
 40
50
  9
$3DDWFPREC
 40
2
  9
$PSOLWIDTH
 40
5
  9
$PSOLHEIGHT
 40
80
  9
$LOFTANG1
 40
1.570796326794897
  9
$LOFTANG2
 40
1.570796326794897
  9
$LOFTMAG1
 40
0
  9
$LOFTMAG2
 40
0
  9
$LOFTPARAM
 70
    7
  9
$LOFTNORMALS
280
    1
  9
$LATITUDE
 40
1
  9
$LONGITUDE
 40
1
  9
$NORTHDIRECTION
 40
0
  9
$TIMEZONE
 70
-8000
  9
$LIGHTGLYPHDISPLAY
280
    1
  9
$TILEMODELIGHTSYNCH
280
    1
  9
$SOLIDHIST
280
    1
  9
$SHOWHIST
280
    1
  9
$DWFFRAME
280
    2
  9
$DGNFRAME
280
    0
  9
$REALWORLDSCALE
290
    1
  9
$INTERFERECOLOR
 62
    1
  9
$CSHADOW
280
    0
  9
$SHADOWPLANELOCATION
 40
0
  0
ENDSEC
  0
SECTION
  2
CLASSES
  0
ENDSEC
  0
SECTION
  2
TABLES
  0
TABLE
  2
VPORT
  5
8
330
0
100
AcDbSymbolTable
 70
    1
  0
VPORT
  5
31
330
2
100
AcDbSymbolTableRecord
100
AcDbViewportTableRecord
  2
*ACTIVE
 70
    0
 10
0
 20
0
 11
1
 21
1
 12
168.3684016781148
 22
123.6585299590498
 13
0
 23
0
 14
10
 24
10
 15
10
 25
10
 16
0
 26
0
 36
1
 17
0
 27
0
 37
0
 40
264.935076283233
 41
1.894604767879548
 42
50
 43
0
 44
0
 50
0
 51
0
 71
    0
 72
  100
 73
    1
 74
    3
 75
    0
 76
    1
 77
    0
 78
    0
281
    0
 65
    1
110
0
120
0
130
0
111
1
121
0
131
0
112
0
122
1
132
0
 79
    0
146
0
348
10020
 60
    7
 61
    5
292
1
282
    1
141
0
142
0
 63
  250
421
3358443
  0
ENDTAB
  0
TABLE
  2
LTYPE
  5
5
330
0
100
AcDbSymbolTable
 70
    4
  0
LTYPE
  5
14
330
5
100
AcDbSymbolTableRecord
100
AcDbLinetypeTableRecord
  2
ByBlock
 70
    0
  3

 72
   65
 73
    0
 40
0
  0
LTYPE
  5
15
330
5
100
AcDbSymbolTableRecord
100
AcDbLinetypeTableRecord
  2
ByLayer
 70
    0
  3

 72
   65
 73
    0
 40
0
  0
LTYPE
  5
16
330
5
100
AcDbSymbolTableRecord
100
AcDbLinetypeTableRecord
  2
Continuous
 70
    0
  3
Solid line
 72
   65
 73
    0
 40
0
  0
LTYPE
  5
32
330
5
100
AcDbSymbolTableRecord
100
AcDbLinetypeTableRecord
  2
DOT
 70
    0
  3
Dot . . . . . . . . . . . . . . . . . . . . . .
 72
   65
 73
    2
 40
6.35
 49
0
 74
    0
 49
-6.35
 74
    0
  0
LTYPE
  5
33
330
5
100
AcDbSymbolTableRecord
100
AcDbLinetypeTableRecord
  2
DOTTINY
 70
    0
  3
Dot (.15x) .....................................
 72
   65
 73
    2
 40
0.9525
 49
0
 74
    0
 49
-0.9525
 74
    0
  0
LTYPE
  5
34
330
5
100
AcDbSymbolTableRecord
100
AcDbLinetypeTableRecord
  2
DOT2
 70
    0
  3
Dot (.5x) .....................................
 72
   65
 73
    2
 40
3.175
 49
0
 74
    0
 49
-3.175
 74
    0
  0
LTYPE
  5
35
330
5
100
AcDbSymbolTableRecord
100
AcDbLinetypeTableRecord
  2
DOTX2
 70
    0
  3
Dot (2x) .  .  .  .  .  .  .  .  .  .  .  .  .
 72
   65
 73
    2
 40
12.7
 49
0
 74
    0
 49
-12.7
 74
    0
  0
LTYPE
  5
36
330
5
100
AcDbSymbolTableRecord
100
AcDbLinetypeTableRecord
  2
DASHED
 70
    0
  3
Dashed _ _ _ _ _ _ _ _ _ _ _ _ _ _ _ _ _
 72
   65
 73
    2
 40
19.05
 49
12.7
 74
    0
 49
-6.35
 74
    0
  0
LTYPE
  5
37
330
5
100
AcDbSymbolTableRecord
100
AcDbLinetypeTableRecord
  2
DASHEDTINY
 70
    0
  3
Dashed (.15x) _ _ _ _ _ _ _ _ _ _ _ _ _ _ _ _ _
 72
   65
 73
    2
 40
2.8575
 49
1.905
 74
    0
 49
-0.9525
 74
    0
  0
LTYPE
  5
38
330
5
100
AcDbSymbolTableRecord
100
AcDbLinetypeTableRecord
  2
DASHED2
 70
    0
  3
Dashed (.5x) _ _ _ _ _ _ _ _ _ _ _ _ _ _ _ _ _
 72
   65
 73
    2
 40
9.524999999999999
 49
6.35
 74
    0
 49
-3.175
 74
    0
  0
LTYPE
  5
39
330
5
100
AcDbSymbolTableRecord
100
AcDbLinetypeTableRecord
  2
DASHEDX2
 70
    0
  3
Dashed (2x) ____  ____  ____  ____  ____  ___
 72
   65
 73
    2
 40
38.09999999999999
 49
25.4
 74
    0
 49
-12.7
 74
    0
  0
LTYPE
  5
3A
330
5
100
AcDbSymbolTableRecord
100
AcDbLinetypeTableRecord
  2
DASHDOT
 70
    0
  3
Dash dot __ . __ . __ . __ . __ . __ . __ . __
 72
   65
 73
    4
 40
25.4
 49
12.7
 74
    0
 49
-6.35
 74
    0
 49
0
 74
    0
 49
-6.35
 74
    0
  0
LTYPE
  5
3B
330
5
100
AcDbSymbolTableRecord
100
AcDbLinetypeTableRecord
  2
DASHDOTTINY
 70
    0
  3
Dash dot (.15x) _._._._._._._._._._._._._._._.
 72
   65
 73
    4
 40
3.81
 49
1.905
 74
    0
 49
-0.9525
 74
    0
 49
0
 74
    0
 49
-0.9525
 74
    0
  0
LTYPE
  5
3C
330
5
100
AcDbSymbolTableRecord
100
AcDbLinetypeTableRecord
  2
DASHDOT2
 70
    0
  3
Dash dot (.5x) _._._._._._._._._._._._._._._.
 72
   65
 73
    4
 40
12.7
 49
6.35
 74
    0
 49
-3.175
 74
    0
 49
0
 74
    0
 49
-3.175
 74
    0
  0
LTYPE
  5
3D
330
5
100
AcDbSymbolTableRecord
100
AcDbLinetypeTableRecord
  2
DASHDOTX2
 70
    0
  3
Dash dot (2x) ____  .  ____  .  ____  .  ___
 72
   65
 73
    4
 40
50.8
 49
25.4
 74
    0
 49
-12.7
 74
    0
 49
0
 74
    0
 49
-12.7
 74
    0
  0
LTYPE
  5
3E
330
5
100
AcDbSymbolTableRecord
100
AcDbLinetypeTableRecord
  2
DIVIDE
 70
    0
  3
Divide ____ . . ____ . . ____ . . ____ . . ____
 72
   65
 73
    6
 40
31.75
 49
12.7
 74
    0
 49
-6.35
 74
    0
 49
0
 74
    0
 49
-6.35
 74
    0
 49
0
 74
    0
 49
-6.35
 74
    0
  0
LTYPE
  5
3F
330
5
100
AcDbSymbolTableRecord
100
AcDbLinetypeTableRecord
  2
DIVIDETINY
 70
    0
  3
Divide (.15x) __..__..__..__..__..__..__..__.._
 72
   65
 73
    6
 40
4.7625
 49
1.905
 74
    0
 49
-0.9525
 74
    0
 49
0
 74
    0
 49
-0.9525
 74
    0
 49
0
 74
    0
 49
-0.9525
 74
    0
  0
LTYPE
  5
40
330
5
100
AcDbSymbolTableRecord
100
AcDbLinetypeTableRecord
  2
DIVIDE2
 70
    0
  3
Divide (.5x) __..__..__..__..__..__..__..__.._
 72
   65
 73
    6
 40
15.875
 49
6.35
 74
    0
 49
-3.175
 74
    0
 49
0
 74
    0
 49
-3.175
 74
    0
 49
0
 74
    0
 49
-3.175
 74
    0
  0
LTYPE
  5
41
330
5
100
AcDbSymbolTableRecord
100
AcDbLinetypeTableRecord
  2
DIVIDEX2
 70
    0
  3
Divide (2x) ________  .  .  ________  .  .  _
 72
   65
 73
    6
 40
63.5
 49
25.4
 74
    0
 49
-12.7
 74
    0
 49
0
 74
    0
 49
-12.7
 74
    0
 49
0
 74
    0
 49
-12.7
 74
    0
  0
LTYPE
  5
42
330
5
100
AcDbSymbolTableRecord
100
AcDbLinetypeTableRecord
  2
BORDER
 70
    0
  3
Border __ __ . __ __ . __ __ . __ __ . __ __ .
 72
   65
 73
    6
 40
44.45
 49
12.7
 74
    0
 49
-6.35
 74
    0
 49
12.7
 74
    0
 49
-6.35
 74
    0
 49
0
 74
    0
 49
-6.35
 74
    0
  0
LTYPE
  5
43
330
5
100
AcDbSymbolTableRecord
100
AcDbLinetypeTableRecord
  2
BORDERTINY
 70
    0
  3
Border (.15x) __.__.__.__.__.__.__.__.__.__.__.
 72
   65
 73
    6
 40
6.6675
 49
1.905
 74
    0
 49
-0.9525
 74
    0
 49
1.905
 74
    0
 49
-0.9525
 74
    0
 49
0
 74
    0
 49
-0.9525
 74
    0
  0
LTYPE
  5
44
330
5
100
AcDbSymbolTableRecord
100
AcDbLinetypeTableRecord
  2
BORDER2
 70
    0
  3
Border (.5x) __.__.__.__.__.__.__.__.__.__.__.
 72
   65
 73
    6
 40
22.225
 49
6.35
 74
    0
 49
-3.175
 74
    0
 49
6.35
 74
    0
 49
-3.175
 74
    0
 49
0
 74
    0
 49
-3.175
 74
    0
  0
LTYPE
  5
45
330
5
100
AcDbSymbolTableRecord
100
AcDbLinetypeTableRecord
  2
BORDERX2
 70
    0
  3
Border (2x) ____  ____  .  ____  ____  .  ___
 72
   65
 73
    6
 40
88.89999999999999
 49
25.4
 74
    0
 49
-12.7
 74
    0
 49
25.4
 74
    0
 49
-12.7
 74
    0
 49
0
 74
    0
 49
-12.7
 74
    0
  0
LTYPE
  5
46
330
5
100
AcDbSymbolTableRecord
100
AcDbLinetypeTableRecord
  2
CENTER
 70
    0
  3
Center ____ _ ____ _ ____ _ ____ _ ____ _ ____
 72
   65
 73
    4
 40
50.8
 49
31.75
 74
    0
 49
-6.35
 74
    0
 49
6.35
 74
    0
 49
-6.35
 74
    0
  0
LTYPE
  5
47
330
5
100
AcDbSymbolTableRecord
100
AcDbLinetypeTableRecord
  2
CENTERTINY
 70
    0
  3
Center (.15x) ___ _ ___ _ ___ _ ___ _ ___ _ ___
 72
   65
 73
    4
 40
7.619999999999999
 49
4.7625
 74
    0
 49
-0.9525
 74
    0
 49
0.9525
 74
    0
 49
-0.9525
 74
    0
  0
LTYPE
  5
48
330
5
100
AcDbSymbolTableRecord
100
AcDbLinetypeTableRecord
  2
CENTER2
 70
    0
  3
Center (.5x) ___ _ ___ _ ___ _ ___ _ ___ _ ___
 72
   65
 73
    4
 40
28.575
 49
19.05
 74
    0
 49
-3.175
 74
    0
 49
3.175
 74
    0
 49
-3.175
 74
    0
  0
LTYPE
  5
49
330
5
100
AcDbSymbolTableRecord
100
AcDbLinetypeTableRecord
  2
CENTERX2
 70
    0
  3
Center (2x) ________  __  ________  __  _____
 72
   65
 73
    4
 40
101.6
 49
63.5
 74
    0
 49
-12.7
 74
    0
 49
12.7
 74
    0
 49
-12.7
 74
    0
  0
ENDTAB
  0
TABLE
  2
LAYER
  5
2
330
0
100
AcDbSymbolTable
 70
    1
  0
LAYER
  5
10
330
2
100
AcDbSymbolTableRecord
100
AcDbLayerTableRecord
  2
0
 70
    0
 62
    7
  6
CONTINUOUS
370
    0
390
F
  0
LAYER
  5
4A
330
2
100
AcDbSymbolTableRecord
100
AcDbLayerTableRecord
  2
Layer 1
 70
    0
 62
    7
  6
CONTINUOUS
370
   -3
390
F
  0
ENDTAB
  0
TABLE
  2
STYLE
  5
3
330
0
100
AcDbSymbolTable
 70
    3
  0
STYLE
  5
4B
330
2
100
AcDbSymbolTableRecord
100
AcDbTextStyleTableRecord
  2
Standard
 70
    0
 40
0
 41
1
 50
0
 71
    0
 42
1
  3
txt
  4

  0
ENDTAB
  0
TABLE
  2
VIEW
  5
6
330
0
100
AcDbSymbolTable
 70
    0
  0
ENDTAB
  0
TABLE
  2
UCS
  5
7
330
0
100
AcDbSymbolTable
 70
    0
  0
ENDTAB
  0
TABLE
  2
APPID
  5
9
330
0
100
AcDbSymbolTable
 70
    1
  0
APPID
  5
12
330
9
100
AcDbSymbolTableRecord
100
AcDbRegAppTableRecord
  2
ACAD
 70
    0
  0
APPID
  5
4C
330
9
100
AcDbSymbolTableRecord
100
AcDbRegAppTableRecord
  2
LibreCad
 70
    0
  0
ENDTAB
  0
TABLE
  2
DIMSTYLE
  5
A
330
0
100
AcDbSymbolTable
 70
    1
100
AcDbDimStyleTable
 71
    1
  0
DIMSTYLE
105
4D
330
A
100
AcDbSymbolTableRecord
100
AcDbDimStyleTableRecord
  2
Standard
 70
    0
 40
1
 41
2.5
 42
0.625
 43
0.38
 44
1.25
 45
0
 46
0
 47
0
 48
0
 49
1
140
2.5
141
0.09
142
0
143
25.4
144
1
145
0
146
1
147
0.625
148
0
 71
    0
 72
    0
 73
    0
 74
    1
 75
    0
 76
    0
 77
    0
 78
    1
 79
    0
170
    0
171
    2
172
    0
173
    0
174
    0
175
    0
176
    0
177
    0
178
    0
179
    0
271
    2
272
    4
273
    2
274
    2
275
    0
276
    0
277
    2
278
    0
279
    0
280
    0
281
    0
282
    0
283
    1
284
    0
285
    0
286
    0
288
    0
289
    3
340
standard
341

371
   -2
372
   -2
  0
ENDTAB
  0
TABLE
  2
BLOCK_RECORD
  5
1
330
0
100
AcDbSymbolTable
 70
    2
  0
BLOCK_RECORD
  5
1F
330
1
100
AcDbSymbolTableRecord
100
AcDbBlockTableRecord
  2
*Model_Space
 70
    0
280
    1
281
    0
  0
BLOCK_RECORD
  5
1E
330
1
100
AcDbSymbolTableRecord
100
AcDbBlockTableRecord
  2
*Paper_Space
 70
    0
280
    1
281
    0
  0
ENDTAB
  0
ENDSEC
  0
SECTION
  2
BLOCKS
  0
BLOCK
  5
20
330
1F
100
AcDbEntity
  8
0
100
AcDbBlockBegin
  2
*Model_Space
 70
    0
 10
0
 20
0
 30
0
  3
*Model_Space
  1

  0
ENDBLK
  5
21
330
1F
100
AcDbEntity
  8
0
100
AcDbBlockEnd
  0
BLOCK
  5
1C
330
1B
100
AcDbEntity
  8
0
100
AcDbBlockBegin
  2
*Paper_Space
 70
    0
 10
0
 20
0
 30
0
  3
*Paper_Space
  1

  0
ENDBLK
  5
1D
330
1F
100
AcDbEntity
  8
0
100
AcDbBlockEnd
  0
ENDSEC
  0
SECTION
  2
ENTITIES
  0
LWPOLYLINE
  5
4E
100
AcDbEntity
  8
Layer 1
  6
ByLayer
 62
    7
370
   -1
100
AcDbPolyline
 90
   41
 70
    0
 43
0
 10
53.642815
 20
74.252478
 10
53.642815
 20
74.555599
 10
53.133959
 20
74.33408300000001
 10
52.860738
 20
74.47982
 10
52.787012
 20
75.010294
 10
52.787012
 20
77.283734
 10
52.73786
 20
78.000741
 10
52.567279
 20
78.472919
 10
52.017947
 20
78.97715700000001
 10
51.121668
 20
79.14912200000001
 10
50.28755
 20
79.033993
 10
49.652927
 20
78.717752
 10
49.307426
 20
78.298039
 10
49.178766
 20
77.843351
 10
49.323327
 20
77.49213400000001
 10
49.676056
 20
77.34203000000001
 10
50.04035
 20
77.49067700000001
 10
50.196476
 20
77.831689
 10
50.173347
 20
78.018233
 10
50.138649
 20
78.29803700000001
 10
50.381512
 20
78.70172100000001
 10
50.971321
 20
78.869317
 10
51.347722
 20
78.806652
 10
51.623292
 20
78.62157000000001
 10
51.850253
 20
77.90164800000001
 10
51.850253
 20
77.190466
 10
50.131421
 20
76.455968
 10
49.375366
 20
75.93132900000001
 10
49.071788
 20
75.48101
 10
48.95903
 20
74.917018
 10
49.047935
 20
74.41223600000001
 10
49.297303
 20
74.01784600000001
 10
49.681113
 20
73.761173
 10
50.173344
 20
73.669543
 10
50.943855
 20
73.867741
 10
51.861818
 20
74.520628
 10
52.075769
 20
73.86336800000001
 10
52.601971
 20
73.669543
 10
53.118054
 20
73.794873
 10
53.642811
 20
74.252478
 10
53.642815
 20
74.252478
  0
LWPOLYLINE
  5
4F
100
AcDbEntity
  8
Layer 1
  6
ByLayer
 62
    7
370
   -1
100
AcDbPolyline
 90
   11
 70
    0
 43
0
 10
51.850256
 20
75.220147
 10
51.790985
 20
74.83249500000001
 10
51.549569
 20
74.602233
 10
50.705332
 20
74.34574600000001
 10
50.189248
 20
74.60661
 10
49.976743
 20
75.243464
 10
49.976743
 20
75.29006700000001
 10
50.072696
 20
75.76133300000001
 10
50.388743
 20
76.165925
 10
51.850256
 20
76.910622
 10
51.850256
 20
75.220147
  0
LWPOLYLINE
  5
50
100
AcDbEntity
  8
Layer 1
  6
ByLayer
 62
    7
370
   -1
100
AcDbPolyline
 90
   29
 70
    0
 43
0
 10
57.236614
 20
79.48781
 10
57.138891
 20
79.525719
 10
56.804376
 20
79.11365500000001
 10
56.424757
 20
79.025558
 10
54.628148
 20
79.025558
 10
55.891037
 20
80.359314
 10
56.623024
 20
81.33784199999999
 10
56.853238
 20
82.231116
 10
56.745883
 20
82.76040400000001
 10
56.451068
 20
83.18596600000001
 10
56.009667
 20
83.469438
 10
55.462556
 20
83.57245400000001
 10
54.870577
 20
83.45120300000001
 10
54.380081
 20
83.102604
 10
54.097246
 20
82.68865100000001
 10
53.89898
 20
82.064404
 10
54.056841
 20
82.026495
 10
54.520088
 20
82.797572
 10
55.146834
 20
83.01165400000001
 10
55.578838
 20
82.93421500000001
 10
55.913588
 20
82.716105
 10
56.129943
 20
82.378641
 10
56.206759
 20
81.943135
 10
55.954933
 20
80.989234
 10
55.229524
 20
79.972808
 10
53.891463
 20
78.540536
 10
53.891463
 20
78.449602
 10
56.823168
 20
78.449602
 10
57.236614
 20
79.48781
  0
LWPOLYLINE
  5
51
100
AcDbEntity
  8
Layer 1
  6
ByLayer
 62
    7
370
   -1
100
AcDbPolyline
 90
   25
 70
    0
 43
0
 10
106.368505
 20
23.640879
 10
106.213101
 20
24.641158
 10
105.784476
 20
25.443604
 10
105.139009
 20
25.977172
 10
104.33308
 20
26.170815
 10
103.351509
 20
25.889552
 10
102.975109
 20
25.575679
 10
102.725562
 20
25.179829
 10
102.725562
 20
28.747385
 10
102.667758
 20
28.770725
 10
101.326233
 20
28.351018
 10
100.990852
 20
28.257742
 10
100.990852
 20
28.071206
 10
101.187456
 20
28.082876
 10
101.644268
 20
27.969203
 10
101.754132
 20
27.48828
 10
101.754132
 20
21.437422
 10
101.922184
 20
21.168362
 10
102.361288
 20
20.928813
 10
103.662341
 20
20.691268
 10
104.729204
 20
20.917701
 10
105.587898
 20
21.540894
 10
106.16036
 20
22.476684
 10
106.368528
 20
23.640911
 10
106.368505
 20
23.640879
  0
LWPOLYLINE
  5
52
100
AcDbEntity
  8
Layer 1
  6
ByLayer
 62
    7
370
   -1
100
AcDbPolyline
 90
   16
 70
    0
 43
0
 10
105.350792
 20
23.104587
 10
105.249238
 20
22.23984
 10
104.954694
 20
21.599159
 10
104.48234
 20
21.201125
 10
103.847353
 20
21.064317
 10
103.060942
 20
21.234826
 10
102.725562
 20
21.623935
 10
102.725562
 20
24.561923
 10
102.819888
 20
24.890369
 10
103.072507
 20
25.169631
 10
103.870483
 20
25.436324
 10
104.48234
 20
25.272009
 10
104.948912
 20
24.803839
 10
105.246347
 20
24.068977
 10
105.350792
 20
23.104587
 10
105.350792
 20
23.104587
  0
LWPOLYLINE
  5
53
100
AcDbEntity
  8
Layer 1
  6
ByLayer
 62
    7
370
   -1
100
AcDbPolyline
 90
   29
 70
    0
 43
0
 10
110.309248
 20
26.509504
 10
110.211525
 20
26.547413
 10
109.87701
 20
26.135348
 10
109.497394
 20
26.047251
 10
107.700776
 20
26.047251
 10
108.963668
 20
27.381007
 10
109.695654
 20
28.359536
 10
109.925868
 20
29.252818
 10
109.818513
 20
29.782104
 10
109.5237
 20
30.207663
 10
109.082299
 20
30.491132
 10
108.535186
 20
30.594147
 10
107.943212
 20
30.472897
 10
107.452715
 20
30.124305
 10
107.169877
 20
29.710345
 10
106.971611
 20
29.086097
 10
107.12947
 20
29.048188
 10
107.592719
 20
29.819265
 10
108.219469
 20
30.033348
 10
108.651471
 20
29.955908
 10
108.986221
 20
29.737799
 10
109.202576
 20
29.400334
 10
109.279392
 20
28.964828
 10
109.027566
 20
28.010929
 10
108.302158
 20
26.994509
 10
106.964098
 20
25.562238
 10
106.964098
 20
25.471296
 10
109.8958
 20
25.471296
 10
110.309248
 20
26.509504
  0
LWPOLYLINE
  5
54
100
AcDbEntity
  8
Layer 1
  6
ByLayer
 62
    7
370
   -1
100
AcDbPolyline
 90
   41
 70
    0
 43
0
 10
55.439633
 20
127.692404
 10
55.439633
 20
127.995534
 10
54.930778
 20
127.774018
 10
54.657558
 20
127.91975
 10
54.583832
 20
128.45022
 10
54.583832
 20
130.723669
 10
54.534679
 20
131.440677
 10
54.3641
 20
131.912855
 10
53.814768
 20
132.417091
 10
52.918489
 20
132.589058
 10
52.084372
 20
132.473929
 10
51.449748
 20
132.157688
 10
51.104247
 20
131.737975
 10
50.975588
 20
131.283287
 10
51.120149
 20
130.932067
 10
51.472878
 20
130.781959
 10
51.837172
 20
130.930609
 10
51.993298
 20
131.271625
 10
51.970168
 20
131.458161
 10
51.935478
 20
131.737974
 10
52.178341
 20
132.141654
 10
52.76815
 20
132.309245
 10
53.144551
 20
132.24658
 10
53.42012
 20
132.061499
 10
53.647081
 20
131.341576
 10
53.647081
 20
130.630394
 10
51.92825
 20
129.895898
 10
51.172196
 20
129.371256
 10
50.868618
 20
128.920941
 10
50.75586
 20
128.356952
 10
50.844765
 20
127.852166
 10
51.094133
 20
127.457773
 10
51.477942
 20
127.201099
 10
51.970172
 20
127.109469
 10
52.740683
 20
127.307667
 10
53.658646
 20
127.960554
 10
53.872599
 20
127.303297
 10
54.398798
 20
127.109469
 10
54.914882
 20
127.234802
 10
55.439638
 20
127.692404
 10
55.439633
 20
127.692404
  0
LWPOLYLINE
  5
55
100
AcDbEntity
  8
Layer 1
  6
ByLayer
 62
    7
370
   -1
100
AcDbPolyline
 90
   11
 70
    0
 43
0
 10
53.647076
 20
128.660082
 10
53.587804
 20
128.272427
 10
53.346389
 20
128.042168
 10
52.502152
 20
127.78568
 10
51.98607
 20
128.046541
 10
51.773565
 20
128.6834
 10
51.773565
 20
128.73
 10
51.869517
 20
129.201263
 10
52.185564
 20
129.605856
 10
53.647076
 20
130.350556
 10
53.647076
 20
128.660082
  0
LWPOLYLINE
  5
56
100
AcDbEntity
  8
Layer 1
  6
ByLayer
 62
    7
370
   -1
100
AcDbPolyline
 90
   41
 70
    0
 43
0
 10
105.274061
 20
74.25261
 10
105.274061
 20
74.55573
 10
104.765211
 20
74.33422
 10
104.491986
 20
74.479958
 10
104.418261
 20
75.01043
 10
104.418261
 20
77.28387000000001
 10
104.36912
 20
78.00087600000001
 10
104.198531
 20
78.47306
 10
103.649197
 20
78.97729100000001
 10
102.752921
 20
79.14924999999999
 10
101.918801
 20
79.034126
 10
101.284181
 20
78.71789
 10
100.938677
 20
78.29818
 10
100.810021
 20
77.84349
 10
100.954581
 20
77.49226900000001
 10
101.307311
 20
77.34216000000001
 10
101.671597
 20
77.490813
 10
101.827721
 20
77.83184
 10
101.804521
 20
78.01837
 10
101.769821
 20
78.29817
 10
102.012681
 20
78.701853
 10
102.602491
 20
78.86945
 10
102.978892
 20
78.806785
 10
103.254461
 20
78.62170400000001
 10
103.481421
 20
77.90178
 10
103.481421
 20
77.19061000000001
 10
101.762593
 20
76.456103
 10
101.006541
 20
75.93146
 10
100.702956
 20
75.481145
 10
100.590201
 20
74.91716
 10
100.679106
 20
74.412373
 10
100.928473
 20
74.017978
 10
101.312282
 20
73.761301
 10
101.804511
 20
73.66967
 10
102.575017
 20
73.867873
 10
103.492981
 20
74.52077
 10
103.706921
 20
73.8635
 10
104.233131
 20
73.66967
 10
104.749216
 20
73.79500400000001
 10
105.273971
 20
74.25261
 10
105.274061
 20
74.25261
  0
LWPOLYLINE
  5
57
100
AcDbEntity
  8
Layer 1
  6
ByLayer
 62
    7
370
   -1
100
AcDbPolyline
 90
   11
 70
    0
 43
0
 10
103.481511
 20
75.22028
 10
103.42225
 20
74.832629
 10
103.180821
 20
74.60238
 10
102.336571
 20
74.34588000000001
 10
101.820492
 20
74.606741
 10
101.607991
 20
75.2436
 10
101.607991
 20
75.2902
 10
101.703943
 20
75.76147
 10
102.019991
 20
76.16606400000001
 10
103.481511
 20
76.91076
 10
103.481511
 20
75.22028
  0
LWPOLYLINE
  5
58
100
AcDbEntity
  8
Layer 1
  6
ByLayer
 62
    7
370
   -1
100
AcDbPolyline
 90
   25
 70
    0
 43
0
 10
110.709561
 20
76.61933000000001
 10
110.554156
 20
77.619603
 10
110.12553
 20
78.422044
 10
109.480061
 20
78.955608
 10
108.674131
 20
79.14924999999999
 10
107.692565
 20
78.867991
 10
107.316162
 20
78.554124
 10
107.066611
 20
78.15828
 10
107.066611
 20
81.72583
 10
107.008811
 20
81.74923
 10
105.667271
 20
81.32952
 10
105.331891
 20
81.23622
 10
105.331891
 20
81.04968
 10
105.528491
 20
81.06138
 10
105.985306
 20
80.947706
 10
106.095171
 20
80.46678
 10
106.095171
 20
74.41593
 10
106.263224
 20
74.146868
 10
106.70233
 20
73.907318
 10
108.003381
 20
73.66977
 10
109.070239
 20
73.896204
 10
109.928931
 20
74.51939900000001
 10
110.501393
 20
75.455191
 10
110.709561
 20
76.61942000000001
 10
110.709561
 20
76.61933000000001
  0
LWPOLYLINE
  5
59
100
AcDbEntity
  8
Layer 1
  6
ByLayer
 62
    7
370
   -1
100
AcDbPolyline
 90
   16
 70
    0
 43
0
 10
109.691841
 20
76.08303000000001
 10
109.590288
 20
75.218281
 10
109.295747
 20
74.5776
 10
108.823399
 20
74.17956700000001
 10
108.188421
 20
74.04276
 10
107.401998
 20
74.21326500000001
 10
107.066611
 20
74.60238
 10
107.066611
 20
77.54036000000001
 10
107.160939
 20
77.868807
 10
107.413563
 20
78.14806900000001
 10
108.211551
 20
78.41476
 10
108.823399
 20
78.25044700000001
 10
109.289965
 20
77.78228
 10
109.587396
 20
77.047421
 10
109.691841
 20
76.08303000000001
 10
109.691841
 20
76.08303000000001
  0
LWPOLYLINE
  5
5A
100
AcDbEntity
  8
Layer 1
  6
ByLayer
 62
    7
370
   -1
100
AcDbPolyline
 90
   41
 70
    0
 43
0
 10
52.721884
 20
21.80752
 10
52.721884
 20
22.11065
 10
52.213029
 20
21.88913
 10
51.939809
 20
22.034868
 10
51.866082
 20
22.56534
 10
51.866082
 20
24.83878
 10
51.816929
 20
25.555786
 10
51.64635
 20
26.02797
 10
51.097018
 20
26.532202
 10
50.200739
 20
26.70417
 10
49.366622
 20
26.58904
 10
48.731998
 20
26.27279
 10
48.386497
 20
25.853084
 10
48.257838
 20
25.39839
 10
48.4024
 20
25.047174
 10
48.755128
 20
24.89707
 10
49.119422
 20
25.045716
 10
49.275548
 20
25.38673
 10
49.252418
 20
25.57328
 10
49.217728
 20
25.85309
 10
49.46059
 20
26.256767
 10
50.050399
 20
26.42436
 10
50.4268
 20
26.361695
 10
50.70237
 20
26.176614
 10
50.929331
 20
25.45669
 10
50.929331
 20
24.7455
 10
49.2105
 20
24.01101
 10
48.454445
 20
23.48637
 10
48.150867
 20
23.036055
 10
48.038109
 20
22.47207
 10
48.127014
 20
21.967283
 10
48.376382
 20
21.572888
 10
48.760192
 20
21.316211
 10
49.252422
 20
21.22458
 10
50.022933
 20
21.42278
 10
50.940895
 20
22.07566
 10
51.154848
 20
21.418408
 10
51.681048
 20
21.22458
 10
52.197131
 20
21.349914
 10
52.721888
 20
21.80752
 10
52.721884
 20
21.80752
  0
LWPOLYLINE
  5
5B
100
AcDbEntity
  8
Layer 1
  6
ByLayer
 62
    7
370
   -1
100
AcDbPolyline
 90
   11
 70
    0
 43
0
 10
50.929327
 20
22.77519
 10
50.870055
 20
22.387539
 10
50.62864
 20
22.15729
 10
49.784404
 20
21.90079
 10
49.26832
 20
22.161651
 10
49.055815
 20
22.79851
 10
49.055815
 20
22.84511
 10
49.151767
 20
23.31638
 10
49.467814
 20
23.720974
 10
50.929327
 20
24.46567
 10
50.929327
 20
22.77519
  0
LWPOLYLINE
  5
5C
100
AcDbEntity
  8
Layer 1
  6
ByLayer
 62
    7
370
   -1
100
AcDbPolyline
 90
   25
 70
    0
 43
0
 10
58.157383
 20
24.17424
 10
58.00198
 20
25.174515
 10
57.573356
 20
25.976959
 10
56.927891
 20
26.510526
 10
56.121963
 20
26.70417
 10
55.140394
 20
26.422904
 10
54.763993
 20
26.109027
 10
54.514444
 20
25.71317
 10
54.514444
 20
29.28073
 10
54.456614
 20
29.30413
 10
53.115087
 20
28.88442
 10
52.779705
 20
28.79112
 10
52.779705
 20
28.60457
 10
52.976308
 20
28.61627
 10
53.433121
 20
28.502597
 10
53.542987
 20
28.02168
 10
53.542987
 20
21.97082
 10
53.711039
 20
21.701758
 10
54.150144
 20
21.462207
 10
55.451193
 20
21.22466
 10
56.518054
 20
21.451094
 10
57.376747
 20
22.07429
 10
57.949209
 20
23.010086
 10
58.157377
 20
24.17432
 10
58.157383
 20
24.17424
  0
LWPOLYLINE
  5
5D
100
AcDbEntity
  8
Layer 1
  6
ByLayer
 62
    7
370
   -1
100
AcDbPolyline
 90
   16
 70
    0
 43
0
 10
57.139673
 20
23.63794
 10
57.038119
 20
22.773191
 10
56.743576
 20
22.13251
 10
56.271222
 20
21.734477
 10
55.636238
 20
21.59767
 10
54.849826
 20
21.768175
 10
54.514444
 20
22.15729
 10
54.514444
 20
25.09527
 10
54.60877
 20
25.423717
 10
54.861391
 20
25.702979
 10
55.659367
 20
25.96967
 10
56.271222
 20
25.805357
 10
56.737793
 20
25.33719
 10
57.035228
 20
24.602331
 10
57.139673
 20
23.63794
 10
57.139673
 20
23.63794
  0
LWPOLYLINE
  5
5E
100
AcDbEntity
  8
Layer 1
  6
ByLayer
 62
    7
370
   -1
100
AcDbPolyline
 90
   41
 70
    0
 43
0
 10
12.611958
 20
75.31908
 10
12.611958
 20
75.62221
 10
12.103102
 20
75.4007
 10
11.829882
 20
75.546432
 10
11.756156
 20
76.07689999999999
 10
11.756156
 20
78.35034
 10
11.707007
 20
79.06735
 10
11.536423
 20
79.53953
 10
10.987091
 20
80.04376600000001
 10
10.090812
 20
80.21573000000001
 10
9.256696
 20
80.10060199999999
 10
8.622073
 20
79.78437
 10
8.276570999999999
 20
79.36465099999999
 10
8.147912
 20
78.90996
 10
8.292472999999999
 20
78.558744
 10
8.645201999999999
 20
78.40864000000001
 10
9.009495999999999
 20
78.557286
 10
9.165621999999999
 20
78.89830000000001
 10
9.142491999999999
 20
79.08484
 10
9.107797
 20
79.36465
 10
9.350659
 20
79.768327
 10
9.940469
 20
79.93592
 10
10.31687
 20
79.873255
 10
10.592439
 20
79.688174
 10
10.8194
 20
78.96825
 10
10.8194
 20
78.25708
 10
9.100569
 20
77.522581
 10
8.344514999999999
 20
76.99794
 10
8.040936
 20
76.547619
 10
7.928179
 20
75.98362
 10
8.017083999999999
 20
75.47884000000001
 10
8.266451999999999
 20
75.084451
 10
8.650260999999999
 20
74.82778
 10
9.142491
 20
74.73614999999999
 10
9.913001999999999
 20
74.93435100000001
 10
10.830965
 20
75.58724000000001
 10
11.044918
 20
74.929979
 10
11.571118
 20
74.73614999999999
 10
12.087201
 20
74.861479
 10
12.611957
 20
75.31908
 10
12.611958
 20
75.31908
  0
LWPOLYLINE
  5
5F
100
AcDbEntity
  8
Layer 1
  6
ByLayer
 62
    7
370
   -1
100
AcDbPolyline
 90
   11
 70
    0
 43
0
 10
10.8194
 20
76.28675
 10
10.760128
 20
75.89910500000001
 10
10.518713
 20
75.66884
 10
9.674477
 20
75.41235
 10
9.158393999999999
 20
75.673215
 10
8.945889999999999
 20
76.31007
 10
8.945889999999999
 20
76.35677
 10
9.041841999999999
 20
76.828033
 10
9.357887999999999
 20
77.232623
 10
10.8194
 20
77.97732999999999
 10
10.8194
 20
76.28675
  0
LWPOLYLINE
  5
60
100
AcDbEntity
  8
Layer 1
  6
ByLayer
 62
    7
370
   -1
100
AcDbPolyline
 90
   25
 70
    0
 43
0
 10
12.004207
 20
25.24068
 10
11.848804
 20
26.24096
 10
11.42018
 20
27.043408
 10
10.774716
 20
27.576976
 10
9.968788
 20
27.77062
 10
8.987217999999999
 20
27.48935
 10
8.610816999999999
 20
27.175473
 10
8.361269
 20
26.77962
 10
8.361269
 20
30.34717
 10
8.303443999999999
 20
30.37057
 10
6.961917
 20
29.95086
 10
6.626535
 20
29.85756
 10
6.626535
 20
29.67102
 10
6.823137999999999
 20
29.68272
 10
7.279951
 20
29.569046
 10
7.389817
 20
29.08812
 10
7.389817
 20
23.03726
 10
7.557869999999999
 20
22.7682
 10
7.996974
 20
22.528652
 10
9.298022999999999
 20
22.29111
 10
10.364884
 20
22.517543
 10
11.223577
 20
23.140735
 10
11.796039
 20
24.076527
 10
12.004207
 20
25.24076
 10
12.004207
 20
25.24068
  0
LWPOLYLINE
  5
61
100
AcDbEntity
  8
Layer 1
  6
ByLayer
 62
    7
370
   -1
100
AcDbPolyline
 90
   16
 70
    0
 43
0
 10
10.986498
 20
24.70438
 10
10.884944
 20
23.839631
 10
10.5904
 20
23.19895
 10
10.118047
 20
22.800917
 10
9.483061999999999
 20
22.66411
 10
8.696650999999999
 20
22.834619
 10
8.361269
 20
23.22373
 10
8.361269
 20
26.16172
 10
8.455594999999999
 20
26.490162
 10
8.708214999999999
 20
26.76942
 10
9.506193
 20
27.03611
 10
10.118047
 20
26.871797
 10
10.584618
 20
26.40363
 10
10.882053
 20
25.668771
 10
10.986498
 20
24.70438
 10
10.986498
 20
24.70438
  0
LWPOLYLINE
  5
62
100
AcDbEntity
  8
Layer 1
  6
ByLayer
 62
    7
370
   -1
100
AcDbPolyline
 90
   25
 70
    0
 43
0
 10
109.350981
 20
130.80855
 10
109.195578
 20
131.808825
 10
108.766955
 20
132.611269
 10
108.12149
 20
133.144835
 10
107.315561
 20
133.338479
 10
106.333987
 20
133.057215
 10
105.957586
 20
132.743342
 10
105.708041
 20
132.347491
 10
105.708041
 20
135.915049
 10
105.650241
 20
135.938389
 10
104.308721
 20
135.518681
 10
103.973341
 20
135.425411
 10
103.973341
 20
135.238874
 10
104.169941
 20
135.250544
 10
104.626752
 20
135.13687
 10
104.736621
 20
134.655948
 10
104.736621
 20
128.605087
 10
104.904673
 20
128.336027
 10
105.343776
 20
128.096478
 10
106.644831
 20
127.858933
 10
107.711689
 20
128.085366
 10
108.570381
 20
128.70856
 10
109.142843
 20
129.644353
 10
109.351011
 20
130.808585
 10
109.350981
 20
130.80855
  0
LWPOLYLINE
  5
63
100
AcDbEntity
  8
Layer 1
  6
ByLayer
 62
    7
370
   -1
100
AcDbPolyline
 90
   16
 70
    0
 43
0
 10
108.333271
 20
130.27225
 10
108.231716
 20
129.407502
 10
107.937171
 20
128.76682
 10
107.464816
 20
128.368786
 10
106.829831
 20
128.231979
 10
106.043422
 20
128.402487
 10
105.708041
 20
128.791596
 10
105.708041
 20
131.729586
 10
105.802367
 20
132.058032
 10
106.054987
 20
132.337294
 10
106.852961
 20
132.603987
 10
107.464816
 20
132.439672
 10
107.931389
 20
131.971502
 10
108.228825
 20
131.23664
 10
108.333271
 20
130.27225
 10
108.333271
 20
130.27225
  0
LWPOLYLINE
  5
64
100
AcDbEntity
  8
Layer 1
  6
ByLayer
 62
    7
370
   -1
100
AcDbPolyline
 90
    5
 70
    0
 43
0
 10
50.098952
 20
125.215249
 10
56.096414
 20
125.215249
 10
56.096414
 20
117.153809
 10
50.098952
 20
117.153809
 10
50.098952
 20
125.215249
  0
LWPOLYLINE
  5
65
100
AcDbEntity
  8
Layer 1
  6
ByLayer
 62
    7
370
   -1
100
AcDbPolyline
 90
    6
 70
    0
 43
0
 10
54.692356
 20
121.100447
 10
54.862792
 20
120.930456
 10
54.692356
 20
120.760466
 10
54.523732
 20
120.930456
 10
54.692356
 20
121.100447
 10
54.692356
 20
121.100447
  0
LWPOLYLINE
  5
66
100
AcDbEntity
  8
Layer 1
  6
ByLayer
 62
    7
370
   -1
100
AcDbPolyline
 90
    6
 70
    0
 43
0
 10
54.692356
 20
118.393391
 10
54.862792
 20
118.221573
 10
54.692356
 20
118.051582
 10
54.523732
 20
118.221573
 10
54.692356
 20
118.393391
 10
54.692356
 20
118.393391
  0
LWPOLYLINE
  5
67
100
AcDbEntity
  8
Layer 1
  6
ByLayer
 62
    7
370
   -1
100
AcDbPolyline
 90
    6
 70
    0
 43
0
 10
52.007068
 20
118.393391
 10
52.177505
 20
118.221573
 10
52.007068
 20
118.051582
 10
51.836631
 20
118.221573
 10
52.007068
 20
118.393391
 10
52.007068
 20
118.393391
  0
LWPOLYLINE
  5
68
100
AcDbEntity
  8
Layer 1
  6
ByLayer
 62
    7
370
   -1
100
AcDbPolyline
 90
    6
 70
    0
 43
0
 10
54.692356
 20
123.809331
 10
54.862792
 20
123.63934
 10
54.692356
 20
123.467522
 10
54.523732
 20
123.63934
 10
54.692356
 20
123.809331
 10
54.692356
 20
123.809331
  0
LWPOLYLINE
  5
69
100
AcDbEntity
  8
Layer 1
  6
ByLayer
 62
    7
370
   -1
100
AcDbPolyline
 90
    6
 70
    0
 43
0
 10
52.007068
 20
121.100447
 10
52.177505
 20
120.930456
 10
52.007068
 20
120.760466
 10
51.836631
 20
120.930456
 10
52.007068
 20
121.100447
 10
52.007068
 20
121.100447
  0
LWPOLYLINE
  5
6A
100
AcDbEntity
  8
Layer 1
  6
ByLayer
 62
    7
370
   -1
100
AcDbPolyline
 90
   10
 70
    0
 43
0
 10
52.007068
 20
124.317475
 10
52.482115
 20
124.118239
 10
52.681563
 20
123.63934
 10
52.482115
 20
123.158614
 10
52.007068
 20
122.959378
 10
51.530207
 20
123.158614
 10
51.332572
 20
123.63934
 10
51.530207
 20
124.118239
 10
52.007068
 20
124.317475
 10
52.007068
 20
124.317475
  0
LWPOLYLINE
  5
6B
100
AcDbEntity
  8
Layer 1
  6
ByLayer
 62
    7
370
   -1
100
AcDbPolyline
 90
    5
 70
    0
 43
0
 10
7.170936999999999
 20
73.129242
 10
13.768117
 20
73.129242
 10
13.768117
 20
64.26164200000001
 10
7.170936999999999
 20
64.26164200000001
 10
7.170936999999999
 20
73.129242
  0
LWPOLYLINE
  5
6C
100
AcDbEntity
  8
Layer 1
  6
ByLayer
 62
    7
370
   -1
100
AcDbPolyline
 90
    6
 70
    0
 43
0
 10
12.223659
 20
68.602952
 10
12.411139
 20
68.41596200000001
 10
12.223659
 20
68.228972
 10
12.038174
 20
68.41596200000001
 10
12.223659
 20
68.602952
 10
12.223659
 20
68.602952
  0
LWPOLYLINE
  5
6D
100
AcDbEntity
  8
Layer 1
  6
ByLayer
 62
    7
370
   -1
100
AcDbPolyline
 90
    6
 70
    0
 43
0
 10
12.223659
 20
65.625185
 10
12.411139
 20
65.436184
 10
12.223659
 20
65.249194
 10
12.038174
 20
65.436184
 10
12.223659
 20
65.625185
 10
12.223659
 20
65.625185
  0
LWPOLYLINE
  5
6E
100
AcDbEntity
  8
Layer 1
  6
ByLayer
 62
    7
370
   -1
100
AcDbPolyline
 90
    6
 70
    0
 43
0
 10
9.269855
 20
65.625185
 10
9.457334999999999
 20
65.436184
 10
9.269855
 20
65.249194
 10
9.082376
 20
65.436184
 10
9.269855
 20
65.625185
 10
9.269855
 20
65.625185
  0
LWPOLYLINE
  5
6F
100
AcDbEntity
  8
Layer 1
  6
ByLayer
 62
    7
370
   -1
100
AcDbPolyline
 90
    6
 70
    0
 43
0
 10
12.223659
 20
71.582729
 10
12.411139
 20
71.39573900000001
 10
12.223659
 20
71.206738
 10
12.038174
 20
71.39573900000001
 10
12.223659
 20
71.582729
 10
12.223659
 20
71.582729
  0
LWPOLYLINE
  5
70
100
AcDbEntity
  8
Layer 1
  6
ByLayer
 62
    7
370
   -1
100
AcDbPolyline
 90
    6
 70
    0
 43
0
 10
9.269855
 20
68.602952
 10
9.457334999999999
 20
68.41596200000001
 10
9.269855
 20
68.228972
 10
9.082376
 20
68.41596200000001
 10
9.269855
 20
68.602952
 10
9.269855
 20
68.602952
  0
LWPOLYLINE
  5
71
100
AcDbEntity
  8
Layer 1
  6
ByLayer
 62
    7
370
   -1
100
AcDbPolyline
 90
   10
 70
    0
 43
0
 10
9.269855
 20
72.141689
 10
9.792404999999999
 20
71.922529
 10
10.011796
 20
71.39573900000001
 10
9.792404999999999
 20
70.86694
 10
9.269855
 20
70.647779
 10
8.74531
 20
70.86694
 10
8.527913
 20
71.39573900000001
 10
8.74531
 20
71.922529
 10
9.269855
 20
72.141689
 10
9.269855
 20
72.141689
  0
LWPOLYLINE
  5
72
100
AcDbEntity
  8
Layer 1
  6
ByLayer
 62
    7
370
   -1
100
AcDbPolyline
 90
    5
 70
    0
 43
0
 10
103.663359
 20
125.921068
 10
109.660821
 20
125.921068
 10
109.660821
 20
117.859628
 10
103.663359
 20
117.859628
 10
103.663359
 20
125.921068
  0
LWPOLYLINE
  5
73
100
AcDbEntity
  8
Layer 1
  6
ByLayer
 62
    7
370
   -1
100
AcDbPolyline
 90
    6
 70
    0
 43
0
 10
108.256765
 20
121.806266
 10
108.427203
 20
121.636276
 10
108.256765
 20
121.466285
 10
108.088137
 20
121.636276
 10
108.256765
 20
121.806266
 10
108.256765
 20
121.806266
  0
LWPOLYLINE
  5
74
100
AcDbEntity
  8
Layer 1
  6
ByLayer
 62
    7
370
   -1
100
AcDbPolyline
 90
    6
 70
    0
 43
0
 10
108.256765
 20
119.099211
 10
108.427203
 20
118.927392
 10
108.256765
 20
118.757401
 10
108.088137
 20
118.927392
 10
108.256765
 20
119.099211
 10
108.256765
 20
119.099211
  0
LWPOLYLINE
  5
75
100
AcDbEntity
  8
Layer 1
  6
ByLayer
 62
    7
370
   -1
100
AcDbPolyline
 90
    6
 70
    0
 43
0
 10
105.571472
 20
119.099211
 10
105.741909
 20
118.927392
 10
105.571472
 20
118.757401
 10
105.401034
 20
118.927392
 10
105.571472
 20
119.099211
 10
105.571472
 20
119.099211
  0
LWPOLYLINE
  5
76
100
AcDbEntity
  8
Layer 1
  6
ByLayer
 62
    7
370
   -1
100
AcDbPolyline
 90
   10
 70
    0
 43
0
 10
105.571472
 20
122.316238
 10
106.046521
 20
122.115174
 10
106.245966
 20
121.636276
 10
106.046521
 20
121.155549
 10
105.571472
 20
120.956312
 10
105.094613
 20
121.155549
 10
104.896977
 20
121.636276
 10
105.094613
 20
122.115174
 10
105.571472
 20
122.316238
 10
105.571472
 20
122.316238
  0
LWPOLYLINE
  5
77
100
AcDbEntity
  8
Layer 1
  6
ByLayer
 62
    7
370
   -1
100
AcDbPolyline
 90
    6
 70
    0
 43
0
 10
108.256765
 20
124.51515
 10
108.427203
 20
124.345159
 10
108.256765
 20
124.173341
 10
108.088137
 20
124.345159
 10
108.256765
 20
124.51515
 10
108.256765
 20
124.51515
  0
LWPOLYLINE
  5
78
100
AcDbEntity
  8
Layer 1
  6
ByLayer
 62
    7
370
   -1
100
AcDbPolyline
 90
   10
 70
    0
 43
0
 10
105.571472
 20
125.023294
 10
106.046521
 20
124.824057
 10
106.245966
 20
124.345159
 10
106.046521
 20
123.864433
 10
105.571472
 20
123.665196
 10
105.094613
 20
123.864433
 10
104.896977
 20
124.345159
 10
105.094613
 20
124.824057
 10
105.571472
 20
125.023294
 10
105.571472
 20
125.023294
  0
LWPOLYLINE
  5
79
100
AcDbEntity
  8
Layer 1
  6
ByLayer
 62
    7
370
   -1
100
AcDbPolyline
 90
    5
 70
    0
 43
0
 10
6.336532999999999
 20
20.619645
 10
12.933713
 20
20.619645
 10
12.933713
 20
11.752045
 10
6.336532999999999
 20
11.752045
 10
6.336532999999999
 20
20.619645
  0
LWPOLYLINE
  5
7A
100
AcDbEntity
  8
Layer 1
  6
ByLayer
 62
    7
370
   -1
100
AcDbPolyline
 90
    6
 70
    0
 43
0
 10
11.389258
 20
16.093354
 10
11.576739
 20
15.906364
 10
11.389258
 20
15.719374
 10
11.203767
 20
15.906364
 10
11.389258
 20
16.093354
 10
11.389258
 20
16.093354
  0
LWPOLYLINE
  5
7B
100
AcDbEntity
  8
Layer 1
  6
ByLayer
 62
    7
370
   -1
100
AcDbPolyline
 90
    6
 70
    0
 43
0
 10
11.389258
 20
13.115588
 10
11.576739
 20
12.926587
 10
11.389258
 20
12.739597
 10
11.203767
 20
12.926587
 10
11.389258
 20
13.115588
 10
11.389258
 20
13.115588
  0
LWPOLYLINE
  5
7C
100
AcDbEntity
  8
Layer 1
  6
ByLayer
 62
    7
370
   -1
100
AcDbPolyline
 90
    6
 70
    0
 43
0
 10
8.435447
 20
13.115588
 10
8.622928
 20
12.926587
 10
8.435447
 20
12.739597
 10
8.247966999999999
 20
12.926587
 10
8.435447
 20
13.115588
 10
8.435447
 20
13.115588
  0
LWPOLYLINE
  5
7D
100
AcDbEntity
  8
Layer 1
  6
ByLayer
 62
    7
370
   -1
100
AcDbPolyline
 90
   10
 70
    0
 43
0
 10
8.435447
 20
16.654324
 10
8.957998999999999
 20
16.433153
 10
9.177387999999999
 20
15.906364
 10
8.957998999999999
 20
15.377564
 10
8.435447
 20
15.158403
 10
7.910905999999999
 20
15.377564
 10
7.693506999999999
 20
15.906364
 10
7.910905999999999
 20
16.433153
 10
8.435447
 20
16.654324
 10
8.435447
 20
16.654324
  0
LWPOLYLINE
  5
7E
100
AcDbEntity
  8
Layer 1
  6
ByLayer
 62
    7
370
   -1
100
AcDbPolyline
 90
    6
 70
    0
 43
0
 10
11.389258
 20
19.073132
 10
11.576739
 20
18.886142
 10
11.389258
 20
18.697141
 10
11.203767
 20
18.886142
 10
11.389258
 20
19.073132
 10
11.389258
 20
19.073132
  0
LWPOLYLINE
  5
7F
100
AcDbEntity
  8
Layer 1
  6
ByLayer
 62
    7
370
   -1
100
AcDbPolyline
 90
   10
 70
    0
 43
0
 10
8.435447
 20
19.632091
 10
8.957998999999999
 20
19.412931
 10
9.177387999999999
 20
18.886142
 10
8.957998999999999
 20
18.357341
 10
8.435447
 20
18.138181
 10
7.910905999999999
 20
18.357341
 10
7.693506999999999
 20
18.886142
 10
7.910905999999999
 20
19.412931
 10
8.435447
 20
19.632091
 10
8.435447
 20
19.632091
  0
LWPOLYLINE
  5
80
100
AcDbEntity
  8
Layer 1
  6
ByLayer
 62
    7
370
   -1
100
AcDbPolyline
 90
   21
 70
    0
 43
0
 10
9.943690999999999
 20
154.525243
 10
8.996454999999999
 20
155.434728
 10
8.344206
 20
156.606899
 10
7.967278
 20
157.937671
 10
7.846004999999999
 20
159.322964
 10
7.846004999999999
 20
160.22171
 10
7.967278
 20
161.607002
 10
8.344206
 20
162.937775
 10
8.996454999999999
 20
164.109946
 10
9.943690999999999
 20
165.019431
 10
9.720811999999999
 20
165.36307
 10
8.518329999999999
 20
164.375729
 10
7.534629999999999
 20
163.154201
 10
6.8705
 20
161.751768
 10
6.626726
 20
160.22171
 10
6.626726
 20
159.322964
 10
6.8705
 20
157.792905
 10
7.534629999999999
 20
156.390472
 10
8.518329999999999
 20
155.168945
 10
9.720811999999999
 20
154.181604
 10
9.943690999999999
 20
154.525243
  0
LWPOLYLINE
  5
81
100
AcDbEntity
  8
Layer 1
  6
ByLayer
 62
    7
370
   -1
100
AcDbPolyline
 90
   42
 70
    0
 43
0
 10
18.111554
 20
157.010013
 10
17.980449
 20
157.168615
 10
17.416696
 20
157.02323
 10
17.029935
 20
157.231395
 10
16.918495
 20
157.935193
 10
16.918495
 20
160.591782
 10
16.749492
 20
161.633849
 10
16.264608
 20
162.276932
 10
15.497027
 20
162.60281
 10
14.479936
 20
162.693263
 10
13.461002
 20
162.568942
 10
12.651017
 20
162.224065
 10
12.116353
 20
161.700759
 10
11.923382
 20
161.041155
 10
12.131512
 20
160.443092
 10
12.683793
 20
160.22171
 10
13.190187
 20
160.41005
 10
13.391762
 20
160.89577
 10
13.10333
 20
161.60948
 10
13.450759
 20
161.971292
 10
14.270167
 20
162.124938
 10
14.861985
 20
162.061332
 10
15.307538
 20
161.834167
 10
15.588391
 20
161.388924
 10
15.686105
 20
160.671084
 10
15.686105
 20
160.155626
 10
13.754145
 20
159.728556
 10
12.482218
 20
159.207316
 10
11.783058
 20
158.542343
 10
11.569398
 20
157.684073
 10
11.70419
 20
157.046566
 10
12.087264
 20
156.558988
 10
12.686661
 20
156.247359
 10
13.470425
 20
156.1377
 10
14.738869
 20
156.406994
 10
15.751658
 20
157.181832
 10
16.176111
 20
156.459861
 10
16.905385
 20
156.243435
 10
17.72971
 20
156.482991
 10
18.006055
 20
156.728535
 10
18.111554
 20
157.010013
 10
18.111554
 20
157.010013
  0
LWPOLYLINE
  5
82
100
AcDbEntity
  8
Layer 1
  6
ByLayer
 62
    7
370
   -1
100
AcDbPolyline
 90
   14
 70
    0
 43
0
 10
15.686105
 20
158.979325
 10
15.638581
 20
158.149967
 10
15.423895
 20
157.657639
 10
14.76509
 20
157.064533
 10
13.929294
 20
156.838194
 10
13.518565
 20
156.915636
 10
13.190187
 20
157.130617
 10
12.972429
 20
157.457115
 10
12.893561
 20
157.869109
 10
13.010941
 20
158.479563
 10
13.439287
 20
158.93637
 10
14.292906
 20
159.289095
 10
15.686105
 20
159.587301
 10
15.686105
 20
158.979325
  0
LWPOLYLINE
  5
83
100
AcDbEntity
  8
Layer 1
  6
ByLayer
 62
    7
370
   -1
100
AcDbPolyline
 90
   12
 70
    1
 43
0
 10
27.459362
 20
159.309747
 10
27.459362
 20
160.234927
 10
23.853965
 20
160.234927
 10
23.853965
 20
163.869564
 10
22.936227
 20
163.869564
 10
22.936227
 20
160.234927
 10
19.33083
 20
160.234927
 10
19.33083
 20
159.309747
 10
22.936227
 20
159.309747
 10
22.936227
 20
155.67511
 10
23.853965
 20
155.67511
 10
23.853965
 20
159.309747
  0
LWPOLYLINE
  5
84
100
AcDbEntity
  8
Layer 1
  6
ByLayer
 62
    7
370
   -1
100
AcDbPolyline
 90
   25
 70
    0
 43
0
 10
35.325691
 20
159.455133
 10
35.129033
 20
160.764015
 10
34.578391
 20
161.787908
 10
33.732761
 20
162.454946
 10
32.651142
 20
162.693263
 10
31.646547
 20
162.460316
 10
30.868109
 20
161.662348
 10
30.868109
 20
166.07678
 10
28.613098
 20
165.931394
 10
28.613098
 20
165.36307
 10
29.071966
 20
165.36307
 10
29.535752
 20
165.24577
 10
29.63572
 20
164.702226
 10
29.63572
 20
159.560867
 10
29.581639
 20
157.484168
 10
29.39973
 20
156.150917
 10
29.89793
 20
156.150917
 10
30.540346
 20
157.181832
 10
31.420391
 20
156.392124
 10
32.506926
 20
156.1377
 10
33.627672
 20
156.388407
 10
34.521032
 20
157.082706
 10
35.112031
 20
158.133859
 10
35.325691
 20
159.455133
 10
35.325691
 20
159.455133
  0
LWPOLYLINE
  5
85
100
AcDbEntity
  8
Layer 1
  6
ByLayer
 62
    7
370
   -1
100
AcDbPolyline
 90
   18
 70
    0
 43
0
 10
33.949085
 20
159.322964
 10
33.850142
 20
158.211508
 10
33.560685
 20
157.389998
 10
33.091779
 20
156.880736
 10
32.454484
 20
156.706025
 10
31.759421
 20
156.882181
 10
31.240121
 20
157.39165
 10
30.915021
 20
158.205932
 10
30.802557
 20
159.29653
 10
30.907031
 20
160.463537
 10
31.215539
 20
161.317058
 10
31.720704
 20
161.840982
 10
32.415153
 20
162.019203
 10
33.069655
 20
161.841395
 10
33.550853
 20
161.320362
 10
33.847683
 20
160.474689
 10
33.949085
 20
159.322964
 10
33.949085
 20
159.322964
  0
LWPOLYLINE
  5
86
100
AcDbEntity
  8
Layer 1
  6
ByLayer
 62
    7
370
   -1
100
AcDbPolyline
 90
   22
 70
    0
 43
0
 10
40.163474
 20
159.322964
 10
40.163474
 20
160.22171
 10
39.919905
 20
161.751768
 10
39.257209
 20
163.154201
 10
38.277401
 20
164.375729
 10
37.082499
 20
165.36307
 10
36.84651
 20
165.019431
 10
37.799277
 20
164.109946
 10
38.450911
 20
162.937775
 10
38.824767
 20
161.607002
 10
38.944195
 20
160.22171
 10
38.944195
 20
159.322964
 10
38.824767
 20
157.937671
 10
38.450911
 20
156.606899
 10
37.799277
 20
155.434728
 10
36.84651
 20
154.525243
 10
37.082499
 20
154.181604
 10
38.277401
 20
155.168945
 10
39.257209
 20
156.390472
 10
39.919905
 20
157.792905
 10
40.163474
 20
159.322964
 10
40.163474
 20
159.322964
  0
LWPOLYLINE
  5
87
100
AcDbEntity
  8
Layer 1
  6
ByLayer
 62
    7
370
   -1
100
AcDbPolyline
 90
   40
 70
    0
 43
0
 10
46.564738
 20
163.478364
 10
46.189773
 20
163.478364
 10
46.104554
 20
163.04022
 10
45.907484
 20
162.529053
 10
45.397233
 20
162.430256
 10
43.48832
 20
162.430256
 10
44.817742
 20
163.658775
 10
46.121597
 20
164.818567
 10
46.428387
 20
165.390945
 10
46.53065
 20
165.99554
 10
46.386843
 20
166.66685
 10
45.987377
 20
167.197212
 10
45.380189
 20
167.545552
 10
44.613215
 20
167.670794
 10
43.857027
 20
167.546492
 10
43.248641
 20
167.20473
 10
42.843183
 20
166.69222
 10
42.695781
 20
166.055678
 10
42.883263
 20
165.397389
 10
43.377535
 20
165.145027
 10
43.759957
 20
165.291074
 10
43.905895
 20
165.669081
 10
43.822806
 20
165.965471
 10
43.599106
 20
166.15877
 10
43.26675
 20
166.416502
 10
43.360624
 20
166.739605
 10
43.615084
 20
167.023244
 10
43.989383
 20
167.224731
 10
44.442777
 20
167.301379
 10
44.913347
 20
167.221644
 10
45.267274
 20
166.992102
 10
45.490175
 20
166.627251
 10
45.567672
 20
166.141588
 10
45.330123
 20
165.203016
 10
44.562084
 20
164.174238
 10
43.394579
 20
162.919946
 10
42.559429
 20
161.863247
 10
42.559429
 20
161.622698
 10
46.402821
 20
161.622698
 10
46.564738
 20
163.478364
  0
LWPOLYLINE
  5
88
100
AcDbEntity
  8
Layer 1
  6
ByLayer
 62
    7
370
   -1
100
AcDbPolyline
 90
    5
 70
    0
 43
0
 10
56.176727
 20
160.631433
 10
56.176727
 20
161.556613
 10
48.048196
 20
161.556613
 10
48.048196
 20
160.631433
 10
56.176727
 20
160.631433
  0
LWPOLYLINE
  5
89
100
AcDbEntity
  8
Layer 1
  6
ByLayer
 62
    7
370
   -1
100
AcDbPolyline
 90
    4
 70
    1
 43
0
 10
56.176727
 20
157.988061
 10
56.176727
 20
158.913241
 10
48.048196
 20
158.913241
 10
48.048196
 20
157.988061
  0
LWPOLYLINE
  5
8A
100
AcDbEntity
  8
Layer 1
  6
ByLayer
 62
    7
370
   -1
100
AcDbPolyline
 90
   42
 70
    0
 43
0
 10
64.34459699999999
 20
157.010013
 10
64.21349600000001
 20
157.168615
 10
63.649741
 20
157.02323
 10
63.262978
 20
157.231395
 10
63.151537
 20
157.935193
 10
63.151537
 20
160.591782
 10
62.982535
 20
161.633849
 10
62.497651
 20
162.276932
 10
61.730071
 20
162.60281
 10
60.71298
 20
162.693263
 10
59.694045
 20
162.568942
 10
58.88406
 20
162.224065
 10
58.349396
 20
161.700759
 10
58.156425
 20
161.041155
 10
58.364555
 20
160.443092
 10
58.916836
 20
160.22171
 10
59.423231
 20
160.41005
 10
59.624806
 20
160.89577
 10
59.336373
 20
161.60948
 10
59.683803
 20
161.971292
 10
60.503212
 20
162.124938
 10
61.095028
 20
162.061332
 10
61.540582
 20
161.834167
 10
61.821434
 20
161.388924
 10
61.919149
 20
160.671084
 10
61.919149
 20
160.155626
 10
59.987189
 20
159.728556
 10
58.715262
 20
159.207316
 10
58.016102
 20
158.542343
 10
57.802441
 20
157.684073
 10
57.937234
 20
157.046566
 10
58.320307
 20
156.558988
 10
58.919704
 20
156.247359
 10
59.703469
 20
156.1377
 10
60.971914
 20
156.406994
 10
61.984699
 20
157.181832
 10
62.409155
 20
156.459861
 10
63.13843
 20
156.243435
 10
63.962755
 20
156.482991
 10
64.239099
 20
156.728535
 10
64.34459699999999
 20
157.010013
 10
64.34459699999999
 20
157.010013
  0
LWPOLYLINE
  5
8B
100
AcDbEntity
  8
Layer 1
  6
ByLayer
 62
    7
370
   -1
100
AcDbPolyline
 90
   14
 70
    0
 43
0
 10
61.919149
 20
158.979325
 10
61.87163
 20
158.149967
 10
61.65694
 20
157.657639
 10
60.998133
 20
157.064533
 10
60.162337
 20
156.838194
 10
59.751609
 20
156.915636
 10
59.423231
 20
157.130617
 10
59.205473
 20
157.457115
 10
59.126605
 20
157.869109
 10
59.243986
 20
158.479563
 10
59.672331
 20
158.93637
 10
60.52595
 20
159.289095
 10
61.919149
 20
159.587301
 10
61.919149
 20
158.979325
  0
LWPOLYLINE
  5
8C
100
AcDbEntity
  8
Layer 1
  6
ByLayer
 62
    7
370
   -1
100
AcDbPolyline
 90
   40
 70
    0
 43
0
 10
68.818608
 20
163.478364
 10
68.443642
 20
163.478364
 10
68.358419
 20
163.04022
 10
68.16135
 20
162.529053
 10
67.65110199999999
 20
162.430256
 10
65.742186
 20
162.430256
 10
67.071606
 20
163.658775
 10
68.37546500000001
 20
164.818567
 10
68.682255
 20
165.390945
 10
68.784516
 20
165.99554
 10
68.640709
 20
166.66685
 10
68.24124500000001
 20
167.197212
 10
67.63405899999999
 20
167.545552
 10
66.867085
 20
167.670794
 10
66.110896
 20
167.546492
 10
65.502509
 20
167.20473
 10
65.09705
 20
166.69222
 10
64.949646
 20
166.055678
 10
65.13713
 20
165.397389
 10
65.63140199999999
 20
165.145027
 10
66.013823
 20
165.291074
 10
66.15975899999999
 20
165.669081
 10
66.076671
 20
165.965471
 10
65.85297
 20
166.15877
 10
65.520618
 20
166.416502
 10
65.614493
 20
166.739605
 10
65.86895199999999
 20
167.023244
 10
66.243252
 20
167.224731
 10
66.696648
 20
167.301379
 10
67.167216
 20
167.221644
 10
67.521141
 20
166.992102
 10
67.74404199999999
 20
166.627251
 10
67.821539
 20
166.141588
 10
67.583991
 20
165.203016
 10
66.815954
 20
164.174238
 10
65.648448
 20
162.919946
 10
64.813301
 20
161.863247
 10
64.813301
 20
161.622698
 10
68.65668599999999
 20
161.622698
 10
68.818608
 20
163.478364
  0
LWPOLYLINE
  5
8D
100
AcDbEntity
  8
Layer 1
  6
ByLayer
 62
    7
370
   -1
100
AcDbPolyline
 90
   12
 70
    1
 43
0
 10
78.43060199999999
 20
159.309747
 10
78.43060199999999
 20
160.234927
 10
74.82520099999999
 20
160.234927
 10
74.82520099999999
 20
163.869564
 10
73.907465
 20
163.869564
 10
73.907465
 20
160.234927
 10
70.302064
 20
160.234927
 10
70.302064
 20
159.309747
 10
73.907465
 20
159.309747
 10
73.907465
 20
155.67511
 10
74.82520099999999
 20
155.67511
 10
74.82520099999999
 20
159.309747
  0
LWPOLYLINE
  5
8E
100
AcDbEntity
  8
Layer 1
  6
ByLayer
 62
    7
370
   -1
100
AcDbPolyline
 90
   45
 70
    0
 43
0
 10
86.100272
 20
159.190795
 10
85.52341
 20
159.190795
 10
85.392302
 20
158.516735
 10
85.08911999999999
 20
157.730332
 10
84.304129
 20
157.578338
 10
81.367369
 20
157.578338
 10
83.412614
 20
159.468349
 10
84.749887
 20
160.55874
 10
85.41852299999999
 20
161.252625
 10
85.890503
 20
162.133199
 10
86.047828
 20
163.063335
 10
85.826588
 20
164.096109
 10
85.212031
 20
164.912044
 10
84.277907
 20
165.447946
 10
83.097962
 20
165.640623
 10
81.93460399999999
 20
165.449392
 10
80.998634
 20
164.923608
 10
80.374859
 20
164.13514
 10
80.148088
 20
163.155853
 10
80.223474
 20
162.58567
 10
80.43652
 20
162.143111
 10
80.767562
 20
161.856677
 10
81.196932
 20
161.754866
 10
81.785265
 20
161.979553
 10
82.009781
 20
162.561094
 10
81.881955
 20
163.017076
 10
81.537806
 20
163.314456
 10
81.10024199999999
 20
163.527578
 10
81.026495
 20
163.710962
 10
81.17091600000001
 20
164.208039
 10
81.562388
 20
164.644402
 10
82.138226
 20
164.954379
 10
82.835745
 20
165.072298
 10
83.55969399999999
 20
164.949629
 10
84.104191
 20
164.596491
 10
84.447114
 20
164.035188
 10
84.566338
 20
163.288022
 10
84.477637
 20
162.566051
 10
84.20088199999999
 20
161.84408
 10
83.01929699999999
 20
160.261361
 10
81.22315399999999
 20
158.331699
 10
79.938322
 20
156.706025
 10
79.938322
 20
156.335953
 10
85.85117
 20
156.335953
 10
86.100272
 20
159.190795
  0
LWPOLYLINE
  5
8F
100
AcDbEntity
  8
Layer 1
  6
ByLayer
 62
    7
370
   -1
100
AcDbPolyline
 90
   42
 70
    0
 43
0
 10
93.887928
 20
157.010013
 10
93.75681899999999
 20
157.168615
 10
93.19306399999999
 20
157.02323
 10
92.80630499999999
 20
157.231395
 10
92.694868
 20
157.935193
 10
92.694868
 20
160.591782
 10
92.525864
 20
161.633849
 10
92.04097899999999
 20
162.276932
 10
91.273397
 20
162.60281
 10
90.256305
 20
162.693263
 10
89.23737199999999
 20
162.568942
 10
88.427386
 20
162.224065
 10
87.89272
 20
161.700759
 10
87.699748
 20
161.041155
 10
87.90788000000001
 20
160.443092
 10
88.460162
 20
160.22171
 10
88.966556
 20
160.41005
 10
89.168132
 20
160.89577
 10
88.879701
 20
161.60948
 10
89.227131
 20
161.971292
 10
90.046539
 20
162.124938
 10
90.638357
 20
162.061332
 10
91.08390799999999
 20
161.834167
 10
91.36475799999999
 20
161.388924
 10
91.46247200000001
 20
160.671084
 10
91.46247200000001
 20
160.155626
 10
89.530513
 20
159.728556
 10
88.25858700000001
 20
159.207316
 10
87.559428
 20
158.542343
 10
87.345767
 20
157.684073
 10
87.48056
 20
157.046566
 10
87.86363299999999
 20
156.558988
 10
88.463031
 20
156.247359
 10
89.246797
 20
156.1377
 10
90.515238
 20
156.406994
 10
91.52803
 20
157.181832
 10
91.952482
 20
156.459861
 10
92.681753
 20
156.243435
 10
93.50608200000001
 20
156.482991
 10
93.782428
 20
156.728535
 10
93.887928
 20
157.010013
 10
93.887928
 20
157.010013
  0
LWPOLYLINE
  5
90
100
AcDbEntity
  8
Layer 1
  6
ByLayer
 62
    7
370
   -1
100
AcDbPolyline
 90
   14
 70
    0
 43
0
 10
91.46247200000001
 20
158.979325
 10
91.414953
 20
158.149967
 10
91.20026299999999
 20
157.657639
 10
90.541462
 20
157.064533
 10
89.705665
 20
156.838194
 10
89.294935
 20
156.915636
 10
88.966555
 20
157.130617
 10
88.748796
 20
157.457115
 10
88.669928
 20
157.869109
 10
88.78730899999999
 20
158.479563
 10
89.215655
 20
158.93637
 10
90.06927399999999
 20
159.289095
 10
91.46247200000001
 20
159.587301
 10
91.46247200000001
 20
158.979325
  0
LWPOLYLINE
  5
91
100
AcDbEntity
  8
Layer 1
  6
ByLayer
 62
    7
370
   -1
100
AcDbPolyline
 90
   25
 70
    0
 43
0
 10
100.875834
 20
159.455133
 10
100.679175
 20
160.764015
 10
100.128532
 20
161.787908
 10
99.28290199999999
 20
162.454946
 10
98.201283
 20
162.693263
 10
97.19668900000001
 20
162.460316
 10
96.418255
 20
161.662348
 10
96.418255
 20
166.07678
 10
94.16324400000001
 20
165.931394
 10
94.16324400000001
 20
165.36307
 10
94.622112
 20
165.36307
 10
95.085894
 20
165.24577
 10
95.18585899999999
 20
164.702226
 10
95.18585899999999
 20
159.560867
 10
95.13177
 20
157.484168
 10
94.949871
 20
156.150917
 10
95.448076
 20
156.150917
 10
96.09048799999999
 20
157.181832
 10
96.970534
 20
156.392124
 10
98.057068
 20
156.1377
 10
99.177815
 20
156.388407
 10
100.071175
 20
157.082706
 10
100.662173
 20
158.133859
 10
100.875834
 20
159.455133
 10
100.875834
 20
159.455133
  0
LWPOLYLINE
  5
92
100
AcDbEntity
  8
Layer 1
  6
ByLayer
 62
    7
370
   -1
100
AcDbPolyline
 90
   18
 70
    0
 43
0
 10
99.49923
 20
159.322964
 10
99.40028599999999
 20
158.211508
 10
99.110829
 20
157.389998
 10
98.641921
 20
156.880736
 10
98.00462399999999
 20
156.706025
 10
97.309562
 20
156.882181
 10
96.790262
 20
157.39165
 10
96.46516099999999
 20
158.205932
 10
96.35269700000001
 20
159.29653
 10
96.457172
 20
160.463537
 10
96.76568
 20
161.317058
 10
97.27084600000001
 20
161.840982
 10
97.965296
 20
162.019203
 10
98.61979700000001
 20
161.841395
 10
99.100995
 20
161.320362
 10
99.39782699999999
 20
160.474689
 10
99.49923
 20
159.322964
 10
99.49923
 20
159.322964
  0
LWPOLYLINE
  5
93
100
AcDbEntity
  8
Layer 1
  6
ByLayer
 62
    7
370
   -1
100
AcDbPolyline
 90
   13
 70
    0
 43
0
 10
110.525191
 20
159.309751
 10
110.525191
 20
160.234931
 10
106.91979
 20
160.234931
 10
106.91979
 20
163.869568
 10
106.002054
 20
163.869568
 10
106.002054
 20
160.234931
 10
102.396653
 20
160.234931
 10
102.396653
 20
159.309751
 10
106.002054
 20
159.309751
 10
106.002054
 20
155.675114
 10
106.91979
 20
155.675114
 10
106.91979
 20
159.309747
 10
110.525191
 20
159.309751
  0
LWPOLYLINE
  5
94
100
AcDbEntity
  8
Layer 1
  6
ByLayer
 62
    7
370
   -1
100
AcDbPolyline
 90
   25
 70
    0
 43
0
 10
118.391512
 20
159.455136
 10
118.194854
 20
160.764019
 10
117.644213
 20
161.787912
 10
116.798583
 20
162.45495
 10
115.716961
 20
162.693267
 10
114.712367
 20
162.46032
 10
113.933933
 20
161.662352
 10
113.933933
 20
166.076784
 10
111.678922
 20
165.931398
 10
111.678922
 20
165.363073
 10
112.13779
 20
165.363073
 10
112.601576
 20
165.245774
 10
112.701544
 20
164.70223
 10
112.701544
 20
159.560871
 10
112.647455
 20
157.484172
 10
112.465549
 20
156.150921
 10
112.963753
 20
156.150921
 10
113.606166
 20
157.181836
 10
114.486212
 20
156.392128
 10
115.572746
 20
156.137704
 10
116.693493
 20
156.388411
 10
117.586853
 20
157.082709
 10
118.177851
 20
158.133863
 10
118.391512
 20
159.455136
 10
118.391512
 20
159.455136
  0
LWPOLYLINE
  5
95
100
AcDbEntity
  8
Layer 1
  6
ByLayer
 62
    7
370
   -1
100
AcDbPolyline
 90
   18
 70
    0
 43
0
 10
117.014908
 20
159.322968
 10
116.915964
 20
158.211512
 10
116.626507
 20
157.390002
 10
116.157599
 20
156.880739
 10
115.520302
 20
156.706029
 10
114.825241
 20
156.882185
 10
114.305944
 20
157.391654
 10
113.980845
 20
158.205936
 10
113.868382
 20
159.296533
 10
113.972856
 20
160.463541
 10
114.281361
 20
161.317061
 10
114.786525
 20
161.840986
 10
115.480974
 20
162.019207
 10
116.135478
 20
161.841399
 10
116.616676
 20
161.320366
 10
116.913506
 20
160.474693
 10
117.014908
 20
159.322968
 10
117.014908
 20
159.322968
  0
LWPOLYLINE
  5
96
100
AcDbEntity
  8
Layer 1
  6
ByLayer
 62
    7
370
   -1
100
AcDbPolyline
 90
   40
 70
    0
 43
0
 10
123.167068
 20
163.478364
 10
122.792102
 20
163.478364
 10
122.706887
 20
163.04022
 10
122.509817
 20
162.529053
 10
121.999562
 20
162.430256
 10
120.090654
 20
162.430256
 10
121.420074
 20
163.658775
 10
122.723925
 20
164.818567
 10
123.030719
 20
165.390945
 10
123.132984
 20
165.99554
 10
122.989176
 20
166.66685
 10
122.589709
 20
167.197212
 10
121.98252
 20
167.545552
 10
121.215545
 20
167.670794
 10
120.459358
 20
167.546492
 10
119.850973
 20
167.20473
 10
119.445516
 20
166.69222
 10
119.298114
 20
166.055678
 10
119.485595
 20
165.397389
 10
119.97987
 20
165.145027
 10
120.362288
 20
165.291074
 10
120.508227
 20
165.669081
 10
120.425139
 20
165.965471
 10
120.201438
 20
166.15877
 10
119.869079
 20
166.416502
 10
119.962954
 20
166.739605
 10
120.217415
 20
167.023244
 10
120.591716
 20
167.224731
 10
121.045108
 20
167.301379
 10
121.51568
 20
167.221644
 10
121.869608
 20
166.992102
 10
122.09251
 20
166.627251
 10
122.170007
 20
166.141588
 10
121.932455
 20
165.203016
 10
121.164415
 20
164.174238
 10
119.996908
 20
162.919946
 10
119.161761
 20
161.863247
 10
119.161761
 20
161.622698
 10
123.005154
 20
161.622698
 10
123.167068
 20
163.478364
  0
LWPOLYLINE
  5
97
100
AcDbEntity
  8
Layer 1
  6
ByLayer
 62
    7
370
   -1
100
AcDbPolyline
 90
   46
 70
    0
 43
0
 10
15.940785
 20
186.069072
 10
15.344567
 20
186.069072
 10
15.17895
 20
185.160813
 10
15.027826
 20
184.957122
 10
14.814596
 20
184.893678
 10
14.53574
 20
185.00408
 10
14.263095
 20
185.356155
 10
13.661908
 20
186.910547
 10
14.570312
 20
187.835085
 10
15.225324
 20
188.877329
 10
15.621975
 20
190.024758
 10
15.755296
 20
191.264849
 10
15.663198
 20
192.262197
 10
15.3986
 20
193.188013
 10
14.979048
 20
194.023358
 10
14.422086
 20
194.749293
 10
13.745259
 20
195.346877
 10
12.966113
 20
195.797172
 10
12.102192
 20
196.081238
 10
11.171042
 20
196.180135
 10
10.222579
 20
196.071142
 10
9.354232999999999
 20
195.761484
 10
8.580288999999999
 20
195.277145
 10
7.915028999999999
 20
194.644108
 10
7.372739999999999
 20
193.888356
 10
6.967705
 20
193.035872
 10
6.714208999999999
 20
192.112638
 10
6.626536
 20
191.144639
 10
6.719823999999999
 20
190.127934
 10
6.987786
 20
189.184327
 10
7.412565
 20
188.333068
 10
7.976307
 20
187.593412
 10
8.661156
 20
186.98461
 10
9.449254999999999
 20
186.525915
 10
10.32275
 20
186.236579
 10
11.263786
 20
186.135856
 10
12.442974
 20
186.336208
 10
12.5941
 20
185.26558
 10
12.956385
 20
184.47294
 10
13.51244
 20
183.980827
 10
14.244877
 20
183.811781
 10
14.962615
 20
183.967262
 10
15.495278
 20
184.414504
 10
15.826717
 20
185.124708
 10
15.940785
 20
186.069072
 10
15.940785
 20
186.069072
  0
LWPOLYLINE
  5
98
100
AcDbEntity
  8
Layer 1
  6
ByLayer
 62
    7
370
   -1
100
AcDbPolyline
 90
   28
 70
    0
 43
0
 10
14.006389
 20
191.184709
 10
13.85071
 20
189.279702
 10
13.317427
 20
187.92566
 10
12.974601
 20
188.76004
 10
12.472784
 20
189.371529
 10
11.826881
 20
189.747606
 10
11.051798
 20
189.875747
 10
10.284168
 20
189.742179
 10
9.680496999999999
 20
189.36819
 10
9.285503
 20
188.793849
 10
9.143901
 20
188.059228
 10
9.157145
 20
187.818806
 10
8.811420999999999
 20
188.419234
 10
8.567551999999999
 20
189.166169
 10
8.375435999999999
 20
191.144639
 10
8.522006999999999
 20
192.881434
 10
9.001465
 20
194.280136
 10
9.38466
 20
194.812789
 10
9.873434999999999
 20
195.213022
 10
10.475242
 20
195.46487
 10
11.197536
 20
195.552367
 10
11.885024
 20
195.480835
 10
12.46926
 20
195.268119
 10
12.953817
 20
194.917034
 10
13.342264
 20
194.4304
 10
13.845115
 20
193.06175
 10
14.006384
 20
191.184709
 10
14.006389
 20
191.184709
  0
LWPOLYLINE
  5
99
100
AcDbEntity
  8
Layer 1
  6
ByLayer
 62
    7
370
   -1
100
AcDbPolyline
 90
   16
 70
    0
 43
0
 10
12.389976
 20
187.057471
 10
11.807008
 20
186.830407
 10
11.144543
 20
186.763623
 10
10.558262
 20
186.841885
 10
10.121036
 20
187.069159
 10
9.847769
 20
187.434173
 10
9.753368
 20
187.92566
 10
9.843421999999999
 20
188.464731
 10
10.096193
 20
188.882338
 10
10.485598
 20
189.152186
 10
10.985552
 20
189.247979
 10
11.585082
 20
189.110655
 10
12.025621
 20
188.71037
 10
12.297231
 20
188.064654
 10
12.389976
 20
187.191039
 10
12.389976
 20
187.057471
  0
LWPOLYLINE
  5
9A
100
AcDbEntity
  8
Layer 1
  6
ByLayer
 62
    7
370
   -1
100
AcDbPolyline
 90
   37
 70
    0
 43
0
 10
24.20834
 20
186.336208
 10
24.20834
 20
186.910547
 10
23.877108
 20
186.910547
 10
23.43926
 20
186.942687
 10
23.186488
 20
187.077507
 10
23.042402
 20
187.885591
 10
23.042402
 20
192.560455
 10
20.551536
 20
192.41353
 10
20.551536
 20
191.83919
 10
21.22725
 20
191.83919
 10
21.695944
 20
191.72065
 10
21.79697
 20
191.171352
 10
21.79697
 20
189.528471
 10
21.732378
 20
188.58682
 10
21.518734
 20
187.885591
 10
20.929141
 20
187.197717
 10
20.061313
 20
186.950617
 10
19.508155
 20
187.057471
 10
19.133863
 20
187.364677
 10
18.969903
 20
187.745345
 10
18.935123
 20
188.486645
 10
18.935123
 20
192.560455
 10
16.616498
 20
192.41353
 10
16.616498
 20
191.83919
 10
17.119971
 20
191.83919
 10
17.588664
 20
191.72065
 10
17.68969
 20
191.171352
 10
17.68969
 20
188.286294
 10
17.741032
 20
187.498245
 10
17.941427
 20
186.990688
 10
18.671793
 20
186.357912
 10
19.730081
 20
186.135856
 10
20.339962
 20
186.205562
 10
20.872832
 20
186.423026
 10
21.79697
 20
187.35132
 10
21.79697
 20
186.24271
 10
24.20834
 20
186.336208
  0
LWPOLYLINE
  5
9B
100
AcDbEntity
  8
Layer 1
  6
ByLayer
 62
    7
370
   -1
100
AcDbPolyline
 90
   42
 70
    0
 43
0
 10
31.627942
 20
187.017402
 10
31.495449
 20
187.177682
 10
30.92573
 20
187.030759
 10
30.534876
 20
187.241128
 10
30.422257
 20
187.952374
 10
30.422257
 20
190.637082
 10
30.251465
 20
191.690178
 10
29.761449
 20
192.340068
 10
28.985744
 20
192.669395
 10
27.957889
 20
192.760806
 10
26.928171
 20
192.635169
 10
26.109614
 20
192.286641
 10
25.569291
 20
191.757797
 10
25.374278
 20
191.091212
 10
25.584611
 20
190.486818
 10
26.142737
 20
190.263092
 10
26.65449
 20
190.453426
 10
26.858198
 20
190.944287
 10
26.566714
 20
191.665552
 10
26.91782
 20
192.031193
 10
27.7459
 20
192.186466
 10
28.343981
 20
192.122186
 10
28.79425
 20
191.892617
 10
29.078075
 20
191.442661
 10
29.176823
 20
190.717223
 10
29.176823
 20
190.196309
 10
27.224416
 20
189.764719
 10
25.939029
 20
189.237962
 10
25.232469
 20
188.56595
 10
25.016547
 20
187.698596
 10
25.152766
 20
187.054341
 10
25.539894
 20
186.561602
 10
26.145635
 20
186.246675
 10
26.937693
 20
186.135856
 10
28.219562
 20
186.408
 10
29.24307
 20
187.191039
 10
29.672016
 20
186.461427
 10
30.409007
 20
186.24271
 10
31.242056
 20
186.484801
 10
31.521327
 20
186.732945
 10
31.627942
 20
187.017402
 10
31.627942
 20
187.017402
  0
LWPOLYLINE
  5
9C
100
AcDbEntity
  8
Layer 1
  6
ByLayer
 62
    7
370
   -1
100
AcDbPolyline
 90
   14
 70
    0
 43
0
 10
29.176823
 20
189.007558
 10
29.128794
 20
188.169421
 10
28.911837
 20
187.671883
 10
28.246061
 20
187.072498
 10
27.401418
 20
186.843764
 10
26.986343
 20
186.922026
 10
26.65449
 20
187.139282
 10
26.434428
 20
187.469236
 10
26.354725
 20
187.885591
 10
26.473348
 20
188.502506
 10
26.906227
 20
188.964149
 10
27.76888
 20
189.320607
 10
29.176823
 20
189.621969
 10
29.176823
 20
189.007558
  0
LWPOLYLINE
  5
9D
100
AcDbEntity
  8
Layer 1
  6
ByLayer
 62
    7
370
   -1
100
AcDbPolyline
 90
   29
 70
    0
 43
0
 10
39.140285
 20
186.336208
 10
39.140285
 20
186.910547
 10
38.901798
 20
186.910547
 10
38.47161
 20
186.944565
 10
38.222772
 20
187.082515
 10
38.080342
 20
187.885591
 10
38.080342
 20
196.180135
 10
35.483481
 20
196.033211
 10
35.483481
 20
195.45887
 10
36.26519
 20
195.45887
 10
36.728915
 20
195.34033
 10
36.834909
 20
194.791033
 10
36.834909
 20
191.772406
 10
36.025046
 20
192.522054
 10
35.006507
 20
192.760806
 10
33.962918
 20
192.503271
 10
33.126764
 20
191.792441
 10
32.571329
 20
190.720979
 10
32.369899
 20
189.381546
 10
32.56574
 20
188.074254
 10
33.111859
 20
187.047454
 10
33.94615
 20
186.376278
 10
35.006507
 20
186.135856
 10
35.584714
 20
186.204727
 10
36.074731
 20
186.416348
 10
36.487736
 20
186.778232
 10
36.834909
 20
187.297893
 10
36.834909
 20
186.24271
 10
39.140285
 20
186.336208
  0
LWPOLYLINE
  5
9E
100
AcDbEntity
  8
Layer 1
  6
ByLayer
 62
    7
370
   -1
100
AcDbPolyline
 90
   17
 70
    0
 43
0
 10
36.821659
 20
189.421617
 10
36.711524
 20
188.367268
 10
36.397682
 20
187.55835
 10
35.904974
 20
187.039941
 10
35.258244
 20
186.85712
 10
34.633043
 20
187.018027
 10
34.161865
 20
187.483218
 10
33.864584
 20
188.226396
 10
33.761074
 20
189.221266
 10
33.822354
 20
190.268102
 10
34.012811
 20
191.064498
 10
34.522908
 20
191.772406
 10
35.271493
 20
192.039541
 10
36.034984
 20
191.762388
 10
36.569923
 20
191.024428
 10
36.821659
 20
189.421617
 10
36.821659
 20
189.421617
  0
LWPOLYLINE
  5
9F
100
AcDbEntity
  8
Layer 1
  6
ByLayer
 62
    7
370
   -1
100
AcDbPolyline
 90
   37
 70
    0
 43
0
 10
45.168702
 20
191.692266
 10
45.087343
 20
192.129699
 10
44.855688
 20
192.466957
 10
44.492367
 20
192.684004
 10
44.016014
 20
192.760806
 10
43.412964
 20
192.636003
 10
42.868295
 20
192.273284
 10
42.400636
 20
191.690178
 10
42.028621
 20
190.904217
 10
42.028621
 20
192.560455
 10
39.683496
 20
192.41353
 10
39.683496
 20
191.83919
 10
40.226717
 20
191.83919
 10
40.695411
 20
191.72065
 10
40.796436
 20
191.171352
 10
40.796436
 20
187.444817
 10
40.682164
 20
186.930582
 10
39.921984
 20
186.81705
 10
39.736493
 20
186.81705
 10
39.736493
 20
186.336208
 10
43.274053
 20
186.336208
 10
43.274053
 20
186.81705
 10
43.022318
 20
186.81705
 10
42.207486
 20
186.93058
 10
42.064642
 20
187.12133
 10
42.028621
 20
187.444817
 10
42.028621
 20
188.112655
 10
42.16277
 20
189.591916
 10
42.545342
 20
190.89086
 10
43.118374
 20
191.760719
 10
43.870271
 20
192.119681
 10
43.631784
 20
191.518627
 10
43.837148
 20
190.991036
 10
44.360496
 20
190.784006
 10
44.943464
 20
191.032776
 10
45.168702
 20
191.692266
 10
45.168702
 20
191.692266
  0
LWPOLYLINE
  5
A0
100
AcDbEntity
  8
Layer 1
  6
ByLayer
 62
    7
370
   -1
100
AcDbPolyline
 90
   42
 70
    0
 43
0
 10
52.482312
 20
187.017402
 10
52.349819
 20
187.177682
 10
51.7801
 20
187.030759
 10
51.389246
 20
187.241128
 10
51.276627
 20
187.952374
 10
51.276627
 20
190.637082
 10
51.105835
 20
191.690178
 10
50.615819
 20
192.340068
 10
49.840114
 20
192.669395
 10
48.812259
 20
192.760806
 10
47.782541
 20
192.635169
 10
46.963984
 20
192.286641
 10
46.423661
 20
191.757797
 10
46.228648
 20
191.091212
 10
46.438981
 20
190.486818
 10
46.997107
 20
190.263092
 10
47.508861
 20
190.453426
 10
47.712568
 20
190.944287
 10
47.421084
 20
191.665552
 10
47.77219
 20
192.031193
 10
48.600271
 20
192.186466
 10
49.198351
 20
192.122186
 10
49.64862
 20
191.892617
 10
49.932444
 20
191.442661
 10
50.031193
 20
190.717223
 10
50.031193
 20
190.196309
 10
48.078787
 20
189.764719
 10
46.793399
 20
189.237962
 10
46.086839
 20
188.56595
 10
45.870917
 20
187.698596
 10
46.007136
 20
187.054341
 10
46.394264
 20
186.561602
 10
47.000005
 20
186.246675
 10
47.792064
 20
186.135856
 10
49.073932
 20
186.408
 10
50.097439
 20
187.191039
 10
50.526386
 20
186.461427
 10
51.263377
 20
186.24271
 10
52.096426
 20
186.484801
 10
52.375697
 20
186.732945
 10
52.482312
 20
187.017402
 10
52.482312
 20
187.017402
  0
LWPOLYLINE
  5
A1
100
AcDbEntity
  8
Layer 1
  6
ByLayer
 62
    7
370
   -1
100
AcDbPolyline
 90
   14
 70
    0
 43
0
 10
50.031193
 20
189.007558
 10
49.983164
 20
188.169421
 10
49.766208
 20
187.671883
 10
49.100431
 20
187.072498
 10
48.255789
 20
186.843764
 10
47.840714
 20
186.922026
 10
47.508861
 20
187.139282
 10
47.288798
 20
187.469236
 10
47.209095
 20
187.885591
 10
47.327718
 20
188.502506
 10
47.760597
 20
188.964149
 10
48.62325
 20
189.320607
 10
50.031193
 20
189.621969
 10
50.031193
 20
189.007558
  0
LWPOLYLINE
  5
A2
100
AcDbEntity
  8
Layer 1
  6
ByLayer
 62
    7
370
   -1
100
AcDbPolyline
 90
   29
 70
    0
 43
0
 10
59.994656
 20
186.336208
 10
59.994656
 20
186.910547
 10
59.756169
 20
186.910547
 10
59.325981
 20
186.944565
 10
59.077142
 20
187.082515
 10
58.934713
 20
187.885591
 10
58.934713
 20
196.180135
 10
56.337851
 20
196.033211
 10
56.337851
 20
195.45887
 10
57.11956
 20
195.45887
 10
57.583285
 20
195.34033
 10
57.68928
 20
194.791033
 10
57.68928
 20
191.772406
 10
56.879416
 20
192.522054
 10
55.860877
 20
192.760806
 10
54.817289
 20
192.503271
 10
53.981135
 20
191.792441
 10
53.4257
 20
190.720979
 10
53.224269
 20
189.381546
 10
53.42011
 20
188.074254
 10
53.966229
 20
187.047454
 10
54.80052
 20
186.376278
 10
55.860877
 20
186.135856
 10
56.439085
 20
186.204727
 10
56.929101
 20
186.416348
 10
57.342107
 20
186.778232
 10
57.68928
 20
187.297893
 10
57.68928
 20
186.24271
 10
59.994656
 20
186.336208
  0
LWPOLYLINE
  5
A3
100
AcDbEntity
  8
Layer 1
  6
ByLayer
 62
    7
370
   -1
100
AcDbPolyline
 90
   17
 70
    0
 43
0
 10
57.67603
 20
189.421617
 10
57.565895
 20
188.367268
 10
57.252052
 20
187.55835
 10
56.759344
 20
187.039941
 10
56.112613
 20
186.85712
 10
55.487413
 20
187.018027
 10
55.016235
 20
187.483218
 10
54.718954
 20
188.226396
 10
54.615444
 20
189.221266
 10
54.676724
 20
190.268102
 10
54.86718
 20
191.064498
 10
55.377279
 20
191.772406
 10
56.125863
 20
192.039541
 10
56.889353
 20
191.762388
 10
57.424294
 20
191.024428
 10
57.67603
 20
189.421617
 10
57.67603
 20
189.421617
  0
LWPOLYLINE
  5
A4
100
AcDbEntity
  8
Layer 1
  6
ByLayer
 62
    7
370
   -1
100
AcDbPolyline
 90
   18
 70
    0
 43
0
 10
66.43380499999999
 20
189.448327
 10
66.21063700000001
 20
190.73788
 10
65.602411
 20
191.790768
 10
64.701044
 20
192.500554
 10
63.598454
 20
192.760802
 10
62.465226
 20
192.504102
 10
61.548127
 20
191.799115
 10
60.934106
 20
190.743514
 10
60.71011
 20
189.43497
 10
60.933692
 20
188.147504
 10
61.544815
 20
187.099208
 10
62.454048
 20
186.394013
 10
63.57196
 20
186.135852
 10
64.68986699999999
 20
186.394222
 10
65.599099
 20
187.100877
 10
66.210223
 20
188.153139
 10
66.43380499999999
 20
189.448327
 10
66.43380499999999
 20
189.448327
  0
LWPOLYLINE
  5
A5
100
AcDbEntity
  8
Layer 1
  6
ByLayer
 62
    7
370
   -1
100
AcDbPolyline
 90
   18
 70
    0
 43
0
 10
65.042627
 20
189.448327
 10
64.946984
 20
188.271054
 10
64.665024
 20
187.413091
 10
64.204199
 20
186.888213
 10
63.57196
 20
186.710192
 10
62.93972
 20
186.888004
 10
62.478892
 20
187.411422
 10
62.196929
 20
188.265419
 10
62.101285
 20
189.43497
 10
62.195479
 20
190.631234
 10
62.477233
 20
191.49191
 10
62.945305
 20
192.011989
 10
63.598454
 20
192.186461
 10
64.21537600000001
 20
192.006563
 10
64.668336
 20
191.478554
 10
64.94739799999999
 20
190.619965
 10
65.042627
 20
189.448327
 10
65.042627
 20
189.448327
  0
LWPOLYLINE
  5
A6
100
AcDbEntity
  8
Layer 1
  6
ByLayer
 62
    7
370
   -1
100
AcDbPolyline
 90
   29
 70
    0
 43
0
 10
77.90768799999999
 20
186.336204
 10
77.90768799999999
 20
186.910544
 10
77.66919900000001
 20
186.910544
 10
77.239012
 20
186.944562
 10
76.990173
 20
187.082512
 10
76.847741
 20
187.885587
 10
76.847741
 20
196.180135
 10
74.250878
 20
196.033211
 10
74.250878
 20
195.45887
 10
75.032588
 20
195.45887
 10
75.496315
 20
195.34033
 10
75.60230900000001
 20
194.791033
 10
75.60230900000001
 20
191.772406
 10
74.792445
 20
192.522054
 10
73.77390800000001
 20
192.760806
 10
72.73032000000001
 20
192.503271
 10
71.894165
 20
191.792441
 10
71.338728
 20
190.720979
 10
71.137297
 20
189.381546
 10
71.333139
 20
188.074254
 10
71.879259
 20
187.047454
 10
72.713551
 20
186.376278
 10
73.77390800000001
 20
186.135856
 10
74.352115
 20
186.204727
 10
74.84213199999999
 20
186.416348
 10
75.255137
 20
186.778232
 10
75.60230900000001
 20
187.297893
 10
75.60230900000001
 20
186.24271
 10
77.90768799999999
 20
186.336204
  0
LWPOLYLINE
  5
A7
100
AcDbEntity
  8
Layer 1
  6
ByLayer
 62
    7
370
   -1
100
AcDbPolyline
 90
   17
 70
    0
 43
0
 10
75.589062
 20
189.421613
 10
75.478927
 20
188.367264
 10
75.16508399999999
 20
187.558346
 10
74.672376
 20
187.039937
 10
74.025645
 20
186.857116
 10
73.400442
 20
187.018023
 10
72.929265
 20
187.483214
 10
72.631985
 20
188.226392
 10
72.528476
 20
189.221262
 10
72.58975599999999
 20
190.268098
 10
72.78021200000001
 20
191.064494
 10
73.290307
 20
191.772405
 10
74.03889099999999
 20
192.039541
 10
74.80238300000001
 20
191.762388
 10
75.337326
 20
191.024429
 10
75.589062
 20
189.421617
 10
75.589062
 20
189.421613
  0
LWPOLYLINE
  5
A8
100
AcDbEntity
  8
Layer 1
  6
ByLayer
 62
    7
370
   -1
100
AcDbPolyline
 90
   42
 70
    0
 43
0
 10
85.367031
 20
187.017398
 10
85.234537
 20
187.177678
 10
84.664818
 20
187.030755
 10
84.273962
 20
187.241124
 10
84.161344
 20
187.95237
 10
84.161344
 20
190.637082
 10
83.99055199999999
 20
191.690178
 10
83.500534
 20
192.340068
 10
82.724828
 20
192.669395
 10
81.696972
 20
192.760806
 10
80.667254
 20
192.635169
 10
79.848698
 20
192.286641
 10
79.308376
 20
191.757797
 10
79.113364
 20
191.091212
 10
79.323695
 20
190.486818
 10
79.88181899999999
 20
190.263092
 10
80.393575
 20
190.453427
 10
80.597285
 20
190.944287
 10
80.305801
 20
191.665552
 10
80.656907
 20
192.031193
 10
81.48498499999999
 20
192.186466
 10
82.083068
 20
192.122186
 10
82.533338
 20
191.892617
 10
82.81716299999999
 20
191.442661
 10
82.91591200000001
 20
190.717223
 10
82.91591200000001
 20
190.196309
 10
80.96350200000001
 20
189.764719
 10
79.678113
 20
189.237962
 10
78.971552
 20
188.56595
 10
78.75563
 20
187.698596
 10
78.89185000000001
 20
187.054341
 10
79.27898
 20
186.561602
 10
79.88472299999999
 20
186.246675
 10
80.676782
 20
186.135856
 10
81.95865000000001
 20
186.408
 10
82.982153
 20
187.191039
 10
83.41109899999999
 20
186.461427
 10
84.148096
 20
186.24271
 10
84.981145
 20
186.484801
 10
85.26041600000001
 20
186.732945
 10
85.367031
 20
187.017402
 10
85.367031
 20
187.017398
  0
LWPOLYLINE
  5
A9
100
AcDbEntity
  8
Layer 1
  6
ByLayer
 62
    7
370
   -1
100
AcDbPolyline
 90
   14
 70
    0
 43
0
 10
82.91591200000001
 20
189.007554
 10
82.86787099999999
 20
188.169417
 10
82.650921
 20
187.671879
 10
81.985147
 20
187.072494
 10
81.140505
 20
186.84376
 10
80.72542799999999
 20
186.922022
 10
80.393576
 20
187.139278
 10
80.17351600000001
 20
187.469232
 10
80.09381399999999
 20
187.885587
 10
80.212436
 20
188.502502
 10
80.645313
 20
188.964145
 10
81.507966
 20
189.320603
 10
82.91591200000001
 20
189.621965
 10
82.91591200000001
 20
189.007554
  0
LWPOLYLINE
  5
AA
100
AcDbEntity
  8
Layer 1
  6
ByLayer
 62
    7
370
   -1
100
AcDbPolyline
 90
   58
 70
    0
 43
0
 10
97.039644
 20
189.074344
 10
96.83593399999999
 20
190.216346
 10
96.24469000000001
 20
191.117927
 10
95.540819
 20
191.568717
 10
94.310289
 20
191.959402
 10
92.892618
 20
192.320038
 10
92.12395100000001
 20
192.591765
 10
91.582593
 20
192.951145
 10
91.26233499999999
 20
193.405692
 10
91.15696199999999
 20
193.962919
 10
91.29255999999999
 20
194.603626
 10
91.67534000000001
 20
195.101582
 10
92.26927999999999
 20
195.424231
 10
93.038357
 20
195.539016
 10
93.700824
 20
195.46451
 10
94.293729
 20
195.243498
 10
94.812107
 20
194.879735
 10
95.250991
 20
194.376978
 10
95.727964
 20
193.532164
 10
96.045945
 20
192.587173
 10
96.615664
 20
192.587173
 10
96.456671
 20
196.059929
 10
95.966448
 20
196.059929
 10
95.436482
 20
195.258524
 10
94.350042
 20
195.944727
 10
93.02511199999999
 20
196.18014
 10
91.839508
 20
195.978745
 10
90.923445
 20
195.410457
 10
90.33281599999999
 20
194.52912
 10
90.123519
 20
193.388578
 10
90.26574100000001
 20
192.426266
 10
90.724704
 20
191.690601
 10
91.54885
 20
191.132748
 10
92.78662300000001
 20
190.703871
 10
94.045311
 20
190.383308
 10
94.984346
 20
190.121182
 10
95.39672899999999
 20
189.889109
 10
95.850521
 20
189.334804
 10
96.006201
 20
188.620217
 10
95.85714400000001
 20
187.887265
 10
95.40998399999999
 20
187.284542
 10
94.71770599999999
 20
186.872152
 10
93.806822
 20
186.750272
 10
92.519977
 20
186.990693
 10
91.501437
 20
187.752028
 10
90.850571
 20
188.743767
 10
90.467994
 20
190.036033
 10
89.898275
 20
190.036033
 10
89.951255
 20
186.229358
 10
90.467977
 20
186.229358
 10
91.064194
 20
187.137618
 10
92.355997
 20
186.361256
 10
93.846548
 20
186.135861
 10
95.167124
 20
186.343308
 10
96.173446
 20
186.933927
 10
96.81458600000001
 20
187.860135
 10
97.03961699999999
 20
189.074348
 10
97.039644
 20
189.074344
  0
LWPOLYLINE
  5
AB
100
AcDbEntity
  8
Layer 1
  6
ByLayer
 62
    7
370
   -1
100
AcDbPolyline
 90
   18
 70
    0
 43
0
 10
103.743771
 20
189.448332
 10
103.520604
 20
190.737885
 10
102.91238
 20
191.790773
 10
102.011016
 20
192.50056
 10
100.908431
 20
192.760808
 10
99.775199
 20
192.504107
 10
98.858098
 20
191.799121
 10
98.24407599999999
 20
190.74352
 10
98.02007999999999
 20
189.434975
 10
98.243662
 20
188.147509
 10
98.85478499999999
 20
187.099213
 10
99.764015
 20
186.394018
 10
100.881921
 20
186.135857
 10
101.999833
 20
186.394227
 10
102.909066
 20
187.100882
 10
103.520189
 20
188.153144
 10
103.743771
 20
189.448332
 10
103.743771
 20
189.448332
  0
LWPOLYLINE
  5
AC
100
AcDbEntity
  8
Layer 1
  6
ByLayer
 62
    7
370
   -1
100
AcDbPolyline
 90
   18
 70
    0
 43
0
 10
102.352601
 20
189.448332
 10
102.256956
 20
188.271059
 10
101.974992
 20
187.413096
 10
101.514162
 20
186.888218
 10
100.881921
 20
186.710197
 10
100.249683
 20
186.888009
 10
99.78886
 20
187.411427
 10
99.506902
 20
188.265424
 10
99.411261
 20
189.434975
 10
99.505455
 20
190.631239
 10
99.787209
 20
191.491915
 10
100.255281
 20
192.011994
 10
100.908431
 20
192.186467
 10
101.525346
 20
192.006568
 10
101.978306
 20
191.478559
 10
102.257371
 20
190.61997
 10
102.352601
 20
189.448332
 10
102.352601
 20
189.448332
  0
LWPOLYLINE
  5
AD
100
AcDbEntity
  8
Layer 1
  6
ByLayer
 62
    7
370
   -1
100
AcDbPolyline
 90
   70
 70
    0
 43
0
 10
115.694631
 20
186.336209
 10
115.694631
 20
186.817052
 10
115.509141
 20
186.817052
 10
114.760556
 20
186.932251
 10
114.647941
 20
187.458175
 10
114.647941
 20
190.436736
 10
114.565132
 20
191.358352
 10
114.223971
 20
191.999476
 10
113.536656
 20
192.565469
 10
112.660551
 20
192.760812
 10
112.054393
 20
192.681715
 10
111.517796
 20
192.43858
 10
111.035851
 20
192.022642
 10
110.593651
 20
191.425135
 10
110.337777
 20
191.971928
 10
109.927877
 20
192.393501
 10
109.393764
 20
192.66481
 10
108.765251
 20
192.760812
 10
108.204436
 20
192.687141
 10
107.706966
 20
192.461954
 10
106.857361
 20
191.531989
 10
106.857361
 20
192.560461
 10
104.498981
 20
192.413537
 10
104.498981
 20
191.839196
 10
105.042201
 20
191.839196
 10
105.510902
 20
191.720656
 10
105.611931
 20
191.171358
 10
105.611931
 20
187.45818
 10
105.499292
 20
186.932259
 10
104.750721
 20
186.817057
 10
104.565221
 20
186.817057
 10
104.565221
 20
186.336214
 10
107.904051
 20
186.336214
 10
107.904051
 20
186.817057
 10
107.718571
 20
186.817057
 10
106.969981
 20
186.932256
 10
106.857361
 20
187.45818
 10
106.857361
 20
189.875753
 10
106.972256
 20
190.700741
 10
107.289616
 20
191.356683
 10
107.768451
 20
191.789734
 10
108.367771
 20
191.94605
 10
108.874559
 20
191.820831
 10
109.242221
 20
191.505278
 10
109.444275
 20
191.021094
 10
109.507211
 20
190.316526
 10
109.507211
 20
187.444823
 10
109.392917
 20
186.930589
 10
108.632761
 20
186.817057
 10
108.447271
 20
186.817057
 10
108.447271
 20
186.336214
 10
111.799341
 20
186.336214
 10
111.799341
 20
186.817057
 10
111.613851
 20
186.817057
 10
110.865265
 20
186.930586
 10
110.752641
 20
187.444823
 10
110.752641
 20
189.755543
 10
110.860292
 20
190.661298
 10
111.166684
 20
191.351675
 10
111.646974
 20
191.791613
 10
112.276321
 20
191.94605
 10
112.85928
 20
191.767403
 10
113.243511
 20
191.278213
 10
113.402501
 20
190.169601
 10
113.402501
 20
187.444823
 10
113.288207
 20
186.930589
 10
112.528051
 20
186.817057
 10
112.342561
 20
186.817057
 10
112.342561
 20
186.336214
 10
115.694631
 20
186.336209
  0
LWPOLYLINE
  5
AE
100
AcDbEntity
  8
Layer 1
  6
ByLayer
 62
    7
370
   -1
100
AcDbPolyline
 90
   42
 70
    0
 43
0
 10
123.167221
 20
187.017403
 10
123.034731
 20
187.177683
 10
122.465011
 20
187.03076
 10
122.074158
 20
187.241129
 10
121.961541
 20
187.952375
 10
121.961541
 20
190.637087
 10
121.790749
 20
191.690184
 10
121.300732
 20
192.340074
 10
120.525027
 20
192.669401
 10
119.497171
 20
192.760812
 10
118.467449
 20
192.635175
 10
117.648892
 20
192.286646
 10
117.108572
 20
191.757802
 10
116.913561
 20
191.091217
 10
117.123891
 20
190.486823
 10
117.682011
 20
190.263097
 10
118.19377
 20
190.453432
 10
118.397481
 20
190.944292
 10
118.105991
 20
191.665557
 10
118.457097
 20
192.031198
 10
119.285181
 20
192.186471
 10
119.883262
 20
192.122191
 10
120.333534
 20
191.892622
 10
120.617361
 20
191.442667
 10
120.716111
 20
190.717228
 10
120.716111
 20
190.196314
 10
118.763701
 20
189.764724
 10
117.478312
 20
189.237967
 10
116.771753
 20
188.565955
 10
116.555831
 20
187.698601
 10
116.692049
 20
187.054347
 10
117.079174
 20
186.561608
 10
117.684912
 20
186.24668
 10
118.476971
 20
186.135861
 10
119.758841
 20
186.408005
 10
120.782351
 20
187.191044
 10
121.211294
 20
186.461432
 10
121.948291
 20
186.242715
 10
122.781339
 20
186.484806
 10
123.060607
 20
186.73295
 10
123.167221
 20
187.017407
 10
123.167221
 20
187.017403
  0
LWPOLYLINE
  5
AF
100
AcDbEntity
  8
Layer 1
  6
ByLayer
 62
    7
370
   -1
100
AcDbPolyline
 90
   14
 70
    0
 43
0
 10
120.716111
 20
189.007559
 10
120.668061
 20
188.169423
 10
120.451111
 20
187.671884
 10
119.785336
 20
187.072499
 10
118.940701
 20
186.843765
 10
118.525624
 20
186.922027
 10
118.193769
 20
187.139283
 10
117.973704
 20
187.469237
 10
117.894001
 20
187.885592
 10
118.012625
 20
188.502507
 10
118.445507
 20
188.96415
 10
119.308164
 20
189.320608
 10
120.716111
 20
189.62197
 10
120.716111
 20
189.007559
  0
LWPOLYLINE
  5
B0
100
AcDbEntity
  8
Layer 1
  6
ByLayer
 62
    7
370
   -1
100
AcDbPolyline
 90
    5
 70
    0
 43
0
 10
24.446227
 20
180.413294
 10
106.911349
 20
180.413294
 10
106.911349
 20
171.545666
 10
24.446227
 20
171.545666
 10
24.446227
 20
180.413294
  0
LWPOLYLINE
  5
B1
100
AcDbEntity
  8
Layer 1
  6
ByLayer
 62
    7
370
   -1
100
AcDbPolyline
 90
    5
 70
    0
 43
0
 10
29.116794
 20
174.673073
 10
30.050213
 20
174.673073
 10
30.050213
 20
173.732083
 10
29.116794
 20
173.732083
 10
29.116794
 20
174.673073
  0
LWPOLYLINE
  5
B2
100
AcDbEntity
  8
Layer 1
  6
ByLayer
 62
    7
370
   -1
100
AcDbPolyline
 90
    4
 70
    1
 43
0
 10
31.917049
 20
178.226876
 10
32.850468
 20
178.226876
 10
32.850468
 20
177.285886
 10
31.917049
 20
177.285886
  0
LWPOLYLINE
  5
B3
100
AcDbEntity
  8
Layer 1
  6
ByLayer
 62
    7
370
   -1
100
AcDbPolyline
 90
    4
 70
    1
 43
0
 10
31.917049
 20
176.448404
 10
32.850468
 20
176.448404
 10
32.850468
 20
175.507416
 10
31.917049
 20
175.507416
  0
LWPOLYLINE
  5
B4
100
AcDbEntity
  8
Layer 1
  6
ByLayer
 62
    7
370
   -1
100
AcDbPolyline
 90
    4
 70
    1
 43
0
 10
31.917049
 20
174.673073
 10
32.850468
 20
174.673073
 10
32.850468
 20
173.732083
 10
31.917049
 20
173.732083
  0
LWPOLYLINE
  5
B5
100
AcDbEntity
  8
Layer 1
  6
ByLayer
 62
    7
370
   -1
100
AcDbPolyline
 90
    5
 70
    0
 43
0
 10
33.783887
 20
178.226876
 10
34.717305
 20
178.226876
 10
34.717305
 20
177.285886
 10
33.783887
 20
177.285886
 10
33.783887
 20
178.226876
  0
LWPOLYLINE
  5
B6
100
AcDbEntity
  8
Layer 1
  6
ByLayer
 62
    7
370
   -1
100
AcDbPolyline
 90
    5
 70
    0
 43
0
 10
33.783887
 20
176.448404
 10
34.717305
 20
176.448404
 10
34.717305
 20
175.507416
 10
33.783887
 20
175.507416
 10
33.783887
 20
176.448404
  0
LWPOLYLINE
  5
B7
100
AcDbEntity
  8
Layer 1
  6
ByLayer
 62
    7
370
   -1
100
AcDbPolyline
 90
    5
 70
    0
 43
0
 10
36.584141
 20
178.226876
 10
37.517559
 20
178.226876
 10
37.517559
 20
177.285886
 10
36.584141
 20
177.285886
 10
36.584141
 20
178.226876
  0
LWPOLYLINE
  5
B8
100
AcDbEntity
  8
Layer 1
  6
ByLayer
 62
    7
370
   -1
100
AcDbPolyline
 90
    5
 70
    0
 43
0
 10
36.584141
 20
174.673073
 10
37.517559
 20
174.673073
 10
37.517559
 20
173.732083
 10
36.584141
 20
173.732083
 10
36.584141
 20
174.673073
  0
LWPOLYLINE
  5
B9
100
AcDbEntity
  8
Layer 1
  6
ByLayer
 62
    7
370
   -1
100
AcDbPolyline
 90
    5
 70
    0
 43
0
 10
38.450978
 20
174.673073
 10
39.384395
 20
174.673073
 10
39.384395
 20
173.732083
 10
38.450978
 20
173.732083
 10
38.450978
 20
174.673073
  0
LWPOLYLINE
  5
BA
100
AcDbEntity
  8
Layer 1
  6
ByLayer
 62
    7
370
   -1
100
AcDbPolyline
 90
    5
 70
    0
 43
0
 10
41.251233
 20
178.226876
 10
42.184651
 20
178.226876
 10
42.184651
 20
177.285886
 10
41.251233
 20
177.285886
 10
41.251233
 20
178.226876
  0
LWPOLYLINE
  5
BB
100
AcDbEntity
  8
Layer 1
  6
ByLayer
 62
    7
370
   -1
100
AcDbPolyline
 90
    5
 70
    0
 43
0
 10
45.918323
 20
178.226876
 10
46.851741
 20
178.226876
 10
46.851741
 20
177.285886
 10
45.918323
 20
177.285886
 10
45.918323
 20
178.226876
  0
LWPOLYLINE
  5
BC
100
AcDbEntity
  8
Layer 1
  6
ByLayer
 62
    7
370
   -1
100
AcDbPolyline
 90
    5
 70
    0
 43
0
 10
47.78516
 20
178.226876
 10
48.718579
 20
178.226876
 10
48.718579
 20
177.285886
 10
47.78516
 20
177.285886
 10
47.78516
 20
178.226876
  0
LWPOLYLINE
  5
BD
100
AcDbEntity
  8
Layer 1
  6
ByLayer
 62
    7
370
   -1
100
AcDbPolyline
 90
    5
 70
    0
 43
0
 10
47.78516
 20
176.448404
 10
48.718579
 20
176.448404
 10
48.718579
 20
175.507416
 10
47.78516
 20
175.507416
 10
47.78516
 20
176.448404
  0
LWPOLYLINE
  5
BE
100
AcDbEntity
  8
Layer 1
  6
ByLayer
 62
    7
370
   -1
100
AcDbPolyline
 90
    5
 70
    0
 43
0
 10
50.585414
 20
178.226876
 10
51.518832
 20
178.226876
 10
51.518832
 20
177.285886
 10
50.585414
 20
177.285886
 10
50.585414
 20
178.226876
  0
LWPOLYLINE
  5
BF
100
AcDbEntity
  8
Layer 1
  6
ByLayer
 62
    7
370
   -1
100
AcDbPolyline
 90
    5
 70
    0
 43
0
 10
50.585414
 20
176.448404
 10
51.518832
 20
176.448404
 10
51.518832
 20
175.507416
 10
50.585414
 20
175.507416
 10
50.585414
 20
176.448404
  0
LWPOLYLINE
  5
C0
100
AcDbEntity
  8
Layer 1
  6
ByLayer
 62
    7
370
   -1
100
AcDbPolyline
 90
    5
 70
    0
 43
0
 10
50.585414
 20
174.673073
 10
51.518832
 20
174.673073
 10
51.518832
 20
173.732083
 10
50.585414
 20
173.732083
 10
50.585414
 20
174.673073
  0
LWPOLYLINE
  5
C1
100
AcDbEntity
  8
Layer 1
  6
ByLayer
 62
    7
370
   -1
100
AcDbPolyline
 90
    5
 70
    0
 43
0
 10
52.452251
 20
176.448404
 10
53.385669
 20
176.448404
 10
53.385669
 20
175.507416
 10
52.452251
 20
175.507416
 10
52.452251
 20
176.448404
  0
LWPOLYLINE
  5
C2
100
AcDbEntity
  8
Layer 1
  6
ByLayer
 62
    7
370
   -1
100
AcDbPolyline
 90
    5
 70
    0
 43
0
 10
55.252506
 20
178.226876
 10
56.185926
 20
178.226876
 10
56.185926
 20
177.285886
 10
55.252506
 20
177.285886
 10
55.252506
 20
178.226876
  0
LWPOLYLINE
  5
C3
100
AcDbEntity
  8
Layer 1
  6
ByLayer
 62
    7
370
   -1
100
AcDbPolyline
 90
    5
 70
    0
 43
0
 10
59.919597
 20
178.226876
 10
60.853015
 20
178.226876
 10
60.853015
 20
177.285886
 10
59.919597
 20
177.285886
 10
59.919597
 20
178.226876
  0
LWPOLYLINE
  5
C4
100
AcDbEntity
  8
Layer 1
  6
ByLayer
 62
    7
370
   -1
100
AcDbPolyline
 90
    5
 70
    0
 43
0
 10
61.786434
 20
178.226876
 10
62.719852
 20
178.226876
 10
62.719852
 20
177.285886
 10
61.786434
 20
177.285886
 10
61.786434
 20
178.226876
  0
LWPOLYLINE
  5
C5
100
AcDbEntity
  8
Layer 1
  6
ByLayer
 62
    7
370
   -1
100
AcDbPolyline
 90
    5
 70
    0
 43
0
 10
61.786434
 20
176.448404
 10
62.719852
 20
176.448404
 10
62.719852
 20
175.507416
 10
61.786434
 20
175.507416
 10
61.786434
 20
176.448404
  0
LWPOLYLINE
  5
C6
100
AcDbEntity
  8
Layer 1
  6
ByLayer
 62
    7
370
   -1
100
AcDbPolyline
 90
    5
 70
    0
 43
0
 10
64.586688
 20
178.226876
 10
65.520106
 20
178.226876
 10
65.520106
 20
177.285886
 10
64.586688
 20
177.285886
 10
64.586688
 20
178.226876
  0
LWPOLYLINE
  5
C7
100
AcDbEntity
  8
Layer 1
  6
ByLayer
 62
    7
370
   -1
100
AcDbPolyline
 90
    5
 70
    0
 43
0
 10
64.586688
 20
174.673073
 10
65.520106
 20
174.673073
 10
65.520106
 20
173.732083
 10
64.586688
 20
173.732083
 10
64.586688
 20
174.673073
  0
LWPOLYLINE
  5
C8
100
AcDbEntity
  8
Layer 1
  6
ByLayer
 62
    7
370
   -1
100
AcDbPolyline
 90
    5
 70
    0
 43
0
 10
66.453525
 20
176.448404
 10
67.386943
 20
176.448404
 10
67.386943
 20
175.507416
 10
66.453525
 20
175.507416
 10
66.453525
 20
176.448404
  0
LWPOLYLINE
  5
C9
100
AcDbEntity
  8
Layer 1
  6
ByLayer
 62
    7
370
   -1
100
AcDbPolyline
 90
    4
 70
    1
 43
0
 10
71.279295
 20
178.226876
 10
72.21271400000001
 20
178.226876
 10
72.21271400000001
 20
177.285886
 10
71.279295
 20
177.285886
  0
LWPOLYLINE
  5
CA
100
AcDbEntity
  8
Layer 1
  6
ByLayer
 62
    7
370
   -1
100
AcDbPolyline
 90
    5
 70
    0
 43
0
 10
73.14613300000001
 20
178.226876
 10
74.07955
 20
178.226876
 10
74.07955
 20
177.285886
 10
73.14613300000001
 20
177.285886
 10
73.14613300000001
 20
178.226876
  0
LWPOLYLINE
  5
CB
100
AcDbEntity
  8
Layer 1
  6
ByLayer
 62
    7
370
   -1
100
AcDbPolyline
 90
    5
 70
    0
 43
0
 10
73.14613300000001
 20
176.448404
 10
74.07955
 20
176.448404
 10
74.07955
 20
175.507416
 10
73.14613300000001
 20
175.507416
 10
73.14613300000001
 20
176.448404
  0
LWPOLYLINE
  5
CC
100
AcDbEntity
  8
Layer 1
  6
ByLayer
 62
    7
370
   -1
100
AcDbPolyline
 90
    5
 70
    0
 43
0
 10
75.946388
 20
178.226876
 10
76.879806
 20
178.226876
 10
76.879806
 20
177.285886
 10
75.946388
 20
177.285886
 10
75.946388
 20
178.226876
  0
LWPOLYLINE
  5
CD
100
AcDbEntity
  8
Layer 1
  6
ByLayer
 62
    7
370
   -1
100
AcDbPolyline
 90
    5
 70
    0
 43
0
 10
84.505831
 20
174.673073
 10
85.43925
 20
174.673073
 10
85.43925
 20
173.732083
 10
84.505831
 20
173.732083
 10
84.505831
 20
174.673073
  0
LWPOLYLINE
  5
CE
100
AcDbEntity
  8
Layer 1
  6
ByLayer
 62
    7
370
   -1
100
AcDbPolyline
 90
    5
 70
    0
 43
0
 10
87.30608700000001
 20
176.448404
 10
88.23950499999999
 20
176.448404
 10
88.23950499999999
 20
175.507416
 10
87.30608700000001
 20
175.507416
 10
87.30608700000001
 20
176.448404
  0
LWPOLYLINE
  5
CF
100
AcDbEntity
  8
Layer 1
  6
ByLayer
 62
    7
370
   -1
100
AcDbPolyline
 90
    5
 70
    0
 43
0
 10
87.30608700000001
 20
174.673073
 10
88.23950499999999
 20
174.673073
 10
88.23950499999999
 20
173.732083
 10
87.30608700000001
 20
173.732083
 10
87.30608700000001
 20
174.673073
  0
LWPOLYLINE
  5
D0
100
AcDbEntity
  8
Layer 1
  6
ByLayer
 62
    7
370
   -1
100
AcDbPolyline
 90
    5
 70
    0
 43
0
 10
89.172922
 20
178.226876
 10
90.10634
 20
178.226876
 10
90.10634
 20
177.285886
 10
89.172922
 20
177.285886
 10
89.172922
 20
178.226876
  0
LWPOLYLINE
  5
D1
100
AcDbEntity
  8
Layer 1
  6
ByLayer
 62
    7
370
   -1
100
AcDbPolyline
 90
    5
 70
    0
 43
0
 10
91.973185
 20
178.226876
 10
92.90660199999999
 20
178.226876
 10
92.90660199999999
 20
177.285886
 10
91.973185
 20
177.285886
 10
91.973185
 20
178.226876
  0
LWPOLYLINE
  5
D2
100
AcDbEntity
  8
Layer 1
  6
ByLayer
 62
    7
370
   -1
100
AcDbPolyline
 90
    5
 70
    0
 43
0
 10
91.973185
 20
174.673073
 10
92.90660199999999
 20
174.673073
 10
92.90660199999999
 20
173.732083
 10
91.973185
 20
173.732083
 10
91.973185
 20
174.673073
  0
LWPOLYLINE
  5
D3
100
AcDbEntity
  8
Layer 1
  6
ByLayer
 62
    7
370
   -1
100
AcDbPolyline
 90
    5
 70
    0
 43
0
 10
93.840019
 20
176.448404
 10
94.773436
 20
176.448404
 10
94.773436
 20
175.507416
 10
93.840019
 20
175.507416
 10
93.840019
 20
176.448404
  0
LWPOLYLINE
  5
D4
100
AcDbEntity
  8
Layer 1
  6
ByLayer
 62
    7
370
   -1
100
AcDbPolyline
 90
    5
 70
    0
 43
0
 10
96.640271
 20
178.226876
 10
97.573688
 20
178.226876
 10
97.573688
 20
177.285886
 10
96.640271
 20
177.285886
 10
96.640271
 20
178.226876
  0
LWPOLYLINE
  5
D5
100
AcDbEntity
  8
Layer 1
  6
ByLayer
 62
    7
370
   -1
100
AcDbPolyline
 90
    5
 70
    0
 43
0
 10
96.640271
 20
174.673073
 10
97.573688
 20
174.673073
 10
97.573688
 20
173.732083
 10
96.640271
 20
173.732083
 10
96.640271
 20
174.673073
  0
LWPOLYLINE
  5
D6
100
AcDbEntity
  8
Layer 1
  6
ByLayer
 62
    7
370
   -1
100
AcDbPolyline
 90
    5
 70
    0
 43
0
 10
98.507105
 20
178.226876
 10
99.440523
 20
178.226876
 10
99.440523
 20
177.285886
 10
98.507105
 20
177.285886
 10
98.507105
 20
178.226876
  0
LWPOLYLINE
  5
D7
100
AcDbEntity
  8
Layer 1
  6
ByLayer
 62
    7
370
   -1
100
AcDbPolyline
 90
    5
 70
    0
 43
0
 10
101.307357
 20
178.226876
 10
102.240785
 20
178.226876
 10
102.240785
 20
177.285886
 10
101.307357
 20
177.285886
 10
101.307357
 20
178.226876
  0
LWPOLYLINE
  5
D8
100
AcDbEntity
  8
Layer 1
  6
ByLayer
 62
    7
370
   -1
100
AcDbPolyline
 90
    5
 70
    0
 43
0
 10
33.960037
 20
73.129712
 10
73.06685899999999
 20
73.129712
 10
73.06685899999999
 20
64.262112
 10
33.960037
 20
64.262112
 10
33.960037
 20
73.129712
  0
LWPOLYLINE
  5
D9
100
AcDbEntity
  8
Layer 1
  6
ByLayer
 62
    7
370
   -1
100
AcDbPolyline
 90
    5
 70
    0
 43
0
 10
37.052979
 20
72.142172
 10
38.484325
 20
72.142172
 10
38.484325
 20
70.699214
 10
37.052979
 20
70.699214
 10
37.052979
 20
72.142172
  0
LWPOLYLINE
  5
DA
100
AcDbEntity
  8
Layer 1
  6
ByLayer
 62
    7
370
   -1
100
AcDbPolyline
 90
    5
 70
    0
 43
0
 10
47.072394
 20
72.142172
 10
48.503739
 20
72.142172
 10
48.503739
 20
70.699214
 10
47.072394
 20
70.699214
 10
47.072394
 20
72.142172
  0
LWPOLYLINE
  5
DB
100
AcDbEntity
  8
Layer 1
  6
ByLayer
 62
    7
370
   -1
100
AcDbPolyline
 90
    5
 70
    0
 43
0
 10
47.072394
 20
69.414986
 10
48.503739
 20
69.414986
 10
48.503739
 20
67.97202800000001
 10
47.072394
 20
67.97202800000001
 10
47.072394
 20
69.414986
  0
LWPOLYLINE
  5
DC
100
AcDbEntity
  8
Layer 1
  6
ByLayer
 62
    7
370
   -1
100
AcDbPolyline
 90
    5
 70
    0
 43
0
 10
51.366429
 20
66.692599
 10
52.797774
 20
66.692599
 10
52.797774
 20
65.249641
 10
51.366429
 20
65.249641
 10
51.366429
 20
66.692599
  0
LWPOLYLINE
  5
DD
100
AcDbEntity
  8
Layer 1
  6
ByLayer
 62
    7
370
   -1
100
AcDbPolyline
 90
    5
 70
    0
 43
0
 10
54.229119
 20
72.142172
 10
55.660463
 20
72.142172
 10
55.660463
 20
70.699214
 10
54.229119
 20
70.699214
 10
54.229119
 20
72.142172
  0
LWPOLYLINE
  5
DE
100
AcDbEntity
  8
Layer 1
  6
ByLayer
 62
    7
370
   -1
100
AcDbPolyline
 90
    5
 70
    0
 43
0
 10
54.229119
 20
69.414986
 10
55.660463
 20
69.414986
 10
55.660463
 20
67.97202800000001
 10
54.229119
 20
67.97202800000001
 10
54.229119
 20
69.414986
  0
LWPOLYLINE
  5
DF
100
AcDbEntity
  8
Layer 1
  6
ByLayer
 62
    7
370
   -1
100
AcDbPolyline
 90
    5
 70
    0
 43
0
 10
54.229119
 20
66.692599
 10
55.660463
 20
66.692599
 10
55.660463
 20
65.249641
 10
54.229119
 20
65.249641
 10
54.229119
 20
66.692599
  0
LWPOLYLINE
  5
E0
100
AcDbEntity
  8
Layer 1
  6
ByLayer
 62
    7
370
   -1
100
AcDbPolyline
 90
    5
 70
    0
 43
0
 10
58.523154
 20
69.414986
 10
59.954499
 20
69.414986
 10
59.954499
 20
67.97202800000001
 10
58.523154
 20
67.97202800000001
 10
58.523154
 20
69.414986
  0
LWPOLYLINE
  5
E1
100
AcDbEntity
  8
Layer 1
  6
ByLayer
 62
    7
370
   -1
100
AcDbPolyline
 90
    5
 70
    0
 43
0
 10
58.523154
 20
66.692599
 10
59.954499
 20
66.692599
 10
59.954499
 20
65.249641
 10
58.523154
 20
65.249641
 10
58.523154
 20
66.692599
  0
LWPOLYLINE
  5
E2
100
AcDbEntity
  8
Layer 1
  6
ByLayer
 62
    7
370
   -1
100
AcDbPolyline
 90
    5
 70
    0
 43
0
 10
68.542568
 20
69.414986
 10
69.973913
 20
69.414986
 10
69.973913
 20
67.97202800000001
 10
68.542568
 20
67.97202800000001
 10
68.542568
 20
69.414986
  0
LWPOLYLINE
  5
E3
100
AcDbEntity
  8
Layer 1
  6
ByLayer
 62
    7
370
   -1
100
AcDbPolyline
 90
    5
 70
    0
 43
0
 10
44.376174
 20
21.153182
 10
62.650728
 20
21.153182
 10
62.650728
 20
12.285582
 10
44.376174
 20
12.285582
 10
44.376174
 20
21.153182
  0
LWPOLYLINE
  5
E4
100
AcDbEntity
  8
Layer 1
  6
ByLayer
 62
    7
370
   -1
100
AcDbPolyline
 90
    6
 70
    0
 43
0
 10
51.577786
 20
16.62714
 10
51.765265
 20
16.44015
 10
51.577786
 20
16.25316
 10
51.3923
 20
16.44015
 10
51.577786
 20
16.62714
 10
51.577786
 20
16.62714
  0
LWPOLYLINE
  5
E5
100
AcDbEntity
  8
Layer 1
  6
ByLayer
 62
    7
370
   -1
100
AcDbPolyline
 90
    6
 70
    0
 43
0
 10
51.577786
 20
13.649375
 10
51.765265
 20
13.460377
 10
51.577786
 20
13.273387
 10
51.3923
 20
13.460377
 10
51.577786
 20
13.649375
 10
51.577786
 20
13.649375
  0
LWPOLYLINE
  5
E6
100
AcDbEntity
  8
Layer 1
  6
ByLayer
 62
    7
370
   -1
100
AcDbPolyline
 90
    6
 70
    0
 43
0
 10
48.623984
 20
13.649375
 10
48.811464
 20
13.460377
 10
48.623984
 20
13.273387
 10
48.436504
 20
13.460377
 10
48.623984
 20
13.649375
 10
48.623984
 20
13.649375
  0
LWPOLYLINE
  5
E7
100
AcDbEntity
  8
Layer 1
  6
ByLayer
 62
    7
370
   -1
100
AcDbPolyline
 90
    6
 70
    0
 43
0
 10
51.577786
 20
19.606921
 10
51.765265
 20
19.419931
 10
51.577786
 20
19.230926
 10
51.3923
 20
19.419931
 10
51.577786
 20
19.606921
 10
51.577786
 20
19.606921
  0
LWPOLYLINE
  5
E8
100
AcDbEntity
  8
Layer 1
  6
ByLayer
 62
    7
370
   -1
100
AcDbPolyline
 90
    6
 70
    0
 43
0
 10
48.623984
 20
16.62714
 10
48.811464
 20
16.44015
 10
48.623984
 20
16.25316
 10
48.436504
 20
16.44015
 10
48.623984
 20
16.62714
 10
48.623984
 20
16.62714
  0
LWPOLYLINE
  5
E9
100
AcDbEntity
  8
Layer 1
  6
ByLayer
 62
    7
370
   -1
100
AcDbPolyline
 90
   10
 70
    0
 43
0
 10
48.623984
 20
20.165876
 10
49.146534
 20
19.946721
 10
49.365925
 20
19.419931
 10
49.146534
 20
18.891133
 10
48.623984
 20
18.67197
 10
48.099439
 20
18.891133
 10
47.882043
 20
19.419931
 10
48.099439
 20
19.946721
 10
48.623984
 20
20.165876
 10
48.623984
 20
20.165876
  0
LWPOLYLINE
  5
EA
100
AcDbEntity
  8
Layer 1
  6
ByLayer
 62
    7
370
   -1
100
AcDbPolyline
 90
    6
 70
    0
 43
0
 10
58.957304
 20
16.62714
 10
59.144784
 20
16.44015
 10
58.957304
 20
16.25316
 10
58.771819
 20
16.44015
 10
58.957304
 20
16.62714
 10
58.957304
 20
16.62714
  0
LWPOLYLINE
  5
EB
100
AcDbEntity
  8
Layer 1
  6
ByLayer
 62
    7
370
   -1
100
AcDbPolyline
 90
    6
 70
    0
 43
0
 10
58.957304
 20
13.649375
 10
59.144784
 20
13.460377
 10
58.957304
 20
13.273387
 10
58.771819
 20
13.460377
 10
58.957304
 20
13.649375
 10
58.957304
 20
13.649375
  0
LWPOLYLINE
  5
EC
100
AcDbEntity
  8
Layer 1
  6
ByLayer
 62
    7
370
   -1
100
AcDbPolyline
 90
    6
 70
    0
 43
0
 10
56.003502
 20
13.649375
 10
56.190982
 20
13.460377
 10
56.003502
 20
13.273387
 10
55.816023
 20
13.460377
 10
56.003502
 20
13.649375
 10
56.003502
 20
13.649375
  0
LWPOLYLINE
  5
ED
100
AcDbEntity
  8
Layer 1
  6
ByLayer
 62
    7
370
   -1
100
AcDbPolyline
 90
   10
 70
    0
 43
0
 10
56.003502
 20
17.18811
 10
56.526052
 20
16.96694
 10
56.745443
 20
16.44015
 10
56.526052
 20
15.911352
 10
56.003502
 20
15.69219
 10
55.478958
 20
15.911352
 10
55.261562
 20
16.44015
 10
55.478958
 20
16.96694
 10
56.003502
 20
17.18811
 10
56.003502
 20
17.18811
  0
LWPOLYLINE
  5
EE
100
AcDbEntity
  8
Layer 1
  6
ByLayer
 62
    7
370
   -1
100
AcDbPolyline
 90
    6
 70
    0
 43
0
 10
58.957304
 20
19.606921
 10
59.144784
 20
19.419931
 10
58.957304
 20
19.230926
 10
58.771819
 20
19.419931
 10
58.957304
 20
19.606921
 10
58.957304
 20
19.606921
  0
LWPOLYLINE
  5
EF
100
AcDbEntity
  8
Layer 1
  6
ByLayer
 62
    7
370
   -1
100
AcDbPolyline
 90
   10
 70
    0
 43
0
 10
56.003502
 20
20.165876
 10
56.526052
 20
19.946721
 10
56.745443
 20
19.419931
 10
56.526052
 20
18.891133
 10
56.003502
 20
18.67197
 10
55.478958
 20
18.891133
 10
55.261562
 20
19.419931
 10
55.478958
 20
19.946721
 10
56.003502
 20
20.165876
 10
56.003502
 20
20.165876
  0
LWPOLYLINE
  5
F0
100
AcDbEntity
  8
Layer 1
  6
ByLayer
 62
    7
370
   -1
100
AcDbPolyline
 90
    5
 70
    0
 43
0
 10
97.226074
 20
73.129182
 10
115.500628
 20
73.129182
 10
115.500628
 20
64.261582
 10
97.226074
 20
64.261582
 10
97.226074
 20
73.129182
  0
LWPOLYLINE
  5
F1
100
AcDbEntity
  8
Layer 1
  6
ByLayer
 62
    7
370
   -1
100
AcDbPolyline
 90
    6
 70
    0
 43
0
 10
104.427386
 20
68.60314
 10
104.614865
 20
68.41615
 10
104.427386
 20
68.22916000000001
 10
104.2419
 20
68.41615
 10
104.427386
 20
68.60314
 10
104.427386
 20
68.60314
  0
LWPOLYLINE
  5
F2
100
AcDbEntity
  8
Layer 1
  6
ByLayer
 62
    7
370
   -1
100
AcDbPolyline
 90
    6
 70
    0
 43
0
 10
104.427386
 20
65.62537500000001
 10
104.614865
 20
65.43637700000001
 10
104.427386
 20
65.249387
 10
104.2419
 20
65.43637700000001
 10
104.427386
 20
65.62537500000001
 10
104.427386
 20
65.62537500000001
  0
LWPOLYLINE
  5
F3
100
AcDbEntity
  8
Layer 1
  6
ByLayer
 62
    7
370
   -1
100
AcDbPolyline
 90
    6
 70
    0
 43
0
 10
101.473584
 20
65.62537500000001
 10
101.661064
 20
65.43637700000001
 10
101.473584
 20
65.249387
 10
101.286104
 20
65.43637700000001
 10
101.473584
 20
65.62537500000001
 10
101.473584
 20
65.62537500000001
  0
LWPOLYLINE
  5
F4
100
AcDbEntity
  8
Layer 1
  6
ByLayer
 62
    7
370
   -1
100
AcDbPolyline
 90
    6
 70
    0
 43
0
 10
104.427386
 20
71.582921
 10
104.614865
 20
71.395931
 10
104.427386
 20
71.206926
 10
104.2419
 20
71.395931
 10
104.427386
 20
71.582921
 10
104.427386
 20
71.582921
  0
LWPOLYLINE
  5
F5
100
AcDbEntity
  8
Layer 1
  6
ByLayer
 62
    7
370
   -1
100
AcDbPolyline
 90
    6
 70
    0
 43
0
 10
101.473584
 20
68.60314
 10
101.661064
 20
68.41615
 10
101.473584
 20
68.22916000000001
 10
101.286104
 20
68.41615
 10
101.473584
 20
68.60314
 10
101.473584
 20
68.60314
  0
LWPOLYLINE
  5
F6
100
AcDbEntity
  8
Layer 1
  6
ByLayer
 62
    7
370
   -1
100
AcDbPolyline
 90
   10
 70
    0
 43
0
 10
101.473584
 20
72.141876
 10
101.996134
 20
71.922721
 10
102.215525
 20
71.395931
 10
101.996134
 20
70.867133
 10
101.473584
 20
70.64797
 10
100.949039
 20
70.867133
 10
100.731643
 20
71.395931
 10
100.949039
 20
71.922721
 10
101.473584
 20
72.141876
 10
101.473584
 20
72.141876
  0
LWPOLYLINE
  5
F7
100
AcDbEntity
  8
Layer 1
  6
ByLayer
 62
    7
370
   -1
100
AcDbPolyline
 90
    6
 70
    0
 43
0
 10
111.806904
 20
68.60314
 10
111.994384
 20
68.41615
 10
111.806904
 20
68.22916000000001
 10
111.621419
 20
68.41615
 10
111.806904
 20
68.60314
 10
111.806904
 20
68.60314
  0
LWPOLYLINE
  5
F8
100
AcDbEntity
  8
Layer 1
  6
ByLayer
 62
    7
370
   -1
100
AcDbPolyline
 90
    6
 70
    0
 43
0
 10
111.806904
 20
65.62537500000001
 10
111.994384
 20
65.43637700000001
 10
111.806904
 20
65.249387
 10
111.621419
 20
65.43637700000001
 10
111.806904
 20
65.62537500000001
 10
111.806904
 20
65.62537500000001
  0
LWPOLYLINE
  5
F9
100
AcDbEntity
  8
Layer 1
  6
ByLayer
 62
    7
370
   -1
100
AcDbPolyline
 90
    6
 70
    0
 43
0
 10
108.853102
 20
65.62537500000001
 10
109.040582
 20
65.43637700000001
 10
108.853102
 20
65.249387
 10
108.665623
 20
65.43637700000001
 10
108.853102
 20
65.62537500000001
 10
108.853102
 20
65.62537500000001
  0
LWPOLYLINE
  5
FA
100
AcDbEntity
  8
Layer 1
  6
ByLayer
 62
    7
370
   -1
100
AcDbPolyline
 90
   10
 70
    0
 43
0
 10
108.853102
 20
69.16411000000001
 10
109.375652
 20
68.94294000000001
 10
109.595043
 20
68.41615
 10
109.375652
 20
67.88735200000001
 10
108.853102
 20
67.66819
 10
108.328558
 20
67.88735200000001
 10
108.111162
 20
68.41615
 10
108.328558
 20
68.94294000000001
 10
108.853102
 20
69.16411000000001
 10
108.853102
 20
69.16411000000001
  0
LWPOLYLINE
  5
FB
100
AcDbEntity
  8
Layer 1
  6
ByLayer
 62
    7
370
   -1
100
AcDbPolyline
 90
    6
 70
    0
 43
0
 10
111.806904
 20
71.582921
 10
111.994384
 20
71.395931
 10
111.806904
 20
71.206926
 10
111.621419
 20
71.395931
 10
111.806904
 20
71.582921
 10
111.806904
 20
71.582921
  0
LWPOLYLINE
  5
FC
100
AcDbEntity
  8
Layer 1
  6
ByLayer
 62
    7
370
   -1
100
AcDbPolyline
 90
   10
 70
    0
 43
0
 10
108.853102
 20
72.141876
 10
109.375652
 20
71.922721
 10
109.595043
 20
71.395931
 10
109.375652
 20
70.867133
 10
108.853102
 20
70.64797
 10
108.328558
 20
70.867133
 10
108.111162
 20
71.395931
 10
108.328558
 20
71.922721
 10
108.853102
 20
72.141876
 10
108.853102
 20
72.141876
  0
LWPOLYLINE
  5
FD
100
AcDbEntity
  8
Layer 1
  6
ByLayer
 62
    7
370
   -1
100
AcDbPolyline
 90
    5
 70
    0
 43
0
 10
89.461146
 20
19.313022
 10
90.855223
 20
19.313022
 10
90.855223
 20
17.927004
 10
89.461146
 20
17.927004
 10
89.461146
 20
19.313022
  0
LWPOLYLINE
  5
FE
100
AcDbEntity
  8
Layer 1
  6
ByLayer
 62
    7
370
   -1
100
AcDbPolyline
 90
    5
 70
    0
 43
0
 10
89.461146
 20
16.693452
 10
90.855223
 20
16.693452
 10
90.855223
 20
15.307434
 10
89.461146
 20
15.307434
 10
89.461146
 20
16.693452
  0
LWPOLYLINE
  5
FF
100
AcDbEntity
  8
Layer 1
  6
ByLayer
 62
    7
370
   -1
100
AcDbPolyline
 90
    5
 70
    0
 43
0
 10
99.219669
 20
19.313022
 10
100.613745
 20
19.313022
 10
100.613745
 20
17.927004
 10
99.219669
 20
17.927004
 10
99.219669
 20
19.313022
  0
LWPOLYLINE
  5
100
100
AcDbEntity
  8
Layer 1
  6
ByLayer
 62
    7
370
   -1
100
AcDbPolyline
 90
    5
 70
    0
 43
0
 10
99.219669
 20
16.693452
 10
100.613745
 20
16.693452
 10
100.613745
 20
15.307434
 10
99.219669
 20
15.307434
 10
99.219669
 20
16.693452
  0
LWPOLYLINE
  5
101
100
AcDbEntity
  8
Layer 1
  6
ByLayer
 62
    7
370
   -1
100
AcDbPolyline
 90
    5
 70
    0
 43
0
 10
103.401898
 20
14.078503
 10
104.795974
 20
14.078503
 10
104.795974
 20
12.692485
 10
103.401898
 20
12.692485
 10
103.401898
 20
14.078503
  0
LWPOLYLINE
  5
102
100
AcDbEntity
  8
Layer 1
  6
ByLayer
 62
    7
370
   -1
100
AcDbPolyline
 90
    5
 70
    0
 43
0
 10
106.19005
 20
19.313022
 10
107.584126
 20
19.313022
 10
107.584126
 20
17.927004
 10
106.19005
 20
17.927004
 10
106.19005
 20
19.313022
  0
LWPOLYLINE
  5
103
100
AcDbEntity
  8
Layer 1
  6
ByLayer
 62
    7
370
   -1
100
AcDbPolyline
 90
    5
 70
    0
 43
0
 10
106.19005
 20
16.693452
 10
107.584126
 20
16.693452
 10
107.584126
 20
15.307434
 10
106.19005
 20
15.307434
 10
106.19005
 20
16.693452
  0
LWPOLYLINE
  5
104
100
AcDbEntity
  8
Layer 1
  6
ByLayer
 62
    7
370
   -1
100
AcDbPolyline
 90
    5
 70
    0
 43
0
 10
106.19005
 20
14.078503
 10
107.584126
 20
14.078503
 10
107.584126
 20
12.692485
 10
106.19005
 20
12.692485
 10
106.19005
 20
14.078503
  0
LWPOLYLINE
  5
105
100
AcDbEntity
  8
Layer 1
  6
ByLayer
 62
    7
370
   -1
100
AcDbPolyline
 90
    5
 70
    0
 43
0
 10
110.372268
 20
16.693452
 10
111.766344
 20
16.693452
 10
111.766344
 20
15.307434
 10
110.372268
 20
15.307434
 10
110.372268
 20
16.693452
  0
LWPOLYLINE
  5
106
100
AcDbEntity
  8
Layer 1
  6
ByLayer
 62
    7
370
   -1
100
AcDbPolyline
 90
    5
 70
    0
 43
0
 10
110.372268
 20
14.078503
 10
111.766344
 20
14.078503
 10
111.766344
 20
12.692485
 10
110.372268
 20
12.692485
 10
110.372268
 20
14.078503
  0
LWPOLYLINE
  5
107
100
AcDbEntity
  8
Layer 1
  6
ByLayer
 62
    7
370
   -1
100
AcDbPolyline
 90
    5
 70
    0
 43
0
 10
120.130801
 20
16.693452
 10
121.524867
 20
16.693452
 10
121.524867
 20
15.307434
 10
120.130801
 20
15.307434
 10
120.130801
 20
16.693452
  0
LWPOLYLINE
  5
108
100
AcDbEntity
  8
Layer 1
  6
ByLayer
 62
    7
370
   -1
100
AcDbPolyline
 90
    4
 70
    1
 43
0
 10
2.762327
 20
148.596132
 10
3.667153
 20
148.596132
 10
3.667153
 20
147.655142
 10
2.762327
 20
147.655142
  0
LWPOLYLINE
  5
109
100
AcDbEntity
  8
Layer 1
  6
ByLayer
 62
    7
370
   -1
100
AcDbPolyline
 90
    4
 70
    1
 43
0
 10
2.762327
 20
146.817662
 10
3.667153
 20
146.817662
 10
3.667153
 20
145.876672
 10
2.762327
 20
145.876672
  0
LWPOLYLINE
  5
10A
100
AcDbEntity
  8
Layer 1
  6
ByLayer
 62
    7
370
   -1
100
AcDbPolyline
 90
    4
 70
    1
 43
0
 10
2.762327
 20
145.042329
 10
3.667153
 20
145.042329
 10
3.667153
 20
144.101339
 10
2.762327
 20
144.101339
  0
LWPOLYLINE
  5
10B
100
AcDbEntity
  8
Layer 1
  6
ByLayer
 62
    7
370
   -1
100
AcDbPolyline
 90
    4
 70
    1
 43
0
 10
4.571978
 20
146.817662
 10
5.476804
 20
146.817662
 10
5.476804
 20
145.876672
 10
4.571978
 20
145.876672
  0
LWPOLYLINE
  5
10C
100
AcDbEntity
  8
Layer 1
  6
ByLayer
 62
    7
370
   -1
100
AcDbPolyline
 90
    4
 70
    1
 43
0
 10
4.571978
 20
145.042329
 10
5.476804
 20
145.042329
 10
5.476804
 20
144.101339
 10
4.571978
 20
144.101339
  0
LWPOLYLINE
  5
10D
100
AcDbEntity
  8
Layer 1
  6
ByLayer
 62
    7
370
   -1
100
AcDbPolyline
 90
    4
 70
    1
 43
0
 10
7.286455999999999
 20
148.596132
 10
8.191281999999999
 20
148.596132
 10
8.191281999999999
 20
147.655142
 10
7.286455999999999
 20
147.655142
  0
LWPOLYLINE
  5
10E
100
AcDbEntity
  8
Layer 1
  6
ByLayer
 62
    7
370
   -1
100
AcDbPolyline
 90
    5
 70
    0
 43
0
 10
11.810584
 20
145.042329
 10
12.71541
 20
145.042329
 10
12.71541
 20
144.101339
 10
11.810584
 20
144.101339
 10
11.810584
 20
145.042329
  0
LWPOLYLINE
  5
10F
100
AcDbEntity
  8
Layer 1
  6
ByLayer
 62
    7
370
   -1
100
AcDbPolyline
 90
    4
 70
    1
 43
0
 10
13.620237
 20
148.596132
 10
14.525063
 20
148.596132
 10
14.525063
 20
147.655142
 10
13.620237
 20
147.655142
  0
LWPOLYLINE
  5
110
100
AcDbEntity
  8
Layer 1
  6
ByLayer
 62
    7
370
   -1
100
AcDbPolyline
 90
    4
 70
    1
 43
0
 10
13.620237
 20
145.042329
 10
14.525063
 20
145.042329
 10
14.525063
 20
144.101339
 10
13.620237
 20
144.101339
  0
LWPOLYLINE
  5
111
100
AcDbEntity
  8
Layer 1
  6
ByLayer
 62
    7
370
   -1
100
AcDbPolyline
 90
    5
 70
    0
 43
0
 10
16.334714
 20
148.596132
 10
17.239539
 20
148.596132
 10
17.239539
 20
147.655142
 10
16.334714
 20
147.655142
 10
16.334714
 20
148.596132
  0
LWPOLYLINE
  5
112
100
AcDbEntity
  8
Layer 1
  6
ByLayer
 62
    7
370
   -1
100
AcDbPolyline
 90
    5
 70
    0
 43
0
 10
16.334714
 20
146.817662
 10
17.239539
 20
146.817662
 10
17.239539
 20
145.876672
 10
16.334714
 20
145.876672
 10
16.334714
 20
146.817662
  0
LWPOLYLINE
  5
113
100
AcDbEntity
  8
Layer 1
  6
ByLayer
 62
    7
370
   -1
100
AcDbPolyline
 90
    5
 70
    0
 43
0
 10
20.858843
 20
146.817662
 10
21.763668
 20
146.817662
 10
21.763668
 20
145.876672
 10
20.858843
 20
145.876672
 10
20.858843
 20
146.817662
  0
LWPOLYLINE
  5
114
100
AcDbEntity
  8
Layer 1
  6
ByLayer
 62
    7
370
   -1
100
AcDbPolyline
 90
    5
 70
    0
 43
0
 10
20.858843
 20
145.042329
 10
21.763668
 20
145.042329
 10
21.763668
 20
144.101339
 10
20.858843
 20
144.101339
 10
20.858843
 20
145.042329
  0
LWPOLYLINE
  5
115
100
AcDbEntity
  8
Layer 1
  6
ByLayer
 62
    7
370
   -1
100
AcDbPolyline
 90
    5
 70
    0
 43
0
 10
22.668495
 20
148.596132
 10
23.57332
 20
148.596132
 10
23.57332
 20
147.655142
 10
22.668495
 20
147.655142
 10
22.668495
 20
148.596132
  0
LWPOLYLINE
  5
116
100
AcDbEntity
  8
Layer 1
  6
ByLayer
 62
    7
370
   -1
100
AcDbPolyline
 90
    5
 70
    0
 43
0
 10
22.668495
 20
146.817662
 10
23.57332
 20
146.817662
 10
23.57332
 20
145.876672
 10
22.668495
 20
145.876672
 10
22.668495
 20
146.817662
  0
LWPOLYLINE
  5
117
100
AcDbEntity
  8
Layer 1
  6
ByLayer
 62
    7
370
   -1
100
AcDbPolyline
 90
    5
 70
    0
 43
0
 10
22.668495
 20
145.042329
 10
23.57332
 20
145.042329
 10
23.57332
 20
144.101339
 10
22.668495
 20
144.101339
 10
22.668495
 20
145.042329
  0
LWPOLYLINE
  5
118
100
AcDbEntity
  8
Layer 1
  6
ByLayer
 62
    7
370
   -1
100
AcDbPolyline
 90
    5
 70
    0
 43
0
 10
27.192622
 20
148.596132
 10
28.097448
 20
148.596132
 10
28.097448
 20
147.655142
 10
27.192622
 20
147.655142
 10
27.192622
 20
148.596132
  0
LWPOLYLINE
  5
119
100
AcDbEntity
  8
Layer 1
  6
ByLayer
 62
    7
370
   -1
100
AcDbPolyline
 90
    5
 70
    0
 43
0
 10
27.192622
 20
146.817662
 10
28.097448
 20
146.817662
 10
28.097448
 20
145.876672
 10
27.192622
 20
145.876672
 10
27.192622
 20
146.817662
  0
LWPOLYLINE
  5
11A
100
AcDbEntity
  8
Layer 1
  6
ByLayer
 62
    7
370
   -1
100
AcDbPolyline
 90
    5
 70
    0
 43
0
 10
29.907101
 20
145.042329
 10
30.811927
 20
145.042329
 10
30.811927
 20
144.101339
 10
29.907101
 20
144.101339
 10
29.907101
 20
145.042329
  0
LWPOLYLINE
  5
11B
100
AcDbEntity
  8
Layer 1
  6
ByLayer
 62
    7
370
   -1
100
AcDbPolyline
 90
    5
 70
    0
 43
0
 10
31.716753
 20
148.596132
 10
32.621578
 20
148.596132
 10
32.621578
 20
147.655142
 10
31.716753
 20
147.655142
 10
31.716753
 20
148.596132
  0
LWPOLYLINE
  5
11C
100
AcDbEntity
  8
Layer 1
  6
ByLayer
 62
    7
370
   -1
100
AcDbPolyline
 90
    5
 70
    0
 43
0
 10
31.716753
 20
146.817662
 10
32.621578
 20
146.817662
 10
32.621578
 20
145.876672
 10
31.716753
 20
145.876672
 10
31.716753
 20
146.817662
  0
LWPOLYLINE
  5
11D
100
AcDbEntity
  8
Layer 1
  6
ByLayer
 62
    7
370
   -1
100
AcDbPolyline
 90
    5
 70
    0
 43
0
 10
31.716753
 20
145.042329
 10
32.621578
 20
145.042329
 10
32.621578
 20
144.101339
 10
31.716753
 20
144.101339
 10
31.716753
 20
145.042329
  0
LWPOLYLINE
  5
11E
100
AcDbEntity
  8
Layer 1
  6
ByLayer
 62
    7
370
   -1
100
AcDbPolyline
 90
    5
 70
    0
 43
0
 10
34.431229
 20
146.817662
 10
35.336054
 20
146.817662
 10
35.336054
 20
145.876672
 10
34.431229
 20
145.876672
 10
34.431229
 20
146.817662
  0
LWPOLYLINE
  5
11F
100
AcDbEntity
  8
Layer 1
  6
ByLayer
 62
    7
370
   -1
100
AcDbPolyline
 90
    5
 70
    0
 43
0
 10
34.431229
 20
145.042329
 10
35.336054
 20
145.042329
 10
35.336054
 20
144.101339
 10
34.431229
 20
144.101339
 10
34.431229
 20
145.042329
  0
LWPOLYLINE
  5
120
100
AcDbEntity
  8
Layer 1
  6
ByLayer
 62
    7
370
   -1
100
AcDbPolyline
 90
    5
 70
    0
 43
0
 10
40.765009
 20
146.817662
 10
41.669835
 20
146.817662
 10
41.669835
 20
145.876672
 10
40.765009
 20
145.876672
 10
40.765009
 20
146.817662
  0
LWPOLYLINE
  5
121
100
AcDbEntity
  8
Layer 1
  6
ByLayer
 62
    7
370
   -1
100
AcDbPolyline
 90
    5
 70
    0
 43
0
 10
47.252609
 20
148.596132
 10
48.157435
 20
148.596132
 10
48.157435
 20
147.655142
 10
47.252609
 20
147.655142
 10
47.252609
 20
148.596132
  0
LWPOLYLINE
  5
122
100
AcDbEntity
  8
Layer 1
  6
ByLayer
 62
    7
370
   -1
100
AcDbPolyline
 90
    5
 70
    0
 43
0
 10
47.252609
 20
145.042329
 10
48.157435
 20
145.042329
 10
48.157435
 20
144.101339
 10
47.252609
 20
144.101339
 10
47.252609
 20
145.042329
  0
LWPOLYLINE
  5
123
100
AcDbEntity
  8
Layer 1
  6
ByLayer
 62
    7
370
   -1
100
AcDbPolyline
 90
    5
 70
    0
 43
0
 10
49.967087
 20
148.596132
 10
50.871912
 20
148.596132
 10
50.871912
 20
147.655142
 10
49.967087
 20
147.655142
 10
49.967087
 20
148.596132
  0
LWPOLYLINE
  5
124
100
AcDbEntity
  8
Layer 1
  6
ByLayer
 62
    7
370
   -1
100
AcDbPolyline
 90
    5
 70
    0
 43
0
 10
49.967087
 20
145.042329
 10
50.871912
 20
145.042329
 10
50.871912
 20
144.101339
 10
49.967087
 20
144.101339
 10
49.967087
 20
145.042329
  0
LWPOLYLINE
  5
125
100
AcDbEntity
  8
Layer 1
  6
ByLayer
 62
    7
370
   -1
100
AcDbPolyline
 90
    5
 70
    0
 43
0
 10
56.454686
 20
148.596132
 10
57.359512
 20
148.596132
 10
57.359512
 20
147.655142
 10
56.454686
 20
147.655142
 10
56.454686
 20
148.596132
  0
LWPOLYLINE
  5
126
100
AcDbEntity
  8
Layer 1
  6
ByLayer
 62
    7
370
   -1
100
AcDbPolyline
 90
    5
 70
    0
 43
0
 10
62.788469
 20
148.596132
 10
63.693294
 20
148.596132
 10
63.693294
 20
147.655142
 10
62.788469
 20
147.655142
 10
62.788469
 20
148.596132
  0
LWPOLYLINE
  5
127
100
AcDbEntity
  8
Layer 1
  6
ByLayer
 62
    7
370
   -1
100
AcDbPolyline
 90
    5
 70
    0
 43
0
 10
62.788469
 20
146.817662
 10
63.693294
 20
146.817662
 10
63.693294
 20
145.876672
 10
62.788469
 20
145.876672
 10
62.788469
 20
146.817662
  0
LWPOLYLINE
  5
128
100
AcDbEntity
  8
Layer 1
  6
ByLayer
 62
    7
370
   -1
100
AcDbPolyline
 90
    5
 70
    0
 43
0
 10
65.50294599999999
 20
145.042329
 10
66.40777300000001
 20
145.042329
 10
66.40777300000001
 20
144.101339
 10
65.50294599999999
 20
144.101339
 10
65.50294599999999
 20
145.042329
  0
LWPOLYLINE
  5
129
100
AcDbEntity
  8
Layer 1
  6
ByLayer
 62
    7
370
   -1
100
AcDbPolyline
 90
    5
 70
    0
 43
0
 10
67.31259900000001
 20
148.596132
 10
68.21742500000001
 20
148.596132
 10
68.21742500000001
 20
147.655142
 10
67.31259900000001
 20
147.655142
 10
67.31259900000001
 20
148.596132
  0
LWPOLYLINE
  5
12A
100
AcDbEntity
  8
Layer 1
  6
ByLayer
 62
    7
370
   -1
100
AcDbPolyline
 90
    5
 70
    0
 43
0
 10
67.31259900000001
 20
146.817662
 10
68.21742500000001
 20
146.817662
 10
68.21742500000001
 20
145.876672
 10
67.31259900000001
 20
145.876672
 10
67.31259900000001
 20
146.817662
  0
LWPOLYLINE
  5
12B
100
AcDbEntity
  8
Layer 1
  6
ByLayer
 62
    7
370
   -1
100
AcDbPolyline
 90
    5
 70
    0
 43
0
 10
67.31259900000001
 20
145.042329
 10
68.21742500000001
 20
145.042329
 10
68.21742500000001
 20
144.101339
 10
67.31259900000001
 20
144.101339
 10
67.31259900000001
 20
145.042329
  0
LWPOLYLINE
  5
12C
100
AcDbEntity
  8
Layer 1
  6
ByLayer
 62
    7
370
   -1
100
AcDbPolyline
 90
    5
 70
    0
 43
0
 10
70.027074
 20
146.817662
 10
70.931899
 20
146.817662
 10
70.931899
 20
145.876672
 10
70.027074
 20
145.876672
 10
70.027074
 20
146.817662
  0
LWPOLYLINE
  5
12D
100
AcDbEntity
  8
Layer 1
  6
ByLayer
 62
    7
370
   -1
100
AcDbPolyline
 90
    5
 70
    0
 43
0
 10
70.027074
 20
145.042329
 10
70.931899
 20
145.042329
 10
70.931899
 20
144.101339
 10
70.027074
 20
144.101339
 10
70.027074
 20
145.042329
  0
LWPOLYLINE
  5
12E
100
AcDbEntity
  8
Layer 1
  6
ByLayer
 62
    7
370
   -1
100
AcDbPolyline
 90
    4
 70
    1
 43
0
 10
76.360856
 20
146.817662
 10
77.265681
 20
146.817662
 10
77.265681
 20
145.876672
 10
76.360856
 20
145.876672
  0
LWPOLYLINE
  5
12F
100
AcDbEntity
  8
Layer 1
  6
ByLayer
 62
    7
370
   -1
100
AcDbPolyline
 90
    5
 70
    0
 43
0
 10
79.075335
 20
145.042329
 10
79.980161
 20
145.042329
 10
79.980161
 20
144.101339
 10
79.075335
 20
144.101339
 10
79.075335
 20
145.042329
  0
LWPOLYLINE
  5
130
100
AcDbEntity
  8
Layer 1
  6
ByLayer
 62
    7
370
   -1
100
AcDbPolyline
 90
    5
 70
    0
 43
0
 10
80.884985
 20
148.596132
 10
81.789811
 20
148.596132
 10
81.789811
 20
147.655142
 10
80.884985
 20
147.655142
 10
80.884985
 20
148.596132
  0
LWPOLYLINE
  5
131
100
AcDbEntity
  8
Layer 1
  6
ByLayer
 62
    7
370
   -1
100
AcDbPolyline
 90
    5
 70
    0
 43
0
 10
80.884985
 20
145.042329
 10
81.789811
 20
145.042329
 10
81.789811
 20
144.101339
 10
80.884985
 20
144.101339
 10
80.884985
 20
145.042329
  0
LWPOLYLINE
  5
132
100
AcDbEntity
  8
Layer 1
  6
ByLayer
 62
    7
370
   -1
100
AcDbPolyline
 90
    4
 70
    1
 43
0
 10
83.59946599999999
 20
145.042329
 10
84.504295
 20
145.042329
 10
84.504295
 20
144.101339
 10
83.59946599999999
 20
144.101339
  0
LWPOLYLINE
  5
133
100
AcDbEntity
  8
Layer 1
  6
ByLayer
 62
    7
370
   -1
100
AcDbPolyline
 90
    5
 70
    0
 43
0
 10
85.40912
 20
148.596132
 10
86.313945
 20
148.596132
 10
86.313945
 20
147.655142
 10
85.40912
 20
147.655142
 10
85.40912
 20
148.596132
  0
LWPOLYLINE
  5
134
100
AcDbEntity
  8
Layer 1
  6
ByLayer
 62
    7
370
   -1
100
AcDbPolyline
 90
    5
 70
    0
 43
0
 10
85.40912
 20
146.817662
 10
86.313945
 20
146.817662
 10
86.313945
 20
145.876672
 10
85.40912
 20
145.876672
 10
85.40912
 20
146.817662
  0
LWPOLYLINE
  5
135
100
AcDbEntity
  8
Layer 1
  6
ByLayer
 62
    7
370
   -1
100
AcDbPolyline
 90
    5
 70
    0
 43
0
 10
85.40912
 20
145.042329
 10
86.313945
 20
145.042329
 10
86.313945
 20
144.101339
 10
85.40912
 20
144.101339
 10
85.40912
 20
145.042329
  0
LWPOLYLINE
  5
136
100
AcDbEntity
  8
Layer 1
  6
ByLayer
 62
    7
370
   -1
100
AcDbPolyline
 90
    4
 70
    1
 43
0
 10
88.12358399999999
 20
146.817662
 10
89.028408
 20
146.817662
 10
89.028408
 20
145.876672
 10
88.12358399999999
 20
145.876672
  0
LWPOLYLINE
  5
137
100
AcDbEntity
  8
Layer 1
  6
ByLayer
 62
    7
370
   -1
100
AcDbPolyline
 90
    4
 70
    1
 43
0
 10
88.12358399999999
 20
145.042329
 10
89.028408
 20
145.042329
 10
89.028408
 20
144.101339
 10
88.12358399999999
 20
144.101339
  0
LWPOLYLINE
  5
138
100
AcDbEntity
  8
Layer 1
  6
ByLayer
 62
    7
370
   -1
100
AcDbPolyline
 90
    5
 70
    0
 43
0
 10
92.647718
 20
148.596132
 10
93.552543
 20
148.596132
 10
93.552543
 20
147.655142
 10
92.647718
 20
147.655142
 10
92.647718
 20
148.596132
  0
LWPOLYLINE
  5
139
100
AcDbEntity
  8
Layer 1
  6
ByLayer
 62
    7
370
   -1
100
AcDbPolyline
 90
    5
 70
    0
 43
0
 10
97.171853
 20
148.596132
 10
98.07667600000001
 20
148.596132
 10
98.07667600000001
 20
147.655142
 10
97.171853
 20
147.655142
 10
97.171853
 20
148.596132
  0
LWPOLYLINE
  5
13A
100
AcDbEntity
  8
Layer 1
  6
ByLayer
 62
    7
370
   -1
100
AcDbPolyline
 90
    5
 70
    0
 43
0
 10
97.171853
 20
146.817662
 10
98.07667600000001
 20
146.817662
 10
98.07667600000001
 20
145.876672
 10
97.171853
 20
145.876672
 10
97.171853
 20
146.817662
  0
LWPOLYLINE
  5
13B
100
AcDbEntity
  8
Layer 1
  6
ByLayer
 62
    7
370
   -1
100
AcDbPolyline
 90
    5
 70
    0
 43
0
 10
101.695977
 20
145.042329
 10
102.600804
 20
145.042329
 10
102.600804
 20
144.101339
 10
101.695977
 20
144.101339
 10
101.695977
 20
145.042329
  0
LWPOLYLINE
  5
13C
100
AcDbEntity
  8
Layer 1
  6
ByLayer
 62
    7
370
   -1
100
AcDbPolyline
 90
    5
 70
    0
 43
0
 10
103.505622
 20
148.596132
 10
104.410449
 20
148.596132
 10
104.410449
 20
147.655142
 10
103.505622
 20
147.655142
 10
103.505622
 20
148.596132
  0
LWPOLYLINE
  5
13D
100
AcDbEntity
  8
Layer 1
  6
ByLayer
 62
    7
370
   -1
100
AcDbPolyline
 90
    5
 70
    0
 43
0
 10
103.505622
 20
145.042329
 10
104.410449
 20
145.042329
 10
104.410449
 20
144.101339
 10
103.505622
 20
144.101339
 10
103.505622
 20
145.042329
  0
LWPOLYLINE
  5
13E
100
AcDbEntity
  8
Layer 1
  6
ByLayer
 62
    7
370
   -1
100
AcDbPolyline
 90
    5
 70
    0
 43
0
 10
106.220104
 20
148.596132
 10
107.124941
 20
148.596132
 10
107.124941
 20
147.655142
 10
106.220104
 20
147.655142
 10
106.220104
 20
148.596132
  0
LWPOLYLINE
  5
13F
100
AcDbEntity
  8
Layer 1
  6
ByLayer
 62
    7
370
   -1
100
AcDbPolyline
 90
    5
 70
    0
 43
0
 10
106.220104
 20
146.817662
 10
107.124941
 20
146.817662
 10
107.124941
 20
145.876672
 10
106.220104
 20
145.876672
 10
106.220104
 20
146.817662
  0
LWPOLYLINE
  5
140
100
AcDbEntity
  8
Layer 1
  6
ByLayer
 62
    7
370
   -1
100
AcDbPolyline
 90
    5
 70
    0
 43
0
 10
112.553887
 20
148.596132
 10
113.458705
 20
148.596132
 10
113.458705
 20
147.655142
 10
112.553887
 20
147.655142
 10
112.553887
 20
148.596132
  0
LWPOLYLINE
  5
141
100
AcDbEntity
  8
Layer 1
  6
ByLayer
 62
    7
370
   -1
100
AcDbPolyline
 90
    5
 70
    0
 43
0
 10
112.553887
 20
146.817662
 10
113.458705
 20
146.817662
 10
113.458705
 20
145.876672
 10
112.553887
 20
145.876672
 10
112.553887
 20
146.817662
  0
LWPOLYLINE
  5
142
100
AcDbEntity
  8
Layer 1
  6
ByLayer
 62
    7
370
   -1
100
AcDbPolyline
 90
    5
 70
    0
 43
0
 10
115.26836
 20
145.042329
 10
116.173187
 20
145.042329
 10
116.173187
 20
144.101339
 10
115.26836
 20
144.101339
 10
115.26836
 20
145.042329
  0
LWPOLYLINE
  5
143
100
AcDbEntity
  8
Layer 1
  6
ByLayer
 62
    7
370
   -1
100
AcDbPolyline
 90
    5
 70
    0
 43
0
 10
117.078015
 20
148.596132
 10
117.982832
 20
148.596132
 10
117.982832
 20
147.655142
 10
117.078015
 20
147.655142
 10
117.078015
 20
148.596132
  0
LWPOLYLINE
  5
144
100
AcDbEntity
  8
Layer 1
  6
ByLayer
 62
    7
370
   -1
100
AcDbPolyline
 90
    5
 70
    0
 43
0
 10
117.078015
 20
146.817662
 10
117.982832
 20
146.817662
 10
117.982832
 20
145.876672
 10
117.078015
 20
145.876672
 10
117.078015
 20
146.817662
  0
LWPOLYLINE
  5
145
100
AcDbEntity
  8
Layer 1
  6
ByLayer
 62
    7
370
   -1
100
AcDbPolyline
 90
    5
 70
    0
 43
0
 10
117.078015
 20
145.042329
 10
117.982832
 20
145.042329
 10
117.982832
 20
144.101339
 10
117.078015
 20
144.101339
 10
117.078015
 20
145.042329
  0
LWPOLYLINE
  5
146
100
AcDbEntity
  8
Layer 1
  6
ByLayer
 62
    7
370
   -1
100
AcDbPolyline
 90
    5
 70
    0
 43
0
 10
119.792497
 20
146.817662
 10
120.697315
 20
146.817662
 10
120.697315
 20
145.876672
 10
119.792497
 20
145.876672
 10
119.792497
 20
146.817662
  0
LWPOLYLINE
  5
147
100
AcDbEntity
  8
Layer 1
  6
ByLayer
 62
    7
370
   -1
100
AcDbPolyline
 90
    5
 70
    0
 43
0
 10
119.792497
 20
145.042329
 10
120.697315
 20
145.042329
 10
120.697315
 20
144.101339
 10
119.792497
 20
144.101339
 10
119.792497
 20
145.042329
  0
LWPOLYLINE
  5
148
100
AcDbEntity
  8
Layer 1
  6
ByLayer
 62
    7
370
   -1
100
AcDbPolyline
 90
    5
 70
    0
 43
0
 10
126.12628
 20
146.817662
 10
127.031107
 20
146.817662
 10
127.031107
 20
145.876672
 10
126.12628
 20
145.876672
 10
126.12628
 20
146.817662
  0
LINE
  5
149
100
AcDbEntity
  8
Layer 1
  6
ByLayer
 62
    7
370
   -1
100
AcDbLine
 10
-1.387778780781446e-16
 20
199.793442
 11
129.793861
 21
199.793442
  0
LINE
  5
14A
100
AcDbEntity
  8
Layer 1
  6
ByLayer
 62
    7
370
   -1
100
AcDbLine
 10
129.793861
 20
199.793442
 11
129.793861
 21
0
  0
LINE
  5
14B
100
AcDbEntity
  8
Layer 1
  6
ByLayer
 62
    7
370
   -1
100
AcDbLine
 10
129.793861
 20
0
 11
-1.387778780781446e-16
 21
0
  0
LINE
  5
14C
100
AcDbEntity
  8
Layer 1
  6
ByLayer
 62
    7
370
   -1
100
AcDbLine
 10
-1.387778780781446e-16
 20
150.782546
 11
-1.387778780781446e-16
 21
199.793442
  0
LINE
  5
14D
100
AcDbEntity
  8
0
  6
ByLayer
 62
  256
370
   -1
100
AcDbLine
 10
-1.387778780781446e-16
 20
150.782546
 11
-1.387778780781446e-16
 21
141.914919
  0
LINE
  5
14E
100
AcDbEntity
  8
0
  6
ByLayer
 62
  256
370
   -1
100
AcDbLine
 10
-1.387778780781446e-16
 20
141.914919
 11
-1.387778780781446e-16
 21
0
  0
LWPOLYLINE
  5
14F
100
AcDbEntity
  8
Layer 1
  6
ByLayer
 62
    7
370
   -1
100
AcDbPolyline
 90
    5
 70
    0
 43
0
 10
164.479017
 20
73.400712
 10
203.585839
 20
73.400712
 10
203.585839
 20
64.533112
 10
164.479017
 20
64.533112
 10
164.479017
 20
73.400712
  0
LWPOLYLINE
  5
150
100
AcDbEntity
  8
Layer 1
  6
ByLayer
 62
    7
370
   -1
100
AcDbPolyline
 90
    5
 70
    0
 43
0
 10
167.571959
 20
72.413172
 10
169.003305
 20
72.413172
 10
169.003305
 20
70.970214
 10
167.571959
 20
70.970214
 10
167.571959
 20
72.413172
  0
LWPOLYLINE
  5
151
100
AcDbEntity
  8
Layer 1
  6
ByLayer
 62
    7
370
   -1
100
AcDbPolyline
 90
    5
 70
    0
 43
0
 10
177.591374
 20
72.413172
 10
179.022719
 20
72.413172
 10
179.022719
 20
70.970214
 10
177.591374
 20
70.970214
 10
177.591374
 20
72.413172
  0
LWPOLYLINE
  5
152
100
AcDbEntity
  8
Layer 1
  6
ByLayer
 62
    7
370
   -1
100
AcDbPolyline
 90
    5
 70
    0
 43
0
 10
177.591374
 20
69.685986
 10
179.022719
 20
69.685986
 10
179.022719
 20
68.243028
 10
177.591374
 20
68.243028
 10
177.591374
 20
69.685986
  0
LWPOLYLINE
  5
153
100
AcDbEntity
  8
Layer 1
  6
ByLayer
 62
    7
370
   -1
100
AcDbPolyline
 90
    5
 70
    0
 43
0
 10
181.885409
 20
66.963599
 10
183.316754
 20
66.963599
 10
183.316754
 20
65.520641
 10
181.885409
 20
65.520641
 10
181.885409
 20
66.963599
  0
LWPOLYLINE
  5
154
100
AcDbEntity
  8
Layer 1
  6
ByLayer
 62
    7
370
   -1
100
AcDbPolyline
 90
    5
 70
    0
 43
0
 10
184.748099
 20
72.413172
 10
186.179443
 20
72.413172
 10
186.179443
 20
70.970214
 10
184.748099
 20
70.970214
 10
184.748099
 20
72.413172
  0
LWPOLYLINE
  5
155
100
AcDbEntity
  8
Layer 1
  6
ByLayer
 62
    7
370
   -1
100
AcDbPolyline
 90
    5
 70
    0
 43
0
 10
184.748099
 20
69.685986
 10
186.179443
 20
69.685986
 10
186.179443
 20
68.243028
 10
184.748099
 20
68.243028
 10
184.748099
 20
69.685986
  0
LWPOLYLINE
  5
156
100
AcDbEntity
  8
Layer 1
  6
ByLayer
 62
    7
370
   -1
100
AcDbPolyline
 90
    5
 70
    0
 43
0
 10
184.748099
 20
66.963599
 10
186.179443
 20
66.963599
 10
186.179443
 20
65.520641
 10
184.748099
 20
65.520641
 10
184.748099
 20
66.963599
  0
LWPOLYLINE
  5
157
100
AcDbEntity
  8
Layer 1
  6
ByLayer
 62
    7
370
   -1
100
AcDbPolyline
 90
    5
 70
    0
 43
0
 10
189.042134
 20
69.685986
 10
190.473479
 20
69.685986
 10
190.473479
 20
68.243028
 10
189.042134
 20
68.243028
 10
189.042134
 20
69.685986
  0
LWPOLYLINE
  5
158
100
AcDbEntity
  8
Layer 1
  6
ByLayer
 62
    7
370
   -1
100
AcDbPolyline
 90
    5
 70
    0
 43
0
 10
189.042134
 20
66.963599
 10
190.473479
 20
66.963599
 10
190.473479
 20
65.520641
 10
189.042134
 20
65.520641
 10
189.042134
 20
66.963599
  0
LWPOLYLINE
  5
159
100
AcDbEntity
  8
Layer 1
  6
ByLayer
 62
    7
370
   -1
100
AcDbPolyline
 90
    5
 70
    0
 43
0
 10
199.061548
 20
69.685986
 10
200.492893
 20
69.685986
 10
200.492893
 20
68.243028
 10
199.061548
 20
68.243028
 10
199.061548
 20
69.685986
  0
LWPOLYLINE
  5
15A
100
AcDbEntity
  8
Layer 1
  6
ByLayer
 62
    7
370
   -1
100
AcDbPolyline
 90
    5
 70
    0
 43
0
 10
174.895154
 20
21.424182
 10
193.169708
 20
21.424182
 10
193.169708
 20
12.556582
 10
174.895154
 20
12.556582
 10
174.895154
 20
21.424182
  0
LWPOLYLINE
  5
15B
100
AcDbEntity
  8
Layer 1
  6
ByLayer
 62
    7
370
   -1
100
AcDbPolyline
 90
    6
 70
    0
 43
0
 10
182.096366
 20
16.89814
 10
182.283845
 20
16.71115
 10
182.096366
 20
16.52416
 10
181.91088
 20
16.71115
 10
182.096366
 20
16.89814
 10
182.096366
 20
16.89814
  0
LWPOLYLINE
  5
15C
100
AcDbEntity
  8
Layer 1
  6
ByLayer
 62
    7
370
   -1
100
AcDbPolyline
 90
    6
 70
    0
 43
0
 10
182.096366
 20
13.920375
 10
182.283845
 20
13.731377
 10
182.096366
 20
13.544387
 10
181.91088
 20
13.731377
 10
182.096366
 20
13.920375
 10
182.096366
 20
13.920375
  0
LWPOLYLINE
  5
15D
100
AcDbEntity
  8
Layer 1
  6
ByLayer
 62
    7
370
   -1
100
AcDbPolyline
 90
    6
 70
    0
 43
0
 10
179.142564
 20
13.920375
 10
179.330044
 20
13.731377
 10
179.142564
 20
13.544387
 10
178.955084
 20
13.731377
 10
179.142564
 20
13.920375
 10
179.142564
 20
13.920375
  0
LWPOLYLINE
  5
15E
100
AcDbEntity
  8
Layer 1
  6
ByLayer
 62
    7
370
   -1
100
AcDbPolyline
 90
    6
 70
    0
 43
0
 10
182.096366
 20
19.877921
 10
182.283845
 20
19.690931
 10
182.096366
 20
19.501926
 10
181.91088
 20
19.690931
 10
182.096366
 20
19.877921
 10
182.096366
 20
19.877921
  0
LWPOLYLINE
  5
15F
100
AcDbEntity
  8
Layer 1
  6
ByLayer
 62
    7
370
   -1
100
AcDbPolyline
 90
    6
 70
    0
 43
0
 10
179.142564
 20
16.89814
 10
179.330044
 20
16.71115
 10
179.142564
 20
16.52416
 10
178.955084
 20
16.71115
 10
179.142564
 20
16.89814
 10
179.142564
 20
16.89814
  0
LWPOLYLINE
  5
160
100
AcDbEntity
  8
Layer 1
  6
ByLayer
 62
    7
370
   -1
100
AcDbPolyline
 90
   10
 70
    0
 43
0
 10
179.142564
 20
20.436876
 10
179.665114
 20
20.217721
 10
179.884505
 20
19.690931
 10
179.665114
 20
19.162133
 10
179.142564
 20
18.94297
 10
178.618019
 20
19.162133
 10
178.400623
 20
19.690931
 10
178.618019
 20
20.217721
 10
179.142564
 20
20.436876
 10
179.142564
 20
20.436876
  0
LWPOLYLINE
  5
161
100
AcDbEntity
  8
Layer 1
  6
ByLayer
 62
    7
370
   -1
100
AcDbPolyline
 90
    6
 70
    0
 43
0
 10
189.475884
 20
16.89814
 10
189.663364
 20
16.71115
 10
189.475884
 20
16.52416
 10
189.290399
 20
16.71115
 10
189.475884
 20
16.89814
 10
189.475884
 20
16.89814
  0
LWPOLYLINE
  5
162
100
AcDbEntity
  8
Layer 1
  6
ByLayer
 62
    7
370
   -1
100
AcDbPolyline
 90
    6
 70
    0
 43
0
 10
189.475884
 20
13.920375
 10
189.663364
 20
13.731377
 10
189.475884
 20
13.544387
 10
189.290399
 20
13.731377
 10
189.475884
 20
13.920375
 10
189.475884
 20
13.920375
  0
LWPOLYLINE
  5
163
100
AcDbEntity
  8
Layer 1
  6
ByLayer
 62
    7
370
   -1
100
AcDbPolyline
 90
    6
 70
    0
 43
0
 10
186.522082
 20
13.920375
 10
186.709562
 20
13.731377
 10
186.522082
 20
13.544387
 10
186.334603
 20
13.731377
 10
186.522082
 20
13.920375
 10
186.522082
 20
13.920375
  0
LWPOLYLINE
  5
164
100
AcDbEntity
  8
Layer 1
  6
ByLayer
 62
    7
370
   -1
100
AcDbPolyline
 90
   10
 70
    0
 43
0
 10
186.522082
 20
17.45911
 10
187.044632
 20
17.23794
 10
187.264023
 20
16.71115
 10
187.044632
 20
16.182352
 10
186.522082
 20
15.96319
 10
185.997538
 20
16.182352
 10
185.780142
 20
16.71115
 10
185.997538
 20
17.23794
 10
186.522082
 20
17.45911
 10
186.522082
 20
17.45911
  0
LWPOLYLINE
  5
165
100
AcDbEntity
  8
Layer 1
  6
ByLayer
 62
    7
370
   -1
100
AcDbPolyline
 90
    6
 70
    0
 43
0
 10
189.475884
 20
19.877921
 10
189.663364
 20
19.690931
 10
189.475884
 20
19.501926
 10
189.290399
 20
19.690931
 10
189.475884
 20
19.877921
 10
189.475884
 20
19.877921
  0
LWPOLYLINE
  5
166
100
AcDbEntity
  8
Layer 1
  6
ByLayer
 62
    7
370
   -1
100
AcDbPolyline
 90
   10
 70
    0
 43
0
 10
186.522082
 20
20.436876
 10
187.044632
 20
20.217721
 10
187.264023
 20
19.690931
 10
187.044632
 20
19.162133
 10
186.522082
 20
18.94297
 10
185.997538
 20
19.162133
 10
185.780142
 20
19.690931
 10
185.997538
 20
20.217721
 10
186.522082
 20
20.436876
 10
186.522082
 20
20.436876
  0
LWPOLYLINE
  5
167
100
AcDbEntity
  8
Layer 1
  6
ByLayer
 62
    7
370
   -1
100
AcDbPolyline
 90
    5
 70
    0
 43
0
 10
227.745154
 20
73.400182
 10
246.019708
 20
73.400182
 10
246.019708
 20
64.532582
 10
227.745154
 20
64.532582
 10
227.745154
 20
73.400182
  0
LWPOLYLINE
  5
168
100
AcDbEntity
  8
Layer 1
  6
ByLayer
 62
    7
370
   -1
100
AcDbPolyline
 90
    6
 70
    0
 43
0
 10
234.946366
 20
68.87414
 10
235.133845
 20
68.68715
 10
234.946366
 20
68.50016000000001
 10
234.76088
 20
68.68715
 10
234.946366
 20
68.87414
 10
234.946366
 20
68.87414
  0
LWPOLYLINE
  5
169
100
AcDbEntity
  8
Layer 1
  6
ByLayer
 62
    7
370
   -1
100
AcDbPolyline
 90
    6
 70
    0
 43
0
 10
234.946366
 20
65.89637500000001
 10
235.133845
 20
65.70737700000001
 10
234.946366
 20
65.520387
 10
234.76088
 20
65.70737700000001
 10
234.946366
 20
65.89637500000001
 10
234.946366
 20
65.89637500000001
  0
LWPOLYLINE
  5
16A
100
AcDbEntity
  8
Layer 1
  6
ByLayer
 62
    7
370
   -1
100
AcDbPolyline
 90
    6
 70
    0
 43
0
 10
231.992564
 20
65.89637500000001
 10
232.180044
 20
65.70737700000001
 10
231.992564
 20
65.520387
 10
231.805084
 20
65.70737700000001
 10
231.992564
 20
65.89637500000001
 10
231.992564
 20
65.89637500000001
  0
LWPOLYLINE
  5
16B
100
AcDbEntity
  8
Layer 1
  6
ByLayer
 62
    7
370
   -1
100
AcDbPolyline
 90
    6
 70
    0
 43
0
 10
234.946366
 20
71.853921
 10
235.133845
 20
71.66693100000001
 10
234.946366
 20
71.477926
 10
234.76088
 20
71.66693100000001
 10
234.946366
 20
71.853921
 10
234.946366
 20
71.853921
  0
LWPOLYLINE
  5
16C
100
AcDbEntity
  8
Layer 1
  6
ByLayer
 62
    7
370
   -1
100
AcDbPolyline
 90
    6
 70
    0
 43
0
 10
231.992564
 20
68.87414
 10
232.180044
 20
68.68715
 10
231.992564
 20
68.50016000000001
 10
231.805084
 20
68.68715
 10
231.992564
 20
68.87414
 10
231.992564
 20
68.87414
  0
LWPOLYLINE
  5
16D
100
AcDbEntity
  8
Layer 1
  6
ByLayer
 62
    7
370
   -1
100
AcDbPolyline
 90
   10
 70
    0
 43
0
 10
231.992564
 20
72.412876
 10
232.515114
 20
72.193721
 10
232.734505
 20
71.66693100000001
 10
232.515114
 20
71.138133
 10
231.992564
 20
70.91897
 10
231.468019
 20
71.138133
 10
231.250623
 20
71.66693100000001
 10
231.468019
 20
72.193721
 10
231.992564
 20
72.412876
 10
231.992564
 20
72.412876
  0
LWPOLYLINE
  5
16E
100
AcDbEntity
  8
Layer 1
  6
ByLayer
 62
    7
370
   -1
100
AcDbPolyline
 90
    6
 70
    0
 43
0
 10
242.325884
 20
68.87414
 10
242.513364
 20
68.68715
 10
242.325884
 20
68.50016000000001
 10
242.140399
 20
68.68715
 10
242.325884
 20
68.87414
 10
242.325884
 20
68.87414
  0
LWPOLYLINE
  5
16F
100
AcDbEntity
  8
Layer 1
  6
ByLayer
 62
    7
370
   -1
100
AcDbPolyline
 90
    6
 70
    0
 43
0
 10
242.325884
 20
65.89637500000001
 10
242.513364
 20
65.70737700000001
 10
242.325884
 20
65.520387
 10
242.140399
 20
65.70737700000001
 10
242.325884
 20
65.89637500000001
 10
242.325884
 20
65.89637500000001
  0
LWPOLYLINE
  5
170
100
AcDbEntity
  8
Layer 1
  6
ByLayer
 62
    7
370
   -1
100
AcDbPolyline
 90
    6
 70
    0
 43
0
 10
239.372082
 20
65.89637500000001
 10
239.559562
 20
65.70737700000001
 10
239.372082
 20
65.520387
 10
239.184603
 20
65.70737700000001
 10
239.372082
 20
65.89637500000001
 10
239.372082
 20
65.89637500000001
  0
LWPOLYLINE
  5
171
100
AcDbEntity
  8
Layer 1
  6
ByLayer
 62
    7
370
   -1
100
AcDbPolyline
 90
   10
 70
    0
 43
0
 10
239.372082
 20
69.43511000000001
 10
239.894632
 20
69.21394000000001
 10
240.114023
 20
68.68715
 10
239.894632
 20
68.15835200000001
 10
239.372082
 20
67.93919
 10
238.847538
 20
68.15835200000001
 10
238.630142
 20
68.68715
 10
238.847538
 20
69.21394000000001
 10
239.372082
 20
69.43511000000001
 10
239.372082
 20
69.43511000000001
  0
LWPOLYLINE
  5
172
100
AcDbEntity
  8
Layer 1
  6
ByLayer
 62
    7
370
   -1
100
AcDbPolyline
 90
    6
 70
    0
 43
0
 10
242.325884
 20
71.853921
 10
242.513364
 20
71.66693100000001
 10
242.325884
 20
71.477926
 10
242.140399
 20
71.66693100000001
 10
242.325884
 20
71.853921
 10
242.325884
 20
71.853921
  0
LWPOLYLINE
  5
173
100
AcDbEntity
  8
Layer 1
  6
ByLayer
 62
    7
370
   -1
100
AcDbPolyline
 90
   10
 70
    0
 43
0
 10
239.372082
 20
72.412876
 10
239.894632
 20
72.193721
 10
240.114023
 20
71.66693100000001
 10
239.894632
 20
71.138133
 10
239.372082
 20
70.91897
 10
238.847538
 20
71.138133
 10
238.630142
 20
71.66693100000001
 10
238.847538
 20
72.193721
 10
239.372082
 20
72.412876
 10
239.372082
 20
72.412876
  0
LWPOLYLINE
  5
174
100
AcDbEntity
  8
Layer 1
  6
ByLayer
 62
    7
370
   -1
100
AcDbPolyline
 90
    5
 70
    0
 43
0
 10
219.264126
 20
19.353224
 10
220.658203
 20
19.353224
 10
220.658203
 20
18.009201
 10
219.264126
 20
18.009201
 10
219.264126
 20
19.353224
  0
LWPOLYLINE
  5
175
100
AcDbEntity
  8
Layer 1
  6
ByLayer
 62
    7
370
   -1
100
AcDbPolyline
 90
    5
 70
    0
 43
0
 10
219.264126
 20
16.813025
 10
220.658203
 20
16.813025
 10
220.658203
 20
15.469002
 10
219.264126
 20
15.469002
 10
219.264126
 20
16.813025
  0
LWPOLYLINE
  5
176
100
AcDbEntity
  8
Layer 1
  6
ByLayer
 62
    7
370
   -1
100
AcDbPolyline
 90
    5
 70
    0
 43
0
 10
229.022649
 20
19.353224
 10
230.416725
 20
19.353224
 10
230.416725
 20
18.009201
 10
229.022649
 20
18.009201
 10
229.022649
 20
19.353224
  0
LWPOLYLINE
  5
177
100
AcDbEntity
  8
Layer 1
  6
ByLayer
 62
    7
370
   -1
100
AcDbPolyline
 90
    5
 70
    0
 43
0
 10
229.022649
 20
16.813025
 10
230.416725
 20
16.813025
 10
230.416725
 20
15.469002
 10
229.022649
 20
15.469002
 10
229.022649
 20
16.813025
  0
LWPOLYLINE
  5
178
100
AcDbEntity
  8
Layer 1
  6
ByLayer
 62
    7
370
   -1
100
AcDbPolyline
 90
    5
 70
    0
 43
0
 10
233.204878
 20
14.277307
 10
234.598954
 20
14.277307
 10
234.598954
 20
12.933284
 10
233.204878
 20
12.933284
 10
233.204878
 20
14.277307
  0
LWPOLYLINE
  5
179
100
AcDbEntity
  8
Layer 1
  6
ByLayer
 62
    7
370
   -1
100
AcDbPolyline
 90
    5
 70
    0
 43
0
 10
235.99303
 20
19.353224
 10
237.387106
 20
19.353224
 10
237.387106
 20
18.009201
 10
235.99303
 20
18.009201
 10
235.99303
 20
19.353224
  0
LWPOLYLINE
  5
17A
100
AcDbEntity
  8
Layer 1
  6
ByLayer
 62
    7
370
   -1
100
AcDbPolyline
 90
    5
 70
    0
 43
0
 10
235.99303
 20
16.813025
 10
237.387106
 20
16.813025
 10
237.387106
 20
15.469002
 10
235.99303
 20
15.469002
 10
235.99303
 20
16.813025
  0
LWPOLYLINE
  5
17B
100
AcDbEntity
  8
Layer 1
  6
ByLayer
 62
    7
370
   -1
100
AcDbPolyline
 90
    5
 70
    0
 43
0
 10
235.99303
 20
14.277307
 10
237.387106
 20
14.277307
 10
237.387106
 20
12.933284
 10
235.99303
 20
12.933284
 10
235.99303
 20
14.277307
  0
LWPOLYLINE
  5
17C
100
AcDbEntity
  8
Layer 1
  6
ByLayer
 62
    7
370
   -1
100
AcDbPolyline
 90
    5
 70
    0
 43
0
 10
240.175248
 20
16.813025
 10
241.569324
 20
16.813025
 10
241.569324
 20
15.469002
 10
240.175248
 20
15.469002
 10
240.175248
 20
16.813025
  0
LWPOLYLINE
  5
17D
100
AcDbEntity
  8
Layer 1
  6
ByLayer
 62
    7
370
   -1
100
AcDbPolyline
 90
    5
 70
    0
 43
0
 10
240.175248
 20
14.277307
 10
241.569324
 20
14.277307
 10
241.569324
 20
12.933284
 10
240.175248
 20
12.933284
 10
240.175248
 20
14.277307
  0
LWPOLYLINE
  5
17E
100
AcDbEntity
  8
Layer 1
  6
ByLayer
 62
    7
370
   -1
100
AcDbPolyline
 90
    5
 70
    0
 43
0
 10
249.933781
 20
16.813025
 10
251.327847
 20
16.813025
 10
251.327847
 20
15.469002
 10
249.933781
 20
15.469002
 10
249.933781
 20
16.813025
  0
LWPOLYLINE
  5
17F
100
AcDbEntity
  8
Layer 1
  6
ByLayer
 62
    7
370
   -1
100
AcDbPolyline
 90
   41
 70
    0
 43
0
 10
183.436395
 20
74.252478
 10
183.436395
 20
74.555599
 10
182.927539
 20
74.33408300000001
 10
182.654318
 20
74.47982
 10
182.580592
 20
75.010294
 10
182.580592
 20
77.283734
 10
182.53144
 20
78.000741
 10
182.360859
 20
78.472919
 10
181.811527
 20
78.97715700000001
 10
180.915248
 20
79.14912200000001
 10
180.08113
 20
79.033993
 10
179.446507
 20
78.717752
 10
179.101006
 20
78.298039
 10
178.972346
 20
77.843351
 10
179.116907
 20
77.49213400000001
 10
179.469636
 20
77.34203000000001
 10
179.83393
 20
77.49067700000001
 10
179.990056
 20
77.831689
 10
179.966927
 20
78.018233
 10
179.932229
 20
78.29803700000001
 10
180.175092
 20
78.70172100000001
 10
180.764901
 20
78.869317
 10
181.141302
 20
78.806652
 10
181.416872
 20
78.62157000000001
 10
181.643833
 20
77.90164800000001
 10
181.643833
 20
77.190466
 10
179.925001
 20
76.455968
 10
179.168946
 20
75.93132900000001
 10
178.865368
 20
75.48101
 10
178.75261
 20
74.917018
 10
178.841515
 20
74.41223600000001
 10
179.090883
 20
74.01784600000001
 10
179.474693
 20
73.761173
 10
179.966924
 20
73.669543
 10
180.737435
 20
73.867741
 10
181.655398
 20
74.520628
 10
181.869349
 20
73.86336800000001
 10
182.395551
 20
73.669543
 10
182.911634
 20
73.794873
 10
183.436391
 20
74.252478
 10
183.436395
 20
74.252478
  0
LWPOLYLINE
  5
180
100
AcDbEntity
  8
Layer 1
  6
ByLayer
 62
    7
370
   -1
100
AcDbPolyline
 90
   11
 70
    0
 43
0
 10
181.643836
 20
75.220147
 10
181.584565
 20
74.83249500000001
 10
181.343149
 20
74.602233
 10
180.498912
 20
74.34574600000001
 10
179.982828
 20
74.60661
 10
179.770323
 20
75.243464
 10
179.770323
 20
75.29006700000001
 10
179.866276
 20
75.76133300000001
 10
180.182323
 20
76.165925
 10
181.643836
 20
76.910622
 10
181.643836
 20
75.220147
  0
LWPOLYLINE
  5
181
100
AcDbEntity
  8
Layer 1
  6
ByLayer
 62
    7
370
   -1
100
AcDbPolyline
 90
   29
 70
    0
 43
0
 10
187.030194
 20
79.48781
 10
186.932471
 20
79.525719
 10
186.597956
 20
79.11365500000001
 10
186.218337
 20
79.025558
 10
184.421728
 20
79.025558
 10
185.684617
 20
80.359314
 10
186.416604
 20
81.33784199999999
 10
186.646818
 20
82.231116
 10
186.539463
 20
82.76040400000001
 10
186.244648
 20
83.18596600000001
 10
185.803247
 20
83.469438
 10
185.256136
 20
83.57245400000001
 10
184.664157
 20
83.45120300000001
 10
184.173661
 20
83.102604
 10
183.890826
 20
82.68865100000001
 10
183.69256
 20
82.064404
 10
183.850421
 20
82.026495
 10
184.313668
 20
82.797572
 10
184.940414
 20
83.01165400000001
 10
185.372418
 20
82.93421500000001
 10
185.707168
 20
82.716105
 10
185.923523
 20
82.378641
 10
186.000339
 20
81.943135
 10
185.748513
 20
80.989234
 10
185.023104
 20
79.972808
 10
183.685043
 20
78.540536
 10
183.685043
 20
78.449602
 10
186.616748
 20
78.449602
 10
187.030194
 20
79.48781
  0
LWPOLYLINE
  5
182
100
AcDbEntity
  8
Layer 1
  6
ByLayer
 62
    7
370
   -1
100
AcDbPolyline
 90
   25
 70
    0
 43
0
 10
236.162085
 20
23.640879
 10
236.006681
 20
24.641158
 10
235.578056
 20
25.443604
 10
234.932589
 20
25.977172
 10
234.12666
 20
26.170815
 10
233.145089
 20
25.889552
 10
232.768689
 20
25.575679
 10
232.519142
 20
25.179829
 10
232.519142
 20
28.747385
 10
232.461338
 20
28.770725
 10
231.119813
 20
28.351018
 10
230.784432
 20
28.257742
 10
230.784432
 20
28.071206
 10
230.981036
 20
28.082876
 10
231.437848
 20
27.969203
 10
231.547712
 20
27.48828
 10
231.547712
 20
21.437422
 10
231.715764
 20
21.168362
 10
232.154868
 20
20.928813
 10
233.455921
 20
20.691268
 10
234.522784
 20
20.917701
 10
235.381478
 20
21.540894
 10
235.95394
 20
22.476684
 10
236.162108
 20
23.640911
 10
236.162085
 20
23.640879
  0
LWPOLYLINE
  5
183
100
AcDbEntity
  8
Layer 1
  6
ByLayer
 62
    7
370
   -1
100
AcDbPolyline
 90
   16
 70
    0
 43
0
 10
235.144372
 20
23.104587
 10
235.042818
 20
22.23984
 10
234.748274
 20
21.599159
 10
234.27592
 20
21.201125
 10
233.640933
 20
21.064317
 10
232.854522
 20
21.234826
 10
232.519142
 20
21.623935
 10
232.519142
 20
24.561923
 10
232.613468
 20
24.890369
 10
232.866087
 20
25.169631
 10
233.664063
 20
25.436324
 10
234.27592
 20
25.272009
 10
234.742492
 20
24.803839
 10
235.039927
 20
24.068977
 10
235.144372
 20
23.104587
 10
235.144372
 20
23.104587
  0
LWPOLYLINE
  5
184
100
AcDbEntity
  8
Layer 1
  6
ByLayer
 62
    7
370
   -1
100
AcDbPolyline
 90
   29
 70
    0
 43
0
 10
240.102828
 20
26.509504
 10
240.005105
 20
26.547413
 10
239.67059
 20
26.135348
 10
239.290974
 20
26.047251
 10
237.494356
 20
26.047251
 10
238.757248
 20
27.381007
 10
239.489234
 20
28.359536
 10
239.719448
 20
29.252818
 10
239.612093
 20
29.782104
 10
239.31728
 20
30.207663
 10
238.875879
 20
30.491132
 10
238.328766
 20
30.594147
 10
237.736792
 20
30.472897
 10
237.246295
 20
30.124305
 10
236.963457
 20
29.710345
 10
236.765191
 20
29.086097
 10
236.92305
 20
29.048188
 10
237.386299
 20
29.819265
 10
238.013049
 20
30.033348
 10
238.445051
 20
29.955908
 10
238.779801
 20
29.737799
 10
238.996156
 20
29.400334
 10
239.072972
 20
28.964828
 10
238.821146
 20
28.010929
 10
238.095738
 20
26.994509
 10
236.757678
 20
25.562238
 10
236.757678
 20
25.471296
 10
239.68938
 20
25.471296
 10
240.102828
 20
26.509504
  0
LWPOLYLINE
  5
185
100
AcDbEntity
  8
Layer 1
  6
ByLayer
 62
    7
370
   -1
100
AcDbPolyline
 90
   41
 70
    0
 43
0
 10
235.067931
 20
74.25261
 10
235.067931
 20
74.55573
 10
234.559071
 20
74.33422
 10
234.285855
 20
74.479958
 10
234.212131
 20
75.01043
 10
234.212131
 20
77.28387000000001
 10
234.16299
 20
78.00087600000001
 10
233.992401
 20
78.47306
 10
233.443067
 20
78.97729100000001
 10
232.546791
 20
79.14924999999999
 10
231.712671
 20
79.034126
 10
231.078051
 20
78.71789
 10
230.732547
 20
78.29818
 10
230.603891
 20
77.84349
 10
230.748451
 20
77.49226900000001
 10
231.101181
 20
77.34216000000001
 10
231.465467
 20
77.490813
 10
231.621591
 20
77.83184
 10
231.598391
 20
78.01837
 10
231.563691
 20
78.29817
 10
231.806551
 20
78.701853
 10
232.396361
 20
78.86945
 10
232.772762
 20
78.806785
 10
233.048331
 20
78.62170400000001
 10
233.275291
 20
77.90178
 10
233.275291
 20
77.19061000000001
 10
231.556458
 20
76.456103
 10
230.800401
 20
75.93146
 10
230.496825
 20
75.481145
 10
230.384071
 20
74.91716
 10
230.472976
 20
74.412373
 10
230.722344
 20
74.017978
 10
231.106152
 20
73.761301
 10
231.598381
 20
73.66967
 10
232.368887
 20
73.867873
 10
233.286851
 20
74.52077
 10
233.500791
 20
73.8635
 10
234.027001
 20
73.66967
 10
234.543086
 20
73.79500400000001
 10
235.067841
 20
74.25261
 10
235.067931
 20
74.25261
  0
LWPOLYLINE
  5
186
100
AcDbEntity
  8
Layer 1
  6
ByLayer
 62
    7
370
   -1
100
AcDbPolyline
 90
   11
 70
    0
 43
0
 10
233.275381
 20
75.22028
 10
233.21612
 20
74.832629
 10
232.974691
 20
74.60238
 10
232.130441
 20
74.34588000000001
 10
231.614362
 20
74.606741
 10
231.401861
 20
75.2436
 10
231.401861
 20
75.2902
 10
231.497814
 20
75.76147
 10
231.813861
 20
76.16606400000001
 10
233.275381
 20
76.91076
 10
233.275381
 20
75.22028
  0
LWPOLYLINE
  5
187
100
AcDbEntity
  8
Layer 1
  6
ByLayer
 62
    7
370
   -1
100
AcDbPolyline
 90
   25
 70
    0
 43
0
 10
240.503431
 20
76.61933000000001
 10
240.348026
 20
77.619603
 10
239.9194
 20
78.422044
 10
239.273931
 20
78.955608
 10
238.468001
 20
79.14924999999999
 10
237.486435
 20
78.867991
 10
237.110032
 20
78.554124
 10
236.860481
 20
78.15828
 10
236.860481
 20
81.72583
 10
236.802681
 20
81.74923
 10
235.461141
 20
81.32952
 10
235.125761
 20
81.23622
 10
235.125761
 20
81.04968
 10
235.322361
 20
81.06138
 10
235.779176
 20
80.947706
 10
235.889041
 20
80.46678
 10
235.889041
 20
74.41593
 10
236.057094
 20
74.146868
 10
236.4962
 20
73.907318
 10
237.797251
 20
73.66977
 10
238.864109
 20
73.896204
 10
239.722801
 20
74.51939900000001
 10
240.295263
 20
75.455191
 10
240.503431
 20
76.61942000000001
 10
240.503431
 20
76.61933000000001
  0
LWPOLYLINE
  5
188
100
AcDbEntity
  8
Layer 1
  6
ByLayer
 62
    7
370
   -1
100
AcDbPolyline
 90
   16
 70
    0
 43
0
 10
239.485711
 20
76.08303000000001
 10
239.384158
 20
75.218281
 10
239.089617
 20
74.5776
 10
238.617269
 20
74.17956700000001
 10
237.982291
 20
74.04276
 10
237.195868
 20
74.21326500000001
 10
236.860481
 20
74.60238
 10
236.860481
 20
77.54036000000001
 10
236.954809
 20
77.868807
 10
237.207433
 20
78.14806900000001
 10
238.005421
 20
78.41476
 10
238.617269
 20
78.25044700000001
 10
239.083835
 20
77.78228
 10
239.381266
 20
77.047421
 10
239.485711
 20
76.08303000000001
 10
239.485711
 20
76.08303000000001
  0
LWPOLYLINE
  5
189
100
AcDbEntity
  8
Layer 1
  6
ByLayer
 62
    7
370
   -1
100
AcDbPolyline
 90
   41
 70
    0
 43
0
 10
182.515761
 20
22.34076
 10
182.515761
 20
22.64389
 10
182.006901
 20
22.42237
 10
181.733676
 20
22.568103
 10
181.659951
 20
23.09857
 10
181.659951
 20
25.37201
 10
181.610772
 20
26.089024
 10
181.440221
 20
26.5612
 10
180.890884
 20
27.065441
 10
179.994611
 20
27.23741
 10
179.160494
 20
27.122276
 10
178.525861
 20
26.80603
 10
178.180365
 20
26.386316
 10
178.051701
 20
25.93163
 10
178.196265
 20
25.580414
 10
178.548991
 20
25.43031
 10
178.91329
 20
25.578956
 10
179.069411
 20
25.91997
 10
179.046311
 20
26.10651
 10
179.011611
 20
26.38633
 10
179.254471
 20
26.790003
 10
179.844281
 20
26.95759
 10
180.220682
 20
26.894926
 10
180.496251
 20
26.709849
 10
180.723211
 20
25.98993
 10
180.723211
 20
25.27874
 10
179.004384
 20
24.54425
 10
178.248331
 20
24.01961
 10
177.94475
 20
23.569294
 10
177.831991
 20
23.0053
 10
177.920896
 20
22.500514
 10
178.170264
 20
22.106123
 10
178.554072
 20
21.84945
 10
179.046301
 20
21.75782
 10
179.816816
 20
21.95602
 10
180.734781
 20
22.6089
 10
180.948759
 20
21.951648
 10
181.474931
 20
21.75782
 10
181.991016
 20
21.883154
 10
182.515771
 20
22.34076
 10
182.515761
 20
22.34076
  0
LWPOLYLINE
  5
18A
100
AcDbEntity
  8
Layer 1
  6
ByLayer
 62
    7
370
   -1
100
AcDbPolyline
 90
   11
 70
    0
 43
0
 10
180.723191
 20
23.30843
 10
180.663894
 20
22.920777
 10
180.422511
 20
22.69052
 10
179.578271
 20
22.43403
 10
179.062192
 20
22.69489
 10
178.849691
 20
23.33174
 10
178.849691
 20
23.37844
 10
178.945643
 20
23.849706
 10
179.261688
 20
24.2543
 10
180.723191
 20
24.999
 10
180.723191
 20
23.30843
  0
LWPOLYLINE
  5
18B
100
AcDbEntity
  8
Layer 1
  6
ByLayer
 62
    7
370
   -1
100
AcDbPolyline
 90
   25
 70
    0
 43
0
 10
187.951251
 20
24.70747
 10
187.795848
 20
25.70775
 10
187.367225
 20
26.510198
 10
186.72176
 20
27.043766
 10
185.915831
 20
27.23741
 10
184.934265
 20
26.956144
 10
184.557862
 20
26.642267
 10
184.308311
 20
26.24641
 10
184.308311
 20
29.81397
 10
184.250411
 20
29.83737
 10
182.908891
 20
29.41766
 10
182.573501
 20
29.32436
 10
182.573501
 20
29.13782
 10
182.770111
 20
29.14952
 10
183.226922
 20
29.035847
 10
183.336791
 20
28.55493
 10
183.336791
 20
22.50407
 10
183.504842
 20
22.235004
 10
183.943945
 20
21.995454
 10
185.244991
 20
21.75791
 10
186.311855
 20
21.984344
 10
187.17055
 20
22.60754
 10
187.743013
 20
23.543336
 10
187.951181
 20
24.70757
 10
187.951251
 20
24.70747
  0
LWPOLYLINE
  5
18C
100
AcDbEntity
  8
Layer 1
  6
ByLayer
 62
    7
370
   -1
100
AcDbPolyline
 90
   16
 70
    0
 43
0
 10
186.933541
 20
24.17117
 10
186.831986
 20
23.306427
 10
186.537441
 20
22.665749
 10
186.065086
 20
22.267716
 10
185.430101
 20
22.13091
 10
184.643692
 20
22.301414
 10
184.308311
 20
22.69052
 10
184.308311
 20
25.62851
 10
184.402637
 20
25.956957
 10
184.655257
 20
26.236219
 10
185.453231
 20
26.50291
 10
186.065086
 20
26.338595
 10
186.531659
 20
25.870425
 10
186.829095
 20
25.135563
 10
186.933541
 20
24.17117
 10
186.933541
 20
24.17117
  0
LINE
  5
18D
100
AcDbEntity
  8
Layer 1
  6
ByLayer
 62
    7
370
   -1
100
AcDbLine
 10
129.793861
 20
199.793442
 11
259.587721
 21
199.793442
  0
LINE
  5
18E
100
AcDbEntity
  8
Layer 1
  6
ByLayer
 62
    7
370
   -1
100
AcDbLine
 10
259.587721
 20
199.793442
 11
259.587721
 21
0
  0
LINE
  5
18F
100
AcDbEntity
  8
Layer 1
  6
ByLayer
 62
    7
370
   -1
100
AcDbLine
 10
259.587721
 20
0
 11
129.793861
 21
0
  0
LINE
  5
190
100
AcDbEntity
  8
Layer 1
  6
ByLayer
 62
    7
370
   -1
100
AcDbLine
 10
129.793861
 20
141.914919
 11
-1.387778780781446e-16
 21
141.914919
  0
LINE
  5
191
100
AcDbEntity
  8
Layer 1
  6
ByLayer
 62
    7
370
   -1
100
AcDbLine
 10
-1.387778780781446e-16
 20
150.782546
 11
129.793861
 21
150.782546
  0
LINE
  5
192
100
AcDbEntity
  8
Layer 1
  6
ByLayer
 62
    7
370
   -1
100
AcDbLine
 10
123.045305
 20
11.743924
 11
88.042953
 21
11.743924
  0
LINE
  5
193
100
AcDbEntity
  8
Layer 1
  6
ByLayer
 62
    7
370
   -1
100
AcDbLine
 10
88.042953
 20
20.261604
 11
123.045305
 21
20.261604
  0
LWPOLYLINE
  5
194
100
AcDbEntity
  8
0
  6
ByLayer
 62
  256
370
   -1
100
AcDbPolyline
 90
    2
 70
    0
 43
0
 10
18.184965
 20
42.50051
 10
123.045305
 20
42.50051
  0
LWPOLYLINE
  5
195
100
AcDbEntity
  8
0
  6
ByLayer
 62
  256
370
   -1
100
AcDbPolyline
 90
    2
 70
    0
 43
0
 10
88.042953
 20
112.905715
 10
88.042953
 20
7.194835
  0
LWPOLYLINE
  5
196
100
AcDbEntity
  8
0
  6
ByLayer
 62
  256
370
   -1
100
AcDbPolyline
 90
    5
 70
    0
 43
0
 10
123.045305
 20
112.905715
 10
123.045305
 20
7.194835
 10
18.184965
 20
7.194835
 10
18.184965
 20
112.905715
 10
123.045305
 20
112.905715
  0
LINE
  5
197
100
AcDbEntity
  8
Layer 1
  6
ByLayer
 62
    7
370
   -1
100
AcDbLine
 10
252.8434725158592
 20
11.743924
 11
217.8411205158591
 21
11.743924
  0
LINE
  5
198
100
AcDbEntity
  8
Layer 1
  6
ByLayer
 62
    7
370
   -1
100
AcDbLine
 10
217.8411205158591
 20
20.261604
 11
252.8434725158592
 21
20.261604
  0
LWPOLYLINE
  5
199
100
AcDbEntity
  8
0
  6
ByLayer
 62
  256
370
   -1
100
AcDbPolyline
 90
    2
 70
    0
 43
0
 10
147.9831325158592
 20
42.50051
 10
252.8434725158592
 20
42.50051
  0
LWPOLYLINE
  5
19A
100
AcDbEntity
  8
0
  6
ByLayer
 62
  256
370
   -1
100
AcDbPolyline
 90
    2
 70
    0
 43
0
 10
217.8411205158591
 20
112.905715
 10
217.8411205158591
 20
7.194835
  0
LWPOLYLINE
  5
19B
100
AcDbEntity
  8
0
  6
ByLayer
 62
  256
370
   -1
100
AcDbPolyline
 90
    5
 70
    0
 43
0
 10
252.8434725158592
 20
112.905715
 10
252.8434725158592
 20
7.194835
 10
147.9831325158592
 20
7.194835
 10
147.9831325158592
 20
112.905715
 10
252.8434725158592
 20
112.905715
  0
LINE
  5
19C
100
AcDbEntity
  8
0
  6
ByLayer
 62
  256
370
   -1
100
AcDbLine
 10
88.042953
 20
112.905715
 11
88.042953
 21
20.261604
  0
LINE
  5
19D
100
AcDbEntity
  8
0
  6
ByLayer
 62
  256
370
   -1
100
AcDbLine
 10
88.042953
 20
20.261604
 11
88.042953
 21
11.743924
  0
LINE
  5
19E
100
AcDbEntity
  8
0
  6
ByLayer
 62
  256
370
   -1
100
AcDbLine
 10
123.045305
 20
20.261604
 11
123.045305
 21
11.743924
  0
LINE
  5
19F
100
AcDbEntity
  8
0
  6
ByLayer
 62
  256
370
   -1
100
AcDbLine
 10
217.8411205158591
 20
20.261604
 11
217.8411205158591
 21
11.743924
  0
LINE
  5
1A0
100
AcDbEntity
  8
0
  6
ByLayer
 62
  256
370
   -1
100
AcDbLine
 10
252.8434725158592
 20
20.261604
 11
252.8434725158592
 21
11.743924
  0
ENDSEC
  0
SECTION
  2
OBJECTS
  0
DICTIONARY
  5
C
330
0
100
AcDbDictionary
281
    1
  3
ACAD_GROUP
350
D
  0
DICTIONARY
  5
D
330
C
100
AcDbDictionary
281
    1
  0
PLOTSETTINGS
  5
1A1
100
AcDbPlotSettings
  6
1x1
 40
0
 41
0
 42
0
 43
0
  0
ENDSEC
  0
EOF
