0
SECTION
2
HEADER
9
$HANDSEED
5
B5
9
$ACADVER
1
AC1015
9
$INSUNITS
70
4
9
$MEASUREMENT
70
1
9
$GRIDMODE
70
0
0
ENDSEC
0
SECTION
2
CLASSES
0
ENDSEC
0
SECTION
2
TABLES
0
TABLE
2
VPORT
5
2
330
0
100
AcDbSymbolTable
70
1
0
VPORT
5
3
330
2
100
AcDbSymbolTableRecord
100
AcDbViewportTableRecord
2
*ACTIVE
40
1000
70
0
0
ENDTAB
0
TABLE
2
LTYPE
5
4
330
0
100
AcDbSymbolTable
70
5
0
LTYPE
5
E
330
4
100
AcDbSymbolTableRecord
100
AcDbLinetypeTableRecord
2
CONTINUOUS
3
______
70
0
72
65
73
0
40
0
0
LTYPE
5
F
330
4
100
AcDbSymbolTableRecord
100
AcDbLinetypeTableRecord
2
DASHED
3
_ _ _ 
70
0
72
65
73
2
40
10
49
5
74
0
49
-5
74
0
0
LTYPE
5
10
330
4
100
AcDbSymbolTableRecord
100
AcDbLinetypeTableRecord
2
DOTTED
3
. . . 
70
0
72
65
73
2
40
5
49
0
74
0
49
-5
74
0
0
LTYPE
5
11
330
4
100
AcDbSymbolTableRecord
100
AcDbLinetypeTableRecord
2
ByBlock
3

70
0
72
65
73
0
40
0
0
LTYPE
5
12
330
4
100
AcDbSymbolTableRecord
100
AcDbLinetypeTableRecord
2
ByLayer
3

70
0
72
65
73
0
40
0
0
ENDTAB
0
TABLE
2
LAYER
5
5
330
0
100
AcDbSymbolTable
70
1
0
LAYER
5
13
330
5
100
AcDbSymbolTableRecord
100
AcDbLayerTableRecord
2
0
62
7
70
0
6
CONTINUOUS
390
1
0
ENDTAB
0
TABLE
2
STYLE
5
6
330
0
100
AcDbSymbolTable
70
1
0
STYLE
5
7
330
6
100
AcDbSymbolTableRecord
100
AcDbTextStyleTableRecord
2
standard
70
0
40
0
41
1
50
0
71
0
42
1
3
txt
4

0
ENDTAB
0
TABLE
2
VIEW
5
8
330
0
100
AcDbSymbolTable
70
0
0
ENDTAB
0
TABLE
2
UCS
5
9
330
0
100
AcDbSymbolTable
70
0
0
ENDTAB
0
TABLE
2
APPID
5
A
330
0
100
AcDbSymbolTable
70
1
0
APPID
5
B
330
A
100
AcDbSymbolTableRecord
100
AcDbRegAppTableRecord
2
ACAD
70
0
0
ENDTAB
0
TABLE
2
DIMSTYLE
5
C
330
0
100
AcDbSymbolTable
100
AcDbDimStyleTable
70
0
71
1
0
ENDTAB
0
TABLE
2
BLOCK_RECORD
5
D
330
0
100
AcDbSymbolTable
70
2
0
BLOCK_RECORD
5
16
330
D
100
AcDbSymbolTableRecord
100
AcDbBlockTableRecord
2
*Model_Space
70
0
280
0
281
1
0
BLOCK_RECORD
5
19
330
D
100
AcDbSymbolTableRecord
100
AcDbBlockTableRecord
2
*Paper_Space
70
0
280
0
281
1
0
ENDTAB
0
ENDSEC
0
SECTION
2
BLOCKS
0
BLOCK
5
14
330
0
100
AcDbEntity
100
AcDbBlockBegin
2
*Model_Space
70
0
10
0
20
0
30
0
3
*Model_Space
1

0
ENDBLK
5
15
330
0
100
AcDbEntity
100
AcDbBlockEnd
0
BLOCK
5
17
330
0
100
AcDbEntity
100
AcDbBlockBegin
2
*Paper_Space
70
0
10
0
20
0
30
0
3
*Paper_Space
1

0
ENDBLK
5
18
330
0
100
AcDbEntity
100
AcDbBlockEnd
0
ENDSEC
0
SECTION
2
ENTITIES
0
LINE
5
1B
330
14
100
AcDbEntity
8
0
100
AcDbLine
10
-111
20
-52.5
30
0
11
-111
21
-55.5
31
0
0
LINE
5
1C
330
14
100
AcDbEntity
8
0
100
AcDbLine
10
-111
20
-55.5
30
0
11
-105
21
-55.5
31
0
0
LINE
5
1D
330
14
100
AcDbEntity
8
0
100
AcDbLine
10
-105
20
-55.5
30
0
11
-105
21
-52.5
31
0
0
LINE
5
1E
330
14
100
AcDbEntity
8
0
100
AcDbLine
10
-105
20
-52.5
30
0
11
-99
21
-52.5
31
0
0
LINE
5
1F
330
14
100
AcDbEntity
8
0
100
AcDbLine
10
-99
20
-52.5
30
0
11
-99
21
-55.5
31
0
0
LINE
5
20
330
14
100
AcDbEntity
8
0
100
AcDbLine
10
-99
20
-55.5
30
0
11
-93
21
-55.5
31
0
0
LINE
5
21
330
14
100
AcDbEntity
8
0
100
AcDbLine
10
-93
20
-55.5
30
0
11
-93
21
-52.5
31
0
0
LINE
5
22
330
14
100
AcDbEntity
8
0
100
AcDbLine
10
-93
20
-52.5
30
0
11
-87
21
-52.5
31
0
0
LINE
5
23
330
14
100
AcDbEntity
8
0
100
AcDbLine
10
-87
20
-52.5
30
0
11
-87
21
-55.5
31
0
0
LINE
5
24
330
14
100
AcDbEntity
8
0
100
AcDbLine
10
-87
20
-55.5
30
0
11
-81
21
-55.5
31
0
0
LINE
5
25
330
14
100
AcDbEntity
8
0
100
AcDbLine
10
-81
20
-55.5
30
0
11
-81
21
-52.5
31
0
0
LINE
5
26
330
14
100
AcDbEntity
8
0
100
AcDbLine
10
-81
20
-52.5
30
0
11
-75
21
-52.5
31
0
0
LINE
5
27
330
14
100
AcDbEntity
8
0
100
AcDbLine
10
-75
20
-52.5
30
0
11
-75
21
-55.5
31
0
0
LINE
5
28
330
14
100
AcDbEntity
8
0
100
AcDbLine
10
-75
20
-55.5
30
0
11
-69
21
-55.5
31
0
0
LINE
5
29
330
14
100
AcDbEntity
8
0
100
AcDbLine
10
-69
20
-55.5
30
0
11
-69
21
-52.5
31
0
0
LINE
5
2A
330
14
100
AcDbEntity
8
0
100
AcDbLine
10
-69
20
-52.5
30
0
11
-63
21
-52.5
31
0
0
LINE
5
2B
330
14
100
AcDbEntity
8
0
100
AcDbLine
10
-63
20
-52.5
30
0
11
-63
21
-55.5
31
0
0
LINE
5
2C
330
14
100
AcDbEntity
8
0
100
AcDbLine
10
-63
20
-55.5
30
0
11
-57
21
-55.5
31
0
0
LINE
5
2D
330
14
100
AcDbEntity
8
0
100
AcDbLine
10
-57
20
-55.5
30
0
11
-57
21
-52.5
31
0
0
LINE
5
2E
330
14
100
AcDbEntity
8
0
100
AcDbLine
10
-57
20
-52.5
30
0
11
-51
21
-52.5
31
0
0
LINE
5
2F
330
14
100
AcDbEntity
8
0
100
AcDbLine
10
-51
20
-52.5
30
0
11
-51
21
-55.5
31
0
0
LINE
5
30
330
14
100
AcDbEntity
8
0
100
AcDbLine
10
-51
20
-55.5
30
0
11
-45
21
-55.5
31
0
0
LINE
5
31
330
14
100
AcDbEntity
8
0
100
AcDbLine
10
-45
20
-55.5
30
0
11
-45
21
-52.5
31
0
0
LINE
5
32
330
14
100
AcDbEntity
8
0
100
AcDbLine
10
-45
20
-52.5
30
0
11
-39
21
-52.5
31
0
0
LINE
5
33
330
14
100
AcDbEntity
8
0
100
AcDbLine
10
-39
20
-52.5
30
0
11
-39
21
-55.5
31
0
0
LINE
5
34
330
14
100
AcDbEntity
8
0
100
AcDbLine
10
-39
20
-55.5
30
0
11
-33
21
-55.5
31
0
0
LINE
5
35
330
14
100
AcDbEntity
8
0
100
AcDbLine
10
-33
20
-55.5
30
0
11
-33
21
-52.5
31
0
0
LINE
5
36
330
14
100
AcDbEntity
8
0
100
AcDbLine
10
-33
20
-52.5
30
0
11
-27
21
-52.5
31
0
0
LINE
5
37
330
14
100
AcDbEntity
8
0
100
AcDbLine
10
-27
20
-52.5
30
0
11
-27
21
-55.5
31
0
0
LINE
5
38
330
14
100
AcDbEntity
8
0
100
AcDbLine
10
-27
20
-55.5
30
0
11
-21
21
-55.5
31
0
0
LINE
5
39
330
14
100
AcDbEntity
8
0
100
AcDbLine
10
-21
20
-55.5
30
0
11
-21
21
-52.5
31
0
0
LINE
5
3A
330
14
100
AcDbEntity
8
0
100
AcDbLine
10
-21
20
-52.5
30
0
11
-15
21
-52.5
31
0
0
LINE
5
3B
330
14
100
AcDbEntity
8
0
100
AcDbLine
10
-15
20
-52.5
30
0
11
-15
21
-55.5
31
0
0
LINE
5
3C
330
14
100
AcDbEntity
8
0
100
AcDbLine
10
-15
20
-55.5
30
0
11
-9
21
-55.5
31
0
0
LINE
5
3D
330
14
100
AcDbEntity
8
0
100
AcDbLine
10
-9
20
-55.5
30
0
11
-9
21
-52.5
31
0
0
LINE
5
3E
330
14
100
AcDbEntity
8
0
100
AcDbLine
10
-9
20
-52.5
30
0
11
-3
21
-52.5
31
0
0
LINE
5
3F
330
14
100
AcDbEntity
8
0
100
AcDbLine
10
-3
20
-52.5
30
0
11
-3
21
-55.5
31
0
0
LINE
5
40
330
14
100
AcDbEntity
8
0
100
AcDbLine
10
-3
20
-55.5
30
0
11
3
21
-55.5
31
0
0
LINE
5
41
330
14
100
AcDbEntity
8
0
100
AcDbLine
10
3
20
-55.5
30
0
11
3
21
-52.5
31
0
0
LINE
5
42
330
14
100
AcDbEntity
8
0
100
AcDbLine
10
3
20
-52.5
30
0
11
9
21
-52.5
31
0
0
LINE
5
43
330
14
100
AcDbEntity
8
0
100
AcDbLine
10
9
20
-52.5
30
0
11
9
21
-55.5
31
0
0
LINE
5
44
330
14
100
AcDbEntity
8
0
100
AcDbLine
10
9
20
-55.5
30
0
11
15
21
-55.5
31
0
0
LINE
5
45
330
14
100
AcDbEntity
8
0
100
AcDbLine
10
15
20
-55.5
30
0
11
15
21
-52.5
31
0
0
LINE
5
46
330
14
100
AcDbEntity
8
0
100
AcDbLine
10
15
20
-52.5
30
0
11
21
21
-52.5
31
0
0
LINE
5
47
330
14
100
AcDbEntity
8
0
100
AcDbLine
10
21
20
-52.5
30
0
11
21
21
-55.5
31
0
0
LINE
5
48
330
14
100
AcDbEntity
8
0
100
AcDbLine
10
21
20
-55.5
30
0
11
27
21
-55.5
31
0
0
LINE
5
49
330
14
100
AcDbEntity
8
0
100
AcDbLine
10
27
20
-55.5
30
0
11
27
21
-52.5
31
0
0
LINE
5
4A
330
14
100
AcDbEntity
8
0
100
AcDbLine
10
27
20
-52.5
30
0
11
33
21
-52.5
31
0
0
LINE
5
4B
330
14
100
AcDbEntity
8
0
100
AcDbLine
10
33
20
-52.5
30
0
11
33
21
-55.5
31
0
0
LINE
5
4C
330
14
100
AcDbEntity
8
0
100
AcDbLine
10
33
20
-55.5
30
0
11
39
21
-55.5
31
0
0
LINE
5
4D
330
14
100
AcDbEntity
8
0
100
AcDbLine
10
39
20
-55.5
30
0
11
39
21
-52.5
31
0
0
LINE
5
4E
330
14
100
AcDbEntity
8
0
100
AcDbLine
10
39
20
-52.5
30
0
11
45
21
-52.5
31
0
0
LINE
5
4F
330
14
100
AcDbEntity
8
0
100
AcDbLine
10
45
20
-52.5
30
0
11
45
21
-55.5
31
0
0
LINE
5
50
330
14
100
AcDbEntity
8
0
100
AcDbLine
10
45
20
-55.5
30
0
11
51
21
-55.5
31
0
0
LINE
5
51
330
14
100
AcDbEntity
8
0
100
AcDbLine
10
51
20
-55.5
30
0
11
51
21
-52.5
31
0
0
LINE
5
52
330
14
100
AcDbEntity
8
0
100
AcDbLine
10
51
20
-52.5
30
0
11
57
21
-52.5
31
0
0
LINE
5
53
330
14
100
AcDbEntity
8
0
100
AcDbLine
10
57
20
-52.5
30
0
11
57
21
-55.5
31
0
0
LINE
5
54
330
14
100
AcDbEntity
8
0
100
AcDbLine
10
57
20
-55.5
30
0
11
63
21
-55.5
31
0
0
LINE
5
55
330
14
100
AcDbEntity
8
0
100
AcDbLine
10
63
20
-55.5
30
0
11
63
21
-52.5
31
0
0
LINE
5
56
330
14
100
AcDbEntity
8
0
100
AcDbLine
10
63
20
-52.5
30
0
11
69
21
-52.5
31
0
0
LINE
5
57
330
14
100
AcDbEntity
8
0
100
AcDbLine
10
69
20
-52.5
30
0
11
69
21
-55.5
31
0
0
LINE
5
58
330
14
100
AcDbEntity
8
0
100
AcDbLine
10
69
20
-55.5
30
0
11
75
21
-55.5
31
0
0
LINE
5
59
330
14
100
AcDbEntity
8
0
100
AcDbLine
10
75
20
-55.5
30
0
11
75
21
-52.5
31
0
0
LINE
5
5A
330
14
100
AcDbEntity
8
0
100
AcDbLine
10
75
20
-52.5
30
0
11
81
21
-52.5
31
0
0
LINE
5
5B
330
14
100
AcDbEntity
8
0
100
AcDbLine
10
81
20
-52.5
30
0
11
81
21
-55.5
31
0
0
LINE
5
5C
330
14
100
AcDbEntity
8
0
100
AcDbLine
10
81
20
-55.5
30
0
11
87
21
-55.5
31
0
0
LINE
5
5D
330
14
100
AcDbEntity
8
0
100
AcDbLine
10
87
20
-55.5
30
0
11
87
21
-52.5
31
0
0
LINE
5
5E
330
14
100
AcDbEntity
8
0
100
AcDbLine
10
87
20
-52.5
30
0
11
93
21
-52.5
31
0
0
LINE
5
5F
330
14
100
AcDbEntity
8
0
100
AcDbLine
10
93
20
-52.5
30
0
11
93
21
-55.5
31
0
0
LINE
5
60
330
14
100
AcDbEntity
8
0
100
AcDbLine
10
93
20
-55.5
30
0
11
99
21
-55.5
31
0
0
LINE
5
61
330
14
100
AcDbEntity
8
0
100
AcDbLine
10
99
20
-55.5
30
0
11
99
21
-52.5
31
0
0
LINE
5
62
330
14
100
AcDbEntity
8
0
100
AcDbLine
10
99
20
-52.5
30
0
11
105
21
-52.5
31
0
0
LINE
5
63
330
14
100
AcDbEntity
8
0
100
AcDbLine
10
105
20
-52.5
30
0
11
105
21
-55.5
31
0
0
LINE
5
64
330
14
100
AcDbEntity
8
0
100
AcDbLine
10
105
20
-55.5
30
0
11
111
21
-55.5
31
0
0
LINE
5
65
330
14
100
AcDbEntity
8
0
100
AcDbLine
10
111
20
-55.5
30
0
11
111
21
-52.5
31
0
0
LINE
5
66
330
14
100
AcDbEntity
8
0
100
AcDbLine
10
111
20
-52.5
30
0
11
117
21
-52.5
31
0
0
LINE
5
67
330
14
100
AcDbEntity
8
0
100
AcDbLine
10
117
20
-52.5
30
0
11
117
21
-55.5
31
0
0
LINE
5
68
330
14
100
AcDbEntity
8
0
100
AcDbLine
10
117
20
-55.5
30
0
11
122.5
21
-55.5
31
0
0
LINE
5
69
330
14
100
AcDbEntity
8
0
100
AcDbLine
10
122.5
20
-55.5
30
0
11
125.5
21
-55.5
31
0
0
LINE
5
6A
330
14
100
AcDbEntity
8
0
100
AcDbLine
10
125.5
20
-55.5
30
0
11
125.5
21
-52.5
31
0
0
LINE
5
6B
330
14
100
AcDbEntity
8
0
100
AcDbLine
10
125.5
20
-52.5
30
0
11
125.5
21
-45
31
0
0
LINE
5
6C
330
14
100
AcDbEntity
8
0
100
AcDbLine
10
125.5
20
-45
30
0
11
122.5
21
-45
31
0
0
LINE
5
6D
330
14
100
AcDbEntity
8
0
100
AcDbLine
10
122.5
20
-45
30
0
11
122.5
21
-39
31
0
0
LINE
5
6E
330
14
100
AcDbEntity
8
0
100
AcDbLine
10
122.5
20
-39
30
0
11
125.5
21
-39
31
0
0
LINE
5
6F
330
14
100
AcDbEntity
8
0
100
AcDbLine
10
125.5
20
-39
30
0
11
125.5
21
-33
31
0
0
LINE
5
70
330
14
100
AcDbEntity
8
0
100
AcDbLine
10
125.5
20
-33
30
0
11
122.5
21
-33
31
0
0
LINE
5
71
330
14
100
AcDbEntity
8
0
100
AcDbLine
10
122.5
20
-33
30
0
11
122.5
21
-27
31
0
0
LINE
5
72
330
14
100
AcDbEntity
8
0
100
AcDbLine
10
122.5
20
-27
30
0
11
125.5
21
-27
31
0
0
LINE
5
73
330
14
100
AcDbEntity
8
0
100
AcDbLine
10
125.5
20
-27
30
0
11
125.5
21
-21
31
0
0
LINE
5
74
330
14
100
AcDbEntity
8
0
100
AcDbLine
10
125.5
20
-21
30
0
11
122.5
21
-21
31
0
0
LINE
5
75
330
14
100
AcDbEntity
8
0
100
AcDbLine
10
122.5
20
-21
30
0
11
122.5
21
-15
31
0
0
LINE
5
76
330
14
100
AcDbEntity
8
0
100
AcDbLine
10
122.5
20
-15
30
0
11
125.5
21
-15
31
0
0
LINE
5
77
330
14
100
AcDbEntity
8
0
100
AcDbLine
10
125.5
20
-15
30
0
11
125.5
21
-9
31
0
0
LINE
5
78
330
14
100
AcDbEntity
8
0
100
AcDbLine
10
125.5
20
-9
30
0
11
122.5
21
-9
31
0
0
LINE
5
79
330
14
100
AcDbEntity
8
0
100
AcDbLine
10
122.5
20
-9
30
0
11
122.5
21
-3
31
0
0
LINE
5
7A
330
14
100
AcDbEntity
8
0
100
AcDbLine
10
122.5
20
-3
30
0
11
125.5
21
-3
31
0
0
LINE
5
7B
330
14
100
AcDbEntity
8
0
100
AcDbLine
10
125.5
20
-3
30
0
11
125.5
21
3
31
0
0
LINE
5
7C
330
14
100
AcDbEntity
8
0
100
AcDbLine
10
125.5
20
3
30
0
11
122.5
21
3
31
0
0
LINE
5
7D
330
14
100
AcDbEntity
8
0
100
AcDbLine
10
122.5
20
3
30
0
11
122.5
21
9
31
0
0
LINE
5
7E
330
14
100
AcDbEntity
8
0
100
AcDbLine
10
122.5
20
9
30
0
11
125.5
21
9
31
0
0
LINE
5
7F
330
14
100
AcDbEntity
8
0
100
AcDbLine
10
125.5
20
9
30
0
11
125.5
21
15
31
0
0
LINE
5
80
330
14
100
AcDbEntity
8
0
100
AcDbLine
10
125.5
20
15
30
0
11
122.5
21
15
31
0
0
LINE
5
81
330
14
100
AcDbEntity
8
0
100
AcDbLine
10
122.5
20
15
30
0
11
122.5
21
21
31
0
0
LINE
5
82
330
14
100
AcDbEntity
8
0
100
AcDbLine
10
122.5
20
21
30
0
11
125.5
21
21
31
0
0
LINE
5
83
330
14
100
AcDbEntity
8
0
100
AcDbLine
10
125.5
20
21
30
0
11
125.5
21
27
31
0
0
LINE
5
84
330
14
100
AcDbEntity
8
0
100
AcDbLine
10
125.5
20
27
30
0
11
122.5
21
27
31
0
0
LINE
5
85
330
14
100
AcDbEntity
8
0
100
AcDbLine
10
122.5
20
27
30
0
11
122.5
21
33
31
0
0
LINE
5
86
330
14
100
AcDbEntity
8
0
100
AcDbLine
10
122.5
20
33
30
0
11
125.5
21
33
31
0
0
LINE
5
87
330
14
100
AcDbEntity
8
0
100
AcDbLine
10
125.5
20
33
30
0
11
125.5
21
39
31
0
0
LINE
5
88
330
14
100
AcDbEntity
8
0
100
AcDbLine
10
125.5
20
39
30
0
11
122.5
21
39
31
0
0
LINE
5
89
330
14
100
AcDbEntity
8
0
100
AcDbLine
10
122.5
20
39
30
0
11
122.5
21
45
31
0
0
LINE
5
8A
330
14
100
AcDbEntity
8
0
100
AcDbLine
10
122.5
20
45
30
0
11
125.5
21
45
31
0
0
LINE
5
8B
330
14
100
AcDbEntity
8
0
100
AcDbLine
10
125.5
20
45
30
0
11
125.5
21
52.5
31
0
0
LINE
5
8C
330
14
100
AcDbEntity
8
0
100
AcDbLine
10
125.5
20
52.5
30
0
11
122.5
21
52.5
31
0
0
LINE
5
8D
330
14
100
AcDbEntity
8
0
100
AcDbLine
10
122.5
20
52.5
30
0
11
-122.5
21
52.5
31
0
0
LINE
5
8E
330
14
100
AcDbEntity
8
0
100
AcDbLine
10
-122.5
20
52.5
30
0
11
-125.5
21
52.5
31
0
0
LINE
5
8F
330
14
100
AcDbEntity
8
0
100
AcDbLine
10
-125.5
20
52.5
30
0
11
-125.5
21
45
31
0
0
LINE
5
90
330
14
100
AcDbEntity
8
0
100
AcDbLine
10
-125.5
20
45
30
0
11
-122.5
21
45
31
0
0
LINE
5
91
330
14
100
AcDbEntity
8
0
100
AcDbLine
10
-122.5
20
45
30
0
11
-122.5
21
39
31
0
0
LINE
5
92
330
14
100
AcDbEntity
8
0
100
AcDbLine
10
-122.5
20
39
30
0
11
-125.5
21
39
31
0
0
LINE
5
93
330
14
100
AcDbEntity
8
0
100
AcDbLine
10
-125.5
20
39
30
0
11
-125.5
21
33
31
0
0
LINE
5
94
330
14
100
AcDbEntity
8
0
100
AcDbLine
10
-125.5
20
33
30
0
11
-122.5
21
33
31
0
0
LINE
5
95
330
14
100
AcDbEntity
8
0
100
AcDbLine
10
-122.5
20
33
30
0
11
-122.5
21
27
31
0
0
LINE
5
96
330
14
100
AcDbEntity
8
0
100
AcDbLine
10
-122.5
20
27
30
0
11
-125.5
21
27
31
0
0
LINE
5
97
330
14
100
AcDbEntity
8
0
100
AcDbLine
10
-125.5
20
27
30
0
11
-125.5
21
21
31
0
0
LINE
5
98
330
14
100
AcDbEntity
8
0
100
AcDbLine
10
-125.5
20
21
30
0
11
-122.5
21
21
31
0
0
LINE
5
99
330
14
100
AcDbEntity
8
0
100
AcDbLine
10
-122.5
20
21
30
0
11
-122.5
21
15
31
0
0
LINE
5
9A
330
14
100
AcDbEntity
8
0
100
AcDbLine
10
-122.5
20
15
30
0
11
-125.5
21
15
31
0
0
LINE
5
9B
330
14
100
AcDbEntity
8
0
100
AcDbLine
10
-125.5
20
15
30
0
11
-125.5
21
9
31
0
0
LINE
5
9C
330
14
100
AcDbEntity
8
0
100
AcDbLine
10
-125.5
20
9
30
0
11
-122.5
21
9
31
0
0
LINE
5
9D
330
14
100
AcDbEntity
8
0
100
AcDbLine
10
-122.5
20
9
30
0
11
-122.5
21
3
31
0
0
LINE
5
9E
330
14
100
AcDbEntity
8
0
100
AcDbLine
10
-122.5
20
3
30
0
11
-125.5
21
3
31
0
0
LINE
5
9F
330
14
100
AcDbEntity
8
0
100
AcDbLine
10
-125.5
20
3
30
0
11
-125.5
21
-3
31
0
0
LINE
5
A0
330
14
100
AcDbEntity
8
0
100
AcDbLine
10
-125.5
20
-3
30
0
11
-122.5
21
-3
31
0
0
LINE
5
A1
330
14
100
AcDbEntity
8
0
100
AcDbLine
10
-122.5
20
-3
30
0
11
-122.5
21
-9
31
0
0
LINE
5
A2
330
14
100
AcDbEntity
8
0
100
AcDbLine
10
-122.5
20
-9
30
0
11
-125.5
21
-9
31
0
0
LINE
5
A3
330
14
100
AcDbEntity
8
0
100
AcDbLine
10
-125.5
20
-9
30
0
11
-125.5
21
-15
31
0
0
LINE
5
A4
330
14
100
AcDbEntity
8
0
100
AcDbLine
10
-125.5
20
-15
30
0
11
-122.5
21
-15
31
0
0
LINE
5
A5
330
14
100
AcDbEntity
8
0
100
AcDbLine
10
-122.5
20
-15
30
0
11
-122.5
21
-21
31
0
0
LINE
5
A6
330
14
100
AcDbEntity
8
0
100
AcDbLine
10
-122.5
20
-21
30
0
11
-125.5
21
-21
31
0
0
LINE
5
A7
330
14
100
AcDbEntity
8
0
100
AcDbLine
10
-125.5
20
-21
30
0
11
-125.5
21
-27
31
0
0
LINE
5
A8
330
14
100
AcDbEntity
8
0
100
AcDbLine
10
-125.5
20
-27
30
0
11
-122.5
21
-27
31
0
0
LINE
5
A9
330
14
100
AcDbEntity
8
0
100
AcDbLine
10
-122.5
20
-27
30
0
11
-122.5
21
-33
31
0
0
LINE
5
AA
330
14
100
AcDbEntity
8
0
100
AcDbLine
10
-122.5
20
-33
30
0
11
-125.5
21
-33
31
0
0
LINE
5
AB
330
14
100
AcDbEntity
8
0
100
AcDbLine
10
-125.5
20
-33
30
0
11
-125.5
21
-39
31
0
0
LINE
5
AC
330
14
100
AcDbEntity
8
0
100
AcDbLine
10
-125.5
20
-39
30
0
11
-122.5
21
-39
31
0
0
LINE
5
AD
330
14
100
AcDbEntity
8
0
100
AcDbLine
10
-122.5
20
-39
30
0
11
-122.5
21
-45
31
0
0
LINE
5
AE
330
14
100
AcDbEntity
8
0
100
AcDbLine
10
-122.5
20
-45
30
0
11
-125.5
21
-45
31
0
0
LINE
5
AF
330
14
100
AcDbEntity
8
0
100
AcDbLine
10
-125.5
20
-45
30
0
11
-125.5
21
-52.5
31
0
0
LINE
5
B0
330
14
100
AcDbEntity
8
0
100
AcDbLine
10
-125.5
20
-52.5
30
0
11
-125.5
21
-55.5
31
0
0
LINE
5
B1
330
14
100
AcDbEntity
8
0
100
AcDbLine
10
-125.5
20
-55.5
30
0
11
-122.5
21
-55.5
31
0
0
LINE
5
B2
330
14
100
AcDbEntity
8
0
100
AcDbLine
10
-122.5
20
-55.5
30
0
11
-117
21
-55.5
31
0
0
LINE
5
B3
330
14
100
AcDbEntity
8
0
100
AcDbLine
10
-117
20
-55.5
30
0
11
-117
21
-52.5
31
0
0
LINE
5
B4
330
14
100
AcDbEntity
8
0
100
AcDbLine
10
-117
20
-52.5
30
0
11
-111
21
-52.5
31
0
0
ENDSEC
0
SECTION
2
OBJECTS
0
DICTIONARY
5
1
330
0
100
AcDbDictionary
281
1
3
ACAD_GROUP
350
1A
0
DICTIONARY
5
1A
330
1
100
AcDbDictionary
281
1
0
ENDSEC
0
EOF
999
MAKERCASE_STATE_BEGIN
999
{"mc":1,"gen":"basicBox","sv":3,"store":"basicBoxStore","data":"RY47D8IwDIT/y81RFR5lyMzCgIQEG2IIxLSW+lKSQqHqf8d9SGw+++789XiRD1xXMBuFe90dqsCO9lwGmB5vdjGHWe1ShZw4y6MILcJRMx7W23RQKG0kz7YYEy9btDSVRerEjU2iNRQebYh1CfO0RSDJ8PQHJvqWFOqGhGCeBeLyaeSEJ1cZeQmTy+hkvZ2
999
h5vWZv+LZqUUeWQr+ynYw6ToR0sUdqYHRyYjrqXLk7b2Q/HWl9G34AQ==","crc":811107714}
999
MAKERCASE_STATE_END